<svg xmlns="http://www.w3.org/2000/svg" viewBox="0 0 352.63 173.95"><defs><style>.cls-1{fill:#5baf47;}.cls-2{fill:#5a5b5d;}.cls-3{fill:none;}</style></defs><g id="Layer_2" data-name="Layer 2"><g id="Layer_1-2" data-name="Layer 1"><polygon class="cls-1" points="321.46 0 259.11 0 227.93 54.03 243.89 81.72 264.93 81.72 248.97 54.03 269.67 18.29 310.9 18.29 331.6 54.03 310.9 89.78 301.17 89.78 290.62 108.07 321.46 108.07 352.63 54.03 321.46 0"/><polygon class="cls-1" points="296.52 26.35 275.4 26.35 291.36 54.03 270.75 89.78 229.43 89.78 208.81 54.03 229.43 18.29 239.24 18.29 249.71 0 218.96 0 187.7 54.03 218.96 108.07 281.31 108.07 312.48 54.03 296.52 26.35"/><path class="cls-2" d="M27.09,19.62A3.55,3.55,0,0,0,30.58,16a3.6,3.6,0,0,0-3.49-3.83A3.67,3.67,0,0,0,23.51,16,3.63,3.63,0,0,0,27.09,19.62Z"/><path class="cls-2" d="M26.48,106.24a3.66,3.66,0,0,0-3.58,3.82,3.62,3.62,0,0,0,3.58,3.66A3.55,3.55,0,0,0,30,110.06,3.6,3.6,0,0,0,26.48,106.24Z"/><path class="cls-2" d="M41.56,33.83c0-8.48-2.58-11.06-8.07-11.06H29.75a8.13,8.13,0,0,0-8.4,8.4V35c0,4.74,2.83,8.65,10.06,8.65h4v4.49h-13c-2.91,0-6.15-1.83-6.15-4.74V34.08l-6.15,1.08v9.15c0,6.07,6.32,10,9.8,10h21.7V33.83ZM30.41,37.49c-2,0-2.91-.75-2.91-2.58V32.25a3.1,3.1,0,0,1,3.33-3.32h1.49c2.25,0,3.08,1.49,3.08,3.32v5.24Z"/><path class="cls-2" d="M154.61,43.64V11.88L148.46,13V37.49h-7.9v-8c0-3.66-2-6.82-8.06-6.82h-4.66c-4.75,0-8,3.18-11.38,8.24V23.69l-5.82,1.08V37.49h-7.82V23.69l-6.15,1.08V37.49H90.13L83.2,21.36,77,22.44l6.45,15.05H71.48v6.15Zm-27.85-14.8h4c2.33,0,3.66,1.17,3.66,3.16v5.49H116.94C120.09,33.79,123.5,28.84,126.76,28.84Z"/><path class="cls-2" d="M99.75,20.87A3.72,3.72,0,0,0,103.32,17a3.57,3.57,0,0,0-3.57-3.66A3.64,3.64,0,0,0,96.09,17,3.78,3.78,0,0,0,99.75,20.87Z"/><path class="cls-2" d="M96.09,64.59a3.78,3.78,0,0,0,3.66,3.82,3.71,3.71,0,0,0,3.57-3.82,3.57,3.57,0,0,0-3.57-3.66A3.64,3.64,0,0,0,96.09,64.59Z"/><path class="cls-2" d="M35.82,19.62A3.62,3.62,0,0,0,39.39,16a3.67,3.67,0,0,0-3.57-3.83A3.78,3.78,0,0,0,32.24,16,3.74,3.74,0,0,0,35.82,19.62Z"/><path class="cls-2" d="M56.35,43.64h4v1.83c0,2.16-1.66,2.66-5.9,2.66H48.28v6.16h7.9c7.23,0,10.31-1.67,10.31-8.82V33.84c0-8.48-2.57-11.06-8.06-11.06H54.69a8.12,8.12,0,0,0-8.4,8.39V35C46.29,39.73,49.12,43.64,56.35,43.64Zm-3.9-11.39a3.09,3.09,0,0,1,3.32-3.32h1.5c2.24,0,3.07,1.49,3.07,3.32v5.24h-5c-2,0-2.91-.75-2.91-2.58V32.25Z"/><polygon class="cls-2" points="160.85 43.64 167 43.64 167 11.88 160.85 12.97 160.85 43.64"/><polygon class="cls-2" points="160.85 91.19 167 91.19 167 59.44 160.85 60.52 160.85 91.19"/><path class="cls-2" d="M35.2,106.24a3.74,3.74,0,0,0,0,7.48,3.62,3.62,0,0,0,3.58-3.66A3.66,3.66,0,0,0,35.2,106.24Z"/><path class="cls-2" d="M65.55,91.19V85H56.73a2.6,2.6,0,0,1-2.49-2.41V79.05a2.53,2.53,0,0,1,2.49-2.32H63.3V70.57H54.24a6.15,6.15,0,0,0-6.15,5.91V81A5.64,5.64,0,0,0,49.37,85H33v6.15h5.82v3.33c0,2-.92,2.74-2.91,2.74H26.14c-2.24,0-3.41-1.41-3.41-4.9V82.63l-6.15,1.08V93c0,6,3.49,10.39,8.23,10.39H36.86c4.91,0,8.15-3.33,8.15-8.48V91.2H65.55Z"/><path class="cls-2" d="M154.61,59.44l-6.15,1.08V85h-7.9v-8c0-3.66-2-6.82-8.06-6.82h-4.66c-4.75,0-8,3.19-11.38,8.18V71.24l-5.82,1.08V85h-7.82V72.32L96.67,73.4V85H77V59.52L70.86,60.6V91.19h83.75V59.44ZM116.94,85c3.15-3.7,6.56-8.64,9.82-8.64h4c2.33,0,3.66,1.16,3.66,3.15V85Z"/><polygon class="cls-2" points="89.72 129.17 89.72 144.57 93 144.57 93 128.63 89.72 129.17"/><path class="cls-2" d="M83.14,141.48H79.25v-6.73l-3.29.54v6.19H73.48v-6.73l-3.29.54v6.19H67.67v-6.73l-3.29.54v6.19H59.8a4.21,4.21,0,0,0,.68-2.31v-1.92c0-2.38-1.51-4.34-5.35-4.34H53l-3.27-.1v5a8.7,8.7,0,0,0,.6,3.65H45.8v-1.85c0-4.29-1.38-5.59-4.32-5.59h-2a4.24,4.24,0,0,0-4.5,4.24v1.94c0,2.39,1.52,4.37,5.39,4.37h2.14v.92c0,1.09-.9,1.35-3.16,1.35h-3.3V150h4.23c3.87,0,5.52-.84,5.52-4.46v-.95H86.42V128.62l-3.27.54v12.32Zm-43.3,0c-1.07,0-1.56-.38-1.56-1.3v-1.35a1.61,1.61,0,0,1,1.78-1.68h.8a1.51,1.51,0,0,1,1.65,1.68v2.65H39.84ZM53,136h2.65c1.06,0,1.55.38,1.55,1.3v1.33a1.6,1.6,0,0,1-1.77,1.67h-.8A1.49,1.49,0,0,1,53,138.62Z"/><polygon class="cls-2" points="28.8 133.46 25.5 134 28.91 141.52 22.6 141.52 22.6 144.59 33.71 144.59 32.46 141.52 28.8 133.46"/><path class="cls-2" d="M6.67,152.14a1.89,1.89,0,0,0-1.9,1.93,1.87,1.87,0,0,0,1.9,1.83,1.83,1.83,0,0,0,1.86-1.83A1.85,1.85,0,0,0,6.67,152.14Z"/><path class="cls-2" d="M11.32,152.14a2,2,0,0,0-1.91,1.93,1.93,1.93,0,0,0,1.91,1.83,1.87,1.87,0,0,0,1.9-1.83A1.91,1.91,0,0,0,11.32,152.14Z"/><path class="cls-2" d="M285.51,132.77a1.86,1.86,0,0,0,0-3.71,1.86,1.86,0,1,0,0,3.71Z"/><path class="cls-2" d="M293.1,139.81c0-4.2-1.35-5.48-4.23-5.48h-2a4.14,4.14,0,0,0-4.4,4.16v1.89c0,2.35,1.48,4.29,5.27,4.29h2.09v2.22H283c-1.53,0-3.23-.91-3.23-2.35v-4.61l-3.22.54V145c0,3,3.31,4.94,5.14,4.94H293.1Zm-5.84,1.81c-1.05,0-1.53-.37-1.53-1.28V139a1.57,1.57,0,0,1,1.74-1.65h.78a1.48,1.48,0,0,1,1.62,1.65v2.59Z"/><path class="cls-2" d="M345,141.62v-4c0-1.82-1-3.38-4.23-3.38h-2.44c-2.49,0-4.18,1.58-6,4.08v-3.59l-3.05.54v6.3h-4.1v-6.84l-3.23.54v6.3h-3.43l-3.63-8-3.27.54,3.39,7.45H308.8v3H345m-7.21-7.33h2.1c1.22,0,1.91.57,1.91,1.56v2.72h-9.16C334.28,139.79,336.07,137.34,337.78,137.34Z"/><path class="cls-2" d="M323.62,133.38a1.88,1.88,0,0,0,1.87-1.89,1.82,1.82,0,0,0-1.87-1.81,1.85,1.85,0,0,0-1.92,1.81A1.92,1.92,0,0,0,323.62,133.38Z"/><path class="cls-2" d="M290.09,132.77a1.86,1.86,0,1,0,0-3.71,1.86,1.86,0,1,0,0,3.71Z"/><path class="cls-2" d="M300.86,144.67H303v.9c0,1.07-.87,1.32-3.09,1.32h-3.23v3.05h4.14c3.79,0,5.41-.83,5.41-4.37v-5.76c0-4.2-1.36-5.48-4.23-5.48h-2a4.15,4.15,0,0,0-4.41,4.16v1.9C295.58,142.73,297.07,144.67,300.86,144.67ZM298.81,139a1.57,1.57,0,0,1,1.74-1.65h.78A1.48,1.48,0,0,1,303,139v2.59h-2.62c-1,0-1.52-.37-1.52-1.28V139Z"/><path class="cls-2" d="M118.32,147.5a1.88,1.88,0,0,0-1.9,1.92,1.87,1.87,0,0,0,1.9,1.83,1.83,1.83,0,0,0,1.86-1.83A1.85,1.85,0,0,0,118.32,147.5Z"/><path class="cls-2" d="M151,131a2,2,0,0,0,1.95,1.92,1.92,1.92,0,0,0,1.9-1.92,1.85,1.85,0,0,0-1.9-1.84A1.89,1.89,0,0,0,151,131Z"/><polygon class="cls-2" points="185.38 144.39 188.66 144.39 188.66 128.45 185.38 128.99 185.38 144.39"/><path class="cls-2" d="M123,147.5a1.88,1.88,0,1,0,0,3.75,1.87,1.87,0,0,0,1.9-1.83A1.88,1.88,0,0,0,123,147.5Z"/><path class="cls-2" d="M213,147.5a1.88,1.88,0,1,0,0,3.75,1.82,1.82,0,0,0,1.85-1.83A1.84,1.84,0,0,0,213,147.5Z"/><path class="cls-2" d="M217.65,147.5a1.94,1.94,0,0,0-1.9,1.92,1.92,1.92,0,0,0,1.9,1.83,1.87,1.87,0,0,0,1.9-1.83A1.88,1.88,0,0,0,217.65,147.5Z"/><path class="cls-2" d="M182.07,128.45l-3.27.54V141.3h-4.2v-4c0-1.84-1.06-3.42-4.28-3.42h-2.48c-2.52,0-4.24,1.6-6.05,4.1v-3.6l-3.09.54v6.38h-4.16v-6.38l-3.27.54v5.84h-6.34V128.49l-3.27.54v15.36h40.41V128.45ZM162,141.3c1.68-1.85,3.49-4.34,5.23-4.34h2.12c1.23,0,1.94.59,1.94,1.59v2.76H162Z"/><path class="cls-2" d="M133.57,141.3a1.36,1.36,0,0,1-1.33-1.21v-1.8a1.32,1.32,0,0,1,1.33-1.16h3.49V134h-4.82a3.18,3.18,0,0,0-3.26,3v2.25a2.77,2.77,0,0,0,.68,2.05H123v-7.66l-3.29.56v7.1H112a4.51,4.51,0,0,0,.16-1.23v-1.92a4.2,4.2,0,0,0-4.46-4.22h-2c-2.91,0-4.28,1.3-4.28,5.55v5l3.26-.1h33.6v-3.09h-4.69ZM108.87,140c0,.92-.5,1.29-1.55,1.29h-2.66v-2.62a1.5,1.5,0,0,1,1.65-1.66h.78a1.6,1.6,0,0,1,1.78,1.66V140Z"/><path class="cls-2" d="M104.15,132.38a1.83,1.83,0,0,0,1.86-1.84,1.86,1.86,0,0,0-1.86-1.92,1.89,1.89,0,0,0-1.9,1.92A1.87,1.87,0,0,0,104.15,132.38Z"/><path class="cls-2" d="M108.79,132.38a1.87,1.87,0,0,0,1.9-1.84,1.89,1.89,0,0,0-1.9-1.92,2,2,0,0,0-1.9,1.92A1.93,1.93,0,0,0,108.79,132.38Z"/><polygon class="cls-2" points="264.7 145 267.97 145 267.97 129.06 264.7 129.6 264.7 145"/><path class="cls-2" d="M247.45,134.2a1.82,1.82,0,0,0,1.85-1.83,1.85,1.85,0,0,0-1.85-1.93,1.9,1.9,0,0,0-1.91,1.93A1.87,1.87,0,0,0,247.45,134.2Z"/><path class="cls-2" d="M239.12,134.2a1.82,1.82,0,0,0,1.85-1.83,1.85,1.85,0,0,0-1.85-1.93,1.89,1.89,0,0,0-1.9,1.93A1.87,1.87,0,0,0,239.12,134.2Z"/><path class="cls-2" d="M252.08,134.2a1.86,1.86,0,0,0,1.9-1.83,1.89,1.89,0,0,0-1.9-1.93,2,2,0,0,0-1.9,1.93A1.93,1.93,0,0,0,252.08,134.2Z"/><path class="cls-2" d="M207.31,141.91v.76a4.4,4.4,0,0,0,.29-.76Z"/><path class="cls-2" d="M199.79,132.74a1.83,1.83,0,0,0,1.86-1.83,1.86,1.86,0,0,0-1.86-1.93,1.89,1.89,0,0,0-1.9,1.93A1.87,1.87,0,0,0,199.79,132.74Z"/><path class="cls-2" d="M204.43,132.74a1.87,1.87,0,0,0,1.9-1.83,1.89,1.89,0,0,0-1.9-1.93,2,2,0,0,0-1.9,1.93A1.93,1.93,0,0,0,204.43,132.74Z"/><path class="cls-2" d="M226.34,141.91v.14a.66.66,0,0,1,0-.14s0,0,0,0S226.34,141.9,226.34,141.91Z"/><path class="cls-2" d="M207.6,141.91a4.11,4.11,0,0,1-.29.76v-.76Z"/><path class="cls-2" d="M258.12,129.61v12.3h-6.19V135l-3.3.56v6.32h-7.28V135l-3.29.56v6.32h-4.6v-.51a4.81,4.81,0,0,0-.77-2.6,4.53,4.53,0,0,0-3.36-1.35h-2a5.63,5.63,0,0,0-1.83.25c-1.47.49-2.25,1.72-2.42,4.21H217V135l-3.3.56v6.32h-6.08a4.11,4.11,0,0,1-.29.76v-.76h.29a4.47,4.47,0,0,0,.17-1.27v-1.92a4.19,4.19,0,0,0-4.45-4.22h-2c-2.92,0-4.29,1.29-4.29,5.55v5l.92,0,2.36-.07h.84v0h21.91v3l2.08-.06,1.19,0h2.12c2.7,0,4.24-1,4.92-2.37,0,0,0,0,0,0a3.09,3.09,0,0,0,.07-.52h27.94V129.06Zm-57.81,12.27v-2.62a1.48,1.48,0,0,1,1.63-1.66h.8a1.6,1.6,0,0,1,1.77,1.66v1.33c0,.92-.49,1.29-1.55,1.29Zm30.22,1.66c0,.92-.49,1.29-1.55,1.29h-2.65V142.2a.39.39,0,0,1,0-.15v-.14a.11.11,0,0,1,0,0,1.17,1.17,0,0,1,0-.27,1.53,1.53,0,0,1,.23-.46.45.45,0,0,1,.12-.16l.19-.16a.59.59,0,0,1,.17-.1.75.75,0,0,1,.13-.06,1.57,1.57,0,0,1,.31-.08,2.41,2.41,0,0,1,.4,0h.8a2.54,2.54,0,0,1,.41,0,1.14,1.14,0,0,1,.43.13,1.08,1.08,0,0,1,.24.12,1.3,1.3,0,0,1,.23.18,1.08,1.08,0,0,1,.16.2.32.32,0,0,1,.09.16.05.05,0,0,1,0,0,1.89,1.89,0,0,1,.09.21v0a.76.76,0,0,1,.06.26,2.58,2.58,0,0,1,0,.29v1.33Z"/><path class="cls-2" d="M233.79,141.65v.26h-.33v-.51a4.81,4.81,0,0,0-.77-2.6A4.09,4.09,0,0,1,233.79,141.65Z"/><path class="cls-2" d="M233.55,145a3.24,3.24,0,0,1-.19.52,3.09,3.09,0,0,0,.07-.52Z"/><path class="cls-2" d="M0,174v-3H6.73a.55.55,0,0,0,.61-.62v-1.61c0-.43-.19-.66-.59-.66H2.57C.85,168,0,167.22,0,165.56v-3.24c0-1.81.81-2.69,2.47-2.69h7.3v3H3.32c-.38,0-.56.21-.56.62v1.58c0,.44.18.64.6.64H7.62A2.2,2.2,0,0,1,10.09,168v3.23c0,1.83-.89,2.73-2.64,2.73Z"/><path class="cls-2" d="M19.67,174v-6.16H14.5V174H11.77V162.19a2.28,2.28,0,0,1,2.58-2.57h5.47a2.28,2.28,0,0,1,2.6,2.57V174Zm0-10.7c0-.44-.21-.66-.64-.66H15.14c-.43,0-.64.22-.64.66v2h5.17Z"/><path class="cls-2" d="M26.78,174a2.28,2.28,0,0,1-2.61-2.56V159.63h2.76v10.65c0,.43.2.64.66.64h3.6a.58.58,0,0,0,.66-.64V159.63h2.73v11.76A2.27,2.27,0,0,1,32,174Z"/><path class="cls-2" d="M36.38,174V159.62h7.54c1.75,0,2.62.91,2.62,2.72v9a2.3,2.3,0,0,1-2.62,2.6Zm7.41-10.57a.63.63,0,0,0-.7-.72h-4v8.26h4c.47,0,.7-.22.7-.68Z"/><path class="cls-2" d="M48.27,174V159.62H51V174Z"/><path class="cls-2" d="M58.51,174V159.62h2.76V174Z"/><path class="cls-2" d="M71.5,174l-5.69-8.65V174H63.06V159.62H65.7l5.37,8.56v-8.56h2.75V174Z"/><path class="cls-2" d="M75.62,174V159.62h7.54c1.75,0,2.62.91,2.62,2.72v9a2.3,2.3,0,0,1-2.62,2.6ZM83,163.38a.63.63,0,0,0-.7-.72h-4v8.26h4c.47,0,.7-.22.7-.68Z"/><path class="cls-2" d="M90.08,174a2.28,2.28,0,0,1-2.6-2.56V159.63h2.75v10.65c0,.43.21.64.66.64H94.5a.58.58,0,0,0,.66-.64V159.63h2.73v11.76a2.28,2.28,0,0,1-2.6,2.56Z"/><path class="cls-2" d="M99.6,174v-3h6.72a.54.54,0,0,0,.6-.62v-1.61c0-.43-.18-.66-.58-.66h-4.19c-1.71,0-2.57-.81-2.57-2.47v-3.24c0-1.81.82-2.69,2.47-2.69h7.3v3h-6.44c-.38,0-.57.21-.57.62v1.58c0,.44.19.64.61.64h4.26a2.19,2.19,0,0,1,2.46,2.49v3.23c0,1.83-.88,2.73-2.64,2.73Z"/><path class="cls-2" d="M114.33,174V162.66h-3.45v-3h9.64v3h-3.45V174Z"/><path class="cls-2" d="M129.32,174a2.52,2.52,0,0,1-.09-.77v-4.47a.58.58,0,0,0-.64-.66h-4V174H121.8V159.62h7.58c1.7,0,2.54.89,2.54,2.68v2.39a1.81,1.81,0,0,1-1.54,2.08,1.78,1.78,0,0,1,1.58,2v4.35a2.49,2.49,0,0,0,.1.87Zm-.09-10.7a.58.58,0,0,0-.64-.66h-4v2.9h4c.41,0,.64-.25.64-.7Z"/><path class="cls-2" d="M133.7,174V159.62h2.75V174Z"/><path class="cls-2" d="M146.11,174v-6.16h-5.17V174h-2.73V162.19a2.28,2.28,0,0,1,2.58-2.57h5.47a2.28,2.28,0,0,1,2.6,2.57V174Zm0-10.7c0-.44-.21-.66-.64-.66h-3.89c-.43,0-.64.22-.64.66v2h5.17v-2Z"/><path class="cls-2" d="M150.65,174V159.62h2.76v11.3H159v3Z"/><path class="cls-2" d="M165.93,174V159.62h7.54c1.75,0,2.62.91,2.62,2.72v9a2.3,2.3,0,0,1-2.62,2.6Zm7.41-10.57a.63.63,0,0,0-.7-.72h-4v8.26h4c.47,0,.7-.22.7-.68Z"/><path class="cls-2" d="M177.83,174V159.62h8.8v3h-6v2.83h5.26V168H180.6v2.93h6.07v3Z"/><path class="cls-2" d="M191.16,174l-3.72-14.33h3.13l2.53,10.47,2.64-10.47h3L194.89,174Z"/><path class="cls-2" d="M199.83,174V159.62h8.81v3h-6v2.83h5.26V168h-5.26v2.93h6.07v3Z"/><path class="cls-2" d="M210.15,174V159.62h2.75v11.3h5.54v3Z"/><path class="cls-2" d="M222.18,174a2.22,2.22,0,0,1-2.53-2.5v-9.21c0-1.75.85-2.62,2.53-2.62h5.11c1.7,0,2.52.87,2.52,2.62v9.21a2.21,2.21,0,0,1-2.52,2.5Zm4.9-10.67a.55.55,0,0,0-.62-.62H223a.55.55,0,0,0-.63.62v7.05c0,.4.21.59.63.59h3.43c.41,0,.62-.19.62-.59Z"/><path class="cls-2" d="M231.53,174V159.62h7.66c1.68,0,2.52.89,2.52,2.68V166a2.2,2.2,0,0,1-2.52,2.46h-4.91V174ZM239,163.28a.54.54,0,0,0-.62-.6h-4.07v3.09h4.07a.55.55,0,0,0,.62-.62Z"/><path class="cls-2" d="M254.2,174v-8.43L251.5,174h-2.81L246,165.52V174h-2.85V159.62H247l3.11,10.22,3.06-10.22H257V174Z"/><path class="cls-2" d="M258.8,174V159.62h8.81v3h-6v2.83h5.27V168h-5.27v2.93h6.08v3Z"/><path class="cls-2" d="M277.56,174l-5.69-8.65V174h-2.76V159.62h2.65l5.37,8.56v-8.56h2.75V174Z"/><path class="cls-2" d="M284.62,174V162.66h-3.45v-3h9.63v3h-3.45V174Z"/><path class="cls-2" d="M297.78,174V159.62h8.62v3h-5.85v2.83H305v2.68h-4.49V174Z"/><path class="cls-2" d="M310.26,174a2.28,2.28,0,0,1-2.6-2.56V159.63h2.76v10.65c0,.43.2.64.66.64h3.6a.58.58,0,0,0,.66-.64V159.63h2.73v11.76a2.28,2.28,0,0,1-2.6,2.56Z"/><path class="cls-2" d="M328.31,174l-5.7-8.65V174h-2.75V159.62h2.64l5.38,8.56v-8.56h2.75V174Z"/><path class="cls-2" d="M332.42,174V159.62H340c1.76,0,2.62.91,2.62,2.72v9A2.3,2.3,0,0,1,340,174Zm7.41-10.57q0-.72-.69-.72h-4v8.26h4a.6.6,0,0,0,.69-.68Z"/><polygon class="cls-2" points="89.72 129.17 89.72 144.57 93 144.57 93 128.63 89.72 129.17"/><path class="cls-2" d="M83.14,141.48H79.25v-6.73l-3.29.54v6.19H73.48v-6.73l-3.29.54v6.19H67.67v-6.73l-3.29.54v6.19H59.8a4.21,4.21,0,0,0,.68-2.31v-1.92c0-2.38-1.51-4.34-5.35-4.34H53l-3.27-.1v5a8.7,8.7,0,0,0,.6,3.65H45.8v-1.85c0-4.29-1.38-5.59-4.32-5.59h-2a4.24,4.24,0,0,0-4.5,4.24v1.94c0,2.39,1.52,4.37,5.39,4.37h2.14v.92c0,1.09-.9,1.35-3.16,1.35h-3.3V150h4.23c3.87,0,5.52-.84,5.52-4.46v-.95H86.42V128.62l-3.27.54v12.32Zm-43.3,0c-1.07,0-1.56-.38-1.56-1.3v-1.35a1.61,1.61,0,0,1,1.78-1.68h.8a1.51,1.51,0,0,1,1.65,1.68v2.65H39.84ZM53,136h2.65c1.06,0,1.55.38,1.55,1.3v1.33a1.6,1.6,0,0,1-1.77,1.67h-.8A1.49,1.49,0,0,1,53,138.62Z"/><polygon class="cls-2" points="28.8 133.46 25.5 134 28.91 141.52 22.6 141.52 22.6 144.59 33.71 144.59 32.46 141.52 28.8 133.46"/><line class="cls-3" x1="4.37" y1="140.29" x2="1.1" y2="140.84"/><path class="cls-2" d="M20.07,136.82a.66.66,0,0,0-.28-.13,10.58,10.58,0,0,0-1.5-.21c-.62,0-1.48-.07-2-.07a7.16,7.16,0,0,0-4.55,1.23,4.56,4.56,0,0,0-1.54,3.81v2.41c0,.23,0,.47,0,.71s0,.49,0,.75,0,.57,0,.9l-.8.09c-.25,0-.56,0-.93,0A5,5,0,0,1,6.23,146,2.84,2.84,0,0,1,5,144.91a4.3,4.3,0,0,1-.57-1.63,15.27,15.27,0,0,1-.13-2.12q0-.3,0-.72s0-.09,0-.13l-3.1.52c0,.13,0,.26,0,.4s-.05.52-.07.75,0,.43,0,.6q0,3.58,1.77,5.28t5.42,1.69q1.27,0,2.46-.09a20.53,20.53,0,0,0,2.17-.26c.31-.06.47-.21.47-.47q0-.85.06-1.8c0-.62,0-1.24,0-1.84v-3.33A2.51,2.51,0,0,1,14,140a2.33,2.33,0,0,1,1.67-.51h.41c.11,0,.28,0,.52.06v5.08H20.2v-7.45A.48.48,0,0,0,20.07,136.82Z"/></g></g></svg>