<svg xmlns="http://www.w3.org/2000/svg" viewBox="0 0 45.87 47.68"><g id="Layer_2" data-name="Layer 2"><g id="Layer_1-2" data-name="Layer 1"><path d="M44.62,18.66h-.26L45.61,0h-2l-.94,15.36-.7-11.49-.32,0c-.32,0-.54-.17-.67-.51a1.54,1.54,0,0,1-1.14.51.53.53,0,0,1-.46-.17l-.56,12L38.21,3.37a1.25,1.25,0,0,1-.28-.67,4,4,0,0,0,.09-1,7,7,0,0,1-.24,1.2c-.26.94-.64,1.05-1,.85l-.74,7.1L35,.9,35,1.08c-.27.68-.94.28-1.14-.22l0,.63a4,4,0,0,1,0,1.34l-.42,12.92L33,3.79a2.28,2.28,0,0,1-.6.13c-1,.11-1.06-2-.56-3.09A2.19,2.19,0,0,0,32,0H30.34c0,.73.54.91,0,2.9-.37,1.33-1,1-1.37.5l-.42,10.25L28,.23a2.89,2.89,0,0,0-.49.85c-.35.9-1.41-.1-1.16-.7A1,1,0,0,0,26.42,0H22.8l-.54,15.75L21.18,0H17.26a11.33,11.33,0,0,0,.11,1.19c.3,2.24-.46,2.62-1.42,2.73a.53.53,0,0,1-.41-.12L14.88,13l-.65-9.12h-.09a.57.57,0,0,1-.55-.27C13,4.31,12.23,3,12.27,2.7a4,4,0,0,0,.09-1,7,7,0,0,1-.24,1.2c-.55,2-1.71.2-1.66-.2a4.16,4.16,0,0,0,.08-1.28.9.9,0,0,1-.59-1A.72.72,0,0,0,10,.09c-.24.06-.52.49-.71,1s-.66.4-1,.08V15.75L7.68,3.57a1.79,1.79,0,0,1-1,.35c-1,.11-1.06-2-.56-3.09A2.19,2.19,0,0,0,6.36,0H4.68c0,.73.55.91,0,2.9-.15.53-.33.8-.53.89V14l-1-11A.85.85,0,0,1,3,2.7c0-.09,0-.17,0-.26h0L2.85.23c-.27-.43-.71.14-1,.85C1.5,2,.44,1,.7.38A.82.82,0,0,0,.76,0H0L1.24,18.66H1.5A1.24,1.24,0,0,0,.26,19.9v3.32A1.25,1.25,0,0,0,1.5,24.46H19.09L17.88,44.57c0,1.72,2.64,3.11,4.35,3.11h1.66c1.72,0,4.36-1.39,4.36-3.11L27,24.46H44.62a1.25,1.25,0,0,0,1.25-1.24V19.9A1.24,1.24,0,0,0,44.62,18.66Z"/></g></g></svg>