<svg xmlns="http://www.w3.org/2000/svg" viewBox="0 0 56.63 65.07"><defs><style>.cls-1{fill:#323333;}.cls-2{fill:#fff;}</style></defs><g id="Layer_2" data-name="Layer 2"><g id="Layer_1-2" data-name="Layer 1"><path class="cls-1" d="M54.45,13.41H50.27L38,3.43a15.36,15.36,0,0,0-19.35,0l-12.28,10H2.18a2.18,2.18,0,0,0,0,4.36h.23C3.2,30.29,14.5,40.22,28.31,40.22s25.11-9.93,25.91-22.45h.23a2.18,2.18,0,0,0,0-4.36Z"/><path class="cls-1" d="M28.31,58.54h0a31.93,31.93,0,0,0-10.59,1.67L4.36,65.07H52.27L38.91,60.21A32,32,0,0,0,28.31,58.54Z"/><circle cx="21.78" cy="47.64" r="1.09"/><circle cx="34.85" cy="47.64" r="1.09"/><circle cx="21.78" cy="54.18" r="1.09"/><circle cx="34.85" cy="54.18" r="1.09"/><circle cx="15.25" cy="50.91" r="1.09"/><circle cx="41.38" cy="50.91" r="1.09"/><circle cx="28.31" cy="50.91" r="1.09"/><circle class="cls-2" cx="33.76" cy="8.71" r="1.09"/><circle class="cls-2" cx="22.87" cy="8.71" r="1.09"/><circle class="cls-2" cx="28.31" cy="6.53" r="1.09"/><circle class="cls-2" cx="8.84" cy="20.29" r="0.54"/><circle class="cls-2" cx="5.39" cy="20.29" r="0.54"/><circle class="cls-2" cx="12.92" cy="20.29" r="0.54"/><circle class="cls-2" cx="17.7" cy="20.29" r="0.54"/><circle class="cls-2" cx="21.78" cy="20.29" r="0.54"/><circle class="cls-2" cx="26.05" cy="20.29" r="0.54"/><circle class="cls-2" cx="30.14" cy="20.29" r="0.54"/><circle class="cls-2" cx="34.91" cy="20.29" r="0.54"/><circle class="cls-2" cx="39" cy="20.29" r="0.54"/><circle class="cls-2" cx="43.04" cy="20.29" r="0.54"/><circle class="cls-2" cx="47.82" cy="20.29" r="0.54"/><circle class="cls-2" cx="51.9" cy="20.29" r="0.54"/><circle class="cls-2" cx="8.84" cy="20.29" r="0.54"/><circle class="cls-2" cx="5.39" cy="20.29" r="0.54"/><circle class="cls-2" cx="12.92" cy="20.29" r="0.54"/><circle class="cls-2" cx="17.7" cy="20.29" r="0.54"/><circle class="cls-2" cx="21.78" cy="20.29" r="0.54"/><circle class="cls-2" cx="26.05" cy="20.29" r="0.54"/><circle class="cls-2" cx="30.14" cy="20.29" r="0.54"/><circle class="cls-2" cx="34.91" cy="20.29" r="0.54"/><circle class="cls-2" cx="39" cy="20.29" r="0.54"/><circle class="cls-2" cx="43.04" cy="20.29" r="0.54"/><circle class="cls-2" cx="47.82" cy="20.29" r="0.54"/><circle class="cls-2" cx="51.9" cy="20.29" r="0.54"/><circle class="cls-2" cx="9.78" cy="25.17" r="0.54"/><circle class="cls-2" cx="6.34" cy="25.17" r="0.54"/><circle class="cls-2" cx="13.87" cy="25.17" r="0.54"/><circle class="cls-2" cx="18.64" cy="25.17" r="0.54"/><circle class="cls-2" cx="22.73" cy="25.17" r="0.54"/><circle class="cls-2" cx="27" cy="25.17" r="0.54"/><circle class="cls-2" cx="31.08" cy="25.17" r="0.54"/><circle class="cls-2" cx="35.86" cy="25.17" r="0.54"/><circle class="cls-2" cx="39.94" cy="25.17" r="0.54"/><circle class="cls-2" cx="43.99" cy="25.17" r="0.54"/><circle class="cls-2" cx="48.76" cy="25.17" r="0.54"/><circle class="cls-2" cx="9.38" cy="30.6" r="0.54"/><circle class="cls-2" cx="12.92" cy="30.4" r="0.54"/><circle class="cls-2" cx="17.7" cy="30.4" r="0.54"/><circle class="cls-2" cx="21.78" cy="30.4" r="0.54"/><circle class="cls-2" cx="26.05" cy="30.4" r="0.54"/><circle class="cls-2" cx="30.14" cy="30.4" r="0.54"/><circle class="cls-2" cx="34.91" cy="30.4" r="0.54"/><circle class="cls-2" cx="39" cy="30.4" r="0.54"/><circle class="cls-2" cx="43.41" cy="30.4" r="0.54"/><circle class="cls-2" cx="47.27" cy="30.06" r="0.54"/><circle class="cls-2" cx="17.7" cy="35.63" r="0.54"/><circle class="cls-2" cx="21.96" cy="35.63" r="0.54"/><circle class="cls-2" cx="26.23" cy="35.63" r="0.54"/><circle class="cls-2" cx="30.68" cy="35.63" r="0.54"/><circle class="cls-2" cx="35.64" cy="35.63" r="0.54"/><circle class="cls-2" cx="39.85" cy="35.63" r="0.54"/></g></g></svg>