<svg xmlns="http://www.w3.org/2000/svg" viewBox="0 0 56.63 65.07"><defs><style>.cls-1{fill:#323333;}</style></defs><g id="Layer_2" data-name="Layer 2"><g id="Layer_4" data-name="Layer 4"><path class="cls-1" d="M28.31,58.53h0a31.92,31.92,0,0,0-10.59,1.68L4.36,65.07H52.27L38.91,60.21A32,32,0,0,0,28.31,58.53Z"/><circle cx="21.78" cy="47.64" r="1.09"/><circle cx="34.85" cy="47.64" r="1.09"/><circle cx="21.78" cy="54.18" r="1.09"/><circle cx="34.85" cy="54.18" r="1.09"/><circle cx="15.25" cy="50.91" r="1.09"/><circle cx="41.38" cy="50.91" r="1.09"/><circle cx="28.31" cy="50.91" r="1.09"/><path class="cls-1" d="M54.45,13.41H50.27L38,3.43a15.36,15.36,0,0,0-19.35,0l-12.28,10H2.18a2.18,2.18,0,0,0,0,4.36h.23C3.2,30.29,14.5,40.22,28.31,40.22s25.11-9.93,25.91-22.45h.23a2.18,2.18,0,0,0,0-4.36Zm-19,6.88a.55.55,0,0,1-.55.54.54.54,0,0,1-.54-.54.55.55,0,0,1,.54-.55A.55.55,0,0,1,35.46,20.29Zm-5.32-.55a.55.55,0,0,1,.54.55.54.54,0,0,1-.54.54.55.55,0,0,1-.55-.54A.55.55,0,0,1,30.14,19.74Zm-4.09,0a.55.55,0,0,1,.55.55.55.55,0,0,1-.55.54.54.54,0,0,1-.54-.54A.55.55,0,0,1,26.05,19.74Zm-4.27,0a.55.55,0,0,1,.54.55.54.54,0,0,1-1.08,0A.55.55,0,0,1,21.78,19.74Zm-4.08,0a.55.55,0,0,1,.54.55.54.54,0,0,1-.54.54.55.55,0,0,1-.55-.54A.55.55,0,0,1,17.7,19.74Zm-4.78,0a.55.55,0,0,1,.55.55.55.55,0,0,1-.55.54.54.54,0,0,1-.54-.54A.55.55,0,0,1,12.92,19.74ZM5.39,20.83a.54.54,0,0,1-.54-.54.55.55,0,0,1,.54-.55.55.55,0,0,1,.55.55A.55.55,0,0,1,5.39,20.83Zm1,4.89a.55.55,0,0,1-.55-.55.55.55,0,0,1,.55-.54.54.54,0,0,1,.54.54A.55.55,0,0,1,6.34,25.72Zm1.95-5.43a.55.55,0,0,1,.55-.55.55.55,0,0,1,.54.55.54.54,0,0,1-.54.54A.55.55,0,0,1,8.29,20.29ZM9.38,31.15a.55.55,0,0,1,0-1.09.55.55,0,1,1,0,1.09Zm.4-5.43a.55.55,0,0,1-.54-.55.54.54,0,0,1,.54-.54.55.55,0,0,1,.55.54A.55.55,0,0,1,9.78,25.72ZM12.92,31a.55.55,0,0,1-.54-.55.54.54,0,0,1,.54-.54.55.55,0,0,1,.55.54A.55.55,0,0,1,12.92,31Zm.95-5.23a.55.55,0,0,1-.55-.55.55.55,0,0,1,.55-.54.54.54,0,0,1,.54.54A.55.55,0,0,1,13.87,25.72ZM17.7,36.18a.55.55,0,0,1-.55-.55.55.55,0,0,1,.55-.54.54.54,0,0,1,.54.54A.55.55,0,0,1,17.7,36.18Zm0-5.23a.55.55,0,0,1-.55-.55.55.55,0,0,1,.55-.54.54.54,0,0,1,.54.54A.55.55,0,0,1,17.7,31Zm.94-5.23a.55.55,0,0,1-.54-.55.54.54,0,0,1,.54-.54.55.55,0,0,1,.55.54A.55.55,0,0,1,18.64,25.72Zm2.6,4.68a.54.54,0,0,1,1.08,0,.54.54,0,1,1-1.08,0ZM22,36.18a.55.55,0,0,1-.54-.55.54.54,0,0,1,.54-.54.55.55,0,0,1,.55.54A.55.55,0,0,1,22,36.18Zm.77-10.46a.55.55,0,0,1-.55-.55.55.55,0,0,1,.55-.54.54.54,0,0,1,.54.54A.55.55,0,0,1,22.73,25.72ZM22.87,9.8A1.09,1.09,0,1,1,24,8.71,1.09,1.09,0,0,1,22.87,9.8Zm2.64,20.6a.54.54,0,0,1,.54-.54.55.55,0,0,1,.55.54.55.55,0,0,1-.55.55A.55.55,0,0,1,25.51,30.4Zm.72,5.78a.55.55,0,0,1-.54-.55.54.54,0,1,1,1.08,0A.55.55,0,0,1,26.23,36.18ZM27,25.72a.55.55,0,0,1-.55-.55.55.55,0,0,1,.55-.54.54.54,0,0,1,.54.54A.55.55,0,0,1,27,25.72Zm1.31-18.1A1.09,1.09,0,1,1,29.4,6.53,1.08,1.08,0,0,1,28.31,7.62ZM29.59,30.4a.55.55,0,0,1,.55-.54.54.54,0,0,1,.54.54.55.55,0,0,1-.54.55A.55.55,0,0,1,29.59,30.4Zm1.09,5.78a.55.55,0,0,1-.54-.55.54.54,0,0,1,.54-.54.55.55,0,0,1,.55.54A.55.55,0,0,1,30.68,36.18Zm.4-10.46a.55.55,0,0,1-.54-.55.54.54,0,0,1,.54-.54.55.55,0,0,1,.55.54A.55.55,0,0,1,31.08,25.72Zm1.59-17A1.09,1.09,0,1,1,33.76,9.8,1.09,1.09,0,0,1,32.67,8.71Zm1.7,21.69a.54.54,0,0,1,.54-.54.55.55,0,0,1,.55.54.55.55,0,0,1-.55.55A.55.55,0,0,1,34.37,30.4Zm1.27,5.78a.55.55,0,0,1-.55-.55.55.55,0,0,1,.55-.54.54.54,0,0,1,.54.54A.55.55,0,0,1,35.64,36.18Zm.22-10.46a.55.55,0,0,1-.55-.55.55.55,0,0,1,.55-.54.54.54,0,0,1,.54.54A.55.55,0,0,1,35.86,25.72Zm3.14-6a.55.55,0,0,1,.54.55.55.55,0,0,1-1.09,0A.55.55,0,0,1,39,19.74ZM38.45,30.4a.55.55,0,0,1,1.09,0,.55.55,0,1,1-1.09,0Zm1.4,5.78a.55.55,0,0,1-.54-.55.54.54,0,0,1,.54-.54.55.55,0,0,1,.55.54A.55.55,0,0,1,39.85,36.18Zm.09-10.46a.55.55,0,0,1-.54-.55.54.54,0,0,1,.54-.54.55.55,0,0,1,.55.54A.55.55,0,0,1,39.94,25.72Zm2.56-5.43a.55.55,0,0,1,.54-.55.55.55,0,0,1,.55.55.55.55,0,0,1-.55.54A.54.54,0,0,1,42.5,20.29ZM43.41,31a.55.55,0,0,1-.55-.55.55.55,0,0,1,.55-.54.54.54,0,0,1,.54.54A.55.55,0,0,1,43.41,31ZM44,25.72a.55.55,0,0,1-.55-.55.55.55,0,0,1,.55-.54.54.54,0,0,1,.54.54A.55.55,0,0,1,44,25.72Zm3.28,4.88a.54.54,0,0,1,0-1.08.54.54,0,1,1,0,1.08Zm.55-9.77a.55.55,0,0,1-.55-.54.55.55,0,0,1,.55-.55.55.55,0,0,1,.54.55A.54.54,0,0,1,47.82,20.83Zm.94,4.89a.55.55,0,0,1-.54-.55.54.54,0,0,1,.54-.54.55.55,0,0,1,.55.54A.55.55,0,0,1,48.76,25.72Zm3.14-4.89a.54.54,0,0,1-.54-.54.55.55,0,0,1,.54-.55.55.55,0,0,1,.55.55A.55.55,0,0,1,51.9,20.83Z"/></g></g></svg>