<svg xmlns="http://www.w3.org/2000/svg" viewBox="0 0 68.14 53.74"><defs><style>.cls-1{fill:#323333;}</style></defs><g id="Layer_2" data-name="Layer 2"><g id="Layer_4" data-name="Layer 4"><circle class="cls-1" cx="36.49" cy="18.82" r="1.97" transform="translate(-3.36 8.92) rotate(-13.33)"/><circle class="cls-1" cx="40.02" cy="11.8" r="1.97" transform="matrix(0.97, -0.23, 0.23, 0.97, -1.64, 9.55)"/><circle class="cls-1" cx="29.2" cy="14.34" r="1.97"/><circle class="cls-1" cx="32.15" cy="7.68" r="1.97" transform="translate(-0.9 7.62) rotate(-13.33)"/><circle class="cls-1" cx="24.82" cy="5.24" r="1.97" transform="translate(-0.52 6.35) rotate(-14.42)"/><circle class="cls-1" cx="37.57" cy="1.97" r="1.97"/><path class="cls-1" d="M62.42,30.32,47.17,20.25a2.63,2.63,0,0,0-1.47-.44A2.66,2.66,0,0,0,43.48,21L34.07,35.25,24.66,21A2.64,2.64,0,0,0,23,19.86a3.07,3.07,0,0,0-.53-.05,2.61,2.61,0,0,0-1.46.44L5.73,30.32a12.77,12.77,0,0,0,7,23.42,12.64,12.64,0,0,0,7-2.12l14.28-9.43,14.28,9.43A12.75,12.75,0,0,0,66,48,12.78,12.78,0,0,0,62.42,30.32ZM59,36.94a2.08,2.08,0,0,1-2.88.6l-6.57-4.3a2.08,2.08,0,0,1,2.28-3.48l6.57,4.31A2.08,2.08,0,0,1,59,36.94Z"/></g></g></svg>