<svg xmlns="http://www.w3.org/2000/svg" viewBox="0 0 68.14 53.74"><defs><style>.cls-1{fill:#323333;}.cls-2{fill:#fff;}</style></defs><g id="Layer_2" data-name="Layer 2"><g id="Layer_1-2" data-name="Layer 1"><path class="cls-1" d="M2.11,48a12.75,12.75,0,0,0,17.68,3.61l14.28-9.43,14.28,9.43A12.75,12.75,0,0,0,66,48a12.78,12.78,0,0,0-3.61-17.69L47.17,20.25a2.63,2.63,0,0,0-1.47-.44A2.66,2.66,0,0,0,43.48,21L34.07,35.25,24.66,21A2.68,2.68,0,0,0,23,19.86a3.07,3.07,0,0,0-.53-.05,2.61,2.61,0,0,0-1.46.44L5.73,30.32A12.78,12.78,0,0,0,2.11,48Z"/><circle class="cls-1" cx="36.49" cy="18.82" r="1.97" transform="translate(-3.36 8.92) rotate(-13.33)"/><circle class="cls-1" cx="40.02" cy="11.8" r="1.97" transform="translate(-1.64 9.55) rotate(-13.33)"/><circle class="cls-1" cx="29.2" cy="14.34" r="1.97"/><circle class="cls-1" cx="32.15" cy="7.68" r="1.97" transform="translate(-0.9 7.62) rotate(-13.33)"/><circle class="cls-1" cx="24.82" cy="5.24" r="1.97" transform="translate(-0.52 6.35) rotate(-14.42)"/><circle class="cls-1" cx="37.57" cy="1.97" r="1.97"/><path class="cls-2" d="M56.1,37.54l-6.57-4.3a2.08,2.08,0,0,1,2.28-3.48l6.57,4.31a2.08,2.08,0,1,1-2.28,3.47Z"/></g></g></svg>