<svg xmlns="http://www.w3.org/2000/svg" viewBox="0 0 57.59 48.4"><g id="Layer_2" data-name="Layer 2"><g id="Layer_1-2" data-name="Layer 1"><path d="M57.59,0V18.05H30.28v3.71a2.17,2.17,0,0,1-2.17,2.17H2.17A2.17,2.17,0,0,1,0,21.76V15.88A15.91,15.91,0,0,1,15.88,0Z"/><path d="M3.65,27.09A1.71,1.71,0,0,0,2,28.8V40.86a1.71,1.71,0,0,0,3.41,0V28.8A1.71,1.71,0,0,0,3.65,27.09Z"/><path d="M8.9,27.09A1.72,1.72,0,0,0,7.19,28.8V46.7a1.71,1.71,0,0,0,3.41,0V28.8A1.71,1.71,0,0,0,8.9,27.09Z"/><path d="M13.69,27.09A1.71,1.71,0,0,0,12,28.8v7.83a1.71,1.71,0,0,0,3.41,0V28.8A1.72,1.72,0,0,0,13.69,27.09Z"/><path d="M19.75,27.09a1.71,1.71,0,0,0-1.7,1.71V45.91a1.71,1.71,0,0,0,3.41,0V28.8A1.72,1.72,0,0,0,19.75,27.09Z"/><path d="M25.11,27.81a1.71,1.71,0,0,0-1.7,1.71v8.23a1.71,1.71,0,0,0,3.41,0V29.52A1.72,1.72,0,0,0,25.11,27.81Z"/></g></g></svg>