<svg xmlns="http://www.w3.org/2000/svg" viewBox="0 0 88.07 42.6"><defs><style>.cls-1{fill:#323333;}.cls-2{fill:#fff;}</style></defs><g id="Layer_2" data-name="Layer 2"><g id="Layer_1-2" data-name="Layer 1"><path class="cls-1" d="M38.88.79A6.88,6.88,0,0,1,43.82.23a13.37,13.37,0,0,1,7.23,5C55.1,10.58,77.24,31,86.37,33.64c7.26,2.13-10.46,7.29-21.6,5s-17.65,4.47-28.23,3.87-16.23-7-21.71-6.54c-14,1.19-16.37-1.13-14-2.46C12,27.17,13.26,25.56,22,17.13,29,10.5,34.23,3.12,38.88.79Z"/><circle class="cls-2" cx="17.08" cy="28.57" r="0.82"/><circle class="cls-2" cx="26.7" cy="30.82" r="0.82"/><circle class="cls-2" cx="15.95" cy="33.38" r="0.82"/><circle class="cls-2" cx="25.57" cy="35.63" r="0.82"/><circle class="cls-2" cx="11.7" cy="29.85" r="0.82"/><circle class="cls-2" cx="30.95" cy="34.34" r="0.82"/><circle class="cls-2" cx="21.33" cy="32.1" r="0.82"/><circle class="cls-2" cx="23.27" cy="22.96" r="0.82"/><circle class="cls-2" cx="32.89" cy="25.2" r="0.82"/><circle class="cls-2" cx="22.15" cy="27.77" r="0.82"/><circle class="cls-2" cx="31.77" cy="30.01" r="0.82"/><circle class="cls-2" cx="17.9" cy="24.24" r="0.82"/><circle class="cls-2" cx="37.14" cy="28.73" r="0.82"/><circle class="cls-2" cx="27.52" cy="26.48" r="0.82"/><circle class="cls-2" cx="43.57" cy="37.79" r="0.82"/><circle class="cls-2" cx="38.2" cy="39.07" r="0.82"/><circle class="cls-2" cx="40.15" cy="29.93" r="0.82"/><circle class="cls-2" cx="47.82" cy="25.98" r="0.82"/><circle class="cls-2" cx="39.02" cy="34.74" r="0.82"/><circle class="cls-2" cx="48.64" cy="36.99" r="0.82"/><circle class="cls-2" cx="44.03" cy="27.31" r="0.82"/><circle class="cls-2" cx="44.4" cy="33.46" r="0.82"/><circle class="cls-2" cx="32.07" cy="15.95" r="0.82"/><circle class="cls-2" cx="41.69" cy="18.19" r="0.82"/><circle class="cls-2" cx="30.95" cy="20.76" r="0.82"/><circle class="cls-2" cx="40.57" cy="23" r="0.82"/><circle class="cls-2" cx="26.7" cy="17.23" r="0.82"/><circle class="cls-2" cx="45.94" cy="21.72" r="0.82"/><circle class="cls-2" cx="36.32" cy="19.48" r="0.82"/><circle class="cls-2" cx="35.07" cy="6.33" r="0.82"/><circle class="cls-2" cx="44.69" cy="8.57" r="0.82"/><circle class="cls-2" cx="33.95" cy="11.14" r="0.82"/><circle class="cls-2" cx="43.57" cy="13.38" r="0.82"/><circle class="cls-2" cx="39.32" cy="9.86" r="0.82"/><circle class="cls-2" cx="41.69" cy="3.9" r="0.82"/><circle class="cls-2" cx="64.15" cy="21.14" r="0.82"/><circle class="cls-2" cx="72.18" cy="26.89" r="0.82"/><circle class="cls-2" cx="61.27" cy="25.16" r="0.82"/><circle class="cls-2" cx="69.3" cy="30.91" r="0.82"/><circle class="cls-2" cx="58.69" cy="20.27" r="0.82"/><circle class="cls-2" cx="74.76" cy="31.78" r="0.82"/><circle class="cls-2" cx="66.72" cy="26.03" r="0.82"/><circle class="cls-2" cx="56.11" cy="25.98" r="0.82"/><circle class="cls-2" cx="63.32" cy="32.64" r="0.82"/><circle class="cls-2" cx="52.41" cy="30.91" r="0.82"/><circle class="cls-2" cx="60.45" cy="36.66" r="0.82"/><circle class="cls-2" cx="65.9" cy="37.53" r="0.82"/><circle class="cls-2" cx="57.87" cy="31.78" r="0.82"/><circle class="cls-2" cx="54.99" cy="14.89" r="0.82"/><circle class="cls-2" cx="49.84" cy="15.71" r="0.82"/><circle class="cls-2" cx="51.59" cy="21.5" r="0.82"/></g></g></svg>