<svg xmlns="http://www.w3.org/2000/svg" viewBox="0 0 93.09 38.33"><g id="Layer_2" data-name="Layer 2"><g id="Layer_1-2" data-name="Layer 1"><path d="M85.06.48,90.2,6.85a1.17,1.17,0,0,1,.25.58L93,36.76"/><path d="M7.94.48,2.8,6.85a1.17,1.17,0,0,0-.25.58L0,36.76"/><path d="M7,18.6H86.1a1.11,1.11,0,0,1,1.06.76L93,36.76a1.13,1.13,0,0,1,.09.45A1.12,1.12,0,0,1,92,38.33H1.12a1.12,1.12,0,0,1-.36,0,1.12,1.12,0,0,1-.7-1.42L5.9,19.46A1.13,1.13,0,0,1,7,18.6Z"/><path d="M46.54,19.72H7A1.13,1.13,0,0,1,5.86,18.6a1.23,1.23,0,0,1,0-.19L7.83,1A1.12,1.12,0,0,1,8.94,0h75.2a1.12,1.12,0,0,1,1.12,1.06l1.95,17.42a1.12,1.12,0,0,1-1,1.24H46.54Z"/></g></g></svg>