<svg xmlns="http://www.w3.org/2000/svg" viewBox="0 0 53.87 53.64"><g id="Layer_2" data-name="Layer 2"><g id="Layer_1-2" data-name="Layer 1"><path d="M53.34,32.9a66.52,66.52,0,0,0-4-11.62A65.34,65.34,0,0,0,46,14.53c-.12-.23-.26-.47-.39-.71-1-1.85-2.3-4.16-4.74-4.54a5.5,5.5,0,0,0-1.57,0L39.23,9a9.43,9.43,0,0,0-.44-1c-.06-.23-.18-.56-.37-1.06A21.31,21.31,0,0,0,37,4.1c-.37-.62-.77-1.24-1.2-1.83a8.63,8.63,0,0,0-.83-1A4.29,4.29,0,0,0,33.7.3,3.06,3.06,0,0,0,32.76,0a2.14,2.14,0,0,0-1.21.19,1.23,1.23,0,0,0-.32.19L31,.64a1.65,1.65,0,0,0-.41.81,1.73,1.73,0,0,0,0,.81,2.45,2.45,0,0,0,.22.54,6.26,6.26,0,0,0,1.06,1.33l.5.48L32.94,4l-.49.68.2.19.22.24a15.61,15.61,0,0,1,1.66,2.08,6.73,6.73,0,0,1,.56,1,9.46,9.46,0,0,1,.38,1.11l.08.27L35,9.67a5.87,5.87,0,0,0-1.63.51,5.59,5.59,0,0,0-.9.54l-.09.07L32,11.1l-.32.32a6.35,6.35,0,0,0-1.22,1.95c-.08.17-.14.35-.22.57s-.09.27-.13.41L29,18c-.69,2.25-1.45,4.83-2.1,7.67-.73-3.19-1.6-6.1-2.45-8.81l-.74-2.36a8.31,8.31,0,0,0-1-2.31,4.62,4.62,0,0,0-.31-.42,4.09,4.09,0,0,0-.33-.38l-.09-.09a5.27,5.27,0,0,0-.85-.7,5.78,5.78,0,0,0-1.78-.77,6.73,6.73,0,0,0-1.08-.17l.08-.27a9.34,9.34,0,0,1,.39-1.11,7.57,7.57,0,0,1,.55-1,16.46,16.46,0,0,1,1.66-2.08l.41-.41-.58-.61.68.52.5-.48A5.93,5.93,0,0,0,23,2.8a2.27,2.27,0,0,0,.22-.54,1.81,1.81,0,0,0,0-.79,1.66,1.66,0,0,0-.44-.86L22.54.4a2.39,2.39,0,0,0-.33-.2A2.19,2.19,0,0,0,21,0a2.91,2.91,0,0,0-.94.28,4.21,4.21,0,0,0-1.29,1,8.67,8.67,0,0,0-.82,1,20.51,20.51,0,0,0-1.2,1.83,20.26,20.26,0,0,0-1.41,2.84A7.22,7.22,0,0,0,15,8a7.5,7.5,0,0,0-.45,1,1.55,1.55,0,0,0-.08.23,5.48,5.48,0,0,0-1.34,0c-2.15.24-3.49,2-4.52,3.73a70.34,70.34,0,0,0-4.15,8.22C2.22,26.27-.13,32.2,0,38.44.12,44,3.05,50.89,9.18,53a12.53,12.53,0,0,0,4.49.64c5.68-.21,10.77-3.19,13.21-7.6a15.29,15.29,0,0,0,8.4,6.78,16,16,0,0,0,5,.84,12.07,12.07,0,0,0,7.57-2.44A14.16,14.16,0,0,0,50,49.12a17.86,17.86,0,0,0,3.89-11A21.84,21.84,0,0,0,53.34,32.9ZM21.12,35c-.07,1.27-.53,5.54-3.59,7.13a6.46,6.46,0,0,1-3,.67,7.69,7.69,0,0,1-5.11-1.91A7.93,7.93,0,0,1,7.31,33.7,16.29,16.29,0,0,1,8.83,29c1.1-2.32,3.49-5.07,6.1-5.61s4.67,2.07,5.47,4.5A19,19,0,0,1,21.12,35Zm25.39,3.72a7,7,0,0,1-4.08,3.65,7.34,7.34,0,0,1-2.47.43A6.5,6.5,0,0,1,37,42.16a6.07,6.07,0,0,1-2.61-2.73C32.67,36,33,31.1,34.07,27.77a6.54,6.54,0,0,1,4-4.33c2.55-.83,5.15,2.31,6.13,3.5a13.37,13.37,0,0,1,3.07,6.77A11,11,0,0,1,47.3,35,9.33,9.33,0,0,1,46.51,38.75Z"/><path d="M18.9,29.16a14.28,14.28,0,0,1,.55,5.4c-.05,1-.4,4.21-2.73,5.42a4.92,4.92,0,0,1-2.24.51A5.83,5.83,0,0,1,10.6,39,6,6,0,0,1,9,33.55,12.49,12.49,0,0,1,10.11,30c.84-1.76,2.65-3.85,4.64-4.26S18.3,27.31,18.9,29.16Z"/><path d="M45.63,34.53a7.11,7.11,0,0,1-.6,2.88,5.36,5.36,0,0,1-3.12,2.79,5.66,5.66,0,0,1-1.89.33A4.89,4.89,0,0,1,37.78,40a4.62,4.62,0,0,1-2-2.08c-1.34-2.62-1.1-6.37-.27-8.91a5,5,0,0,1,3-3.31c2-.64,3.94,1.76,4.68,2.67a10.19,10.19,0,0,1,2.35,5.18A7.77,7.77,0,0,1,45.63,34.53Z"/></g></g></svg>