<svg xmlns="http://www.w3.org/2000/svg" viewBox="0 0 21.31 53.48"><g id="Layer_2" data-name="Layer 2"><g id="Layer_1-2" data-name="Layer 1"><polygon points="15.11 5.87 5.81 5.87 5.83 5.85 15.09 5.85 15.11 5.87"/><polygon points="15.11 5.87 5.81 5.87 5.83 5.85 15.09 5.85 15.11 5.87"/><path d="M16.92,5.64A2.85,2.85,0,0,0,18.59,3V2.86A2.8,2.8,0,0,0,15.86,0H5.5A2.8,2.8,0,0,0,2.77,2.86V3A2.84,2.84,0,0,0,4.17,5.5L.06,10.63V48.16a5.18,5.18,0,0,0,5,5.32H16.29a5.18,5.18,0,0,0,5-5.32V10.61ZM5.83,5.85h9.26l0,0H5.81Z"/><polygon points="15.11 5.87 5.81 5.87 5.83 5.85 15.09 5.85 15.11 5.87"/><path d="M.06,11.35v.11L0,11.39Z"/></g></g></svg>