<svg xmlns="http://www.w3.org/2000/svg" viewBox="0 0 55.99 50.44"><g id="Layer_2" data-name="Layer 2"><g id="Layer_1-2" data-name="Layer 1"><path d="M16.6,18.57a17.37,17.37,0,0,1,11.16-4A16.39,16.39,0,0,1,39.9,20.19a16,16,0,0,1-15.68,26,15.72,15.72,0,0,1-9.79-6.8,16.43,16.43,0,0,1-2.5-11.72,17.86,17.86,0,0,1,4.67-9.1A17.52,17.52,0,0,0,11,28.77a17.71,17.71,0,0,0,3.55,13.17,21,21,0,0,0,5,4.24,17.15,17.15,0,0,0,6.68,2.19A17.48,17.48,0,0,0,41.63,19.89a17.41,17.41,0,0,0-11.91-6.15,16.91,16.91,0,0,0-12,3.8C17.33,17.87,17,18.23,16.6,18.57Z"/><path d="M.08,42.91c.83,5.32,6.1,9.19,11.29,6.67a15.12,15.12,0,0,0,4.82-4c.57-.66,7-8.18,6.27-8.91a7.89,7.89,0,0,0,3.39,2,8.11,8.11,0,0,0,7.67-2c-.6.56,5.81,8.42,6.49,9.17,2.5,2.75,6,5.59,10,4.36a9.12,9.12,0,0,0,5.93-7.24c0-.26.07-.53.09-.8.27-4.3-3.23-6.69-6.93-7.84a34,34,0,0,0-6.33-1.2c-1-.11-2-.18-3-.24-1.24-.08-2.71.21-3.88-.23.32-2.76-.11-5.4-2.16-7.45-1-1-2.36-1.27-3.34-2.09,1.19-2.65,2.82-5.14,3.83-7.85,1.22-3.3,2.81-7.46,1.19-10.89-1.89-4-7.09-5.25-11-3.64C21.32,1.93,20,5,20.09,8.13c.11,3.72,1.54,7.35,3.17,10.64.73,1.46,1.71,2.82,2.38,4.31a13.57,13.57,0,0,1-1.71.81,8.1,8.1,0,0,0-4,6.94,13.21,13.21,0,0,0,.21,1.87c-4.9-.17-10.18.11-14.72,2.11C2.18,36.25-.51,39.09.08,42.91ZM22.8,30.83A5.19,5.19,0,1,1,28,36,5.25,5.25,0,0,1,22.8,30.83Z"/><path d="M45.46,10.7a41.93,41.93,0,0,1,3.41,4.67,50.15,50.15,0,0,1,3.33,7,39.82,39.82,0,0,1,2,13.31,23.1,23.1,0,0,0-.13-14,27.33,27.33,0,0,0-4-6.89A20.46,20.46,0,0,0,45.46,10.7Z"/><path d="M1.85,36a41.25,41.25,0,0,1,.33-7.85,30.64,30.64,0,0,1,3.18-9.43A33.15,33.15,0,0,1,16.14,7,24.18,24.18,0,0,0,3.45,18.12,23.3,23.3,0,0,0,.8,27.91,26.78,26.78,0,0,0,1.85,36Z"/><path d="M6.92,32a30.71,30.71,0,0,1,3.7-11.25A30.8,30.8,0,0,1,18,12.22a17.56,17.56,0,0,0-9,7.3A17.5,17.5,0,0,0,6.92,32Z"/><path d="M36.38,11.47A28.7,28.7,0,0,1,44.92,20,29,29,0,0,1,49,32.52a18.28,18.28,0,0,0-2.53-13.76A18.24,18.24,0,0,0,36.38,11.47Z"/></g></g></svg>