<svg xmlns="http://www.w3.org/2000/svg" viewBox="0 0 75.91 39.04"><g id="Layer_2" data-name="Layer 2"><g id="Layer_1-2" data-name="Layer 1"><path d="M70.42,25.84a6.34,6.34,0,0,0-1.16-.1H62.9a7.46,7.46,0,0,0,1.16-.1,6.73,6.73,0,0,0,2.59-1.06,6.65,6.65,0,0,0-2.59-12,6.41,6.41,0,0,0-1.16-.1H60.11l.47-.29A6.65,6.65,0,0,0,58,.11,6.23,6.23,0,0,0,56.83,0H19.08a6.65,6.65,0,0,0-4.77,11.28H53.36A5.79,5.79,0,0,1,56.83.87,5.47,5.47,0,0,1,58,1a5.79,5.79,0,0,1,.65,11.16c-.21.07-.43.12-.65.17a5.47,5.47,0,0,1-1.15.12H12.72a6.65,6.65,0,0,0,0,13.3H6.65a6.65,6.65,0,0,0,0,13.3H69.26a7.36,7.36,0,0,0,1.16-.1,6.65,6.65,0,0,0,0-13.1Zm-20-13a6.46,6.46,0,0,1,1.25.13,6.27,6.27,0,0,1,5,5.29A6.29,6.29,0,0,1,62.9,12.8a6.57,6.57,0,0,1,1.26.13,6.29,6.29,0,0,1,.7,12.13c-.23.07-.46.13-.71.18a5.7,5.7,0,0,1-1.25.13A6.29,6.29,0,0,1,56.69,20a6.28,6.28,0,0,1-4.27,5.1c-.23.07-.46.13-.7.18a5.77,5.77,0,0,1-1.25.13,6.49,6.49,0,0,1-2-.31,6.38,6.38,0,0,1-3.13-2.29,6.29,6.29,0,0,1,5.1-10Zm20,25.74a5.86,5.86,0,0,1-1.26.13A6.29,6.29,0,0,1,63,33.25a6.27,6.27,0,0,1-4.56,5.2l-.39.09a5.92,5.92,0,0,1-1.26.13,6.27,6.27,0,0,1-6.22-5.46,6.27,6.27,0,0,1-4.56,5.23l-.4.1a5.86,5.86,0,0,1-1.26.13,6.28,6.28,0,1,1,1.26-12.44,5.56,5.56,0,0,1,.7.19,6.24,6.24,0,0,1,4.26,5.13,6.28,6.28,0,0,1,7.48-5.32,6.06,6.06,0,0,1,.7.19,6.26,6.26,0,0,1,4.26,5.1,6.28,6.28,0,0,1,6.21-5.42,6.57,6.57,0,0,1,1.26.13,6.28,6.28,0,0,1,0,12.31Z"/><path d="M45.55,28.21a4.45,4.45,0,0,0-1.16-.16,4.34,4.34,0,0,0,0,8.67,4.45,4.45,0,0,0,1.16-.15,4.34,4.34,0,0,0,0-8.36Zm0,6.82a2.84,2.84,0,0,1-1.16.25,2.89,2.89,0,0,1,0-5.78,2.83,2.83,0,0,1,1.16.24,2.89,2.89,0,0,1,0,5.29Z"/><path d="M44.39,34.33A1.95,1.95,0,1,1,46,31.23a1.89,1.89,0,0,1,.38,1.15,1.93,1.93,0,0,1-1.94,1.95Zm0-2.89A.95.95,0,1,0,45.15,33a1,1,0,0,0,.18-.57.91.91,0,0,0-.18-.55A.93.93,0,0,0,44.39,31.44Z"/><path d="M58,28.21a4.34,4.34,0,1,0,3.18,4.18A4.33,4.33,0,0,0,58,28.21ZM58,35a2.76,2.76,0,0,1-1.15.25,2.89,2.89,0,0,1,0-5.78,2.75,2.75,0,0,1,1.15.24A2.88,2.88,0,0,1,58,35Z"/><path d="M56.83,34.33a1.95,1.95,0,1,1,1.94-1.95,1.89,1.89,0,0,1-.39,1.17A1.93,1.93,0,0,1,56.83,34.33Zm0-2.89a.95.95,0,1,0,0,1.89.93.93,0,0,0,.75-.38.91.91,0,0,0,.19-.57.86.86,0,0,0-.19-.55A.91.91,0,0,0,56.83,31.44Z"/><path d="M58,2.47A4.34,4.34,0,1,0,56.83,11,4,4,0,0,0,58,10.83a4.34,4.34,0,0,0,0-8.36ZM58,9.3a2.75,2.75,0,0,1-1.15.24,2.89,2.89,0,0,1,0-5.78A2.76,2.76,0,0,1,58,4,2.88,2.88,0,0,1,58,9.3Z"/><path d="M56.83,8.6a1.95,1.95,0,1,1,1.56-3.1,1.93,1.93,0,0,1,0,2.31A1.94,1.94,0,0,1,56.83,8.6Zm0-2.89a.95.95,0,1,0,0,1.89.93.93,0,0,0,.75-.38.94.94,0,0,0,0-1.13A.93.93,0,0,0,56.83,5.71Z"/><path d="M70.42,28.21a4.45,4.45,0,0,0-1.16-.16,4.34,4.34,0,0,0,0,8.67,4.45,4.45,0,0,0,1.16-.15,4.34,4.34,0,0,0,0-8.36Zm0,6.82a2.84,2.84,0,0,1-1.16.25,2.89,2.89,0,0,1,0-5.78,2.83,2.83,0,0,1,1.16.24,2.89,2.89,0,0,1,0,5.29Z"/><path d="M69.26,34.33a1.95,1.95,0,1,1,1.56-.78A1.94,1.94,0,0,1,69.26,34.33Zm0-2.89A.95.95,0,1,0,70,33a1,1,0,0,0,.19-.57.92.92,0,0,0-.19-.55A.93.93,0,0,0,69.26,31.44Z"/><path d="M51.62,14.91a4,4,0,0,0-1.15-.16,4.34,4.34,0,1,0,0,8.67,4.43,4.43,0,0,0,1.15-.15,4.34,4.34,0,0,0,0-8.36Zm0,6.82a2.76,2.76,0,0,1-1.15.25,2.89,2.89,0,1,1,0-5.78,2.75,2.75,0,0,1,1.15.24,2.89,2.89,0,0,1,0,5.29Z"/><path d="M50.47,21A1.95,1.95,0,1,1,52,17.93a1.91,1.91,0,0,1,.39,1.16A2,2,0,0,1,52,20.25,1.93,1.93,0,0,1,50.47,21Zm0-2.89a.95.95,0,1,0,0,1.89.93.93,0,0,0,.75-.38,1,1,0,0,0,.19-.56.92.92,0,0,0-.19-.56A.91.91,0,0,0,50.47,18.14Z"/><path d="M64.06,14.91a4.06,4.06,0,0,0-1.16-.16,4.34,4.34,0,0,0,0,8.67,4.45,4.45,0,0,0,1.16-.15,4.34,4.34,0,0,0,0-8.36Zm0,6.82A2.84,2.84,0,0,1,62.9,22a2.89,2.89,0,1,1,0-5.78,2.83,2.83,0,0,1,1.16.24,2.89,2.89,0,0,1,0,5.29Z"/><path d="M62.9,21a1.95,1.95,0,1,1,1.56-3.1,1.9,1.9,0,0,1,.38,1.16A1.93,1.93,0,0,1,62.9,21Zm0-2.89a.95.95,0,1,0,.76,1.51,1,1,0,0,0,.18-.56.91.91,0,0,0-.18-.56A.93.93,0,0,0,62.9,18.14Z"/></g></g></svg>