<svg xmlns="http://www.w3.org/2000/svg" viewBox="0 0 89.41 52.06"><g id="Layer_2" data-name="Layer 2"><g id="Layer_1-2" data-name="Layer 1"><path d="M88.33,30.66a3.2,3.2,0,0,0-2.45-2.84L75.36,25.34a1.21,1.21,0,0,1-.86-.77l-3.57-10.1a3.21,3.21,0,0,0-3-2.13H53.46a3.2,3.2,0,0,0-3.2,3.2v18H49V3.21A3.21,3.21,0,0,0,45.77,0H0L0,43a3.21,3.21,0,0,0,3.2,3.2h7.4v-1a6.62,6.62,0,0,1,13.23,0v1H67.67v-1a6.62,6.62,0,0,1,13.23-.08v1l5.31,0a3.22,3.22,0,0,0,3.18-3.49ZM14.1,25.82V15.55h8.81V12.17l14.74,8.51L22.91,29.19V25.82Z"/><circle cx="74.29" cy="46.21" r="5.85" transform="translate(12.25 107.9) rotate(-76.72)"/><circle cx="17.39" cy="46.21" r="5.85" transform="translate(-16.36 10.17) rotate(-22.5)"/></g></g></svg>