<svg xmlns="http://www.w3.org/2000/svg" viewBox="0 0 101.26 50.52"><g id="Layer_2" data-name="Layer 2"><g id="Layer_1-2" data-name="Layer 1"><path d="M101.26,50.52c-1-1.05-5.87-6.28-7.91-7.64-2.27-1.52-2.78-5.05-2.78-5.05s-2.77-4.54-5-5-6.81-4-6.81-4l-1.52-1.51c-1.51-1.52-7.32-9.6-9.09-10.36S62.55,9.3,62.55,9.3,60.28.72,58.76.46s-2,7.33-4.54,7.58S52,14.85,49.93,15.61s-4.55,5.05-5.31,8.08-7.32,9.09-8.07,8.84-5.31,2.77-5.81,6.06c-.46,3-8.53,10.65-9.9,11.93Z"/><path d="M58.76.46c-1.92-.68.52,5.18.52,5.18L57.77,8.29l1.51,4.17L65,17l-5.11-1.7L64.59,21l5.11,4L64.21,24l-1.14,5.3,2.65-3,6.82,2.65-3.6,3.6,1.7,4,5.87,2.08L71,41.05l6.63-.38,3.41,4.17s6.25,1.51,6.82,1.89-5.68.76-5.68.76l18.12,3h.9Z"/><path d="M7.51.37A44.32,44.32,0,0,1,18.57,5.65l1.78-2.18A28.64,28.64,0,0,0,13.57.52,10.81,10.81,0,0,0,7.51.37Z"/><path d="M30.86,8.27A2.29,2.29,0,0,0,31,7.2a2.2,2.2,0,0,0-.82-1.49l-3.12-2.5a2.24,2.24,0,0,0-1.64-.48,2.26,2.26,0,0,0-1,.38Z"/><path d="M19.8,11.68.49,33.78A1.89,1.89,0,0,0,0,35.22a1.91,1.91,0,0,0,.71,1.36l2.12,1.73A1.95,1.95,0,0,0,5.63,38L23.26,14.51Z"/><path d="M31.14,12.35l-1.79,2.19a44.61,44.61,0,0,1,7.41,9.77C37.26,19.7,33.17,14.58,31.14,12.35Z"/><path d="M26.76,27.12a1.29,1.29,0,1,0,1.29,1.29A1.28,1.28,0,0,0,26.76,27.12Z"/><path d="M26.1,37.25a2,2,0,1,0-2-2A2,2,0,0,0,26.1,37.25Z"/><path d="M19.38,33.34a1.46,1.46,0,1,0,1.46,1.46A1.46,1.46,0,0,0,19.38,33.34Z"/><polygon points="23.27 4.75 20.35 8.33 26.43 13.29 26.43 13.29 29.35 9.71 23.27 4.75"/></g></g></svg>