<svg xmlns="http://www.w3.org/2000/svg" viewBox="0 0 130.82 46.83"><defs><style>.cls-1{fill:none;stroke:#000;stroke-miterlimit:10;stroke-width:2px;}</style></defs><g id="Layer_2" data-name="Layer 2"><g id="Layer_1-2" data-name="Layer 1"><path d="M123.18,40.66V38.11h1.59v-.84h-.52a1.77,1.77,0,0,0,.44-1.15,1.82,1.82,0,1,0-3.2,1.15H121v.84h1.58v2.55h-5.35V35.09H86.08L84.57,26l-.94-5.71h1.88v-.62l-7.86-.56h0L76.14,19H76l-2.13,7H70.69V21.35H67.93V15.91l3.76-1.7h.53V13H67.93V6.79h-.39V4H69V3.61h-1.5v-1H69V2.21h-1.5V1.63H68V.46h.49V0H66.23V.46h.49V1.63h.46v.58H65.69v.36h1.49v1H65.69V4h1.49V6.79H66.8V9.58H65.35L64.47,13H63V10.53h.46v-.41h1V9.87H61.14v.25h1v.41h.47V13H61.22V11.45H62v-.26H60.11v.26h.74V13h-.56v1.17h.53l2.92,1.7h0l-1.39,5.44h-.61v-1.7H46.81v.82l.49,1,.5,1h0l.82,1.68-5.27,6.48h-3.3V29.59h.72l1.42-3.33H37.52l-.82,1.13H30v.72h6.17l-1.06,1.48h.62v1.05h-1l-5.57,4.45H21.67l-2.48-3h-17l4.49,5.33h0l7.08,8.41H128.19l1.34-5.17Z"/><path class="cls-1" d="M29.21,35.09H21.67l-2.48-3h-17l4.49,5.33h0l7.08,8.41H128.19l1.34-5.17h-6.35V38.11h1.59v-.84h-.52a1.77,1.77,0,0,0,.44-1.15,1.82,1.82,0,1,0-3.2,1.15H121v.84h1.58v2.55h-5.35V35.09H86.08L84.57,26l-.94-5.71h1.88v-.62l-7.86-.56h0L76.14,19H76l-2.13,7H70.69V21.35H67.93"/></g></g></svg>