<svg xmlns="http://www.w3.org/2000/svg" viewBox="0 0 46.48 62.58"><defs><style>.cls-1{fill:#333;}</style></defs><g id="Layer_2" data-name="Layer 2"><g id="Layer_1-2" data-name="Layer 1"><path class="cls-1" d="M23.26,0H21.58a8.3,8.3,0,0,0-8.3,8.3V9.66c.83-.21,1.66-.4,2.48-.57A21.6,21.6,0,0,0,0,29.88H46.48a21.59,21.59,0,0,0-16.65-21,32.31,32.31,0,0,1,3.37.79V8.3A8.31,8.31,0,0,0,24.9,0H23.26Z"/><path class="cls-1" d="M23.53,8.3h0Z"/><path class="cls-1" d="M3.32,40.34A1.16,1.16,0,0,0,2.16,41.5v5a1.16,1.16,0,1,0,2.32,0v-5A1.16,1.16,0,0,0,3.32,40.34Z"/><path class="cls-1" d="M8.3,33.7a1.16,1.16,0,0,0-1.16,1.16v5a1.16,1.16,0,0,0,2.32,0v-5A1.16,1.16,0,0,0,8.3,33.7Z"/><path class="cls-1" d="M8.3,47a1.16,1.16,0,0,0-1.16,1.16v5a1.16,1.16,0,1,0,2.32,0v-5A1.16,1.16,0,0,0,8.3,47Z"/><path class="cls-1" d="M13.28,40.34a1.16,1.16,0,0,0-1.16,1.16v5a1.16,1.16,0,1,0,2.32,0v-5A1.16,1.16,0,0,0,13.28,40.34Z"/><path class="cls-1" d="M18.26,33.7a1.16,1.16,0,0,0-1.16,1.16v5a1.16,1.16,0,1,0,2.32,0v-5A1.16,1.16,0,0,0,18.26,33.7Z"/><path class="cls-1" d="M18.26,47a1.16,1.16,0,0,0-1.16,1.16v5a1.16,1.16,0,1,0,2.32,0v-5A1.16,1.16,0,0,0,18.26,47Z"/><path class="cls-1" d="M23.24,40.34a1.16,1.16,0,0,0-1.16,1.16v5a1.16,1.16,0,0,0,2.32,0v-5A1.16,1.16,0,0,0,23.24,40.34Z"/><path class="cls-1" d="M28.22,33.7a1.16,1.16,0,0,0-1.16,1.16v5a1.16,1.16,0,1,0,2.32,0v-5A1.16,1.16,0,0,0,28.22,33.7Z"/><path class="cls-1" d="M28.22,47a1.16,1.16,0,0,0-1.16,1.16v5a1.16,1.16,0,0,0,2.32,0v-5A1.16,1.16,0,0,0,28.22,47Z"/><path class="cls-1" d="M33.2,40.34A1.16,1.16,0,0,0,32,41.5v5a1.16,1.16,0,1,0,2.32,0v-5A1.16,1.16,0,0,0,33.2,40.34Z"/><path class="cls-1" d="M13.28,55.27a1.16,1.16,0,0,0-1.16,1.17v5a1.16,1.16,0,0,0,2.32,0v-5A1.16,1.16,0,0,0,13.28,55.27Z"/><path class="cls-1" d="M23.24,55.27a1.16,1.16,0,0,0-1.16,1.17v5a1.16,1.16,0,0,0,2.32,0v-5A1.16,1.16,0,0,0,23.24,55.27Z"/><path class="cls-1" d="M33.2,55.27A1.16,1.16,0,0,0,32,56.44v5a1.16,1.16,0,1,0,2.32,0v-5A1.16,1.16,0,0,0,33.2,55.27Z"/><path class="cls-1" d="M43.16,40.34A1.16,1.16,0,0,0,42,41.5v5a1.16,1.16,0,0,0,2.32,0v-5A1.16,1.16,0,0,0,43.16,40.34Z"/><path class="cls-1" d="M38.18,33.7A1.16,1.16,0,0,0,37,34.86v5a1.16,1.16,0,0,0,2.32,0v-5A1.16,1.16,0,0,0,38.18,33.7Z"/><path class="cls-1" d="M38.18,47A1.16,1.16,0,0,0,37,48.14v5a1.16,1.16,0,0,0,2.32,0v-5A1.16,1.16,0,0,0,38.18,47Z"/></g></g></svg>