<svg xmlns="http://www.w3.org/2000/svg" viewBox="0 0 41.2 52.83"><g id="Layer_2" data-name="Layer 2"><g id="Layer_1-2" data-name="Layer 1"><path d="M34.57,49.93,31.2,38.48A2.3,2.3,0,0,0,29,36.86H9.68a2.28,2.28,0,0,0-2.17,1.62L4.14,49.93a2.27,2.27,0,0,0,2.17,2.9H32.4a2.27,2.27,0,0,0,2.17-2.9Zm-15-2.65a2.65,2.65,0,1,1,2.4-2.4A2.68,2.68,0,0,1,19.56,47.28Z"/><path d="M41.15,8.93l-2.94,18a3.94,3.94,0,0,1-3.9,3.32H30.77l-.24,3.48a1.78,1.78,0,0,1-1.77,1.66H25.63l1.25-19.24a2.3,2.3,0,0,0-.57-1.66,2.28,2.28,0,0,0-4,1.36L21.05,35.37H16.82L16,15.87a2.23,2.23,0,0,0-.74-1.58,2.25,2.25,0,0,0-1.64-.61,2.29,2.29,0,0,0-1.59.74,2.27,2.27,0,0,0-.6,1.65l.81,19.3H9.32a1.79,1.79,0,0,1-1.77-1.65L5.83,9.06c0-.12,0-.28,0-.47s0-.15,0-.22l-5.4-6A1.43,1.43,0,0,1,.13.85,1.41,1.41,0,0,1,1.43,0H31a1.76,1.76,0,0,1,1.29.57,1.77,1.77,0,0,1,.48,1.33l-.17,2.44h4.66a4,4,0,0,1,3.9,4.59Z"/></g></g></svg>