<svg xmlns="http://www.w3.org/2000/svg" viewBox="0 0 87.55 49.61"><g id="Layer_2" data-name="Layer 2"><g id="Layer_1-2" data-name="Layer 1"><path d="M74.18,49.61H13.37A13.38,13.38,0,0,1,0,36.25V13.37A13.39,13.39,0,0,1,13.37,0H74.18A13.39,13.39,0,0,1,87.55,13.37V36.25A13.38,13.38,0,0,1,74.18,49.61ZM13.37,1.81A11.57,11.57,0,0,0,1.81,13.37V36.25A11.56,11.56,0,0,0,13.37,47.8H74.18A11.56,11.56,0,0,0,85.74,36.25V13.37A11.57,11.57,0,0,0,74.18,1.81Z"/><path d="M62.89,17.53h-.13a2.34,2.34,0,0,0-1.93,1L57,15.47H28.36a4.11,4.11,0,0,0-4.21,4V28a4.11,4.11,0,0,0,4.21,4H57l3.69-3.26a2.33,2.33,0,0,0,2,1.18h.13a2.28,2.28,0,0,0,2.32-2.23v-7.9A2.29,2.29,0,0,0,62.89,17.53Z"/><polygon points="41.33 5.76 43.1 12.37 44.88 5.76 41.33 5.76"/><polygon points="44.88 43.85 43.11 37.24 41.33 43.85 44.88 43.85"/><polygon points="12.27 25.5 18.88 23.72 12.27 21.95 12.27 25.5"/></g></g></svg>