<svg xmlns="http://www.w3.org/2000/svg" viewBox="0 0 33.59 58.79"><g id="Layer_2" data-name="Layer 2"><g id="Layer_1-2" data-name="Layer 1"><path d="M31.11,0H27.48A2.48,2.48,0,0,0,25,2.48a17.07,17.07,0,0,1-.5,3.71H22.12A2.59,2.59,0,0,0,19.42,4H14.21a2.6,2.6,0,0,0-2.7,2.2H9.08a17.07,17.07,0,0,1-.5-3.71A2.48,2.48,0,0,0,6.1,0H2.48A2.48,2.48,0,0,0,0,2.48a32.62,32.62,0,0,0,3.87,14C6.26,21,9.2,24.27,12.41,25.85V54.4a4.39,4.39,0,1,0,8.77,0V25.85c3.2-1.58,6.15-4.81,8.54-9.39a32.66,32.66,0,0,0,3.87-14A2.48,2.48,0,0,0,31.11,0Zm-9,12.74c-1.71,3.4-3.81,5.59-5.35,5.59s-3.63-2.19-5.34-5.59A30.73,30.73,0,0,1,9.28,7h2.23a2.59,2.59,0,0,0,2.7,2.2h5.21A2.59,2.59,0,0,0,22.12,7h2.19A30.73,30.73,0,0,1,22.14,12.74Z"/></g></g></svg>