<svg xmlns="http://www.w3.org/2000/svg" viewBox="0 0 65.42 54.74"><g id="Layer_2" data-name="Layer 2"><g id="Layer_1-2" data-name="Layer 1"><path d="M64.73,23.72l-8.29-6,8.29-6a1.71,1.71,0,0,0,.68-1.57,1.68,1.68,0,0,0-1-1.36L43.33.13A1.67,1.67,0,0,0,41.7.32l-9,6.53-9-6.53A1.7,1.7,0,0,0,22.09.13l-21,8.64a1.67,1.67,0,0,0-1,1.36A1.71,1.71,0,0,0,.69,11.7l8.3,6-8.29,6A1.68,1.68,0,0,0,1,26.64l9.13,3.75V43.84a1.69,1.69,0,0,0,1,1.54L32,54.6l.15,0,.09,0,.23,0H33l.21,0,.19-.07,20.86-9.22a1.68,1.68,0,0,0,1-1.54V30.39l9.13-3.75a1.68,1.68,0,0,0,1-1.36A1.7,1.7,0,0,0,64.73,23.72Zm-32,2.91-21.2-8.92,21.2-8.92,21.2,8.92Z"/><polygon points="44.57 17.71 32.71 22.7 20.86 17.71 32.71 12.72 44.57 17.71"/></g></g></svg>