<svg xmlns="http://www.w3.org/2000/svg" viewBox="0 0 88.87 64.34"><defs><style>.cls-1{fill:#323333;}</style></defs><g id="Layer_2" data-name="Layer 2"><g id="Layer_1-2" data-name="Layer 1"><path class="cls-1" d="M85.48,52.5h-62L14.84,3.57a3.39,3.39,0,0,0-3-2.79L3.71,0A3.38,3.38,0,0,0,0,3.08,3.34,3.34,0,0,0,.78,5.56a3.38,3.38,0,0,0,2.3,1.21L7,7.14l.19-2-3.9-.37a1.39,1.39,0,0,1-.94-.5,1.36,1.36,0,0,1-.31-1A1.38,1.38,0,0,1,3.52,2l8.11.76a1.4,1.4,0,0,1,1.24,1.15l8.76,49.39V54.5H85.48a1.4,1.4,0,0,1,0,2.79v2a3.4,3.4,0,0,0,0-6.79Z"/><circle class="cls-1" cx="68.59" cy="58.87" r="5.48"/><circle class="cls-1" cx="45.09" cy="58.87" r="5.48"/><rect class="cls-1" x="34.98" y="39.78" width="18.17" height="14.11"/><rect class="cls-1" x="56.45" y="39.78" width="18.17" height="14.11"/><rect class="cls-1" x="45.72" y="24.25" width="18.17" height="14.11"/></g></g></svg>