<svg xmlns="http://www.w3.org/2000/svg" viewBox="0 0 62.58 61.95"><g id="Layer_2" data-name="Layer 2"><g id="Layer_1-2" data-name="Layer 1"><path d="M31.29,23.55c-11.84,0-24.23-2.24-29.82-6.46L2.54,25.7c.08,4.39,13,8,28.75,8S59.88,30.11,60,25.74l0-.18,1.06-8.47C55.52,21.31,43.13,23.55,31.29,23.55Z"/><path d="M35.08,45.78a8,8,0,0,0-7.3,0L9.91,54.94c0,.07,3,7,21.83,7S52.93,55,53,54.94ZM25.73,56.51a1.75,1.75,0,1,1,1.74-1.74A1.74,1.74,0,0,1,25.73,56.51Zm3.41-4.15a1.75,1.75,0,1,1,1.74-1.74A1.74,1.74,0,0,1,29.14,52.36ZM34,56.17a1.75,1.75,0,1,1,1.74-1.74A1.74,1.74,0,0,1,34,56.17Zm.8-4.68a1.34,1.34,0,1,1,1.33-1.34A1.34,1.34,0,0,1,34.82,51.49Z"/><path d="M22.68,44.7a1,1,0,1,0-1-1A1,1,0,0,0,22.68,44.7Z"/><circle cx="27.7" cy="41.16" r="1.04"/><path d="M38.53,44a.94.94,0,1,0-1-.94A.94.94,0,0,0,38.53,44Z"/><path d="M32.5,39.57a1.13,1.13,0,1,0,1.13-1.14A1.14,1.14,0,0,0,32.5,39.57Z"/><path d="M26.43,8.94c-.71,0-1.29.41-1.29.92s.58.91,1.29.91,1.29-.41,1.29-.91S27.14,8.94,26.43,8.94Z"/><path d="M35.59,11c1,0,1.86-.58,1.86-1.32s-.82-1.33-1.86-1.33-1.86.59-1.86,1.33S34.54,11,35.59,11Z"/><path d="M32.33,13.55c0-.65-.74-1.17-1.64-1.17s-1.63.52-1.63,1.17a1.11,1.11,0,0,0,.71,1l1.52,0h.29A1.15,1.15,0,0,0,32.33,13.55Z"/><path d="M40.6,12.1c-.92,0-1.64.52-1.64,1.17a1,1,0,0,0,.5.83c.92-.11,1.8-.22,2.63-.36a.86.86,0,0,0,.14-.47C42.23,12.62,41.51,12.1,40.6,12.1Z"/><path d="M22.9,13.27c0-.65-.72-1.17-1.64-1.17s-1.63.52-1.63,1.17a.81.81,0,0,0,.08.34c.87.15,1.8.29,2.79.41A1,1,0,0,0,22.9,13.27Z"/><path d="M48.88,1.76h0l-.38-.08-1.6-.32L44.45,1,43.56.83A91.61,91.61,0,0,0,31.29,0h-.38C.87,0,0,8.93,0,10c0,5.48,14,9.94,31.29,9.94S62.58,15.43,62.58,10C62.58,6.67,57.46,3.61,48.88,1.76ZM31.29,15.93c-12.35,0-22.4-2.83-22.4-6.29s9.3-6.1,21.16-6.28h1.36c12.29,0,22.28,2.84,22.28,6.29S43.65,15.93,31.29,15.93Z"/></g></g></svg>