<svg xmlns="http://www.w3.org/2000/svg" viewBox="0 0 33.27 59.17"><g id="Layer_2" data-name="Layer 2"><g id="Layer_1-2" data-name="Layer 1"><path d="M32.33,23.08H.94A1,1,0,0,1,0,22.14V56a1.47,1.47,0,0,0,.36,1L.44,57a1.47,1.47,0,0,0,1,.43H4.7v.8a.89.89,0,0,0,.89.9h.85a.89.89,0,0,0,.89-.9v-.8H25.94v.8a.9.9,0,0,0,.9.9h.84a.9.9,0,0,0,.9-.9v-.8H31.8a1.48,1.48,0,0,0,1-.42h0a1.51,1.51,0,0,0,.43-1V22.14A.94.94,0,0,1,32.33,23.08ZM4.71,28.39a.94.94,0,0,1,1.88,0V40.51a.94.94,0,1,1-1.88,0Z"/><path d="M32.92.52,32.84.43a1.47,1.47,0,0,0-1-.43H1.48A1.46,1.46,0,0,0,.53.35L.44.43a1.48,1.48,0,0,0-.44,1V22.14a1,1,0,0,1,.94-.94H32.33a.94.94,0,0,1,.94.94V1.47A1.46,1.46,0,0,0,32.92.52ZM6.59,16.34a.94.94,0,0,1-1.88,0V6.74a.94.94,0,0,1,1.88,0Z"/><polygon points="1.48 1.47 1.48 1.47 1.48 1.47 1.48 1.47 1.48 1.47 1.48 1.47"/><polygon points="31.8 56 31.8 56 32.17 56.38 31.8 56"/><polygon points="31.8 56 31.8 55.99 31.8 56 31.8 56 31.8 56 31.8 56"/><polygon points="31.8 55.99 31.53 55.73 31.53 55.73 31.8 56 31.8 55.99 31.8 55.99"/><polygon points="1.48 56 1.48 56 1.1 56.38 1.48 56"/><polygon points="1.48 56 1.48 56 1.48 56 1.48 56 1.48 56 1.48 56"/><polygon points="1.48 56 1.75 55.73 1.75 55.73 1.48 56 1.48 56 1.48 56"/><rect x="1.29" y="1.02" height="0.53" transform="translate(-0.53 1.28) rotate(-44.83)"/><rect x="1.61" y="1.42" height="0.38" transform="translate(-0.66 1.6) rotate(-44.85)"/></g></g></svg>