<svg xmlns="http://www.w3.org/2000/svg" viewBox="0 0 88.87 64.34"><defs><style>.cls-1{fill:#323333;}.cls-2{fill:#fff;}</style></defs><g id="Layer_2" data-name="Layer 2"><g id="Layer_1-2" data-name="Layer 1"><path class="cls-1" d="M29.72,52.82a.83.83,0,0,1-.46.17h0a.8.8,0,0,1-.79-.78l-.15-4.13a.79.79,0,0,1,.19-.55c2.8-3.29,3.4-3.4,3.65-3.45a11.92,11.92,0,0,0,3.62-1.56,15.41,15.41,0,0,0,1.09-2.19A10.3,10.3,0,0,0,37,38.42a8.11,8.11,0,0,1,.47-3,13.68,13.68,0,0,1,3.83-3.83c.72-.41,2.32-4,2.62-5.23.24-1,1.86-4.68,4-4.8A2.65,2.65,0,0,0,50,20c.67-1.59,1.93-4.37,2.77-5.06,1-.87,4.13-1.46,5.34-1.44a4.49,4.49,0,0,1,3.81,2.66,8.26,8.26,0,0,0,1.72,2,18.36,18.36,0,0,1,1.9,2,8.85,8.85,0,0,0,.73.84c.67.67.77,1,.83,2.65,0,1,0,1.73,0,2.37a16.42,16.42,0,0,0,0,2.49,5.56,5.56,0,0,0,1.5,3.81,19.43,19.43,0,0,0,3.06,3,35.38,35.38,0,0,1,3.12,3c.74.76,1.66,1.71,1.9,1.87a5.27,5.27,0,0,1,1.45,2.71c.14.4.28.82.45,1.27a5.65,5.65,0,0,0,1.74,2.73A6.7,6.7,0,0,1,82.46,50a17.76,17.76,0,0,1,.08,2.36.8.8,0,0,1-.82.79Zm2.72-7.16h0Z"/><path class="cls-1" d="M85.48,52.5h-62L14.84,3.57a3.39,3.39,0,0,0-3-2.79L3.71,0A3.38,3.38,0,0,0,0,3.08,3.34,3.34,0,0,0,.78,5.56a3.38,3.38,0,0,0,2.3,1.21L7,7.14l.19-2-3.9-.37a1.39,1.39,0,0,1-.94-.5,1.36,1.36,0,0,1-.31-1A1.38,1.38,0,0,1,3.52,2l8.11.76a1.4,1.4,0,0,1,1.24,1.15l8.76,49.39V54.5H85.48a1.4,1.4,0,0,1,0,2.79v2a3.4,3.4,0,0,0,0-6.79Z"/><circle class="cls-1" cx="68.59" cy="58.87" r="5.48"/><circle class="cls-1" cx="45.09" cy="58.87" r="5.48"/><circle class="cls-2" cx="53.73" cy="25.28" r="1.48"/><circle class="cls-2" cx="43.09" cy="37.96" r="1.48"/><circle class="cls-2" cx="42.31" cy="49.02" r="1.48"/><circle class="cls-2" cx="57.85" cy="49.39" r="1.48"/><circle class="cls-2" cx="64.38" cy="36.48" r="1.48"/><circle class="cls-2" cx="71.5" cy="47.91" r="1.48"/><circle class="cls-2" cx="53.73" cy="36.92" r="1.48"/></g></g></svg>