<svg xmlns="http://www.w3.org/2000/svg" viewBox="0 0 88.87 64.34"><defs><style>.cls-1{fill:#323333;}</style></defs><g id="Layer_2" data-name="Layer 2"><g id="Layer_4" data-name="Layer 4"><path class="cls-1" d="M85.48,52.5h-62L14.84,3.57a3.39,3.39,0,0,0-3-2.79L3.71,0A3.38,3.38,0,0,0,0,3.08,3.34,3.34,0,0,0,.78,5.56a3.38,3.38,0,0,0,2.3,1.21L7,7.14l.19-2-3.9-.37a1.39,1.39,0,0,1-.94-.5,1.36,1.36,0,0,1-.31-1A1.38,1.38,0,0,1,3.52,2l8.11.76a1.4,1.4,0,0,1,1.24,1.15l8.76,49.39V54.5H85.48a1.4,1.4,0,0,1,0,2.79v2a3.4,3.4,0,0,0,0-6.79Z"/><circle class="cls-1" cx="68.59" cy="58.87" r="5.48"/><circle class="cls-1" cx="45.09" cy="58.87" r="5.48"/><path class="cls-1" d="M82.46,50a6.7,6.7,0,0,0-2.1-3.08,5.65,5.65,0,0,1-1.74-2.73c-.17-.45-.31-.87-.45-1.27a5.27,5.27,0,0,0-1.45-2.71c-.24-.16-1.16-1.11-1.9-1.87a35.38,35.38,0,0,0-3.12-3,19.43,19.43,0,0,1-3.06-3,5.56,5.56,0,0,1-1.5-3.81,16.44,16.44,0,0,1,0-2.49c0-.64.06-1.36,0-2.37-.06-1.66-.16-2-.83-2.65a8.85,8.85,0,0,1-.73-.84,18.36,18.36,0,0,0-1.9-2,8.26,8.26,0,0,1-1.72-2,4.49,4.49,0,0,0-3.81-2.66c-1.21,0-4.3.57-5.34,1.44C52,15.67,50.69,18.45,50,20a2.65,2.65,0,0,1-2,1.57c-2.19.12-3.81,3.81-4,4.8-.3,1.22-1.9,4.82-2.62,5.23a13.68,13.68,0,0,0-3.83,3.83,8.11,8.11,0,0,0-.47,3,10.3,10.3,0,0,1-.21,1.91,15.41,15.41,0,0,1-1.09,2.19,11.92,11.92,0,0,1-3.62,1.56c-.25.05-.85.16-3.65,3.45a.79.79,0,0,0-.19.55l.15,4.13a.8.8,0,0,0,.79.78h0a.83.83,0,0,0,.46-.17l52,.33a.8.8,0,0,0,.82-.79A17.76,17.76,0,0,0,82.46,50Zm-40.15.5A1.48,1.48,0,1,1,43.79,49,1.48,1.48,0,0,1,42.31,50.5Zm.78-11.07A1.48,1.48,0,1,1,44.56,38,1.47,1.47,0,0,1,43.09,39.43ZM53.73,23.8a1.48,1.48,0,1,1-1.47,1.48A1.48,1.48,0,0,1,53.73,23.8Zm.32,14.57a1.48,1.48,0,1,1,1.13-1.77A1.49,1.49,0,0,1,54.05,38.37Zm4.12,12.46a1.48,1.48,0,1,1,1.12-1.77A1.49,1.49,0,0,1,58.17,50.83ZM64.7,37.92A1.48,1.48,0,0,1,64.06,35a1.48,1.48,0,1,1,.64,2.89Zm7.12,11.43A1.48,1.48,0,1,1,73,47.59,1.48,1.48,0,0,1,71.82,49.35Z"/></g></g></svg>