<svg xmlns="http://www.w3.org/2000/svg" viewBox="0 0 66.78 46.37"><defs><style>.cls-1{fill:#323333;}</style></defs><g id="Layer_2" data-name="Layer 2"><g id="Layer_4" data-name="Layer 4"><path class="cls-1" d="M13,17.11h5.43v-7H13a3.48,3.48,0,0,0-2.49,1h0a3.52,3.52,0,0,0,2.5,6Z"/><path class="cls-1" d="M10.49,30.29h0a3.47,3.47,0,0,0-1,2.48,3.51,3.51,0,0,0,1,2.5,3.55,3.55,0,0,0,2.5,1h5.43v-7H13A3.47,3.47,0,0,0,10.49,30.29Z"/><path class="cls-1" d="M54.19,16.08h0a3.54,3.54,0,0,0,0-5,3.55,3.55,0,0,0-2.5-1H46.27v7H51.7A3.47,3.47,0,0,0,54.19,16.08Z"/><path class="cls-1" d="M25.38,29.26H19.94v7.05h5.44a3.55,3.55,0,0,0,2.49-1h0a3.52,3.52,0,0,0-2.49-6Z"/><path class="cls-1" d="M39.3,17.11h5.43v-7H39.3a3.52,3.52,0,0,0-2.49,1h0a3.52,3.52,0,0,0,2.49,6Z"/><path class="cls-1" d="M64.23,2.54A8.65,8.65,0,0,0,58.09,0H8.68A8.67,8.67,0,0,0,0,8.68v29a8.67,8.67,0,0,0,8.68,8.68H58.09a8.69,8.69,0,0,0,8.69-8.68v-29A8.68,8.68,0,0,0,64.23,2.54ZM35.72,10h0A5,5,0,0,1,39.3,8.53H51.7a5,5,0,0,1,3.58,8.63h0a5,5,0,0,1-3.58,1.49H39.3A5.06,5.06,0,0,1,35.73,10ZM9.4,10h0A5,5,0,0,1,13,8.53h12.4A5,5,0,0,1,29,17.16h0a5,5,0,0,1-3.57,1.49H13A5.06,5.06,0,0,1,9.4,10ZM29,36.36h0a5,5,0,0,1-3.57,1.48H13A5,5,0,0,1,9.4,29.21h0A5,5,0,0,1,13,27.72h12.4A5.06,5.06,0,0,1,29,36.36ZM30.11,24H5.5a.77.77,0,1,1,0-1.53H30.11a.77.77,0,1,1,0,1.53ZM55.28,36.36h0a5,5,0,0,1-3.58,1.48H39.3a5,5,0,0,1-3.57-8.63h0a5,5,0,0,1,3.57-1.49H51.7a5.06,5.06,0,0,1,3.58,8.64Zm6-12.41H36.67a.77.77,0,1,1,0-1.53H61.28a.77.77,0,1,1,0,1.53Z"/><path class="cls-1" d="M27.87,16.08h0a3.54,3.54,0,0,0,0-5,3.55,3.55,0,0,0-2.49-1H19.94v7h5.44A3.51,3.51,0,0,0,27.87,16.08Z"/><path class="cls-1" d="M36.81,30.29h0a3.47,3.47,0,0,0-1,2.48,3.51,3.51,0,0,0,1,2.5,3.55,3.55,0,0,0,2.49,1h5.43v-7H39.3A3.51,3.51,0,0,0,36.81,30.29Z"/><path class="cls-1" d="M51.7,29.26H46.27v7.05H51.7a3.51,3.51,0,0,0,2.49-1h0a3.52,3.52,0,0,0-2.5-6Z"/></g></g></svg>