<svg xmlns="http://www.w3.org/2000/svg" viewBox="0 0 66.78 46.37"><defs><style>.cls-1{fill:#323333;}.cls-2{fill:#fff;}</style></defs><g id="Layer_2" data-name="Layer 2"><g id="Layer_1-2" data-name="Layer 1"><path class="cls-1" d="M64.23,2.54A8.65,8.65,0,0,0,58.09,0H8.68A8.67,8.67,0,0,0,0,8.68v29a8.67,8.67,0,0,0,8.68,8.68H58.09a8.69,8.69,0,0,0,8.69-8.68v-29A8.68,8.68,0,0,0,64.23,2.54Z"/><path class="cls-2" d="M45.5,18.65h6.2a5.06,5.06,0,1,0,0-10.12H39.3A5,5,0,0,0,35.73,10a5.06,5.06,0,0,0,3.57,8.64Zm-6.2-1.54a3.52,3.52,0,0,1-2.49-6h0a3.52,3.52,0,0,1,2.49-1h5.43v7Zm7,0v-7H51.7a3.52,3.52,0,0,1,3.53,3.53,3.51,3.51,0,0,1-1,2.49h0a3.47,3.47,0,0,1-2.49,1Z"/><polygon class="cls-2" points="35.72 10.01 35.73 10.01 35.73 10.01 35.72 10.01"/><polygon class="cls-2" points="55.28 17.16 55.28 17.16 55.28 17.16 55.28 17.16"/><path class="cls-2" d="M7.91,13.59A5.09,5.09,0,0,0,13,18.65H25.38a5.06,5.06,0,1,0,0-10.12H13A5,5,0,0,0,9.4,10h0A5,5,0,0,0,7.91,13.59Zm17.47-3.53a3.52,3.52,0,0,1,3.52,3.53,3.51,3.51,0,0,1-1,2.49h0a3.51,3.51,0,0,1-2.49,1H19.94v-7Zm-7,0v7H13a3.52,3.52,0,0,1-2.49-6h0a3.47,3.47,0,0,1,2.48-1Z"/><polygon class="cls-2" points="28.95 17.16 28.95 17.16 28.95 17.16 28.95 17.16"/><path class="cls-2" d="M45.5,37.85h6.2a5.07,5.07,0,0,0,0-10.13H39.3a5.07,5.07,0,0,0,0,10.13Zm-6.2-1.54a3.55,3.55,0,0,1-2.49-1,3.51,3.51,0,0,1-1-2.5,3.47,3.47,0,0,1,1-2.48h0a3.51,3.51,0,0,1,2.49-1h5.43v7.05Zm7,0v-7H51.7a3.52,3.52,0,0,1,2.5,6h0a3.51,3.51,0,0,1-2.49,1Z"/><polygon class="cls-2" points="35.72 29.21 35.73 29.21 35.73 29.21 35.72 29.21"/><polygon class="cls-2" points="55.28 36.36 55.28 36.36 55.28 36.36 55.28 36.36"/><path class="cls-2" d="M7.91,32.78A5.09,5.09,0,0,0,13,37.85H25.38a5.07,5.07,0,0,0,0-10.13H13A5,5,0,0,0,9.4,29.21h0A5,5,0,0,0,7.91,32.78Zm17.47-3.52a3.52,3.52,0,0,1,2.49,6h0a3.55,3.55,0,0,1-2.49,1H19.94v-7Zm-7,0v7.05H13a3.55,3.55,0,0,1-2.49-1,3.51,3.51,0,0,1-1-2.5,3.47,3.47,0,0,1,1-2.48h0a3.47,3.47,0,0,1,2.48-1Z"/><polygon class="cls-2" points="28.95 36.36 28.95 36.36 28.95 36.36 28.95 36.36"/><path class="cls-2" d="M61.28,24a.77.77,0,1,0,0-1.53H36.67a.77.77,0,1,0,0,1.53Z"/><path class="cls-2" d="M30.88,23.19a.77.77,0,0,0-.77-.77H5.5A.77.77,0,1,0,5.5,24H30.11A.77.77,0,0,0,30.88,23.19Z"/></g></g></svg>