<svg xmlns="http://www.w3.org/2000/svg" viewBox="0 0 53.27 51.72"><g id="Layer_2" data-name="Layer 2"><g id="Layer_1-2" data-name="Layer 1"><path d="M52.5,42.81c-1.9,5.08-7.32,8.67-13.47,8.9h-.46a12,12,0,0,1-3.86-.63c-4-1.38-6.64-4.94-7.91-8.76a3.41,3.41,0,0,1-.18.48c-1.89,5.08-7.31,8.67-13.46,8.9H12.7a11.92,11.92,0,0,1-3.86-.63c-5.91-2-8.72-8.67-8.83-14-.13-6,2.14-11.75,4.27-16.65a67.66,67.66,0,0,1,4-7.93c1-1.65,2.27-3.36,4.32-3.59a5.32,5.32,0,0,1,1.32,0L14,8.69l.79-2a20,20,0,0,1,1.36-2.75c.35-.59.74-1.18,1.16-1.76a9.36,9.36,0,0,1,.79-1A4.44,4.44,0,0,1,19.36.28,2.66,2.66,0,0,1,20.25,0,2.11,2.11,0,0,1,21.4.19l.3.18.24.21a1.56,1.56,0,0,1,.4.8,1.72,1.72,0,0,1,0,.74,2.57,2.57,0,0,1-.21.52,6.27,6.27,0,0,1-1,1.27l-.5.47-.26.25-.13.14-.08.09a14.77,14.77,0,0,0-1.61,2,6.3,6.3,0,0,0-.54,1A7.87,7.87,0,0,0,17.58,9l-.09.32a6.66,6.66,0,0,1,1.09.16,5.67,5.67,0,0,1,1.71.74,5.37,5.37,0,0,1,.81.67l.08.08c.11.12.22.24.32.37a4.43,4.43,0,0,1,.3.41,7.73,7.73,0,0,1,1,2.21l.72,2.28a99.07,99.07,0,0,1,3,11.54c0,.11.14.85.29,2a61,61,0,0,1,3.36-9.25,67.71,67.71,0,0,1,4-7.93c1-1.65,2.28-3.36,4.33-3.59a5.32,5.32,0,0,1,1.32,0l.09-.25h0l.79-2a20,20,0,0,1,1.36-2.75c.35-.59.74-1.18,1.15-1.76a8.35,8.35,0,0,1,.8-1A4.26,4.26,0,0,1,45.23.28a2.79,2.79,0,0,1,.9-.26,2.07,2.07,0,0,1,1.14.17l.31.18.24.21a1.64,1.64,0,0,1,.4.8,1.59,1.59,0,0,1,0,.74,1.78,1.78,0,0,1-.21.52,5.65,5.65,0,0,1-1,1.27l-.5.47c-.11.11-.19.18-.25.25l-.13.14L46,4.86a16.48,16.48,0,0,0-1.61,2,7.22,7.22,0,0,0-.54,1A9.6,9.6,0,0,0,43.46,9l-.09.32a6.71,6.71,0,0,1,1.08.16,5.56,5.56,0,0,1,1.71.74,5.37,5.37,0,0,1,.81.67l.08.08c.11.12.22.24.32.37a4.32,4.32,0,0,1,.31.41,7.73,7.73,0,0,1,1,2.21l.72,2.28a99.07,99.07,0,0,1,3,11.54C52.46,28.2,54.27,38.84,52.5,42.81Z"/></g></g></svg>