<svg xmlns="http://www.w3.org/2000/svg" viewBox="0 0 67.27 56.29"><g id="Layer_2" data-name="Layer 2"><g id="Layer_4" data-name="Layer 4"><path d="M66.56,24.39,58,18.21,66.56,12a1.77,1.77,0,0,0,.7-1.61A1.74,1.74,0,0,0,66.2,9L44.56.13a1.74,1.74,0,0,0-1.68.2L33.64,7.05,24.39.33a1.77,1.77,0,0,0-1.68-.2L1.08,9a1.73,1.73,0,0,0-.36,3l8.52,6.18L.72,24.39A1.74,1.74,0,0,0,0,26a1.73,1.73,0,0,0,1.06,1.39l9.39,3.86V45.08a1.73,1.73,0,0,0,1,1.58l21.44,9.48.14.06.1,0,.24.05.23,0h.19l.09,0a.82.82,0,0,0,.22,0l.2-.07,21.44-9.48a1.73,1.73,0,0,0,1-1.58V31.25l9.39-3.86A1.73,1.73,0,0,0,67.26,26,1.76,1.76,0,0,0,66.56,24.39ZM32.82,54.05,12.33,45v-13l10.23,4.3.09,0,.18.06.23,0h.26l.21,0h.09a1.63,1.63,0,0,0,.28-.08l.17-.07.08,0a1,1,0,0,0,.24-.15l8.43-6.27ZM54.94,45,34.69,53.94V29.8L43,36l.21.14.11.05.17.07.1,0,.17,0h.09a.73.73,0,0,0,.18,0h.12l.26,0,.21,0,.12,0L54.94,32ZM33.64,27.38l-21.8-9.17L33.64,9l21.79,9.17Z"/><path d="M32.4,11.66a3.29,3.29,0,0,0-.09.32c-.09.3-.15.62-.21.93V13a1.13,1.13,0,0,0-.32,0,1.58,1.58,0,0,0-.89,1.07,17,17,0,0,0-.62,2.11,14.72,14.72,0,0,0-.39,2.39s-.11,2.17.57,3.07a3.27,3.27,0,0,0,2.31,1.77,2.87,2.87,0,0,0,1,0l.11,0a3.65,3.65,0,0,0,2.87-2.77C37,19.59,36,17.08,36,17a24,24,0,0,0-1.25-2.67l-.28-.52a1.75,1.75,0,0,0-.34-.49.38.38,0,0,0-.09-.09l-.09-.07,0,0a1.38,1.38,0,0,0-.22-.13,1.56,1.56,0,0,0-.45-.1H33v-.08a1.88,1.88,0,0,1,0-.28,2,2,0,0,1,.08-.27,4.78,4.78,0,0,0,.4-.86c0-.25,0-.54-.3-.59C32.76,10.74,32.53,11.25,32.4,11.66Z"/><path d="M24.4,14.89q0,.19-.06.33c-.05.32-.08.64-.1,1v.07a1.5,1.5,0,0,0-.32.09,1.57,1.57,0,0,0-.77,1.16,15.7,15.7,0,0,0-.38,2.16,15.83,15.83,0,0,0-.14,2.42,6.24,6.24,0,0,0,.9,3A3.26,3.26,0,0,0,26,26.57a3.09,3.09,0,0,0,1-.12l.11,0a3.64,3.64,0,0,0,2.55-3.06c.14-1.06-1.05-3.45-1.1-3.56A21.87,21.87,0,0,0,27,17.28l-.33-.49a1.78,1.78,0,0,0-.39-.45l-.1-.08-.1-.06,0,0-.24-.1a1.3,1.3,0,0,0-.45,0l-.27,0V16a2.62,2.62,0,0,1,0-.29c0-.08,0-.17.05-.27a4.22,4.22,0,0,0,.3-.91A.46.46,0,0,0,25.1,14C24.66,13.94,24.49,14.47,24.4,14.89Z"/><path d="M44,14.94a2.09,2.09,0,0,0-.21.19,6.11,6.11,0,0,0-.56.58l0,0a.93.93,0,0,0-.26-.1,1.3,1.3,0,0,0-1.11.37,14.7,14.7,0,0,0-1.37,1.25,12.71,12.71,0,0,0-1.35,1.54,5.23,5.23,0,0,0-.94,2.46,2.77,2.77,0,0,0,.88,2.3,2.47,2.47,0,0,0,.7.41l.09,0a3.09,3.09,0,0,0,3.29-.73,8.35,8.35,0,0,0,1.11-2.94,22.26,22.26,0,0,0,.28-2.47l0-.5a1.56,1.56,0,0,0,0-.5l0-.11,0-.09v0a1.06,1.06,0,0,0-.11-.19,1.24,1.24,0,0,0-.28-.28l-.2-.11,0,0a1,1,0,0,1,.15-.19l.18-.15a4.36,4.36,0,0,0,.67-.45c.13-.16.21-.39,0-.55S44.26,14.7,44,14.94Z"/></g></g></svg>