<svg xmlns="http://www.w3.org/2000/svg" viewBox="0 0 52.41 50.98"><g id="Layer_2" data-name="Layer 2"><g id="Layer_1-2" data-name="Layer 1"><polygon points="0 9.17 25.33 17.49 25.33 50.98 0 42.28 0 9.17"/><path d="M27.08,17.49l7.85-2.58V22.3a.83.83,0,0,0,0,.31.89.89,0,0,0,1.12.54h0l8.55-3a.87.87,0,0,0,.65-.85v-7.8l7.12-2.34V42.28L27.08,51Z"/><polygon points="18.9 2.4 41.77 10.83 35.82 12.78 12.95 4.35 18.9 2.4"/><polygon points="43.55 12.09 43.55 18.7 36.67 21.09 36.67 14.34 43.55 12.09"/><polygon points="26.21 0 50.49 7.97 44.44 9.96 21.57 1.52 26.21 0"/><polygon points="10.28 5.22 33.15 13.66 26.21 15.94 1.92 7.97 10.28 5.22"/></g></g></svg>