<svg xmlns="http://www.w3.org/2000/svg" viewBox="0 0 71.07 63.73"><g id="Layer_2" data-name="Layer 2"><g id="Layer_1-2" data-name="Layer 1"><path d="M46.24,38.54l-6.45-5.4c2.79-2.26,4.42-7.82,4.42-7.82,2,2.11,6.12,6.15,2.71,12.35A3.9,3.9,0,0,1,46.24,38.54Z"/><path d="M26.5,43.77l.9-8.36c3.43,1.07,9-.67,9-.67-.61,2.88-1.72,8.51-8.76,9.11A3.65,3.65,0,0,1,26.5,43.77Z"/><path d="M11.49,29.8l7.72-3.33c.76,3.51,5,7.46,5,7.46-2.8.89-8.25,2.7-12.24-3.14A3.63,3.63,0,0,1,11.49,29.8Z"/><path d="M51.21,17.05l-7.75,3.24c-.73-3.52-4.91-7.53-4.91-7.53,2.81-.85,8.28-2.6,12.2,3.29A3.81,3.81,0,0,1,51.21,17.05Z"/><path d="M35.63,10.13l-2.75.1-4,.14-1.69.06a3.84,3.84,0,0,1,0-1.1c1.1-7,6.8-7.68,9.71-8.09C36.94,1.24,34.81,6.63,35.63,10.13Z"/><path d="M23.34,14.72A12.52,12.52,0,0,0,20.46,19c-.2.41-.37.82-.53,1.23a25.32,25.32,0,0,0-.82,2.43c-2.1-2.06-6.26-6-3-12.28a3.62,3.62,0,0,1,.66-.88Z"/><path d="M32.88,9.78l-4,.14a13.53,13.53,0,0,0-9.74,7.43c-.2.41-.37.82-.53,1.23a13.7,13.7,0,0,0-.81,4.63,13.52,13.52,0,1,0,15-13.43ZM31.36,25.42a2.21,2.21,0,1,1,2.21-2.21A2.21,2.21,0,0,1,31.36,25.42Z"/><path d="M40.82,8.39a1.33,1.33,0,1,0-1.33-1.33A1.33,1.33,0,0,0,40.82,8.39Z"/><path d="M45,5.84a1.59,1.59,0,1,0,1.59-1.59A1.59,1.59,0,0,0,45,5.84Z"/><path d="M41.33,0a1.18,1.18,0,1,0,1.18,1.18A1.18,1.18,0,0,0,41.33,0Z"/><path d="M54.72,21.75a2.09,2.09,0,1,0,2.09-2.09A2.1,2.1,0,0,0,54.72,21.75Z"/><path d="M57.75,33.68A1.75,1.75,0,1,0,56,31.93,1.75,1.75,0,0,0,57.75,33.68Z"/><path d="M54,39.3a2.86,2.86,0,1,0,2.86-2.86A2.86,2.86,0,0,0,54,39.3Z"/><path d="M61.41,34.31a1.79,1.79,0,1,0,1.79-1.79A1.79,1.79,0,0,0,61.41,34.31Z"/><path d="M60.82,27.94a1.32,1.32,0,1,0-1.32-1.32A1.32,1.32,0,0,0,60.82,27.94Z"/><path d="M37.79,61.67a2.06,2.06,0,1,0-2.06,2.06A2.06,2.06,0,0,0,37.79,61.67Z"/><path d="M44.27,52.37A1.58,1.58,0,1,0,42.69,54,1.58,1.58,0,0,0,44.27,52.37Z"/><path d="M67.34,63.47a3.49,3.49,0,0,0,3.72-3.27,3.43,3.43,0,0,0-1-2.68l-.46-.45.39-.52a2.62,2.62,0,0,0-3.34-3.89l-.44.24-.39-.33A2.55,2.55,0,0,0,64.76,52l-.54-.15v-.57A2.3,2.3,0,0,0,62.07,49a2.47,2.47,0,0,0-.81.1l-.65.2-.25-.63a1.9,1.9,0,0,0-1.66-1.22,1.93,1.93,0,0,0-2,1.32l-.19.58-.6-.09a2.68,2.68,0,0,0-2.78,1.56l-.17.37-.41.05a2.62,2.62,0,0,0-1.35.59l-.2.18h-.27a2.1,2.1,0,0,0-2,1.71l-.11.54-.55.06a1.79,1.79,0,0,0-1.6,1.66,1.88,1.88,0,0,0,0,.41l.13.78-.79.07a3.25,3.25,0,0,0-2.91,3,3.19,3.19,0,0,0,5.86,2l.36-.55.59.29a4.11,4.11,0,0,0,3.88-.16l.49-.29.4.39a4.56,4.56,0,0,0,6.94-.74l.19-.29.35,0a4.41,4.41,0,0,0,1.24-.3l.76-.32.23.8A3.49,3.49,0,0,0,67.34,63.47Z"/><path d="M14,43.87l-4,1.28L8.86,42.59,6.18,44.84l-5-8L0,40c0,.09,1.08,8.72,1.1,9.34,0,.11,0,.42,0,.89.26,7.46.08,8.1,0,8.31l0,.13a18.28,18.28,0,0,0-.61,4.21H21.92c-2.65-3.7-3.35-4.74-3.7-6.75l-1.37-.95-.06,1.57a.72.72,0,0,1-.5.66.59.59,0,0,1-.23,0,.71.71,0,0,1-.57-.27L13.82,55.1l-.32.78a.73.73,0,0,1-1.18.26l-1.08-1a.75.75,0,0,1-.8.47.74.74,0,0,1-.62-.84l-.43-5.89a.73.73,0,0,1,.49-.58.72.72,0,0,1,.74.15l1.31,1.21.38-1a.75.75,0,0,1,.58-.45.73.73,0,0,1,.67.27l1.23,1.51v-.44a.77.77,0,0,1,.27-.54.71.71,0,0,1,.58-.15l4.43,5-2.22-4.31,3.22,1.58-2.22-2,1.36-1L18.54,46.8,20,42.59l-3.52,3.2Z"/></g></g></svg>