<svg xmlns="http://www.w3.org/2000/svg" viewBox="0 0 47.45 53.73"><g id="Layer_2" data-name="Layer 2"><g id="Layer_1-2" data-name="Layer 1"><path d="M42.89,20.65l2.88,33.08H1.68l2.88-33c.32-2.08,2.06-5.91,6.34-5.91h8.63l-2.94,1.59-.26.15a.19.19,0,0,0-.18,0,.23.23,0,0,0-.1.15A15,15,0,0,0,10.74,22a.22.22,0,0,0-.14.1.19.19,0,0,0,0,.18A14.88,14.88,0,0,0,8.66,29.5a.18.18,0,0,0-.08.16.22.22,0,0,0,.07.16,15,15,0,0,0,1.94,7.23.21.21,0,0,0,0,.19.23.23,0,0,0,.16.1,15.06,15.06,0,0,0,5.29,5.29.2.2,0,0,0,.1.15.17.17,0,0,0,.18,0,14.88,14.88,0,0,0,7.23,2,.23.23,0,0,0,.17.07.2.2,0,0,0,.16-.07,14.94,14.94,0,0,0,7.24-1.94.2.2,0,0,0,.17,0,.21.21,0,0,0,.11-.15,15.15,15.15,0,0,0,5.3-5.3.18.18,0,0,0,.14-.09.23.23,0,0,0,0-.16,15.18,15.18,0,0,0,1.93-7.25.21.21,0,0,0,.08-.17.19.19,0,0,0-.09-.17,14.84,14.84,0,0,0-1.93-7.22.19.19,0,0,0,0-.18.22.22,0,0,0-.14-.1,15,15,0,0,0-5.3-5.29.21.21,0,0,0-.11-.16.19.19,0,0,0-.18,0l-.26-.15-2.94-1.59h8.64C40.83,14.79,42.57,18.62,42.89,20.65Z"/><path d="M47.45,0V2.48l-3.83,8H38.45a2.15,2.15,0,0,1-2,1.31H27.55v8H23.77l0-.84-.05.84H19.9v-8H11a2.15,2.15,0,0,1-2-1.31H3.83L0,2.48V0Z"/><polygon points="23.77 19.75 23.68 19.75 23.73 18.91 23.77 19.75"/><path d="M36.87,37.08c0,.08-.1.17-.16.25a.17.17,0,0,1-.18,0l-1.36-.78a.24.24,0,0,1-.08-.32.23.23,0,0,1,.32-.08l1.35.78A.21.21,0,0,1,36.87,37.08Z"/><path d="M38.8,29.66v.17a.23.23,0,0,1-.16.06H37.08a.23.23,0,1,1,0-.46h1.56a.2.2,0,0,1,.15.06A1,1,0,0,1,38.8,29.66Z"/><path d="M36.71,22a2.49,2.49,0,0,1,.15.28.18.18,0,0,1-.1.13l-1.35.79a.24.24,0,0,1-.24-.41L36.53,22A.19.19,0,0,1,36.71,22Z"/><path d="M31.41,42.63l-.28.17a.25.25,0,0,1-.15-.1l-.78-1.36a.24.24,0,0,1,.09-.32.23.23,0,0,1,.31.09l.79,1.36A.23.23,0,0,1,31.41,42.63Z"/><path d="M31.12,16.53a1.69,1.69,0,0,1,.29.17.23.23,0,0,1,0,.16l-.79,1.35a.23.23,0,0,1-.31.09A.24.24,0,0,1,30.2,18L31,16.63A.22.22,0,0,1,31.12,16.53Z"/><path d="M23.56,44.74a.22.22,0,0,1-.07-.16V43A.24.24,0,0,1,24,43v1.57a.22.22,0,0,1-.07.16Z"/><path d="M23.73,28.22a1.46,1.46,0,0,0-.52.09l.32-5.9.15-2.66h.09L24,23l.29,5.29A1.44,1.44,0,0,0,23.73,28.22Z"/><path d="M10.76,37.34c-.06-.1-.12-.19-.17-.29a.17.17,0,0,1,.1-.13l1.36-.78a.22.22,0,0,1,.31.08.23.23,0,0,1-.08.32l-1.36.78A.18.18,0,0,1,10.76,37.34Z"/><path d="M8.65,29.66a.86.86,0,0,1,0-.16.18.18,0,0,1,.15-.07h1.56a.23.23,0,1,1,0,.46H8.81a.2.2,0,0,1-.16-.07Z"/><path d="M16.33,42.79l-.28-.16a.18.18,0,0,1,0-.16l.78-1.36a.23.23,0,1,1,.4.23l-.78,1.36A.18.18,0,0,1,16.33,42.79Z"/><path d="M16.05,16.69l.28-.16a.22.22,0,0,1,.14.1L17.25,18a.23.23,0,1,1-.4.23l-.78-1.35A.21.21,0,0,1,16.05,16.69Z"/><path d="M10.59,22.27a2.49,2.49,0,0,1,.15-.28.19.19,0,0,1,.18,0l1.36.78a.24.24,0,0,1-.23.41l-1.36-.79A.18.18,0,0,1,10.59,22.27Z"/><path d="M22.28,29.66a1.46,1.46,0,0,1,.93-1.35l-.05.78a.81.81,0,0,1,1.13,0l-.05-.78a1.46,1.46,0,0,1,.93,1.35,1.43,1.43,0,0,1-.77,1.28v.78H25v.71l-.67.49H23.16l-.66-.49v-.71h.55v-.78A1.43,1.43,0,0,1,22.28,29.66Z"/><path d="M8.66,29.5a.86.86,0,0,0,0,.16v.16a.22.22,0,0,1-.07-.16A.18.18,0,0,1,8.66,29.5Z"/><path d="M10.74,22a2.49,2.49,0,0,0-.15.28.19.19,0,0,1,0-.18A.22.22,0,0,1,10.74,22Z"/><path d="M10.76,37.34a.23.23,0,0,1-.16-.1.21.21,0,0,1,0-.19C10.64,37.15,10.7,37.24,10.76,37.34Z"/><path d="M16.33,16.53l-.28.16a.23.23,0,0,1,.1-.15A.19.19,0,0,1,16.33,16.53Z"/><path d="M16.33,42.79a.17.17,0,0,1-.18,0,.2.2,0,0,1-.1-.15Z"/><path d="M23.89,44.74a.2.2,0,0,1-.16.07.23.23,0,0,1-.17-.07Z"/><path d="M31.41,42.63a.21.21,0,0,1-.11.15.2.2,0,0,1-.17,0Z"/><path d="M31.41,16.7a1.69,1.69,0,0,0-.29-.17.19.19,0,0,1,.18,0A.21.21,0,0,1,31.41,16.7Z"/><path d="M36.87,37.08a.23.23,0,0,1,0,.16.18.18,0,0,1-.14.09C36.77,37.25,36.82,37.16,36.87,37.08Z"/><path d="M36.86,22.27a2.49,2.49,0,0,0-.15-.28.22.22,0,0,1,.14.1A.19.19,0,0,1,36.86,22.27Z"/><path d="M38.8,29.83v-.17a1,1,0,0,0,0-.17.19.19,0,0,1,.09.17A.21.21,0,0,1,38.8,29.83Z"/><path d="M16.33,16.53l-.28.16a.23.23,0,0,1,.1-.15A.19.19,0,0,1,16.33,16.53Z"/><path d="M10.74,22a2.49,2.49,0,0,0-.15.28.19.19,0,0,1,0-.18A.22.22,0,0,1,10.74,22Z"/><path d="M8.66,29.5a.86.86,0,0,0,0,.16v.16a.22.22,0,0,1-.07-.16A.18.18,0,0,1,8.66,29.5Z"/><path d="M10.76,37.34a.23.23,0,0,1-.16-.1.21.21,0,0,1,0-.19C10.64,37.15,10.7,37.24,10.76,37.34Z"/><path d="M16.33,42.79a.17.17,0,0,1-.18,0,.2.2,0,0,1-.1-.15Z"/><path d="M23.89,44.74a.2.2,0,0,1-.16.07.23.23,0,0,1-.17-.07Z"/><path d="M31.41,42.63a.21.21,0,0,1-.11.15.2.2,0,0,1-.17,0Z"/><path d="M36.87,37.08a.23.23,0,0,1,0,.16.18.18,0,0,1-.14.09C36.77,37.25,36.82,37.16,36.87,37.08Z"/><path d="M38.8,29.83v-.17a1,1,0,0,0,0-.17.19.19,0,0,1,.09.17A.21.21,0,0,1,38.8,29.83Z"/><path d="M36.86,22.27a2.49,2.49,0,0,0-.15-.28.22.22,0,0,1,.14.1A.19.19,0,0,1,36.86,22.27Z"/><path d="M31.41,16.7a1.69,1.69,0,0,0-.29-.17.19.19,0,0,1,.18,0A.21.21,0,0,1,31.41,16.7Z"/><path d="M24.29,29.09a.81.81,0,0,0-1.13,0l.05-.78a1.46,1.46,0,0,1,.52-.09,1.44,1.44,0,0,1,.51.09Z"/><polygon points="23.77 19.75 23.68 19.75 23.73 18.91 23.77 19.75"/></g></g></svg>