<svg xmlns="http://www.w3.org/2000/svg" viewBox="0 0 68.27 60.14"><g id="Layer_2" data-name="Layer 2"><g id="Layer_1-2" data-name="Layer 1"><path d="M37.16,60.11C34.69,47.8,36.74,14.51,39.24,0a5.42,5.42,0,0,0-1.87,1A252,252,0,0,0,0,57.51C15.24,57.7,37.19,60.24,37.16,60.11Z"/><path d="M42,6c-.19-.4-.29-.37-.21.07l0,.28c.07.44.17,1.17.2,1.62l2.35,51c0,.45,0,.87,0,.93a.12.12,0,0,0,.1.14c.06,0,.43.08.84.13h.61l.82-.07,20.48-2.53,1-.15a.12.12,0,0,0,.09-.2,9.08,9.08,0,0,1-.49-.89l-25-48.57-.69-1.48Z"/></g></g></svg>