<svg xmlns="http://www.w3.org/2000/svg" viewBox="0 0 76.85 44.48"><defs><style>.cls-1{fill:#323333;}.cls-2{fill:#fff;}</style></defs><g id="Layer_2" data-name="Layer 2"><g id="Layer_1-2" data-name="Layer 1"><path class="cls-1" d="M73.45,20.9c-6-1-22.94.38-36.3,2.75-.25-2-.94-5.39-2.71-6s-4.53-1.13-5.59-2.93a15.18,15.18,0,0,1-1.19-3.13C26.64,8.41,24,5.9,22,3.4,20.34,1.45,17.87-1,15.11.41c-2.5,1.25-3.64,4.75-5,7-2.51,4-4.76,2.75-4.62,8.44,0,1.33-.25,3.5-1.73,4.2C1.09,21.26.89,22.53,1.15,24.64L0,24.66S4.2,42.92,6.42,43.92s19.64.33,20.64.45,3.33-3.89,4.44-5.89c2.6-4.68,3.65-6.58,6.25-7.8,3.39-1.59,22-5.08,27.94-3.38,6.6,2,10.68,1.18,11.12-2.46C77.09,22.46,75.83,21.31,73.45,20.9Z"/><circle class="cls-2" cx="16.87" cy="5.44" r="0.89"/><circle class="cls-2" cx="10.49" cy="13.04" r="0.89"/><circle class="cls-2" cx="10.02" cy="19.67" r="0.89"/><circle class="cls-2" cx="19.34" cy="19.89" r="0.89"/><circle class="cls-2" cx="23.25" cy="12.15" r="0.89"/><circle class="cls-2" cx="27.52" cy="19" r="0.89"/><circle class="cls-2" cx="16.87" cy="12.42" r="0.89"/></g></g></svg>