<svg xmlns="http://www.w3.org/2000/svg" viewBox="0 0 76.85 44.48"><defs><style>.cls-1{fill:#323333;}</style></defs><g id="Layer_2" data-name="Layer 2"><g id="Layer_4" data-name="Layer 4"><path class="cls-1" d="M73.45,20.9c-6-1-22.94.38-36.3,2.75-.25-2-.94-5.39-2.71-6s-4.52-1.13-5.59-2.93a15.18,15.18,0,0,1-1.19-3.13C26.64,8.41,24,5.9,22,3.4,20.34,1.45,17.87-1,15.11.41c-2.5,1.25-3.64,4.75-5,7-2.51,4-4.76,2.75-4.62,8.44,0,1.33-.25,3.5-1.73,4.2C1.09,21.26.89,22.53,1.15,24.64L0,24.66S4.2,42.92,6.42,43.92s19.64.33,20.64.45,3.33-3.89,4.44-5.89c2.6-4.68,3.65-6.58,6.25-7.8,3.39-1.59,22-5.08,27.94-3.38,6.6,2,10.68,1.18,11.12-2.46C77.09,22.46,75.83,21.31,73.45,20.9ZM10,20.56a.89.89,0,1,1,.89-.89A.88.88,0,0,1,10,20.56Zm.47-6.63a.89.89,0,1,1,.88-.89A.89.89,0,0,1,10.49,13.93Zm6.57-.64A.9.9,0,0,1,16,12.61a.89.89,0,0,1,.68-1,.87.87,0,0,1,1.05.67A.88.88,0,0,1,17.06,13.29Zm-.19-7a.89.89,0,1,1,.89-.89A.89.89,0,0,1,16.87,6.33Zm2.66,14.42A.89.89,0,1,1,19.14,19a.9.9,0,0,1,1.06.68A.88.88,0,0,1,19.53,20.75ZM23.44,13A.89.89,0,1,1,24.12,12,.9.9,0,0,1,23.44,13Zm4.27,6.85a.89.89,0,1,1-.38-1.73.87.87,0,0,1,1.05.67A.88.88,0,0,1,27.71,19.87Z"/></g></g></svg>