<svg xmlns="http://www.w3.org/2000/svg" viewBox="0 0 88.87 66.96"><defs><style>.cls-1{stroke:#000;stroke-width:0.25px;}.cls-1,.cls-2{stroke-miterlimit:10;}.cls-2{fill:none;stroke:#101112;stroke-width:2px;}</style></defs><g id="Layer_2" data-name="Layer 2"><g id="Layer_1-2" data-name="Layer 1"><path class="cls-1" d="M29.22,53.32a.8.8,0,0,1-.79-.78l-.15-4.13a.8.8,0,0,1,.19-.55c2.8-3.29,3.4-3.4,3.65-3.44a12.19,12.19,0,0,0,3.62-1.57,14.41,14.41,0,0,0,1.09-2.19A10.3,10.3,0,0,0,37,38.75a8.15,8.15,0,0,1,.47-3A13.68,13.68,0,0,1,41.34,32c.72-.41,2.32-4,2.62-5.23.24-1,1.86-4.67,4-4.79a2.66,2.66,0,0,0,2-1.58c.67-1.59,1.93-4.36,2.77-5.06,1-.86,4.13-1.45,5.34-1.43a4.47,4.47,0,0,1,3.81,2.66,8.46,8.46,0,0,0,1.72,2,19.18,19.18,0,0,1,1.9,2,6.84,6.84,0,0,0,.73.84c.67.68.77,1,.83,2.66,0,1,0,1.73,0,2.37a16.29,16.29,0,0,0,0,2.48,5.56,5.56,0,0,0,1.5,3.81,19.43,19.43,0,0,0,3.06,3,37.36,37.36,0,0,1,3.12,3c.74.76,1.66,1.7,1.9,1.87a5.23,5.23,0,0,1,1.45,2.71c.14.39.28.82.45,1.26a5.69,5.69,0,0,0,1.74,2.74,6.67,6.67,0,0,1,2.1,3.07,17.84,17.84,0,0,1,.08,2.36.81.81,0,1,1-1.61,0,18.87,18.87,0,0,0-.06-2.1,5.55,5.55,0,0,0-1.59-2.12,7.24,7.24,0,0,1-2.17-3.36c-.17-.46-.32-.9-.46-1.32a5.93,5.93,0,0,0-.85-1.9,25.52,25.52,0,0,1-2.14-2.07A39,39,0,0,0,70.73,37a20.66,20.66,0,0,1-3.29-3.18,7.16,7.16,0,0,1-1.91-4.72,18.11,18.11,0,0,1,0-2.71c0-.64.06-1.3,0-2.25,0-1.25-.05-1.26-.36-1.57a9,9,0,0,1-.88-1,17.59,17.59,0,0,0-1.73-1.86,9.16,9.16,0,0,1-2.08-2.5,2.89,2.89,0,0,0-2.36-1.69,10.45,10.45,0,0,0-4.28,1.07A19,19,0,0,0,51.5,21a4.21,4.21,0,0,1-3.41,2.56c-.89.05-2.3,2.48-2.57,3.56-.17.71-1.83,5.36-3.38,6.25a12.39,12.39,0,0,0-3.2,3.18,9.89,9.89,0,0,0-.29,2.3,9.16,9.16,0,0,1-.32,2.41,16.66,16.66,0,0,1-1.22,2.43c-.67,1.12-4,2.12-4.61,2.29a23.85,23.85,0,0,0-2.6,2.69L30,52.49a.82.82,0,0,1-.78.83ZM32.44,46h0Z"/><line class="cls-2" x1="72.98" y1="53.5" x2="21.63" y2="53.5"/><path class="cls-2" d="M85.48,58.29a2.4,2.4,0,0,0,0-4.79H71.39"/><path class="cls-2" d="M22.68,53.49l-7.5-42.26-.84-4.77-.48-2.72a2.39,2.39,0,0,0-2.13-2L3.62,1a2.39,2.39,0,1,0-.45,4.76l3.89.37"/><circle class="cls-2" cx="22.68" cy="60.1" r="5.86"/><circle class="cls-2" cx="76.19" cy="59.51" r="5.27"/><circle cx="53.73" cy="25.28" r="1.48"/><circle cx="43.08" cy="37.96" r="1.48"/><circle cx="42.31" cy="49.02" r="1.48"/><circle cx="57.85" cy="49.38" r="1.48"/><circle cx="64.38" cy="36.48" r="1.48"/><circle cx="71.5" cy="47.91" r="1.48"/><circle cx="53.73" cy="36.92" r="1.48"/></g></g></svg>