<svg xmlns="http://www.w3.org/2000/svg" viewBox="0 0 45.18 68.09"><defs><style>.cls-1,.cls-2{fill:none;stroke:#000;stroke-miterlimit:10;}.cls-1{stroke-width:2px;}.cls-3{fill:#202020;}</style></defs><g id="Layer_2" data-name="Layer 2"><g id="Layer_1-2" data-name="Layer 1"><path class="cls-1" d="M6,42.23V65.5a1.59,1.59,0,0,0,1.59,1.59H40.25a1.59,1.59,0,0,0,1.59-1.59V41.85A4.5,4.5,0,0,0,44.18,38V31.73a1.61,1.61,0,0,0-.23-.88l-4.73-7.73a1.59,1.59,0,0,0-1.36-.76H8.76a1.57,1.57,0,0,0-1.38.81L3,30.9a1.56,1.56,0,0,0-.2.84V38A4.58,4.58,0,0,0,6,42.23Z"/><path class="cls-1" d="M2.83,32H44.18v6.64a3.38,3.38,0,0,1-3.54,3.2h0a3.48,3.48,0,0,1-3.42-2.42,3.5,3.5,0,0,1-3.43,2.42h0a3.49,3.49,0,0,1-3.43-2.42,3.63,3.63,0,0,1-6.85,0,3.5,3.5,0,0,1-3.43,2.42,3.49,3.49,0,0,1-3.43-2.42,3.49,3.49,0,0,1-3.43,2.42,3.5,3.5,0,0,1-3.43-2.42,3.48,3.48,0,0,1-3.42,2.42,3.38,3.38,0,0,1-3.54-3.2Z"/><line class="cls-2" x1="37.51" y1="60.65" x2="37.51" y2="60.65"/><path class="cls-3" d="M36.43,8.82l1.31-.6A.31.31,0,0,0,37.9,8a.29.29,0,0,0,0-.24.32.32,0,0,0-.42-.16l-1.72.79-2.7-1.56L35.8,5.28l1.77.65A.31.31,0,0,0,38,5.75a.36.36,0,0,0,0-.25.35.35,0,0,0-.18-.16l-1.27-.47,1.72-1a.32.32,0,0,0,.12-.44.31.31,0,0,0-.43-.11l-1.72,1,.45-1.21a.33.33,0,0,0,0-.24.32.32,0,0,0-.18-.16.31.31,0,0,0-.41.18l-.7,1.91h0L32.73,6.32V2.91l1.32-1.32a.33.33,0,0,0,0-.45.33.33,0,0,0-.23-.09.31.31,0,0,0-.22.09L32.73,2V.32a.32.32,0,1,0-.63,0V2l-1-1A.35.35,0,0,0,30.87,1a.32.32,0,0,0-.22.54l1.43,1.44h0V6.32L29.31,4.71l-.83-1.82a.32.32,0,0,0-.42-.16.33.33,0,0,0-.17.18.29.29,0,0,0,0,.24l.46,1L26.9,3.32a.31.31,0,0,0-.43.11.32.32,0,0,0,.11.44l1.85,1.06-1.31.6a.33.33,0,0,0-.17.18A.39.39,0,0,0,27,6a.32.32,0,0,0,.42.16l1.72-.79,2.68,1.55L29.14,8.39l-1.87-.7a.33.33,0,0,0-.41.19.36.36,0,0,0,0,.25.35.35,0,0,0,.18.16l1.38.51L26.58,9.87a.31.31,0,0,0-.11.43.32.32,0,0,0,.27.16.29.29,0,0,0,.16,0l1.68-1-.4,1.08a.33.33,0,0,0,0,.24.35.35,0,0,0,.18.16.31.31,0,0,0,.41-.18L29.45,9,32.1,7.42V10.7h0l-1.43,1.43a.31.31,0,0,0,0,.45.32.32,0,0,0,.22.1.37.37,0,0,0,.23-.1l1-1v1.83a.32.32,0,0,0,.63,0V11.63l.87.87a.31.31,0,0,0,.22.09.33.33,0,0,0,.23-.09.33.33,0,0,0,0-.45l-1.32-1.32V7.42L35.54,9l.84,1.82a.32.32,0,0,0,.42.16.28.28,0,0,0,.16-.18.33.33,0,0,0,0-.24l-.47-1,1.44.83a.29.29,0,0,0,.16,0,.32.32,0,0,0,.27-.16.3.3,0,0,0-.12-.43Z"/><path d="M19.65,4.06C14.26,5.64,12.1,7.6,13,11.14h0c.22-.29.44-.57.67-.84.37-.46.76-.91,1.16-1.35s.83-.86,1.27-1.26c.22-.2.45-.39.68-.57a5.92,5.92,0,0,1,.74-.49,7.27,7.27,0,0,0-.71.53c-.22.19-.44.39-.64.6-.42.42-.81.87-1.18,1.32S14.3,10,14,10.48c-.22.29-.42.59-.63.89C17.06,12.16,18.73,9.75,19.65,4.06Z"/><path d="M0,1.36c9.39,1.84,13.37,4.82,12.31,11h0c-.42-.45-.84-.89-1.27-1.32-.71-.73-1.44-1.43-2.19-2.11S7.32,7.58,6.51,7c-.41-.31-.83-.59-1.25-.86A10.18,10.18,0,0,0,3.92,5.4a10.6,10.6,0,0,1,1.29.79c.41.29.81.6,1.19.92.77.65,1.5,1.34,2.21,2.05s1.39,1.46,2.05,2.21c.41.46.81.93,1.2,1.4C5.66,14.71,2.45,10.88,0,1.36Z"/></g></g></svg>