<svg xmlns="http://www.w3.org/2000/svg" viewBox="0 0 53.27 51.72"><g id="Layer_2" data-name="Layer 2"><g id="Layer_1-2" data-name="Layer 1"><path d="M12.7,51.72a12,12,0,0,1-3.87-.64c-5.9-2-8.71-8.66-8.82-14-.13-6,2.13-11.74,4.27-16.64a66.88,66.88,0,0,1,4-7.93c1-1.65,2.27-3.36,4.32-3.59a5.32,5.32,0,0,1,1.32,0L14,8.69l.79-2a20.52,20.52,0,0,1,1.36-2.74c.35-.59.74-1.19,1.16-1.76a9.36,9.36,0,0,1,.79-1A4.25,4.25,0,0,1,19.36.28,2.66,2.66,0,0,1,20.25,0,2.11,2.11,0,0,1,21.4.19a1.49,1.49,0,0,1,.3.18l.24.21a1.6,1.6,0,0,1,.4.8,1.72,1.72,0,0,1,0,.74,2.83,2.83,0,0,1-.21.52,6.24,6.24,0,0,1-1,1.27l-.49.47-.26.25-.13.14-.08.09a15,15,0,0,0-1.62,2,8.45,8.45,0,0,0-.54,1A9,9,0,0,0,17.58,9l-.09.31a6.68,6.68,0,0,1,1.09.17,5.28,5.28,0,0,1,1.7.74,5.39,5.39,0,0,1,.82.67l.08.08a3.87,3.87,0,0,1,.32.37c.09.1.19.25.3.4a7.93,7.93,0,0,1,1,2.22l.72,2.28a99.4,99.4,0,0,1,3,11.53c.08.47,1.89,11.1.11,15.07-1.89,5.09-7.31,8.68-13.46,8.91Zm.5-41.3a2.82,2.82,0,0,0-.41,0C11.4,10.6,10.4,12,9.6,13.29a68,68,0,0,0-3.92,7.76c-2.07,4.75-4.27,10.3-4.15,16,.11,4.82,2.59,10.82,7.8,12.59a10.6,10.6,0,0,0,3.77.54c4.61-.17,10.14-2.69,12.11-8,1.33-3,.3-11.28-.2-14.23a96.18,96.18,0,0,0-3-11.34l-.72-2.29a6.58,6.58,0,0,0-.77-1.78l-.25-.34c-.09-.12-.17-.19-.24-.27L20,11.92a4.08,4.08,0,0,0-.56-.46,4.12,4.12,0,0,0-1.24-.54,5.11,5.11,0,0,0-1.66-.11l-1.13.11.32-1.08c.07-.23.13-.46.2-.69l.17-.62a10.55,10.55,0,0,1,.44-1.25,7.85,7.85,0,0,1,.66-1.23A16.42,16.42,0,0,1,19,3.83l.08-.09.18-.19.25-.24.5-.48a4.63,4.63,0,0,0,.76-.93.67.67,0,0,0,.07-.18.24.24,0,0,0,0-.08l-.07,0a.57.57,0,0,0-.34-.06,1.39,1.39,0,0,0-.41.13,2.71,2.71,0,0,0-.79.59,6.86,6.86,0,0,0-.65.82A17.16,17.16,0,0,0,17.5,4.71a17.53,17.53,0,0,0-1.26,2.53l-.78,2c-.09.23-.18.51-.28.82l-.22.7-.87-.23A4,4,0,0,0,13.2,10.42Z"/><path d="M38.57,51.72a12,12,0,0,1-3.86-.64c-5.9-2-8.72-8.66-8.83-14-.13-6,2.14-11.74,4.28-16.64a66.93,66.93,0,0,1,4-7.93c1-1.65,2.28-3.36,4.33-3.59a5.24,5.24,0,0,1,1.31,0c0-.09.07-.17.1-.25h0l.78-2a20.6,20.6,0,0,1,1.37-2.74c.35-.59.73-1.19,1.15-1.76a9.36,9.36,0,0,1,.79-1A4.08,4.08,0,0,1,45.23.28a2.79,2.79,0,0,1,.9-.26,2.08,2.08,0,0,1,1.14.17,1.09,1.09,0,0,1,.3.18l.24.21a1.45,1.45,0,0,1,.4.8,1.46,1.46,0,0,1,0,.74,2.27,2.27,0,0,1-.21.52,5.88,5.88,0,0,1-1,1.27l-.5.47c-.11.11-.19.18-.25.25l-.14.14L46,4.86a15.75,15.75,0,0,0-1.61,2,7.22,7.22,0,0,0-.54,1A9,9,0,0,0,43.46,9l-.09.31a6.73,6.73,0,0,1,1.08.17A5.18,5.18,0,0,1,47,10.85l.08.08a3.87,3.87,0,0,1,.32.37,3.77,3.77,0,0,1,.3.4,8.23,8.23,0,0,1,1,2.22l.72,2.28a97.51,97.51,0,0,1,3,11.53c.08.47,1.89,11.1.12,15.07-1.9,5.09-7.32,8.68-13.47,8.91Zm.5-41.3a2.68,2.68,0,0,0-.4,0c-1.39.16-2.39,1.53-3.19,2.85a66.38,66.38,0,0,0-3.92,7.76c-2.08,4.75-4.27,10.3-4.15,16,.1,4.82,2.58,10.82,7.79,12.59a10.66,10.66,0,0,0,3.78.54c4.61-.17,10.14-2.69,12.1-8,1.34-3,.31-11.28-.2-14.23a96.26,96.26,0,0,0-3-11.34l-.72-2.29a6.56,6.56,0,0,0-.78-1.78,3.34,3.34,0,0,0-.25-.34c-.09-.12-.16-.19-.23-.27l-.07-.06a3.56,3.56,0,0,0-.56-.46,4.12,4.12,0,0,0-1.24-.54,5.08,5.08,0,0,0-1.66-.11l-1.12.11.32-1.08c.07-.23.13-.46.19-.69L42,8.53a12.84,12.84,0,0,1,.43-1.25,8.79,8.79,0,0,1,.66-1.23,15.73,15.73,0,0,1,1.78-2.22l.08-.09.17-.19.25-.24.51-.48a4.57,4.57,0,0,0,.75-.93.71.71,0,0,0,.08-.18.45.45,0,0,0,0-.08l-.06,0a.6.6,0,0,0-.35-.06,1.39,1.39,0,0,0-.41.13,2.67,2.67,0,0,0-.78.59,7,7,0,0,0-.66.82,19.31,19.31,0,0,0-1.08,1.64,19.86,19.86,0,0,0-1.26,2.53l-.77,2c-.09.23-.19.51-.29.82l-.22.7L40,10.52A4.13,4.13,0,0,0,39.07,10.42Z"/></g></g></svg>