<svg xmlns="http://www.w3.org/2000/svg" width="72.589" height="85.972" viewBox="0 0 72.589 85.972">
  <g id="Group_33" data-name="Group 33" transform="translate(-1352.93 -157.374)">
    <path id="Path_54" data-name="Path 54" d="M1425.519,161.293v63.4a4.735,4.735,0,0,1-3.6,4.5l-60.985,12.184a.854.854,0,0,1-.15.019l61.135-12.259a4.734,4.734,0,0,0,3.59-4.5l-.617-65.332A3.223,3.223,0,0,1,1425.519,161.293Z" fill="#2b2b2b"/>
    <path id="Path_55" data-name="Path 55" d="M1360.588,200.358a.7.7,0,0,0,.2-.028l-.131.028C1360.635,200.358,1360.606,200.367,1360.588,200.358Z" fill="#2b2b2b"/>
    <path id="Path_56" data-name="Path 56" d="M1359.627,242.363c-1.44-.271-3.172-.356-4.163-1-1.44-.944-1.534-2.179-1.534-4V173.785a4.712,4.712,0,0,1,3.6-4.488l60.228-10.716a5.237,5.237,0,0,1,3.955.29c1.15.664,1.654,2.575,2.28,3.164" fill="none" stroke="#000" stroke-miterlimit="10" stroke-width="2"/>
    <g id="Group_32" data-name="Group 32">
      <path id="Path_57" data-name="Path 57" d="M1412,174.491a1.2,1.2,0,0,0-.753,1.044.645.645,0,0,0,.855.654.985.985,0,0,0,.848-.93C1412.948,174.741,1412.564,174.535,1412,174.491Z"/>
      <path id="Path_58" data-name="Path 58" d="M1412.187,173.74a1.068,1.068,0,0,0,.635-.9.55.55,0,0,0-.729-.577.859.859,0,0,0-.738.837C1411.355,173.521,1411.7,173.7,1412.187,173.74Z"/>
      <path id="Path_59" data-name="Path 59" d="M1401.747,175.407l-.934,1.583-.008.016,1.39-.276v-1.388c0-.29.008-.59.032-.892l-.032.006C1402.038,174.809,1401.9,175.094,1401.747,175.407Z"/>
      <path id="Path_60" data-name="Path 60" d="M1424.892,159.845a1.889,1.889,0,0,0-.234-.271,1.64,1.64,0,0,0-.187-.187,2.919,2.919,0,0,0-2.552-.608l-60.985,11.595a4.732,4.732,0,0,0-3.6,4.5v63.987a2.951,2.951,0,0,0,2.225,3.039c.122.028.243.046.365.065h.028a2.567,2.567,0,0,0,.262.019,1.65,1.65,0,0,0,.374-.019.7.7,0,0,0,.2-.028l61.135-12.259a4.734,4.734,0,0,0,3.59-4.5ZM1372.4,184.092l.6-.677c1.2-1.353,1.765-2.077,1.774-2.753,0-.455-.243-.806-.911-.673a2.325,2.325,0,0,0-1.091.64l-.282-.627a3.127,3.127,0,0,1,1.569-.838c1.13-.224,1.68.38,1.68,1.212a4.626,4.626,0,0,1-1.531,2.744l-.447.473v.016l2.1-.417v.8l-3.46.688Zm-4.2.836.6-.677c1.2-1.352,1.767-2.076,1.774-2.753,0-.454-.244-.806-.91-.674a2.353,2.353,0,0,0-1.091.641l-.283-.627a3.138,3.138,0,0,1,1.57-.838c1.13-.225,1.679.381,1.679,1.212a4.61,4.61,0,0,1-1.531,2.744l-.446.473v.016l2.1-.417v.8l-3.461.689Zm2.206,45.64-.918.182v1.686c0,.462.125.681.493.608a1.636,1.636,0,0,0,.378-.123l.015.734a2.4,2.4,0,0,1-.7.234.968.968,0,0,1-.832-.148,1.3,1.3,0,0,1-.3-1.009v-1.795l-.549.109v-.722l.549-.109v-.864l.942-.414v1.091l.918-.183Zm1.7,2.758-.974.194V229.7l.974-.194Zm-.5-4.27a.406.406,0,0,1-.533-.412.657.657,0,0,1,.541-.633.414.414,0,0,1,.542.418A.652.652,0,0,1,1371.6,229.056Zm3.555.565-.918.181v1.687c0,.463.126.681.494.608a1.553,1.553,0,0,0,.376-.123l.016.734a2.422,2.422,0,0,1-.7.234.965.965,0,0,1-.831-.148,1.3,1.3,0,0,1-.3-1.008v-1.8l-.549.109v-.721l.549-.11V228.4l.942-.415v1.091l.918-.183Zm2.879,2.525-.063-.411-.024,0a1.8,1.8,0,0,1-1.13.734.908.908,0,0,1-1.2-.9c0-.964.856-1.621,2.267-1.894v-.062c0-.252-.1-.646-.777-.512a2.46,2.46,0,0,0-1.028.486l-.189-.59a3.316,3.316,0,0,1,1.381-.612c1.226-.244,1.579.463,1.579,1.294v1.38a5.934,5.934,0,0,0,.055.908Zm5.293-1.053-.965.192v-2.157c0-.549-.2-.924-.729-.82a1.056,1.056,0,0,0-.753.714,1.039,1.039,0,0,0-.04.322v2.244l-.973.193V229.1c0-.44-.008-.807-.031-1.131l.847-.169.047.563.024,0a1.774,1.774,0,0,1,1.216-.9c.668-.133,1.357.162,1.357,1.371Zm2-.4-.973.194v-3.82l.973-.194Zm-.494-4.27a.407.407,0,0,1-.533-.412.658.658,0,0,1,.541-.634.414.414,0,0,1,.541.419A.652.652,0,0,1,1384.838,226.425Zm4.134,3.546-.047-.571-.016,0a1.781,1.781,0,0,1-1.224.91c-.7.139-1.334-.15-1.334-1.4v-2.243l.965-.192v2.078c0,.636.2,1,.714.9a1.058,1.058,0,0,0,.738-.664.979.979,0,0,0,.055-.308v-2.307l.965-.191v2.674c0,.455.015.828.032,1.139Zm1.394-36.1-7.772,1.545v23.063l-6.461,1.285V196.705l-7.644,1.521v-5.407l21.877-4.351Zm6.1,34.607-.941.187v-2.11c0-.635-.22-.968-.683-.876a.955.955,0,0,0-.674.644,1.532,1.532,0,0,0-.047.331v2.29l-.941.187v-2.212c0-.533-.213-.867-.661-.778a.982.982,0,0,0-.69.686.914.914,0,0,0-.054.324v2.259l-.943.188v-2.683c0-.439-.007-.806-.031-1.131l.831-.165.04.556.023,0a1.706,1.706,0,0,1,1.178-.885.883.883,0,0,1,1.059.5l.016,0a1.953,1.953,0,0,1,.47-.573,1.557,1.557,0,0,1,.769-.38c.637-.126,1.279.177,1.279,1.4Zm2.561-13.267-6.419,1.277V195.837l6.419-1.277Zm-3.252-22.542c-2.027.4-3.378-.765-3.336-2.547a3.993,3.993,0,0,1,3.378-3.925c2.07-.411,3.379.723,3.421,2.573A4.113,4.113,0,0,1,1395.772,192.673Zm3.708-18.2-.816.162v5.139l.816-.163v.557l-1.529.3v-6.251l1.529-.3Zm4.284,2.67-.658.13v1.295l-.911.181v-1.295l-2.307.46v-.628l2.079-3.59,1.139-.226v3.074l.658-.13Zm4.016-3.983-2.158,4.908-1.021.2,2.152-4.711v-.015l-2.4.477v-.8l3.429-.682Zm1.355,4.3a.471.471,0,0,1-.6-.5.747.747,0,0,1,.6-.737.464.464,0,0,1,.6.5A.74.74,0,0,1,1409.135,177.46Zm2.934-.583c-1.193.237-1.812-.322-1.812-1.036a1.8,1.8,0,0,1,.957-1.515V174.3a.973.973,0,0,1-.777-.976,1.94,1.94,0,0,1,1.7-1.734c1.1-.219,1.6.341,1.6.969a1.623,1.623,0,0,1-.784,1.308v.024a1.069,1.069,0,0,1,.973,1.093A2.085,2.085,0,0,1,1412.069,176.877Zm5.969-5.752-2.158,4.907-1.02.2,2.151-4.711v-.016l-2.4.478v-.8l3.429-.682Zm2.134,4.933-1.523.3V175.8l.808-.161V170.5l-.808.161V170.1l1.523-.3Z"/>
      <path id="Path_61" data-name="Path 61" d="M1376.579,231.283c0,.377.243.5.549.44a1.012,1.012,0,0,0,.753-.676.736.736,0,0,0,.032-.218V230.3C1377.231,230.424,1376.579,230.7,1376.579,231.283Z"/>
    </g>
  </g>
</svg>
