<svg xmlns="http://www.w3.org/2000/svg" width="89.004" height="64.185" viewBox="0 0 89.004 64.185">
  <g id="Group_2" data-name="Group 2" transform="translate(-2615.609 -168.254)">
    <g id="CxRJlQ">
      <g id="Group_1" data-name="Group 1">
        <path id="Path_1" data-name="Path 1" d="M2704.613,221.783a21.927,21.927,0,0,1-.752,3.129,11.144,11.144,0,0,1-9.287,7.412,11.489,11.489,0,0,1-12.721-8.4,11.364,11.364,0,0,1,.518-7.567c.031-.071.059-.144.1-.241l-7.562-5.519,3.526-3.331,6.866,5.01a11.427,11.427,0,0,1,3.524-2.185,11.561,11.561,0,0,1,14.178,4.9,11.3,11.3,0,0,1,1.529,4.633,2.168,2.168,0,0,0,.082.32Zm-11.6,3.011a3.925,3.925,0,1,0,.052-7.85,3.976,3.976,0,0,0-3.959,3.86A3.907,3.907,0,0,0,2693.01,224.794Z"/>
        <path id="Path_2" data-name="Path 2" d="M2615.609,194.018a2.484,2.484,0,0,1,1.86-1.883,2.88,2.88,0,0,1,.622-.055c6.8,0,13.6-.027,20.4.029a9.435,9.435,0,0,1,2.481.686.352.352,0,0,1,.171.25c.234,1.658.457,3.317.681,4.976a.536.536,0,0,1-.036.153c-1.049-.387-2.083-.786-3.129-1.147a3.4,3.4,0,0,0-1.073-.193c-6.333-.011-12.666-.029-19,.008a2.665,2.665,0,0,1-2.978-1.954Z"/>
        <path id="Path_3" data-name="Path 3" d="M2669,187.321q10.929,0,21.859,0a10.732,10.732,0,0,1,1.256.04c.591.071.737.389.36.846-.47.571-.993,1.1-1.508,1.632q-8,8.3-16.008,16.6a10.338,10.338,0,0,1-4.233,2.785,6.584,6.584,0,0,1-1.986.331c-6.19.026-12.381.017-18.571.018a4.05,4.05,0,0,1-3.86-3.084,21.049,21.049,0,0,1-.514-2.993q-.764-5.3-1.507-10.612c-.146-1.034-.331-2.065-.419-3.1a2.072,2.072,0,0,1,2.111-2.432c.272-.023.547-.023.821-.023Q2657.9,187.319,2669,187.321Z"/>
        <path id="Path_4" data-name="Path 4" d="M2687.82,184.124h-39.633c.347-.886.674-1.736,1.013-2.582.663-1.657,1.34-3.309,1.991-4.971a.5.5,0,0,1,.559-.382c1.015.021,2.031-.006,3.046.023.327.009.405-.186.517-.4,1.258-2.394,2.522-4.784,3.766-7.185a.592.592,0,0,1,.628-.374q2.272.027,4.546,0a.575.575,0,0,1,.6.35c.712,1.354,1.45,2.694,2.16,4.048a.609.609,0,0,0,.634.377c2.611-.015,5.223,0,7.835-.02a.774.774,0,0,1,.759.437c1.132,1.837,2.288,3.659,3.414,5.5a.774.774,0,0,0,.769.42c1.5-.014,2.993.006,4.489,0a.545.545,0,0,1,.569.323c.712,1.353,1.447,2.693,2.172,4.04C2687.713,183.837,2687.751,183.957,2687.82,184.124Z"/>
        <path id="Path_5" data-name="Path 5" d="M2667.524,212.781c-.559.687-1.08,1.332-1.606,1.973l-13.308,16.217a2.439,2.439,0,0,1-3.6.567,2.25,2.25,0,0,1-.838-1.775q-.007-8.488,0-16.977a.593.593,0,0,1,.014-.134h4.758v10.393c.831-1.011,1.584-1.924,2.333-2.84q2.956-3.607,5.917-7.213a.715.715,0,0,1,.472-.255c1.866-.018,3.732-.011,5.6-.009A1.89,1.89,0,0,1,2667.524,212.781Z"/>
      </g>
    </g>
  </g>
</svg>
