<svg xmlns="http://www.w3.org/2000/svg" width="45.124" height="85.664" viewBox="0 0 45.124 85.664">
  <g id="Group_35" data-name="Group 35" transform="translate(-186.662 -157.182)">
    <path id="Path_63" data-name="Path 63" d="M223.045,208.614a13.106,13.106,0,0,1-4.941-10.322V181.863h.665a4.021,4.021,0,0,0,0-8.042h-19.09a4.021,4.021,0,0,0,0,8.042h.665v16.429a13.109,13.109,0,0,1-4.94,10.322,22.573,22.573,0,0,0-7.446,25.378,13.425,13.425,0,0,0,12.663,8.854h17.207a13.417,13.417,0,0,0,12.663-8.854,22.579,22.579,0,0,0-7.446-25.378Zm-14.114-18.779a2.021,2.021,0,1,1-2.022,2.022A2.024,2.024,0,0,1,208.931,189.835Zm15.135,41.808a6.4,6.4,0,0,1-6.038,4.172H200.821a6.4,6.4,0,0,1-6.038-4.172,15.638,15.638,0,0,1-.889-5.2,15.375,15.375,0,0,1,2.582-8.578v-.008c.2-.225,4.38-5.045,12.949-1.685,5.856,2.3,10.028,1.434,12.162.6a15.416,15.416,0,0,1,3.368,9.666A15.638,15.638,0,0,1,224.066,231.643Z"/>
    <circle id="Ellipse_2" data-name="Ellipse 2" cx="3.881" cy="3.881" r="3.881" transform="matrix(0.189, -0.982, 0.982, 0.189, 199.335, 164.804)"/>
    <path id="Path_64" data-name="Path 64" d="M216.264,168.421a2.306,2.306,0,1,1-2.305-2.306A2.305,2.305,0,0,1,216.264,168.421Z"/>
  </g>
</svg>
