<svg xmlns="http://www.w3.org/2000/svg" width="50.712" height="85" viewBox="0 0 50.712 85">
  <path id="Path_52" data-name="Path 52" d="M1136.794,193.578a.845.845,0,0,0,.845-.846v-7.008a.853.853,0,0,0-.845-.854h-.449c-.854-6.823-8.029-12.44-17.573-14.219v-4.534h-.011A3.58,3.58,0,0,0,1121,162.8v-1.37a3.583,3.583,0,0,0-3.583-3.583h-10.267a3.583,3.583,0,0,0-3.583,3.583v1.37a3.578,3.578,0,0,0,2.277,3.329v4.514c-9.561,1.779-16.737,7.4-17.591,14.228h-.475a.861.861,0,0,0-.854.854v7.008a.853.853,0,0,0,.854.846h.387v30.938h-.387a.852.852,0,0,0-.854.845v5.071a.49.49,0,0,0,.053.273.474.474,0,0,0,.2.167c.379.2.766.4,1.145.608a.549.549,0,0,1,.2.15c0,.017.009.026.018.044a.564.564,0,0,1,.035.211,10.5,10.5,0,0,0,.493,3.671,13.36,13.36,0,0,0,1.55,2.721,18.471,18.471,0,0,0,4.965,4.569H1129c3.883-2.5,6.524-5.863,7.238-9.623h.554a.852.852,0,0,0,.845-.854v-7.008a.845.845,0,0,0-.845-.845h-.361V193.578Zm-8.109,25.638a17.021,17.021,0,0,1-1.884-.133c-.088-.017-.184-.026-.273-.044-.035,0-.07-.008-.1-.008l-.291-.053c-.026,0-.053-.009-.079-.009-.123-.026-.247-.044-.37-.07-.018-.009-.044-.009-.062-.018-.1-.018-.211-.044-.317-.062l-.1-.026c-.1-.026-.194-.053-.282-.079l-.114-.027c-.124-.035-.247-.07-.379-.114s-.246-.079-.361-.123a.466.466,0,0,1-.114-.044,2.344,2.344,0,0,1-.256-.1c-.044-.018-.079-.036-.114-.053l-.291-.132a.307.307,0,0,0-.061-.035c-.106-.053-.212-.115-.317-.177a.765.765,0,0,1-.088-.052c-.08-.053-.15-.106-.22-.159a.364.364,0,0,1-.1-.07c-.071-.053-.141-.106-.212-.168-.017-.017-.044-.035-.07-.061a2.117,2.117,0,0,1-.238-.247.256.256,0,0,1-.044-.052,2.2,2.2,0,0,1-.167-.221.548.548,0,0,1-.062-.088c-.044-.07-.088-.141-.123-.211a.461.461,0,0,1-.044-.1,2.026,2.026,0,0,1-.132-.326,13.2,13.2,0,0,1-.291-2.28c-.017-.352-.044-.722-.061-1.118-.018-.59-.035-1.224-.053-1.884s-.018-1.347-.018-2.043c0-.237,0-.466.009-.7v-.7a46.279,46.279,0,0,1,.5-7.923c.044-.106.106-.212.158-.309a.653.653,0,0,1,.062-.088c.044-.07.088-.132.132-.2a.606.606,0,0,0,.071-.088c.061-.062.114-.123.176-.185a.422.422,0,0,1,.061-.07c.08-.08.168-.15.256-.229a.091.091,0,0,0,.044-.036c.079-.052.158-.114.237-.167.036-.017.062-.044.1-.061a2.332,2.332,0,0,1,.212-.124.637.637,0,0,1,.1-.061c.079-.044.168-.088.264-.132l.053-.027c.115-.044.229-.1.335-.141.035-.008.061-.017.1-.026a2.122,2.122,0,0,1,.255-.088.683.683,0,0,1,.114-.035l.264-.08c.036-.008.062-.017.1-.026.247-.062.485-.115.722-.159.035-.008.071-.008.106-.017.088-.018.176-.027.264-.044.035,0,.07-.009.106-.009.088-.018.185-.026.273-.035.026-.009.052-.009.07-.018l.352-.026a.033.033,0,0,1,.027-.009c.1-.009.2-.009.3-.018a14.507,14.507,0,0,1,1.866-.008Z" transform="translate(-1086.927 -157.846)"/>
</svg>
