<svg xmlns="http://www.w3.org/2000/svg" width="107.419" height="62.896" viewBox="0 0 107.419 62.896">
  <g id="Group_17" data-name="Group 17" transform="translate(-1921.59 -168.898)">
    <g id="Group_16" data-name="Group 16">
      <path id="Path_24" data-name="Path 24" d="M1994.443,201.191h13.834l-48.034-6.864-6.533.249Z"/>
      <path id="Path_25" data-name="Path 25" d="M1995.443,202.093l-3.845,23.9,26.646-4.4-7.694-19.5Z"/>
      <path id="Path_26" data-name="Path 26" d="M1924.854,202.165l-3.264,11.846,33.336,17.783,3.989-23.9Z"/>
      <path id="Path_27" data-name="Path 27" d="M1973.473,207l-41.269-5.93-6.533.247,33.97,5.683Z"/>
      <path id="Path_28" data-name="Path 28" d="M1960.638,207.9l-3.846,23.9,26.646-4.4-7.691-19.5Z"/>
      <path id="Path_29" data-name="Path 29" d="M1951.9,195.026l-2,7.245,26.985,3.973,6.335,16.714,6.513,3.031,3.988-23.9Z"/>
      <path id="Path_30" data-name="Path 30" d="M2015.949,208.088l1.391-11.67,11.669-1.39-11.669-1.4-1.391-11.671-1.4,11.671-11.669,1.4,11.669,1.39Z"/>
      <path id="Path_31" data-name="Path 31" d="M1946.19,200.131l1.393-11.67,11.671-1.394-11.671-1.393-1.393-11.668-1.394,11.668-11.67,1.393,11.67,1.394Z"/>
      <path id="Path_32" data-name="Path 32" d="M1983.437,195.026l1.39-11.671,11.673-1.393-11.673-1.393-1.39-11.671-1.393,11.671-11.671,1.393,11.671,1.393Z"/>
    </g>
  </g>
</svg>
