<svg xmlns="http://www.w3.org/2000/svg" width="85.001" height="85" viewBox="0 0 85.001 85">
  <g id="Group_38" data-name="Group 38" transform="translate(-566.07 -157.846)">
    <path id="Path_111" data-name="Path 111" d="M570.716,162.492a15.9,15.9,0,0,1,22.466,0l10.79,10.79a15.885,15.885,0,0,1-22.465,22.466l-10.791-10.791A15.9,15.9,0,0,1,570.716,162.492Zm18.221,4.244a9.882,9.882,0,0,0-13.976,13.974L585.752,191.5a9.882,9.882,0,0,0,13.976-13.974Z"/>
    <path id="Path_112" data-name="Path 112" d="M613.17,204.945a15.9,15.9,0,0,1,22.465,0l10.791,10.79A15.886,15.886,0,0,1,623.961,238.2L613.17,227.41A15.906,15.906,0,0,1,613.17,204.945Zm18.221,4.246a9.882,9.882,0,1,0-13.974,13.976l10.79,10.789a9.881,9.881,0,1,0,13.975-13.974Z"/>
    <path id="Path_113" data-name="Path 113" d="M594.244,186.018a4.124,4.124,0,0,1,5.836,0L622.9,208.836a4.128,4.128,0,1,1-5.837,5.838l-22.817-22.818A4.128,4.128,0,0,1,594.244,186.018Z"/>
  </g>
</svg>
