<svg xmlns="http://www.w3.org/2000/svg" width="29.447" height="85" viewBox="0 0 29.447 85">
  <g id="Group_34" data-name="Group 34" transform="translate(-91.204 -157.846)">
    <path id="Path_62" data-name="Path 62" d="M111.334,166.62v-2.97h.027a1.055,1.055,0,0,0,1.159-.9v-4a1.055,1.055,0,0,0-1.159-.9H100.494a1.056,1.056,0,0,0-1.159.9v4a1.056,1.056,0,0,0,1.159.9h.027v2.97c-2.922-.033-9.317,12.15-9.317,17.868V233a9.877,9.877,0,0,0,9.85,9.85H110.8a9.876,9.876,0,0,0,9.85-9.85V184.488C120.651,178.77,114.257,166.587,111.334,166.62Z" fill="#231f20"/>
  </g>
</svg>
