<?xml version="1.0" ?><svg width="32px" height="32px" viewBox="0 0 32 32" id="OBJECT" xmlns="http://www.w3.org/2000/svg"><defs><style>.cls-1{fill:#b2b2b2;}</style></defs><title/><path d="M8.32,3.34a1,1,0,0,0-.88.51,7.24,7.24,0,0,0,6.24,10.81h0a1,1,0,0,0,.87-.51A7.24,7.24,0,0,0,8.32,3.34Z"/><path d="M24.56,3.85a1,1,0,0,0-.87-.51h0a7.24,7.24,0,0,0-6.24,10.81,1,1,0,0,0,.87.51h0A7.24,7.24,0,0,0,24.56,3.85Z"/><path d="M16.51,1.14a1,1,0,0,0-1,0,9.12,9.12,0,0,0,0,15.72,1,1,0,0,0,1,0,9.12,9.12,0,0,0,0-15.72Z"/><path class="cls-1" d="M26.11,13.8A6.09,6.09,0,0,0,21,11H11a6.09,6.09,0,0,0-5.14,2.8,5.67,5.67,0,0,0-.67,4.6c1,3.43,3.67,9.61,10.38,12.52a1,1,0,0,0,.8,0C23.11,28,25.78,21.83,26.78,18.4A5.67,5.67,0,0,0,26.11,13.8Z"/><path d="M10,17.69a1,1,0,0,1-1-1v-.5a1,1,0,1,1,2,0v.5A1,1,0,0,1,10,17.69Z"/><path d="M16,17.69a1,1,0,0,1-1-1v-.5a1,1,0,1,1,2,0v.5A1,1,0,0,1,16,17.69Z"/><path d="M22,17.69a1,1,0,0,1-1-1v-.5a1,1,0,1,1,2,0v.5A1,1,0,0,1,22,17.69Z"/><path d="M13,22.25a1,1,0,0,1-1-1v-.5a1,1,0,0,1,2,0v.5A1,1,0,0,1,13,22.25Z"/><path d="M19,22.25a1,1,0,0,1-1-1v-.5a1,1,0,0,1,2,0v.5A1,1,0,0,1,19,22.25Z"/><path d="M16,26.81a1,1,0,0,1-1-1v-.5a1,1,0,0,1,2,0v.5A1,1,0,0,1,16,26.81Z"/></svg>