<svg xmlns="http://www.w3.org/2000/svg" viewBox="0 0 610.4 314.87"><defs><style>.cls-1{fill:#fff;}</style></defs><g id="Layer_2" data-name="Layer 2"><g id="Layer_1-2" data-name="Layer 1"><path class="cls-1" d="M503.44,187.36c.41-.81.72-1.51,1.11-2.18,5.26-9.15,10.57-18.27,15.77-27.45a3.35,3.35,0,0,1,3.44-1.9c4.07.09,8.15,0,12.22.06a3.38,3.38,0,0,0,3.45-1.9q16.8-29.2,33.75-58.33a3,3,0,0,0,0-3.5Q556.25,63,539.44,33.82a3.25,3.25,0,0,0-3.2-1.9q-33.57.07-67.14,0a3.26,3.26,0,0,0-3.23,1.86Q449.06,63,432.11,92.12a3.2,3.2,0,0,0,.1,3.71q12.32,21.27,24.56,42.59c.56,1,1.09,1.94,1.86,3.33-1.14.08-1.95.18-2.77.18-10.46,0-20.93,0-31.4,0a3.4,3.4,0,0,1-3.44-1.89Q408.42,118,395.65,96a3.61,3.61,0,0,1-.06-4.15Q421.54,47,447.35,2.11A3.64,3.64,0,0,1,451,0q51.8.06,103.58,0a3.45,3.45,0,0,1,3.38,2Q583.73,47,609.66,91.81a3.66,3.66,0,0,1,0,4.17q-25.93,44.85-51.83,89.71a3.88,3.88,0,0,1-2.66,1.84c-16.86.11-33.72.07-50.59.06A6.5,6.5,0,0,1,503.44,187.36Z"/><path class="cls-1" d="M432.35.24c-2.51,4.41-4.75,8.36-7,12.31-3.29,5.76-6.67,11.48-9.86,17.29A3.63,3.63,0,0,1,411.69,32c-4.16-.12-8.32,0-12.47-.06a3,3,0,0,0-3,1.77q-16.77,29.23-33.66,58.4a3.2,3.2,0,0,0,.07,3.71q16.77,28.95,33.41,58a3.59,3.59,0,0,0,3.56,2.11q33.45-.09,66.91,0a3.41,3.41,0,0,0,3.4-2q16.71-29.13,33.54-58.19a3.25,3.25,0,0,0-.05-3.73q-12.53-21.57-24.93-43.22c-.46-.81-.89-1.63-1.51-2.77,1.13-.06,1.9-.14,2.66-.14,10.47,0,20.94,0,31.42,0A3.78,3.78,0,0,1,514.81,48q12.53,22,25.26,43.87a3.63,3.63,0,0,1,0,4.15q-25.83,44.65-51.51,89.37a4,4,0,0,1-4,2.31q-51.57-.09-103.12,0a4,4,0,0,1-4-2.32q-25.68-44.58-51.5-89.1a3.92,3.92,0,0,1-.09-4.55q25.9-44.59,51.63-89.3A4,4,0,0,1,381.51,0c16,.07,32,0,48,.05C430.24.05,431,.15,432.35.24Z"/><path class="cls-1" d="M184,150.36V138.19c0-3-.08-6.08.07-9.11a2.62,2.62,0,0,1,1.33-2c2.93-.73,5.93-1.19,9.26-1.81v12.3c2.87-3.19,5.35-6.19,8.1-8.92a18.35,18.35,0,0,1,13.72-5.28c3.67.06,7.36,0,11,.34,7.2.64,11.24,5.14,11.35,12.36.06,4.56.05,9.12.09,13.67a2.12,2.12,0,0,0,.24.62h13.72c.06-1,.17-2,.17-3,0-13,.07-25.91,0-38.87,0-2.24.71-3.11,2.85-3.36,2.75-.31,5.48-.88,8.54-1.39.07,1.2.17,2.12.17,3q0,26,0,52.07c0,3.14,0,3.15-3.21,3.15h-147c-.94,0-1.88-.08-3-.14-.07-.9-.18-1.67-.18-2.43,0-17,0-34.07,0-51.11,0-1.84.43-2.73,2.42-2.94,2.91-.31,5.79-.95,9-1.5.06,1.33.15,2.34.15,3.34,0,13.52,0,27,0,40.55,0,2.13.51,2.88,2.78,2.85q15.1-.18,30.2,0c2.09,0,2.79-.55,2.74-2.68-.12-5.44,0-10.88-.06-16.32,0-1.76.5-2.57,2.36-2.79,2.92-.34,5.8-1,9.05-1.56v23.13Zm12-.69.56.85c9.78,0,19.57,0,29.35-.07.47,0,1.3-1,1.33-1.64.14-2.78.12-5.58.05-8.37-.08-3-1.55-4.82-4.54-5.23a31.32,31.32,0,0,0-7.85-.25c-2.29.27-5,.73-6.6,2.16C203.91,141,200,145.45,196,149.67Z"/><path class="cls-1" d="M134,63.42l-5.9-13.79-5.79-13.58c3.84-.66,7.25-1.34,10.7-1.75.52-.06,1.43,1,1.76,1.78,3.65,8.35,7.3,16.7,10.78,25.12.78,1.88,1.8,2.54,3.75,2.41a55.64,55.64,0,0,1,6.71,0c1.8.09,2.36-.63,2.34-2.37-.07-6.16,0-12.32-.07-18.48,0-1.92.66-2.71,2.5-3,2.84-.37,5.66-.93,8.81-1.46.06,1,.15,1.85.15,2.68,0,6.72.08,13.44,0,20.16,0,1.92.6,2.5,2.46,2.43,3.19-.13,6.4-.1,9.59,0,1.66,0,2.25-.56,2.23-2.23-.06-6.16.09-12.32-.08-18.47-.06-2.2.81-2.93,2.77-3.19,2.53-.33,5-.86,7.84-1.36V51.11l1.74-2.06c1.79-2.14,3.46-4.41,5.41-6.4a19,19,0,0,1,15-6.2c3.74.18,7.52,0,11.24.38,6.9.73,10.73,5.1,10.86,12,.09,4.63.06,9.27.1,13.91,0,.14.13.28.35.76,4.05,0,8.26.07,12.46-.09.46,0,1.24-1.29,1.26-2,.12-4.31.07-8.63.07-12.95,0-9,.07-18.08-.05-27.11,0-2.14.69-3,2.73-3.23,2.76-.33,5.49-.88,8.54-1.4a26.45,26.45,0,0,1,.28,2.67c0,17.59,0,35.19.06,52.79,0,2.37-.81,2.93-3.05,2.93q-73.12-.09-146.24,0c-2.47,0-3.27-.77-3.07-3.15a48.12,48.12,0,0,0,0-6.24c-.07-1.66.58-2.24,2.24-2.21,5.59.07,11.19,0,16.78,0C132,63.57,132.71,63.49,134,63.42Zm61.89-.53c.79.47.92.61,1,.61,9.58,0,19.16,0,28.74.07,1.29,0,1.62-.65,1.61-1.8,0-2.47,0-5,0-7.43,0-4.1-1.75-6-5.84-6.36-2.07-.17-4.15,0-6.22-.1a9.73,9.73,0,0,0-7.69,2.72C203.62,54.53,199.88,58.66,195.9,62.89Z"/><path class="cls-1" d="M12.44,146.11c0,5.08,0,9.78,0,14.48a48.6,48.6,0,0,0,.41,7.15c.58,3.58,2.32,5,5.88,5,6,.06,12,.07,18,0,3.6,0,4.92-1.37,4.92-5,0-6.91.94-5.68-5.56-5.77-5-.07-5,0-5-5.11,0-6.34,0-6.34,6.38-6.34H71.51c-2.91-5.15-2.06-10.51-1.92-15.71A11,11,0,0,1,80.65,124.1c4.95-.13,9.91,0,14.86-.07,1.52,0,2.2.48,2.15,2.06-.07,2.47-.07,5,0,7.43,0,1.6-.68,2.09-2.17,2.07-3.11-.06-6.23-.05-9.35,0-3.44.06-5.06,1.75-5.11,5.23q0,2.16,0,4.32c0,3.46,1.87,5.34,5.31,5.38,4.08,0,8.15,0,12.23,0h2.85v11.25c-1,.06-2,.18-3.06.18-14.06,0-28.12.06-42.19-.05-2.44,0-3.2.69-3.08,3.12a35.73,35.73,0,0,1-.42,7.87,13.26,13.26,0,0,1-12.82,11.26c-8.22.24-16.46.21-24.68,0a12.36,12.36,0,0,1-11.33-7.65A33.36,33.36,0,0,1,1,165.79C.56,160.63,1,155.4.88,150.2c0-1.57.5-2.31,2.1-2.53C6,147.26,9.05,146.68,12.44,146.11Z"/><path class="cls-1" d="M11.48,57.3V71.8c0,7.06,3.81,11,10.85,11.1,7.27.08,14.55,0,21.82,0,1.81,0,2.3-.58,2.3-2.34,0-5.51.06-5.42-5.38-5.55a47.13,47.13,0,0,1-8.56-.84C25.7,72.79,21.59,68.28,21,61.32A57.38,57.38,0,0,1,21,49.6c.85-7.63,6.86-12.77,14.56-12.9,2.4,0,4.79,0,7.19,0,9.3,0,13.87,4.07,14.7,13.38.39,4.29.44,8.62.47,12.94.07,9.68,0,19.36.06,29,0,1.88-.57,2.46-2.46,2.45-12.39-.07-24.78,0-37.17-.06-8.94,0-18-8.83-18.26-17.79C-.07,71.54,0,66.41.11,61.3c0-.76.67-2,1.23-2.16C4.51,58.41,7.75,57.94,11.48,57.3Zm34.93.51V55.66c0-6.07-1.42-7.47-7.45-7.44-4.93,0-6.73,1.85-6.77,6.85-.06,8.09.35,8.5,8.46,8.5C46.41,63.57,46.41,63.57,46.41,57.81Z"/><path class="cls-1" d="M69.92,94.81c0-4,0-7.06,0-10.18,0-1.44.71-1.73,1.94-1.72,3.83,0,7.67.08,11.51,0a17.48,17.48,0,0,0,5.42-.71,5.38,5.38,0,0,0,3-2.75c1.22-3.18.26-4.24-3.09-4.36a63.4,63.4,0,0,1-9.77-.7C71.06,72.86,67,68.32,66.38,60.44a57.06,57.06,0,0,1,.21-11A14.26,14.26,0,0,1,80.35,36.74c3.51-.14,7-.12,10.54,0q8.76.38,11.18,8.79a24.82,24.82,0,0,1,1.13,6.59c.08,10.23.26,20.47-.17,30.68-.26,6.31-3.51,10-9.67,10.75C85.72,94.5,78,94.43,69.92,94.81ZM92,63.44v-7c0-7.27-1.33-8.54-8.56-8.23-3.37.15-5.35,2-5.61,5.32a52.52,52.52,0,0,0,0,5.75c.08,2.43,1.4,4,3.81,4.11C84.93,63.57,88.27,63.44,92,63.44Z"/><path class="cls-1" d="M62.24,259.55c2.91,0,5.53,0,8.15,0a4.13,4.13,0,0,0,2.24-.6,2.28,2.28,0,0,0,.65-1.84c0-.35-.86-.81-1.37-.88-1.82-.25-3.68-.2-5.47-.54-3.94-.75-5.86-3.43-6.16-7.43-.73-9.78,4.1-11.67,11.19-11.34,5.53.26,7.53,1.89,8.16,7.52,0,.16.06.32.08.47.66,5.69,1.15,6,6.57,5,0-4.29.1-8.48,0-12.66-.07-2.11.78-2.61,2.69-2.48,2.79.2,5.59.2,8.38.26,5.59.13,8.6,3.14,8.58,8.69,0,2-.23,4-.38,6.34A45.43,45.43,0,0,0,111,250c.52-.06,1.24-1.14,1.29-1.8a44.66,44.66,0,0,0,0-6.23c-.12-2,.41-3.22,2.72-3.15a24.19,24.19,0,0,0,3.7-.52c0,3.43,0,6.52,0,9.6,0,1.64.63,2.54,2.24,2.16a2.55,2.55,0,0,0,1.66-1.63,48.45,48.45,0,0,0,.06-6.71c-.1-1.84.37-2.89,2.45-2.87a29.35,29.35,0,0,0,3.87-.53c0,3.34,0,6.35,0,9.37,0,1.4,0,2.49,1.95,2.48s1.91-1.21,1.89-2.55c0-2,.08-4,0-6-.09-1.76.42-2.73,2.35-2.75a34.55,34.55,0,0,0,3.93-.54c0,3.27.12,6.28,0,9.28-.1,2.06.7,2.76,2.63,2.54a9.38,9.38,0,0,1,1.91,0c1.71.15,2.18-.65,2.16-2.27-.07-5.36,0-10.72,0-16.08,0-3.47,0-3.47,3.38-4,.78-.11,1.55-.24,2.62-.42a23.09,23.09,0,0,1,.25,2.4c0,7.92-.06,15.84.06,23.76,0,2.2-.79,2.66-2.8,2.66-22-.06-44,0-65.95-.11-2.57,0-3.44.68-3.63,3.23-.31,4-2.06,5.61-6.11,6-2.94.28-5.9.23-8.84.45-1.87.14-2.66-.51-2.45-2.43C62.34,262.26,62.24,261.15,62.24,259.55Zm30.2-19.27c.4,3.22-1,6,1.72,7.38,1.2.59,3.84.28,4.52-.62.91-1.19,1.3-4.43.62-4.89C97.61,241,95.19,240.93,92.44,240.28Zm-19,6.62c0-3.25-.65-4.06-3.23-4.11s-3.67,1-3.67,4,.33,3.31,3.74,3.32C73.43,250.11,73.48,250.06,73.48,246.9Z"/><path class="cls-1" d="M426.45,239.07c0,3.21.1,6.24,0,9.25-.09,1.93.46,2.75,2.52,2.64,2.79-.16,5.59-.1,8.39,0,1.47,0,2-.53,1.92-2-.08-2.32.08-4.64-.05-6.95-.11-1.72.51-2.52,2.2-2.64,1.18-.09,2.34-.31,4-.53,0,3.23.11,6.24,0,9.23-.1,2.13.51,3.09,2.8,2.88a38.05,38.05,0,0,1,5.75,0c1.72.11,2.17-.61,2.14-2.23-.07-5.44.1-10.88-.08-16.31-.08-2.46.47-3.82,3.15-3.75a17.22,17.22,0,0,0,2.64-.37c.07,1,.18,1.86.18,2.7,0,7.6-.07,15.2.06,22.79,0,2.27-.55,3-2.91,3-14.62-.11-29.24,0-43.86-.08a3.42,3.42,0,0,0-3.47,1.79c-1.66,2.72-4.59,3.29-7.54,3.42-2.63.12-5.27,0-7.9.12-1.85.11-2.75-.49-2.47-2.4.33-2.3-.59-3-2.91-3-13.66.13-27.33.08-41,.15-1.6,0-2.37-.41-2.27-2.15.2-3.74.05-7.52.5-11.23s2.73-5.41,6.4-5.51c1.6,0,3.2,0,4.79,0,4.53.13,7.46,3.1,7.53,7.59.08,5.42.08,5.42,5.62,5.42,4.76,0,4.76,0,4.76-4.88v-1.68c0-5.13.11-5.24,6-5.3,0,3.07.13,6.16,0,9.23-.12,2.18.69,2.82,2.75,2.66a54.39,54.39,0,0,1,6,0c1.36,0,1.93-.45,2.21-1.84.9-4.44,2.7-5.87,7.28-6a43.18,43.18,0,0,1,4.55.07,7.07,7.07,0,0,1,6.86,5.93c.28,1.41.81,1.86,2.18,1.83,6.76-.15,5.27.87,5.46-5.36,0-.4,0-.8,0-1.2C420.52,239.15,420.52,239.15,426.45,239.07ZM402.66,256.2c4,0,4.46-.47,4.43-3.54,0-2.92-1-3.86-3.91-3.8-2.76.06-3.12.88-3.32,4.81C399.71,256.52,401.35,256.31,402.66,256.2Zm-46.08-5.28c3.89,0,4.39-.43,4.38-3.39s-1-4-3.79-3.93-3.26.89-3.45,4.44C353.58,250.62,354.64,251.33,356.58,250.92Z"/><path class="cls-1" d="M286.28,243.19a7.32,7.32,0,0,1,.6-1.3c4.41-6,10.56-5.89,16.91-4.68,2.83.53,4.19,2.5,4.37,5.55.11,1.84-.07,3.69.13,5.51a2.23,2.23,0,0,0,1.48,1.54,48.79,48.79,0,0,0,5.63.08v-4.68c0-4.72.12-9.44,0-14.15-.09-2.3.56-3.46,2.94-3.47a25.53,25.53,0,0,0,2.81-.31c.09.86.21,1.54.21,2.22,0,7.92,0,15.83.05,23.74,0,1.87-.53,2.48-2.43,2.48q-33.43-.09-66.86,0c-2.23,0-2.66-.86-2.64-2.83.08-7.27.13-14.55,0-21.82,0-2.34.65-3.43,3-3.41a27.44,27.44,0,0,0,3.12-.35v6c0,4.88,0,9.75,0,14.63,0,1.4.4,2,1.9,2,2.93-.09,5.87,0,9.12,0,0-2.65.18-5-.05-7.39s.67-3.39,3-3.45c.87,0,1.73-.18,3-.33v11.15c2.22,0,4.12.11,6-.08.47,0,1.16-1,1.2-1.58a36.68,36.68,0,0,0,0-6.46c-.3-2.63.86-3.64,3.26-3.74.71,0,1.42-.12,2.37-.21.12,1.72.22,3.33.33,4.94Zm-.32,5.47.87,1.24c4.13,0,8.26.06,12.38,0,1,0,2.52.81,2.88-1.14.56-3,0-5.47-1.74-5.91-2.9-.74-5.87-1-8.46,1C289.88,245.4,287.93,247.05,286,248.66Z"/><path class="cls-1" d="M556.82,250.44,551,237.32a32.69,32.69,0,0,1,4.91-.75,2.65,2.65,0,0,1,1.81,1.43c1.71,3.52,3.27,7.11,4.9,10.67.71,1.53,5,2.62,6.2,1.49a2.78,2.78,0,0,0,.46-1.75c0-2.16.15-4.32,0-6.47s.52-3,2.57-3.07c1,0,2-.27,3.55-.48,0,3.2-.06,6.19,0,9.18,0,.92.43,2.58.8,2.63a27.31,27.31,0,0,0,5.64-.15c.17,0,.35-1,.36-1.51,0-2.24.13-4.49,0-6.71-.11-1.88.48-2.88,2.44-3,.94,0,1.87-.25,3.12-.42.1,1.77.2,3.39.31,5.11.26-.09.56-.1.65-.24,3.79-5.83,9.52-6.42,15.66-5.77,4.14.43,5.94,2.48,6,6.65,0,3.19-.05,6.39,0,9.59.05,1.7-.48,2.4-2.31,2.4q-30.08-.07-60.13,0c-2.47,0-2.13-1.45-2.2-3-.07-1.69,0-3,2.33-2.83C550.84,250.57,553.62,250.44,556.82,250.44Zm32.4-.63.25.63H600.9c3.57,0,3.57,0,3.49-3.51-.08-3.05-.78-3.39-3.9-3.79C594.75,242.39,592.19,246.32,589.22,249.81Z"/><path class="cls-1" d="M197.45,249.89c4,0,7.72,0,11.46,0,1.33,0,1.61-.66,1.6-1.79,0-2.64.12-5.29,0-7.92-.13-2.15.43-3.37,2.8-3.35a25.13,25.13,0,0,0,3.33-.48c0,2.37-.06,4.48,0,6.59s-.56,5.24.61,6.39,4.2.46,6.41.54c1.26,0,2.52,0,3.66,0-.13-2.5-.39-4.72-.32-6.94.11-3.6,2.32-5.77,5.92-5.93a57.55,57.55,0,0,1,7,.05,2.46,2.46,0,0,1,1.72,1.56c.55,4,.32,4.14-3.72,4.14H236.4c-2.79.06-3.32.6-3.33,3.43,0,3,.55,3.64,3.34,3.68,1.76,0,3.52.09,5.28,0s2,.6,2.05,2.11c0,3.68.1,3.68-3.13,3.69-20,0-40,0-60,.11-2.13,0-2.83-.6-2.69-2.69.22-3.19.12-6.4.37-9.58.35-4.43,2.54-6.37,6.93-6.65,9.11-.58,12.93,2,12.11,11.76A9.9,9.9,0,0,0,197.45,249.89Zm-10.76.07c4.21,0,4.64-.35,4.63-3.45s-.89-3.92-3.8-3.89c-2.75,0-3.26.82-3.41,4.25C184,249.11,184.37,250.56,186.69,250Z"/><path class="cls-1" d="M287.05,16.7c.07,1.15.15,2,.15,2.86,0,17.5,0,35,.07,52.52,0,2.51-.81,3.23-3.16,3a63.44,63.44,0,0,0-6.47,0c-1.38,0-2-.43-2-1.93,0-17.59,0-35.18.08-52.76A2.34,2.34,0,0,1,277,18.57C280.2,17.84,283.49,17.33,287.05,16.7Z"/><path class="cls-1" d="M287.21,103.66v3c0,17.43,0,34.87.06,52.3,0,2.52-.83,3.22-3.17,3-2.14-.16-4.31-.08-6.46,0-1.4,0-2-.45-2-1.94q.06-26.26,0-52.53c0-1.37.4-2,1.83-2.19C280.62,104.88,283.72,104.27,287.21,103.66Z"/><path class="cls-1" d="M494.78,247.51c0,2.58,0,4.87,0,7.16,0,2.94,1,4.54,3.85,4.84a109.42,109.42,0,0,0,12.42.26c.42,0,1.15-1.22,1.13-1.85a2.24,2.24,0,0,0-1.34-1.66c-1.87-.35-3.84-.18-5.69-.57-3.86-.81-5.82-3.38-5.91-7.34q0-1.56,0-3.12a7.2,7.2,0,0,1,6.1-7.47,12.66,12.66,0,0,1,2.13-.27c8.69-.29,10.8,1.76,10.8,10.49,0,5,0,10.07,0,15.1,0,1.73-.51,2.41-2.33,2.38-5.91-.09-11.82,0-17.73,0a9.61,9.61,0,0,1-9.55-9.65c0-1.28,0-2.56,0-3.84,0-3.48,0-3.48,3.37-4Zm14.61,2.93c1.67.28,3.11.05,3-2.72-.19-3.64-.63-4.48-3.36-4.51s-3.86,1-3.87,3.88S505.76,250.43,509.39,250.44Z"/><path class="cls-1" d="M446.21,305.59c1.41-4.73,2.91-9.44,4.19-14.21.53-2,1.47-2.85,3.51-2.56a12,12,0,0,0,2.4,0c1.41-.11,2,.48,2,1.93q0,10.91,0,21.82c0,1.39-.48,2.13-1.95,2-1-.08-2-.13-3.25-.21V301.66l-.48-.07c-1.13,3.54-2.35,7.06-3.35,10.64-.53,1.89-1.51,2.45-3.42,2.45s-2.86-.58-3.38-2.49a57.34,57.34,0,0,0-3.74-10.08c0,3.39-.13,6.79,0,10.17.13,2.35-1.2,2.31-2.85,2.36s-2.57-.37-2.53-2.39c.12-7,.1-14.07,0-21.1,0-1.79.54-2.38,2.32-2.34,5.76.15,4.43-.56,6,4.33,1.33,4.16,2.58,8.35,3.86,12.53Z"/><path class="cls-1" d="M6.22,248.54c0,1.23-.07,2.49,0,3.75.34,4.82,3.31,7.19,8.06,6.61,1.32-.17,2-.65,2-2.1-.08-2.08,0-4.16,0-6.24.09-5.41,2.35-8.28,7.64-9a53,53,0,0,1,8.36,0c1.42,0,2.11.78,2.09,2.3-.07,3.36-.06,6.72,0,10.08,0,1.49-.48,2.12-2.06,2.18-4.59.17-4.58.24-4.59-4.37a15.2,15.2,0,0,0,0-1.91c-.15-1.12.68-2.74-1.5-2.85s-3.52.84-3.65,2.89c-.15,2.63,0,5.27-.1,7.91-.16,7.43.9,6.37-7,7a25.74,25.74,0,0,1-7.37-.55C3.15,263.1.67,259.62.34,254,.05,248.89.65,248.29,6.22,248.54Z"/><path class="cls-1" d="M541.45,252.18c0,2.16.08,4.32,0,6.48-.19,4.2-2.18,6.34-6.37,6.63-2.94.2-5.91,0-8.86.15-2.21.09-1.91-1.43-1.89-2.75s-.41-2.87,1.84-2.81c2.07.05,4.15-.06,6.22-.15a3.13,3.13,0,0,0,1.83-.42,4.06,4.06,0,0,0,1.2-2.09c.05-.22-1-.92-1.68-1-1.73-.26-3.52-.15-5.23-.49-3.67-.73-5.57-2.82-6-6.51a40.26,40.26,0,0,1,0-4.79,6,6,0,0,1,.19-1.18c.94-4.12,4.06-5.83,10.51-5.76,5,.05,7.22,1.53,7.89,5.86.44,2.9.39,5.88.56,8.83Zm-9.09-1.74c3.19,0,3.19,0,3.19-2.82,0-3.51-.7-4.4-3.47-4.41s-3.6.86-3.62,3.78C528.45,250.15,528.77,250.43,532.36,250.44Z"/><path class="cls-1" d="M266.16,302.91c0,3.12-.12,6.24,0,9.35.11,2-.79,2.38-2.53,2.4s-2.88-.36-2.74-2.5,0-4.31,0-6.47c0-1.37-.42-2.05-1.92-2-8.57.2-6.74-1.34-7,6.54,0,.48,0,1,0,1.44,0,2.78-1.43,3.81-4.09,2.82a2.07,2.07,0,0,1-1-1.58c-.06-6.63-.11-13.26,0-19.89,0-2.67,1.61-4.06,4.32-4.13,3.43-.09,6.86-.08,10.3,0,3,.06,4.45,1.58,4.51,4.7S266.16,299.8,266.16,302.91Zm-9.74-4.05c.64,0,1.28,0,1.92,0,1.61.11,2.73-.07,2.69-2.23s-1.26-2.24-2.82-2.19a33.06,33.06,0,0,1-3.59,0c-1.84-.14-2.57.55-2.57,2.46s1,2.06,2.45,2C255.14,298.82,255.78,298.86,256.42,298.86Z"/><path class="cls-1" d="M66.08,301.66c0-3.59.06-7.19,0-10.78,0-1.59.57-2.09,2.1-2.06,3.83.07,7.66,0,11.49,0,3.07.05,4.64,1.49,4.69,4.54.11,5.59.09,11.18,0,16.77,0,2.68-1.28,4.15-3.88,4.28-4.29.21-8.61.17-12.91.06-.51,0-1.38-1.18-1.4-1.83C66,309,66.08,305.33,66.08,301.66Zm13.11.07c0-.48,0-1,0-1.44-.15-6.59,1.24-5.71-6.17-5.64a2.36,2.36,0,0,0-1.66,1.61c-.15,3.67-.15,7.35,0,11A2.37,2.37,0,0,0,73,308.86c7.22,0,6,1,6.16-5.69C79.2,302.69,79.19,302.21,79.19,301.73Z"/><path class="cls-1" d="M118.52,300.5c0,3.8-.07,7.61,0,11.42,0,1.84-.34,2.74-2.46,2.76s-2.7-.77-2.67-2.81c.11-6.72,0-13.44.09-20.16,0-.94.55-2.62,1-2.68,1.6-.2,3.47-.9,4.7,1.15,2.3,3.84,4.74,7.59,7.13,11.38.24.37.55.69,1.28,1.61,0-4.33,0-8,0-11.61a3,3,0,0,1,4.55-2.54,1.6,1.6,0,0,1,.6,1.17c0,8,0,16,0,23.91-3.35,1-4.06.83-5.76-1.75l-7.88-12Z"/><path class="cls-1" d="M584,302.6c0-3.73.09-7.45,0-11.17-.07-1.95.52-2.66,2.55-2.65s2.6.68,2.57,2.64c-.1,6.8,0,13.6-.09,20.39,0,.92-.51,2.44-1.11,2.62-1.37.42-2.93.51-4-1.17-2.46-3.93-5.06-7.77-7.62-11.64-.25-.39-.57-.74-1.25-1.61-.06,1.33-.13,2.15-.13,3,0,2.88,0,5.76,0,8.64s-1.33,3.81-4,2.88a1.83,1.83,0,0,1-1-1.32q-.11-11.4,0-22.8c0-.5.71-1.4,1.11-1.41,1.58,0,3.36-.76,4.52,1.16,2.2,3.62,4.49,7.19,6.75,10.77.4.63.86,1.23,1.29,1.85Z"/><path class="cls-1" d="M22.38,302.84c0-3.19-.08-6.39,0-9.58.1-3,1.49-4.33,4.51-4.4q5-.11,10.05,0c3,.07,4.47,1.44,4.52,4.42.1,6.47,0,12.93.06,19.4,0,2.15-1.38,1.92-2.75,1.93s-2.57.1-2.48-1.9c.12-2.39,0-4.79,0-7.18,0-1.31-.41-1.91-1.77-1.86-1.83.07-3.69-.12-5.5.1a2.4,2.4,0,0,0-1.6,1.64,57.33,57.33,0,0,0-.06,7.18c.09,1.87-1,2.08-2.4,2s-2.77.2-2.7-2c.11-3.27,0-6.55,0-9.82Zm14.4-4c-1.09-1.71.82-3.9-1.82-4.29a21.2,21.2,0,0,0-6.16.07c-.57.08-1.18,1.55-1.31,2.44-.07.53.74,1.67,1.21,1.7C31.13,298.94,33.58,298.84,36.78,298.84Z"/><path class="cls-1" d="M493.82,302.56c0-3.65.09-7.31,0-10.95-.07-2,.37-2.83,2.61-2.85s2.51,1.12,2.5,2.95c-.06,6.7,0,13.41-.07,20.12,0,.9-.38,2.41-.89,2.56-1.47.43-3.1.62-4.21-1.15-2.29-3.65-4.71-7.22-7.09-10.82-.44-.65-.9-1.29-1.63-2.32a19.81,19.81,0,0,0-.29,2.1c0,3.27,0,6.55,0,9.82a2.81,2.81,0,0,1-4.42,2.35,2.15,2.15,0,0,1-.66-1.6c-.05-7.35-.06-14.7,0-22,0-.62.63-1.73,1-1.75,1.65-.08,3.5-.82,4.71,1.22,2.13,3.56,4.4,7,6.61,10.55.42.66.86,1.3,1.29,1.95Z"/><path class="cls-1" d="M135.8,301.75c0-3.51,0-7,0-10.55,0-1.7.5-2.44,2.32-2.39,3.75.11,7.51,0,11.26.05,3.13.05,4.6,1.46,4.64,4.55.07,5.59.06,11.19,0,16.78,0,2.73-1.34,4.21-4.09,4.33-4.15.17-8.31.05-12.46.08-1.47,0-1.65-.9-1.65-2.06C135.81,309,135.8,305.35,135.8,301.75Zm5.13,0c0,1.83-.05,3.66,0,5.49,0,.54.43,1.5.7,1.52a44.38,44.38,0,0,0,6.42,0c.35,0,.8-1.26.84-2,.11-2.15.09-4.31,0-6.46-.15-6.67,1.34-5.71-6.34-5.67a2.36,2.36,0,0,0-1.61,1.62A45.8,45.8,0,0,0,140.93,301.76Z"/><path class="cls-1" d="M391.75,301.78c0-2.72,0-5.43,0-8.14.05-3.32,1.37-4.72,4.61-4.78,3-.06,6.06-.07,9.09,0s4.47,1.49,4.51,4.42c.08,5.66.07,11.33,0,17,0,2.66-1.27,4.07-3.9,4.21-3.42.18-6.86.19-10.28,0-2.75-.14-4-1.58-4-4.36S391.75,304.57,391.75,301.78Zm13.1-.2h0c0-.48,0-.95,0-1.43-.15-6.47,1.2-5.5-6.05-5.59-1.31,0-1.89.5-1.87,1.83,0,2.31,0,4.63,0,6.95.12,6.5-1.2,5.5,6,5.61,1.33,0,1.9-.55,1.88-1.85C404.83,305.26,404.85,303.42,404.85,301.58Z"/><path class="cls-1" d="M296.3,314.32V303c0-4,0-8,0-12,0-1.47.35-2.2,2-2.16,3.92.08,7.83,0,11.75.05,2.88.06,4.44,1.58,4.49,4.52.09,5.59.06,11.19,0,16.79,0,2-.82,3.95-3,4.06C306.56,314.48,301.56,314.32,296.3,314.32Zm5-5.39c2.28,0,4.18,0,6.08,0,1.46,0,2-.61,2-2-.05-2.23,0-4.47,0-6.71-.14-6.6,1.23-5.55-5.92-5.66-.16,0-.37-.06-.47,0-.56.48-1.54,1-1.56,1.51C301.22,300.22,301.28,304.37,301.28,308.93Z"/><path class="cls-1" d="M610.36,301.78c0,2.63.06,5.27,0,7.9-.09,3.32-1.39,4.77-4.61,4.88-3.91.13-7.82,0-11.73.05-1.27,0-1.88-.44-1.87-1.81,0-7.35,0-14.69,0-22,0-1.47.59-2,2-1.94,3.83.05,7.66,0,11.49,0,3.08.05,4.47,1.45,4.72,4.54a3.85,3.85,0,0,1,0,.48Zm-13.22,7.15c2.34,0,4.24,0,6.15,0,1.27,0,1.91-.49,1.89-1.83,0-3.58.06-7.16-.07-10.74a2.25,2.25,0,0,0-1.35-1.7,29.39,29.39,0,0,0-5.47,0,1.64,1.64,0,0,0-1.1,1.14C597.11,300.07,597.14,304.34,597.14,308.93Z"/><path class="cls-1" d="M234.51,301.53c3,4.14.68,8.59,1.84,12.91l-3.47.16c-1.32.06-1.86-.54-1.82-1.87.06-2.16-.05-4.32,0-6.48.06-1.56-.59-2.06-2.12-2.11-6-.23-6-.28-6,5.58v1.92c0,3-.11,3-3.07,3-1.74,0-2.15-.78-2.14-2.34q.08-10.55,0-21.1c0-1.71.5-2.44,2.33-2.39,3.75.11,7.5,0,11.26.05,3.15.05,4.64,1.4,4.59,4.55C235.92,296.17,237,299.23,234.51,301.53Zm-11.29-2.22c2.17,0,4.21.06,6.26,0,1.75-.06,1.54-1.44,1.59-2.64s-.2-2.22-1.75-2.18c-.8,0-1.59,0-2.39,0C222.67,294.45,222.67,294.45,223.22,299.31Z"/><path class="cls-1" d="M9,314.6c-1.92,0-3.84,0-5.75,0-2.61,0-1.69-2-1.84-3.29s.05-2.48,2-2.4c3,.12,6.08,0,9.11,0,1.7,0,2-.87,2-2.26s.08-2.66-1.86-2.63c-2.16,0-4.32,0-6.47,0-3.31-.12-4.62-1.45-4.71-4.75,0-1.91-.07-3.84,0-5.75.15-3.26,1.57-4.64,4.8-4.68,3.6,0,7.2.09,10.79,0,2.54-.09,2,1.6,2.09,3.05s0,2.86-2.18,2.73c-2.79-.15-5.59,0-8.39,0-1.72-.05-2,.88-1.92,2.26s-.05,2.62,1.91,2.55c2.16-.07,4.32,0,6.47,0,3.16,0,4.51,1.34,4.61,4.52.07,2.08.09,4.17,0,6.24-.17,2.87-1.48,4.14-4.34,4.45a5.79,5.79,0,0,1-.72,0Z"/><path class="cls-1" d="M188.64,288.85c1.83,0,3.67,0,5.5,0,2.25-.07,1.82,1.57,1.81,2.84s.5,2.91-1.76,2.88c-2.87,0-5.75.07-8.62,0-1.84-.06-2.09.93-2.07,2.4s.27,2.5,2.1,2.42c2.15-.1,4.31-.06,6.47,0,2.94.06,4.31,1.31,4.45,4.18.11,2.15.1,4.32,0,6.47-.13,2.88-1.42,4.38-4.24,4.51-4.07.18-8.15.12-12.22.06-2.6,0-1.47-2.12-1.66-3.41s.1-2.31,1.86-2.25c3,.11,5.91-.06,8.86.06,1.93.08,2.21-.88,2.24-2.49s-.45-2.53-2.29-2.44-4,.06-6,0c-3.31-.1-4.64-1.45-4.7-4.71,0-2-.06-4,0-6,.12-3,1.56-4.37,4.49-4.46C184.8,288.8,186.72,288.85,188.64,288.85Z"/><path class="cls-1" d="M548.11,300.49c0-3.2.08-6.4,0-9.59-.07-1.82.8-2.16,2.32-2.07s3-.32,2.91,2c-.07,5,.08,10.07,0,15.1-.06,2.22.51,3.14,2.92,3,6.06-.25,5.48.93,5.52-5.48,0-4.16.09-8.31,0-12.46-.06-2.16,1.13-2.21,2.73-2.23s2.49.32,2.46,2.23c-.1,6.23,0,12.46-.06,18.69,0,3.28-1.4,4.71-4.66,4.83s-6.39.13-9.58,0-4.41-1.55-4.45-4.72S548.11,303.6,548.11,300.49Z"/><path class="cls-1" d="M361.82,308.94c3.05,0,5.85.11,8.63,0,2.14-.11,2.07,1.2,2,2.62s.45,3.16-2.07,3.1c-4-.09-8-.05-12,0-1.42,0-2-.53-2-2q.06-10.9,0-21.83c0-1.41.53-2,2-2,4.08.05,8.15.06,12.23,0,2.23,0,1.81,1.54,1.83,2.83s.32,2.86-1.87,2.8c-2-.06-4,0-6,0-3.08,0-3.09,0-3,3.06,0,.47.12.93.22,1.74,2.42,0,4.8.08,7.17,0,1.87-.09,2.05.94,2.05,2.4s-.17,2.54-2,2.43c-1.43-.08-2.87,0-4.31,0-3.2,0-3.21,0-3.09,3.19C361.64,307.71,361.73,308.17,361.82,308.94Z"/><path class="cls-1" d="M44.41,300.58c0-2.88,0-5.75,0-8.63,0-1.77-.18-3.21,2.49-3.2,2.52,0,2.63,1.2,2.6,3.09-.07,4.79.06,9.59-.06,14.38,0,2.08.67,2.82,2.77,2.75,6.8-.2,5.7.94,5.78-5.87.06-4,.12-8,0-12-.07-2.09,1-2.29,2.62-2.32s2.61.42,2.58,2.39c-.09,6.23,0,12.46,0,18.69,0,3.12-1.26,4.5-4.28,4.65-3.42.16-6.87.16-10.29,0-2.73-.14-4-1.58-4.07-4.36-.09-3.19,0-6.39,0-9.58Z"/><path class="cls-1" d="M156.79,300.1c0-3.12.08-6.24,0-9.36-.06-2,1.15-1.95,2.5-1.9s2.8-.36,2.77,1.88c-.07,5.27,0,10.55,0,15.83,0,1.71.49,2.46,2.32,2.41,7.25-.17,6.14,1,6.22-6,.05-3.92.1-7.84,0-11.76-.06-1.93.66-2.5,2.51-2.44,1.67.05,2.67.23,2.62,2.33-.12,6.07,0,12.15-.06,18.23,0,3.9-1.31,5.14-5.24,5.23-2.71.07-5.43.06-8.15,0-4-.07-5.34-1.45-5.39-5.38C156.76,306.18,156.79,303.14,156.79,300.1Z"/><path class="cls-1" d="M333.17,308.93v5.48H317.4v-3.75c0-6.55,0-13.1,0-19.65,0-1.44.29-2.23,2-2.19,4,.08,8,.1,12,0,2.19-.06,1.94,1.35,1.93,2.71s.36,3-2,2.93c-1.75-.08-3.51,0-5.27,0s-3.51-.46-3.48,2.47,1.73,2.3,3.36,2.32c1.43,0,2.87.07,4.31,0,1.91-.09,1.66,1.23,1.69,2.42s.11,2.45-1.75,2.39-3.83,0-5.74,0-1.74,1.38-1.8,2.65.15,2.32,1.91,2.25C327.28,308.86,330.07,308.93,333.17,308.93Z"/><path class="cls-1" d="M477,308.94c.68,5.67.68,5.68-4.4,5.67-3.11,0-6.22,0-9.34,0-1.4,0-2-.48-2-1.95q.08-10.91,0-21.81c0-1.61.61-2.06,2.12-2,3.83.07,7.66.14,11.49,0,2.36-.1,2.25,1.25,2.29,2.88s-.18,2.95-2.4,2.8c-2.06-.14-4.15,0-6.22,0-1.81-.07-2.1.9-2.08,2.4s.12,2.55,2,2.43c1.43-.1,2.87,0,4.31,0,3.08,0,3.08,0,3,3.05,0,.46-.12.92-.24,1.76-2.24,0-4.46.09-6.66,0-2-.11-2.4.83-2.41,2.59s.51,2.44,2.33,2.35C471.46,308.84,474.16,308.94,477,308.94Z"/><path class="cls-1" d="M412.85,301.62c0-3.51.06-7,0-10.53,0-1.59.39-2.32,2.13-2.28,3.83.1,7.66,0,11.48.05,3.08,0,4.56,1.46,4.69,4.53.1,2.39.1,4.79,0,7.18-.11,2.75-1.42,4.05-4.2,4.18-2.23.1-4.47.11-6.7,0-1.69-.08-2.28.62-2.19,2.25s-.09,3.36,0,5c.14,2-.64,2.64-2.61,2.63s-2.75-.41-2.65-2.52C413,308.64,412.85,305.13,412.85,301.62Zm9.13-1.79c1.31-.53,3.95,1.29,4-2.17,0-2.91-.05-3.08-3-3.1a17,17,0,0,1-2.14,0c-2.16-.29-2.8.58-2.88,2.76C417.84,300.67,420.08,299.68,422,299.83Z"/><path class="cls-1" d="M344.92,305.92l3.3-13.17c1.09-4.33,1.46-4.55,6.29-3.57-.12.68-.18,1.38-.36,2-1.85,7-3.77,14-5.56,21.06-.45,1.79-1.32,2.65-3.15,2.32-1.53-.28-4.16-.33-4.38-1.06-2.39-8-4.4-16.11-6.59-24.51,1.15-.08,1.92-.08,2.67-.2,2.28-.34,3.41.47,3.88,2.88.93,4.77,2.22,9.46,3.36,14.19Z"/><path class="cls-1" d="M530.42,301.64c0-3.51.06-7,0-10.54,0-1.58.4-2.33,2.15-2.29,3.82.1,7.66.12,11.49,0,2.31-.07,2,1.42,2.07,2.86s.08,2.92-2.14,2.81-4.31,0-6.47,0c-2-.07-1.81,1.24-1.85,2.55s.13,2.39,1.88,2.26c1.19-.08,2.4.09,3.59,0,2-.19,2.63.55,2.65,2.55s-.84,2.5-2.71,2.48c-5.4-.06-5.4,0-5.4,5.35v1.92c0,2.9-1.44,4-4.18,2.93a2.66,2.66,0,0,1-1-2C530.37,308.83,530.42,305.24,530.42,301.64Z"/><path class="cls-1" d="M49.2,250c-2-4.4-3.78-8.44-5.77-12.9,1.94-.36,3.66-.75,5.41-1a1.67,1.67,0,0,1,1.21.88c2.7,6,5.34,12.09,8,18.14a4.07,4.07,0,0,1,0,1.05h-5c-4.23,0-8.45,0-12.68,0-1.48,0-2.28-.43-2.12-2a8.71,8.71,0,0,0,0-1.91c-.16-1.55.5-2.18,2-2.13,2.07.06,4.14,0,6.22,0C47.28,250.09,48,250,49.2,250Z"/><path class="cls-1" d="M507,304.6c0-2.47-.09-5,0-7.42.1-1.91-.47-2.92-2.53-2.62a2.12,2.12,0,0,1-.71,0c-.88-.2-2.43-.29-2.5-.67a15.56,15.56,0,0,1,0-4.47c0-.23.92-.53,1.41-.53,4.63,0,9.26,0,13.88-.05,2.27,0,1.8,1.58,1.77,2.84s.6,2.78-1.69,2.92c-4.46.26-4.45.35-4.45,4.87s-.08,8.79,0,13.18c0,1.93-1,2-2.42,2s-2.85.33-2.81-1.86c.06-2.72,0-5.43,0-8.15Z"/><path class="cls-1" d="M204.6,304.42c0-2.56-.07-5.12,0-7.67.06-1.67-.53-2.4-2.21-2.19a5.61,5.61,0,0,1-.71,0c-3,0-4.38-2.18-3.12-4.91a1.94,1.94,0,0,1,1.51-.76c4.72-.06,9.43-.09,14.14,0a2.23,2.23,0,0,1,1.49,1.52c.51,3.9.31,4.17-3.5,4.08-1.95,0-2.67.52-2.62,2.55.13,5,0,10.07.08,15.11,0,1.91-.64,2.47-2.48,2.48s-2.76-.51-2.64-2.57C204.72,309.54,204.6,307,204.6,304.42Z"/><path class="cls-1" d="M269,301.59c0-3.59.08-7.18,0-10.77-.07-2.14,1.25-2,2.66-2s2.67-.08,2.63,2c-.1,5.26,0,10.53-.06,15.79,0,1.76.49,2.45,2.3,2.32s3.83,0,5.74,0,1.84,1.19,1.69,2.38.9,3.21-1.54,3.26c-3.9.08-7.81,0-11.71,0-1.42,0-1.7-.79-1.69-2C269.05,308.93,269,305.26,269,301.59Z"/><path class="cls-1" d="M374.88,301.71c0-3.6.08-7.2,0-10.8-.06-2.06,1.1-2.07,2.59-2.09S380,289,380,291c-.11,5,.08,10.08-.09,15.12-.08,2.37.73,3.1,3,2.87,1.75-.17,3.52,0,5.28,0,1.91-.09,1.8,1.22,1.68,2.41s.83,3.19-1.61,3.23c-3.91.07-7.83,0-11.75,0-1.5,0-1.6-1-1.59-2.09C374.89,308.91,374.88,305.31,374.88,301.71Z"/><path class="cls-1" d="M163.51,227.39v4.8c0,7.11-.11,14.23.06,21.34.06,2.48-1,2.74-3,2.66-1.79-.08-3.42.28-3.35-2.58.18-7.59.12-15.19,0-22.78,0-1.93.64-2.8,2.49-3C160.82,227.79,161.91,227.6,163.51,227.39Z"/><path class="cls-1" d="M333.14,241.5c0,4,0,8,0,12,0,1.65-.58,2.22-2.24,2.23-3.92,0-3.92.1-3.92-3.8,0-7.19,0-14.38,0-21.56,0-.78.31-2.11.74-2.23a20.47,20.47,0,0,1,4.89-.52,4.27,4.27,0,0,1,.46,1.93C333.17,233.52,333.14,237.51,333.14,241.5Z"/><path class="cls-1" d="M473.78,228.23v5.62c0,6.8-.12,13.6.06,20.39.08,2.68-1.38,2.49-3.15,2.48s-3.22.23-3.16-2.47c.18-7.43.14-14.87,0-22.3,0-2.27.71-3.24,2.94-3.25A26.87,26.87,0,0,0,473.78,228.23Z"/><path class="cls-1" d="M170.71,113.15a6.85,6.85,0,0,1-6.5,7.16,7.06,7.06,0,0,1-6.93-7.07,6.8,6.8,0,0,1,6.83-6.85A6.66,6.66,0,0,1,170.71,113.15Z"/><path class="cls-1" d="M164.2,19.5a6.46,6.46,0,0,1,6.51,6.77,6.92,6.92,0,0,1-6.58,7.13,7.17,7.17,0,0,1-6.85-7.19A6.72,6.72,0,0,1,164.2,19.5Z"/><path class="cls-1" d="M54,24.13a6.65,6.65,0,1,1-13.29.24,7,7,0,0,1,6.53-7.2A6.83,6.83,0,0,1,54,24.13Z"/><path class="cls-1" d="M41.7,196.4a6.68,6.68,0,0,1-6.6,6.79,6.91,6.91,0,0,1-6.62-6.87,6.77,6.77,0,0,1,6.7-7C39,189.35,41.73,192.32,41.7,196.4Z"/><path class="cls-1" d="M19.14,189.34c3.69,0,6.45,2.89,6.53,6.81a6.69,6.69,0,0,1-6.6,7,6.9,6.9,0,0,1-6.61-6.87A6.79,6.79,0,0,1,19.14,189.34Z"/><path class="cls-1" d="M24.75,24.15c0-4,2.91-7,6.63-7s6.52,3.21,6.44,7.2a6.54,6.54,0,1,1-13.07-.22Z"/><path class="cls-1" d="M244.1,301.86c0,3.6-.08,7.2,0,10.79.07,1.94-1,2-2.43,2s-2.81.29-2.8-1.89c0-7.35,0-14.71,0-22.06,0-2.42,1.76-1.69,3.06-1.83,1.48-.15,2.19.35,2.15,2C244,294.51,244.1,298.18,244.1,301.86Z"/><path class="cls-1" d="M87.18,314.41V303c0-4.07.08-8.15,0-12.22-.05-2,1.1-1.95,2.46-1.92s2.78-.25,2.77,1.91q-.07,10.9,0,21.81c0,1.6-.67,2.18-2.16,2.05Z"/><path class="cls-1" d="M105.41,314.41c0-4,0-7.69,0-11.43,0-4.08.07-8.15,0-12.23-.06-2,1.1-1.94,2.46-1.91s2.78-.25,2.77,1.91q-.09,10.9,0,21.82c0,1.59-.67,2.17-2.16,2Z"/><path class="cls-1" d="M356.1,231.54a3.47,3.47,0,0,1-3.49,3.45,3.45,3.45,0,0,1,0-6.89A3.46,3.46,0,0,1,356.1,231.54Z"/><path class="cls-1" d="M387.87,264.49a3.47,3.47,0,0,1-3.68,3.24,3.41,3.41,0,0,1-3.3-3.37,3.53,3.53,0,0,1,3.56-3.4A3.49,3.49,0,0,1,387.87,264.49Z"/><path class="cls-1" d="M360.91,228.09a3.49,3.49,0,0,1,3.49,3.47,3.53,3.53,0,0,1-3.31,3.42,3.45,3.45,0,1,1-.18-6.89Z"/><path class="cls-1" d="M216.55,267.73a3.48,3.48,0,0,1-3.59-3.4,3.55,3.55,0,0,1,3.42-3.37,3.42,3.42,0,0,1,3.53,3.45A3.31,3.31,0,0,1,216.55,267.73Z"/><path class="cls-1" d="M21.94,272.58A3.24,3.24,0,0,1,18.72,276a3.37,3.37,0,0,1-3.7-3.18,3.53,3.53,0,0,1,3.37-3.59A3.47,3.47,0,0,1,21.94,272.58Z"/><path class="cls-1" d="M10.15,276a3.37,3.37,0,0,1-3.39-3.32,3.5,3.5,0,0,1,3.55-3.46,3.42,3.42,0,0,1,3.34,3.62A3.27,3.27,0,0,1,10.15,276Z"/><path class="cls-1" d="M269.55,235.33a3.46,3.46,0,1,1,.07-6.91,3.46,3.46,0,0,1-.07,6.91Z"/><path class="cls-1" d="M448.88,234.08a3.42,3.42,0,1,1-3.58-3.36A3.41,3.41,0,0,1,448.88,234.08Z"/><path class="cls-1" d="M440.63,234.07a3.4,3.4,0,0,1-3.29,3.42,3.39,3.39,0,1,1-.33-6.77A3.45,3.45,0,0,1,440.63,234.07Z"/><path class="cls-1" d="M512.79,235a3.38,3.38,0,1,1,.21-6.75,3.3,3.3,0,0,1,3.23,3.47A3.4,3.4,0,0,1,512.79,235Z"/><path class="cls-1" d="M379.43,264.48a3.12,3.12,0,0,1-3.34,3.25,3.35,3.35,0,0,1-3.43-3.48A3.46,3.46,0,0,1,376.1,261,3.19,3.19,0,0,1,379.43,264.48Z"/><path class="cls-1" d="M422.43,237.49a3.24,3.24,0,0,1-3.4-3.25,3.32,3.32,0,0,1,3.38-3.53,3.41,3.41,0,0,1,3.43,3.52A3.33,3.33,0,0,1,422.43,237.49Z"/><path class="cls-1" d="M572.2,236.05a3.38,3.38,0,1,1,.09-6.75,3.38,3.38,0,0,1-.09,6.75Z"/><path class="cls-1" d="M211.55,264.46a3.15,3.15,0,0,1-3.33,3.27,3.32,3.32,0,0,1-3.44-3.46,3.41,3.41,0,0,1,3.4-3.31A3.24,3.24,0,0,1,211.55,264.46Z"/><path class="cls-1" d="M191.26,227.44a3.43,3.43,0,0,1,3.49,3.48,3.18,3.18,0,0,1-3.33,3.29,3.25,3.25,0,0,1-3.5-3.14A3.49,3.49,0,0,1,191.26,227.44Z"/><path class="cls-1" d="M186.51,230.9a3.21,3.21,0,0,1-3.33,3.31,3.18,3.18,0,0,1-3.49-3.36,3.41,3.41,0,1,1,6.82.05Z"/><path class="cls-1" d="M508,231.87a3.23,3.23,0,0,1-3.49,3.13,3.44,3.44,0,0,1-3.21-3.51,3.4,3.4,0,0,1,3.71-3.22A3.18,3.18,0,0,1,508,231.87Z"/></g></g></svg>