<svg xmlns="http://www.w3.org/2000/svg" xmlns:xlink="http://www.w3.org/1999/xlink" viewBox="0 0 500.73 535.7"><defs><style>.cls-1{fill:none;}.cls-2{clip-path:url(#clip-path);}.cls-3{fill:#abe1fa;}.cls-4{clip-path:url(#clip-path-2);}.cls-5{fill:#006594;}.cls-6{fill:#ffe6ca;}.cls-7{clip-path:url(#clip-path-4);}.cls-8{fill:#3678a8;}.cls-9{fill:#000034;}.cls-10{fill:#e0861b;}.cls-11{fill:#4a8ecc;}.cls-12{fill:#8b0304;}.cls-13{fill:#ca6c18;}.cls-14{fill:#007243;}.cls-15{fill:#ed1d24;}.cls-16{fill:#ce8a14;}.cls-17{fill:#276a9b;}.cls-18{fill:#dc651e;}.cls-19{fill:#0072bc;}.cls-20{fill:#c4161c;}.cls-21{fill:#f7941e;}.cls-22{fill:#2e3092;}.cls-23{fill:#d78817;}.cls-24{fill:#030f50;}.cls-25{fill:#2d7d2f;}.cls-26{fill:#db521f;}.cls-27{fill:#faa61a;}.cls-28{fill:#9e0b0f;}.cls-29{fill:#232176;}.cls-30{fill:#d191c0;}.cls-31{fill:#985006;}.cls-32{fill:#2f631c;}.cls-33{fill:#fcc8ac;}.cls-34{clip-path:url(#clip-path-6);}.cls-35{fill:#b4ddc1;}.cls-36{clip-path:url(#clip-path-8);}.cls-37{fill:#004521;}.cls-38{clip-path:url(#clip-path-10);}.cls-39{fill:#52c6d8;}.cls-40{clip-path:url(#clip-path-11);}.cls-41{fill:url(#linear-gradient);}.cls-42{clip-path:url(#clip-path-12);}.cls-43{fill:url(#linear-gradient-2);}.cls-44{clip-path:url(#clip-path-13);}.cls-45{fill:url(#linear-gradient-3);}.cls-46{clip-path:url(#clip-path-14);}.cls-47{fill:url(#linear-gradient-4);}.cls-48{clip-path:url(#clip-path-15);}.cls-49{fill:url(#linear-gradient-5);}.cls-50{fill:#010101;}</style><clipPath id="clip-path" transform="translate(-10.67 28.82)"><rect class="cls-1" width="556.73" height="556.73"/></clipPath><clipPath id="clip-path-2" transform="translate(-10.67 28.82)"><path class="cls-1" d="M124.53,274.11c5.47,17.82,9.51,35.63,14.8,39.48,16.3,11.84,49.06.88,68.42,14.94,18.34,13.33,14.19,58.73,31,60.73,17.4,2.06,15.64-23.54,21.34-43.59,4.86-17.15,11.83-38.11,28.6-62.94-5.93-8-15.09-17.84-28.88-27.85-10.19-7.41-22.33-12.71-34.77-16.45-28.57-8.19-50.52-8.39-68.25-7.74l-1.23.11,0-.05c-18.95.95-40,8.65-45.91-3.3,2.66,8.1,9.29,28.48,14.88,46.66"/></clipPath><clipPath id="clip-path-4" transform="translate(-10.67 28.82)"><path class="cls-1" d="M315,254.85c-10.19,7.41-19,17.32-26.38,28-16.62,24.64-23.59,45.46-28.45,62.52-.09.41-.19.82-.27,1.21l-.07,0c-5,18.31-4.15,40.74-17.32,42.64,8.52,0,30,0,49,.27,18.64.3,36.83,2,42.12-1.88,16.3-11.84,16-46.38,35.35-60.45,8.88-6.45,23.28-5.57,36.57-4.68,14.18.94,27.12,1.88,30.78-6.07,7.34-15.92-17.55-22.16-34.86-33.77-14.8-9.93-32.59-23-51-46.66-9.43,3.19-21.63,8.85-35.42,18.86"/></clipPath><clipPath id="clip-path-6" transform="translate(-10.67 28.82)"><path class="cls-1" d="M182.67,79.63c-15.26,10.71-30.95,20.06-33,26.28-6.22,19.17,14.33,46.93,6.94,69.69-7,21.56-51.48,31.64-48.17,48.29,3.42,17.18,27.22,7.6,48.06,6.82,17.81-.68,39.89-.53,68.69,7.76,5.76-8.12,12.3-19.88,17.57-36.08,3.89-12,5.18-25.16,4.89-38.16-1-29.7-7.62-50.64-13.73-67.3l-.48-1.13,0,0c-6.76-17.73-20.59-35.41-11-44.68-6.89,5-24.22,17.63-39.78,28.56"/></clipPath><clipPath id="clip-path-8" transform="translate(-10.67 28.82)"><path class="cls-1" d="M385.23,128.75c-14,11-32,23.87-60.15,34.1.12,10,1.73,23.3,7,39.51,3.89,12,10.59,23.4,18.47,33.74,18.29,23.42,35.94,36.49,50.66,46.37l1.06.64s0,0,0,.06c15.89,10.38,37.46,16.54,35.2,29.66,2.61-8.12,9.22-28.5,15.39-46.49,6.05-17.64,13.24-34.42,11.22-40.64-6.22-19.16-39.17-29.55-46.56-52.3-7-21.57,23-55.86,10.58-67.38a11.49,11.49,0,0,0-7.94-3.44c-10.57,0-21.87,15.89-34.94,26.17"/></clipPath><clipPath id="clip-path-10" transform="translate(-10.67 28.82)"><path class="cls-1" d="M225.47,48.83c-15.29,8.56,1.18,28.24,8.36,47.81,6.14,16.73,12.83,37.79,13.85,67.74,9.5,3,22.7,5.55,39.74,5.55,12.6,0,25.53-2.84,37.79-7.13C353.15,152.64,371,139.89,385,128.94l.92-.81.07,0c14.78-11.91,27.3-30.53,39.08-24.32-6.91-5-24.25-17.57-39.45-29C370.69,63.62,357,51.59,350.41,51.59c-20.14,0-40.21,28.13-64.13,28.13-20.51,0-41.55-32-56.33-32a8.93,8.93,0,0,0-4.48,1.15"/></clipPath><clipPath id="clip-path-11" transform="translate(-10.67 28.82)"><path class="cls-1" d="M225.47,48.83c-4.53,2.54-6.27,6.05-6.29,10.26v.11c0,10,9.61,23.73,14.65,37.44,6.14,16.73,12.83,37.79,13.85,67.74,9.5,3,22.7,5.55,39.74,5.55,12.6,0,25.53-2.84,37.79-7.13C353.15,152.64,371,139.89,385,128.94l.92-.81.07,0c14.77-11.91,27.3-30.53,39.08-24.32-6.91-5-24.25-17.57-39.45-29C370.69,63.62,357,51.59,350.41,51.59c-20.14,0-40.21,28.13-64.13,28.13-20.51,0-41.55-32-56.33-32a8.93,8.93,0,0,0-4.48,1.15"/></clipPath><linearGradient id="linear-gradient" x1="-141.32" y1="565.26" x2="-138.58" y2="565.26" gradientTransform="translate(43141.66 10698.54) rotate(90) scale(75.75)" gradientUnits="userSpaceOnUse"><stop offset="0" stop-color="#332f41"/><stop offset="0.39" stop-color="#332f41" stop-opacity="0"/><stop offset="0.44" stop-color="#605d6b" stop-opacity="0.02"/><stop offset="0.52" stop-color="#dfdfe1" stop-opacity="0.08"/><stop offset="0.53" stop-color="#fff" stop-opacity="0.1"/><stop offset="1" stop-color="#fff" stop-opacity="0"/></linearGradient><clipPath id="clip-path-12" transform="translate(-10.67 28.82)"><path class="cls-1" d="M182.67,79.63c-15.26,10.71-30.95,20.06-33,26.28-6.22,19.17,14.33,46.93,6.94,69.69-7,21.56-51.48,31.64-48.16,48.28,3.41,17.19,27.21,7.61,48.05,6.83,17.81-.68,39.89-.53,68.69,7.76,5.76-8.12,12.3-19.88,17.57-36.08,3.89-12,5.18-25.16,4.89-38.16-1-29.7-7.62-50.64-13.73-67.3l-.48-1.13,0,0c-6.76-17.73-20.59-35.41-11-44.68-6.89,5-24.22,17.63-39.78,28.56"/></clipPath><linearGradient id="linear-gradient-2" x1="-140.65" y1="565.25" x2="-137.91" y2="565.25" gradientTransform="translate(10724.8 -42672.23) scale(75.75)" gradientUnits="userSpaceOnUse"><stop offset="0" stop-color="#551c12"/><stop offset="0.39" stop-color="#551c12" stop-opacity="0.1"/><stop offset="0.45" stop-color="#794d45" stop-opacity="0.1"/><stop offset="0.52" stop-color="#e2d9d7" stop-opacity="0.1"/><stop offset="0.53" stop-color="#fff" stop-opacity="0.1"/><stop offset="1" stop-color="#fff" stop-opacity="0"/></linearGradient><clipPath id="clip-path-13" transform="translate(-10.67 28.82)"><path class="cls-1" d="M109.65,227.45c2.66,8.11,9.29,28.48,14.87,46.66,5.47,17.82,9.52,35.63,14.81,39.48,16.3,11.84,49.06.88,68.42,14.94,18.34,13.33,14.19,58.73,31,60.73a16.61,16.61,0,0,0,1.83.11h.15c15.3-.07,13.89-24.44,19.35-43.7,4.87-17.15,11.84-38.11,28.61-62.94-5.93-8-15.09-17.84-28.88-27.86-10.19-7.4-22.33-12.7-34.77-16.44-28.57-8.19-50.52-8.39-68.25-7.74l-1.23.11,0-.05C136.61,231.7,115.54,239.4,109.65,227.45Z"/></clipPath><linearGradient id="linear-gradient-3" x1="-140.56" y1="565.99" x2="-137.82" y2="565.99" gradientTransform="translate(-42675.32 -10246.76) rotate(-90) scale(75.75)" gradientUnits="userSpaceOnUse"><stop offset="0" stop-color="#123f4e"/><stop offset="0.39" stop-color="#123f4e" stop-opacity="0.1"/><stop offset="0.45" stop-color="#50717c" stop-opacity="0.1"/><stop offset="0.53" stop-color="#fdfdfd" stop-opacity="0.1"/><stop offset="0.53" stop-color="#fff" stop-opacity="0.1"/><stop offset="1" stop-color="#fff" stop-opacity="0"/></linearGradient><clipPath id="clip-path-14" transform="translate(-10.67 28.82)"><path class="cls-1" d="M315,254.85c-10.19,7.41-19,17.31-26.38,28-16.62,24.64-23.59,45.46-28.45,62.52-.09.41-.19.82-.27,1.21l-.07,0c-5,18.31-4.15,40.74-17.32,42.64,8.52,0,30,0,49,.27,8.73.15,17.35.58,24.6.62h1.66c7.45,0,13.24-.59,15.86-2.5,16.3-11.84,16-46.38,35.35-60.45,8.88-6.45,23.28-5.57,36.57-4.68,14.18.94,27.11,1.88,30.78-6.07a13.16,13.16,0,0,0,1.32-5.37v-.2c-.11-12-21-18.05-36.18-28.2-14.8-9.93-32.59-23-51-46.66-9.43,3.19-21.63,8.85-35.42,18.86"/></clipPath><linearGradient id="linear-gradient-4" x1="-141.18" y1="566.42" x2="-138.44" y2="566.42" gradientTransform="translate(-10258.11 43220.44) rotate(-180) scale(75.75)" gradientUnits="userSpaceOnUse"><stop offset="0" stop-color="#4c3d38"/><stop offset="0.39" stop-color="#4c3d38" stop-opacity="0.1"/><stop offset="0.46" stop-color="#867c78" stop-opacity="0.1"/><stop offset="0.53" stop-color="#fff" stop-opacity="0.1"/><stop offset="1" stop-color="#fff" stop-opacity="0"/></linearGradient><clipPath id="clip-path-15" transform="translate(-10.67 28.82)"><path class="cls-1" d="M385.23,128.75c-14,11-32,23.87-60.15,34.1.12,10,1.73,23.3,7,39.51,3.89,12,10.59,23.4,18.47,33.74,18.29,23.42,35.94,36.49,50.66,46.37l1.06.64s0,0,0,.06c15.89,10.38,37.46,16.54,35.2,29.66,2.61-8.12,9.22-28.5,15.39-46.49,6.05-17.64,13.24-34.42,11.22-40.64-6.22-19.16-39.17-29.55-46.56-52.3-7-21.57,23-55.86,10.58-67.38a11.44,11.44,0,0,0-7.94-3.44c-10.57,0-21.88,15.89-34.94,26.17"/></clipPath><linearGradient id="linear-gradient-5" x1="-141.64" y1="565.91" x2="-138.91" y2="565.91" gradientTransform="translate(-10227 43076.56) rotate(180) scale(75.75)" gradientUnits="userSpaceOnUse"><stop offset="0" stop-color="#304239"/><stop offset="0.13" stop-color="#304239" stop-opacity="0.73"/><stop offset="0.38" stop-color="#304239" stop-opacity="0.02"/><stop offset="0.39" stop-color="#304239" stop-opacity="0"/><stop offset="0.45" stop-color="#606e67" stop-opacity="0.02"/><stop offset="0.52" stop-color="#e9ebea" stop-opacity="0.09"/><stop offset="0.53" stop-color="#fff" stop-opacity="0.1"/><stop offset="1" stop-color="#fff" stop-opacity="0.1"/></linearGradient></defs><g id="Layer_2" data-name="Layer 2"><g id="Layer_1-2" data-name="Layer 1"><g class="cls-2"><path class="cls-3" d="M156.83,230.69l-1.23.11,0-.05c-18.95.95-40,8.65-45.91-3.3,2.66,8.1,9.29,28.48,14.87,46.66,5.47,17.82,9.52,35.63,14.81,39.48,16.3,11.84,49.06.88,68.42,14.94,18.34,13.33,14.19,58.74,31,60.73,17.4,2.06,15.65-23.53,21.34-43.6,4.86-17.14,11.83-38.1,28.6-62.93-5.93-8-15.09-17.84-28.88-27.86-10.19-7.4-22.32-12.7-34.77-16.44-28.57-8.2-50.52-8.39-68.25-7.74" transform="translate(-10.67 28.82)"/></g><g class="cls-4"><polygon class="cls-5" points="145.64 307 145.64 325.11 150.03 329.5 152.11 329.5 152.11 302.62 150.03 302.62 145.64 307"/><rect class="cls-5" x="152.93" y="415.42" width="12.46" height="26.88"/><polygon class="cls-5" points="145.64 335.2 145.64 353.31 150.03 357.7 152.11 357.7 152.11 330.82 150.03 330.82 145.64 335.2"/><polygon class="cls-5" points="138.05 387.22 138.05 414.11 139.96 414.11 144.35 409.72 144.35 391.61 139.96 387.22 138.05 387.22"/><polygon class="cls-5" points="145.64 250.6 145.64 268.71 150.03 273.1 152.11 273.1 152.11 246.21 150.03 246.21 145.64 250.6"/><rect class="cls-5" x="152.93" y="330.82" width="12.46" height="26.88"/><rect class="cls-5" x="152.93" y="387.22" width="12.46" height="26.88"/><rect class="cls-5" x="152.93" y="302.62" width="12.46" height="26.88"/><rect class="cls-5" x="152.93" y="359.02" width="12.46" height="26.88"/><polygon class="cls-5" points="138.05 359.02 138.05 385.9 139.96 385.9 144.35 381.52 144.35 363.41 139.96 359.02 138.05 359.02"/><polygon class="cls-5" points="145.64 363.41 145.64 381.52 150.03 385.9 152.11 385.9 152.11 359.02 150.03 359.02 145.64 363.41"/><polygon class="cls-5" points="138.05 302.62 138.05 329.5 139.96 329.5 144.35 325.12 144.35 307.01 139.96 302.62 138.05 302.62"/><rect class="cls-5" x="152.93" y="274.41" width="12.46" height="26.88"/><polygon class="cls-5" points="138.05 274.42 138.05 301.3 139.96 301.3 144.35 296.91 144.35 278.81 139.96 274.42 138.05 274.42"/><polygon class="cls-5" points="138.05 330.82 138.05 357.7 139.96 357.7 144.35 353.32 144.35 335.21 139.96 330.82 138.05 330.82"/><polygon class="cls-5" points="138.05 246.22 138.05 273.1 139.96 273.1 144.35 268.71 144.35 250.6 139.96 246.22 138.05 246.22"/><polygon class="cls-5" points="145.64 391.61 145.64 409.72 150.03 414.11 152.11 414.11 152.11 387.22 150.03 387.22 145.64 391.61"/><polygon class="cls-5" points="145.64 419.81 145.64 437.92 150.03 442.31 152.11 442.31 152.11 415.42 150.03 415.42 145.64 419.81"/><polygon class="cls-5" points="145.64 278.8 145.64 296.91 150.03 301.3 152.11 301.3 152.11 274.42 150.03 274.42 145.64 278.8"/><polygon class="cls-5" points="173.82 278.8 173.82 296.91 178.21 301.3 180.28 301.3 180.28 274.42 178.21 274.42 173.82 278.8"/><polygon class="cls-5" points="173.82 250.6 173.82 268.71 178.21 273.1 180.28 273.1 180.28 246.21 178.21 246.21 173.82 250.6"/><polygon class="cls-5" points="173.82 335.2 173.82 353.31 178.21 357.7 180.28 357.7 180.28 330.82 178.21 330.82 173.82 335.2"/><polygon class="cls-5" points="173.82 363.41 173.82 381.52 178.21 385.9 180.28 385.9 180.28 359.02 178.21 359.02 173.82 363.41"/><rect class="cls-5" x="181.11" y="387.22" width="12.46" height="26.88"/><rect class="cls-5" x="181.11" y="415.42" width="12.46" height="26.88"/><rect class="cls-5" x="181.11" y="359.02" width="12.46" height="26.88"/><polygon class="cls-5" points="173.82 391.61 173.82 409.72 178.21 414.11 180.28 414.11 180.28 387.22 178.21 387.22 173.82 391.61"/><polygon class="cls-5" points="166.22 246.22 166.22 273.1 168.14 273.1 172.52 268.71 172.52 250.6 168.14 246.22 166.22 246.22"/><polygon class="cls-5" points="166.22 359.02 166.22 385.9 168.14 385.9 172.52 381.52 172.52 363.41 168.14 359.02 166.22 359.02"/><polygon class="cls-5" points="166.22 387.22 166.22 414.11 168.14 414.11 172.52 409.72 172.52 391.61 168.14 387.22 166.22 387.22"/><polygon class="cls-5" points="166.22 415.42 166.22 442.31 168.14 442.31 172.52 437.92 172.52 419.81 168.14 415.42 166.22 415.42"/><polygon class="cls-5" points="166.22 330.82 166.22 357.7 168.14 357.7 172.52 353.32 172.52 335.21 168.14 330.82 166.22 330.82"/><polygon class="cls-5" points="173.82 419.81 173.82 437.92 178.21 442.31 180.28 442.31 180.28 415.42 178.21 415.42 173.82 419.81"/><polygon class="cls-5" points="166.22 302.62 166.22 329.5 168.14 329.5 172.52 325.12 172.52 307.01 168.14 302.62 166.22 302.62"/><rect class="cls-5" x="152.93" y="246.22" width="12.46" height="26.88"/><polygon class="cls-5" points="166.22 274.42 166.22 301.3 168.14 301.3 172.52 296.91 172.52 278.81 168.14 274.42 166.22 274.42"/><rect class="cls-5" x="181.11" y="330.82" width="12.46" height="26.88"/><rect class="cls-5" x="96.58" y="302.62" width="12.46" height="26.88"/><rect class="cls-5" x="96.58" y="330.82" width="12.46" height="26.88"/><polygon class="cls-5" points="138.05 415.42 138.05 442.31 139.96 442.31 144.35 437.92 144.35 419.81 139.96 415.42 138.05 415.42"/><rect class="cls-5" x="96.58" y="359.02" width="12.46" height="26.88"/><rect class="cls-5" x="96.58" y="246.22" width="12.46" height="26.88"/><polygon class="cls-5" points="109.88 387.22 109.88 414.11 111.78 414.11 116.17 409.72 116.17 391.61 111.78 387.22 109.88 387.22"/><polygon class="cls-5" points="109.88 359.02 109.88 385.9 111.78 385.9 116.17 381.52 116.17 363.41 111.78 359.02 109.88 359.02"/><polygon class="cls-5" points="109.88 415.42 109.88 442.31 111.78 442.31 116.17 437.92 116.17 419.81 111.78 415.42 109.88 415.42"/><rect class="cls-5" x="96.58" y="387.22" width="12.46" height="26.88"/><rect class="cls-5" x="96.58" y="415.42" width="12.46" height="26.88"/><polygon class="cls-5" points="109.88 330.82 109.88 357.7 111.78 357.7 116.17 353.32 116.17 335.21 111.78 330.82 109.88 330.82"/><rect class="cls-5" x="96.58" y="274.41" width="12.46" height="26.88"/><rect class="cls-5" x="124.76" y="330.82" width="12.46" height="26.88"/><rect class="cls-5" x="124.76" y="359.02" width="12.46" height="26.88"/><rect class="cls-5" x="124.76" y="387.22" width="12.46" height="26.88"/><rect class="cls-5" x="124.76" y="415.42" width="12.46" height="26.88"/><rect class="cls-5" x="124.76" y="246.22" width="12.46" height="26.88"/><polygon class="cls-5" points="117.46 250.6 117.46 268.71 121.85 273.1 123.93 273.1 123.93 246.21 121.85 246.21 117.46 250.6"/><polygon class="cls-5" points="109.88 302.62 109.88 329.5 111.78 329.5 116.17 325.12 116.17 307.01 111.78 302.62 109.88 302.62"/><rect class="cls-5" x="124.76" y="302.62" width="12.46" height="26.88"/><rect class="cls-5" x="124.76" y="274.41" width="12.46" height="26.88"/><polygon class="cls-5" points="109.88 246.22 109.88 273.1 111.78 273.1 116.17 268.71 116.17 250.6 111.78 246.22 109.88 246.22"/><polygon class="cls-5" points="117.46 391.61 117.46 409.72 121.85 414.11 123.93 414.11 123.93 387.22 121.85 387.22 117.46 391.61"/><polygon class="cls-5" points="117.46 419.81 117.46 437.92 121.85 442.31 123.93 442.31 123.93 415.42 121.85 415.42 117.46 419.81"/><polygon class="cls-5" points="117.46 278.8 117.46 296.91 121.85 301.3 123.93 301.3 123.93 274.42 121.85 274.42 117.46 278.8"/><polygon class="cls-5" points="109.88 274.42 109.88 301.3 111.78 301.3 116.17 296.91 116.17 278.81 111.78 274.42 109.88 274.42"/><polygon class="cls-5" points="117.46 307 117.46 325.11 121.85 329.5 123.93 329.5 123.93 302.62 121.85 302.62 117.46 307"/><polygon class="cls-5" points="117.46 363.41 117.46 381.52 121.85 385.9 123.93 385.9 123.93 359.02 121.85 359.02 117.46 363.41"/><polygon class="cls-5" points="117.46 335.2 117.46 353.31 121.85 357.7 123.93 357.7 123.93 330.82 121.85 330.82 117.46 335.2"/><polygon class="cls-5" points="173.82 307 173.82 325.11 178.21 329.5 180.28 329.5 180.28 302.62 178.21 302.62 173.82 307"/><polygon class="cls-5" points="250.75 330.82 250.75 357.7 252.67 357.7 257.05 353.32 257.05 335.21 252.67 330.82 250.75 330.82"/><polygon class="cls-5" points="250.75 302.62 250.75 329.5 252.67 329.5 257.05 325.12 257.05 307.01 252.67 302.62 250.75 302.62"/><polygon class="cls-5" points="250.75 387.22 250.75 414.11 252.67 414.11 257.05 409.72 257.05 391.61 252.67 387.22 250.75 387.22"/><polygon class="cls-5" points="250.75 274.42 250.75 301.3 252.67 301.3 257.05 296.91 257.05 278.81 252.67 274.42 250.75 274.42"/><polygon class="cls-5" points="258.35 335.2 258.35 353.31 262.74 357.7 264.81 357.7 264.81 330.82 262.74 330.82 258.35 335.2"/><polygon class="cls-5" points="258.35 363.41 258.35 381.52 262.74 385.9 264.81 385.9 264.81 359.02 262.74 359.02 258.35 363.41"/><polygon class="cls-5" points="250.75 246.22 250.75 273.1 252.67 273.1 257.05 268.71 257.05 250.6 252.67 246.22 250.75 246.22"/><polygon class="cls-5" points="258.35 391.61 258.35 409.72 262.74 414.11 264.81 414.11 264.81 387.22 262.74 387.22 258.35 391.61"/><polygon class="cls-5" points="258.35 419.81 258.35 437.92 262.74 442.31 264.81 442.31 264.81 415.42 262.74 415.42 258.35 419.81"/><polygon class="cls-5" points="250.75 359.02 250.75 385.9 252.67 385.9 257.05 381.52 257.05 363.41 252.67 359.02 250.75 359.02"/><rect class="cls-5" x="237.47" y="330.82" width="12.46" height="26.88"/><polygon class="cls-5" points="250.75 415.42 250.75 442.31 252.67 442.31 257.05 437.92 257.05 419.81 252.67 415.42 250.75 415.42"/><rect class="cls-5" x="237.47" y="387.22" width="12.46" height="26.88"/><rect class="cls-5" x="237.47" y="415.42" width="12.46" height="26.88"/><rect class="cls-5" x="237.47" y="359.02" width="12.46" height="26.88"/><rect class="cls-5" x="237.47" y="302.62" width="12.46" height="26.88"/><polygon class="cls-5" points="230.17 250.6 230.17 268.71 234.56 273.1 236.64 273.1 236.64 246.21 234.56 246.21 230.17 250.6"/><rect class="cls-5" x="237.47" y="274.41" width="12.46" height="26.88"/><rect class="cls-5" x="237.47" y="246.22" width="12.46" height="26.88"/><polygon class="cls-5" points="278.93 359.02 278.93 385.9 280.84 385.9 285.23 381.52 285.23 363.41 280.84 359.02 278.93 359.02"/><polygon class="cls-5" points="278.93 387.22 278.93 414.11 280.84 414.11 285.23 409.72 285.23 391.61 280.84 387.22 278.93 387.22"/><polygon class="cls-5" points="278.93 330.82 278.93 357.7 280.84 357.7 285.23 353.32 285.23 335.21 280.84 330.82 278.93 330.82"/><rect class="cls-5" x="265.64" y="246.22" width="12.46" height="26.88"/><polygon class="cls-5" points="278.93 415.42 278.93 442.31 280.84 442.31 285.23 437.92 285.23 419.81 280.84 415.42 278.93 415.42"/><polygon class="cls-5" points="280.85 246.22 278.93 246.22 278.93 273.1 280.85 273.1 285.23 268.71 285.23 250.6 280.85 246.22"/><polygon class="cls-5" points="278.93 302.62 278.93 329.5 280.84 329.5 285.23 325.12 285.23 307.01 280.84 302.62 278.93 302.62"/><polygon class="cls-5" points="278.93 274.42 278.93 301.3 280.84 301.3 285.23 296.91 285.23 278.81 280.84 274.42 278.93 274.42"/><rect class="cls-5" x="265.64" y="387.22" width="12.46" height="26.88"/><polygon class="cls-5" points="258.35 307 258.35 325.11 262.74 329.5 264.81 329.5 264.81 302.62 262.74 302.62 258.35 307"/><rect class="cls-5" x="265.64" y="274.41" width="12.46" height="26.88"/><polygon class="cls-5" points="258.35 250.6 258.35 268.71 262.74 273.1 264.81 273.1 264.81 246.21 262.74 246.21 258.35 250.6"/><polygon class="cls-5" points="258.35 278.8 258.35 296.91 262.74 301.3 264.81 301.3 264.81 274.42 262.74 274.42 258.35 278.8"/><rect class="cls-5" x="265.64" y="415.42" width="12.46" height="26.88"/><rect class="cls-5" x="265.64" y="359.02" width="12.46" height="26.88"/><rect class="cls-5" x="265.64" y="302.62" width="12.46" height="26.88"/><rect class="cls-5" x="265.64" y="330.82" width="12.46" height="26.88"/><polygon class="cls-5" points="230.17 391.61 230.17 409.72 234.56 414.11 236.64 414.11 236.64 387.22 234.56 387.22 230.17 391.61"/><polygon class="cls-5" points="202 391.61 202 409.72 206.38 414.11 208.46 414.11 208.46 387.22 206.38 387.22 202 391.61"/><polygon class="cls-5" points="202 335.2 202 353.31 206.38 357.7 208.46 357.7 208.46 330.82 206.38 330.82 202 335.2"/><rect class="cls-5" x="209.29" y="387.22" width="12.46" height="26.88"/><polygon class="cls-5" points="202 419.81 202 437.92 206.38 442.31 208.46 442.31 208.46 415.42 206.38 415.42 202 419.81"/><polygon class="cls-5" points="202 278.8 202 296.91 206.38 301.3 208.46 301.3 208.46 274.42 206.38 274.42 202 278.8"/><polygon class="cls-5" points="202 250.6 202 268.71 206.38 273.1 208.46 273.1 208.46 246.21 206.38 246.21 202 250.6"/><rect class="cls-5" x="209.29" y="415.42" width="12.46" height="26.88"/><polygon class="cls-5" points="202 307 202 325.11 206.38 329.5 208.46 329.5 208.46 302.62 206.38 302.62 202 307"/><polygon class="cls-5" points="194.4 246.22 194.4 273.1 196.31 273.1 200.7 268.71 200.7 250.6 196.31 246.22 194.4 246.22"/><polygon class="cls-5" points="202 363.41 202 381.52 206.38 385.9 208.46 385.9 208.46 359.02 206.38 359.02 202 363.41"/><polygon class="cls-5" points="194.4 415.42 194.4 442.31 196.31 442.31 200.7 437.92 200.7 419.81 196.31 415.42 194.4 415.42"/><rect class="cls-5" x="181.11" y="246.22" width="12.46" height="26.88"/><polygon class="cls-5" points="194.4 274.42 194.4 301.3 196.31 301.3 200.7 296.91 200.7 278.81 196.31 274.42 194.4 274.42"/><polygon class="cls-5" points="194.4 387.22 194.4 414.11 196.31 414.11 200.7 409.72 200.7 391.61 196.31 387.22 194.4 387.22"/><rect class="cls-5" x="181.11" y="274.41" width="12.46" height="26.88"/><polygon class="cls-5" points="194.4 302.62 194.4 329.5 196.31 329.5 200.7 325.12 200.7 307.01 196.31 302.62 194.4 302.62"/><polygon class="cls-5" points="194.4 359.02 194.4 385.9 196.31 385.9 200.7 381.52 200.7 363.41 196.31 359.02 194.4 359.02"/><polygon class="cls-5" points="194.4 330.82 194.4 357.7 196.31 357.7 200.7 353.32 200.7 335.21 196.31 330.82 194.4 330.82"/><rect class="cls-5" x="209.29" y="302.62" width="12.46" height="26.88"/><polygon class="cls-5" points="230.17 419.81 230.17 437.92 234.56 442.31 236.64 442.31 236.64 415.42 234.56 415.42 230.17 419.81"/><rect class="cls-5" x="209.29" y="359.02" width="12.46" height="26.88"/><polygon class="cls-5" points="222.58 274.42 222.58 301.3 224.49 301.3 228.88 296.91 228.88 278.81 224.49 274.42 222.58 274.42"/><rect class="cls-5" x="181.11" y="302.62" width="12.46" height="26.88"/><polygon class="cls-5" points="230.17 335.2 230.17 353.31 234.56 357.7 236.64 357.7 236.64 330.82 234.56 330.82 230.17 335.2"/><polygon class="cls-5" points="230.17 307 230.17 325.11 234.56 329.5 236.64 329.5 236.64 302.62 234.56 302.62 230.17 307"/><polygon class="cls-5" points="222.58 302.62 222.58 329.5 224.49 329.5 228.88 325.12 228.88 307.01 224.49 302.62 222.58 302.62"/><polygon class="cls-5" points="230.17 363.41 230.17 381.52 234.56 385.9 236.64 385.9 236.64 359.02 234.56 359.02 230.17 363.41"/><polygon class="cls-5" points="222.58 246.22 222.58 273.1 224.49 273.1 228.88 268.71 228.88 250.6 224.49 246.22 222.58 246.22"/><polygon class="cls-5" points="230.17 278.8 230.17 296.91 234.56 301.3 236.64 301.3 236.64 274.42 234.56 274.42 230.17 278.8"/><rect class="cls-5" x="209.29" y="274.41" width="12.46" height="26.88"/><rect class="cls-5" x="209.29" y="246.22" width="12.46" height="26.88"/><rect class="cls-5" x="209.29" y="330.82" width="12.46" height="26.88"/><polygon class="cls-5" points="222.58 330.82 222.58 357.7 224.49 357.7 228.88 353.32 228.88 335.21 224.49 330.82 222.58 330.82"/><polygon class="cls-5" points="222.58 359.02 222.58 385.9 224.49 385.9 228.88 381.52 228.88 363.41 224.49 359.02 222.58 359.02"/><polygon class="cls-5" points="222.58 415.42 222.58 442.31 224.49 442.31 228.88 437.92 228.88 419.81 224.49 415.42 222.58 415.42"/><polygon class="cls-5" points="222.58 387.22 222.58 414.11 224.49 414.11 228.88 409.72 228.88 391.61 224.49 387.22 222.58 387.22"/></g><g class="cls-2"><path class="cls-6" d="M260.21,345.36c-.09.41-.19.82-.27,1.2l-.06,0c-5,18.31-4.15,40.74-17.33,42.64,8.53,0,30,0,49,.27,18.65.3,36.84,2,42.13-1.88,16.3-11.84,16-46.39,35.36-60.45,18.34-13.33,60.24,4.65,67.34-10.76,7.34-15.91-17.55-22.15-34.86-33.76-14.8-9.92-32.59-23-51-46.66-9.43,3.18-21.63,8.85-35.42,18.86-10.19,7.41-19,17.31-26.38,28-16.62,24.63-23.6,45.45-28.45,62.51" transform="translate(-10.67 28.82)"/></g><g class="cls-7"><path class="cls-8" d="M305.32,367.39c.61-2.85,6-27.95,5.93-31.39,0-4.16-5.19-10.94-5.83-11.53a1.24,1.24,0,0,0-1.76.08,1.28,1.28,0,0,0,.08,1.79c.81.79,4.87,6.68,5,9.58V336c0,2.38-3.49,19.69-5.87,30.78-.32,1.1-4.09,14-5.18,23.81h2.51c1.15-9.75,5-23,5.08-23.13Z" transform="translate(-10.67 28.82)"/><path class="cls-9" d="M311.71,361.21c1.89-8.2,4.48-19.41,4.18-24.07-.38-6-1.13-12.56-5.25-14.74-3.39-1.79-10.58-1.56-14.44-1.45l-1.13,0c-3,.06-13.05,4-16.61,7.19-.59.54-1.39,1.21-2.31,2-4.46,3.81-11.19,9.57-13.6,14.71a33.06,33.06,0,0,1-4.18,6.56c-.34,1.66-.65,3.28-.94,4.88A40.12,40.12,0,0,0,264.81,346c2.17-4.64,8.92-10.41,12.95-13.86.94-.79,1.74-1.49,2.36-2.05,3.21-2.91,12.75-6.5,15-6.54l1.15,0c3.12-.09,10.41-.32,13.22,1.17,3.21,1.7,3.68,9.1,3.91,12.66v.12c.22,4.37-2.39,15.69-4.12,23.21-.48,2.1-.9,3.91-1.2,5.32-1.07,5.06-2.52,16.19-3.37,24.67h2.51c.84-8.36,2.25-19.2,3.3-24.15.3-1.38.72-3.19,1.19-5.28" transform="translate(-10.67 28.82)"/><path class="cls-10" d="M271,331.4c7.05-4.28,15.29-9.59,15.38-9.64a1.28,1.28,0,0,0,.38-1.75,1.25,1.25,0,0,0-1.73-.39c-.07.05-8.29,5.35-15.31,9.61-2.64,1.6-5.45,4.78-8.07,8.27-.64,2.34-1.21,4.64-1.75,6.91,3.34-5.09,7.5-10.83,11.1-13" transform="translate(-10.67 28.82)"/><path class="cls-5" d="M284.52,318.88c6.84-1.16,18.68-1.35,18.8-1.35s10.93.16,12.35,6.12c1.72,7.22,2.78,19.73,2,23.48-.86,4.09-7,25.46-7.05,25.67a1.28,1.28,0,0,0,.85,1.57,1.26,1.26,0,0,0,1.55-.86c.25-.88,6.21-21.67,7.09-25.85.93-4.43-.34-17.62-2-24.6-1.88-7.88-14.26-8.05-14.79-8.06s-12.18.19-19.21,1.39c-5.4.92-14.24,6.09-18.55,8.76-.49,1.37-1,2.74-1.41,4.09l.41-.46c1.4-.91,13.64-8.82,20-9.9" transform="translate(-10.67 28.82)"/><path class="cls-11" d="M324.73,344.34c0-1.21-.06-2.53-.08-3.92-.15-8.95-.33-20.1-4.53-24.48-4.66-4.88-11.59-7.25-19.51-6.7a144.61,144.61,0,0,0-22.45,4.09,75.28,75.28,0,0,0-9.78,4.65c-.52,1.24-1,2.46-1.5,3.69,4.56-2.55,10.08-5.36,12-5.91a142.05,142.05,0,0,1,21.94-4c7.28-.52,13.35,1.54,17.55,5.93,3.51,3.66,3.69,14.7,3.82,22.76,0,1.4.05,2.73.08,4,.2,6.54-2.61,17.17-8.34,31.61a74.94,74.94,0,0,0-4.19,14.61h2.54a74,74,0,0,1,4-13.68c5.86-14.75,8.73-25.72,8.53-32.62" transform="translate(-10.67 28.82)"/><path class="cls-12" d="M326.42,365c.88-5.81,1.8-11.82,2.89-15.39,2.37-7.68-.49-25.47-1.42-30.74-1.47-8.34-7.53-11.46-12-13.07s-18.51-.13-23.53.42c-4,.44-14,3-21.12,5.34-.5,1-1,2.09-1.46,3.13,7-2.37,18.73-5.51,22.85-6,7.25-.79,19-1.8,22.42-.55,4.16,1.52,9.11,4.16,10.35,11.13,1.86,10.57,3.24,23.88,1.5,29.55-1.16,3.74-2.09,9.85-3,15.75a122.15,122.15,0,0,1-2.17,12.05c-.77,2.69-2.26,8.37-3.73,14h2.58c1.42-5.4,2.81-10.75,3.54-13.31A120.13,120.13,0,0,0,326.42,365" transform="translate(-10.67 28.82)"/><path class="cls-13" d="M321,373.69a1.28,1.28,0,0,0-.87-1.56,1.24,1.24,0,0,0-1.53.88s-.92,3.31-2,6.05c-.57,1.46-2,7-3,11.59h2.56c1-4.22,2.19-9.19,2.76-10.66,1.12-2.87,2-6.16,2.08-6.3" transform="translate(-10.67 28.82)"/><path class="cls-14" d="M333.52,356.62l0-.16c.09-1,2.1-25.7.71-31.59s-4.08-17.22-8.75-20.44c-4.26-2.94-15.39-7.07-20.24-7.29-3.07-.14-9.87,1.19-14.84,1.94-2.32.36-4.32.66-5,.69-1,.05-4.57.46-8.66,1-.49.9-1,1.81-1.46,2.72,4.75-.59,9.24-1.11,10.24-1.16.79,0,2.65-.32,5.23-.72,4.59-.69,11.53-2,14.35-1.91,4,.18,14.77,4,19,6.86,3.87,2.66,6.52,13.84,7.72,18.93,1,4.39,0,22-.76,30.7-.3,1.38-4.23,19.51-5,23.13-.41,1.89-1.64,6.6-3,11.37h2.58c1.3-4.7,2.45-9.17,2.81-10.83.82-3.75,5-23.21,5-23.21" transform="translate(-10.67 28.82)"/><path class="cls-5" d="M286.7,305.85c2.78-.64,9.61-1.36,13.28-1.75l1.42-.15a57.89,57.89,0,0,1,7.9.11,1.27,1.27,0,0,0,.19-2.53,60.92,60.92,0,0,0-8.35-.09l-1.42.15c-3.72.39-10.64,1.12-13.57,1.79-1.83.42-7.14,1.27-11.85,2-.48.92-.94,1.85-1.4,2.78l1.75-.28c5-.8,10.14-1.62,12.05-2.06" transform="translate(-10.67 28.82)"/><path class="cls-5" d="M317.35,297.91a1.26,1.26,0,0,0,.52-2.47c-1.59-.35-15.76-2.46-18.87-2a171,171,0,0,1-18.67,1.14l-1.52,2.56c8.28-.14,17.72-.82,20.53-1.2,2-.27,12.17.75,18,2" transform="translate(-10.67 28.82)"/><path class="cls-15" d="M298.09,291.79c5.5-.1,17.26,1.49,20.94,3.13s8,7.61,10.89,12c3.1,4.61,5.78,14.41,6.12,16.4.24,1.45.14,11.46,0,17.83a1.25,1.25,0,1,0,2.49.05c0-1.65.3-16.15-.06-18.3-.4-2.39-3.21-12.49-6.51-17.41s-7.77-11-12-12.88c-4-1.79-16.19-3.45-22-3.33-1.94,0-5.58.05-9.43.07l-5.08,0c-.54.85-1.08,1.69-1.6,2.54l6.69,0c3.86,0,7.51,0,9.47-.08" transform="translate(-10.67 28.82)"/><path class="cls-15" d="M347.63,368.15c.24-.94,5.74-23.18,6-34.21.22-10.4-6.08-24.39-12.28-31.89s-14.7-16.74-20.1-18.34c-5-1.47-21.46-5.56-29.83-5.63-.47.61-.94,1.23-1.39,1.84l-.5.71,1.09,0c7.75-.23,24.89,4,29.93,5.52,3.69,1.1,10.58,7.49,18.89,17.54,5.78,7,11.9,20.54,11.7,30.21-.22,10.75-5.67,32.72-5.9,33.65l-.07.29c-.69,2.77-1.9,7.65-2.94,13.07a66.62,66.62,0,0,0,4.33-8.24c.4-1.67.76-3.11,1-4.21Z" transform="translate(-10.67 28.82)"/><path class="cls-9" d="M356.4,322c-2.6-8.89-9.36-19.43-10.12-20.6-2.19-3.36-11-14.37-18.07-19.29-6.38-4.48-20.2-7.49-29.34-9.49l-1.85-.41-.85-.16-1.84,2.24c.71.11,1.43.24,2.16.4l1.86.4c8.4,1.84,22.48,4.91,28.44,9.09,6.43,4.51,15.11,15.09,17.4,18.61,2.69,4.14,7.79,13,9.82,19.93,2.16,7.35,1.52,18.84,1.18,25,0,.41-.06.92-.11,1.46.82-2.16,1.76-4.4,2.86-6.65.24-6.38.2-14.61-1.54-20.53" transform="translate(-10.67 28.82)"/><path class="cls-16" d="M343.66,272.57c-7.4-5.27-16.7-11.62-22.94-13.88-2.18-.79-5.54-1.88-9-3-.74.66-1.45,1.32-2.15,2,3.9,1.22,7.84,2.49,10.29,3.37,5.95,2.16,15.07,8.39,22.34,13.57,6.39,4.55,17.1,19.21,19.47,24.81s5.57,26.39,5.18,29.55c0,.25,0,.56-.05.87a31.89,31.89,0,0,1,2.54-2.23c-.25-6.2-3.11-23.81-5.38-29.19-2.52-6-13.52-21-20.32-25.88" transform="translate(-10.67 28.82)"/><path class="cls-15" d="M352,278.89a1.24,1.24,0,0,0,1.77,0,1.28,1.28,0,0,0,0-1.79,93.11,93.11,0,0,0-11.91-10.21c-5.49-3.84-19.57-12.15-26-14.72-.26.22-.52.42-.78.63-.49.41-.95.84-1.44,1.25,4.8,1.43,20.44,10.47,26.82,14.93A91.82,91.82,0,0,1,352,278.89" transform="translate(-10.67 28.82)"/><path class="cls-17" d="M355.81,273.55c-5.5-7.79-19.28-17.87-26.7-21.87-2.09-1.12-4.88-2.37-7.86-3.62-.79.57-1.58,1.15-2.36,1.75,3.44,1.42,6.72,2.85,9.05,4.11,7.37,4,20.76,13.91,25.84,21.1s13.18,28,14.79,34c.64,2.38,2.22,9.08,3.5,16.76.75-.46,1.51-.88,2.31-1.28-1.27-7.44-2.77-13.82-3.4-16.14-1.69-6.25-9.87-27.27-15.17-34.77" transform="translate(-10.67 28.82)"/><path class="cls-13" d="M368.87,292.36c-1.63-3.66-3.18-7.11-4-9.33l-.34-1c-2-5.7-5.39-15.25-12.8-20.14s-17.14-11.55-17.24-11.62a1.24,1.24,0,0,0-1.73.34,1.28,1.28,0,0,0,.34,1.76c.1.06,9.86,6.75,17.27,11.64,6.71,4.43,9.9,13.48,11.81,18.88l.34,1c.83,2.32,2.4,5.81,4.05,9.51a139.45,139.45,0,0,1,5.67,13.83c1,3.42,2.7,11.94,3.89,18.21.76-.33,1.55-.64,2.37-.91-1.18-6.21-2.86-14.56-3.87-18a137.53,137.53,0,0,0-5.79-14.15" transform="translate(-10.67 28.82)"/><path class="cls-9" d="M371.91,277.45a56.49,56.49,0,0,1-4.38-5.47c-3-4-6.8-9.07-10.66-12.62-6.69-6.15-17.76-12.12-25.22-13.6a34.24,34.24,0,0,1-4.86-1.43q-1.32.84-2.64,1.71a45.85,45.85,0,0,0,7,2.21c7,1.37,17.73,7.2,24,13,3.69,3.39,7.39,8.32,10.36,12.28a55,55,0,0,0,4.65,5.78c2.59,2.46,13,20.27,14.52,30.18a110.64,110.64,0,0,1,.83,13.49q1.21-.1,2.49-.12a113.42,113.42,0,0,0-.85-13.76c-1.64-10.58-12.47-29-15.28-31.63" transform="translate(-10.67 28.82)"/><path class="cls-18" d="M376.87,273.76c-.58-1.05-1.14-2.05-1.65-3-4.13-7.58-9.93-14.21-18.81-21.48-7.12-5.83-12.76-9.57-17.47-11.59-1,.49-2.08,1-3.11,1.52,4.83,1.56,10.9,5.39,19,12,8.62,7.07,14.23,13.46,18.2,20.74.51.95,1.07,1.95,1.65,3,4.42,8,10.46,18.92,13.24,29.88a109.67,109.67,0,0,1,2.47,17.9l2.5.08a112.55,112.55,0,0,0-2.56-18.61c-2.85-11.27-9-22.38-13.47-30.49" transform="translate(-10.67 28.82)"/><path class="cls-15" d="M353.46,253.82c2.18,2,12.91,14.13,14.37,16.47a1.24,1.24,0,0,0,1.72.39,1.26,1.26,0,0,0,.38-1.74c-1.56-2.52-12.5-14.93-14.82-17s-14.24-7.76-20.06-9.18a25.25,25.25,0,0,1-3.51-1.22c-.91.51-1.82,1-2.72,1.58a37,37,0,0,0,5.65,2.1c5.66,1.38,17,6.86,19,8.62" transform="translate(-10.67 28.82)"/><path class="cls-19" d="M378.68,265.25c-.66-.59-1.32-1.16-2-1.76a195.59,195.59,0,0,1-18.26-19,98.36,98.36,0,0,0-14.67-8.47l-.62-.31c-1,.44-2,.89-2.94,1.34.86.45,1.7.88,2.51,1.26,14.4,6.81,24.9,15.34,32.11,26.05,9.57,14.24,14.1,25.31,17.3,42.29a149.87,149.87,0,0,1,2,15.93l2.52.12a151.61,151.61,0,0,0-2-16.53c-3-16.05-7.42-27.79-15.91-41" transform="translate(-10.67 28.82)"/><path class="cls-20" d="M355.42,240.75c-1.29-1.65-2.54-3.33-3.78-5l-3.5-2c-1,.38-2,.77-3,1.18,2.78,1.63,6,3.45,9.45,5.42l.8.45" transform="translate(-10.67 28.82)"/><path class="cls-15" d="M387.15,272q-2.43-1.85-4.85-3.86c.24.44.77,1.77,1,2.21,6.18,11.16,9.91,24.83,11.23,30.18,1.13,4.63,2.94,14.68,4.39,22.26l2.57.15c-1.48-7.74-3.36-18.21-4.54-23s-4.66-17.35-9.82-27.92" transform="translate(-10.67 28.82)"/><path class="cls-21" d="M395.76,278.11c-1.19-.79-2.38-1.61-3.58-2.44a75.69,75.69,0,0,1,4,14.43c1.89,10.9,4.23,24,6.1,32.92l2.59.16c-1.9-8.88-4.3-22.35-6.24-33.51a75.92,75.92,0,0,0-2.88-11.56" transform="translate(-10.67 28.82)"/><path class="cls-22" d="M401.49,281.89c-1-.63-2.05-1.27-3.09-1.94,2,6.53,5.88,29.45,7.23,38.44.16,1.07.47,3.44.69,4.82l2.55.14c-.25-1.51-.58-4.05-.77-5.34-1.06-7.05-4.4-27-6.61-36.12" transform="translate(-10.67 28.82)"/><path class="cls-23" d="M414.57,296.93c-.08-1.13-.44-4.11-.87-7.38l-2.71-1.5c.51,3.71,1,7.44,1.09,9.07s1.24,9.56,2.53,18.71c.3,2.18.84,6.07,1.14,8.28.85,0,1.69,0,2.52,0-.32-2.33-.87-6.33-1.2-8.62-1.22-8.74-2.38-17-2.5-18.55" transform="translate(-10.67 28.82)"/><path class="cls-24" d="M420.85,310a64.51,64.51,0,0,0-.61-17l-2.8-1.49a62.88,62.88,0,0,1,.93,18.17,77.57,77.57,0,0,0,.39,14.19c.85,0,1.69-.05,2.51-.09a75.55,75.55,0,0,1-.42-13.8" transform="translate(-10.67 28.82)"/><path class="cls-25" d="M426.23,296.25l-2.43-1.31c0,.28,0,.58,0,.85a266.89,266.89,0,0,0-.5,27.95c.84-.07,1.68-.16,2.48-.27a253.71,253.71,0,0,1,.48-27.22" transform="translate(-10.67 28.82)"/><path class="cls-26" d="M432.86,300.14l-.17-.12c-.4-.27-.81-.54-1.26-.81s-.67-.4-1-.59c1,6.1,1.66,14.88,2,22.68a14.07,14.07,0,0,0,2.44-1.29c-.33-6.58-.93-14.14-1.69-19.62l-.34-.25" transform="translate(-10.67 28.82)"/><path class="cls-9" d="M438.15,311.43c-.18-2.23-.36-4.47-.57-6.66a11.71,11.71,0,0,0-1.79-2.27h0l-.91-.82h0l-.15-.11c.38,3.2.66,6.66.93,10.07.16,2.05.33,4.15.52,6.17a9.14,9.14,0,0,0,2.23-3.2c-.09-1.06-.18-2.12-.26-3.17" transform="translate(-10.67 28.82)"/><path class="cls-15" d="M299.8,333.71c-3.26-3.74-6.32-2.1-9-.64l-.65.35c-2.57,1.35-10.2,9.05-17.32,16.41l-1,1a25,25,0,0,0-6.11,12c-.42,2.05-1.5,5.38-2.45,8.32a50.18,50.18,0,0,0-1.71,5.8c-.22,1.54-4.35,10.81-6,13.63h2.87c2-3.87,5.39-11.5,5.65-13.26.11-.75.86-3.1,1.6-5.38,1-3,2.08-6.41,2.53-8.6a22.76,22.76,0,0,1,5.44-10.71l1-1c3.49-3.62,14.13-14.6,16.69-15.95l.66-.36c2.87-1.54,4.11-2.07,6,.09,1.71,2,0,8.29-2.4,13.33a80.75,80.75,0,0,1-8.72,14,72.83,72.83,0,0,0-9.94,17.75c-1,3-.63,6.93-.07,10.09h2.54c-.55-2.95-1-6.63-.11-9.27a70.63,70.63,0,0,1,9.52-17,84.09,84.09,0,0,0,9-14.55c1.68-3.59,5.25-12.37,2-16.09" transform="translate(-10.67 28.82)"/><path class="cls-27" d="M306.34,335.87c-.15-2.94-.5-6-3-8.27s-5.23-4.12-9.69-1.42c-2.12,1.29-6.47,4.76-10.67,8.12-3.06,2.44-5.94,4.75-7.27,5.63-.51.35-12.68,8.53-14.15,15.22-1.13,5.18-3.27,15.44-3.36,16.33-1.19,7.2-7.91,18-8.93,19.07h3.18c2.7-3.76,7.06-12.42,8.21-18.66l0-.1c0-.1,2.19-10.93,3.32-16.09.92-4.2,8.51-10.6,13.09-13.66,1.41-.94,4.2-3.17,7.44-5.75,3.94-3.15,8.42-6.73,10.41-7.94,2.81-1.7,4.29-1.06,6.75,1.14,1.65,1.48,2,3.42,2.18,6.5.12,2.3-1.42,13.14-2,17.24-.45,1.53-6.81,23.15-9.65,31.84a31.09,31.09,0,0,0-1.22,5.55h2.53a27.92,27.92,0,0,1,1-4.75c3-9,9.63-31.78,9.7-32l0-.17c.09-.6,2.22-14.79,2.08-17.82" transform="translate(-10.67 28.82)"/><path class="cls-28" d="M273.89,384.07c.19-.77.38-1.64.58-2.58.66-3.09,1.5-6.95,2.92-9.58,4.89-9,5.51-9.82,7.6-12.47.68-.87,1.51-1.93,2.69-3.53l.69-.93a48.36,48.36,0,0,0,5.89-10c1.12-2.35,2.07-4.92.56-6.16-.46-.38-1.86-1.54-6.44,2.05a98.19,98.19,0,0,0-8,8c-1.92,2.2-2.07,2.52-4.5,7.64l-.7,1.47a1.28,1.28,0,0,0,.58,1.71,1.24,1.24,0,0,0,1.68-.59l.72-1.48c2.38-5,2.42-5.12,4.11-7.07a98.05,98.05,0,0,1,7.63-7.65A11.73,11.73,0,0,1,293,341a10.91,10.91,0,0,1-1.06,2.87,46.07,46.07,0,0,1-5.61,9.59l-.71.94c-1.16,1.56-2,2.61-2.65,3.47-2.13,2.71-2.84,3.62-7.83,12.82-1.6,3-2.48,7-3.18,10.28-.19.9-.38,1.75-.56,2.51a30,30,0,0,0-.57,7.12h2.54a28,28,0,0,1,.48-6.52" transform="translate(-10.67 28.82)"/><path class="cls-29" d="M267.12,388.27l.39-1c1.35-3.54,3.05-7.95,3.56-11.59l.22-1.56c.45-3.2.84-6,1.24-9.68a1.26,1.26,0,1,0-2.51-.28c-.4,3.67-.78,6.42-1.23,9.6l-.22,1.56c-.47,3.35-2.1,7.6-3.42,11l-.39,1c-.41,1.06-.78,2.18-1.1,3.22h2.65c.25-.76.52-1.55.81-2.3" transform="translate(-10.67 28.82)"/><path class="cls-9" d="M347,323.61a18.85,18.85,0,0,1-.47-2.24,29,29,0,0,0-3.5-9.65c-1.54-2.66-8.2-8.85-8.95-9.55l-.09-.05a64.88,64.88,0,0,0-4.6-7c-5.07-6.42-13.85-8.78-17.08-8.87-1.31,0-6-.42-11.06-.84s-10.69-.89-14.34-1.12c-.56.81-1.1,1.63-1.64,2.44,3.42.18,10.14.74,15.77,1.2,5.27.44,9.82.81,11.2.85,3.19.09,10.93,2.51,15.2,7.92,4.69,5.95,10.93,18.63,11.18,20.81l.09.81c2,17.35,1.77,21.87,1.46,23-.43,1.53-2.06,8.47-4,16.49-2.46,10.42-5.53,23.39-6.22,25.68-.32,1-.9,3.66-1.59,7.12h.9a8.73,8.73,0,0,0,1.69-.17c.61-3,1.11-5.32,1.38-6.2.72-2.37,3.66-14.84,6.26-25.85,1.82-7.66,3.53-14.9,3.94-16.39.66-2.4.21-10.26-1.38-24l-.09-.8c-.14-1.24-1.36-4.17-3.05-7.59a23.68,23.68,0,0,1,2.81,3.36A26.41,26.41,0,0,1,344,321.7a17.82,17.82,0,0,0,.53,2.55,27,27,0,0,1,.86,7.67,84,84,0,0,1-3.27,23.47c-2.58,8.88-3.09,10.93-3.11,11a1.27,1.27,0,0,0,.92,1.55,1.06,1.06,0,0,0,.31,0,1.26,1.26,0,0,0,1.22-1s.53-2.12,3.08-10.9a86.64,86.64,0,0,0,3.37-24.2,28.8,28.8,0,0,0-.94-8.31" transform="translate(-10.67 28.82)"/><path class="cls-12" d="M338.76,385.53c.3-6.1,1.16-11.95,1.17-12a1.27,1.27,0,0,0-1.06-1.45,1.25,1.25,0,0,0-1.44,1.07A130.54,130.54,0,0,0,336.14,388a21,21,0,0,0,2.62-2.49" transform="translate(-10.67 28.82)"/><path class="cls-5" d="M357.72,309.59c-2.71-6.12-11.28-19.16-14-21.79l-.54-.53c-2.88-2.79-9.64-9.33-18.51-13.06-9.29-3.89-21.89-5.77-22.42-5.85a1.25,1.25,0,0,0-1.43,1.08,1.28,1.28,0,0,0,1.06,1.46c.13,0,12.82,1.91,21.82,5.68,8.44,3.54,15,9.85,17.74,12.55l.55.53c2.27,2.17,10.79,14.94,13.46,21,2.25,5.08,4,19.28,4.82,26.1.05.47.1.9.16,1.31.66-1.1,1.38-2.17,2.14-3.22-.94-7.72-2.57-20.16-4.82-25.23" transform="translate(-10.67 28.82)"/><path class="cls-28" d="M383.11,323.54c-.08-6.52-1.68-17.91-3.41-22.76-1.35-3.78-4.93-9.3-7.79-13.73a59.47,59.47,0,0,1-3.4-5.57,1.25,1.25,0,0,0-1.65-.69,1.28,1.28,0,0,0-.68,1.67,54.32,54.32,0,0,0,3.61,6c2.65,4.1,6.28,9.71,7.53,13.2,1.7,4.74,3.27,16.26,3.28,22.39l.14,0c.77-.19,1.56-.34,2.37-.46" transform="translate(-10.67 28.82)"/><path class="cls-30" d="M411.29,308.11c-.66-4.63-.88-6.2-1.76-10.17-.93-4.23-2.14-9.24-2.91-12.37-1-.58-2-1.19-3-1.8.51,2,2.24,9.08,3.49,14.73.85,3.88,1.07,5.41,1.72,10,.41,2.88,1.22,8.46,2.26,15.23l2.57.09c-1.08-7-1.92-12.75-2.33-15.69" transform="translate(-10.67 28.82)"/><path class="cls-31" d="M363.55,314.29c-1.74-10-9.52-26.18-17.92-33.3-7.94-6.74-26.9-18.87-34.38-20.53-1-.22-2.23-.54-3.6-.93-.7.68-1.37,1.37-2,2.06,2,.56,3.73,1,5.11,1.34,2.27.51,6,2.23,10.22,4.55-1.32-.18-2.68-.33-3.92-.41-2.46-.17-8.23-2.55-12.51-4.36-.63.65-1.25,1.32-1.86,2,5,2.12,11.14,4.72,14.2,4.93,3.84.27,9,1.2,10.24,1.43A147.51,147.51,0,0,1,344,282.92c8,6.78,15.4,22.2,17.06,31.8,1.19,6.89,2.19,13.8,2.06,19.27.77-1,1.6-2,2.47-2.9a133.49,133.49,0,0,0-2.07-16.8" transform="translate(-10.67 28.82)"/><path class="cls-32" d="M427.92,323l.21,0c.79-.17,1.53-.37,2.25-.59,0-.66-.06-2.75-.07-3.24,0-4.11-.54-14.74-.56-15.19a1.25,1.25,0,0,0-1.31-1.2,1.24,1.24,0,0,0-1.18,1.32c0,.11.53,11,.56,15.1,0,.65.05,2.93.1,3.84" transform="translate(-10.67 28.82)"/><path class="cls-13" d="M286.14,390.61a57.18,57.18,0,0,1,2-13.14A25.19,25.19,0,0,1,292,371a36.46,36.46,0,0,0,2.39-3.58c.74-1.38,4.44-11.21,4.86-12.33a1.28,1.28,0,0,0-.73-1.65,1.26,1.26,0,0,0-1.63.74c-1.62,4.32-4.22,11.08-4.72,12a31.85,31.85,0,0,1-2.2,3.29,27.59,27.59,0,0,0-4.21,7.22,61.31,61.31,0,0,0-2.13,13.91h2.52" transform="translate(-10.67 28.82)"/></g><g class="cls-2"><path class="cls-33" d="M233.94,96.94c-.16-.39-.33-.78-.49-1.13a.21.21,0,0,0,0-.06c-6.76-17.73-20.59-35.4-11-44.68-6.89,5-24.22,17.63-39.78,28.56-15.26,10.71-30.95,20.06-33,26.28-6.23,19.16,14.32,46.93,6.93,69.69-7,21.56-51.48,31.64-48.17,48.28,3.42,17.19,27.22,7.61,48.05,6.83,17.82-.67,39.9-.53,68.7,7.76,5.76-8.12,12.3-19.87,17.57-36.08,3.89-12,5.18-25.17,4.89-38.16-1-29.69-7.63-50.64-13.73-67.29" transform="translate(-10.67 28.82)"/></g><g class="cls-34"><path class="cls-15" d="M212.45,121.55c-.13-.22-.26-.44-.4-.65a15.82,15.82,0,0,0,3.67.43,15.22,15.22,0,0,0,14.66-19c.22.15.46.28.69.42l.3.18.68.38,1.11.59.24.12.52.25c.05.57.08,1.13.09,1.71a18.41,18.41,0,0,1-18.27,18.48c-.58,0-1.15,0-1.71-.08l-.28-.54-.09-.19q-.3-.57-.63-1.14c-.11-.21-.23-.41-.35-.61s-.15-.26-.23-.38m-29.89,40.27h-.21a22,22,0,0,1-22-21.8v-.21h0a32.62,32.62,0,0,1-3.14,1A25.12,25.12,0,0,0,181.64,165c.26-1.08.57-2.13.92-3.16M187.39,172a28.68,28.68,0,0,1,27-27.34c-.1-.69-.17-1.37-.23-2.07,0-.36-.07-.72-.09-1.08a31.85,31.85,0,0,0-29.86,30.21c.41,0,.81,0,1.21.08.65,0,1.3.12,1.94.2m-3.09-14.38.11-.22c.19-.38.39-.75.6-1.12s.24-.44.37-.66.13-.21.19-.33l.41-.68h0A15.21,15.21,0,0,1,167,140a14.81,14.81,0,0,1,.43-3.67h0l-.64.4-.4.25-.6.35-1.16.62-.17.09-.55.28c-.05.56-.08,1.13-.08,1.7a18.4,18.4,0,0,0,18.48,18.28c.58,0,1.15,0,1.71-.09.08-.18.17-.35.26-.53M215.76,128h-.21c.37,1,.69,2.08,1,3.14a25.1,25.1,0,0,0,24.2-24.47c-1.07-.26-2.12-.57-3.15-.92,0,.06,0,.13,0,.2a22,22,0,0,1-21.81,22m-79-21.48a11.66,11.66,0,1,1,11.73,11.59,11.68,11.68,0,0,1-11.73-11.59m3.16,0A8.5,8.5,0,1,0,148.4,98a8.51,8.51,0,0,0-8.45,8.54m75.75,11.23a11.66,11.66,0,1,1,11.59-11.72,11.68,11.68,0,0,1-11.59,11.72m8.43-11.7a8.5,8.5,0,1,0-8.45,8.54,8.51,8.51,0,0,0,8.45-8.54m-40.42,3.15c-.06.69-.13,1.37-.22,2a28.71,28.71,0,0,1,27.35,27h0c.72-.11,1.45-.18,2.18-.25l1-.08a31.87,31.87,0,0,0-30.21-29.86c0,.37,0,.73-.07,1.1m-3.41-4.73c0-.36,0-.72.07-1.08.06-.7.13-1.39.22-2.08h0a28.68,28.68,0,0,1-27.34-27h0c-.64.1-1.29.17-1.94.24-.4,0-.81.07-1.22.09a31.87,31.87,0,0,0,30.21,29.87m-31.76,17.22a15.91,15.91,0,0,1-3.68-.43c.14.21.27.43.4.64l.24.39.35.61c.22.38.43.76.62,1.14l.1.19.28.54c.56,0,1.13.08,1.7.08a18.41,18.41,0,0,0,18.28-18.48c0-.57,0-1.14-.1-1.7l-.52-.26-.24-.12-1.1-.59-.68-.38-.3-.18c-.23-.14-.47-.27-.7-.42a14.82,14.82,0,0,1,.47,3.67,15.23,15.23,0,0,1-15.12,15.3m22,18.25a11.66,11.66,0,1,1,11.73,11.59A11.67,11.67,0,0,1,170.57,140m3.17,0a8.5,8.5,0,1,0,8.44-8.54,8.5,8.5,0,0,0-8.44,8.54m-25.17-11.52h-.2c.37,1,.69,2.08,1,3.14a25.11,25.11,0,0,0,24.2-24.47q-1.6-.39-3.15-.93v.21a22,22,0,0,1-21.81,22M181.9,118h.21a22,22,0,0,1,22,21.81v.2h0a32.81,32.81,0,0,1,3.15-1,25.13,25.13,0,0,0-24.49-24.21,32.85,32.85,0,0,1-.92,3.16m-1.74,4.18-.1.2c-.2.39-.4.77-.61,1.15l-.35.6c-.07.14-.15.27-.23.41l-.39.64h0a15.22,15.22,0,0,1,19,14.66,15.89,15.89,0,0,1-.43,3.67h0c.22-.15.45-.29.69-.43l.3-.18.67-.39c.36-.21.73-.41,1.1-.6l.24-.12.51-.26c.05-.57.08-1.14.08-1.71a18.4,18.4,0,0,0-18.49-18.27,16.13,16.13,0,0,0-1.7.09c-.08.18-.18.36-.26.54m-3.09-14.39a28.69,28.69,0,0,1-27,27.34c.09.67.17,1.36.23,2.05,0,.36.07.73.09,1.1A31.87,31.87,0,0,0,180.22,108c-.32,0-.63,0-1-.07q-1.09-.07-2.19-.21m36.65-33.4a31.85,31.85,0,0,0-29.86,30.2c.41,0,.81,0,1.21.09.65,0,1.3.11,1.94.2a28.68,28.68,0,0,1,27-27.34c-.09-.69-.17-1.38-.23-2.07,0-.36-.07-.72-.09-1.08m1.81,13.37a18.39,18.39,0,0,0-18.27,18.49c0,.57,0,1.14.08,1.7l.56.27.18.09c.39.2.78.4,1.16.62l.59.33.42.25.64.38a14.74,14.74,0,0,1-.47-3.66,15.22,15.22,0,0,1,15.12-15.3,14.76,14.76,0,0,1,3.67.43l-.41-.68-.2-.32c-.13-.22-.26-.44-.38-.66s-.41-.74-.61-1.11a1.51,1.51,0,0,0-.11-.22l-.27-.53c-.56,0-1.13-.08-1.7-.08m-25,17.79c1.07.26,2.13.57,3.16.92,0-.07,0-.13,0-.21a22,22,0,0,1,21.81-22h.2c-.36-1-.69-2.07-1-3.14a25.12,25.12,0,0,0-24.2,24.48m26.29-38c.1.67.17,1.36.23,2,0,.36.07.73.09,1.1A31.87,31.87,0,0,0,247,40.48c-.32,0-.64,0-1-.06-.74-.06-1.47-.13-2.2-.23a28.69,28.69,0,0,1-27,27.35m-6.39,3.58h0c.72-.11,1.45-.19,2.18-.25l1-.08A31.86,31.86,0,0,0,183.4,40.94c0,.37,0,.73-.08,1.09,0,.69-.12,1.38-.21,2.06h0a28.67,28.67,0,0,1,27.34,27m-6.1,102.24A11.66,11.66,0,1,1,216.08,185a11.67,11.67,0,0,1-11.73-11.59m3.17,0A8.5,8.5,0,1,0,216,164.8a8.5,8.5,0,0,0-8.44,8.54m-52.68-25.05c-.67-2.17-2.15-4.45-2.28-6.81-.64.09-.22.16-.87.23l-1.21.09a31.85,31.85,0,0,0,30.2,29.87c0-.36,0-.72.08-1.08q.08-1.05.21-2.07a28.72,28.72,0,0,1-26.13-20.23M148.77,162a11.66,11.66,0,1,1-11.6,11.72A11.67,11.67,0,0,1,148.77,162m-8.44,11.7a8.5,8.5,0,1,0,8.45-8.54,8.51,8.51,0,0,0-8.45,8.54m73.07,31.52c.32,0,.64-.06,1-.07a31.85,31.85,0,0,0-30.2-29.87c0,.37,0,.73-.08,1.1-.05.69-.12,1.37-.21,2.06h0a28.68,28.68,0,0,1,27.34,27c.72-.1,1.45-.18,2.18-.25m35.95-77.38a11.66,11.66,0,1,1-11.6,11.72,11.66,11.66,0,0,1,11.6-11.72m0,3.16a8.5,8.5,0,1,0,8.54,8.44,8.5,8.5,0,0,0-8.54-8.44m-14.74,4.9-.64.4-.4.24-.6.36-1.16.63-.16.08-.56.28c-.05.57-.08,1.14-.08,1.71a18.4,18.4,0,0,0,18.49,18.27,16,16,0,0,0,1.7-.09c.08-.18.17-.35.26-.53s.07-.15.11-.23c.2-.37.39-.75.6-1.11s.24-.44.37-.66l.19-.33.42-.68h0a15.21,15.21,0,0,1-19-14.66,14.73,14.73,0,0,1,.43-3.66v0M218.5,74.14l-1.23.11a31.87,31.87,0,0,0,30.21,29.86c0-.37.05-.72.08-1.08.05-.7.12-1.39.21-2.08h0a28.67,28.67,0,0,1-27.34-27h0c-.64.09-1.29.17-1.93.23M184.79,224.61c.19-.38.39-.75.59-1.13.13-.21.26-.43.38-.65s.12-.22.19-.33.27-.46.42-.68h0a15.22,15.22,0,0,1-19-14.66,15.89,15.89,0,0,1,.43-3.67h0c-.2.14-.42.27-.63.4a4.36,4.36,0,0,1-.41.24c-.19.13-.39.24-.59.36l-1.15.62-.17.09-.56.28c-.05.57-.08,1.13-.08,1.71a18.42,18.42,0,0,0,18.49,18.28c.57,0,1.14-.05,1.7-.1.08-.18.17-.35.26-.53l.11-.22m-2,4.4a22,22,0,0,1-22.06-21.81V207h0c-1,.37-2.07.69-3.14,1A25.12,25.12,0,0,0,182,232.16a32.85,32.85,0,0,1,.92-3.16h-.2m14.65-18.34c.23-.15.46-.3.7-.44l.3-.18c.22-.13.44-.27.67-.39s.73-.41,1.1-.6l.24-.12.51-.26c.05-.56.08-1.13.08-1.71a18.4,18.4,0,0,0-18.48-18.27,16.18,16.18,0,0,0-1.71.09c-.08.18-.18.36-.27.55a1.74,1.74,0,0,1-.1.19c-.19.39-.39.77-.6,1.15l-.35.61c-.07.13-.15.26-.23.39l-.39.66h0a15.22,15.22,0,0,1,19,14.66,15.89,15.89,0,0,1-.43,3.67h0m7.15-3.51a32.62,32.62,0,0,1,3.14-1A25.12,25.12,0,0,0,183.2,182a32.85,32.85,0,0,1-.92,3.16h.21a22,22,0,0,1,22,21.81,1.33,1.33,0,0,1,0,.2Zm-89.23-21.63a22,22,0,0,1,22.05,21.81v.2c1-.37,2.07-.69,3.14-1A25.1,25.1,0,0,0,116,182.38c-.26,1.07-.57,2.12-.92,3.15h.21M171,207.14a11.66,11.66,0,1,1,11.73,11.6A11.67,11.67,0,0,1,171,207.14m3.16,0a8.5,8.5,0,1,0,8.45-8.54,8.51,8.51,0,0,0-8.45,8.54m64-.36a11.66,11.66,0,1,1,11.73,11.6,11.68,11.68,0,0,1-11.73-11.6m3.17,0a8.5,8.5,0,1,0,8.45-8.54,8.5,8.5,0,0,0-8.45,8.54m-126-14.5a15.25,15.25,0,0,1,15.31,15.13,15.89,15.89,0,0,1-.43,3.67h0c.23-.14.46-.29.7-.42l.3-.19.67-.39c.36-.21.73-.41,1.1-.6l.24-.12.51-.27c.05-.55.08-1.12.08-1.7a18.4,18.4,0,0,0-18.48-18.27,16,16,0,0,0-1.71.09c-.08.18-.18.36-.27.55a1.74,1.74,0,0,1-.1.19c-.19.39-.39.77-.6,1.15-.11.21-.23.4-.35.61s-.16.26-.23.39l-.4.65h0a15.23,15.23,0,0,1,3.66-.47M144,205.87h0c.73-.1,1.46-.18,2.19-.25l1-.08A31.84,31.84,0,0,0,117,175.68c0,.37,0,.73-.08,1.1-.05.68-.12,1.37-.21,2.05h0a28.69,28.69,0,0,1,27.34,27M252,224.23c.2-.38.39-.76.59-1.12s.26-.44.38-.66l.19-.33.42-.68h0a15.21,15.21,0,0,1-19-14.66,14.73,14.73,0,0,1,.43-3.66h0l-.64.39-.4.25-.6.35-1.15.63-.17.08-.56.28c-.05.57-.08,1.14-.08,1.71a18.4,18.4,0,0,0,18.49,18.27,16,16,0,0,0,1.7-.09l.26-.53a2.26,2.26,0,0,0,.11-.22m-136.42,5.16a22,22,0,0,1-22-21.81v-.2h0c-1,.37-2.07.69-3.14,1a25.12,25.12,0,0,0,24.48,24.21c.26-1.08.57-2.13.92-3.16h-.21m134.37-.76a22,22,0,0,1-22.06-21.81v-.2h0c-1,.37-2.07.69-3.14,1a25.11,25.11,0,0,0,24.48,24.2c.26-1.07.57-2.13.93-3.16h-.21M181.76,57.5a15.16,15.16,0,0,1,14.87,18.79h0l.7-.43.3-.18c.22-.14.44-.27.67-.39s.73-.41,1.1-.61l.24-.11.52-.27c0-.56.07-1.13.07-1.7a18.41,18.41,0,0,0-18.48-18.28c-.58,0-1.15,0-1.71.1-.08.18-.18.36-.26.54l-.1.2c-.2.39-.4.77-.61,1.15-.11.2-.23.4-.35.6l-.23.4-.39.65h0a14.74,14.74,0,0,1,3.66-.47M170.19,72.78a11.66,11.66,0,1,1,11.73,11.59,11.69,11.69,0,0,1-11.73-11.59m3.17,0a8.5,8.5,0,1,0,8.44-8.54,8.51,8.51,0,0,0-8.44,8.54M117.61,225c.19-.38.39-.76.59-1.12s.25-.45.38-.66.12-.22.19-.33.27-.45.42-.68h0a14.81,14.81,0,0,1-3.66.47,15.2,15.2,0,0,1-14.88-18.79h0l-.63.39c-.13.09-.27.17-.41.25l-.59.35-1.16.63-.17.08-.55.28c0,.57-.08,1.13-.08,1.71a18.4,18.4,0,0,0,18.49,18.27,16.13,16.13,0,0,0,1.7-.09c.08-.18.17-.35.26-.53a2.26,2.26,0,0,1,.11-.22m129.8-117.33c-.33,0-.64,0-1-.07-.73,0-1.46-.12-2.19-.22a28.67,28.67,0,0,1-27,27.35c.1.68.17,1.36.23,2.05,0,.36.07.73.09,1.1a31.88,31.88,0,0,0,29.87-30.21m-31.48,50.42a14.73,14.73,0,0,1,3.66.43c-.14-.23-.28-.46-.41-.69l-.2-.31c-.13-.22-.26-.44-.38-.66s-.41-.73-.61-1.11c0-.07-.07-.15-.11-.22l-.27-.53a16,16,0,0,0-1.7-.07,18.39,18.39,0,0,0-18.27,18.48,16,16,0,0,0,.09,1.7l.55.28.18.09c.39.19.78.4,1.16.61l.6.34.41.24.64.38a14.74,14.74,0,0,1-.47-3.66,15.23,15.23,0,0,1,15.13-15.3m-34-67q.87,0,1.71-.09c.08-.18.17-.36.26-.53l.11-.23.59-1.12.38-.66.19-.32.42-.69h0a15.24,15.24,0,0,1-19-14.66,14.87,14.87,0,0,1,.43-3.67h0l-.64.4-.41.24-.59.35c-.38.22-.77.43-1.16.63l-.17.09-.55.28c-.05.56-.08,1.13-.08,1.71A18.41,18.41,0,0,0,182,91.09m67.8,70.35h-.22a22,22,0,0,1-22.05-21.81v-.21h0c-1,.37-2.07.69-3.14,1a25.12,25.12,0,0,0,24.48,24.21,32.89,32.89,0,0,1,.93-3.16m-22.65-89c0-.06,0-.13,0-.2h0q-1.55.56-3.15,1a25.11,25.11,0,0,0,24.48,24.2q.39-1.6.93-3.15h-.21A22,22,0,0,1,227.1,72.45M181.73,50.78a22,22,0,0,1,22.05,21.81,1.34,1.34,0,0,1,0,.2h0c1-.36,2.07-.68,3.15-1a25.12,25.12,0,0,0-24.49-24.2c-.26,1.07-.57,2.13-.92,3.15h.21m-.47,47c.26-1.07.57-2.12.92-3.15H182a22,22,0,0,1-22.06-21.81v-.2h0c-1,.36-2.07.69-3.14,1a25.11,25.11,0,0,0,24.48,24.2M103.77,207.52a11.66,11.66,0,1,1,11.72,11.59,11.66,11.66,0,0,1-11.72-11.59m3.16,0a8.5,8.5,0,1,0,8.45-8.54,8.51,8.51,0,0,0-8.45,8.54m109-56.14h.2q-.54-1.55-1-3.15a25.12,25.12,0,0,0-24.2,24.48c1.07.26,2.12.57,3.16.92a1.34,1.34,0,0,1,0-.2,22,22,0,0,1,21.81-22.06M149.14,229.2a11.66,11.66,0,0,0-11.59,11.72l3.16,0a8.5,8.5,0,0,1,17-.09l3.17,0a11.67,11.67,0,0,0-11.73-11.59m0-3.56a15.3,15.3,0,0,1,3.67.43c-.15-.22-.27-.45-.42-.68l-.19-.32c-.13-.22-.26-.43-.38-.65s-.41-.75-.61-1.12l-.11-.22-.27-.53c-.56-.05-1.13-.07-1.71-.07A18.4,18.4,0,0,0,130.83,241h0l3.17,0a15.22,15.22,0,0,1,15.12-15.3m0-6.71h.2c-.37-1-.69-2.08-1-3.14a25.1,25.1,0,0,0-24.2,24.47q1.29.31,2.55.72h.6a22,22,0,0,1,21.81-22m67.18-.39h.2q-.54-1.55-1-3.15a25.12,25.12,0,0,0-24.2,24.48c.86.21,1.71.45,2.54.73h.61a22,22,0,0,1,21.81-22.06m0,10.28a11.67,11.67,0,0,0-11.59,11.72l3.16,0a8.5,8.5,0,0,1,17-.09l3.16,0a11.67,11.67,0,0,0-11.73-11.59m0-3.56a15.22,15.22,0,0,1,3.66.43c-.14-.22-.27-.45-.42-.68l-.19-.32c-.13-.22-.26-.43-.38-.66s-.41-.74-.61-1.11a2.26,2.26,0,0,0-.11-.22l-.27-.53a16,16,0,0,0-1.7-.07A18.39,18.39,0,0,0,198,240.58h0l3.15,0h0a15.25,15.25,0,0,1,15.14-15.3m67.2,3.18a11.68,11.68,0,0,0-11.6,11.72h3.17a8.51,8.51,0,0,1,8.45-8.55Zm-.06-10.27v-.61c-.29-.83-.54-1.68-.75-2.54a25.12,25.12,0,0,0-24.21,24.49q1.29.3,2.55.72h.6a22,22,0,0,1,21.81-22.05m0,6.71,0-3.16A18.39,18.39,0,0,0,265.2,240.2l3.16,0a15.23,15.23,0,0,1,15.13-15.3m-67.37-33.21a18.41,18.41,0,0,0,18.27-18.48c0-.58,0-1.15-.09-1.7l-.52-.26-.24-.12c-.38-.19-.75-.38-1.11-.58l-.68-.39-.3-.18-.7-.41a14.23,14.23,0,0,1,.47,3.66,15.22,15.22,0,0,1-15.12,15.3,14.87,14.87,0,0,1-3.67-.43c.14.21.26.43.4.65s.15.25.23.38l.36.61c.21.38.42.76.62,1.15l.09.18c.1.18.19.37.28.55.56.05,1.13.07,1.71.07m25-17.78c-1.08-.26-2.13-.57-3.16-.92v.2a22,22,0,0,1-21.8,22.06h-.2c.35,1,.68,2.08.95,3.15a25.13,25.13,0,0,0,24.21-24.48M154,208.66h0c-.64.09-1.28.17-1.93.23l-1.22.1a31.88,31.88,0,0,0,30.21,29.86c0-.36.05-.72.07-1.08.06-.7.13-1.39.22-2.07a28.71,28.71,0,0,1-27.35-27m128,2.83q-.15-1-.24-2.07c0-.36-.06-.71-.09-1.08a31.85,31.85,0,0,0-29.86,30.2c.41,0,.81.06,1.21.09.66.05,1.3.12,1.94.2a28.68,28.68,0,0,1,27-27.34m-131.25-6.06a31.87,31.87,0,0,0,29.86-30.2l-1-.07c-.73-.06-1.46-.12-2.19-.22a28.68,28.68,0,0,1-27,27.34c.09.68.17,1.36.23,2.05,0,.36.07.73.09,1.1m67.18-.38a31.86,31.86,0,0,0,29.87-30.21c-.33,0-.64,0-1-.06-.73-.06-1.46-.12-2.18-.23a28.7,28.7,0,0,1-27,27.35c.1.68.18,1.36.24,2,0,.37.06.73.08,1.1m3.27,3.23h0c-.64.09-1.28.16-1.94.23l-1.21.1a31.85,31.85,0,0,0,30.2,29.86c0-.36,0-.72.08-1.08.05-.69.12-1.39.21-2.07a28.68,28.68,0,0,1-27.34-27m-6.38,3.59q-.15-1-.24-2.07c0-.36-.07-.72-.09-1.08a31.85,31.85,0,0,0-29.86,30.21c.4,0,.81,0,1.21.08.65.05,1.3.12,1.94.21a28.69,28.69,0,0,1,27-27.35m-40.9-37.6q-1.6-.39-3.15-.93v.21A22,22,0,0,1,149,195.61h-.21c.36,1,.69,2.08.95,3.15a25.12,25.12,0,0,0,24.21-24.48m-26.28,38q-.15-1-.24-2.07c0-.36-.07-.71-.09-1.08a31.85,31.85,0,0,0-29.86,30.21c.4,0,.81.05,1.21.08.65.05,1.3.12,1.94.2a28.69,28.69,0,0,1,27-27.34m-1.75-22.76.35.61c.22.38.42.76.62,1.15a1.62,1.62,0,0,1,.1.18l.28.55c.56.05,1.13.07,1.71.07a18.41,18.41,0,0,0,18.27-18.48q0-.85-.09-1.71l-.52-.25-.24-.12c-.38-.19-.75-.38-1.12-.59l-.67-.38-.3-.18c-.24-.13-.47-.27-.7-.41a15.21,15.21,0,0,1-14.65,19,14.87,14.87,0,0,1-3.67-.43l.39.65.24.38M86.82,209h0c-.64.1-1.28.17-1.93.24l-1.22.1a31.87,31.87,0,0,0,30.21,29.86c0-.36,0-.72.07-1.08.06-.69.13-1.38.22-2.07a28.69,28.69,0,0,1-27.35-27M215.38,60.86h-.21c.37,1,.69,2.07,1,3.14a25.12,25.12,0,0,0,24.21-24.48c-.87-.2-1.72-.44-2.56-.72h-.6a21.94,21.94,0,0,1-21.8,22.06m-3.08-6.11c.12.2.24.4.35.61q.33.57.63,1.14l.09.19c.1.18.19.36.28.54.56.05,1.13.08,1.71.08a18.41,18.41,0,0,0,18.27-18.48l-3.17,0a15.23,15.23,0,0,1-15.12,15.3,15.89,15.89,0,0,1-3.67-.43c.14.21.26.43.4.64s.15.26.23.39m36.17,116.57q.08-1.57.12-3.15l-.44,0a28.69,28.69,0,0,1-27.34-27c-.64.09-1.29.16-1.93.23l-1.22.1a31.86,31.86,0,0,0,30.21,29.86Z" transform="translate(-10.67 28.82)"/></g><g class="cls-2"><path class="cls-35" d="M401.22,282.47l1,.64s0,0,0,.06c15.88,10.38,37.46,16.54,35.2,29.66,2.61-8.12,9.22-28.5,15.39-46.49,6.05-17.63,13.25-34.42,11.23-40.64-6.23-19.17-39.18-29.55-46.57-52.3-7-21.57,23-55.86,10.58-67.38-12.87-11.9-26.49,9.84-42.88,22.73-14,11-32,23.87-60.15,34.1.12,10,1.73,23.3,7,39.51,3.9,12,10.6,23.4,18.47,33.74,18.29,23.43,35.94,36.49,50.67,46.37" transform="translate(-10.67 28.82)"/></g><g class="cls-36"><path class="cls-37" d="M355.54,220.81c.1.48,11,44.08,14.57,57-10.57-16.91-16.77-36.88-14.57-57" transform="translate(-10.67 28.82)"/><path class="cls-37" d="M356.05,193.86c2.78,14,22.06,67,26.55,74.29-10.54-10.26-30-43.43-26.55-74.29" transform="translate(-10.67 28.82)"/><path class="cls-37" d="M358.69,177.18c3.18,19.28,9.8,31.78,23.23,57.48l8.73,16.23c.14-.07-.29.05-.14.12l-.32-.53s.46.4.49.44-.23.18-.14.13c-14.28-10.31-35.18-43.8-31.85-73.87" transform="translate(-10.67 28.82)"/><path class="cls-37" d="M360.47,166.56c3.7,18,27.41,50.56,38.32,68.16-19.27-16.52-40.72-43-38.32-68.16" transform="translate(-10.67 28.82)"/><path class="cls-37" d="M362.82,155.64c3.5,16.79,26.45,41.05,42.67,67.22-18.75-16.25-44.79-42.78-42.67-67.22" transform="translate(-10.67 28.82)"/><path class="cls-37" d="M365.15,146.86c3.45,15.85,27.81,32,48.69,64.39-22.15-19.25-50.28-43.2-48.69-64.39" transform="translate(-10.67 28.82)"/><path class="cls-37" d="M367.63,139.94c3.2,13.43,35.07,26.47,54.89,57.86-27.8-23.66-55.89-41.2-54.89-57.86" transform="translate(-10.67 28.82)"/><path class="cls-37" d="M369.58,133.14c1.76,6.6,9.94,8.26,26.17,18,12.38,7.44,26.55,20.36,34.87,33.36-32.22-27.06-61.51-38.67-61-51.35" transform="translate(-10.67 28.82)"/><path class="cls-37" d="M371.16,127.81a3,3,0,0,0,.93,1.66c5.79,5.24,41.36,2.5,66.21,40.79-27.69-24.12-46.79-27.39-62.33-36.67-5.75-3.36-4.81-5.78-4.81-5.78" transform="translate(-10.67 28.82)"/><path class="cls-37" d="M373.25,124s-.24,1.09,3,1.15c5.59.12,44.11-7.69,70.7,32.69-13.84-12.14-22.65-18-41.6-24.53-18.66-6.43-32.14-5.76-32.07-9.31" transform="translate(-10.67 28.82)"/><path class="cls-37" d="M374.22,119.45s-.5.65,3.55-.79c32.64-11.61,58.67-.76,76.78,26.56-21-18.7-41.62-28.29-72.13-25.91-4.05.36-7.44.8-8.08.38-.17-.13-.11-.25-.12-.24" transform="translate(-10.67 28.82)"/><path class="cls-37" d="M375.49,114.64c18.76-16.7,57.24-20.63,85.82,19.49C442,117,424.44,106.5,396.76,109.27c-9.46,1-17.15,3.3-21.27,5.37" transform="translate(-10.67 28.82)"/><path class="cls-37" d="M347.16,207.19C342,220.1,334.2,235,315.82,249c13.78-23.89,20.39-31.45,31.34-41.85" transform="translate(-10.67 28.82)"/><path class="cls-37" d="M350.27,190.06c-14.17,31.71-41.43,44.05-47,45.37,5.87-3.64,6.67-5.43,47-45.37" transform="translate(-10.67 28.82)"/><path class="cls-37" d="M352.45,176.39c-9.9,21.13-31.42,38.38-58,42.9.06.23-.14-.29-.1-.24s.67-.1.78-.12l-.67.36c0,.05-.15-.47-.09-.25,40.06-23.68,49.73-33.63,58.06-42.65" transform="translate(-10.67 28.82)"/><path class="cls-37" d="M354.11,166.05c-10.89,22.38-39.05,31-63.72,34.41,22.21-11.15,50.53-20.88,63.72-34.41" transform="translate(-10.67 28.82)"/><path class="cls-37" d="M357.2,154.69c-10.62,21.42-41.74,28.3-66.13,31.7,16.73-8.4,54.21-19.56,66.13-31.7" transform="translate(-10.67 28.82)"/><path class="cls-37" d="M358.74,145.9c-8.93,17.63-37.61,21.72-68.89,26,32.38-15.46,57.16-14.24,68.89-26" transform="translate(-10.67 28.82)"/><path class="cls-37" d="M380.81,81.88c-14.89,38.41-23.57,74.67-28.77,112.94-1,7.28-2.33,14.86-3.91,22a173.37,173.37,0,0,0-2.06,61.86,394.25,394.25,0,0,0,5.53-56.47,271.62,271.62,0,0,1,5.48-47.72,500.38,500.38,0,0,1,28.07-90.95Z" transform="translate(-10.67 28.82)"/><path class="cls-37" d="M438.6,236.89c12.57-5.28,64.69-18.27,72.81-18.58-13.71-2.86-50.26-.55-72.81,18.58" transform="translate(-10.67 28.82)"/><path class="cls-37" d="M426.82,247.86c16.93-7.75,30.32-9.18,57.77-12.26l17.47-1.74c0,.15-.11-.25,0-.18l-.59,0c.05,0,.56.16.61.16s0-.29,0-.18c-15.76-5.79-53.33-4.47-75.32,14.17" transform="translate(-10.67 28.82)"/><path class="cls-37" d="M419.39,254.92c16.2-6.67,54.52-5.27,74.24-6-23.31-6.41-55.64-9.27-74.24,6" transform="translate(-10.67 28.82)"/><path class="cls-37" d="M412,262.6c15.11-6.18,46.5-1,75.81-2.1-22.82-6.16-57.64-12.6-75.81,2.1" transform="translate(-10.67 28.82)"/><path class="cls-37" d="M406.31,269.11c14.36-5.71,40.13,4.9,76.79,4.17-27-7.24-60.89-16.71-76.79-4.17" transform="translate(-10.67 28.82)"/><path class="cls-37" d="M402.18,274.75c12.31-4.63,39.57,13.61,74.92,12.54-33.48-9.35-62.3-22.2-74.92-12.54" transform="translate(-10.67 28.82)"/><path class="cls-37" d="M397.84,279.91C404,277.79,409.66,283.36,426,291c12.46,5.83,30.21,10.13,44.91,9.79-38.53-11.05-63.29-28-73.06-20.88" transform="translate(-10.67 28.82)"/><path class="cls-37" d="M444.39,222.78c7.45-10.95,15.06-25,16.37-47-11.53,23.6-14,32.85-16.37,47" transform="translate(-10.67 28.82)"/><path class="cls-37" d="M432.52,234.35c17.49-28.07,12.73-56.17,10.83-61.24.25,6.57-.74,8.15-10.83,61.24" transform="translate(-10.67 28.82)"/><path class="cls-37" d="M422.88,243.36c11.42-19.08,13.58-45.26,3-68.64.22-.08-.31,0-.24.06s.28.58.32.66l-.08-.71c.07,0-.45.13-.24.06,2.62,44.25-.09,57.18-2.77,68.57" transform="translate(-10.67 28.82)"/><path class="cls-37" d="M415.6,250.17c11.87-20.52,3.73-47.37-6.75-68.64,3,23.48,10.41,51,6.75,68.64" transform="translate(-10.67 28.82)"/><path class="cls-37" d="M408.27,258.66c11.26-19.79.65-47-9.66-68,2.28,17.68,12.9,52.16,9.66,68" transform="translate(-10.67 28.82)"/><path class="cls-37" d="M402.15,264.56c9.17-16.45-2.88-41.27-16.15-68.25,5,33.8,19.19,52.73,16.15,68.25" transform="translate(-10.67 28.82)"/><path class="cls-37" d="M396.51,271.17c7.11-13.2-7.36-34.32-23.44-66.3,5,35.78,25.88,52.61,23.44,66.3" transform="translate(-10.67 28.82)"/><path class="cls-37" d="M391.81,276.07c5.23-10.28-13.8-26.31-32.27-62.74,2.43,16.64,10.15,31.92,20.72,44.6,8,9.51,12.39,12.64,11.55,18.14" transform="translate(-10.67 28.82)"/><path class="cls-37" d="M363.34,316.07c22.41-32.21,46.42-58.37,73.88-82.85,5.22-4.65,10.49-9.76,15.31-14.82a165.2,165.2,0,0,1,47.76-34.56,376.21,376.21,0,0,1-41.65,34.44A258.68,258.68,0,0,0,423.86,248,477.43,477.43,0,0,0,367,318.6Z" transform="translate(-10.67 28.82)"/></g><g class="cls-2"><path class="cls-9" d="M385,128.94l.93-.81.06,0c14.78-11.91,27.3-30.53,39.08-24.31-6.91-5-24.26-17.59-39.45-29C370.69,63.63,357,51.59,350.42,51.59c-20.16,0-40.21,28.13-64.14,28.13-22.68,0-46-39.18-60.81-30.89-15.29,8.57,1.18,28.24,8.36,47.81,6.15,16.73,12.83,37.78,13.85,67.73,9.5,3,22.7,5.56,39.74,5.56,12.6,0,25.53-2.84,37.8-7.13,27.93-10.16,45.8-22.91,59.76-33.86" transform="translate(-10.67 28.82)"/></g><g class="cls-38"><path class="cls-39" d="M409.58,93.83a.41.41,0,0,0-.11.28v1.17a1.8,1.8,0,0,0,.65,3.48,1.79,1.79,0,0,0,1.8-1.8,1.82,1.82,0,0,0-1.67-1.8v-.89l1-1-.64-.46Z" transform="translate(-10.67 28.82)"/><path class="cls-39" d="M402.85,93.32v1.89a1.8,1.8,0,1,0,.78,0V93.49L407,90.15l-.64-.47L403,93.05a.39.39,0,0,0-.11.27" transform="translate(-10.67 28.82)"/><path class="cls-39" d="M399.2,111.54a1.81,1.81,0,1,0,0,.83h3.23l.86-.83Z" transform="translate(-10.67 28.82)"/><path class="cls-39" d="M261.73,165a.39.39,0,0,0,.28.12h14.6a.39.39,0,0,0,.28-.12l4.33-4.33a.42.42,0,0,0,.12-.28v-5.49L299,137.21h24.07L328,142.1a.36.36,0,0,0,.28.11h25.06a.41.41,0,0,0,.28-.11l15.33-15.33a1.8,1.8,0,0,0,3-1.32,1.81,1.81,0,0,0-3.61,0,1.69,1.69,0,0,0,.13.66l-15.32,15.32H328.42l-4.89-4.89a.36.36,0,0,0-.28-.12H298.86a.38.38,0,0,0-.28.12l-17.91,17.91a.38.38,0,0,0-.12.28v5.49l-4.1,4.1H262.18L259,161.15a.34.34,0,0,0-.27-.12H245.33c0,.26,0,.53,0,.79h13.23Z" transform="translate(-10.67 28.82)"/><path class="cls-39" d="M264.65,160.88a.39.39,0,0,0,.28.11h9.82a.39.39,0,0,0,.27-.11l2.66-2.67a.36.36,0,0,0,.12-.27v-5.68l20.39-20.39h12.55a.38.38,0,0,0,.28-.12l2.69-2.69H331.1l3.09,3.1a.44.44,0,0,0,.28.12H351a.44.44,0,0,0,.28-.12l4.65-4.65a.43.43,0,0,0,.11-.28v-5.81l4.32-4.32a1.78,1.78,0,0,0,1,.32,1.81,1.81,0,1,0-1.8-1.81,1.84,1.84,0,0,0,.25.92L355.39,121a.39.39,0,0,0-.11.28v5.8l-4.43,4.43H334.63l-3.09-3.1a.41.41,0,0,0-.28-.11H313.55a.39.39,0,0,0-.28.11l-2.69,2.7H298a.36.36,0,0,0-.28.11l-20.62,20.61a.4.4,0,0,0-.12.29v5.68l-2.43,2.43h-9.49l-1.81-1.81a.4.4,0,0,0-.28-.12H245.26c0,.27,0,.53,0,.79h17.56Z" transform="translate(-10.67 28.82)"/><path class="cls-39" d="M252.41,151.44h22.23a.39.39,0,0,0,.27-.11l22.25-22.25h11.38a.39.39,0,0,0,.28-.11l4.18-4.18h.6a1.81,1.81,0,1,0,0-.78h-.76a.39.39,0,0,0-.28.11l-4.18,4.18H297a.39.39,0,0,0-.27.11l-22.24,22.25h-21.9l-7.38-7.5c0,.4.07.81.11,1.22l6.83,7a.39.39,0,0,0,.27.11" transform="translate(-10.67 28.82)"/><path class="cls-39" d="M253.84,147.94h20.25a.39.39,0,0,0,.28-.12l27.91-27.91a1.86,1.86,0,0,0,1,.33,1.81,1.81,0,1,0-1.81-1.8,1.78,1.78,0,0,0,.24.89l-27.83,27.82H254l-9.36-9.48.15,1.25,8.77,8.9a.39.39,0,0,0,.28.12" transform="translate(-10.67 28.82)"/><path class="cls-39" d="M253.75,130.32h18.67l1.72,1.72a.35.35,0,0,0,.27.11h5a.36.36,0,0,0,.28-.11l3-3a1.76,1.76,0,0,0,1.07.37,1.81,1.81,0,1,0-1.8-1.81,1.84,1.84,0,0,0,.21.85l-2.91,2.91h-4.63l-1.72-1.71a.36.36,0,0,0-.28-.12H254l-.79-.74.75.74Z" transform="translate(-10.67 28.82)"/><path class="cls-39" d="M255.37,127.9a.38.38,0,0,0,.28.12h19.16a1.81,1.81,0,1,0,0-.79h-19L250,121.4a.39.39,0,0,0-.28-.11H239.24c0,.16.09.32.13.49a2.46,2.46,0,0,0,.07.29h10.1Z" transform="translate(-10.67 28.82)"/><path class="cls-39" d="M253.47,130.22a.43.43,0,0,0,.28.11h0a.5.5,0,0,1-.27-.11c-2.58-2.73-5.34-5.71-5.75-6-.17,0-7.24,0-7.83,0,0,.06,0,.11,0,.17h7.69Z" transform="translate(-10.67 28.82)"/><path class="cls-39" d="M248.19,124c.13,0,.16,0,.26.13l.19.27c.67.6,2,1.94,4.53,4.38l-5.09-5.08a.36.36,0,0,0-.28-.11h-8c0,.13.06.28.1.42h8.32" transform="translate(-10.67 28.82)"/><path class="cls-39" d="M248.45,124.15c-.1-.08-.13-.12-.26-.12h-8.32c0,.07,0,.13,0,.19.59,0,7.66,0,7.83,0,.41.33,3.17,3.31,5.75,6a.4.4,0,0,0,.27.12l.15-.77-.74-.75c-2.57-2.43-3.86-3.78-4.52-4.38Z" transform="translate(-10.67 28.82)"/><path class="cls-39" d="M256.33,125.6a.39.39,0,0,0,.28.11H270a.41.41,0,0,0,.28-.11l1.66-1.67h14.69l1.89,1.9a1.73,1.73,0,0,0-.34,1,1.81,1.81,0,1,0,1.8-1.81,1.77,1.77,0,0,0-.87.23l-2-2a.41.41,0,0,0-.28-.11h-15a.41.41,0,0,0-.28.11l-1.66,1.67H256.77L251,119.19a.36.36,0,0,0-.28-.12H238.67c.07.26.13.53.2.79h11.72Z" transform="translate(-10.67 28.82)"/><path class="cls-39" d="M270.73,121.21a.43.43,0,0,0,.28.11h25.13a.39.39,0,0,0,.28-.11l7.76-7.76a1.77,1.77,0,0,0,1.1.38,1.81,1.81,0,1,0-1.81-1.8,1.72,1.72,0,0,0,.21.82l-7.7,7.69h-24.8l-3.73-3.73a.41.41,0,0,0-.28-.11H238l.18.61,0,.17H267Z" transform="translate(-10.67 28.82)"/><path class="cls-39" d="M250.89,92.35l6.46-6.45h14.24l3.54,3.53a.39.39,0,0,0,.27.11h10l3,3a.43.43,0,0,0,.28.11H291a.39.39,0,0,0,.27-.11l2.13-2.12h6.2l4.16,4.15a1.75,1.75,0,0,0-.24.89,1.81,1.81,0,1,0,1.81-1.81,1.77,1.77,0,0,0-1,.34L300,89.75a.41.41,0,0,0-.28-.11h-6.53a.41.41,0,0,0-.28.11l-2.12,2.13h-1.93l-3-3a.39.39,0,0,0-.28-.11h-10L272,85.23a.39.39,0,0,0-.28-.12H257.18a.36.36,0,0,0-.27.12l-6.46,6.45H228.73c.12.26.24.53.35.79h21.54a.36.36,0,0,0,.27-.12" transform="translate(-10.67 28.82)"/><path class="cls-39" d="M271.23,112.93l1.34-1.34a1.74,1.74,0,0,0,1,.28A1.81,1.81,0,1,0,272,111l-1.23,1.22H236.71l.24.74s0,0,0,0h34a.39.39,0,0,0,.27-.11" transform="translate(-10.67 28.82)"/><path class="cls-39" d="M268,110.57l3-3h8l1.19,1.19a1.81,1.81,0,1,0,1.22-.47,1.55,1.55,0,0,0-.51.08l-1.46-1.47a.38.38,0,0,0-.28-.12h-8.32a.36.36,0,0,0-.28.12l-3,3H236c.09.26.17.53.25.79h31.53a.36.36,0,0,0,.27-.12" transform="translate(-10.67 28.82)"/><path class="cls-39" d="M261.13,108.54l1.23-1.23a1.8,1.8,0,1,0-.56-.55l-1.11,1.11H235.25c.09.26.19.52.28.79h25.32a.4.4,0,0,0,.28-.12" transform="translate(-10.67 28.82)"/><path class="cls-39" d="M258.49,106.06l3.6-3.59h6.84a.42.42,0,0,0,.28-.12L272,99.6h6.58l1.63,1.63a1.85,1.85,0,0,0-.53,1.27,1.81,1.81,0,1,0,1.81-1.81,1.73,1.73,0,0,0-.6.11L279,98.93a.39.39,0,0,0-.28-.11h-6.9a.39.39,0,0,0-.27.11l-2.76,2.75h-6.84a.39.39,0,0,0-.28.12l-3.59,3.59H234.38c.1.25.19.52.28.78h23.55a.38.38,0,0,0,.28-.12" transform="translate(-10.67 28.82)"/><path class="cls-39" d="M256.9,103.66,261,99.6h6.63a.36.36,0,0,0,.28-.12l2.41-2.41h12.19l4.46,4.46a1.88,1.88,0,0,0-.28,1,1.81,1.81,0,1,0,1.8-1.81,1.74,1.74,0,0,0-1,.29l-4.58-4.58a.41.41,0,0,0-.28-.11H270.13a.39.39,0,0,0-.27.11l-2.42,2.41h-6.63a.36.36,0,0,0-.28.12L256.46,103h-23l.3.79h22.86a.36.36,0,0,0,.27-.12" transform="translate(-10.67 28.82)"/><path class="cls-39" d="M256.69,100.69l5.38-5.37H264a1.81,1.81,0,1,0,0-.79H261.9a.39.39,0,0,0-.28.12L256.25,100H232.3l.33.78h23.79a.39.39,0,0,0,.27-.11" transform="translate(-10.67 28.82)"/><path class="cls-39" d="M255.65,97.7l5.87-5.87h7.55l3,3a.39.39,0,0,0,.28.12h10.86L287.31,99a.36.36,0,0,0,.27.12H293l2.37,2.37a1.85,1.85,0,0,0-.28,1,1.81,1.81,0,1,0,1.8-1.81,1.74,1.74,0,0,0-1,.29l-2.49-2.49a.38.38,0,0,0-.28-.12h-5.43l-4.11-4.11a.43.43,0,0,0-.28-.11H272.49l-3-3a.38.38,0,0,0-.28-.12h-7.88a.36.36,0,0,0-.27.12L255.21,97H231.08c.07.16.14.32.2.49l.13.29h24a.39.39,0,0,0,.28-.11" transform="translate(-10.67 28.82)"/><path class="cls-39" d="M252.18,95.07l6.19-6.2h11.68l3.21,3.21a.36.36,0,0,0,.28.12h10.55l3.54,3.55a.44.44,0,0,0,.29.11h5.83a1.79,1.79,0,0,0,1.75,1.41,1.81,1.81,0,1,0-1.75-2.19h-5.67l-3.55-3.55a.39.39,0,0,0-.28-.12H273.7l-3.21-3.21a.39.39,0,0,0-.28-.12h-12a.39.39,0,0,0-.28.12l-6.19,6.2H230v0l.33.74H251.9a.43.43,0,0,0,.28-.11" transform="translate(-10.67 28.82)"/><path class="cls-39" d="M308.73,74.86v26.8l-2.13,1.92a1.79,1.79,0,0,0-1.32-.59,1.81,1.81,0,1,0,1.8,1.81,1.51,1.51,0,0,0-.08-.51l2.39-2.16a.41.41,0,0,0,.13-.29V74.7a.36.36,0,0,0-.12-.28l-1.53-1.67c-.24.13-.47.27-.71.39Z" transform="translate(-10.67 28.82)"/><path class="cls-39" d="M247.92,84.55l9.14-9.14h19.25c-.38-.24-.77-.52-1.15-.78H256.9a.36.36,0,0,0-.28.11l-9.15,9.14H226.14c.08.18.16.35.25.52l.13.27h21.12a.39.39,0,0,0,.28-.12" transform="translate(-10.67 28.82)"/><path class="cls-39" d="M311.28,74v39a.36.36,0,0,0,.12.28l2.43,2.44a1.72,1.72,0,0,0-.29,1,1.81,1.81,0,1,0,1.81-1.81,1.74,1.74,0,0,0-1,.29l-2.32-2.32v-39a.39.39,0,0,0-.12-.28l-2.19-2.2-.69.42Z" transform="translate(-10.67 28.82)"/><path class="cls-39" d="M246.15,81.8l8.93-8.92h17.69l-1-.79H254.92a.38.38,0,0,0-.28.12l-8.93,8.92H224.79l.35.72a.43.43,0,0,0,0,.07h20.69a.36.36,0,0,0,.28-.12" transform="translate(-10.67 28.82)"/><path class="cls-39" d="M224.79,81.13h0l.35.72-.35-.72" transform="translate(-10.67 28.82)"/><path class="cls-39" d="M316.31,100.63a.36.36,0,0,0,.12.27l3.6,3.6a.36.36,0,0,0,.28.12h7.49l2.8,2.8v5.07l-7.13,7.13a.39.39,0,0,0-.11.28v4a.41.41,0,0,0,.11.28l1.38,1.38a.39.39,0,0,0,.27.11h5.71l3.85,3.86a.43.43,0,0,0,.28.11h9.14a.39.39,0,0,0,.27-.11l3.71-3.71a1.8,1.8,0,1,0,1-3.27,1.81,1.81,0,0,0-1.81,1.8,1.79,1.79,0,0,0,.24.88l-3.62,3.62h-8.81l-3.85-3.84a.36.36,0,0,0-.27-.12h-5.71l-1.15-1.15v-3.73l7.13-7.13a.37.37,0,0,0,.11-.28v-5.39a.36.36,0,0,0-.11-.28l-3-3a.36.36,0,0,0-.28-.11h-7.49l-3.37-3.37V70.73a.34.34,0,0,0-.1-.25l-1.86-2.76-.65.45,1.82,2.71Z" transform="translate(-10.67 28.82)"/><path class="cls-39" d="M328.56,93.29a1.77,1.77,0,0,0-1.22-.48,1.81,1.81,0,1,0,1.81,1.81A1.7,1.7,0,0,0,329,94l.6-.61a.39.39,0,0,0,.11-.28V57.24h0l-.78.5V92.9Z" transform="translate(-10.67 28.82)"/><path class="cls-39" d="M333.12,68.81l5,5v7.74a1.81,1.81,0,1,0,.79,0v-7.9a.43.43,0,0,0-.11-.28l-5-5V54.89l-.79.45V68.53a.44.44,0,0,0,.12.28" transform="translate(-10.67 28.82)"/><path class="cls-39" d="M359.1,87.93l-8.58,8.58h-4.67a.39.39,0,0,0-.27.11L341.24,101a.39.39,0,0,0-.11.28v13.6l-1.41,1.41a1.79,1.79,0,0,0-1.22-.48,1.81,1.81,0,1,0,1.8,1.8,1.74,1.74,0,0,0-.13-.67l1.63-1.61a.44.44,0,0,0,.11-.29V101.4l4.1-4.1h4.68a.4.4,0,0,0,.27-.12l8.81-8.8a.39.39,0,0,0,.12-.28V76.67a.39.39,0,0,0-.12-.28L336.69,53.32l-.75.36L359.1,76.83Z" transform="translate(-10.67 28.82)"/><path class="cls-39" d="M366.91,79.56v20.85l-2.47,2.46a.41.41,0,0,0-.11.28v17.18l-1.74,1.73a1.76,1.76,0,0,0-1.2-.46,1.81,1.81,0,1,0,1.81,1.81,1.65,1.65,0,0,0-.15-.69l1.95-2a.42.42,0,0,0,.12-.28V103.32l2.46-2.47a.42.42,0,0,0,.12-.28V79.72l10.57-10.58c-.21-.16-.42-.32-.64-.47L367,79.28a.39.39,0,0,0-.11.28" transform="translate(-10.67 28.82)"/><path class="cls-39" d="M380.5,72V97.17l-8.3,8.3a.41.41,0,0,0-.11.28v3.15a1.81,1.81,0,1,0,.78,0v-3l8.3-8.3a.36.36,0,0,0,.12-.27V72.11l.44-.45-.64-.46-.47.47a.36.36,0,0,0-.12.28" transform="translate(-10.67 28.82)"/><path class="cls-39" d="M369.92,138.36a1.82,1.82,0,0,0-1.76,1.41h-8.39a.36.36,0,0,0-.28.12l-5.1,5.09h-33a.36.36,0,0,0-.28.12l-1.82,1.82a1.81,1.81,0,1,0,.68,1.41,1.7,1.7,0,0,0-.19-.79l1.77-1.77h33a.4.4,0,0,0,.29-.12l5.09-5.09h8.23a1.74,1.74,0,0,0,.78,1.09c.9-.62,1.82-1.24,2.7-1.87a1.78,1.78,0,0,0-1.72-1.42" transform="translate(-10.67 28.82)"/><path class="cls-39" d="M262.53,138.54a1.81,1.81,0,1,0,0-3.61,1.78,1.78,0,0,0-1.75,1.41H242.9c0,.26.07.52.11.78h17.77a1.81,1.81,0,0,0,1.75,1.42" transform="translate(-10.67 28.82)"/><path class="cls-39" d="M262.53,119.87a1.81,1.81,0,1,0,1.81,1.81,1.81,1.81,0,0,0-1.81-1.81" transform="translate(-10.67 28.82)"/><path class="cls-39" d="M239.91,126.8h7.31l5.63,5.63H271.3a.36.36,0,0,1,.27.12l4.78,4.77h1.25a1.81,1.81,0,1,1,0,.79h-1.41a.39.39,0,0,1-.28-.12l-4.77-4.77H252.68a.36.36,0,0,1-.27-.12l-5.56-5.63H241Z" transform="translate(-10.67 28.82)"/><path class="cls-39" d="M271.25,116.78a1.74,1.74,0,0,0-.29,1,1.83,1.83,0,1,0,.84-1.52l-1.72-1.72a.39.39,0,0,0-.27-.11H237.36c.08.25.15.52.23.78h32Z" transform="translate(-10.67 28.82)"/><path class="cls-39" d="M243,51.34H221a7.48,7.48,0,0,0-.76.79h24.36c-.54-.29-1.08-.55-1.6-.79" transform="translate(-10.67 28.82)"/><path class="cls-39" d="M382.16,102.32a1.81,1.81,0,1,0,2.2-1.76v-27l-.79-.57v27.54a1.83,1.83,0,0,0-1.41,1.76" transform="translate(-10.67 28.82)"/><path class="cls-39" d="M362.08,89.11,351.83,99.36h-3.9a.39.39,0,0,0-.27.11l-4,4a.39.39,0,0,0-.11.28v15.59l-3.8,3.8a1.8,1.8,0,1,0,.54,1.28,1.83,1.83,0,0,0-.11-.61l4-4a.43.43,0,0,0,.11-.28V103.89l3.74-3.75H352a.39.39,0,0,0,.28-.11l10.48-10.48a.39.39,0,0,0,.12-.28V68.69a.36.36,0,0,0-.12-.27L344.61,50.28c-.3.06-.59.14-.89.21l18.36,18.37Z" transform="translate(-10.67 28.82)"/><path class="cls-39" d="M385.21,109.09a1.8,1.8,0,1,0,.56,1.3,1.76,1.76,0,0,0-.12-.63l1.9-1.9a.36.36,0,0,0,.12-.27V76l-.79-.58v32Z" transform="translate(-10.67 28.82)"/><path class="cls-39" d="M387.94,112.59a1.81,1.81,0,1,0,3.61,0,1.83,1.83,0,0,0-1.41-1.76v-33l-.79-.58v33.58a1.83,1.83,0,0,0-1.41,1.76" transform="translate(-10.67 28.82)"/><path class="cls-39" d="M380.6,129.09a1.8,1.8,0,1,0,.85,1.53,1.75,1.75,0,0,0-.29-1L394,116.87a.43.43,0,0,0,.11-.28V79.35l-.78-.58v37.66Z" transform="translate(-10.67 28.82)"/><path class="cls-39" d="M319.07,98.22l3.79,3.78a.36.36,0,0,0,.28.12h6.94a33.73,33.73,0,0,1,3,3V115.5l-4,4a1.81,1.81,0,0,0-2.92,1.42,1.81,1.81,0,1,0,3.61,0,1.71,1.71,0,0,0-.19-.8l4.19-4.19a.41.41,0,0,0,.11-.28V105a.38.38,0,0,0-.1-.27c-3.08-3.42-3.39-3.42-3.58-3.42H323.3l-3.56-3.55V64l-.32.23-.46.33V97.94a.43.43,0,0,0,.11.28" transform="translate(-10.67 28.82)"/><path class="cls-39" d="M249.59,67.22a1.81,1.81,0,1,0-1.71-2.37H217.73c.06.28.1.55.17.84h29.91a1.81,1.81,0,0,0,1.78,1.53" transform="translate(-10.67 28.82)"/><path class="cls-39" d="M321,95.93l2.71,2.7a.4.4,0,0,0,.28.12h8l3.91,3.91v4.44a.41.41,0,0,0,.11.28l.9.89a1.77,1.77,0,0,0-.28,1,1.8,1.8,0,1,0,1.8-1.81,1.74,1.74,0,0,0-1,.29l-.78-.79V102.5a.38.38,0,0,0-.12-.28l-4.15-4.14a.36.36,0,0,0-.27-.12h-8l-2.48-2.47V62.63l-.78.56V95.65a.43.43,0,0,0,.11.28" transform="translate(-10.67 28.82)"/><path class="cls-39" d="M241.18,77a1.81,1.81,0,1,0-1.76-2.2H221.67l.24.5.14.29h17.37A1.83,1.83,0,0,0,241.18,77" transform="translate(-10.67 28.82)"/><path class="cls-39" d="M221.91,75.33c.05.09.09.18.14.28-.05-.1-.09-.19-.14-.28" transform="translate(-10.67 28.82)"/><path class="cls-39" d="M221.67,74.82h0c.08.17.16.33.24.51-.08-.18-.16-.34-.24-.51" transform="translate(-10.67 28.82)"/><path class="cls-39" d="M305.28,122.59a1.81,1.81,0,1,0,1.8,1.81,1.81,1.81,0,0,0-1.8-1.81" transform="translate(-10.67 28.82)"/><path class="cls-39" d="M296.87,148.53a1.81,1.81,0,1,0-.79,0v7.07a.36.36,0,0,0,.12.28l4.55,4.56a.39.39,0,0,0,.28.11h21.78a1.83,1.83,0,0,0,1.76,1.41,1.81,1.81,0,0,0,0-3.61,1.83,1.83,0,0,0-1.76,1.41H301.19l-4.32-4.32Z" transform="translate(-10.67 28.82)"/><path class="cls-39" d="M265.73,156.1a1.81,1.81,0,1,0-1.76-2.2h-18.9c0,.26,0,.52.05.78H264a1.82,1.82,0,0,0,1.76,1.42" transform="translate(-10.67 28.82)"/><path class="cls-39" d="M274.09,152.48a1.81,1.81,0,1,0,1.8,1.81,1.81,1.81,0,0,0-1.8-1.81" transform="translate(-10.67 28.82)"/><path class="cls-39" d="M294.16,161.74a1.81,1.81,0,1,0-.79,0v7.08a.36.36,0,0,0,.12.28l.91.91,1-.08-1.27-1.27Z" transform="translate(-10.67 28.82)"/><path class="cls-39" d="M378,71.45V88.24l-8.82,8.82v20l3.45,3.45a1.86,1.86,0,0,0-.16.74,1.81,1.81,0,1,0,1.8-1.8,1.78,1.78,0,0,0-1.12.4L370,116.75V97.4l8.83-8.82V71.79l1.28-1.29-.68-.49-1.32,1.32Z" transform="translate(-10.67 28.82)"/><path class="cls-39" d="M289.86,85.47a1.81,1.81,0,0,0-.95.27l-4.25-4.26H259.53a1.81,1.81,0,1,0,0,.84h24.78l4,4a1.84,1.84,0,0,0-.27.94,1.81,1.81,0,1,0,1.81-1.81" transform="translate(-10.67 28.82)"/><path class="cls-39" d="M361.15,104a1.79,1.79,0,0,0-1.53,2.75l-3.44,3.44a1.81,1.81,0,1,0-.95,3.34,1.8,1.8,0,0,0,1.8-1.81,1.83,1.83,0,0,0-.26-.93l3.44-3.45a1.78,1.78,0,0,0,.94.27,1.81,1.81,0,0,0,0-3.61" transform="translate(-10.67 28.82)"/><path class="cls-39" d="M403.38,108.1a1.79,1.79,0,0,0-1.74-1.39,1.81,1.81,0,1,0,0,3.61,1.79,1.79,0,0,0,1.74-1.39h3.4c.3-.28.6-.57.89-.83Z" transform="translate(-10.67 28.82)"/><path class="cls-39" d="M421.39,102.94l1.28-1.28-.68-.5-1.78,1.78a11.61,11.61,0,0,1,1.18,0" transform="translate(-10.67 28.82)"/><path class="cls-39" d="M339.79,154.28a1.81,1.81,0,1,0-1.81,1.81,1.91,1.91,0,0,0,.95-.27l2.19,2.19.83-.35-2.44-2.43a1.82,1.82,0,0,0,.28-.95" transform="translate(-10.67 28.82)"/><path class="cls-39" d="M289.19,165.7v-9.49a1.81,1.81,0,1,0-.83,0v8.66h-3.65l-5.53,5.52,1.13.05,4.74-4.74Z" transform="translate(-10.67 28.82)"/><path class="cls-39" d="M401.65,103a1.88,1.88,0,0,0-.22.85,1.81,1.81,0,1,0,1.81-1.81,1.84,1.84,0,0,0-1,.33l-2.8-2.8v-15c-.29-.2-.56-.41-.84-.61v16Z" transform="translate(-10.67 28.82)"/><path class="cls-39" d="M374.4,128.4l5.58-5.58a1.9,1.9,0,0,0,.94.27,1.81,1.81,0,1,0-1.8-1.81,1.75,1.75,0,0,0,.27.94l-5.82,5.83v7.34l3,3,.68-.5L374.4,135Z" transform="translate(-10.67 28.82)"/><path class="cls-39" d="M349.54,115.06v-6.31l10.6-10.6a1.78,1.78,0,0,0,1,.29,1.81,1.81,0,1,0-1.8-1.81,1.79,1.79,0,0,0,.26.92l-10.73,10.74-.13.12v6.65a1.81,1.81,0,1,0,.84,0" transform="translate(-10.67 28.82)"/><path class="cls-39" d="M365.54,72.64a1.81,1.81,0,1,0,2.22-1.75V58.8l-.83-.61v12.7a1.81,1.81,0,0,0-1.39,1.75" transform="translate(-10.67 28.82)"/><path class="cls-39" d="M347,74.47l-7-7a1.76,1.76,0,0,0,.28-.94,1.81,1.81,0,1,0-1.81,1.81,1.76,1.76,0,0,0,.94-.28l6.7,6.7V89.3L339.41,96a1.78,1.78,0,0,0-.91-.25,1.81,1.81,0,1,0,1.81,1.8,1.71,1.71,0,0,0-.3-1l7-7Z" transform="translate(-10.67 28.82)"/><path class="cls-39" d="M304.87,85.16h-7.79l-7.05-7-1.1.09L296.74,86h8.94l0-.4c.15-5.27.17-15.09.13-16.56l-.83.38c0,2.15-.05,13-.13,15.75" transform="translate(-10.67 28.82)"/><path class="cls-39" d="M251.09,58.33H217.46c0,.27-.07.56-.1.84h34.83l-1.1-.84" transform="translate(-10.67 28.82)"/><path class="cls-39" d="M313.55,71.94v30a.39.39,0,0,0,.11.28l7.29,7.28a.36.36,0,0,0,.28.12h2.45a1.81,1.81,0,1,0,0-.78h-2.29l-7.06-7.06v-30a.38.38,0,0,0-.09-.25l-1.32-2.16-.66.43Z" transform="translate(-10.67 28.82)"/><path class="cls-39" d="M245.84,54.63H218.61c-.13.27-.25.54-.37.84h28.85c-.41-.29-.83-.57-1.25-.84" transform="translate(-10.67 28.82)"/><path class="cls-39" d="M219.48,70.28a1.42,1.42,0,0,0,.08.18h11.7a1.8,1.8,0,1,0,.07-.83H219.22c.1.22.16.42.26.65" transform="translate(-10.67 28.82)"/><path class="cls-39" d="M219.48,70.28a1.42,1.42,0,0,0,.08.18,1.42,1.42,0,0,1-.08-.18" transform="translate(-10.67 28.82)"/><path class="cls-39" d="M335.14,148.08l-5.73,5.74H304.74a1.81,1.81,0,1,0,0,.83h25l5.74-5.73h18.39v3.22l.83-.43v-3.63Z" transform="translate(-10.67 28.82)"/><path class="cls-39" d="M410.21,102.08a1.83,1.83,0,1,0,1.53.86l5.36-5.36-.67-.5-5.28,5.28a1.79,1.79,0,0,0-.94-.28" transform="translate(-10.67 28.82)"/></g><g class="cls-40"><rect class="cls-41" x="224.4" y="-10.09" width="195.42" height="237.8" transform="translate(81.02 387.63) rotate(-66)"/></g><g class="cls-42"><rect class="cls-43" x="58.18" y="29.44" width="236.75" height="233.26" transform="translate(-60.81 208.36) rotate(-48)"/></g><g class="cls-44"><rect class="cls-45" x="81.17" y="193.53" width="236.05" height="229.77" transform="translate(-138.19 169.73) rotate(-30)"/></g><g class="cls-46"><rect class="cls-47" x="228.66" y="217.39" width="222.89" height="191.33" transform="translate(-68.33 106.37) rotate(-12)"/></g><g class="cls-48"><rect class="cls-49" x="283.68" y="126.59" width="223.84" height="162.24" transform="translate(137.01 608.24) rotate(-84)"/></g><g class="cls-2"><path d="M466.05,453.6a3.71,3.71,0,1,1-3.71-3.71,3.71,3.71,0,0,1,3.71,3.71" transform="translate(-10.67 28.82)"/><path d="M431.22,503a3.71,3.71,0,1,1-3.71-3.71,3.71,3.71,0,0,1,3.71,3.71" transform="translate(-10.67 28.82)"/><path d="M420.35,503a3.71,3.71,0,1,1-3.71-3.71,3.71,3.71,0,0,1,3.71,3.71" transform="translate(-10.67 28.82)"/><path d="M343.37,493.47h-1.05l.83,0a17,17,0,0,0,2.16-.14,15.31,15.31,0,0,1-1.94.12" transform="translate(-10.67 28.82)"/><path d="M343.15,460.8c-9,0-15.89,7.08-15.89,16.34A16.47,16.47,0,0,0,332.07,489H314.76v17.69H320V493.47h23.38a15.43,15.43,0,0,0,1.94-.12l.31,0,.77-.14a13,13,0,0,0,1.43-.36l.69-.23.57-.22a16,16,0,0,0,10-15.22c0-9.26-6.9-16.34-15.89-16.34m0,28.12c-6.35,0-11.11-5-11.11-11.78s4.76-11.77,11.11-11.77,11.11,5.07,11.11,11.77-4.76,11.78-11.11,11.78" transform="translate(-10.67 28.82)"/><path d="M460,463.23V489H431.22V463.23H426V489H397s0-.07,0-.1a31.82,31.82,0,0,0,2.19-11.78,16,16,0,0,0-9.46-15,15.86,15.86,0,0,0-6.43-1.32c-9,0-15.89,7.07-15.89,16.34a16.52,16.52,0,0,0,4.71,11.78,15.34,15.34,0,0,0,5.25,3.44l.57.22.69.23c.47.14.94.26,1.43.36.25,0,.51.1.77.13l.31.05a15.43,15.43,0,0,0,1.94.12h5.67A23.92,23.92,0,0,1,370.06,502v4.88a28.42,28.42,0,0,0,24.7-13.42H465.2V463.23Zm-65.55,14.54a25.89,25.89,0,0,1-2.68,11.15h-8.41c-6.35,0-11.11-5-11.11-11.78s4.76-11.77,11.11-11.77,11.1,5.07,11.1,11.77c0,.21,0,.42,0,.63" transform="translate(-10.67 28.82)"/><line x1="359.38" y1="535.7" x2="359.38" y2="530.82"/></g><polygon class="cls-50" points="123.22 489.72 123.22 516.54 101.29 489.72 97.64 489.72 97.64 526.25 102.86 526.25 102.86 499.42 124.78 526.25 128.44 526.25 128.44 489.72 123.22 489.72"/><polygon class="cls-50" points="149.11 489.72 149.11 526.25 170.51 526.25 170.51 521.29 154.33 521.29 154.33 509.03 166.33 509.03 166.33 504.07 154.33 504.07 154.33 494.68 169.99 494.68 169.99 489.72 149.11 489.72"/><g class="cls-2"><path class="cls-50" d="M215,460.38c10.34,0,18.27,8.14,18.27,18.79S225.29,498,215,498s-18.27-8.15-18.27-18.79,7.94-18.79,18.27-18.79M215,493c7.47,0,13.05-5.9,13.05-13.83s-5.58-13.83-13.05-13.83-13,6-13,13.83S207.49,493,215,493" transform="translate(-10.67 28.82)"/><polygon class="cls-50" points="258.78 518.42 255.13 518.42 244.43 501.67 244.43 526.25 239.21 526.25 239.21 489.72 242.87 489.72 256.96 512 271.05 489.72 274.7 489.72 274.7 526.25 269.48 526.25 269.48 501.67 258.78 518.42"/></g></g></g></svg>