<svg xmlns="http://www.w3.org/2000/svg" xmlns:xlink="http://www.w3.org/1999/xlink" viewBox="0 0 522.64 174.23"><defs><style>.cls-1{fill:#fff;}.cls-1,.cls-2{fill-rule:evenodd;}.cls-2{fill:#1a6939;}.cls-3{mask:url(#mask);}.cls-4{mask:url(#mask-2-2);}.cls-5{mask:url(#mask-3);}.cls-6{mask:url(#mask-4);}.cls-7{mask:url(#mask-5);}</style><mask id="mask" x="0" y="0.06" width="522.64" height="174.08" maskUnits="userSpaceOnUse"><g id="mask-2"><polygon id="path-1" class="cls-1" points="0 0.07 522.64 0.07 522.64 174.14 0 174.14 0 0.07"/></g></mask><mask id="mask-2-2" x="0" y="0.06" width="522.64" height="174.14" maskUnits="userSpaceOnUse"><g id="mask-2-3" data-name="mask-2"><polygon id="path-1-2" data-name="path-1" class="cls-1" points="0 0.07 522.64 0.07 522.64 174.14 0 174.14 0 0.07"/></g></mask><mask id="mask-3" x="0" y="0.06" width="522.64" height="174.17" maskUnits="userSpaceOnUse"><g id="mask-2-4" data-name="mask-2"><polygon id="path-1-3" data-name="path-1" class="cls-1" points="0 0.07 522.64 0.07 522.64 174.14 0 174.14 0 0.07"/></g></mask><mask id="mask-4" x="0" y="0.06" width="522.64" height="174.17" maskUnits="userSpaceOnUse"><g id="mask-2-5" data-name="mask-2"><polygon id="path-1-4" data-name="path-1" class="cls-1" points="0 0.07 522.64 0.07 522.64 174.14 0 174.14 0 0.07"/></g></mask><mask id="mask-5" x="0" y="0.06" width="522.64" height="174.17" maskUnits="userSpaceOnUse"><g id="mask-2-6" data-name="mask-2"><polygon id="path-1-5" data-name="path-1" class="cls-1" points="0 0.07 522.64 0.07 522.64 174.14 0 174.14 0 0.07"/></g></mask></defs><g id="Layer_2" data-name="Layer 2"><g id="Layer_1-2" data-name="Layer 1"><g id="Desktop"><g id="SAUDI_MADE_main_horizontal_RGB" data-name="SAUDI MADE main horizontal RGB"><path id="Fill-1" class="cls-2" d="M242.82,21.35a24.11,24.11,0,0,0-6.39-3.84,16.93,16.93,0,0,0-6.18-1.26,10,10,0,0,0-6.18,1.8,5.61,5.61,0,0,0-2.4,4.69,4.67,4.67,0,0,0,1.2,3.3A10.44,10.44,0,0,0,226,28.28a26.65,26.65,0,0,0,4.39,1.65c1.63.46,3.25,1,4.84,1.49q9.57,3.19,14,8.54t4.44,13.9a27.22,27.22,0,0,1-1.95,10.48,22,22,0,0,1-5.69,8,26.45,26.45,0,0,1-9.17,5.17,38.29,38.29,0,0,1-12.32,1.85,45.35,45.35,0,0,1-26.44-8.47l8.38-15.76A34,34,0,0,0,215.19,61a20.71,20.71,0,0,0,8.48,1.9c3.19,0,5.57-.74,7.13-2.2a6.77,6.77,0,0,0,1.75-7.92,6.56,6.56,0,0,0-2-2.31,15.88,15.88,0,0,0-3.64-1.93c-1.5-.6-3.31-1.26-5.44-2q-3.78-1.2-7.43-2.64A23.46,23.46,0,0,1,207.56,40,17.64,17.64,0,0,1,203,34a21.42,21.42,0,0,1-1.75-9.24,26.7,26.7,0,0,1,1.85-10.12,22.38,22.38,0,0,1,5.19-7.77,23,23,0,0,1,8.17-5A30.91,30.91,0,0,1,227.26,0a47.4,47.4,0,0,1,11.67,1.55A51.69,51.69,0,0,1,250.6,6.08l-7.78,15.27"/><path id="Fill-2" class="cls-2" d="M306.57,49.27l-8.8-25.12L289,49.27Zm5.21,14.93h-28l-4.5,13.1H258.33L287.06,1.83h21.42L337.2,77.3H316.29l-4.51-13.1Z"/><path id="Fill-3" class="cls-2" d="M362.38,1.83V42.88c0,2.18.09,4.45.26,6.75a18.32,18.32,0,0,0,1.5,6.26,10.41,10.41,0,0,0,3.95,4.54c1.8,1.18,4.34,1.76,7.6,1.76s5.79-.58,7.57-1.76a11,11,0,0,0,3.95-4.54,18.12,18.12,0,0,0,1.55-6.26c.17-2.3.25-4.57.25-6.75V1.83h19.52V45.57q0,17.63-8,25.73t-24.79,8.1q-16.71,0-24.82-8.1t-8.1-25.73V1.83h19.61"/><path id="Fill-4" class="cls-2" d="M444,60.68h4.52a24.13,24.13,0,0,0,9.1-1.6,19.48,19.48,0,0,0,6.76-4.39,19,19,0,0,0,4.2-6.66A23.87,23.87,0,0,0,470,39.56a23.24,23.24,0,0,0-1.5-8.4,18.79,18.79,0,0,0-11-11.11,24,24,0,0,0-9-1.61H444ZM424.34,1.82h29a34.23,34.23,0,0,1,14.46,3.12,39.41,39.41,0,0,1,11.81,8.25,38.26,38.26,0,0,1,8,12,36.51,36.51,0,0,1,2.9,14.35,36.88,36.88,0,0,1-2.85,14.28,38.25,38.25,0,0,1-7.91,12,38.76,38.76,0,0,1-11.81,8.31,34.47,34.47,0,0,1-14.56,3.1h-29V1.82Z"/><g id="Group-12"><g class="cls-3"><polygon id="Fill-5" class="cls-2" points="503.02 77.3 522.64 77.3 522.64 1.82 503.02 1.82 503.02 77.3"/></g><g class="cls-4"><polyline id="Fill-7" class="cls-2" points="260.18 99 245.21 139.09 230.14 99 210.78 99 197.99 174.21 217.46 174.21 223.95 130.92 240.82 174.21 248.6 174.21 266.37 130.92 272.86 174.21 292.32 174.21 279.54 99 260.18 99"/></g><g class="cls-5"><path id="Fill-8" class="cls-2" d="M331.72,99l-28.63,75.23h20.85l4.48-13.08h27.94l4.48,13.08h20.85L353.07,99Zm10.68,22.25,8.77,25.05H333.62l8.78-25.05Z"/></g><g class="cls-6"><path id="Fill-9" class="cls-2" d="M415.4,157.67h4.5a23.93,23.93,0,0,0,9.07-1.6,19.28,19.28,0,0,0,6.74-4.38,19,19,0,0,0,4.18-6.64,23.67,23.67,0,0,0,1.45-8.44,23.25,23.25,0,0,0-1.49-8.37,18.84,18.84,0,0,0-11-11.08,24.05,24.05,0,0,0-9-1.59h-4.5ZM395.86,99h28.93a34.16,34.16,0,0,1,14.41,3.09A39.38,39.38,0,0,1,451,110.33a38.06,38.06,0,0,1,7.93,12,36.95,36.95,0,0,1,.05,28.53,38.19,38.19,0,0,1-7.88,12,38.66,38.66,0,0,1-11.78,8.28,34.16,34.16,0,0,1-14.5,3.09H395.86V99Z"/></g><g class="cls-7"><polyline id="Fill-10" class="cls-2" points="479.85 99 479.85 174.23 522.64 174.23 522.64 157.67 499.39 157.67 499.39 144.7 521.34 144.7 521.34 128.13 499.39 128.13 499.39 115.56 522.64 115.56 522.64 99 479.85 99"/></g><g class="cls-3"><polygon id="Fill-11" class="cls-2" points="0 174.14 174.06 174.14 174.06 0.07 0 0.07 0 174.14"/></g></g><path id="Fill-13" class="cls-1" d="M129.11,81.88a229.9,229.9,0,0,1,14.72,21.57Q139,111.94,133,121.61a280.85,280.85,0,0,0-16.23-23.45c-5.24-6.9-18.67-22.28-18.88-22.5,0,.3,0,67.18,0,73.49h0v.08H76.08c0-6.31,0-73.26,0-73.56-.2.22-13.64,15.6-18.88,22.5A280.85,280.85,0,0,0,41,121.61q-6-9.67-10.86-18.16A227.49,227.49,0,0,1,44.86,81.88C49,76.38,59.14,65,61.67,62.12A147.14,147.14,0,0,0,42.84,66.8,98.15,98.15,0,0,0,32,71.09c-2.29,1.07-3.52,1.76-3.52,1.76A117.57,117.57,0,0,1,33.59,57s1.14-.82,3.3-2.08A78.17,78.17,0,0,1,47.05,50a104,104,0,0,1,17.48-5.18c-.2-.15-4.49-3.61-6.19-4.7-7.82-5-10.89-3.42-10.89-3.42A59.87,59.87,0,0,1,59.16,30,7.31,7.31,0,0,1,61,29.4a14.09,14.09,0,0,1,5.84,0C69.71,30,78.1,33.93,78.24,34c0-.12.4-3.89.54-5.23.41-3.9,1.26-3.66,2-3.72h12.5c.69.06,1.55-.18,2,3.72.14,1.34.53,5.11.54,5.23.15-.08,8.53-4,11.45-4.57a14.14,14.14,0,0,1,5.85,0,7.32,7.32,0,0,1,1.78.63,60.23,60.23,0,0,1,11.72,6.7s-3.08-1.63-10.9,3.42c-1.69,1.09-6,4.55-6.18,4.7A103.82,103.82,0,0,1,126.91,50,77.78,77.78,0,0,1,137.08,55c2.15,1.26,3.3,2.08,3.3,2.08a116.21,116.21,0,0,1,5.13,15.81s-1.22-.69-3.51-1.76a98.47,98.47,0,0,0-10.88-4.29,146.94,146.94,0,0,0-18.82-4.68c2.53,2.84,12.63,14.26,16.81,19.76"/></g></g></g></g></svg>