<svg id="Layer_1" data-name="Layer 1" xmlns="http://www.w3.org/2000/svg" viewBox="0 0 446.28 226.6"><defs><style>.cls-1{fill:#1b4f9e;}.cls-1,.cls-2{fill-rule:evenodd;}.cls-2{fill:#f89721;}</style></defs><path class="cls-1" d="M356.82,322.7l-3.9,4c-4.57,4.44-8.74,5-12.37,1.34s-3.23-7.93,1.21-12.36l4-4c4.58-4.57,8.74-5,12.37-1.34s3.23,7.79-1.34,12.37ZM295,199.69c3.89,5,3.89,6.32-1.75,10.62l-40.06,30.24c-1.21.95-1.61,2.56,1.07,2.56h57c13.72,0,16.14,3.09,16.14,16.13v16.4c0,3.36,1.07,5.65,5.38,5.65h35.62c4.3,0,5.38-2.29,5.38-5.65V250.91c0-7,1.75-7.8,8.06-7.8s8.07.81,8.07,7.8v24.73c0,15.06-3.77,18.82-18.82,18.82H172.24c1.07-9.67,9.68-13.17,21.1-13.17H306.4c3.5,0,4.84-.94,4.84-4.31V260.59c0-3-.8-4.31-4.84-4.31H243.62c-10.48,0-13.58-5.64-13.58-10.48,0-4.44,3.23-8.21,7.53-11.43l46.92-35.63c5.65-4.3,6.59-4,10.49.95Zm111,5.38c0-7,1.75-7.81,8.06-7.81s8.07.81,8.07,7.81v70.57c0,3.36,1.08,5.65,5.38,5.65H480c4.44,0,5.38-2.29,5.38-5.65V250.91c0-7,1.74-7.8,8.06-7.8s8.07.81,8.07,7.8v24.73c0,3.36,1.08,5.65,5.38,5.65h35.62c4.44,0,5.38-2.29,5.38-5.65V250.91c0-7,1.75-7.8,8.07-7.8s8.06.81,8.06,7.8v24.73c0,3.36,1.08,5.65,5.38,5.65h26.89c4.43,0,5.37-2.29,5.37-5.65V250.91c0-7,1.75-7.8,8.07-7.8s8.07.81,8.07,7.8v24.73c0,15.06-3.77,18.82-18.82,18.82H424.84c-15.06,0-18.82-3.76-18.82-18.82V205.07Z" transform="translate(-172.24 -195.72)"/><path class="cls-2" d="M543.84,414.2c0-19.09,17.25-44,50.88-44,3.85,0,5.13,2.56,5.13,6v16.67c0,4.71-.43,6.13-5.84,6.13s-5.85-1.42-5.85-6.13v-8.69c0-1.56-.28-1.85-.85-1.85-18,0-31.21,18.67-31.21,26.93,0,1.28.14,2,3.14,2H602.7c8.12,0,14.82,2.56,15.82,10.69H552.25c-4.84,0-8.41-1.43-8.41-7.7Zm-19.52,1.85V382.7c0-.71-.29-.85-1.28-.85h-2.42c-4.85,0-6.28-1.28-6.28-5.56s1.43-5.55,6.28-5.55h10.11c3.42,0,5.56,1.42,5.56,5.27v40c0,5.42-1.57,6.27-6,6.27s-6-.85-6-6.27Zm-59,5.85c-11.12,0-14.11-3-14.11-14V334.11c0-5.41,1.57-6.12,6.42-6.12s6.41.71,6.41,6.12v73.82c0,2.14.57,3.28,3.14,3.28h32.91c3,0,3.14-.72,3.14-2,0-5.41-7.55-20.66-30.64-27.79-4-1.14-4.42-3.42-3.14-7.12,1.57-4.28,4.14-4.13,7.42-3.28,27.21,8,38.76,25.8,38.76,43.18,0,6.27-3.71,7.7-8.41,7.7Zm-79.38,0c-4.7,0-8.41-1.43-8.41-7.7,0-26.51,29.08-44,40.19-44,3.85,0,5.13,2.56,5.13,6v16.67c0,4.71-.28,6.13-5.84,6.13-5.41,0-5.84-1.42-5.84-6.13v-8.55c0-.28,0-.42-.29-.42-4.7,0-20.95,14-20.95,25.36,0,1.28.15,2,3.14,2h33.35c2.56,0,3.13-1.14,3.13-3.28V362.75c0-5.41,1.57-6.26,6.41-6.26s6.42.85,6.42,6.26v45.18c0,11-3,14-14.11,14Zm146.51-65.13-2.72,2.71c-3.7,3.7-7,4-9.83,1.14s-2.56-6.27,1-9.83l2.71-2.85c3.7-3.57,7-4,9.83-1s2.57,6.12-1,9.83Zm-173,65.13c9.83,0,12.11-2.43,12.11-12.12v-5.55c0-9.7-2-12.12-12.11-12.12H327c-.43,0-.72-.14-.72-.57,0-1.28,13.83-9.83,40-10.4,4-.15,5-1.85,4.7-5.7-.14-3.28-1.28-5.27-6.13-5.27-34.77,0-54.58,16.95-54.58,26.07,0,4,2.32,6.56,11.35,6.56H356c2.56,0,2.85.57,2.85,2.42v3.56c0,2-.57,2.43-2.85,2.43H309.85c-8.13,0-14.83,2.56-15.68,10.69Z" transform="translate(-172.24 -195.72)"/></svg>