<svg xmlns="http://www.w3.org/2000/svg" viewBox="0 0 87.66 87.35"><defs><style>.cls-1{fill:none;stroke:#000;stroke-miterlimit:10;}</style></defs><g id="Layer_2" data-name="Layer 2"><g id="Layer_1-2" data-name="Layer 1"><line class="cls-1" x1="42" y1="28.24" x2="42" y2="4.37"/><line class="cls-1" x1="42" y1="53.65" x2="42" y2="27.93"/><path class="cls-1" d="M.5,51.36V81c0,1.66,2.45,3.16,6.38,4.22a38.26,38.26,0,0,0,3.76.81,64,64,0,0,0,10.61.83,70.32,70.32,0,0,0,7.17-.36,43.35,43.35,0,0,0,8.31-1.6C40,83.86,42,82.49,42,81V53.65"/><line class="cls-1" x1="0.5" y1="25.26" x2="0.5" y2="53.65"/><line class="cls-1" x1="0.5" y1="4.37" x2="0.5" y2="27.37"/><path class="cls-1" d="M42,53.15v2.22c0,1.2-1.38,2.31-3.73,3.22a37.68,37.68,0,0,1-9.18,2,71.21,71.21,0,0,1-7.84.41A65.24,65.24,0,0,1,9.46,60a34,34,0,0,1-4.15-1C2.31,58,.5,56.74.5,55.37V53.15"/><path class="cls-1" d="M42,53.15c0,3.11-9.29,5.64-20.75,5.64S.5,56.26.5,53.15"/><path class="cls-1" d="M41.34,30.5a8.61,8.61,0,0,1-3.07,1.81,38.2,38.2,0,0,1-9.18,2,71.11,71.11,0,0,1-7.84.42,65.18,65.18,0,0,1-11.79-1,34,34,0,0,1-4.15-1c-3-1-4.81-2.24-4.81-3.61V26.86"/><path class="cls-1" d="M42,26.86v2.22a2,2,0,0,1-.67,1.42"/><path class="cls-1" d="M42,26.86C42,30,32.71,32.5,21.25,32.5S.5,30,.5,26.86"/><ellipse class="cls-1" cx="21.25" cy="4.37" rx="20.75" ry="3.87"/><path class="cls-1" d="M21.25.83c-11,0-20,1.59-20,3.54a1,1,0,0,0,.43.73c1.91-1.6,10-2.8,19.57-2.8S38.91,3.5,40.82,5.1a1,1,0,0,0,.43-.73C41.25,2.42,32.3.83,21.25.83Z"/><line class="cls-1" x1="87.16" y1="28.24" x2="87.16" y2="4.37"/><line class="cls-1" x1="87.16" y1="53.65" x2="87.16" y2="27.93"/><path class="cls-1" d="M45.65,51.36V81c0,1.66,2.45,3.16,6.38,4.22,1.13.31,2.4.58,3.76.81a64,64,0,0,0,10.61.83,70.32,70.32,0,0,0,7.17-.36,43.35,43.35,0,0,0,8.31-1.6c3.28-1,5.28-2.4,5.28-3.9V53.65"/><line class="cls-1" x1="45.65" y1="25.26" x2="45.65" y2="53.65"/><line class="cls-1" x1="45.65" y1="4.37" x2="45.65" y2="27.37"/><path class="cls-1" d="M87.16,53.15v2.22c0,1.2-1.39,2.31-3.74,3.22a37.46,37.46,0,0,1-9.18,2A71.07,71.07,0,0,1,66.4,61a65.24,65.24,0,0,1-11.79-1,34,34,0,0,1-4.15-1c-3-1-4.81-2.24-4.81-3.61V53.15"/><path class="cls-1" d="M87.16,53.15c0,3.11-9.29,5.64-20.76,5.64s-20.75-2.53-20.75-5.64"/><path class="cls-1" d="M86.49,30.5a8.61,8.61,0,0,1-3.07,1.81,38,38,0,0,1-9.18,2,71,71,0,0,1-7.84.42,65.18,65.18,0,0,1-11.79-1,34,34,0,0,1-4.15-1c-3-1-4.81-2.24-4.81-3.61V26.86"/><path class="cls-1" d="M87.16,26.86v2.22a2.06,2.06,0,0,1-.68,1.42"/><path class="cls-1" d="M87.16,26.86c0,3.11-9.3,5.64-20.76,5.64S45.65,30,45.65,26.86"/><ellipse class="cls-1" cx="66.4" cy="4.37" rx="20.75" ry="3.87"/><path class="cls-1" d="M66.4.83c-11,0-20,1.59-20,3.54a1,1,0,0,0,.43.73c1.91-1.6,10-2.8,19.57-2.8S84.07,3.5,86,5.1a1,1,0,0,0,.43-.73C86.4,2.42,77.45.83,66.4.83Z"/></g></g></svg>