<svg xmlns="http://www.w3.org/2000/svg" viewBox="0 0 82.82 39.18"><defs><style>.cls-1{fill:none;}.cls-1,.cls-2{stroke:#231f20;stroke-miterlimit:10;}.cls-2{fill:#fff;}.cls-3{fill:#231f20;}</style></defs><g id="Layer_2" data-name="Layer 2"><g id="Layer_1-2" data-name="Layer 1"><path class="cls-1" d="M41.41,38.68c-10.89,0-21.14-1-28.84-2.86S.5,31.45.5,28.76V12.43c0-2.69,4.29-5.2,12.07-7.06s18-2.86,28.84-2.86,21.14,1,28.85,2.86,12.06,4.37,12.06,7.06V28.76c0,2.69-4.28,5.2-12.06,7.06S52.31,38.68,41.41,38.68Z"/><path class="cls-2" d="M81.56,29.58c.89-2-.26-5.79-1.31-7.12-2.79-3.54-6.79-3.9-10.39-5.08-4.7-1.56-9.25-3.49-13.07-7.47A31,31,0,0,0,51,4.73,27.52,27.52,0,0,0,37.79.52c-4.27-.17-8.65.69-12.26,3.78-2.06,1.76-4,3.74-6,5.62a69.3,69.3,0,0,1-13.2,9.9C3.88,21.22.94,24.26.94,28c0,7,18.17,10.48,40.8,10.48C62.53,38.51,78.89,35.76,81.56,29.58Z"/><path class="cls-1" d="M70.26,5.37C78,7.23,82.32,9.74,82.32,12.43S78,17.64,70.26,19.5s-18,2.86-28.85,2.86-21.14-1-28.84-2.86S.5,15.13.5,12.43s4.29-5.2,12.07-7.06"/><path d="M14.43,27.26a.17.17,0,0,1-.14.18.19.19,0,0,1,0-.36A.17.17,0,0,1,14.43,27.26Z"/><path class="cls-3" d="M14.29,27.79a.53.53,0,1,1,.49-.53A.51.51,0,0,1,14.29,27.79Zm0-.7a.17.17,0,1,0,0,.34.17.17,0,1,0,0-.34Z"/><path d="M17.78,25.65a.16.16,0,0,1-.14.18c-.07,0-.13-.08-.13-.18s.06-.18.13-.18A.16.16,0,0,1,17.78,25.65Z"/><path class="cls-3" d="M17.64,26.18a.53.53,0,1,1,.49-.53A.51.51,0,0,1,17.64,26.18Zm0-.7a.17.17,0,1,0,0,.34.18.18,0,1,0,0-.34Z"/><path d="M6,29.48a.18.18,0,1,1-.18-.22A.2.2,0,0,1,6,29.48Z"/><path class="cls-3" d="M5.77,30.05a.57.57,0,0,1,0-1.14.57.57,0,0,1,0,1.14Zm0-.7a.17.17,0,0,0-.17.13.16.16,0,0,0,.17.13c.1,0,.18-.07.18-.13A.17.17,0,0,0,5.77,29.35Z"/><path d="M8.31,28.47c0,.07,0,.13-.1.13a.13.13,0,0,1,0-.26C8.27,28.34,8.31,28.4,8.31,28.47Z"/><path class="cls-3" d="M8.21,29a.48.48,0,1,1,.45-.48A.47.47,0,0,1,8.21,29Zm0-.7a.22.22,0,1,0,0,.44.22.22,0,1,0,0-.44Z"/><path d="M9.68,28.82c0,.07,0,.13-.1.13a.13.13,0,0,1,0-.26C9.64,28.69,9.68,28.75,9.68,28.82Z"/><path class="cls-3" d="M9.58,29.3a.48.48,0,1,1,.45-.48A.47.47,0,0,1,9.58,29.3Zm0-.71a.24.24,0,0,0-.25.23.25.25,0,0,0,.5,0A.24.24,0,0,0,9.58,28.59Z"/><path d="M8.92,28.65a.12.12,0,0,1-.1.13c-.06,0-.1-.06-.1-.13s0-.14.1-.14S8.92,28.57,8.92,28.65Z"/><path class="cls-3" d="M8.82,29.13a.49.49,0,0,1,0-1,.49.49,0,0,1,0,1Zm0-.7a.22.22,0,1,0,0,.44.22.22,0,1,0,0-.44Z"/><path d="M16.86,23.3c0,.08-.05.15-.11.15a.14.14,0,0,1-.12-.15c0-.09.05-.16.12-.16S16.86,23.21,16.86,23.3Z"/><path class="cls-3" d="M16.75,23.8a.51.51,0,1,1,.46-.5A.49.49,0,0,1,16.75,23.8Zm0-.7a.22.22,0,0,0-.24.2.23.23,0,0,0,.24.2.23.23,0,0,0,.23-.2A.22.22,0,0,0,16.75,23.1Z"/><path d="M6.8,28.69a.15.15,0,1,1-.3,0,.15.15,0,1,1,.3,0Z"/><path class="cls-3" d="M6.65,29.23a.54.54,0,0,1,0-1.08.54.54,0,0,1,0,1.08Zm0-.7a.2.2,0,0,0-.2.16.21.21,0,0,0,.4,0A.19.19,0,0,0,6.65,28.53Z"/><path d="M10,27.9a.14.14,0,1,1-.14-.18A.16.16,0,0,1,10,27.9Z"/><path class="cls-3" d="M9.86,28.43a.53.53,0,1,1,.49-.53A.51.51,0,0,1,9.86,28.43Zm0-.7a.17.17,0,1,0,0,.34.17.17,0,1,0,0-.34Z"/><path d="M14.56,30.63c0,.08-.05.15-.11.15a.14.14,0,0,1-.12-.15c0-.09.05-.16.12-.16S14.56,30.54,14.56,30.63Z"/><path class="cls-3" d="M14.45,31.13a.51.51,0,0,1,0-1,.51.51,0,0,1,0,1Zm0-.7a.2.2,0,1,0,0,.39.2.2,0,1,0,0-.39Z"/><path d="M13.22,27.63a.07.07,0,1,1-.07-.09A.08.08,0,0,1,13.22,27.63Z"/><path class="cls-3" d="M13.15,28.07a.44.44,0,1,1,.42-.44A.43.43,0,0,1,13.15,28.07Zm0-.7a.27.27,0,1,0,0,.53.27.27,0,1,0,0-.53Z"/><path d="M13.7,28.68a.07.07,0,1,1-.07-.09A.08.08,0,0,1,13.7,28.68Z"/><path class="cls-3" d="M13.63,29.12a.44.44,0,1,1,.42-.44A.43.43,0,0,1,13.63,29.12Zm0-.7a.26.26,0,1,0,.28.26A.28.28,0,0,0,13.63,28.42Z"/><path d="M13.17,28.56a.07.07,0,1,1-.07-.09A.08.08,0,0,1,13.17,28.56Z"/><path class="cls-3" d="M13.1,29a.44.44,0,1,1,.42-.44A.43.43,0,0,1,13.1,29Zm0-.7a.26.26,0,1,0,.28.26A.28.28,0,0,0,13.1,28.3Z"/><path d="M12,27.48a.07.07,0,1,1-.14,0,.07.07,0,1,1,.14,0Z"/><path class="cls-3" d="M12,27.92a.44.44,0,1,1,.42-.44A.43.43,0,0,1,12,27.92Zm0-.7a.27.27,0,1,0,0,.53.27.27,0,1,0,0-.53Z"/><path d="M11.4,31.79a.17.17,0,0,1-.15.19c-.08,0-.14-.09-.14-.19s.06-.2.14-.2S11.4,31.68,11.4,31.79Z"/><path class="cls-3" d="M11.25,32.33a.55.55,0,1,1,.5-.54A.52.52,0,0,1,11.25,32.33Zm0-.7a.19.19,0,0,0-.2.16.2.2,0,0,0,.2.16.2.2,0,0,0,.21-.16A.19.19,0,0,0,11.25,31.63Z"/><path d="M12.52,26.87c0,.07,0,.13-.1.13s-.1-.06-.1-.13,0-.14.1-.14S12.52,26.79,12.52,26.87Z"/><path class="cls-3" d="M12.42,27.35a.49.49,0,1,1,.45-.48A.47.47,0,0,1,12.42,27.35Zm0-.7a.22.22,0,1,0,0,.44.22.22,0,1,0,0-.44Z"/><path d="M10.16,31.4c0,.1-.06.18-.13.18a.19.19,0,0,1,0-.36C10.1,31.22,10.16,31.3,10.16,31.4Z"/><path class="cls-3" d="M10,31.93a.51.51,0,0,1-.49-.53.49.49,0,1,1,1,0A.51.51,0,0,1,10,31.93Zm0-.71a.21.21,0,0,0-.22.18.2.2,0,0,0,.22.17.2.2,0,0,0,.21-.17A.21.21,0,0,0,10,31.22Z"/><path d="M11.69,27.39c0,.09,0,.15-.12.15a.14.14,0,0,1-.12-.15.14.14,0,0,1,.12-.15A.14.14,0,0,1,11.69,27.39Z"/><path class="cls-3" d="M11.57,27.9a.49.49,0,0,1-.47-.51.47.47,0,1,1,.47.51Zm0-.71a.23.23,0,0,0-.23.2.22.22,0,0,0,.23.2.22.22,0,0,0,.23-.2A.22.22,0,0,0,11.57,27.19Z"/><path d="M11.45,28.68c0,.05,0,.09-.06.09a.09.09,0,0,1,0-.18S11.45,28.63,11.45,28.68Z"/><path class="cls-3" d="M11.39,29.12a.44.44,0,0,1,0-.88.44.44,0,0,1,0,.88Zm0-.7a.26.26,0,1,0,.28.26A.28.28,0,0,0,11.39,28.42Z"/><path d="M12.2,28.77a.09.09,0,0,1-.08.1.1.1,0,0,1-.08-.1c0-.06,0-.11.08-.11S12.2,28.71,12.2,28.77Z"/><path class="cls-3" d="M12.12,29.22a.44.44,0,0,1-.43-.45.43.43,0,1,1,.86,0A.44.44,0,0,1,12.12,29.22Zm0-.7a.25.25,0,1,0,0,.49.25.25,0,1,0,0-.49Z"/><path d="M8.21,29.07c0,.11-.06.19-.15.19s-.14-.08-.14-.19.06-.19.14-.19A.17.17,0,0,1,8.21,29.07Z"/><path class="cls-3" d="M8.06,29.61a.54.54,0,0,1,0-1.08.54.54,0,0,1,0,1.08Zm0-.7a.2.2,0,0,0-.2.16.19.19,0,0,0,.2.16.19.19,0,0,0,.21-.16A.2.2,0,0,0,8.06,28.91Z"/><path d="M10.31,27.31c-.1,0-.18-.07-.2-.19a.23.23,0,0,1,.15-.25c.09,0,.18.07.2.19A.23.23,0,0,1,10.31,27.31Z"/><path class="cls-3" d="M10.28,27.66a.46.46,0,0,1-.29-.1.55.55,0,0,1-.23-.4.57.57,0,0,1,.44-.63.44.44,0,0,1,.38.09.54.54,0,0,1,.22.4.56.56,0,0,1-.43.64h-.09Zm0-.69c-.09,0-.15.08-.14.13a.15.15,0,0,0,.05.08.22.22,0,0,0,.13,0Zm0,0h0l0,.25h0c.08,0,.14-.09.13-.14a.15.15,0,0,0-.05-.08A.28.28,0,0,0,10.28,27Z"/><path d="M17.13,23.48a.1.1,0,0,1-.11-.11.12.12,0,0,1,.08-.14s.1,0,.11.1A.13.13,0,0,1,17.13,23.48Z"/><path class="cls-3" d="M17,23.85l-.19-.11a.46.46,0,0,1-.18-.33.47.47,0,0,1,.37-.53l.15,0,.18.11a.46.46,0,0,1,.19.34.46.46,0,0,1-.37.52Zm.12-.52v.24a.24.24,0,0,0,.2-.24.22.22,0,0,0-.1-.15Zm-.09-.2a.21.21,0,0,0-.12.39l.11-.14Zm0,0Z"/><path d="M8.83,27.14c-.06,0-.11,0-.12-.11s0-.14.09-.14.1,0,.11.1A.13.13,0,0,1,8.83,27.14Z"/><path class="cls-3" d="M8.74,27.51l-.18-.11a.42.42,0,0,1-.19-.33.47.47,0,0,1,.37-.53l.15,0,.18.11a.49.49,0,0,1,.19.33.47.47,0,0,1-.37.53ZM8.86,27v.24a.24.24,0,0,0,.2-.24A.2.2,0,0,0,9,26.84Zm-.1-.2a.24.24,0,0,0-.2.24.24.24,0,0,0,.09.15L8.76,27Z"/><path d="M16.09,23.59c-.06,0-.11,0-.12-.11a.13.13,0,0,1,.09-.15c.05,0,.1,0,.11.11A.13.13,0,0,1,16.09,23.59Z"/><path class="cls-3" d="M16,24l-.19-.11a.51.51,0,0,1-.19-.33A.49.49,0,0,1,16,23l.15,0,.19.1a.46.46,0,0,1,.19.34.47.47,0,0,1-.37.53Zm.12-.52v.23a.23.23,0,0,0,.2-.23.24.24,0,0,0-.09-.15Zm-.1-.19a.23.23,0,0,0-.2.23.24.24,0,0,0,.09.15l.11-.15v-.23Z"/><path d="M27.47,22.35a.12.12,0,0,1-.1.13c-.06,0-.1-.06-.1-.13s0-.13.1-.13A.12.12,0,0,1,27.47,22.35Z"/><path class="cls-3" d="M27.37,22.83a.48.48,0,0,1,0-1,.48.48,0,0,1,0,1Zm0-.7a.22.22,0,1,0,0,.44.22.22,0,1,0,0-.44Z"/><path d="M27.37,23a.15.15,0,1,1-.3,0,.15.15,0,1,1,.3,0Z"/><path class="cls-3" d="M27.22,23.49a.54.54,0,0,1,0-1.08.54.54,0,0,1,0,1.08Zm0-.7A.19.19,0,0,0,27,23a.18.18,0,0,0,.2.16.19.19,0,0,0,.2-.16A.2.2,0,0,0,27.22,22.79Z"/><path d="M21,22.2c0,.07,0,.13-.1.13s-.09-.06-.09-.13,0-.12.09-.12S21,22.13,21,22.2Z"/><path class="cls-3" d="M20.89,22.68a.48.48,0,0,1,0-.95.48.48,0,0,1,0,.95Zm0-.7a.23.23,0,1,0,0,.45.23.23,0,1,0,0-.45Z"/><path d="M22.36,22.55c0,.07,0,.13-.1.13s-.09-.06-.09-.13,0-.12.09-.12S22.36,22.48,22.36,22.55Z"/><path class="cls-3" d="M22.26,23a.48.48,0,0,1,0-1,.48.48,0,0,1,0,1Zm0-.7a.23.23,0,1,0,0,.45.23.23,0,1,0,0-.45Z"/><path d="M21.6,22.38c0,.08,0,.13-.1.13s-.1-.05-.1-.13,0-.13.1-.13S21.6,22.31,21.6,22.38Z"/><path class="cls-3" d="M21.5,22.86a.46.46,0,0,1-.45-.48.45.45,0,1,1,.9,0A.46.46,0,0,1,21.5,22.86Zm0-.7a.22.22,0,1,0,0,.44.22.22,0,1,0,0-.44Z"/><path d="M22.68,21.63a.16.16,0,0,1-.14.18c-.07,0-.13-.08-.13-.18s.06-.17.13-.17A.16.16,0,0,1,22.68,21.63Z"/><path class="cls-3" d="M22.54,22.16a.51.51,0,0,1-.49-.53.49.49,0,1,1,1,0A.51.51,0,0,1,22.54,22.16Zm0-.7a.18.18,0,1,0,0,.35.18.18,0,1,0,0-.35Z"/><path d="M22.06,22.21a.15.15,0,1,1-.3,0,.15.15,0,1,1,.3,0Z"/><path class="cls-3" d="M21.91,22.75a.52.52,0,0,1-.5-.54.51.51,0,0,1,.5-.54.54.54,0,0,1,0,1.08Zm0-.7a.18.18,0,0,0-.2.16.21.21,0,0,0,.4,0A.18.18,0,0,0,21.91,22.05Z"/><path d="M21.57,22.63a.17.17,0,0,1-.14.18.19.19,0,0,1,0-.36A.17.17,0,0,1,21.57,22.63Z"/><path class="cls-3" d="M21.43,23.16a.53.53,0,1,1,.49-.53A.51.51,0,0,1,21.43,23.16Zm0-.7a.17.17,0,1,0,0,.34.17.17,0,1,0,0-.34Z"/><path d="M20.89,22.81c0,.1-.06.19-.14.19a.17.17,0,0,1-.15-.19c0-.11.06-.19.15-.19S20.89,22.7,20.89,22.81Z"/><path class="cls-3" d="M20.75,23.35a.54.54,0,1,1,.49-.54A.52.52,0,0,1,20.75,23.35Zm0-.7a.19.19,0,0,0-.21.16.2.2,0,0,0,.21.16.2.2,0,0,0,.2-.16A.19.19,0,0,0,20.75,22.65Z"/><path d="M21.51,20.87a.1.1,0,0,1-.11-.11.12.12,0,0,1,.08-.14c.05,0,.1,0,.11.11A.12.12,0,0,1,21.51,20.87Z"/><path class="cls-3" d="M21.42,21.24l-.18-.1a.46.46,0,0,1-.19-.34.46.46,0,0,1,.36-.52l.16,0,.18.1a.46.46,0,0,1,.19.34.48.48,0,0,1-.36.53Zm.12-.52V21a.23.23,0,0,0,.21-.23.26.26,0,0,0-.09-.16Zm-.1-.19a.24.24,0,0,0-.2.24.27.27,0,0,0,.09.15l.12-.15Z"/><path d="M23.73,18.58a.14.14,0,1,1-.14-.18A.16.16,0,0,1,23.73,18.58Z"/><path class="cls-3" d="M23.59,19.11a.53.53,0,1,1,.49-.53A.51.51,0,0,1,23.59,19.11Zm0-.7a.2.2,0,0,0-.21.17.19.19,0,0,0,.21.17.17.17,0,1,0,0-.34Z"/><path d="M20.16,18.91a.12.12,0,0,1-.1.13C20,19,20,19,20,18.91s0-.12.1-.12A.11.11,0,0,1,20.16,18.91Z"/><path class="cls-3" d="M20.06,19.39a.48.48,0,1,1,.45-.48A.46.46,0,0,1,20.06,19.39Zm0-.7a.24.24,0,0,0-.25.22.24.24,0,0,0,.25.23.25.25,0,0,0,.25-.23A.24.24,0,0,0,20.06,18.69Z"/><path d="M20.76,20.4c0,.09-.05.16-.12.16a.15.15,0,0,1-.12-.16.14.14,0,0,1,.12-.15A.14.14,0,0,1,20.76,20.4Z"/><path class="cls-3" d="M20.64,20.91a.51.51,0,1,1,.47-.51A.49.49,0,0,1,20.64,20.91Zm0-.71a.22.22,0,0,0-.23.2.23.23,0,0,0,.46,0A.23.23,0,0,0,20.64,20.2Z"/><path d="M20.64,18.8c-.07,0-.14-.05-.15-.15s0-.19.11-.2.15.05.16.15A.17.17,0,0,1,20.64,18.8Z"/><path class="cls-3" d="M20.62,19.15a.44.44,0,0,1-.27-.09.52.52,0,0,1-.21-.37.53.53,0,0,1,.4-.59.46.46,0,0,1,.36.09.52.52,0,0,1,.21.37.53.53,0,0,1-.4.59Zm0-.69a.18.18,0,0,0-.17.18.19.19,0,0,0,.07.11.26.26,0,0,0,.19,0,.2.2,0,0,0,.17-.18.21.21,0,0,0-.08-.11.22.22,0,0,0-.18,0Z"/><path d="M21.46,17c-.05,0-.1,0-.11-.11a.12.12,0,0,1,.08-.14.1.1,0,0,1,.12.1C21.55,16.91,21.52,17,21.46,17Z"/><path class="cls-3" d="M21.38,17.36l-.19-.11a.51.51,0,0,1-.19-.33.47.47,0,0,1,.37-.53l.15,0,.19.11a.48.48,0,0,1,.18.34.47.47,0,0,1-.36.52Zm.12-.52v.24a.21.21,0,0,0,.12-.39Zm-.11-.2a.23.23,0,0,0-.19.24.2.2,0,0,0,.09.15l.11-.15Z"/><path d="M27.08,17c0,.1-.06.18-.13.18a.19.19,0,0,1,0-.36C27,16.79,27.08,16.87,27.08,17Z"/><path class="cls-3" d="M26.94,17.5a.53.53,0,0,1,0-1.06.51.51,0,0,1,.49.53A.51.51,0,0,1,26.94,17.5Zm0-.7a.17.17,0,1,0,0,.34.18.18,0,1,0,0-.34Z"/><path d="M15.25,20.8a.18.18,0,1,1-.18-.22A.2.2,0,0,1,15.25,20.8Z"/><path class="cls-3" d="M15.07,21.37a.57.57,0,1,1,.53-.57A.55.55,0,0,1,15.07,21.37Zm0-.7a.17.17,0,0,0-.17.13.16.16,0,0,0,.17.13c.1,0,.18-.07.18-.13A.17.17,0,0,0,15.07,20.67Z"/><path d="M17.61,19.79c0,.07,0,.13-.1.13a.13.13,0,0,1,0-.26C17.57,19.66,17.61,19.72,17.61,19.79Z"/><path class="cls-3" d="M17.51,20.27a.48.48,0,0,1,0-1,.48.48,0,0,1,0,1Zm0-.7a.22.22,0,1,0,0,.44.22.22,0,1,0,0-.44Z"/><path d="M19,20.14c0,.07,0,.13-.1.13a.13.13,0,0,1,0-.26C18.94,20,19,20.07,19,20.14Z"/><path class="cls-3" d="M18.88,20.62a.48.48,0,1,1,.45-.48A.47.47,0,0,1,18.88,20.62Zm0-.71a.25.25,0,0,0-.25.23.24.24,0,0,0,.25.22.24.24,0,0,0,.25-.22A.24.24,0,0,0,18.88,19.91Z"/><path d="M18.22,20c0,.07,0,.13-.1.13S18,20,18,20s0-.13.1-.13S18.22,19.89,18.22,20Z"/><path class="cls-3" d="M18.12,20.45a.49.49,0,1,1,.45-.48A.47.47,0,0,1,18.12,20.45Zm0-.7a.22.22,0,1,0,.25.22A.24.24,0,0,0,18.12,19.75Z"/><path d="M26.16,14.62c0,.08-.05.15-.11.15a.14.14,0,0,1-.12-.15c0-.09.05-.16.12-.16S26.16,14.53,26.16,14.62Z"/><path class="cls-3" d="M26.05,15.12a.51.51,0,0,1,0-1,.51.51,0,0,1,0,1Zm0-.7a.2.2,0,1,0,0,.39.2.2,0,1,0,0-.39Z"/><path d="M16.1,20a.15.15,0,1,1-.3,0,.15.15,0,1,1,.3,0Z"/><path class="cls-3" d="M16,20.55a.54.54,0,0,1,0-1.08.54.54,0,0,1,0,1.08Zm0-.7a.2.2,0,0,0-.2.16.19.19,0,0,0,.2.16.18.18,0,0,0,.2-.16A.19.19,0,0,0,16,19.85Z"/><path d="M19.3,19.22a.16.16,0,0,1-.14.18.19.19,0,0,1,0-.36A.16.16,0,0,1,19.3,19.22Z"/><path class="cls-3" d="M19.16,19.75a.53.53,0,1,1,.49-.53A.51.51,0,0,1,19.16,19.75Zm0-.7a.17.17,0,1,0,0,.34.18.18,0,1,0,0-.34Z"/><path d="M23.87,22a.14.14,0,0,1-.12.15.14.14,0,0,1-.12-.15c0-.09.05-.16.12-.16A.15.15,0,0,1,23.87,22Z"/><path class="cls-3" d="M23.75,22.45a.51.51,0,1,1,.47-.5A.49.49,0,0,1,23.75,22.45Zm0-.7a.2.2,0,1,0,0,.39.2.2,0,1,0,0-.39Z"/><path d="M22.52,19a.07.07,0,1,1-.07-.09A.08.08,0,0,1,22.52,19Z"/><path class="cls-3" d="M22.45,19.39a.44.44,0,1,1,.42-.44A.43.43,0,0,1,22.45,19.39Zm0-.7a.27.27,0,1,0,0,.53.27.27,0,1,0,0-.53Z"/><path d="M23,20a.07.07,0,1,1-.07-.09A.08.08,0,0,1,23,20Z"/><path class="cls-3" d="M22.93,20.44a.44.44,0,1,1,.42-.44A.43.43,0,0,1,22.93,20.44Zm0-.7a.26.26,0,0,0-.28.26.28.28,0,0,0,.28.26.27.27,0,0,0,.28-.26A.26.26,0,0,0,22.93,19.74Z"/><path d="M22.47,19.88a.07.07,0,1,1-.07-.09A.08.08,0,0,1,22.47,19.88Z"/><path class="cls-3" d="M22.4,20.32a.44.44,0,1,1,.43-.44A.43.43,0,0,1,22.4,20.32Zm0-.7a.26.26,0,1,0,0,.52.26.26,0,1,0,0-.52Z"/><path d="M21.32,18.8a.08.08,0,0,1-.07.09s-.06,0-.06-.09,0-.08.06-.08A.08.08,0,0,1,21.32,18.8Z"/><path class="cls-3" d="M21.25,19.24a.44.44,0,0,1,0-.87.44.44,0,0,1,0,.87Zm0-.7a.27.27,0,1,0,0,.53.27.27,0,1,0,0-.53Z"/><path d="M20.7,23.11c0,.1-.06.19-.14.19a.17.17,0,0,1-.15-.19c0-.11.06-.2.15-.2S20.7,23,20.7,23.11Z"/><path class="cls-3" d="M20.56,23.65a.55.55,0,0,1,0-1.09.55.55,0,0,1,0,1.09Zm0-.7a.19.19,0,0,0-.21.16.2.2,0,0,0,.21.16.2.2,0,0,0,.2-.16A.19.19,0,0,0,20.56,23Z"/><path d="M21.82,18.19c0,.07,0,.13-.1.13s-.1-.06-.1-.13,0-.14.1-.14S21.82,18.11,21.82,18.19Z"/><path class="cls-3" d="M21.72,18.67a.49.49,0,1,1,.45-.48A.47.47,0,0,1,21.72,18.67Zm0-.7a.22.22,0,1,0,.25.22A.24.24,0,0,0,21.72,18Z"/><path d="M19.47,22.72a.17.17,0,0,1-.14.18.19.19,0,0,1,0-.36A.17.17,0,0,1,19.47,22.72Z"/><path class="cls-3" d="M19.33,23.25a.53.53,0,1,1,.49-.53A.51.51,0,0,1,19.33,23.25Zm0-.71a.21.21,0,0,0-.22.18.2.2,0,0,0,.22.17.2.2,0,0,0,.21-.17A.21.21,0,0,0,19.33,22.54Z"/><path d="M21,18.71c0,.09,0,.15-.11.15s-.12-.06-.12-.15a.14.14,0,0,1,.12-.15C20.94,18.56,21,18.63,21,18.71Z"/><path class="cls-3" d="M20.87,19.22a.5.5,0,0,1-.47-.51.49.49,0,0,1,.47-.5.48.48,0,0,1,.47.5A.49.49,0,0,1,20.87,19.22Zm0-.71a.23.23,0,0,0-.23.2.22.22,0,0,0,.23.2.2.2,0,1,0,0-.4Z"/><path d="M20.76,20a.07.07,0,1,1-.07-.09A.08.08,0,0,1,20.76,20Z"/><path class="cls-3" d="M20.69,20.44a.44.44,0,1,1,.42-.44A.43.43,0,0,1,20.69,20.44Zm0-.7a.27.27,0,0,0-.29.26A.29.29,0,0,0,21,20,.27.27,0,0,0,20.69,19.74Z"/><path d="M21.5,20.09a.09.09,0,0,1-.08.1.1.1,0,0,1-.08-.1c0-.06,0-.11.08-.11S21.5,20,21.5,20.09Z"/><path class="cls-3" d="M21.42,20.54a.44.44,0,0,1-.43-.45.45.45,0,0,1,.43-.46.45.45,0,0,1,.44.46A.45.45,0,0,1,21.42,20.54Zm0-.7a.25.25,0,1,0,0,.49.25.25,0,1,0,0-.49Z"/><path d="M17.51,20.39c0,.11-.06.19-.14.19s-.15-.08-.15-.19a.17.17,0,0,1,.15-.19C17.45,20.2,17.51,20.29,17.51,20.39Z"/><path class="cls-3" d="M17.37,20.93a.51.51,0,0,1-.5-.54.5.5,0,1,1,.5.54Zm0-.7a.2.2,0,0,0-.21.16.19.19,0,0,0,.21.16.19.19,0,0,0,.2-.16A.2.2,0,0,0,17.37,20.23Z"/><path d="M19.61,18.63c-.09,0-.18-.07-.2-.19a.23.23,0,0,1,.15-.25c.1,0,.18.07.2.19A.23.23,0,0,1,19.61,18.63Z"/><path class="cls-3" d="M19.58,19a.52.52,0,0,1-.29-.09.58.58,0,0,1-.22-.41.55.55,0,0,1,.43-.63.44.44,0,0,1,.38.09.61.61,0,0,1,.23.4.57.57,0,0,1-.44.64Zm0-.69c-.09,0-.15.08-.14.13a.15.15,0,0,0,.05.08.25.25,0,0,0,.17,0c.08,0,.14-.09.13-.14a.1.1,0,0,0-.05-.08A.19.19,0,0,0,19.55,18.29Z"/><path d="M26.43,14.8c-.05,0-.1,0-.11-.11a.12.12,0,0,1,.08-.14.09.09,0,0,1,.11.1A.13.13,0,0,1,26.43,14.8Z"/><path class="cls-3" d="M26.34,15.17l-.18-.11a.49.49,0,0,1,.18-.86l.15,0,.19.11a.48.48,0,0,1,.18.33.47.47,0,0,1-.36.53Zm.12-.52v.24a.21.21,0,0,0,.12-.39Zm-.1-.2a.24.24,0,0,0-.2.24.24.24,0,0,0,.09.15l.12-.15v-.24Z"/><path d="M18.13,18.46a.1.1,0,0,1-.11-.11.14.14,0,0,1,.08-.15s.1,0,.11.11A.13.13,0,0,1,18.13,18.46Z"/><path class="cls-3" d="M18,18.83l-.18-.11a.44.44,0,0,1-.19-.33.48.48,0,0,1,.36-.53l.15,0,.19.11a.45.45,0,0,1,.19.33.48.48,0,0,1-.36.53Zm.12-.52v.24a.22.22,0,0,0,.19-.24.2.2,0,0,0-.09-.15Zm-.1-.2a.24.24,0,0,0-.2.24.24.24,0,0,0,.09.15l.12-.15Z"/><path d="M25.39,14.91c-.06,0-.11,0-.12-.11a.13.13,0,0,1,.09-.15.1.1,0,0,1,.11.11A.13.13,0,0,1,25.39,14.91Z"/><path class="cls-3" d="M25.3,15.28l-.19-.11a.51.51,0,0,1-.19-.33.49.49,0,0,1,.37-.54l.15,0,.19.1a.46.46,0,0,1,.19.34.47.47,0,0,1-.37.53Zm.12-.52V15a.22.22,0,0,0,.2-.23.24.24,0,0,0-.09-.15Zm-.1-.19a.21.21,0,0,0-.19.23.18.18,0,0,0,.09.15l.1-.15v-.23Z"/><path d="M20.4,18c-.06,0-.12,0-.13-.13s0-.16.1-.17.12,0,.13.12S20.47,18,20.4,18Z"/><path class="cls-3" d="M20.38,18.32a.43.43,0,0,1-.26-.09.52.52,0,0,1-.2-.35.5.5,0,0,1,.38-.56.47.47,0,0,1,.35.08.52.52,0,0,1,.2.35.5.5,0,0,1-.39.56Zm0-.7a.22.22,0,0,0-.19.21.24.24,0,0,0,.09.14.25.25,0,0,0,.17,0v0h0a.21.21,0,0,0,.19-.21.22.22,0,0,0-.08-.13A.29.29,0,0,0,20.34,17.62Zm0,0Z"/><path d="M38.75,31.43a.14.14,0,1,1-.14-.18A.16.16,0,0,1,38.75,31.43Z"/><path class="cls-3" d="M38.61,32a.53.53,0,1,1,.49-.53A.51.51,0,0,1,38.61,32Zm0-.7a.17.17,0,1,0,.21.17A.19.19,0,0,0,38.61,31.26Z"/><path d="M42.11,29.82A.17.17,0,0,1,42,30a.19.19,0,0,1,0-.36A.17.17,0,0,1,42.11,29.82Z"/><path class="cls-3" d="M42,30.35a.53.53,0,1,1,.49-.53A.51.51,0,0,1,42,30.35Zm0-.7A.17.17,0,1,0,42,30a.17.17,0,1,0,0-.34Z"/><path d="M30.27,33.65a.18.18,0,1,1-.17-.22A.2.2,0,0,1,30.27,33.65Z"/><path class="cls-3" d="M30.1,34.22a.57.57,0,1,1,.52-.57A.54.54,0,0,1,30.1,34.22Zm0-.7a.14.14,0,1,0,0,.26.14.14,0,1,0,0-.26Z"/><path d="M32.63,32.64c0,.07,0,.13-.09.13s-.1-.06-.1-.13,0-.13.1-.13S32.63,32.57,32.63,32.64Z"/><path class="cls-3" d="M32.54,33.12a.48.48,0,1,1,.44-.48A.47.47,0,0,1,32.54,33.12Zm0-.7a.22.22,0,1,0,0,.44.22.22,0,1,0,0-.44Z"/><path d="M34,33c0,.07,0,.13-.09.13s-.1-.06-.1-.13,0-.13.1-.13S34,32.92,34,33Z"/><path class="cls-3" d="M33.9,33.47a.48.48,0,1,1,.45-.48A.47.47,0,0,1,33.9,33.47Zm0-.7a.22.22,0,1,0,0,.44.22.22,0,1,0,0-.44Z"/><path d="M33.24,32.82c0,.07,0,.13-.1.13a.13.13,0,0,1,0-.26C33.2,32.69,33.24,32.75,33.24,32.82Z"/><path class="cls-3" d="M33.14,33.3a.47.47,0,0,1-.45-.48.46.46,0,0,1,.45-.48.47.47,0,0,1,.46.48A.48.48,0,0,1,33.14,33.3Zm0-.7a.22.22,0,1,0,0,.44.22.22,0,1,0,0-.44Z"/><path d="M41.19,27.47a.14.14,0,0,1-.12.15.14.14,0,0,1-.12-.15c0-.09,0-.15.12-.15A.14.14,0,0,1,41.19,27.47Z"/><path class="cls-3" d="M41.07,28a.51.51,0,1,1,.47-.5A.48.48,0,0,1,41.07,28Zm0-.7a.2.2,0,1,0,0,.4.2.2,0,1,0,0-.4Z"/><path d="M31.12,32.86c0,.11-.06.19-.15.19s-.14-.08-.14-.19.06-.19.14-.19A.17.17,0,0,1,31.12,32.86Z"/><path class="cls-3" d="M31,33.4a.54.54,0,1,1,.5-.54A.52.52,0,0,1,31,33.4Zm0-.7a.2.2,0,0,0-.2.16A.19.19,0,0,0,31,33a.19.19,0,0,0,.21-.16A.2.2,0,0,0,31,32.7Z"/><path d="M34.32,32.07c0,.1-.06.18-.13.18a.19.19,0,0,1,0-.36C34.26,31.89,34.32,32,34.32,32.07Z"/><path class="cls-3" d="M34.19,32.6a.53.53,0,0,1,0-1.06.53.53,0,0,1,0,1.06Zm0-.7a.18.18,0,1,0,0,.34.17.17,0,1,0,0-.34Z"/><path d="M38.89,34.8a.12.12,0,1,1-.24,0c0-.09.05-.16.12-.16S38.89,34.71,38.89,34.8Z"/><path class="cls-3" d="M38.77,35.3a.48.48,0,0,1-.47-.5.47.47,0,1,1,.94,0A.48.48,0,0,1,38.77,35.3Zm0-.7a.22.22,0,0,0-.23.2.23.23,0,0,0,.23.2.2.2,0,1,0,0-.4Z"/><path d="M37.54,31.8a.07.07,0,1,1-.14,0,.07.07,0,1,1,.14,0Z"/><path class="cls-3" d="M37.47,32.24a.44.44,0,1,1,.42-.44A.43.43,0,0,1,37.47,32.24Zm0-.7a.27.27,0,1,0,0,.53.27.27,0,0,0,.28-.27A.28.28,0,0,0,37.47,31.54Z"/><path d="M38,32.85a.08.08,0,0,1-.07.09.09.09,0,0,1,0-.18A.08.08,0,0,1,38,32.85Z"/><path class="cls-3" d="M38,33.29a.44.44,0,1,1,.42-.44A.43.43,0,0,1,38,33.29Zm0-.7a.28.28,0,0,0-.28.26.27.27,0,0,0,.28.26.27.27,0,0,0,.29-.26A.28.28,0,0,0,38,32.59Z"/><path d="M37.5,32.73a.07.07,0,1,1-.07-.09A.08.08,0,0,1,37.5,32.73Z"/><path class="cls-3" d="M37.43,33.17a.43.43,0,0,1-.43-.44.43.43,0,1,1,.85,0A.43.43,0,0,1,37.43,33.17Zm0-.7a.26.26,0,1,0,0,.52.26.26,0,1,0,0-.52Z"/><path d="M36.34,31.66s0,.08-.06.08a.08.08,0,0,1-.07-.08.08.08,0,0,1,.07-.09S36.34,31.61,36.34,31.66Z"/><path class="cls-3" d="M36.28,32.09a.44.44,0,0,1,0-.87.44.44,0,0,1,0,.87Zm0-.7a.27.27,0,1,0,0,.53.27.27,0,1,0,0-.53Z"/><path d="M35.73,36a.15.15,0,1,1-.3,0,.15.15,0,1,1,.3,0Z"/><path class="cls-3" d="M35.58,36.5a.52.52,0,0,1-.5-.54.51.51,0,0,1,.5-.54.54.54,0,0,1,0,1.08Zm0-.7a.18.18,0,0,0-.2.16.19.19,0,0,0,.2.16.2.2,0,0,0,.2-.16A.19.19,0,0,0,35.58,35.8Z"/><path d="M36.85,31a.11.11,0,1,1-.21,0c0-.08,0-.13.1-.13A.12.12,0,0,1,36.85,31Z"/><path class="cls-3" d="M36.74,31.52a.47.47,0,0,1-.45-.48.46.46,0,0,1,.45-.48.47.47,0,0,1,.46.48A.48.48,0,0,1,36.74,31.52Zm0-.7a.22.22,0,1,0,0,.44.22.22,0,1,0,0-.44Z"/><path d="M34.49,35.57a.14.14,0,1,1-.14-.18A.16.16,0,0,1,34.49,35.57Z"/><path class="cls-3" d="M34.35,36.1a.53.53,0,1,1,.49-.53A.51.51,0,0,1,34.35,36.1Zm0-.7a.2.2,0,0,0-.21.17.19.19,0,0,0,.21.17.17.17,0,1,0,0-.34Z"/><path d="M36,31.56a.15.15,0,0,1-.12.16c-.07,0-.12-.07-.12-.16a.14.14,0,0,1,.12-.15A.14.14,0,0,1,36,31.56Z"/><path class="cls-3" d="M35.9,32.07a.49.49,0,0,1-.47-.51.47.47,0,1,1,.94,0A.49.49,0,0,1,35.9,32.07Zm0-.7a.2.2,0,1,0,0,.39.2.2,0,1,0,0-.39Z"/><path d="M35.78,32.85a.07.07,0,1,1-.07-.09A.08.08,0,0,1,35.78,32.85Z"/><path class="cls-3" d="M35.71,33.29a.44.44,0,1,1,.42-.44A.43.43,0,0,1,35.71,33.29Zm0-.7a.27.27,0,0,0-.28.26.28.28,0,0,0,.56,0A.27.27,0,0,0,35.71,32.59Z"/><path d="M36.53,32.94a.09.09,0,1,1-.17,0,.1.1,0,0,1,.09-.11S36.53,32.88,36.53,32.94Z"/><path class="cls-3" d="M36.45,33.39a.45.45,0,0,1-.44-.45.44.44,0,1,1,.87,0A.44.44,0,0,1,36.45,33.39Zm0-.7a.25.25,0,1,0,0,.49.25.25,0,1,0,0-.49Z"/><path d="M32.54,33.24c0,.11-.07.2-.15.2s-.15-.09-.15-.2a.15.15,0,1,1,.3,0Z"/><path class="cls-3" d="M32.39,33.79a.53.53,0,0,1-.5-.55.52.52,0,0,1,.5-.54.55.55,0,0,1,0,1.09Zm0-.71a.2.2,0,0,0-.21.16.19.19,0,0,0,.21.16.19.19,0,0,0,.2-.16A.2.2,0,0,0,32.39,33.08Z"/><path d="M34.63,31.48c-.09,0-.18-.06-.19-.19a.22.22,0,0,1,.14-.25c.1,0,.19.07.2.19S34.73,31.47,34.63,31.48Z"/><path class="cls-3" d="M34.61,31.84a.54.54,0,0,1-.3-.1.6.6,0,0,1-.22-.41.55.55,0,0,1,.43-.63.44.44,0,0,1,.38.09.57.57,0,0,1,.23.4.58.58,0,0,1-.43.64Zm0-.7a.15.15,0,0,0-.14.13s0,.05.06.08a.18.18,0,0,0,.16,0,.17.17,0,0,0,.14-.13.16.16,0,0,0-.06-.09A.21.21,0,0,0,34.57,31.14Z"/><path d="M41.45,27.65c-.05,0-.1,0-.11-.11a.12.12,0,0,1,.08-.14c.06,0,.11,0,.12.11S41.51,27.64,41.45,27.65Z"/><path class="cls-3" d="M41.36,28l-.18-.1a.53.53,0,0,1-.19-.33.49.49,0,0,1,.37-.54l.15,0,.19.1a.48.48,0,0,1,.18.34.46.46,0,0,1-.36.52Zm.13-.52v.24a.23.23,0,0,0,.21-.23.24.24,0,0,0-.09-.16Zm-.1-.2a.23.23,0,0,0-.2.24.19.19,0,0,0,.09.15l.11-.15V27.3Z"/><path d="M33.15,31.31s-.1,0-.11-.11a.12.12,0,0,1,.08-.14.09.09,0,0,1,.11.1A.13.13,0,0,1,33.15,31.31Z"/><path class="cls-3" d="M33.06,31.68l-.18-.11a.44.44,0,0,1-.19-.33.48.48,0,0,1,.37-.53l.15,0,.18.11a.46.46,0,0,1,.19.34.47.47,0,0,1-.36.52Zm.13-.52v.24A.21.21,0,0,0,33.3,31Zm-.11-.2a.23.23,0,0,0-.19.24.19.19,0,0,0,.09.15l.11-.14Z"/><path d="M40.41,27.76c-.06,0-.11,0-.12-.11s0-.14.09-.15.11,0,.12.11S40.47,27.75,40.41,27.76Z"/><path class="cls-3" d="M40.32,28.13l-.18-.1a.46.46,0,0,1-.19-.34.48.48,0,0,1,.37-.54l.15,0,.18.1a.49.49,0,0,1-.18.88Zm.13-.52v.23a.22.22,0,0,0,.19-.23.2.2,0,0,0-.09-.15Zm-.1-.19a.22.22,0,0,0-.2.23.2.2,0,0,0,.09.15l.11-.15Z"/><path d="M51.79,26.52c0,.07,0,.13-.1.13a.13.13,0,0,1,0-.26C51.75,26.39,51.79,26.45,51.79,26.52Z"/><path class="cls-3" d="M51.69,27a.48.48,0,1,1,.45-.48A.46.46,0,0,1,51.69,27Zm0-.7a.24.24,0,0,0-.25.22.25.25,0,0,0,.5,0A.24.24,0,0,0,51.69,26.3Z"/><path d="M51.69,27.12c0,.11-.07.2-.15.2s-.15-.09-.15-.2a.15.15,0,1,1,.3,0Z"/><path class="cls-3" d="M51.54,27.67a.55.55,0,0,1,0-1.09.55.55,0,0,1,0,1.09Zm0-.71a.2.2,0,0,0-.2.16.19.19,0,0,0,.2.16.18.18,0,0,0,.2-.16A.19.19,0,0,0,51.54,27Z"/><path d="M45.32,26.38a.11.11,0,0,1-.1.12c-.06,0-.1-.05-.1-.12s0-.13.1-.13A.12.12,0,0,1,45.32,26.38Z"/><path class="cls-3" d="M45.22,26.85a.48.48,0,1,1,.45-.47A.46.46,0,0,1,45.22,26.85Zm0-.7a.24.24,0,0,0-.25.23.24.24,0,0,0,.25.22.24.24,0,0,0,.25-.22A.25.25,0,0,0,45.22,26.15Z"/><path d="M46.69,26.72c0,.08,0,.13-.1.13s-.1-.05-.1-.13a.11.11,0,0,1,.1-.12A.12.12,0,0,1,46.69,26.72Z"/><path class="cls-3" d="M46.59,27.2a.48.48,0,1,1,.45-.48A.46.46,0,0,1,46.59,27.2Zm0-.7a.23.23,0,1,0,0,.45.23.23,0,1,0,0-.45Z"/><path d="M45.93,26.55a.13.13,0,0,1-.11.14s-.1-.06-.1-.14a.11.11,0,1,1,.21,0Z"/><path class="cls-3" d="M45.82,27a.49.49,0,0,1,0-1,.49.49,0,0,1,0,1Zm0-.71a.22.22,0,1,0,0,.44.22.22,0,1,0,0-.44Z"/><path d="M47,25.81a.17.17,0,0,1-.14.17.16.16,0,0,1-.14-.17.16.16,0,0,1,.14-.18A.17.17,0,0,1,47,25.81Z"/><path class="cls-3" d="M46.87,26.33a.5.5,0,0,1-.49-.52.49.49,0,1,1,.49.52Zm0-.7a.18.18,0,1,0,0,.35.18.18,0,1,0,0-.35Z"/><path d="M46.38,26.38a.17.17,0,0,1-.15.19c-.08,0-.14-.09-.14-.19s.06-.19.14-.19S46.38,26.27,46.38,26.38Z"/><path class="cls-3" d="M46.23,26.92a.54.54,0,0,1,0-1.08.54.54,0,0,1,0,1.08Zm0-.7a.16.16,0,1,0,0,.32.17.17,0,1,0,0-.32Z"/><path d="M45.89,26.8a.14.14,0,1,1-.14-.18A.16.16,0,0,1,45.89,26.8Z"/><path class="cls-3" d="M45.75,27.33a.53.53,0,1,1,.49-.53A.51.51,0,0,1,45.75,27.33Zm0-.7a.17.17,0,1,0,0,.34.17.17,0,1,0,0-.34Z"/><path d="M45.22,27a.15.15,0,1,1-.3,0,.15.15,0,1,1,.3,0Z"/><path class="cls-3" d="M45.07,27.52a.54.54,0,1,1,.5-.54A.52.52,0,0,1,45.07,27.52Zm0-.7a.18.18,0,0,0-.2.16.21.21,0,0,0,.4,0A.18.18,0,0,0,45.07,26.82Z"/><path d="M45.83,25s-.1,0-.11-.11a.13.13,0,0,1,.08-.14c.06,0,.11,0,.12.11S45.89,25,45.83,25Z"/><path class="cls-3" d="M45.75,25.42l-.19-.11a.53.53,0,0,1-.19-.33.47.47,0,0,1,.37-.53l.15,0,.19.11a.46.46,0,0,1,.18.33.48.48,0,0,1-.36.53Zm.12-.53v.25a.24.24,0,0,0,.2-.24.21.21,0,0,0-.09-.15Zm-.1-.19a.22.22,0,0,0-.2.24.2.2,0,0,0,.09.15l.11-.15Z"/><path d="M48.05,22.75a.16.16,0,0,1-.14.18.19.19,0,0,1,0-.36A.16.16,0,0,1,48.05,22.75Z"/><path class="cls-3" d="M47.91,23.28a.53.53,0,0,1,0-1.06.53.53,0,0,1,0,1.06Zm0-.7a.17.17,0,1,0,0,.34.17.17,0,1,0,0-.34Z"/><path d="M44.48,23.08c0,.07,0,.13-.1.13a.12.12,0,0,1-.1-.13.11.11,0,0,1,.1-.12C44.44,23,44.48,23,44.48,23.08Z"/><path class="cls-3" d="M44.38,23.56a.48.48,0,1,1,.45-.48A.46.46,0,0,1,44.38,23.56Zm0-.7a.23.23,0,1,0,0,.45.23.23,0,1,0,0-.45Z"/><path d="M45.08,24.57c0,.09,0,.16-.12.16s-.11-.07-.11-.16,0-.15.11-.15A.14.14,0,0,1,45.08,24.57Z"/><path class="cls-3" d="M45,25.08a.51.51,0,1,1,.47-.51A.49.49,0,0,1,45,25.08Zm0-.7a.2.2,0,1,0,0,.39.2.2,0,1,0,0-.39Z"/><path d="M45,23c-.08,0-.15,0-.16-.15a.17.17,0,0,1,.12-.2c.07,0,.15.05.16.15A.18.18,0,0,1,45,23Z"/><path class="cls-3" d="M45,23.32a.47.47,0,0,1-.28-.09.52.52,0,0,1-.21-.37.53.53,0,0,1,.41-.59.48.48,0,0,1,.36.09.53.53,0,0,1,.2.37.52.52,0,0,1-.4.59H45Zm0-.69c-.11,0-.18.1-.17.18a.15.15,0,0,0,.07.11A.2.2,0,0,0,45,23a.18.18,0,0,0,.17-.18.15.15,0,0,0-.07-.11A.2.2,0,0,0,44.91,22.63Z"/><path d="M45.79,21.16c-.06,0-.11,0-.12-.11s0-.13.09-.14.1,0,.11.1A.13.13,0,0,1,45.79,21.16Z"/><path class="cls-3" d="M45.7,21.53l-.19-.11a.46.46,0,0,1-.18-.33.48.48,0,0,1,.36-.53l.15,0,.19.11a.53.53,0,0,1,.19.33.47.47,0,0,1-.37.53Zm.12-.52v.24a.21.21,0,0,0,.11-.39Zm-.1-.2a.24.24,0,0,0-.2.24.21.21,0,0,0,.09.15l.11-.14Zm0,0h0Z"/><path d="M71.69,27.25a.18.18,0,0,1-.16.2c-.08,0-.15-.09-.15-.2s.07-.2.15-.2A.18.18,0,0,1,71.69,27.25Z"/><path class="cls-3" d="M71.53,27.8a.55.55,0,0,1,0-1.1.53.53,0,0,1,.51.55A.52.52,0,0,1,71.53,27.8Zm0-.7a.15.15,0,1,0,0,.3.18.18,0,0,0,.2-.15A.19.19,0,0,0,71.53,27.1Z"/><path d="M58.3,31.59a.21.21,0,1,1-.2-.25A.23.23,0,0,1,58.3,31.59Z"/><path class="cls-3" d="M58.1,32.19a.6.6,0,1,1,.55-.6A.57.57,0,0,1,58.1,32.19Zm0-.7c-.09,0-.16.06-.16.1a.18.18,0,0,0,.32,0S58.2,31.49,58.1,31.49Z"/><path d="M61,30.45c0,.07,0,.14-.11.14s-.11-.07-.11-.14,0-.15.11-.15S61,30.37,61,30.45Z"/><path class="cls-3" d="M60.86,30.94a.5.5,0,1,1,.46-.49A.48.48,0,0,1,60.86,30.94Zm0-.7a.21.21,0,1,0,.24.21A.23.23,0,0,0,60.86,30.24Z"/><path d="M62.52,30.84a.11.11,0,1,1-.11-.14A.13.13,0,0,1,62.52,30.84Z"/><path class="cls-3" d="M62.41,31.33a.49.49,0,0,1,0-1,.49.49,0,0,1,0,1Zm0-.7a.21.21,0,1,0,.24.21A.23.23,0,0,0,62.41,30.63Z"/><path d="M61.66,30.65c0,.08,0,.15-.11.15a.14.14,0,0,1-.12-.15c0-.09,0-.15.12-.15S61.66,30.56,61.66,30.65Z"/><path class="cls-3" d="M61.55,31.15a.49.49,0,0,1-.47-.5.47.47,0,1,1,.93,0A.49.49,0,0,1,61.55,31.15Zm0-.71a.23.23,0,0,0-.24.21.22.22,0,0,0,.24.2.22.22,0,0,0,.23-.2A.23.23,0,0,0,61.55,30.44Z"/><path d="M70.65,24.59c0,.09-.06.17-.13.17a.17.17,0,0,1,0-.34C70.59,24.42,70.65,24.5,70.65,24.59Z"/><path class="cls-3" d="M70.52,25.11a.52.52,0,1,1,.48-.52A.5.5,0,0,1,70.52,25.11Zm0-.7a.21.21,0,0,0-.22.18.22.22,0,0,0,.44,0A.22.22,0,0,0,70.52,24.41Z"/><path d="M59.26,30.7c0,.12-.07.21-.17.21s-.16-.09-.16-.21.07-.22.16-.22S59.26,30.58,59.26,30.7Z"/><path class="cls-3" d="M59.09,31.26a.57.57,0,1,1,.52-.56A.54.54,0,0,1,59.09,31.26Zm0-.7a.17.17,0,0,0-.18.14c0,.06.08.13.18.13s.19-.07.19-.13A.17.17,0,0,0,59.09,30.56Z"/><path d="M62.88,29.8c0,.11-.07.2-.15.2a.2.2,0,0,1,0-.4C62.81,29.6,62.88,29.69,62.88,29.8Z"/><path class="cls-3" d="M62.73,30.35a.53.53,0,0,1-.51-.55.51.51,0,1,1,1,0A.53.53,0,0,1,62.73,30.35Zm0-.7a.16.16,0,1,0,0,.3.15.15,0,1,0,0-.3Z"/><path d="M68.05,32.89a.16.16,0,0,1-.14.17c-.07,0-.13-.08-.13-.17s.06-.18.13-.18A.16.16,0,0,1,68.05,32.89Z"/><path class="cls-3" d="M67.91,33.41a.5.5,0,0,1-.48-.52.49.49,0,1,1,1,0A.5.5,0,0,1,67.91,33.41Zm0-.7a.18.18,0,1,0,0,.35.18.18,0,1,0,0-.35Z"/><path d="M66.52,29.5c0,.05,0,.1-.07.1a.09.09,0,0,1-.08-.1c0-.06,0-.1.08-.1S66.52,29.44,66.52,29.5Z"/><path class="cls-3" d="M66.45,30a.45.45,0,1,1,.42-.45A.44.44,0,0,1,66.45,30Zm0-.7a.27.27,0,0,0-.28.25.28.28,0,0,0,.55,0A.27.27,0,0,0,66.45,29.25Z"/><path d="M67.07,30.68a.08.08,0,1,1-.16,0,.08.08,0,1,1,.16,0Z"/><path class="cls-3" d="M67,31.13a.45.45,0,1,1,.43-.45A.44.44,0,0,1,67,31.13Zm0-.7a.27.27,0,0,0-.27.25.27.27,0,0,0,.54,0A.27.27,0,0,0,67,30.43Z"/><path d="M66.47,30.55a.09.09,0,0,1-.08.1.1.1,0,0,1-.08-.1.09.09,0,0,1,.08-.1S66.47,30.49,66.47,30.55Z"/><path class="cls-3" d="M66.4,31a.45.45,0,0,1-.44-.45.44.44,0,1,1,.87,0A.44.44,0,0,1,66.4,31Zm0-.7a.27.27,0,0,0-.28.25.28.28,0,0,0,.28.25.26.26,0,0,0,.26-.25A.26.26,0,0,0,66.4,30.3Z"/><path d="M65.17,29.33a.1.1,0,0,1-.08.1s-.07-.05-.07-.1,0-.1.07-.1A.1.1,0,0,1,65.17,29.33Z"/><path class="cls-3" d="M65.09,29.78a.45.45,0,1,1,.43-.45A.44.44,0,0,1,65.09,29.78Zm0-.7a.25.25,0,1,0,0,.5.25.25,0,1,0,0-.5Z"/><path d="M64.47,34.2c0,.12-.07.21-.17.21s-.16-.09-.16-.21.07-.22.16-.22S64.47,34.08,64.47,34.2Z"/><path class="cls-3" d="M64.3,34.76a.55.55,0,0,1-.52-.56.55.55,0,0,1,.52-.57.55.55,0,0,1,.52.57A.54.54,0,0,1,64.3,34.76Zm0-.7a.18.18,0,0,0-.18.14c0,.06.08.13.18.13s.19-.07.19-.13A.18.18,0,0,0,64.3,34.06Z"/><path d="M65.74,28.63a.14.14,0,0,1-.12.15.15.15,0,0,1,0-.3A.14.14,0,0,1,65.74,28.63Z"/><path class="cls-3" d="M65.62,29.13a.48.48,0,0,1-.47-.5.47.47,0,1,1,.94,0A.48.48,0,0,1,65.62,29.13Zm0-.7a.22.22,0,0,0-.23.2.22.22,0,0,0,.23.2.2.2,0,1,0,0-.4Z"/><path d="M63.07,33.76a.18.18,0,0,1-.16.2c-.08,0-.15-.09-.15-.2s.07-.2.15-.2A.18.18,0,0,1,63.07,33.76Z"/><path class="cls-3" d="M62.91,34.31a.53.53,0,0,1-.5-.55.51.51,0,1,1,.5.55Zm0-.7a.15.15,0,1,0,0,.3.16.16,0,1,0,0-.3Z"/><path d="M64.8,29.23a.16.16,0,0,1-.14.17c-.07,0-.13-.08-.13-.17s.06-.18.13-.18A.16.16,0,0,1,64.8,29.23Z"/><path class="cls-3" d="M64.66,29.75a.53.53,0,1,1,.49-.52A.51.51,0,0,1,64.66,29.75Zm0-.7a.18.18,0,1,0,0,.35.18.18,0,1,0,0-.35Z"/><path d="M64.53,30.68c0,.06,0,.1-.08.1s-.07,0-.07-.1,0-.1.07-.1A.09.09,0,0,1,64.53,30.68Z"/><path class="cls-3" d="M64.45,31.13a.45.45,0,0,1,0-.9.45.45,0,0,1,0,.9Zm0-.7a.27.27,0,0,0-.27.25.26.26,0,0,0,.27.25.25.25,0,1,0,0-.5Z"/><path d="M65.38,30.78c0,.07,0,.12-.1.12s-.09,0-.09-.12,0-.12.09-.12A.11.11,0,0,1,65.38,30.78Z"/><path class="cls-3" d="M65.28,31.25a.47.47,0,1,1,.45-.47A.46.46,0,0,1,65.28,31.25Zm0-.7a.24.24,0,0,0-.25.23.24.24,0,0,0,.25.23.25.25,0,0,0,.26-.23A.25.25,0,0,0,65.28,30.55Z"/><path d="M60.86,31.13a.17.17,0,1,1-.34,0,.18.18,0,1,1,.34,0Z"/><path class="cls-3" d="M60.69,31.69a.53.53,0,0,1-.52-.56.52.52,0,1,1,.52.56Zm0-.7a.17.17,0,0,0-.18.14c0,.06.08.13.18.13s.19-.07.19-.13A.17.17,0,0,0,60.69,31Z"/><path d="M63.23,29.13c-.1,0-.2-.07-.22-.21a.25.25,0,0,1,.17-.28c.1,0,.2.07.22.21A.25.25,0,0,1,63.23,29.13Z"/><path class="cls-3" d="M63.2,29.49a.57.57,0,0,1-.3-.1.65.65,0,0,1-.24-.43.6.6,0,0,1,.45-.67.57.57,0,0,1,.4.09.65.65,0,0,1,.24.43.61.61,0,0,1-.45.67Zm0-.7a.13.13,0,0,0-.12.1.09.09,0,0,0,0,.06.21.21,0,0,0,.15,0,.13.13,0,0,0,.12-.1s0,0,0-.06A.2.2,0,0,0,63.17,28.79Z"/><path d="M71,24.8c-.06,0-.12-.05-.13-.13a.15.15,0,0,1,.1-.16.11.11,0,0,1,.12.12A.15.15,0,0,1,71,24.8Z"/><path class="cls-3" d="M70.93,25.15a.43.43,0,0,1-.26-.09.48.48,0,0,1-.19-.35.48.48,0,0,1,.38-.54.39.39,0,0,1,.34.08.48.48,0,0,1,.19.35.49.49,0,0,1-.37.54Zm0-.7a.21.21,0,0,0-.19.22.19.19,0,0,0,.08.14.29.29,0,0,0,.18.05v0h0a.21.21,0,0,0,.19-.22.16.16,0,0,0-.08-.14A.24.24,0,0,0,70.89,24.45Z"/><path d="M61.56,28.94c-.07,0-.12-.05-.13-.13a.14.14,0,0,1,.09-.16.12.12,0,0,1,.13.12A.15.15,0,0,1,61.56,28.94Z"/><path class="cls-3" d="M61.54,29.29a.39.39,0,0,1-.26-.09.52.52,0,0,1-.2-.35.48.48,0,0,1,.38-.54.39.39,0,0,1,.34.08.5.5,0,0,1-.18.89h-.08Zm0-.7a.21.21,0,0,0-.19.22.19.19,0,0,0,.09.14.28.28,0,0,0,.2.05.22.22,0,0,0,.19-.23.2.2,0,0,0-.09-.13.28.28,0,0,0-.2-.05l.07.35Z"/><path d="M69.77,24.92a.12.12,0,0,1-.13-.12.15.15,0,0,1,.1-.17c.06,0,.12,0,.13.12A.14.14,0,0,1,69.77,24.92Z"/><path class="cls-3" d="M69.76,25.28a.45.45,0,0,1-.27-.1.51.51,0,0,1,.18-.9.47.47,0,0,1,.35.08.52.52,0,0,1,.2.36.5.5,0,0,1-.38.55h-.08Zm-.05-.7a.21.21,0,0,0-.19.21.29.29,0,0,0,.08.14.28.28,0,0,0,.2,0,.21.21,0,0,0,.19-.21.29.29,0,0,0-.08-.14.28.28,0,0,0-.2,0l.06.34Z"/><path d="M57.47,30.73a.2.2,0,0,1-.17.22c-.1,0-.17-.1-.17-.22s.07-.22.17-.22S57.47,30.6,57.47,30.73Z"/><path class="cls-3" d="M57.3,31.3a.56.56,0,0,1-.53-.57.55.55,0,0,1,.53-.57.54.54,0,0,1,.52.57A.55.55,0,0,1,57.3,31.3Zm0-.7c-.11,0-.18.07-.18.13s.08.13.18.13.18-.07.18-.13S57.41,30.6,57.3,30.6Z"/><path d="M42.83,35.47a.22.22,0,1,1-.43,0,.22.22,0,1,1,.43,0Z"/><path class="cls-3" d="M42.62,36.09a.59.59,0,0,1-.57-.62.57.57,0,1,1,1.13,0A.59.59,0,0,1,42.62,36.09Zm-.14-.62s.05.07.14.07.13,0,.13-.07h0s0-.08-.13-.08-.14,0-.14.08Z"/><path d="M45.75,34.22a.12.12,0,1,1-.24,0c0-.09.05-.16.12-.16S45.75,34.13,45.75,34.22Z"/><path class="cls-3" d="M45.63,34.72a.51.51,0,0,1,0-1,.49.49,0,0,1,.47.51A.48.48,0,0,1,45.63,34.72Zm0-.7a.2.2,0,1,0,.23.2A.22.22,0,0,0,45.63,34Z"/><path d="M47.45,34.65a.13.13,0,1,1-.25,0,.13.13,0,1,1,.25,0Z"/><path class="cls-3" d="M47.33,35.16a.51.51,0,1,1,.47-.51A.49.49,0,0,1,47.33,35.16Zm0-.71a.2.2,0,1,0,0,.39.2.2,0,1,0,0-.39Z"/><path d="M46.51,34.44a.13.13,0,1,1-.26,0c0-.09.06-.17.13-.17S46.51,34.35,46.51,34.44Z"/><path class="cls-3" d="M46.38,35a.52.52,0,1,1,.48-.51A.5.5,0,0,1,46.38,35Zm0-.7a.21.21,0,0,0-.22.19.2.2,0,0,0,.22.18.21.21,0,0,0,.23-.18A.22.22,0,0,0,46.38,34.25Z"/><path d="M56.33,27.82c0,.1-.06.19-.14.19a.18.18,0,0,1-.15-.19.17.17,0,0,1,.15-.19C56.27,27.63,56.33,27.71,56.33,27.82Z"/><path class="cls-3" d="M56.19,28.36a.52.52,0,0,1-.5-.54.5.5,0,1,1,.5.54Zm0-.71a.17.17,0,1,0,0,.33.17.17,0,1,0,0-.33Z"/><path d="M43.88,34.49c0,.13-.08.24-.18.24s-.18-.11-.18-.24.08-.24.18-.24S43.88,34.36,43.88,34.49Z"/><path class="cls-3" d="M43.7,35.08a.59.59,0,1,1,.53-.59A.56.56,0,0,1,43.7,35.08Zm0-.7c-.1,0-.17.07-.17.11a.18.18,0,0,0,.34,0S43.8,34.38,43.7,34.38Z"/><path d="M47.84,33.51c0,.12-.07.22-.17.22a.23.23,0,0,1,0-.44C47.77,33.29,47.84,33.39,47.84,33.51Z"/><path class="cls-3" d="M47.67,34.08a.54.54,0,0,1-.52-.57.52.52,0,1,1,1,0A.54.54,0,0,1,47.67,34.08Zm0-.7c-.1,0-.18.07-.18.13a.19.19,0,0,0,.36,0C47.85,33.45,47.77,33.38,47.67,33.38Z"/><path d="M53.49,36.88a.15.15,0,1,1-.3,0,.15.15,0,1,1,.3,0Z"/><path class="cls-3" d="M53.34,37.42a.51.51,0,0,1-.5-.54.53.53,0,0,1,.5-.54.52.52,0,0,1,.5.54A.51.51,0,0,1,53.34,37.42Zm0-.7a.19.19,0,0,0-.2.16.21.21,0,0,0,.4,0A.19.19,0,0,0,53.34,36.72Z"/><ellipse cx="51.74" cy="33.18" rx="0.08" ry="0.11"/><path class="cls-3" d="M51.74,33.64a.46.46,0,0,1,0-.92.46.46,0,0,1,0,.92Zm0-.7a.24.24,0,1,0,0,.48.24.24,0,1,0,0-.48Z"/><path d="M52.42,34.48a.09.09,0,1,1-.17,0c0-.06,0-.11.08-.11A.1.1,0,0,1,52.42,34.48Z"/><path class="cls-3" d="M52.33,34.93a.46.46,0,0,1,0-.91.46.46,0,0,1,0,.91Zm0-.7a.25.25,0,1,0,.27.25A.26.26,0,0,0,52.33,34.23Z"/><path d="M51.77,34.33a.09.09,0,1,1-.09-.11A.1.1,0,0,1,51.77,34.33Z"/><path class="cls-3" d="M51.68,34.79a.47.47,0,1,1,.44-.46A.45.45,0,0,1,51.68,34.79Zm0-.7a.24.24,0,1,0,.26.24A.25.25,0,0,0,51.68,34.09Z"/><path d="M50.34,33a.09.09,0,1,1-.17,0,.1.1,0,0,1,.09-.11S50.34,32.94,50.34,33Z"/><path class="cls-3" d="M50.26,33.46a.45.45,0,0,1-.44-.46.45.45,0,0,1,.44-.46.44.44,0,0,1,.43.46A.45.45,0,0,1,50.26,33.46Zm0-.71A.27.27,0,0,0,50,33a.26.26,0,0,0,.27.24.25.25,0,0,0,.26-.24A.26.26,0,0,0,50.26,32.75Z"/><path d="M49.58,38.32a.19.19,0,1,1-.37,0c0-.13.08-.24.18-.24A.22.22,0,0,1,49.58,38.32Z"/><path class="cls-3" d="M49.39,38.9a.59.59,0,1,1,.54-.58A.56.56,0,0,1,49.39,38.9Zm0-.7a.15.15,0,0,0-.16.12.15.15,0,0,0,.16.11c.1,0,.17-.07.17-.11A.16.16,0,0,0,49.39,38.2Z"/><path d="M51,32.23c0,.09-.05.17-.12.17s-.13-.08-.13-.17a.15.15,0,0,1,.13-.16C50.91,32.07,51,32.14,51,32.23Z"/><path class="cls-3" d="M50.84,32.75a.52.52,0,1,1,.47-.52A.5.5,0,0,1,50.84,32.75Zm0-.7a.21.21,0,0,0-.23.18.22.22,0,0,0,.23.19.22.22,0,0,0,.22-.19A.21.21,0,0,0,50.84,32.05Z"/><path d="M48.05,37.84a.18.18,0,1,1-.35,0,.2.2,0,0,1,.18-.22C48,37.62,48.05,37.71,48.05,37.84Z"/><path class="cls-3" d="M47.88,38.41a.56.56,0,0,1-.53-.57.53.53,0,1,1,1,0A.54.54,0,0,1,47.88,38.41Zm0-.7c-.11,0-.18.07-.18.13s.07.13.18.13a.13.13,0,1,0,0-.26Z"/><path d="M49.94,32.88a.15.15,0,1,1-.3,0,.15.15,0,1,1,.3,0Z"/><path class="cls-3" d="M49.79,33.42a.51.51,0,0,1-.5-.54.5.5,0,1,1,1,0A.51.51,0,0,1,49.79,33.42Zm0-.7a.19.19,0,0,0-.2.16.21.21,0,0,0,.4,0A.19.19,0,0,0,49.79,32.72Z"/><path d="M49.64,34.48a.09.09,0,1,1-.17,0,.1.1,0,0,1,.09-.11S49.64,34.42,49.64,34.48Z"/><path class="cls-3" d="M49.56,34.93a.46.46,0,0,1,0-.91.46.46,0,0,1,0,.91Zm0-.7a.25.25,0,1,0,0,.49.25.25,0,1,0,0-.49Z"/><path d="M50.57,34.58a.12.12,0,0,1-.1.13c-.06,0-.1-.06-.1-.13s0-.13.1-.13A.12.12,0,0,1,50.57,34.58Z"/><path class="cls-3" d="M50.47,35.06a.46.46,0,0,1-.45-.48.45.45,0,1,1,.9,0A.46.46,0,0,1,50.47,35.06Zm0-.7a.22.22,0,1,0,0,.44.22.22,0,1,0,0-.44Z"/><path d="M45.63,35c0,.13-.08.24-.18.24s-.18-.11-.18-.24a.19.19,0,1,1,.36,0Z"/><path class="cls-3" d="M45.45,35.55A.59.59,0,1,1,46,35,.56.56,0,0,1,45.45,35.55Zm0-.7c-.1,0-.17.07-.17.11a.18.18,0,0,0,.34,0S45.55,34.85,45.45,34.85Z"/><path d="M48.23,32.78c-.12,0-.23-.08-.25-.23a.28.28,0,0,1,.18-.31.23.23,0,0,1,.25.23A.28.28,0,0,1,48.23,32.78Z"/><path class="cls-3" d="M48.19,33.14a.51.51,0,0,1-.31-.11.62.62,0,0,1-.25-.44.63.63,0,0,1,.47-.7.54.54,0,0,1,.41.1.62.62,0,0,1,.25.44.63.63,0,0,1-.47.7h-.1Zm0-.55h0a.12.12,0,0,0,.1-.07.18.18,0,0,0-.17-.07Zm0-.15a.12.12,0,0,0-.1.07.27.27,0,0,0,.13.08Z"/><path d="M56.66,28a.13.13,0,0,1-.14-.13.16.16,0,0,1,.1-.18.13.13,0,0,1,.14.13C56.77,28,56.73,28,56.66,28Z"/><path class="cls-3" d="M56.64,28.39a.46.46,0,0,1-.27-.09.52.52,0,0,1-.2-.35.5.5,0,0,1,.39-.56.41.41,0,0,1,.35.08.49.49,0,0,1,.2.36.51.51,0,0,1-.39.56Zm0-.69a.2.2,0,0,0-.18.21.23.23,0,0,0,.08.12.27.27,0,0,0,.18,0v0h0a.21.21,0,0,0,.18-.21.18.18,0,0,0-.08-.13A.23.23,0,0,0,56.59,27.7Z"/><path d="M46.39,32.57c-.07,0-.13,0-.14-.14a.15.15,0,0,1,.11-.17c.06,0,.13,0,.13.13A.15.15,0,0,1,46.39,32.57Z"/><path class="cls-3" d="M46.37,32.92a.46.46,0,0,1-.27-.09.48.48,0,0,1-.19-.36.47.47,0,0,1,.73-.48.53.53,0,0,1,.2.36.5.5,0,0,1-.38.56h-.09Zm0-.7a.21.21,0,0,0-.17.21.17.17,0,0,0,.08.13.25.25,0,0,0,.19,0,.2.2,0,0,0,.18-.21.15.15,0,0,0-.08-.12.25.25,0,0,0-.19-.05l.06.35Z"/><path d="M55.37,28.18c-.07,0-.13-.05-.14-.14a.16.16,0,0,1,.1-.18c.07,0,.14.05.15.14A.16.16,0,0,1,55.37,28.18Z"/><path class="cls-3" d="M55.35,28.53a.44.44,0,0,1-.27-.09.49.49,0,0,1-.2-.36.51.51,0,0,1,.39-.57.48.48,0,0,1,.35.08.54.54,0,0,1,.21.37.51.51,0,0,1-.39.57h-.09Zm-.05-.69a.2.2,0,0,0-.17.2.15.15,0,0,0,.08.12.21.21,0,0,0,.19,0,.2.2,0,0,0,.18-.2.23.23,0,0,0-.08-.12.21.21,0,0,0-.19,0l.06.34Z"/><path d="M60.49,15.82a.15.15,0,0,1-.23.09.25.25,0,0,1-.07-.29.16.16,0,0,1,.23-.1A.25.25,0,0,1,60.49,15.82Z"/><path class="cls-3" d="M60.34,16.29a.53.53,0,0,1-.27-.08.62.62,0,0,1-.21-.72.54.54,0,0,1,.34-.32.49.49,0,0,1,.41.06.59.59,0,0,1,.21.72.55.55,0,0,1-.33.32Zm-.17-.6a.09.09,0,0,0,.06.12.19.19,0,0,0,.18,0,.15.15,0,0,0,.1-.09c0-.07,0-.12,0-.13a.23.23,0,0,0-.18,0A.17.17,0,0,0,60.17,15.69Z"/><path d="M45.79,11.41a.19.19,0,0,1-.29.12.33.33,0,0,1-.09-.37c.06-.13.18-.19.29-.12A.32.32,0,0,1,45.79,11.41Z"/><path class="cls-3" d="M45.6,11.91a.52.52,0,0,1-.29-.09.66.66,0,0,1-.22-.79.55.55,0,0,1,.36-.34.49.49,0,0,1,.44.06.66.66,0,0,1,.23.79.59.59,0,0,1-.36.35A.44.44,0,0,1,45.6,11.91Zm0-.7h0s-.08,0-.08.06h0a.21.21,0,0,0,.19.07.14.14,0,0,0,.08-.07A.22.22,0,0,0,45.59,11.21Z"/><path d="M48.84,12a.11.11,0,0,1-.17.07.18.18,0,0,1-.05-.21c0-.08.1-.11.16-.07A.19.19,0,0,1,48.84,12Z"/><path class="cls-3" d="M48.73,12.46a.55.55,0,0,1-.25-.07.55.55,0,0,1-.19-.64.49.49,0,0,1,.3-.28.44.44,0,0,1,.39,0,.51.51,0,0,1,.18.63h0a.47.47,0,0,1-.3.28Zm-.22-.56a.2.2,0,0,0,.08.21.26.26,0,0,0,.21,0A.28.28,0,0,0,49,12a.18.18,0,0,0-.08-.21.29.29,0,0,0-.22,0,.24.24,0,0,0-.14.12l.33.13Z"/><path d="M50.19,13.41a.11.11,0,0,1-.16.06.18.18,0,0,1-.06-.21.12.12,0,0,1,.17-.07A.19.19,0,0,1,50.19,13.41Z"/><path class="cls-3" d="M50.08,13.84a.45.45,0,0,1-.25-.07.54.54,0,0,1-.18-.64.44.44,0,0,1,.3-.28.46.46,0,0,1,.38.05.54.54,0,0,1,.19.64.51.51,0,0,1-.31.28Zm-.22-.56a.2.2,0,0,0,.08.21.28.28,0,0,0,.22,0l.11-.08-.08,0,.08,0,0,0a.2.2,0,0,0-.08-.22.28.28,0,0,0-.22,0,.25.25,0,0,0-.14.13Z"/><path d="M49.43,12.66c0,.08-.11.12-.17.07a.19.19,0,0,1-.06-.21c0-.08.11-.12.17-.08A.19.19,0,0,1,49.43,12.66Z"/><path class="cls-3" d="M49.32,13.1a.48.48,0,0,1-.26-.07.54.54,0,0,1-.18-.65.49.49,0,0,1,.3-.28.45.45,0,0,1,.39.05.54.54,0,0,1,.19.64h0a.48.48,0,0,1-.31.28A.3.3,0,0,1,49.32,13.1Zm-.22-.56a.18.18,0,0,0,.08.2.26.26,0,0,0,.21,0,.21.21,0,0,0,.14-.12.17.17,0,0,0-.08-.21.25.25,0,0,0-.21,0,.28.28,0,0,0-.14.12l.33.13Z"/><path d="M47.08,11.17a.17.17,0,0,1-.25.1.27.27,0,0,1-.08-.32.17.17,0,0,1,.25-.1A.28.28,0,0,1,47.08,11.17Z"/><path class="cls-3" d="M46.91,11.65a.46.46,0,0,1-.27-.09.63.63,0,0,1-.22-.74.53.53,0,0,1,.35-.32.45.45,0,0,1,.42.06.62.62,0,0,1,.21.74.52.52,0,0,1-.34.32A.4.4,0,0,1,46.91,11.65ZM46.75,11c0,.05,0,.1,0,.1a.23.23,0,0,0,.18,0,.22.22,0,0,0,.1-.09c0-.05,0-.1-.06-.1a.2.2,0,0,0-.17,0,.12.12,0,0,0-.1.08Z"/><path d="M51,12.63a.16.16,0,0,1-.24.09.25.25,0,0,1-.07-.29c0-.11.15-.16.23-.1A.26.26,0,0,1,51,12.63Z"/><path class="cls-3" d="M50.79,13.1a.46.46,0,0,1-.27-.09.6.6,0,0,1-.21-.71.54.54,0,0,1,.34-.32.45.45,0,0,1,.42.06.59.59,0,0,1,.2.72h0a.52.52,0,0,1-.33.32Zm-.17-.6c0,.06.05.12.06.12a.23.23,0,0,0,.18,0l.06,0Zm.17-.1h-.06a.17.17,0,0,0-.11.09l.3.12,0-.06c0-.07,0-.12-.06-.13A.21.21,0,0,0,50.79,12.4Z"/><path d="M54.77,19c0,.1-.13.13-.2.08a.21.21,0,0,1-.06-.25.12.12,0,0,1,.19-.08A.21.21,0,0,1,54.77,19Z"/><path class="cls-3" d="M54.64,19.41a.45.45,0,0,1-.26-.08.56.56,0,0,1-.2-.68.48.48,0,0,1,.32-.3.44.44,0,0,1,.4,0,.57.57,0,0,1,.19.68h0a.49.49,0,0,1-.31.3Zm-.2-.59a.14.14,0,0,0,.07.17.23.23,0,0,0,.2,0,.17.17,0,0,0,.12-.1.14.14,0,0,0-.07-.17.21.21,0,0,0-.19,0,.21.21,0,0,0-.13.11l.33.13Z"/><path d="M54.6,14.68a.07.07,0,0,1-.11,0,.12.12,0,0,1,0-.14c0-.06.07-.08.11-.05A.13.13,0,0,1,54.6,14.68Z"/><path class="cls-3" d="M54.49,15.12l-.2-.1a.48.48,0,0,1-.16-.58.44.44,0,0,1,.27-.25l.16,0,.2.1a.48.48,0,0,1,.17.57.45.45,0,0,1-.28.26Zm.08-.52,0,.26a.3.3,0,0,0,.15-.12l-.16-.06.16.06,0,0a.23.23,0,0,0-.1-.28Zm-.3,0a.22.22,0,0,0,.1.27l.11-.16,0-.26A.26.26,0,0,0,54.27,14.55Z"/><path d="M54.67,16.18a.07.07,0,0,1-.11,0,.12.12,0,0,1,0-.14s.07-.08.11,0A.12.12,0,0,1,54.67,16.18Z"/><path class="cls-3" d="M54.56,16.62l-.2-.1a.48.48,0,0,1-.17-.57.45.45,0,0,1,.28-.26l.16,0,.2.1a.48.48,0,0,1,.17.57h0a.43.43,0,0,1-.27.26Zm.09-.45,0,.19a.28.28,0,0,0,.17-.15.23.23,0,0,0-.1-.28l-.11.16,0,.09Zm-.31-.12a.22.22,0,0,0,.1.27l.11-.16v0Zm.17-.15a.26.26,0,0,0-.17.15l.2.08Z"/><path d="M54.15,15.67c0,.05-.08.07-.12,0s-.06-.09,0-.15a.09.09,0,0,1,.12-.05A.15.15,0,0,1,54.15,15.67Z"/><path class="cls-3" d="M54,16.11l-.2-.1a.49.49,0,0,1-.17-.58.48.48,0,0,1,.28-.26l.16-.05.2.1a.48.48,0,0,1,.17.58h0a.43.43,0,0,1-.28.26Zm.1-.45,0,.18a.26.26,0,0,0,.17-.15.22.22,0,0,0-.1-.27l-.1.16,0,.09Zm-.31-.12a.23.23,0,0,0,.09.27l.11-.16v0Zm.16-.15a.28.28,0,0,0-.16.14l.19.08Z"/><path d="M53.35,13.64s-.07.08-.11,0a.13.13,0,0,1,0-.15.07.07,0,0,1,.11,0A.12.12,0,0,1,53.35,13.64Z"/><path class="cls-3" d="M53.24,14.08,53,14a.46.46,0,0,1-.16-.57.41.41,0,0,1,.27-.26l.16-.05.2.11a.48.48,0,0,1,.17.56h0a.43.43,0,0,1-.27.26Zm.09-.44,0,.18a.26.26,0,0,0,.17-.15.22.22,0,0,0-.1-.27l-.11.16,0,.08ZM53,13.51a.23.23,0,0,0,.1.28l.11-.16v0Zm.17-.15a.28.28,0,0,0-.17.15l.2.08Z"/><path d="M50.78,17.92a.18.18,0,0,1-.25.11.29.29,0,0,1-.08-.32.17.17,0,0,1,.25-.1A.26.26,0,0,1,50.78,17.92Z"/><path class="cls-3" d="M50.62,18.4a.54.54,0,0,1-.28-.08.62.62,0,0,1-.21-.74.55.55,0,0,1,.34-.33.55.55,0,0,1,.43.06.64.64,0,0,1,.21.74h0a.57.57,0,0,1-.35.33Zm-.17-.61c0,.06,0,.1.06.11a.2.2,0,0,0,.17,0,.05.05,0,0,0,0,0Zm.17-.09h-.07a.29.29,0,0,0-.1.08l.27.11a.17.17,0,0,0,.06-.06c0-.05,0-.1-.05-.11Z"/><path d="M54.17,13.33a.11.11,0,0,1-.17.07.18.18,0,0,1,0-.22.11.11,0,0,1,.17-.07A.19.19,0,0,1,54.17,13.33Z"/><path class="cls-3" d="M54.06,13.77a.44.44,0,0,1-.25-.08.54.54,0,0,1-.19-.64.49.49,0,0,1,.31-.29.43.43,0,0,1,.38.06.54.54,0,0,1,.19.64.52.52,0,0,1-.31.29Zm-.21-.57a.16.16,0,0,0,.07.2.26.26,0,0,0,.21,0,.18.18,0,0,0,.11-.07l-.07,0,.07,0s0,0,0,0a.17.17,0,0,0-.07-.2.24.24,0,0,0-.22,0A.2.2,0,0,0,53.85,13.2Z"/><path d="M49.59,16.59c0,.11-.15.16-.23.1a.26.26,0,0,1-.08-.3.16.16,0,0,1,.24-.09A.25.25,0,0,1,49.59,16.59Z"/><path class="cls-3" d="M49.44,17.06a.48.48,0,0,1-.28-.08.59.59,0,0,1-.2-.72.55.55,0,0,1,.33-.32.49.49,0,0,1,.42.07.6.6,0,0,1,.21.71h0a.54.54,0,0,1-.34.32A.34.34,0,0,1,49.44,17.06Zm-.18-.6c0,.07.05.12.06.13a.22.22,0,0,0,.18,0,.17.17,0,0,0,.11-.09c0-.06,0-.11-.06-.12a.19.19,0,0,0-.18,0,.18.18,0,0,0-.11.1Z"/><path d="M53,13.3c0,.1-.13.13-.2.08a.21.21,0,0,1-.06-.25c0-.09.12-.13.2-.08A.21.21,0,0,1,53,13.3Z"/><path class="cls-3" d="M52.9,13.76a.5.5,0,0,1-.26-.08.57.57,0,0,1-.2-.68.5.5,0,0,1,.32-.3.44.44,0,0,1,.4.05.58.58,0,0,1,.2.68h0a.54.54,0,0,1-.32.31Zm-.2-.59a.16.16,0,0,0,.07.17.24.24,0,0,0,.2,0,.17.17,0,0,0,.12-.11.14.14,0,0,0-.07-.17.18.18,0,0,0-.19,0,.14.14,0,0,0-.12.1l.32.13Z"/><path d="M52.2,14.54c0,.06-.07.08-.11.05a.12.12,0,0,1,0-.14.08.08,0,0,1,.12,0A.12.12,0,0,1,52.2,14.54Z"/><path class="cls-3" d="M52.09,15l-.2-.1a.46.46,0,0,1-.16-.56.45.45,0,0,1,.27-.27l.16-.05.2.11a.46.46,0,0,1,.17.56h0a.45.45,0,0,1-.28.26Zm.1-.44,0,.18a.26.26,0,0,0,.17-.15.22.22,0,0,0-.1-.27l-.1.16,0,.08Zm-.31-.12a.22.22,0,0,0,.09.27l.11-.16v0Zm.16-.16a.29.29,0,0,0-.16.15l.2.08Z"/><path d="M53,15.19a.1.1,0,0,1-.14.05.14.14,0,0,1,0-.17.09.09,0,0,1,.13-.06A.16.16,0,0,1,53,15.19Z"/><path class="cls-3" d="M52.9,15.61a.41.41,0,0,1-.24-.08.5.5,0,0,1-.18-.59.48.48,0,0,1,.29-.27.44.44,0,0,1,.37.05.5.5,0,0,1,.17.6h0a.46.46,0,0,1-.29.27Zm-.24-.55a.2.2,0,0,0,.09.24.27.27,0,0,0,.23,0,.26.26,0,0,0,.15-.14A.19.19,0,0,0,53,15a.25.25,0,0,0-.22,0,.26.26,0,0,0-.16.13l.33.14Z"/><path d="M48.46,12.62a.16.16,0,0,1-.24.1.27.27,0,0,1-.08-.32.16.16,0,0,1,.24-.1A.27.27,0,0,1,48.46,12.62Z"/><path class="cls-3" d="M48.3,13.09A.48.48,0,0,1,48,13a.62.62,0,0,1-.21-.74.58.58,0,0,1,.34-.33.51.51,0,0,1,.43.07.6.6,0,0,1,.21.73h0a.54.54,0,0,1-.34.32A.39.39,0,0,1,48.3,13.09Zm-.16-.6s0,.1,0,.1a.2.2,0,0,0,.17,0l0,0Zm.16-.1h-.06a.17.17,0,0,0-.1.08l.27.11s.05,0,.05-.06,0-.1-.05-.1A.15.15,0,0,0,48.3,12.39Z"/><path d="M51.54,12.21a.3.3,0,0,1-.13-.35c0-.15.16-.22.27-.17a.31.31,0,0,1,.14.35A.21.21,0,0,1,51.54,12.21Z"/><path class="cls-3" d="M51.61,12.57a.52.52,0,0,1-.21,0,.65.65,0,0,1-.33-.76.62.62,0,0,1,.32-.4.5.5,0,0,1,.43,0,.62.62,0,0,1,.33.76.56.56,0,0,1-.31.39A.59.59,0,0,1,51.61,12.57Zm0-.7-.07,0a.17.17,0,0,0-.06,0s0,.05.06.07a.19.19,0,0,0,.15,0,.06.06,0,1,0,0-.12h0Z"/><path d="M50,10.93a.17.17,0,0,1-.08-.2c0-.08.1-.12.16-.09a.16.16,0,0,1,.07.2A.11.11,0,0,1,50,10.93Z"/><path class="cls-3" d="M50,11.29l-.18,0h0a.5.5,0,0,1-.27-.61.48.48,0,0,1,.25-.32.42.42,0,0,1,.38,0,.52.52,0,0,1,.27.61.44.44,0,0,1-.45.36Zm0-.7a.2.2,0,0,0-.11,0,.16.16,0,0,0-.11.13.18.18,0,0,0,.12.21.22.22,0,0,0,.21,0,.16.16,0,0,0,.11-.13.18.18,0,0,0-.12-.21l-.14.32.14-.32Z"/><path d="M46.17,9c0,.11-.07.2-.15.2a.2.2,0,0,1,0-.4C46.1,8.8,46.17,8.89,46.17,9Z"/><path class="cls-3" d="M46,9.55A.52.52,0,0,1,45.51,9a.51.51,0,1,1,1,0A.53.53,0,0,1,46,9.55Zm0-.7a.16.16,0,1,0,0,.3.15.15,0,1,0,0-.3Z"/><path d="M32.78,13.34a.23.23,0,0,1-.2.25c-.11,0-.19-.11-.19-.25s.08-.26.19-.26A.24.24,0,0,1,32.78,13.34Z"/><path class="cls-3" d="M32.58,13.94a.61.61,0,1,1,.55-.6A.57.57,0,0,1,32.58,13.94Zm0-.7c-.09,0-.15.06-.15.1a.15.15,0,0,0,.15.1.16.16,0,0,0,.16-.1S32.68,13.24,32.58,13.24Z"/><path d="M35.45,12.19c0,.08-.05.15-.11.15s-.11-.07-.11-.15a.11.11,0,1,1,.22,0Z"/><path class="cls-3" d="M35.34,12.69a.5.5,0,1,1,.47-.5A.48.48,0,0,1,35.34,12.69Zm0-.7a.21.21,0,1,0,.24.2A.22.22,0,0,0,35.34,12Z"/><path d="M37,12.59a.11.11,0,1,1-.22,0c0-.08,0-.15.11-.15S37,12.51,37,12.59Z"/><path class="cls-3" d="M36.89,13.08a.5.5,0,1,1,.46-.49A.47.47,0,0,1,36.89,13.08Zm0-.7a.23.23,0,0,0-.24.21.24.24,0,0,0,.48,0A.23.23,0,0,0,36.89,12.38Z"/><path d="M36.15,12.39a.14.14,0,0,1-.12.15c-.07,0-.12-.06-.12-.15a.14.14,0,0,1,.12-.15A.14.14,0,0,1,36.15,12.39Z"/><path class="cls-3" d="M36,12.89a.48.48,0,0,1-.47-.5.47.47,0,1,1,.94,0A.48.48,0,0,1,36,12.89Zm0-.7a.22.22,0,0,0-.24.2.23.23,0,0,0,.24.21.21.21,0,1,0,0-.41Z"/><path d="M45.13,6.34c0,.09-.06.17-.13.17s-.13-.08-.13-.17.06-.17.13-.17S45.13,6.24,45.13,6.34Z"/><path class="cls-3" d="M45,6.86a.52.52,0,1,1,.48-.52A.5.5,0,0,1,45,6.86Zm0-.7a.2.2,0,0,0-.22.18.22.22,0,0,0,.44,0A.2.2,0,0,0,45,6.16Z"/><path d="M33.74,12.44c0,.12-.07.22-.16.22s-.17-.1-.17-.22a.19.19,0,0,1,.17-.21C33.67,12.23,33.74,12.33,33.74,12.44Z"/><path class="cls-3" d="M33.58,13a.57.57,0,1,1,.52-.57A.55.55,0,0,1,33.58,13Zm0-.7c-.11,0-.19.07-.19.13a.17.17,0,0,0,.19.14.17.17,0,0,0,.18-.14C33.76,12.38,33.68,12.31,33.58,12.31Z"/><path d="M37.37,11.55a.16.16,0,1,1-.32,0c0-.11.07-.21.16-.21S37.37,11.44,37.37,11.55Z"/><path class="cls-3" d="M37.21,12.1a.56.56,0,1,1,.51-.55A.53.53,0,0,1,37.21,12.1Zm0-.7a.15.15,0,1,0,.19.15A.18.18,0,0,0,37.21,11.4Z"/><ellipse cx="42.4" cy="14.63" rx="0.14" ry="0.17"/><path class="cls-3" d="M42.4,15.16a.51.51,0,0,1-.49-.53.5.5,0,0,1,.49-.52.5.5,0,0,1,.48.52A.51.51,0,0,1,42.4,15.16Zm0-.7a.18.18,0,1,0,0,.35.18.18,0,1,0,0-.35Z"/><path d="M41,11.25a.08.08,0,1,1-.16,0,.08.08,0,1,1,.16,0Z"/><path class="cls-3" d="M40.93,11.7a.45.45,0,0,1,0-.9.44.44,0,0,1,.43.45A.45.45,0,0,1,40.93,11.7Zm0-.71a.26.26,0,1,0,.27.26A.27.27,0,0,0,40.93,11Z"/><path d="M41.55,12.43a.09.09,0,0,1-.08.1s-.07,0-.07-.1,0-.1.07-.1S41.55,12.37,41.55,12.43Z"/><path class="cls-3" d="M41.47,12.88a.45.45,0,1,1,.43-.45A.44.44,0,0,1,41.47,12.88Zm0-.7a.25.25,0,1,0,0,.5.25.25,0,1,0,0-.5Z"/><path d="M41,12.3a.1.1,0,0,1-.08.1.09.09,0,0,1-.08-.1c0-.06,0-.11.08-.11S41,12.24,41,12.3Z"/><path class="cls-3" d="M40.88,12.75a.44.44,0,0,1-.43-.45.43.43,0,1,1,.86,0A.44.44,0,0,1,40.88,12.75Zm0-.7a.25.25,0,1,0,0,.49.25.25,0,1,0,0-.49Z"/><path d="M39.65,11.08c0,.05,0,.1-.07.1a.09.09,0,0,1-.08-.1c0-.06,0-.1.08-.1S39.65,11,39.65,11.08Z"/><path class="cls-3" d="M39.58,11.53a.44.44,0,0,1-.43-.45.43.43,0,1,1,.85,0A.44.44,0,0,1,39.58,11.53Zm0-.71a.27.27,0,0,0-.28.26.26.26,0,0,0,.28.25.26.26,0,1,0,0-.51Z"/><path d="M39,16c0,.11-.07.21-.16.21a.19.19,0,0,1-.17-.21c0-.12.07-.22.17-.22S39,15.83,39,16Z"/><path class="cls-3" d="M38.79,16.51A.57.57,0,1,1,39.3,16,.54.54,0,0,1,38.79,16.51Zm0-.7a.17.17,0,0,0-.19.14c0,.06.08.13.19.13S39,16,39,16A.17.17,0,0,0,38.79,15.81Z"/><path d="M40.22,10.38a.14.14,0,0,1-.12.15c-.06,0-.11-.07-.11-.15s0-.15.11-.15A.14.14,0,0,1,40.22,10.38Z"/><path class="cls-3" d="M40.1,10.88a.5.5,0,1,1,.47-.5A.48.48,0,0,1,40.1,10.88Zm0-.7a.2.2,0,1,0,0,.4.2.2,0,1,0,0-.4Z"/><path d="M37.55,15.51c0,.11-.07.2-.15.2a.18.18,0,0,1-.16-.2c0-.12.07-.21.16-.21S37.55,15.39,37.55,15.51Z"/><path class="cls-3" d="M37.4,16.06a.56.56,0,1,1,.5-.55A.52.52,0,0,1,37.4,16.06Zm0-.7a.16.16,0,1,0,0,.3.15.15,0,1,0,0-.3Z"/><path d="M39.28,11c0,.1-.06.18-.13.18A.16.16,0,0,1,39,11a.16.16,0,0,1,.14-.17C39.22,10.8,39.28,10.88,39.28,11Z"/><path class="cls-3" d="M39.15,11.5a.51.51,0,0,1-.49-.53.5.5,0,0,1,.49-.52.53.53,0,0,1,0,1.05Zm0-.7a.18.18,0,1,0,0,.35.18.18,0,1,0,0-.35Z"/><path d="M39,12.43c0,.05,0,.1-.07.1a.09.09,0,0,1-.08-.1c0-.06,0-.1.08-.1S39,12.37,39,12.43Z"/><path class="cls-3" d="M38.94,12.88a.45.45,0,1,1,.42-.45A.44.44,0,0,1,38.94,12.88Zm0-.7a.25.25,0,1,0,0,.5.25.25,0,1,0,0-.5Z"/><path d="M39.86,12.53c0,.06,0,.12-.09.12s-.09-.06-.09-.12,0-.12.09-.12S39.86,12.46,39.86,12.53Z"/><path class="cls-3" d="M39.77,13a.47.47,0,0,1,0-.94.47.47,0,0,1,0,.94Zm0-.7a.25.25,0,0,0-.26.23.26.26,0,0,0,.52,0A.25.25,0,0,0,39.77,12.3Z"/><path d="M35.34,12.87c0,.12-.07.22-.16.22S35,13,35,12.87a.19.19,0,0,1,.17-.21C35.27,12.66,35.34,12.76,35.34,12.87Z"/><path class="cls-3" d="M35.18,13.44a.57.57,0,1,1,.51-.57A.54.54,0,0,1,35.18,13.44Zm0-.7c-.11,0-.19.07-.19.13a.17.17,0,0,0,.19.14.17.17,0,0,0,.18-.14C35.36,12.81,35.28,12.74,35.18,12.74Z"/><path d="M37.72,10.88c-.11,0-.21-.07-.23-.21a.26.26,0,0,1,.17-.29c.11,0,.21.08.22.22A.24.24,0,0,1,37.72,10.88Z"/><path class="cls-3" d="M37.69,11.24a.51.51,0,0,1-.31-.11A.63.63,0,0,1,37.59,10a.54.54,0,0,1,.41.09.61.61,0,0,1,.23.43.6.6,0,0,1-.45.67h-.09Zm0-.7a.13.13,0,0,0-.12.1l0,.06a.2.2,0,0,0,.11,0Zm0,0h0l0,.19h0c.08,0,.13-.07.12-.1a.09.09,0,0,0,0-.06A.21.21,0,0,0,37.69,10.53Z"/><path d="M45.43,6.54c-.06,0-.11,0-.12-.12a.13.13,0,0,1,.09-.16.12.12,0,0,1,.13.12A.14.14,0,0,1,45.43,6.54Z"/><path class="cls-3" d="M45.42,6.9a.51.51,0,0,1-.27-.09A.55.55,0,0,1,45,6.46a.5.5,0,0,1,.38-.55.46.46,0,0,1,.34.08.52.52,0,0,1,.2.35.5.5,0,0,1-.38.55h-.08Zm-.05-.7a.21.21,0,0,0-.19.22.29.29,0,0,0,.08.14.26.26,0,0,0,.21,0,.21.21,0,0,0,.19-.21.24.24,0,0,0-.09-.15.27.27,0,0,0-.2,0l.06.34Z"/><path d="M36,10.68c-.06,0-.12,0-.13-.12a.14.14,0,0,1,.1-.16c.06,0,.11,0,.12.12A.13.13,0,0,1,36,10.68Z"/><path class="cls-3" d="M36,11a.43.43,0,0,1-.26-.09.52.52,0,0,1-.2-.35.5.5,0,0,1,.38-.55.45.45,0,0,1,.35.09.46.46,0,0,1,.19.34.49.49,0,0,1-.38.55H36Zm-.05-.7a.22.22,0,0,0-.19.22.24.24,0,0,0,.09.14.27.27,0,0,0,.18.05v0h0a.21.21,0,0,0,.19-.22.29.29,0,0,0-.08-.14.31.31,0,0,0-.21,0Z"/><path d="M44.25,6.67c-.06,0-.12,0-.13-.13a.16.16,0,0,1,.1-.17c.06,0,.12,0,.13.13A.14.14,0,0,1,44.25,6.67Z"/><path class="cls-3" d="M44.24,7A.44.44,0,0,1,44,6.93a.48.48,0,0,1-.19-.35A.48.48,0,0,1,44.16,6a.49.49,0,0,1,.35.08.51.51,0,0,1,.19.35.5.5,0,0,1-.38.56h-.08Zm-.05-.69a.21.21,0,0,0-.19.21.2.2,0,0,0,.09.13.23.23,0,0,0,.38-.17.19.19,0,0,0-.08-.13.23.23,0,0,0-.2,0l.06.34Z"/><path d="M44.73,22.14a.13.13,0,0,1-.14-.13.15.15,0,0,1,.1-.17c.07,0,.13,0,.14.13A.15.15,0,0,1,44.73,22.14Z"/><path class="cls-3" d="M44.71,22.49a.44.44,0,0,1-.27-.09.52.52,0,0,1-.2-.35.5.5,0,0,1,.39-.56.45.45,0,0,1,.35.09.48.48,0,0,1,.19.35.49.49,0,0,1-.38.55Zm-.05-.7a.21.21,0,0,0-.18.22.19.19,0,0,0,.08.13.31.31,0,0,0,.17.05v0h0a.21.21,0,0,0,.19-.21.22.22,0,0,0-.08-.13A.29.29,0,0,0,44.66,21.79Zm0,0Z"/></g></g></svg>