<svg xmlns="http://www.w3.org/2000/svg" viewBox="0 0 80.34 46.86"><defs><style>.cls-1{fill:#231f20;}</style></defs><g id="Layer_2" data-name="Layer 2"><g id="Layer_1-2" data-name="Layer 1"><path class="cls-1" d="M76.67,20.08c-2.16-.9-9.88-8.59-10.45-9.51-1.8-2.94-2.83-2.66-3.39-1.83l-.68.58c-.24-.12-.5-.23-.77-.34-1.63-.67-7.46-6.48-7.89-7.18C52.13-.42,51.35-.2,50.93.42L49.51,1.61c-.9.76-2.14,1.79-3.43,2.89a7.52,7.52,0,0,1-.66-.8C43.22.1,42,.45,41.33,1.44L39,3.41l-.8.67L35.25,1.61,33.83.42c-.42-.62-1.2-.84-2.56,1.38C30.84,2.5,25,8.31,23.38,9l-.26.11C21.49,7,20.52,7.38,20,8.22l-2.36,2q-3.61,3-7.21,6.08Q7.94,18.37,5.51,20.5c-1,.89-2,1.79-3,2.72-.55.52-1.11,1.05-1.62,1.61a4,4,0,0,0-.65.87A1.86,1.86,0,0,0,0,26.76a1.83,1.83,0,0,0,.76,1,26.38,26.38,0,0,0,3.13,2.11c1.17.7,2.37,1.34,3.59,1.94a45.51,45.51,0,0,0,4.31,1.86c.5.18,1,.36,1.5.52l.77.25c.13,0,.65.11.64.26l0,.41a.72.72,0,0,0,0,.21.8.8,0,0,0,.08.16A6.8,6.8,0,0,0,16.4,37l.93.66c.8.54,1.62,1.06,2.45,1.56,1,.62,2,1.2,3.1,1.76s2.4,1.22,3.63,1.78,2.67,1.15,4,1.64,2.86,1,4.32,1.35a38.32,38.32,0,0,0,4.49.89,29.06,29.06,0,0,0,4,.27c.73,0,1.47,0,2.19-.09,10.38-.91,18.73-5.16,22.29-8.09v0l.56-.52.41-.37v0a3,3,0,0,0,1.07-2.07c.11-2.27-1.17-3.54-3.89-4.86a26.68,26.68,0,0,0,12.8-4.64v0l.57-.52.41-.38v0a2.16,2.16,0,0,0,.6-1.4C80.43,21.8,78.88,21,76.67,20.08ZM51.41,1.67c.22-.37.85.16,1.56,1.32.5.82,5.89,6.2,7.94,7.36l-.51.43c-1-.12-2.22-.22-3.85-.31a33.67,33.67,0,0,1-4.4-.44,10.08,10.08,0,0,1,1.47-.52l.46-.14a1.26,1.26,0,0,0,.86-1.32h0a2.13,2.13,0,0,0-1.51-2C53,6,52.37,4.29,51.94,3.18c-.21-.54-.41-1.05-.59-1.43Zm7.34,10.49-2.4,2c-.88-.68-1.86-1.51-2.86-2.4.76.08,1.74.15,3,.23C57.2,12.06,58,12.1,58.75,12.16ZM49.83,3l.76-.63,0,.12,0,.11c.17.32.38.88.62,1.47.6,1.55,1.28,3.29,2,3.5a1.32,1.32,0,0,1,.51.27L53.49,8C52,8.4,51.28,8.72,51,9.52,49.47,8,48,6.56,47,5.46Zm1.9,6.81ZM42,3.09c.44-.72,1.5.11,2.77,2.18.73,1.2,6.37,6.84,10.25,10.06h0l0,0-.84.72-.09.08c-.26.23-.52.44-.76.66l-.06,0c-.11.1-.22.2-.34.29l-.41.36-.07.07-.61.52-.09.08-1.53-.09C49,17,48.06,16,47.38,15.19a2.39,2.39,0,0,0,.13-.21,2.17,2.17,0,0,0,.27-1.13h0c0-.12,0-.23,0-.34a3.38,3.38,0,0,0-2.37-2.66c-.72-.21-1.78-2.92-2.55-4.9-.4-1-.77-2-1.1-2.61A.8.8,0,0,0,42,3.09Zm-3.46,3,.05,0,0-.09.84-.71,1.33-1.11.13.38.06.14c.29.55.65,1.49,1,2.48s.88,2.23,1.34,3.21h0l-.22-.1L43,10.23a1.66,1.66,0,0,0-.21-.06l-.1,0-.2,0h-.1a.69.69,0,0,0-.2,0h-.09a.89.89,0,0,0-.19.07l-.08,0-.2.14,0,0-.21.2,0,0a2.32,2.32,0,0,0-.22.3l-2,1.7-1.14,1-2.52,2.11-1.59,1.34-.1.09,0,0-.51.43-.33.28-.52.44-.23.19c-.53-.48-1.1-1-1.67-1.54S29,15.68,28.34,15c-.06-.06-.12-.11-.17-.17,1.14-1,2.38-2.06,3.61-3.11l2-1.72ZM34.08,2.64l.05-.11,0-.12.76.63,2.25,1.89C35.87,6,34.39,7.27,32.86,8.56A8.59,8.59,0,0,0,31.27,8l-.33-.09a1.32,1.32,0,0,1,.51-.27c.73-.21,1.41-1.95,2-3.5C33.7,3.52,33.92,3,34.08,2.64ZM31.79,3c.71-1.16,1.34-1.69,1.56-1.32l.06.08c-.18.38-.38.89-.59,1.43C32.39,4.29,31.74,6,31.33,6.07a2.13,2.13,0,0,0-1.51,2h0a1.26,1.26,0,0,0,.86,1.32l.46.14.45.13-.74.64-2,1.7L27,13.64,25.57,12.2c-.61-.64-1-1.12-1.27-1.42l-.22-.28a1.48,1.48,0,0,0-.13-.21A49,49,0,0,0,31.79,3ZM16.12,32.55l-.12.13-.14.14,0,0a45.16,45.16,0,0,1-14.14-6.6C4.49,23.43,14.48,15.07,18,12.09L19.38,11l.14.39.06.14c.28.55.65,1.49,1,2.49A24.35,24.35,0,0,0,23,19a1.94,1.94,0,0,0,.92.74,2.93,2.93,0,0,1,1.27.83,1.23,1.23,0,0,1-.23.08l-.06,0h0l.08,1,.09,1,.08,0a1.83,1.83,0,0,0,1.32-2,3.34,3.34,0,0,0-2.4-3,1.18,1.18,0,0,1-.47-.42,17.62,17.62,0,0,1-1.75-3.63c-.12-.3-.24-.6-.35-.89-.26-.64-.5-1.26-.73-1.79-.13-.31-.26-.6-.38-.83a1.38,1.38,0,0,0,.24-.25c.21-.35.56-.33,1,0a5.11,5.11,0,0,1,1,1.05.71.71,0,0,1,.1.14,10.37,10.37,0,0,1,.68,1l.26.35c.28.36.72.85,1.18,1.34l.9,1h0l1,1,.59.59c1.16,1.15,2.36,2.29,3.51,3.35l-3.2,2.71.21.94-.21-.94-1.43,1.22-.22.19-1.1.95h0l-.13,0-.23,0-.16,0-.22,0-.13,0-.22,0-.12,0-.2,0-.11,0-.19,0-.1,0-.16,0-.1,0-.15,0h-.08l-.14,0h-.07l-.13,0h-.07l-.1,0H22l-.08,0-.06,0-.08,0-.08,0,0,0-.08,0h0l-.06,0,0,0-.07,0a11.48,11.48,0,0,1,3-1.2l.69-.21-.09-1-.08-1-.68.21c-2.61.77-3.87,1.3-4.09,2.82a2.82,2.82,0,0,0,.37,1.87l.06.09,0,0,.06.06,0,0,.09.08h0l.09.07,0,0L21,26h0l.15.08,0,0,.14.05.06,0,.18.06h0l.24.06.08,0,.19.05.09,0,.29.06h.09l.19,0-.5.43,0,0-1,.9-.38.33-.17.15-.44.39-.22.2-.36.32-.23.21-.33.3-.3.27-.38.34-.25.24-.2.18-.26.24-.17.16-.24.23-.14.13-.24.23,0,.05-.45.43-.12.12C16.23,32.45,16.17,32.5,16.12,32.55ZM45.46,44.72c-11.86,1-25.86-7.43-29.18-10,1.3-1.38,4.29-4.08,8.89-8,.94-.8,1.89-1.63,2.86-2.45h0L32.3,20.6l6.06-5.09,1.53-1.28.4-.34.27.75.06.14c.32.61.71,1.58,1.09,2.53l.42-.62-.42.62.61,1.56c1.25,3.2,2.59,6.35,3.94,6.73a3.85,3.85,0,0,1,2,1.55,1.58,1.58,0,0,1-.63.33l-1,.3c-.77.23-1.48.45-2.1.67-.31.11-.6.23-.87.35l-.12.05a3.23,3.23,0,0,0-2.2,2.44c0,.13,0,.28,0,.44a3.2,3.2,0,0,0,.19,1.08,2.81,2.81,0,0,0,.29.61c.72,1.18,3.9,1.49,11.54,1.95l.66,0,.33,0h.11l.37,0H55l.34,0h.18l.33,0h.21l.38,0h.14l.54,0h.07l.46,0,.21,0,.32,0,.22,0,.33,0H59l.33,0,.22,0,.33,0,.19,0,.43,0h.1l.52.06h.14l.36,0,.19,0,.32,0,.19,0,.3,0,.19,0,.3,0,.17,0,.33.05.13,0,.87.15.09,0,.31.06.12,0,.27.06.12,0,.24.06.12,0,.23.07.09,0,.26.09h0l.5.21C63.31,39.91,55.22,43.86,45.46,44.72Zm23.32-9.35a3.37,3.37,0,0,1-.53.64h0l0-.06a.43.43,0,0,0-.09-.1L68,35.77l-.1-.09-.07-.06-.11-.08-.08-.06-.14-.09-.07,0-.23-.12-.08,0L67,35.09,66.87,35,66.71,35l-.14,0-.17-.06-.15,0-.19-.06-.15,0-.25-.07-.14,0-.36-.08-.17,0-.25,0-.21,0-.24,0-.22,0-.26,0-.24,0-.29,0-.23,0-.46-.06-.29,0-.36,0-.3,0-.31,0-.32,0-.33,0-.34,0-.34,0-.36,0-.37,0-.36,0-.71-.06-.37,0-.43,0-.42,0-.42,0-.42,0-.47,0-.42,0-.53,0-.39,0-.95-.06C48.83,33,43.17,32.7,42.5,31.85l0-.08c.55-.82,3.11-1.58,4.37-2l1-.3a2,2,0,0,0,1.48-1.39,2.93,2.93,0,0,0,.09-1.39L48.9,27l.51-.31a4.42,4.42,0,0,0-3-3.16c-1-.29-2.47-4-3.24-5.94l-.61-1.56h0c-.45-1.13-.82-2-1.15-2.68l-.12-.34c.39-.33.41-.37.46-.45h0a.86.86,0,0,1,.07-.1.62.62,0,0,1,.14-.14s0,0,0,0a.74.74,0,0,1,.24-.11h.06a.91.91,0,0,1,.52.08l.11.05.06,0a2.8,2.8,0,0,1,.36.24l.07.06a6,6,0,0,1,.83.84.39.39,0,0,1,.08.1,7.09,7.09,0,0,1,.45.57l0,0h0l1,1.39,0,0h0l0,0,.18.26h0c.36.46,1,1.16,1.77,2h0l2,2h0l1,1,0,0,.21.2h0c1.58,1.56,3.23,3.13,4.79,4.56a71.73,71.73,0,0,0,6,5l.07.05h0A11.54,11.54,0,0,0,63.78,32C65,32.51,68.56,34,68.78,35.37Zm-3.25-6.51A15.54,15.54,0,0,1,62,28.74l-.2-.15-.36-.26-.25-.2-.37-.29-.28-.22-.4-.32-.29-.24-.43-.35-.27-.24-.49-.41-.25-.22-.54-.47-.3-.26L57,24.63l-.86-.78c-1.31-1.19-2.68-2.49-4-3.79,1.1-1,2.4-2.09,3.95-3.4l.49-.41,2.51-2.13,2-1.7.27-.22,1-.83.06.16.06.14c.2.39.45,1,.73,1.73l.09.23c.79,2,1.7,4.36,2.67,4.63a2.14,2.14,0,0,1,.67.35l-.43.13c-2.13.63-3.15,1.07-3.34,2.39a2.25,2.25,0,0,0,0,.4,2.48,2.48,0,0,0,.36,1.31c.46.76,1.92.95,7,1.26a49.52,49.52,0,0,1,7.32.78A27.41,27.41,0,0,1,65.53,28.86Zm-1.65-7.64h0Zm6.4.82a41.35,41.35,0,0,1-5.83-.58,13.88,13.88,0,0,1,1.94-.69l.61-.18a1.67,1.67,0,0,0,1.14-1.75v0a2.83,2.83,0,0,0-2-2.6c-.53-.15-1.4-2.36-2-3.83l-.07-.19c-.26-.64-.49-1.24-.71-1.71a.3.3,0,0,0,.07-.1.29.29,0,0,1,.13-.12c.37-.18,1.12.52,1.94,1.87.7,1.14,8.56,9,10.92,10a11,11,0,0,1,2.33,1.2C77.7,22.64,75.33,22.35,70.28,22ZM18.46,26.59a.92.92,0,1,1-.92,1.6,1,1,0,0,1-.33-1.27A.9.9,0,0,1,18.46,26.59Zm-4.73-3a.93.93,0,0,1,.33,1.26.9.9,0,0,1-1.25.33.92.92,0,0,1-.33-1.26A.9.9,0,0,1,13.73,23.56Zm-1.06-3.85a.64.64,0,1,1-.64,1.1.64.64,0,0,1-.23-.87A.63.63,0,0,1,12.67,19.71ZM6.94,24.6a1,1,0,0,1-1,1.76A1,1,0,0,1,5.56,25,1,1,0,0,1,6.94,24.6Zm12.85-5.47a.86.86,0,0,1,.32,1.18.87.87,0,1,1-.32-1.18ZM18.34,16a.29.29,0,0,1,.1.4.29.29,0,1,1-.51-.29A.3.3,0,0,1,18.34,16Zm44-.23a.58.58,0,0,1-.57.58.57.57,0,0,1-.57-.58.58.58,0,0,1,.57-.59A.59.59,0,0,1,62.35,15.75Zm-1.68,3.9a.49.49,0,1,1-.49-.5A.49.49,0,0,1,60.67,19.65ZM38.22,42a.87.87,0,1,1,1,.64A.84.84,0,0,1,38.22,42Zm-6.76-1.49a.86.86,0,1,1,1,.68A.85.85,0,0,1,31.46,40.47Zm-7.58-3.64a.86.86,0,1,1,.69,1A.87.87,0,0,1,23.88,36.83ZM49.69,42a.86.86,0,1,1,1,.68A.85.85,0,0,1,49.69,42Zm9.22-3.07a.86.86,0,1,1,1.7-.31.86.86,0,1,1-1.7.31ZM22.5,33.65a.87.87,0,1,1-1.73,0,.87.87,0,0,1,1.73,0ZM56.12,19.54a.34.34,0,1,1-.34-.34A.34.34,0,0,1,56.12,19.54Zm5.09,5.92a.73.73,0,0,1-.73.72.72.72,0,0,1,0-1.44A.73.73,0,0,1,61.21,25.46Zm7.38,1.29a.87.87,0,1,1-.87-.87A.86.86,0,0,1,68.59,26.75ZM26,31.62a.87.87,0,1,1-.87-.87A.87.87,0,0,1,26,31.62Zm5.7-6.14a.87.87,0,1,1-.87-.87A.87.87,0,0,1,31.67,25.48Zm2-3.61a.44.44,0,0,1-.43.44.44.44,0,0,1-.44-.44.44.44,0,0,1,.44-.43A.43.43,0,0,1,33.66,21.87ZM41.41,8.69a.33.33,0,1,1-.66,0,.33.33,0,1,1,.66,0ZM37.07,36a.87.87,0,1,1-.87-.87A.87.87,0,0,1,37.07,36Zm1.15-7.1a.87.87,0,1,1-.87-.87A.87.87,0,0,1,38.22,28.91Zm1.51-10a.87.87,0,1,1-.87-.87A.87.87,0,0,1,39.73,18.86Zm-8.27-4.14a.66.66,0,1,1-1.32,0,.66.66,0,0,1,1.32,0ZM38.86,8a.66.66,0,1,1-.66-.66A.66.66,0,0,1,38.86,8Zm-2,5.09a.67.67,0,1,1-.66-.66A.67.67,0,0,1,36.87,13.11Zm8,24.56A.87.87,0,1,1,44,36.8.87.87,0,0,1,44.89,37.67Zm-1.65-11a.43.43,0,0,1-.43.43.44.44,0,0,1-.44-.43.44.44,0,0,1,.44-.44A.44.44,0,0,1,43.24,26.62Zm-12,9.49a.42.42,0,0,1-.42.42.42.42,0,1,1,0-.84A.42.42,0,0,1,31.22,36.11ZM40,25.88a.42.42,0,1,1-.42-.42A.42.42,0,0,1,40,25.88Zm-3.22-1.57a.43.43,0,1,1-.42-.42A.42.42,0,0,1,36.82,24.31Zm4.47-1.57a.44.44,0,0,1-.44.44.44.44,0,0,1-.43-.44.43.43,0,0,1,.43-.43A.44.44,0,0,1,41.29,22.74Zm-1.56,8.73a.43.43,0,0,1-.43.43.44.44,0,0,1-.44-.43A.44.44,0,0,1,39.3,31,.44.44,0,0,1,39.73,31.47Zm.44,5.82a.44.44,0,0,1-.44.43.43.43,0,0,1-.43-.43.44.44,0,0,1,.43-.44A.44.44,0,0,1,40.17,37.29Zm-6.32-6.54a.44.44,0,0,1-.44.43.43.43,0,0,1-.43-.43.44.44,0,0,1,.43-.44A.44.44,0,0,1,33.85,30.75Zm-5.07-3a.41.41,0,0,1-.42.42.42.42,0,0,1-.42-.42.42.42,0,0,1,.42-.42A.42.42,0,0,1,28.78,27.71Zm-17.24.34a.44.44,0,0,1-.44.44.44.44,0,0,1,0-.88A.44.44,0,0,1,11.54,28.05Zm4.53,2.26a.44.44,0,0,1-.44.44.44.44,0,0,1-.43-.44.43.43,0,0,1,.43-.43A.44.44,0,0,1,16.07,30.31ZM9.86,22a.44.44,0,0,1-.43.44A.44.44,0,0,1,9,22a.44.44,0,0,1,.44-.43A.43.43,0,0,1,9.86,22Zm7.46,1.72a.43.43,0,0,1,.48-.38.43.43,0,0,1,.38.48.42.42,0,0,1-.48.38A.43.43,0,0,1,17.32,23.72ZM14.67,18.3a.36.36,0,0,1,.39-.31.37.37,0,0,1,.31.4.35.35,0,0,1-.7-.09ZM53.33,37.86a.43.43,0,1,1-.43-.42A.42.42,0,0,1,53.33,37.86ZM44.45,42a.43.43,0,1,1-.85,0,.43.43,0,0,1,.85,0Zm-9.06-31.5a.33.33,0,0,1-.33.33.33.33,0,0,1,0-.66A.33.33,0,0,1,35.39,10.47Zm-1.65,4.8a.33.33,0,1,1-.33-.33A.33.33,0,0,1,33.74,15.27Zm-6.22-4.91a.32.32,0,0,1-.33.33.33.33,0,0,1-.33-.33.33.33,0,0,1,.33-.33A.33.33,0,0,1,27.52,10.36Z"/></g></g></svg>