<svg xmlns="http://www.w3.org/2000/svg" viewBox="0 0 54.85 54.93"><defs><style>.cls-1{fill:none;stroke:#000;stroke-miterlimit:10;}</style></defs><g id="Layer_2" data-name="Layer 2"><g id="Layer_1-2" data-name="Layer 1"><path class="cls-1" d="M46.15,8.58,27.34.86,8.58,8.71.87,27.52,8.71,46.27,27.52,54l18.76-7.84L54,27.34ZM34.83,34.83l-7.4,19v0l-7.4-19-.09,0-.05.05.05-.05L1.4,27.43,20,20l7.4-18.4L34.83,20,53.21,27.4Z"/><polygon class="cls-1" points="27.43 27.43 27.43 27.43 52.26 27.2 34.83 20.02 27.43 27.37 27.43 27.43"/><polygon class="cls-1" points="27.43 27.37 27.43 2.5 20.02 20.02 27.4 27.4 27.43 27.37"/><polygon class="cls-1" points="34.83 20.02 27.43 3.34 27.43 27.37 34.83 20.02"/><polygon class="cls-1" points="27.4 27.4 27.37 27.43 27.43 27.43 27.43 27.43 27.4 27.4"/><polygon class="cls-1" points="27.43 27.37 27.4 27.4 27.43 27.43 27.43 27.37"/><polygon class="cls-1" points="27.43 27.43 34.83 34.83 52.14 27.43 27.43 27.43"/><polygon class="cls-1" points="27.43 27.43 27.43 52.24 34.83 34.83 27.43 27.43 27.43 27.43"/><polygon class="cls-1" points="27.37 27.43 19.94 34.8 20.02 34.83 27.43 52.24 27.43 27.43 27.37 27.43"/><polygon class="cls-1" points="2.6 27.43 19.94 34.8 27.37 27.43 2.6 27.43"/><polygon class="cls-1" points="27.4 27.4 20.02 20.02 2.72 27.43 27.37 27.43 27.4 27.4"/><polygon class="cls-1" points="1.27 0.51 8.58 8.71 27.17 0.94 27.17 0.51 1.27 0.51"/><polygon class="cls-1" points="46.15 8.58 53.67 0.99 27.17 0.51 27.17 0.94 27.34 0.86 46.15 8.58"/><polygon class="cls-1" points="8.71 46.27 1.72 54.34 27.17 54.34 27.17 53.85 8.71 46.27"/><polygon class="cls-1" points="27.52 53.99 27.17 53.85 27.17 54.34 54.35 54.34 54.35 54.22 46.27 46.15 27.52 53.99"/><polygon class="cls-1" points="54.35 1.62 46.15 8.58 53.99 27.34 53.94 27.48 54.35 27.48 54.35 1.62"/><polygon class="cls-1" points="53.94 27.48 46.27 46.15 54.35 53.65 54.35 27.48 53.94 27.48"/><polygon class="cls-1" points="0.66 1.17 0.51 27.48 0.88 27.48 8.58 8.71 0.66 1.17"/><polygon class="cls-1" points="1.11 53.76 8.71 46.27 0.87 27.52 0.88 27.48 0.51 27.48 1.11 53.76"/></g></g></svg>