<svg xmlns="http://www.w3.org/2000/svg" viewBox="0 0 55.98 49.27"><defs><style>.cls-1{fill:none;stroke:#000;stroke-miterlimit:10;}</style></defs><g id="Layer_2" data-name="Layer 2"><g id="Layer_1-2" data-name="Layer 1"><path class="cls-1" d="M22.16,41.65A8.67,8.67,0,1,1,30.83,33,8.68,8.68,0,0,1,22.16,41.65Zm0-16.85A8.18,8.18,0,1,0,30.33,33,8.19,8.19,0,0,0,22.16,24.8Z"/><path class="cls-1" d="M22.16,37a4,4,0,1,1,4-4A4,4,0,0,1,22.16,37Zm0-7.48A3.5,3.5,0,1,0,25.65,33,3.5,3.5,0,0,0,22.16,29.49Z"/><path class="cls-1" d="M49.72,35.39H46.56a.17.17,0,0,1,0-.34h3.16a.17.17,0,0,1,0,.34Z"/><path class="cls-1" d="M51.54,38.2h-6.8a.17.17,0,0,1-.17-.17.18.18,0,0,1,.17-.17h6.8a.17.17,0,0,1,.17.17A.16.16,0,0,1,51.54,38.2Z"/><path class="cls-1" d="M49.73,41.33H46.55a.18.18,0,0,1-.17-.17.17.17,0,0,1,.17-.17h3.18a.16.16,0,0,1,.17.17A.17.17,0,0,1,49.73,41.33Z"/><path class="cls-1" d="M54.81,37.87a6.67,6.67,0,0,0-1-3.46L55.28,33,53,30.74,51.6,32.17a6.6,6.6,0,0,0-3.41-1l-19-7.41V16.61L40.69,6.09l2.13-1.95H43V.5H.5V4.14H.65l.5.44,13.93,12v7.24a11.54,11.54,0,0,0,0,18.26V46H10.6v2.61H30.83V46h-1.6V44.54H43.36V46H41.48v2.75H54.81V46H52.93V42.5A6.64,6.64,0,0,0,54.81,37.87ZM1,3.65V1H42.47V3.65Zm.49.56L1.4,4.14H42.09L40.35,5.73,28.89,16.26H15.42ZM28.74,19.89v3.6a11.55,11.55,0,0,0-13.17,0V18.85H28.74Zm0,24.65V46H15.57V42.47a11.51,11.51,0,0,0,6.59,2.07ZM25.49,44a11.5,11.5,0,0,0,3.25-1.57V44Zm3.74,0V42.11a11.54,11.54,0,0,0,1-17.4l16.84,6.58a6.68,6.68,0,0,0-4.88,3.61H39.64v5.94h2.54a6.34,6.34,0,0,0,1.18,1.66V44Zm14.62,2.48v-2h4.29A6.62,6.62,0,0,0,52.43,43v3.56M43.85,44V43A6.47,6.47,0,0,0,45.63,44Z"/></g></g></svg>