<svg xmlns="http://www.w3.org/2000/svg" viewBox="0 0 46.14 73.65"><defs><style>.cls-1,.cls-2{fill:none;stroke:#000;stroke-miterlimit:10;}.cls-1{stroke-width:1.3px;}.cls-2{stroke-width:1.3px;}</style></defs><g id="Layer_2" data-name="Layer 2"><g id="Layer_1-2" data-name="Layer 1"><path class="cls-1" d="M9.24,28.23c1.17-.14,9,0,9-.06V7.38c0-7.65,7.48-6.69,7.48-6.69,8.09.25,7.5,6.69,7.5,6.69V28.17c2.25,0,4.54-.16,6.78-.06a7.58,7.58,0,0,1,3.28.79,4.07,4.07,0,0,1,2.21,3v6.64H5.75V33.17c0-2.13,1.13-4.41,3.39-4.93Z"/><line class="cls-2" x1="5.75" y1="52.37" x2="5.75" y2="38.54"/><line class="cls-1" x1="45.49" y1="38.54" x2="45.49" y2="52.37"/><path class="cls-1" d="M37.28,52.37A116.36,116.36,0,0,1,34.55,73H21.81s2.66-4.79.52-8.77c0,0-.81,6.38-3,8.77H15s4.35-7.54,1.26-12.33c0,0-1.77,9.67-3.92,12.33H1.47s5-5.54,4.28-20.63"/><path class="cls-1" d="M43.64,52.37A83.74,83.74,0,0,1,41.07,73h2.06c2.36-9.3,2.35-20.63,2.35-20.63"/><path class="cls-1" d="M39.15,52.37A97.1,97.1,0,0,1,36.59,73H39a113.05,113.05,0,0,0,2.71-20.63"/></g></g></svg>