<svg xmlns="http://www.w3.org/2000/svg" viewBox="0 0 124.87 56.84"><defs><style>.cls-1{fill:none;stroke:#000;stroke-miterlimit:10;}</style></defs><g id="Layer_2" data-name="Layer 2"><g id="Layer_1-2" data-name="Layer 1"><rect class="cls-1" x="102.42" y="31.69" width="21.95" height="21.95"/><rect class="cls-1" x="91.89" y="11.02" width="19.16" height="19.16"/><path class="cls-1" d="M103.68,14.32l-1.74-.76a1.15,1.15,0,0,0-.94,0l-1.74.76V11h4.42Z"/><polyline class="cls-1" points="30.44 44.09 25.14 31.59 42.78 24.12 50.26 41.76 36.07 47.77"/><path class="cls-1" d="M37.28,30l-1.89,0a1.28,1.28,0,0,0-.48.09,1.08,1.08,0,0,0-.39.28l-1.31,1.38-1.28-3L36,27Z"/><rect class="cls-1" x="78.51" y="31.69" width="21.95" height="21.95"/><path class="cls-1" d="M92,35.47l-2-.87a1.38,1.38,0,0,0-1.08,0l-2,.87V31.69H92Z"/><path class="cls-1" d="M30.75,48.35a2.76,2.76,0,0,1,3.6,1.48m1.81-2.22A5.43,5.43,0,0,0,31,45.5m6.19,4.59a5.45,5.45,0,0,0-5.39-4.65,5.39,5.39,0,0,0-.8.06,5.38,5.38,0,0,0-2.48,1,5.37,5.37,0,0,0-1.76,2.28,5.43,5.43,0,0,0,0,4.17,6.77,6.77,0,0,0,.33.66,5.45,5.45,0,0,0,9.4,0,5.52,5.52,0,0,0,.34-.69A5.45,5.45,0,0,0,37.2,50.09ZM29.27,52a2.73,2.73,0,0,1,0-2.1,2.76,2.76,0,0,1,5.09,0h0a2.75,2.75,0,0,1-1.48,3.6A2.73,2.73,0,0,1,29.27,52Z"/><path class="cls-1" d="M28.53,46.54,21,28.61,10.41,3.25l-8.49.48A1.35,1.35,0,0,1,1.77,1L11.21.5a1.36,1.36,0,0,1,1.32.83L23,26.39l1,2.49L31,45.5"/><path class="cls-1" d="M36.16,47.61l16.62-7,2.49-1,6.84-2.86a1.34,1.34,0,1,1,1,2.48L37.2,50.09"/></g></g></svg>