<svg xmlns="http://www.w3.org/2000/svg" viewBox="0 0 70.03 54.57"><defs><style>.cls-1{fill:none;stroke:#000;stroke-miterlimit:10;stroke-width:1.3px;}</style></defs><g id="Layer_2" data-name="Layer 2"><g id="Layer_1-2" data-name="Layer 1"><path class="cls-1" d="M28.83,36.72a16.17,16.17,0,0,0,2.69-7.66c.06-2.74-1.28-5.66-3.8-6.74A7.32,7.32,0,0,1,29,26.56a3.46,3.46,0,0,1-2.67,3.2,3.47,3.47,0,0,1-3.4-2,8.26,8.26,0,0,1-.54-4.16A22.91,22.91,0,0,0,10.18,1.69,8.12,8.12,0,0,1,12,5.76a15.59,15.59,0,0,1-.45,5.77C10.13,17.32,6.67,21.91,3.77,27A21.74,21.74,0,0,0,.65,38.17,15.66,15.66,0,0,0,6.36,50a21.06,21.06,0,0,0,5.85,3.1c-.3-.34-.65-.75-.94-1.14C8.78,48.53,7,45.12,6.85,40.76c-.11-3.76,1-7.19,2-10.75a7.67,7.67,0,0,0,.28,1.9c0,.72.06,1.44.06,2.16a37,37,0,0,0,.18,4.59,10.11,10.11,0,0,0,5.77,8.16A9.09,9.09,0,0,1,15,39.25,39.66,39.66,0,0,0,16.75,34c1.15-4.34,1-7.73-1.43-11.5,2.31,2,2.93,3.3,3.77,6.27a24.3,24.3,0,0,1,.76,9.93c-.33,3.09-.49,6.4.73,9.34,1.06,2.57,3,3.94,5.27,5.34a4.24,4.24,0,0,1-1.14-1.48,10,10,0,0,1,.1-8A51.87,51.87,0,0,1,28.83,36.72Z"/><path class="cls-1" d="M66.69,36.72a16.17,16.17,0,0,0,2.69-7.66c.06-2.74-1.29-5.66-3.8-6.74a7.32,7.32,0,0,1,1.24,4.24,3.13,3.13,0,0,1-6.07,1.16,8.26,8.26,0,0,1-.54-4.16A22.91,22.91,0,0,0,48,1.69a8.12,8.12,0,0,1,1.85,4.07,15.59,15.59,0,0,1-.45,5.77C48,17.32,44.52,21.91,41.62,27a21.73,21.73,0,0,0-3.11,11.17A15.68,15.68,0,0,0,44.21,50a21.34,21.34,0,0,0,5.85,3.1c-.29-.34-.64-.75-.93-1.14-2.49-3.46-4.3-6.87-4.43-11.23-.1-3.76,1-7.19,2-10.75a8.73,8.73,0,0,0,.28,1.9c.06.72.07,1.44.07,2.16a37,37,0,0,0,.18,4.59A10.11,10.11,0,0,0,53,46.82a9.09,9.09,0,0,1-.17-7.57A41.14,41.14,0,0,0,54.61,34c1.15-4.34,1-7.73-1.43-11.5,2.31,2,2.93,3.3,3.77,6.27a24.3,24.3,0,0,1,.76,9.93c-.33,3.09-.49,6.4.73,9.34,1.06,2.57,3,3.94,5.27,5.34a4.24,4.24,0,0,1-1.14-1.48,10,10,0,0,1,.1-8A50.85,50.85,0,0,1,66.69,36.72Z"/></g></g></svg>