<svg xmlns="http://www.w3.org/2000/svg" viewBox="0 0 62.77 85.31"><defs><style>.cls-1,.cls-2,.cls-3{stroke:#000;stroke-miterlimit:10;}.cls-2{fill:none;}.cls-3{stroke-width:0.2px;}</style></defs><g id="Layer_2" data-name="Layer 2"><g id="Layer_1-2" data-name="Layer 1"><path class="cls-1" d="M31.23,20.09v.51H48.38V50.33L46,55.1,40.39,66q-3,5.89-6,11.79l-2.31,4.51-.13.27c-.44.88-.82,1.65-2,1.68h-.21c-1.1,0-2,.07-2.67-1.15C23,75.18,11,51.64,10.37,50.33V20.6H28.54v-.51H9.86V50.46l0,0c.13.25,12.56,24.72,16.76,32.86a2.56,2.56,0,0,0,2.59,1.44H30c1.44,0,1.95-1.06,2.39-2l2.44-4.77q3-5.9,6-11.8l5.57-10.93,2.47-4.87V20.09Z"/><path class="cls-2" d="M28.14,10.38a6.06,6.06,0,0,0,3.81,0v4.4a5.37,5.37,0,0,1-3.81,0Z"/><path class="cls-2" d="M32,13.69c2.45-.07,5.18-.22,8.12-.51v7.25"/><path class="cls-2" d="M19.07,20.43V13.18a76.5,76.5,0,0,0,9,.54"/><path class="cls-2" d="M29.37,25.74l-.47-10.5a3.61,3.61,0,0,0,2.29,0l-.59,10.5S30.13,26.4,29.37,25.74Z"/><polyline class="cls-2" points="31.09 10.68 31.09 5.87 29 5.87 29 10.68"/><path class="cls-3" d="M30,25.84s-.05,0,0,.06l.07,0Z"/><path class="cls-3" d="M30,26.09A.16.16,0,0,0,30.2,26c-.08,0-.06,0-.15,0a0,0,0,0,1,0-.07s0-.05-.07,0,0,.11.08.13S30.05,26.09,30,26.09Z"/><path class="cls-3" d="M31.77,28.66v0Z"/><path class="cls-3" d="M32.87,30.23h0Z"/><path class="cls-3" d="M33,30.54v0A0,0,0,0,0,33,30.54Z"/><path class="cls-3" d="M31.77,28.66v.05S31.78,28.68,31.77,28.66Z"/><path class="cls-3" d="M30.42,26.34h0Z"/><path class="cls-3" d="M31.23,28h0Z"/><path class="cls-3" d="M30.83,27.49s.06,0,.09,0h-.06Z"/><path class="cls-3" d="M30.31,26.6h0Z"/><path class="cls-3" d="M31.49,28.39a0,0,0,0,0,0,0Z"/><path class="cls-3" d="M42.58,42.77h0Z"/><path class="cls-3" d="M42.78,43.56h0l0,0Z"/><path class="cls-3" d="M33.29,31.07h0S33.28,31.07,33.29,31.07Z"/><path class="cls-3" d="M36.58,35.49c0-.09.12,0,.11-.08C36.67,35.44,36.56,35.4,36.58,35.49Z"/><path class="cls-3" d="M30.43,26.36v0Z"/><path class="cls-3" d="M36.69,35.41Z"/><path class="cls-3" d="M34.14,32.16v0Z"/><path class="cls-3" d="M33.6,31.28v0Z"/><path class="cls-3" d="M34.52,32.54s0,0,0,0h0S34.52,32.56,34.52,32.54Z"/><path class="cls-3" d="M34.85,33h0l0,0Z"/><path class="cls-3" d="M41.55,41.43a.05.05,0,0,1,0,0S41.62,41.51,41.55,41.43Z"/><path class="cls-3" d="M30.4,26.36h0l0,0S30.4,26.35,30.4,26.36Z"/><path class="cls-3" d="M34.92,32.28l0,.08A.35.35,0,0,0,34.92,32.28Z"/><path class="cls-3" d="M39.19,38.21l0,0Z"/><path class="cls-3" d="M35.13,32.56a.2.2,0,0,0,0,.07h0Z"/><path class="cls-3" d="M42,41.87c0-.07-.08,0-.13,0s0-.07,0-.12-.14,0-.16-.07,0,0,0,0-.12-.15-.23-.17,0,0,0,0a.2.2,0,0,1-.08.08s-.08,0,0-.07,0,0,.05,0H41.4c0-.08.06,0,.1,0s-.17-.08-.19-.14.11.09.11,0l0,.09c.06-.12,0,.05.09-.07s-.11-.09-.16-.2,0,0-.09,0,.07-.22-.09-.26-.14,0-.15-.06l.08,0c-.06-.1-.13,0-.16-.12s.08.06.08,0-.08,0-.11-.07l.05-.05c-.08-.09-.21-.17-.3-.27s.06,0,.06-.05a1,1,0,0,1-.28-.46h-.09s0,0,0,0,0,0-.07,0,0-.06,0,0-.29-.2-.31-.33h0c0-.09-.17,0-.17-.11h0c-.1-.18-.28-.33-.3-.52-.09,0-.08-.18-.19-.12,0-.13,0-.12-.05-.27s-.1,0-.14,0l.05,0h-.1l0-.08,0,0s0,.05,0,.06a.2.2,0,0,1,0-.21L39,38s0,0,.07,0,0-.06-.05-.09,0,0,0,0a.36.36,0,0,0-.12-.2h0a4.47,4.47,0,0,0-.29-.35s-.05.09-.08.06l0-.06c-.05,0,0,.06-.07,0s0-.08.08-.07l-.06,0s0,0,.05,0,0-.14-.1-.13l0,0c-.1-.12-.16-.17-.23-.27s-.07,0-.14,0a1.23,1.23,0,0,0-.13-.29c-.07,0,0,0-.1,0s0-.12,0-.1a1.45,1.45,0,0,0-.25-.24s0,0,0,0a.05.05,0,0,1,0-.08h0c-.18-.11-.13-.45-.32-.51h0l-.14-.09c0-.06.06,0,.06,0-.18-.09-.15-.23-.29-.31.07-.18-.23-.3-.24-.48l0,0c-.06,0,0,0,0-.08s0,0,0,0a3.84,3.84,0,0,1-.51-.85c-.07-.11-.2.06-.22-.12H36c-.21-.14-.29-.4-.49-.55,0,0,0,0,.05,0s-.11-.16-.14-.13,0,0,0-.06-.13-.07-.1-.12h0s-.09-.13-.12-.07-.12-.12-.14-.2-.06-.14-.15-.1c.09-.05,0-.17-.1-.19s0-.06.05-.07-.09-.09-.13-.05c0-.16-.21-.14-.13-.28a3.79,3.79,0,0,1-.41-.37c.08-.05.12.15.2.08-.13-.11-.26-.14-.33-.28s0,0,.07,0c-.13-.1-.19-.26-.31-.34h0s0-.07-.07,0l0,0c0,.07-.18,0-.21,0,.13,0-.06-.13.12-.17a.06.06,0,0,0-.07,0s0-.05,0,0-.09,0-.15-.09h.06c-.06,0-.12,0-.15-.1s0,0,0,0-.22-.12-.28-.26c.1,0,0-.06.06-.11l-.07-.05v.05c0-.06-.13-.08-.14-.14l.06,0-.09-.1,0,.08c-.08,0-.08.07-.12,0s0-.06,0-.11h0s-.09,0-.1-.08.08-.05.09-.06-.12-.13-.2-.12.06,0,.06,0h-.06s0-.05,0-.06-.07.08-.1,0h0c-.05-.11-.16-.16-.2-.26s.07.06.11,0-.27-.2-.34-.33v0c-.1.05,0-.13-.1-.16s.06,0,0,0a1.36,1.36,0,0,0-.27-.26h0a1.86,1.86,0,0,0-.11-.19s-.05,0-.08,0c0-.26-.29-.26-.29-.48h0l-.11-.11s0,0,0,.08a.1.1,0,0,1-.1-.05c.06,0,.06,0,.07-.08l0,0c0-.11-.09.05-.11-.07h0s-.09,0-.11-.08,0,0,.09,0-.16,0-.15-.11l.08,0c0-.09,0-.09,0-.13h0l0-.11v0c-.17,0-.11-.11-.25-.14.13,0,.05,0,.11-.05s0-.08,0-.08,0-.09-.12-.1,0,0,0-.06,0,0,0,0-.07-.24-.23-.29-.18-.05-.27-.12.08,0,.08,0a.18.18,0,0,0-.1-.14s0,0,0,0-.08,0-.09-.05a.13.13,0,0,1,.09,0,1.29,1.29,0,0,0-.16-.09s.07,0,.1,0-.13-.11-.18-.09v0s0,0,.05,0a0,0,0,0,1,0,.09l0,0c-.08.11.11.12.15.19l-.09,0,.11,0s-.05.06-.08,0,.06,0,0,.09h0l.06,0s-.05,0-.06,0,.15.09.12.16h0c.11.1.06,0,.19,0l-.09.15.06,0a0,0,0,0,1,0,0c.07,0,0,0,.08,0s.13.14.06.22,0-.08.06,0,.07.06.06.14-.07-.05-.07,0,.06.11.1.14.1.08.17.14.07.16.1.24h0c.07,0,.11,0,.16.09a.12.12,0,0,1-.1,0l0,.05s.05,0,.08,0l-.06,0c.05.06.15.09.18.19s.08-.15.17-.09-.06.06-.09,0,0,0,0,0h-.06c0,.05,0,0,.06,0s0,0,0,.05,0,0,0,0a.13.13,0,0,1,0,.12s.05,0,.07,0,0,.05,0,.1,0,.06.09,0,0,0,0,.06.12.15.15.07h0c.13.07.14.24.24.34h0c.07.05.12.13.19.15a.07.07,0,0,1,0,.08c.05,0,.07,0,.1.12s0,0-.06,0c0,.08,0,.11.11.15-.06,0,0,.09,0,.11v-.07a.23.23,0,0,1,.07.1l-.07,0c0,.18.29.15.25.34.07,0,0-.1,0-.1s0,.19,0,.21.14,0,.18.12a.08.08,0,0,1,.13,0c0,.07,0,.14-.08.11a0,0,0,0,1,0,0s-.05,0-.06,0h0c0,.05.06.13,0,.13s0,0,0,0,.09.12.13.21,0-.05,0,0,.08,0,.15.1-.09,0,0,.1,0,.05-.07,0,.07.16.09.2l0,0a.12.12,0,0,1,0,.05l0-.05s0,.05,0,.06.06-.07.13-.05.09.07,0,.12c0-.1,0,0-.12,0a.1.1,0,0,1,0,.06h0c0,.13.1,0,.16.09a0,0,0,0,0,0,.08s0-.06.09,0,.06.05.08.08v0s0,0,.09.06,0,0,0,0,0,.15.1.19-.05,0-.05.08,0,.11.11.16,0,0,.09,0l-.12-.1.12,0s-.09-.06-.1-.09.05,0,.07,0,.11.08.12.17l-.11.07c0,.12.17.12.23.26v0s.06.06.1.09,0,.05,0,.09.06.08.14,0v.09c0,.11.18,0,.23.13s0,.06-.12,0,0,.06.06,0,.11.05.09.1.07,0,.09,0,0,0,0,0,.06,0,.08,0c0,.18.2.26.17.41s.12.13.17.18,0,0,0,0,.13,0,.17.1-.07,0-.07,0,.1.1.08.21h0c0,.08.13.09.18.17h0a.65.65,0,0,1,.27.17c-.07,0-.05,0-.09,0s.07-.06.13,0,0,.11,0,.15l-.05-.06c0,.08.07.08.08.12l0,0c.08.09.15,0,.22.15l0,0c.11,0,0,.08.09.1l-.06.07a1.28,1.28,0,0,1,.23.14.58.58,0,0,1-.23-.09s.09.13.14.12,0,0,0,0a.3.3,0,0,1,.22.13c-.15.08.11.22,0,.35.15.09.18.27.3.42.06-.13,0,.05.13,0l0,0,0,.16s-.05,0-.07,0,0,.07,0,.14.08,0,.1,0v-.1c.14.07,0,.16.12.23h-.06c.06,0,.15.21.28.2s0,.06-.05,0c.09.14.31.23.34.38h0s.08,0,.08.06,0,0,0,0,.1,0,.11.08h0c.06.16.22.15.32.25-.08.06,0,.18,0,.24h0c.1.16.25.21.39.33,0,.15.19.33.24.51,0,0,.07,0,.09,0s.12.05,0,.1h0c-.05.07,0,.13.06.18l.1-.06c0,.24.32.34.25.5s.08.06.13.08l-.05,0a.85.85,0,0,0,.18.27h0c0,.07.2,0,.25,0l-.06.07c.08.11.1.27.25.34a0,0,0,0,1,0,0c0,.06.1.25.19.15-.07,0,.08.13.15.17l-.05,0c.1,0,.12,0,.19.06s0,0,0,0,.08,0,.11.1h0c0,.06,0,0,.11,0a.11.11,0,0,1,0,.16s.1,0,.11,0,0,0,0,0,.16.11.16.21l0,0a1,1,0,0,1-.09-.14s0,.1-.1.1c.07,0,.2.06.23.13a0,0,0,0,1,0,0h0a0,0,0,0,0,0,0l0,.07s0,.08,0,.12.07,0,.08-.06l0,0h0l-.06-.07a.07.07,0,0,1,.08.07h.11c0,.09,0,.2,0,.24s.19.22.33.21,0,0,0,.07l-.06,0c.07,0,.13.15.21.12s-.09,0,0,.09h0c0,.26.39.19.41.49,0,0,0,0,0,0,.12.28.41.45.49.75,0,.08.08.06.14.08l0,0,.11,0c.12.07,0,.27.17.33l0,0s.13.13.08.15,0,0,0,0l0,0,.13.08c0,.1-.12.06,0,.19s.18.07.18,0a.08.08,0,0,1,0-.08l.05,0c.09,0,.19-.08.17-.22l-.1,0,0,0,0,.06c0-.06,0-.06-.08-.07s0,0,0-.06l-.13,0s.09,0,.07-.07,0,.08-.11.05,0-.08,0-.09,0,0,.06,0-.08-.09-.14-.07-.1-.12,0-.17a.27.27,0,0,1-.14-.05c.14,0-.08-.13,0-.18-.12,0-.16-.14-.26-.19h0s0-.08,0-.12-.14,0-.21,0,.11,0,.16-.09-.13,0-.16,0,0,0,0-.11,0,0-.12,0,.07-.07,0-.12S42,41.87,42,41.87Zm-1.3-1.48h0l0,0Zm-.1-.14,0,.06s0,0,0,0S40.58,40.28,40.58,40.25Zm-.13.53s0,0,0,0l0,0h0Z"/><path class="cls-3" d="M40.54,40.78h0v0h0Z"/><polygon class="cls-3" points="31.77 28.63 31.77 28.64 31.77 28.63 31.77 28.63"/><polygon class="cls-3" points="39.32 38.34 39.31 38.35 39.33 38.36 39.32 38.34"/><path class="cls-3" d="M31.4,27.78v0Z"/><path class="cls-3" d="M31.17,27.45v-.06A.35.35,0,0,0,31.17,27.45Z"/><path class="cls-3" d="M31,27.19h0Z"/><path class="cls-3" d="M33.92,31Z"/><path class="cls-3" d="M33,30l0,0S33,29.94,33,30Z"/><polygon class="cls-3" points="34.92 32.27 34.92 32.27 34.92 32.28 34.92 32.27"/><path class="cls-3" d="M33.05,30A.07.07,0,0,0,33,30,.1.1,0,0,0,33.05,30Z"/><polygon class="cls-3" points="30.27 26.12 30.26 26.1 30.25 26.11 30.27 26.12"/><path class="cls-3" d="M30.25,26.11h0Z"/><path class="cls-3" d="M30.21,26.08l0,0Z"/><path class="cls-3" d="M30.48,26.46h0Z"/><path class="cls-3" d="M30.56,26.55s0-.09,0-.11h0S30.51,26.55,30.56,26.55Z"/><path class="cls-3" d="M30.64,27.12,30.59,27s0,.06-.05,0C30.56,27.2,30.57,27,30.64,27.12Z"/><path class="cls-3" d="M30.8,27.39s0,0,0,0S30.81,27.44,30.8,27.39Z"/><path class="cls-3" d="M32.15,29.24l0,0S32.12,29.25,32.15,29.24Z"/><polygon class="cls-3" points="32.63 29.42 32.64 29.37 32.59 29.38 32.63 29.42"/><polygon class="cls-3" points="32.47 29.86 32.45 29.85 32.51 29.9 32.47 29.86"/><path class="cls-3" d="M34.75,32.94l0,0S34.71,32.92,34.75,32.94Z"/><path class="cls-3" d="M35.78,34.24a.07.07,0,0,0,0,.09S35.8,34.25,35.78,34.24Z"/><polygon class="cls-3" points="38.63 38.31 38.59 38.3 38.64 38.34 38.63 38.31"/><path class="cls-3" d="M30.42,26.51s-.06,0-.05,0h.07Z"/><path class="cls-3" d="M30.33,26.75a.15.15,0,0,0,.17,0c-.08,0-.05,0-.14-.06a0,0,0,0,1,0-.06s0,0,0-.06a.09.09,0,0,0,0,.15Z"/><path class="cls-3" d="M30.81,29.81v0Z"/><path class="cls-3" d="M31.14,31.7l0,0S31.13,31.7,31.14,31.7Z"/><path class="cls-3" d="M31.12,32v0Z"/><path class="cls-3" d="M30.81,29.81v.05S30.81,29.83,30.81,29.81Z"/><path class="cls-3" d="M30.58,27.13l0,0,0,0Z"/><path class="cls-3" d="M30.59,29v0h0Z"/><path class="cls-3" d="M30.46,28.35s.06,0,.08,0,0,0,0,0Z"/><path class="cls-3" d="M30.36,27.32h0Z"/><path class="cls-3" d="M30.67,29.45s0,0,0,0Z"/><path class="cls-3" d="M34.58,47.18h0Z"/><path class="cls-3" d="M34.43,48h0Z"/><path class="cls-3" d="M31.16,32.64h0S31.16,32.63,31.16,32.64Z"/><path class="cls-3" d="M32.26,38c0-.07.08.09.12,0S32.28,38,32.26,38Z"/><path class="cls-3" d="M30.57,27.15a0,0,0,0,1,0,0S30.58,27.16,30.57,27.15Z"/><path class="cls-3" d="M32.38,38h0Z"/><path class="cls-3" d="M31.46,34l0,0S31.47,34,31.46,34Z"/><path class="cls-3" d="M31.35,33v0Z"/><path class="cls-3" d="M31.65,34.49s0,0,0,0h0S31.64,34.51,31.65,34.49Z"/><path class="cls-3" d="M31.75,35h0v0Z"/><path class="cls-3" d="M34.23,45.53l0,0S34.25,45.62,34.23,45.53Z"/><path class="cls-3" d="M30.54,27.14h0v0Z"/><path class="cls-3" d="M32.12,34.43v.08A.25.25,0,0,0,32.12,34.43Z"/><path class="cls-3" d="M33.46,41.61v0S33.47,41.62,33.46,41.61Z"/><path class="cls-3" d="M32.19,34.77a.09.09,0,0,0,0,.06h0Z"/><path class="cls-3" d="M34.43,46.11c0-.09-.08,0-.13,0s.05,0,.08-.1-.11-.09-.12-.13,0,0,0,0,0-.19-.14-.25l0,0-.1,0s-.07-.06,0-.08,0,0,0,0l0,0c.07,0,0,0,.09,0s-.11-.15-.1-.21,0,.13.1,0v.1c.1-.09,0,.06.11,0s-.07-.13-.07-.25,0,0-.1,0,.16-.16,0-.27-.15,0-.12-.11h.09c0-.11-.13,0-.1-.17s0,.08,0,.06-.06,0-.07-.1l.07,0c0-.12-.11-.24-.15-.37s.05,0,.06,0a1.19,1.19,0,0,1-.05-.53l-.07-.06a0,0,0,0,1,0,0c0-.07,0,0-.07,0s0-.05,0,0a.61.61,0,0,1-.13-.43l0,0c0-.1-.15-.08-.11-.18h0c0-.2-.11-.41,0-.58-.09,0,0-.21-.12-.2,0-.13.07-.1.08-.27s-.09,0-.12-.1h.07l-.08-.06.07,0,0,0s0,0,0,0a.18.18,0,0,1,0-.21l-.09-.17s0,0,.06.05.07,0,0-.11h0a.31.31,0,0,0,0-.23h0a3.93,3.93,0,0,0-.1-.44.06.06,0,0,1-.11,0l.07,0s0,.06-.09,0,.08-.06.1,0l0-.06h.06s0-.13,0-.16h0c0-.15-.07-.22-.09-.34s-.06,0-.12-.07a1.13,1.13,0,0,0,0-.32c0-.07-.06,0-.1,0s0-.13.08-.08a1.35,1.35,0,0,0-.13-.32s0,0,0,0,0-.07,0-.07h0c-.11-.18.08-.47-.07-.6h0l-.09-.15c0-.07,0,0,.07,0s0-.27-.12-.4c.14-.14-.09-.38,0-.54h0s0,0,0-.07,0,0-.05,0a4,4,0,0,1-.11-1c0-.12-.2,0-.14-.2l.08,0c-.14-.23-.1-.49-.21-.71,0,0,0,0,0,0s0-.19-.07-.18,0,0,0,0-.09-.12,0-.15,0,0,0,0,0-.16-.08-.11-.06-.17,0-.24,0-.16-.1-.16c.1,0,0-.17,0-.21s0-.06.07,0,0-.12-.09-.1c.09-.14-.14-.22,0-.31-.08-.18-.15-.35-.21-.52.1,0,.05.19.15.16-.07-.15-.17-.23-.18-.39s0,0,.06,0c-.07-.15-.05-.31-.13-.44l0,0s0-.07,0,0l0,0c-.06.06-.16-.09-.19-.08.13,0,0-.15.18-.11,0,0,0,0-.07,0s0,0,.06,0-.08-.05-.1-.15l.06,0a.2.2,0,0,1-.1-.16s0,0,0,0c0-.14-.15-.21-.14-.36.1,0,0-.06.1-.08l0-.08,0,0c0-.07-.08-.12-.07-.18l0,0,0-.13v.08c-.06-.06-.1,0-.1-.07s0-.07,0-.11h0a.12.12,0,0,1,0-.12s.08,0,.1,0-.05-.15-.13-.18a.08.08,0,0,0,.07,0h-.06s0,0,0,0-.09,0-.07-.07l0,0c0-.12-.08-.21-.08-.32s0,.08.1,0a2.69,2.69,0,0,1-.16-.45v0c-.11,0,0-.12,0-.18h.05a1.09,1.09,0,0,0-.13-.35h0a.83.83,0,0,0,0-.22s0-.05-.07,0c.12-.23-.17-.36-.06-.56,0,0,0,0,0,0l-.06-.15s0,0-.05.07a.11.11,0,0,1-.07-.09c0,.06.07,0,.09,0h0c.07-.1-.1,0-.07-.12h0s-.06-.07-.06-.12,0,0,.08,0-.13-.09-.08-.16,0,.06,0,.08,0-.07,0-.12h0v-.08c-.16-.05-.06-.15-.17-.23.11.08.05,0,.12,0s0-.07,0-.07,0-.09-.06-.14,0-.05.05-.05,0,0-.06,0,0-.24-.09-.36-.13-.12-.19-.22.08,0,.08,0a.16.16,0,0,0,0-.16s0,0,.05,0-.08,0-.06-.08.07,0,.09,0l-.1-.15s.06,0,.08,0-.06-.16-.12-.16v0s0,0,.06,0,0,.08,0,.09l0,0c-.11.07.05.16.06.24l-.09,0,.09.07s-.07.05-.09,0,0,0,0,.1h0l0,.05s-.06,0,0,0,.09.15,0,.2h0c.06.13.07,0,.16.09l-.14.1h.06s0,.05,0,.05,0,0,.07,0,.07.19,0,.22,0-.07.07,0c-.11,0,0,.08,0,.15s-.05-.07-.08,0,0,.13,0,.18.05.11.09.19,0,.18,0,.27h0c.08,0,.08.09.11.15s-.07,0-.09,0V29s0,0,.06.06h-.06c0,.08.1.14.08.25s.13-.11.19,0-.08,0-.1,0,0,0,0,.05l-.06,0c0,.05,0,0,.05.05s0,0-.06,0,0,0,0,0a.17.17,0,0,1,0,.12s0,0,.06,0,0,0-.05.09,0,.07.07.06,0,0,0,0,.05.19.1.13h0c.09.12,0,.28.07.4h0c0,.07.05.17.1.22s0,.06,0,.05,0,.06,0,.16c0-.06,0,0,0-.06,0,.08,0,.11,0,.18s-.06.07,0,.1l0-.06a.25.25,0,0,1,0,.12H30.9c-.06.18.2.26.08.41.06,0,0-.09.08-.07s-.08.17-.07.2.12.07.11.18a.08.08,0,0,1,.13,0c0,.07-.09.11-.12.07s0,0,0,0,0-.05-.05,0h0s0,.14,0,.12.05,0,.05,0,0,.14,0,.24l0,0c0,.15.06.06.09.15s-.09,0,0,.09-.06,0-.09,0,0,.17,0,.23l0-.05a.26.26,0,0,1,0,.08l0,0s0,0,0,.06.08,0,.14,0,0,.11,0,.14-.06,0-.09-.07,0,0,0,.07h0c0,.12.09,0,.11.15s-.07,0-.06.05.06,0,.1,0,0,.07,0,.11v-.05s0,.05.07.1,0,0,0,0,0,.14,0,.21-.07,0-.08,0,0,.1,0,.19,0,0,.09,0l-.06-.15.09.08s-.05-.09-.05-.12,0,0,.08,0,.07.12,0,.2l-.13,0c0,.12.11.18.1.33l0,0s0,.09,0,.13,0,0-.08.06,0,.1.11.1l-.05.07c0,.12.15.11.16.22s-.08,0-.12,0,0,.07,0,.06.08.09.05.14.06,0,.07,0h0s0,.06.08,0c-.11.14.07.32,0,.44a1.35,1.35,0,0,1,.08.24s0,0,0,0,.13,0,.11.16,0-.05-.06,0,0,.13,0,.23v0c0,.07.08.13.08.23h0a.62.62,0,0,1,.17.26c-.06,0,0,0-.09,0s.09,0,.12,0,0,.09-.1.11v-.08c-.07.06,0,.11,0,.15h0c0,.12.12.1.14.23l0,0c.09.06,0,.07,0,.13l-.08,0a1,1,0,0,1,.14.22c-.07,0-.12-.12-.17-.18s0,.16.09.18,0,0,0-.06a.3.3,0,0,1,.14.2c-.17,0,0,.25-.11.34.09.15,0,.32.08.51.12-.09,0,0,.14,0a.15.15,0,0,1,0,.06l-.06.15s0,0-.06,0-.05.06-.07.13.07,0,.07.07l0-.08c.1.12-.09.13,0,.26l0,0c0,.06,0,.26.17.3s0,0-.06,0c0,.17.18.35.14.49h0s.07,0,0,.08h0s.07.07.06.12l0,0c0,.17.13.23.18.36s-.1.15-.1.22h0a1.82,1.82,0,0,0,.21.47c-.08.13,0,.38,0,.56,0,0,.07,0,.09,0s.09.1,0,.11h0c-.08,0,0,.13,0,.19H33c-.13.2.15.44,0,.56,0,0,0,.09.08.12H33a1.37,1.37,0,0,0,.06.32l0,0c0,.08.19.07.21.14l-.09,0c0,.14,0,.29.09.42s0,0,0,0,0,.26.11.21c-.08,0,0,.15.07.22H33.3c.08,0,.11,0,.14.13s0,0,0,0,.07,0,.05.13l0,0c0,.07,0,.06.08.09a.13.13,0,0,1,0,.16.1.1,0,0,1,.08.08,0,0,0,0,1,0,0c0,.13.11.17.07.26l0,0a.88.88,0,0,1,0-.17s0,.09-.14,0c.06.05.17.14.16.22h0a.05.05,0,0,0,0,0s0,0,0,.07,0,.09,0,.13.06,0,.1,0,0,0,0,0h0a.44.44,0,0,0,0-.1s.07,0,0,.1l.11,0c-.07.07-.1.18-.15.2s.08.28.21.33,0,0,0,.06,0,0,0,0,.05.2.13.2-.08,0,0,.08h0c-.08.25.27.33.16.61l0,0c0,.3.18.58.13.89,0,.08,0,.08.09.12l-.06,0,.09.07c.08.11-.12.24,0,.37l0,0s.06.16,0,.16,0,0,0,0h0l.08.12c0,.11-.14,0-.11.16s.13.14.14.12a.06.06,0,0,1,0-.07l0,0c.1,0,.21,0,.26-.12l-.08-.08,0,0,0,.07s0-.06,0-.09a.07.07,0,0,0,0-.05l-.11-.06s.09,0,.1,0-.08.05-.12,0,.07,0,0-.09a0,0,0,0,1,.06,0s0-.12-.09-.13,0-.15,0-.16a.19.19,0,0,1-.1-.1c.13.05,0-.15.1-.16-.11,0-.08-.19-.16-.27s0,0,0,0,0-.08,0-.12-.12-.07-.18-.11.11,0,.18,0-.09-.1-.14-.07,0,0,.08-.09c-.11,0,0,0-.1-.07s.09,0,0-.12S34.43,46.11,34.43,46.11Zm-.55-1.9h0v0Zm0-.16a.2.2,0,0,0,0,.07s0,0,0,0S33.83,44.08,33.85,44.05Zm-.35.42s0,0,0,0v0h0Z"/><path class="cls-3" d="M33.59,44.5h0v0h0Z"/><polygon class="cls-3" points="30.82 29.78 30.81 29.79 30.82 29.78 30.82 29.78"/><polygon class="cls-3" points="33.52 41.79 33.51 41.79 33.52 41.8 33.52 41.79"/><path class="cls-3" d="M30.84,28.85s0,0,0,0Z"/><path class="cls-3" d="M30.78,28.46V28.4A.35.35,0,0,1,30.78,28.46Z"/><path class="cls-3" d="M30.75,28.16h0Z"/><path class="cls-3" d="M31.74,32.86h0S31.76,32.88,31.74,32.86Z"/><path class="cls-3" d="M31.33,31.49l0,0S31.36,31.48,31.33,31.49Z"/><polygon class="cls-3" points="32.12 34.42 32.12 34.42 32.12 34.42 32.12 34.42"/><path class="cls-3" d="M31.38,31.59a.06.06,0,0,0,0-.06A.13.13,0,0,0,31.38,31.59Z"/><polygon class="cls-3" points="30.53 26.87 30.53 26.85 30.52 26.85 30.53 26.87"/><path class="cls-3" d="M30.52,26.85h0S30.51,26.85,30.52,26.85Z"/><path class="cls-3" d="M30.49,26.81l0,0S30.51,26.81,30.49,26.81Z"/><path class="cls-3" d="M30.58,27.27h0Z"/><path class="cls-3" d="M30.61,27.38s0-.08,0-.11h0S30.57,27.36,30.61,27.38Z"/><path class="cls-3" d="M30.44,27.93v-.1s-.05.05-.06,0C30.33,28,30.42,27.8,30.44,27.93Z"/><path class="cls-3" d="M30.47,28.25c0-.05,0,0,0,0S30.46,28.29,30.47,28.25Z"/><path class="cls-3" d="M30.9,30.49h0S30.87,30.49,30.9,30.49Z"/><polygon class="cls-3" points="31.27 30.86 31.29 30.82 31.24 30.81 31.27 30.86"/><polygon class="cls-3" points="30.93 31.19 30.92 31.18 30.95 31.24 30.93 31.19"/><path class="cls-3" d="M31.68,35l.07,0S31.65,34.91,31.68,35Z"/><path class="cls-3" d="M32.07,36.57s0,.07,0,.09S32.08,36.58,32.07,36.57Z"/><polygon class="cls-3" points="32.91 41.46 32.88 41.43 32.91 41.49 32.91 41.46"/><path class="cls-3" d="M30.1,26.05s-.06,0-.06,0l.06,0Z"/><path class="cls-3" d="M29.92,26.23a.13.13,0,0,0,.14.09c-.06-.05,0-.05-.1-.11a0,0,0,0,1,.06,0s0,0,0-.07a.1.1,0,0,0-.05.14S29.93,26.24,29.92,26.23Z"/><path class="cls-3" d="M29.08,29.21h0Z"/><path class="cls-3" d="M28.59,31.07s0,0,0,0A0,0,0,0,1,28.59,31.07Z"/><path class="cls-3" d="M28.44,31.37v0S28.44,31.36,28.44,31.37Z"/><path class="cls-3" d="M29.08,29.21l0,.05S29.07,29.24,29.08,29.21Z"/><path class="cls-3" d="M30,26.69s0,0,0,0v0Z"/><path class="cls-3" d="M29.22,28.38v0l0,0Z"/><path class="cls-3" d="M29.37,27.75s.05,0,.07,0a.05.05,0,0,1,0,0S29.38,27.74,29.37,27.75Z"/><path class="cls-3" d="M29.71,26.77v0Z"/><path class="cls-3" d="M29.1,28.83h0Z"/><path class="cls-3" d="M25.28,46.58h0Z"/><path class="cls-3" d="M24.82,47.24h0Z"/><path class="cls-3" d="M28.22,31.93h0Z"/><path class="cls-3" d="M27,37.29c.06,0,0,.12.12,0S27,37.23,27,37.29Z"/><path class="cls-3" d="M30,26.7v0Z"/><polygon class="cls-3" points="27.1 37.33 27.1 37.33 27.11 37.32 27.1 37.33"/><path class="cls-3" d="M27.94,33.29h0Z"/><path class="cls-3" d="M28.26,32.31v0Z"/><path class="cls-3" d="M27.89,33.83s0,0,0,0h0A0,0,0,0,1,27.89,33.83Z"/><path class="cls-3" d="M27.76,34.37h0v0Z"/><path class="cls-3" d="M25.65,44.93h-.06C25.64,44.94,25.63,45,25.65,44.93Z"/><path class="cls-3" d="M30,26.68l0,0v0Z"/><path class="cls-3" d="M28.35,34l0,.08A.19.19,0,0,0,28.35,34Z"/><path class="cls-3" d="M26.58,41.05v0S26.59,41.06,26.58,41.05Z"/><path class="cls-3" d="M28.27,34.3a.1.1,0,0,0-.05,0h0Z"/><path class="cls-3" d="M25.59,44.94Z"/><path class="cls-3" d="M25.6,45.54c0-.08-.07,0-.11-.08s.07,0,.12-.06-.07-.13-.06-.17h0c-.05-.08,0-.19,0-.28h0a.2.2,0,0,1-.11,0s0-.08,0-.08,0,0,0,0v0c.08,0,0,.06.07.07s-.05-.18,0-.24,0,.14.07.08l0,.08c.13,0,0,.06.11,0s0-.14.05-.25-.06,0-.1,0,.22-.09.15-.23-.13-.08-.06-.15l.07.05c0-.12-.1-.1,0-.2s0,.09,0,.08,0-.07,0-.13h.07c0-.13,0-.27,0-.41,0,0,0,0,.07,0a1.14,1.14,0,0,1,.17-.51l0-.08s0,0,0,0,0,0-.06-.05.05,0,.06,0a.63.63,0,0,1,.06-.45v0c.05-.09-.1-.13,0-.21v0c.07-.19.07-.42.2-.55-.08,0,.09-.19,0-.23.08-.1.1-.06.18-.21s-.06-.09-.06-.14h.06l-.05-.08.09,0v-.06s0,0,0,0,.09-.18.12-.17v-.2s0,0,0,.07.07,0,0-.1,0,0-.05,0a.31.31,0,0,0,.08-.22l0,0c0-.14,0-.3.08-.45a.05.05,0,0,1-.1,0h.07s0,0-.07,0,.08,0,.1,0v-.07s0,0,0,0,.1-.11,0-.17h0c0-.15,0-.22.06-.35s0-.06-.08-.11a.78.78,0,0,0,.14-.29c0-.08,0,0-.07-.07s.07-.11.1,0a1.24,1.24,0,0,0,0-.35s0,0-.05,0,0-.07.06-.06h0c0-.2.26-.39.18-.57h0l0-.17c0-.06,0,.06.08,0s.08-.26.05-.41c.18-.07.08-.38.21-.5h0c0-.05,0,0,0-.07s0,0-.06,0a4.65,4.65,0,0,1,.33-1c0-.12-.18-.11-.05-.24l.05.06c0-.26.12-.49.11-.74,0,0,0,0,0,0s0-.18,0-.19,0,0,.07,0,0-.14,0-.15,0,0,0,0,0-.14,0-.13,0-.17.07-.23.07-.14,0-.18c.09,0,.11-.13.08-.2s0,0,.07,0,0-.13,0-.13c.15-.09,0-.25.13-.28a3.41,3.41,0,0,1,0-.56c.09,0,0,.19.07.21,0-.17-.06-.28,0-.44s0,0,0,.06a4,4,0,0,0,.06-.47.05.05,0,0,1,0,0s0-.06,0-.07v0c-.07,0-.1-.14-.13-.15s.06-.14.2,0,0-.05,0-.05,0,0,.06,0-.05-.08,0-.17,0,0,.05,0a.19.19,0,0,1,0-.18s0,0,0,0-.06-.25,0-.38c.08.06,0-.05.12,0v-.08l0,0c0-.06,0-.14,0-.19l0,.06,0-.13-.05.06c0-.08-.1,0-.05-.1s0-.07.07-.09h0a.12.12,0,0,1,0-.13s.09,0,.11,0,0-.17,0-.23,0,0,.06,0l0,0s0,0,.06,0-.11,0,0-.09,0,0,0,0,0-.22.07-.32,0,.1.07.08a1.87,1.87,0,0,1,0-.48l0,0c-.11-.05.08-.1.05-.18s0,0,0,0a1.05,1.05,0,0,0,0-.37l0,0a1.31,1.31,0,0,0,.08-.21s0-.06-.06,0c.21-.16,0-.4.18-.54,0,0,0,.06,0,0v-.15c-.05,0,0,0-.08,0a.11.11,0,0,1,0-.11c0,.08.08,0,.11,0l0,0c.1-.05-.1,0,0-.12h0s0-.09,0-.13,0,0,.06.06-.08-.14,0-.18,0,.07,0,.09.07-.05.09-.09h0l.05-.09,0,0c-.13-.11,0-.16-.07-.28.07.12.05,0,.11.05s.06-.05.07,0,.06-.07,0-.15,0,0,.07,0,0,0-.07,0,.14-.2.08-.36-.08-.17-.08-.28.06,0,.06,0a.16.16,0,0,0,0-.16s0,0,.06,0-.06-.05,0-.1l.07.06s0-.11,0-.17,0,0,.06.07,0-.17-.05-.2l0,0s.05,0,.05,0,0,.07-.06.07v0c-.13,0,0,.16,0,.24l-.08-.06.05.1s-.08,0-.08,0,0,.06,0,.1,0,0,0,0v.06s-.06,0,0,0,0,.18-.05.2h0c0,.15.06,0,.11.15l-.17,0,.06,0s0,0-.05,0,0,0,.07,0,0,.2-.13.19c.05,0,.06-.06.07,0s0,.09-.06.14,0-.08-.08,0c.09.06-.05.11,0,.17s0,.12,0,.22-.08.15-.13.23h0c.07,0,0,.12,0,.18s-.07,0-.08-.06v.05a.1.1,0,0,1,0,.08l-.06,0c0,.07,0,.17,0,.26s.17-.05.18.07-.08,0-.09,0a0,0,0,0,1,0,.05l0-.05s0,0,0,.06,0,0-.07,0,0,0,0,0a.16.16,0,0,1-.09.09s.06,0,.06,0-.06,0-.09.06,0,.06,0,.08,0,0-.05,0,0,.19,0,.16h0c0,.15-.11.27-.11.4h0a.65.65,0,0,0,0,.24s-.05,0-.07,0,0,.07,0,.15c0-.07,0,0,0-.07,0,.08-.08.09,0,.18s-.08,0-.08.08l.06,0,0,.11-.07,0c-.12.13.08.32-.09.4,0,.05.05-.08.1,0s-.15.12-.15.14.08.12,0,.21a.09.09,0,0,1,.1.08c0,.07-.13.07-.14,0s0,0,0,0,0-.06,0,0h0s-.06.13-.09.1,0,0,.05,0,0,.14-.08.23.05,0,.05,0,0,.07,0,.17-.09,0-.08.06-.07,0-.08,0-.08.16-.1.2V31.7a.21.21,0,0,1,0,.08l.05,0s0,0,0,0,.09,0,.12.06,0,.12-.07.11-.07,0,0-.1a.19.19,0,0,1,0,.07l0,0c-.08.1.07.07,0,.18s-.08,0-.07,0,.06,0,.08,0,0,.08,0,.12l0,0s0,0,0,.11,0-.05,0,0-.1.11-.07.2-.07,0-.1,0-.07.09-.06.19.05,0,.08,0v-.16l.05.12s0-.11,0-.13,0,.05.07,0,0,.14-.06.2l-.12,0c-.08.09,0,.2,0,.34l0,0c.05,0,0,.08,0,.13s-.06,0-.1,0,0,.1.06.13l-.07.05c-.05.11.08.16,0,.27,0,0-.07,0-.09-.09s0,.07,0,.08,0,.11,0,.14.06,0,0,.07h0s0,.07.07,0c-.16.08-.07.32-.2.39s0,.18,0,.25,0,0,0,0,.1.08,0,.19,0-.07-.06,0,0,.14-.11.2v0c-.06,0,0,.15,0,.24h0a.52.52,0,0,1,.05.3c-.05,0,0,0-.08,0s.09,0,.08.09-.07.08-.13.07l0-.08c-.09,0,0,.1-.05.14h0c0,.12.06.14,0,.27h0c.07.09-.06.05,0,.13h-.09a1.56,1.56,0,0,1,0,.27.68.68,0,0,1-.08-.24s0,.16,0,.19,0,0,0-.06a.26.26,0,0,1,0,.24c-.15,0-.09.23-.23.26,0,.18-.11.32-.14.5.14,0,0,.06.12.08s0,.06,0,.06l-.11.12s0-.05,0-.06-.07,0-.12.09.06,0,0,.09l.08-.06c0,.15-.14.09-.1.24l0,0c0,.07-.07.25,0,.35s-.06,0-.06,0c-.05.16,0,.39-.07.5l0,0s0,.07,0,.1,0,0,0,0,0,.09,0,.13l0-.05c-.08.15,0,.27,0,.41-.09,0-.15.1-.18.16h0a1.81,1.81,0,0,0,0,.52c-.13.08-.13.35-.23.51,0,0,.07,0,.07,0s0,.13,0,.1h0c-.09,0-.09.1-.1.16l.1,0c-.2.13,0,.46-.21.52,0,0,0,.1,0,.14H26a1.16,1.16,0,0,0-.08.31l0,0c0,.08.15.14.14.21h-.1c0,.14-.14.26-.09.42,0,0,0,0,0,0s-.12.24,0,.24c-.08,0,0,.14,0,.23l-.05,0c.06.08.08.09.08.18s-.06,0,0,0,0,.07,0,.15l0,0c0,.07,0,.07,0,.12a.13.13,0,0,1-.1.13.08.08,0,0,1,0,.1l0,0c-.07.11,0,.19,0,.26h0c0-.09.05-.17.05-.16s-.08.06-.14,0c0,.08.09.2,0,.27h0a0,0,0,0,0,0,0s0,0,0,0-.05.09-.06.12,0,.06.1,0,0,0,0,0,0,0,0,0h0a.44.44,0,0,1,0-.1s0,.08,0,.11l.09.08c-.1,0-.17.12-.22.12s-.05.28.05.38,0,0-.06,0,0,0,0-.06,0,.2,0,.24-.06-.07-.08,0l0,0c-.17.2.11.42-.11.63l0,0c-.14.27-.08.61-.26.86,0,.08,0,.1,0,.16h-.06l.05.1c0,.13-.21.17-.14.34h.05c0,.06,0,.18-.07.16s0,0,0,0h0l0,.14c0,.1-.13,0-.17.1s.06.19.08.17,0,0,.07,0v0c.09,0,.18.1.28,0l0-.1.06,0,0,.07c.06,0,0-.06,0-.1l.06,0-.07-.11s.07.06.1,0-.09,0-.11,0,.09,0,.07-.07,0,0,0,0,0-.11,0-.15,0-.15.11-.12a.29.29,0,0,1,0-.14c.09.1,0-.15.15-.1-.08-.08,0-.2,0-.31s0,0,0,0,.05-.06.08-.09-.08-.12-.12-.18.09.07.17.06,0-.13-.1-.12,0,0,.11,0c-.1,0,0,0-.06-.1s.1,0,.09-.09S25.6,45.54,25.6,45.54Zm.28-1.95h0v0Zm0-.16a.64.64,0,0,0,0,.07s0,0,0,0S25.9,43.45,25.92,43.43Zm-.49.24s0,0,0,0v0h0Z"/><path class="cls-3" d="M25.49,43.73h0Z"/><path class="cls-3" d="M29.1,29.19h0Z"/><polygon class="cls-3" points="26.57 41.24 26.55 41.23 26.56 41.25 26.57 41.24"/><path class="cls-3" d="M29.51,28.36h0Z"/><path class="cls-3" d="M29.62,28l0-.05A.09.09,0,0,0,29.62,28Z"/><path class="cls-3" d="M29.72,27.69h0Z"/><path class="cls-3" d="M28.66,32.38h0Z"/><path class="cls-3" d="M28.86,31a.43.43,0,0,1,0,.05S28.89,31,28.86,31Z"/><polygon class="cls-3" points="28.36 33.95 28.36 33.95 28.35 33.96 28.36 33.95"/><path class="cls-3" d="M28.86,31.07a0,0,0,0,0,0-.06S28.85,31.05,28.86,31.07Z"/><path class="cls-3" d="M30.05,26.43v0h0Z"/><path class="cls-3" d="M30.05,26.41v0S30,26.4,30.05,26.41Z"/><path class="cls-3" d="M30,26.35v0A.08.08,0,0,0,30,26.35Z"/><path class="cls-3" d="M29.93,26.81h0S29.94,26.81,29.93,26.81Z"/><path class="cls-3" d="M29.91,26.93s.06-.06.06-.1h0S29.88,26.89,29.91,26.93Z"/><path class="cls-3" d="M29.53,27.36l0-.1s-.07,0-.06,0C29.41,27.35,29.57,27.23,29.53,27.36Z"/><path class="cls-3" d="M29.42,27.66c0-.06,0,0-.05,0S29.39,27.69,29.42,27.66Z"/><path class="cls-3" d="M28.88,29.88l-.05,0S28.85,29.86,28.88,29.88Z"/><polygon class="cls-3" points="29.06 30.37 29.1 30.34 29.06 30.3 29.06 30.37"/><polygon class="cls-3" points="28.61 30.52 28.61 30.5 28.61 30.58 28.61 30.52"/><path class="cls-3" d="M27.73,34.26h.07S27.73,34.21,27.73,34.26Z"/><path class="cls-3" d="M27.41,35.88s-.07,0,0,.09S27.42,35.9,27.41,35.88Z"/><polygon class="cls-3" points="26.14 40.68 26.13 40.64 26.13 40.71 26.14 40.68"/><path class="cls-3" d="M30.14,26.16s0,0,0,0h.06Z"/><path class="cls-3" d="M30.12,26.36s.1,0,.13,0,0,0-.11,0a0,0,0,0,1,0-.05s0,0-.05,0a.07.07,0,0,0,0,.11S30.13,26.35,30.12,26.36Z"/><path class="cls-3" d="M31.12,28.62v0S31.11,28.61,31.12,28.62Z"/><path class="cls-3" d="M31.75,30a0,0,0,0,0,0,0A0,0,0,0,0,31.75,30Z"/><path class="cls-3" d="M31.81,30.27v0Z"/><path class="cls-3" d="M31.12,28.62v0S31.12,28.64,31.12,28.62Z"/><path class="cls-3" d="M30.39,26.6h0v0Z"/><path class="cls-3" d="M30.78,28h0Z"/><path class="cls-3" d="M30.55,27.57h0Z"/><path class="cls-3" d="M30.27,26.79h0Z"/><path class="cls-3" d="M30.93,28.37h0Z"/><path class="cls-3" d="M37.57,41.24h0Z"/><path class="cls-3" d="M37.61,41.88Z"/><path class="cls-3" d="M32,30.73h0S32,30.72,32,30.73Z"/><path class="cls-3" d="M33.91,34.66c0-.06.08.05.09,0S33.91,34.59,33.91,34.66Z"/><path class="cls-3" d="M30.39,26.62v0S30.4,26.62,30.39,26.62Z"/><polygon class="cls-3" points="34.01 34.62 34.01 34.62 34.01 34.61 34.01 34.62"/><path class="cls-3" d="M32.47,31.71v0Z"/><path class="cls-3" d="M32.18,30.94v0Z"/><path class="cls-3" d="M32.72,32.06s0,0,0,0h0S32.72,32.07,32.72,32.06Z"/><polygon class="cls-3" points="32.91 32.46 32.92 32.45 32.91 32.44 32.91 32.46"/><path class="cls-3" d="M37,40l0,0S37,40.1,37,40Z"/><path class="cls-3" d="M30.37,26.62s0,0,0,0h0A0,0,0,0,0,30.37,26.62Z"/><path class="cls-3" d="M33.07,31.91l0,.07A.19.19,0,0,0,33.07,31.91Z"/><path class="cls-3" d="M35.57,37.17v0Z"/><path class="cls-3" d="M33.19,32.16a.11.11,0,0,0,0,.05h0Z"/><path class="cls-3" d="M37.23,40.44c0-.06-.07,0-.1,0s0,0,0-.09-.11-.05-.12-.08l0,0c-.07,0-.07-.14-.15-.16s0,0,0,0a.18.18,0,0,1-.08,0s-.06,0,0-.06h0l0,0c.05,0,0,0,.08,0s-.12-.09-.12-.14.06.09.08,0V40c.06-.09,0,0,.08,0s-.07-.08-.1-.18,0,0-.08,0,.09-.16,0-.22-.12,0-.12-.06h.07c0-.09-.11,0-.11-.11s0,.05,0,0,0,0-.07-.07l.05,0c-.05-.08-.14-.16-.2-.25s0,0,0,0a1.14,1.14,0,0,1-.15-.4l-.06,0s0,0,0,0,0,0-.06,0,0,0,0,0a.46.46,0,0,1-.19-.3h0c0-.08-.13,0-.11-.12h0c-.05-.16-.17-.3-.16-.44-.07,0,0-.16-.13-.13s0-.09,0-.22-.08,0-.11-.05l0,0-.07,0,0-.05,0,0s0,0,0,0a.14.14,0,0,1,0-.17L35.44,37s0,0,.06,0,0,0,0-.08,0,0,0,0a.27.27,0,0,0-.07-.17h0c0-.11-.12-.21-.17-.32,0,.05-.06.07-.08,0l.05,0c-.05,0,0,0-.07,0s0-.06.08,0l-.05,0s0,0,.05,0,0-.12-.06-.12h0A2.8,2.8,0,0,0,35,36s-.05,0-.1,0a1.2,1.2,0,0,0-.06-.24s0,0-.09,0,0-.11,0-.08a2,2,0,0,0-.16-.23s0,0,0,0,0-.06,0-.06h0c-.13-.11,0-.37-.17-.44h0l-.1-.09c0-.06,0,0,0,0s-.08-.2-.17-.28c.08-.13-.15-.27-.12-.41l0,0s0,0,0-.07,0,0,0,0a3,3,0,0,1-.29-.74c0-.09-.16,0-.15-.13h.07c-.15-.14-.18-.36-.31-.51,0,0,0,0,0,0s-.06-.14-.09-.12,0,0,0-.05-.09-.06-.07-.1,0,0,0,0-.05-.11-.08-.07-.08-.12-.08-.18,0-.12-.11-.1c.08,0,0-.14,0-.16s0-.05,0-.05-.05-.08-.08,0c0-.13-.15-.14-.07-.24a2.81,2.81,0,0,1-.27-.36c.07,0,.07.14.14.1s-.17-.15-.21-.27,0,0,0,0-.1-.24-.19-.32h0s0-.05-.05,0h0c0,.06-.13,0-.16,0s0-.11.12-.11a.07.07,0,0,0-.06,0s0,0,0,0-.07,0-.11-.09,0,0,.05,0-.09,0-.1-.1,0,0,0,0-.16-.13-.18-.25,0,0,.06-.08l0-.05,0,0S32,30,32,29.93l0,0-.06-.09v.06c-.06,0-.07,0-.09,0s0,0,0-.1h0a.1.1,0,0,1-.07-.07s.07,0,.08,0-.07-.11-.14-.11l.06,0h-.05s0,0,0,0-.06.06-.07,0,0,0,0,0-.1-.15-.12-.23,0,.06.08,0-.18-.2-.22-.31v0c-.09,0,0-.1-.07-.13s.06,0,.05,0-.1-.14-.17-.24h0a1.09,1.09,0,0,0-.05-.17s0,0-.06,0c0-.21-.2-.25-.16-.42,0,0,0,0,0,0l-.08-.1s0,0,0,.06a.09.09,0,0,1-.07-.05c.05,0,.06,0,.07-.06l0,0c0-.09-.07,0-.07-.08h0s-.06,0-.07-.07,0,0,.07,0-.12,0-.1-.11l.06.06a.13.13,0,0,0,0-.11h0v-.06c-.13,0-.07-.1-.18-.14.1,0,.05,0,.1,0s0-.06,0-.06,0-.07-.08-.09,0,0,0-.05,0,0-.05,0,0-.2-.13-.26-.13-.07-.2-.14.07,0,.07,0a.13.13,0,0,0-.06-.12s0,0,0,0-.07,0-.07-.05a.21.21,0,0,1,.08,0l-.11-.09s0,0,.07,0-.08-.11-.13-.1v0s0,0,.05,0,0,.06,0,.07l0,0c-.07.07.07.11.09.17h-.07l.08,0s0,0-.06,0,0,0,0,.08,0,0,0,0l0,0s0,0,0,0,.11.1.07.15h0c.07.09.06,0,.15,0l-.09.11h.05s0,0,0,0,0,0,.06,0,.08.13,0,.17,0-.06.06,0,0,.06,0,.12,0,0-.06,0,0,.1.06.13.06.07.11.13,0,.14,0,.21h0c.06,0,.08.05.11.09s0,0-.08,0l0,0s0,0,0,0h0c0,.06.1.09.11.18s.08-.11.15,0-.06,0-.08,0,0,0,0,0l-.05,0s0,0,.05,0,0,0,0,0,0,0,0,0a.11.11,0,0,1,0,.1s0,0,.06,0,0,0,0,.08,0,.05.07,0,0,0,0,0,.07.13.11.08h0c.09.08.07.22.14.3h0c.05.05.07.12.13.15s0,.05,0,.05.05,0,.05.11,0,0,0,0,0,.08.07.12,0,.07,0,.09v-.05a.59.59,0,0,1,0,.08h-.05c0,.15.2.16.14.3s0-.07.05-.07,0,.15,0,.17.11,0,.13.12a.06.06,0,0,1,.1,0c0,.06,0,.11-.08.08s0,0,0,0,0,0,0,0h0s0,.11,0,.11,0,0,0,0,.05.1.07.18,0,0,0,0,.05,0,.09.09-.07,0,0,.08-.05,0-.07,0,0,.14,0,.18l0,0,0,.05,0,0s0,0,0,.05.06-.05.11,0,.06.07,0,.1,0,0-.08,0a.08.08,0,0,1,0,.05h0c0,.1.08,0,.12.09a0,0,0,0,0,0,.06s0,0,.07,0,0,.05.06.08v0s0,0,.07.06,0,0,0,0,0,.12.06.16,0,0,0,.06,0,.08.06.14,0,0,.07,0l-.08-.1.09.05s-.06-.06-.06-.08,0,0,.06,0,.07.08.06.15l-.09,0c0,.1.12.12.14.24v0s0,.06.07.08,0,0-.05.07,0,.07.11,0l0,.07c0,.09.13.05.16.14s0,0-.1,0,0,.06,0,0,.08.05.06.09.05,0,.07,0h0s0,0,.06,0c-.05.13.12.22.08.34a1.63,1.63,0,0,1,.11.17s0,0,0,0,.11,0,.12.11-.05,0-.06,0,.07.09,0,.18h0c0,.06.09.08.12.16h0a.52.52,0,0,1,.19.17c-.05,0,0,0-.07,0s.06,0,.1,0,0,.08,0,.11l0-.06c0,.06,0,.07,0,.11h0c0,.08.11,0,.16.15v0c.08,0,0,.06.06.09l-.06,0a1.06,1.06,0,0,1,.16.15.62.62,0,0,1-.17-.11s.06.12.1.12,0,0,0,0a.22.22,0,0,1,.15.13c-.13,0,.05.19,0,.28.1.1.1.24.17.38.07-.1,0,0,.11,0s0,0,0,0v.13s0,0-.06,0,0,0,0,.11.06,0,.07,0v-.07c.1.07,0,.12.06.19h0s.09.18.19.2,0,0,0,0,.21.23.21.34h0s.06,0,0,0,0,0,0,0,.07,0,.07.07h0c0,.13.15.15.21.24s0,.14,0,.19h0c.06.14.17.2.26.32s.1.28.12.43c0,0,0,0,.07,0s.09.06,0,.09h0s0,.1,0,.15l.08,0c-.06.18.2.31.13.43s0,.06.09.08l0,0a1,1,0,0,0,.11.23h0c0,.06.16,0,.19.07l-.06.05c.05.1,0,.23.15.3s0,0,0,0,.05.21.13.15,0,.11.1.15H35.8c.08,0,.09,0,.14.08s0,0,0,0,.06,0,.07.09h0c0,.06,0,0,.08.06a.09.09,0,0,1,0,.13s.08,0,.08.05h0c0,.1.11.11.1.19s0,0,0,0a.81.81,0,0,1-.06-.13s0,.08-.09.07.15.07.16.14h0s0,0,0,0a.09.09,0,0,0,0,0s0,.07,0,.1.06,0,.07,0v0h0l0-.07s.07,0,.06.07h.09c0,.07,0,.16-.08.19s.12.19.23.21,0,0,0,0l0,0s.08.15.14.13-.07,0,0,.07h0c0,.21.28.2.25.44,0,0,0,0,0,0,0,.23.26.41.28.66,0,.07,0,0,.09.08l0,0,.09,0c.08.07,0,.2.09.28l0,0s.08.12,0,.13,0,0,0,0h0l.09.08c0,.08-.11,0-.06.15s.13.08.14.06a.05.05,0,0,1,0-.07l0,0c.07,0,.16,0,.17-.16l-.08,0,0,0,0,.06c0-.05,0-.06,0-.07a.05.05,0,0,0,0,0l-.1,0s.07,0,.06-.05,0,.06-.09,0,0-.05,0-.08a0,0,0,0,1,0,0s0-.08-.1-.08-.06-.1,0-.13a.18.18,0,0,1-.1-.06c.11,0-.05-.11,0-.14-.1,0-.11-.13-.18-.18h0s0-.06,0-.09-.11,0-.16-.05.08,0,.13,0-.09-.06-.12,0,0,0,0-.09,0,0-.09,0,.06,0,0-.1S37.23,40.44,37.23,40.44Zm-.81-1.35h0l0,0ZM36.36,39a.14.14,0,0,1,0,.06h0S36.36,39,36.36,39Zm-.18.4s0,0,0,0l0,0h0Z"/><path class="cls-3" d="M36.26,39.38Z"/><polygon class="cls-3" points="31.11 28.6 31.11 28.6 31.12 28.59 31.11 28.6"/><polygon class="cls-3" points="35.65 37.3 35.64 37.3 35.66 37.31 35.65 37.3"/><path class="cls-3" d="M31,27.87h0Z"/><path class="cls-3" d="M30.82,27.58v0Z"/><path class="cls-3" d="M30.74,27.36h0Z"/><path class="cls-3" d="M32.46,30.78h0S32.47,30.79,32.46,30.78Z"/><path class="cls-3" d="M31.86,29.8l0,0S31.89,29.79,31.86,29.8Z"/><polygon class="cls-3" points="33.07 31.9 33.06 31.9 33.07 31.91 33.07 31.9"/><path class="cls-3" d="M31.92,29.88a.06.06,0,0,0,0-.05A.17.17,0,0,0,31.92,29.88Z"/><polygon class="cls-3" points="30.3 26.41 30.3 26.4 30.29 26.4 30.3 26.41"/><path class="cls-3" d="M30.29,26.4h0Z"/><path class="cls-3" d="M30.26,26.37l0,0A0,0,0,0,0,30.26,26.37Z"/><path class="cls-3" d="M30.42,26.7h0Z"/><path class="cls-3" d="M30.47,26.79s0-.07,0-.09h0S30.43,26.78,30.47,26.79Z"/><path class="cls-3" d="M30.45,27.25l0-.08s0,0-.05,0S30.41,27.15,30.45,27.25Z"/><path class="cls-3" d="M30.53,27.49s0,0,0,0S30.53,27.52,30.53,27.49Z"/><path class="cls-3" d="M31.33,29.13h0S31.3,29.13,31.33,29.13Z"/><polygon class="cls-3" points="31.68 29.34 31.69 29.3 31.65 29.3 31.68 29.34"/><polygon class="cls-3" points="31.49 29.66 31.48 29.65 31.52 29.69 31.49 29.66"/><path class="cls-3" d="M32.84,32.41l0,0S32.81,32.38,32.84,32.41Z"/><path class="cls-3" d="M33.46,33.57s0,.07,0,.07S33.48,33.58,33.46,33.57Z"/><polygon class="cls-3" points="35.11 37.17 35.08 37.16 35.12 37.19 35.11 37.17"/><path class="cls-3" d="M30.17,26.33l.06,0v0S30.17,26.3,30.17,26.33Z"/><path class="cls-3" d="M30.14,26.45s0,0,0,0,0,0,0-.05a.07.07,0,0,0,0,.12h0a.12.12,0,0,0,.13,0C30.18,26.49,30.21,26.49,30.14,26.45Z"/><path class="cls-3" d="M30,29v0S30,29,30,29Z"/><path class="cls-3" d="M30.25,26.82l0,0v0Z"/><path class="cls-3" d="M30,28.27h0Z"/><path class="cls-3" d="M30.11,43.72h0Z"/><path class="cls-3" d="M29.87,31.22h0Z"/><path class="cls-3" d="M30.32,41.77l0,0S30.32,41.85,30.32,41.77Z"/><path class="cls-3" d="M30.24,26.83h0Z"/><path class="cls-3" d="M30.35,33a.05.05,0,0,0,0,0,0,0,0,0,0,0,0Z"/><path class="cls-3" d="M30.32,43.65l-.05-.08,0,0v.06s0-.06,0-.08l0,0-.08-.07s.07,0,.08,0-.07,0-.09,0,.06,0,0-.06a0,0,0,0,1,0,0s0-.1-.06-.12,0-.12.07-.11a.26.26,0,0,1-.07-.1c.1.06,0-.12.11-.11-.08,0,0-.16-.08-.24v0s0,0,.05-.08-.09-.08-.13-.11.08,0,.14,0-.05-.09-.1-.07,0,0,.08-.06,0,0-.07-.07.08,0,.06-.08.05,0,.05,0-.06,0-.1,0,.05,0,.08-.07-.07-.08-.07-.12,0,0,0,0,0-.16-.07-.22h-.07s0-.06,0-.07,0,0,0,0l0,0c.06,0,0,0,.07,0s-.07-.13-.06-.18,0,.11.08,0l0,.07c.1-.05,0,0,.1,0s0-.11,0-.21,0,0-.08,0,.15-.11.07-.21-.11,0-.07-.11l.06,0c0-.1-.09-.06-.05-.15s0,.07,0,.06,0,0,0-.1h.05c0-.1-.05-.2-.06-.31s0,0,0,0a1,1,0,0,1,.05-.43l-.05,0s0,0,0,0,0,0-.05,0a0,0,0,0,1,0,0,.5.5,0,0,1,0-.36l0,0c0-.07-.11-.08-.06-.15h0c0-.16,0-.34,0-.47s0-.16-.07-.17c.05-.09.07-.07.1-.2s-.06,0-.07-.09h.05l-.05-.06.06,0v0l0,0c0-.07,0-.16.06-.16l0-.15s0,0,0,.05.05,0,0-.09,0,0,0,0a.26.26,0,0,0,0-.18h0c0-.11,0-.23,0-.36a0,0,0,0,1-.09,0h.06s0,0-.06,0,.06,0,.08,0l0,0s0,0,.05,0,.05-.1,0-.13h0c0-.12,0-.18,0-.28s0,0-.08-.07a1.84,1.84,0,0,0,.05-.25c0-.06,0,0-.07,0s0-.09.07,0a1.7,1.7,0,0,0,0-.28s0,0-.05,0,0-.05,0-.05h0c-.07-.16.13-.36,0-.48h0L30.27,36c0-.06,0,0,.06,0s0-.21,0-.33c.13-.08,0-.31.08-.42h0s0,0,0-.06,0,0,0,0a3.13,3.13,0,0,1,.07-.8c0-.08-.13-.06-.1-.14h0v0l.06,0c-.07-.2,0-.4-.06-.59h0s0,0,0,0,0-.15,0-.15,0,0,.05,0-.05-.11,0-.13v0s0-.12,0-.1,0-.13,0-.19h0v0l0,0s0-.1,0-.12.06-.12,0-.17,0,0,0,0h0s0-.1-.05-.09-.08-.19,0-.24a3.52,3.52,0,0,1-.09-.42h0c.08,0,0,.15.09.15h0L30.28,32a.32.32,0,0,1,0-.17s0,0,0,0l0,0h0c0-.13,0-.24,0-.35h0v0l0,0s0-.05,0-.05h0v0h0a.81.81,0,0,1-.09-.1h0c.06,0,0-.07.09-.07h.05s0,0-.05,0a0,0,0,0,1,0,0h0c0-.08-.05-.06-.05-.12h0v0s0,0,0,0a.13.13,0,0,1,0-.14s0,0,0,0-.08-.18-.05-.3h0c.06,0,0,0,.09,0l0-.06,0,0h0c0-.06,0-.11,0-.15l0,0v-.1l0,0h0v-.05l0,0s0,0,0,0,0,0,0,0h0l0,0h0s-.05-.06,0-.1h0s0,0,0,0h.05c-.06,0,0-.13-.07-.17h.05l0,0s0,0,.05,0-.08,0-.05-.07l0,0a1,1,0,0,0,0-.17h0a.06.06,0,0,1,0,0h0s0,0,0,0h0c.07,0,0,.07.07,0a1.57,1.57,0,0,1-.05-.37v0c-.09,0,0-.09,0-.15s.05,0,0,0a.88.88,0,0,0,0-.29h0a.88.88,0,0,0,0-.17s0-.05,0,0c.14-.16-.06-.31,0-.45,0,0,0,0,0,0l0-.12s0,0,0,0a.09.09,0,0,1,0-.08c0,.05.06,0,.08,0s0,0,0,0-.08,0,0-.1h0s0-.06,0-.1,0,0,.06,0-.09-.1,0-.14,0,.05,0,.07,0-.05.05-.09h0l0-.09,0,0c-.11-.06,0-.12-.09-.21.07.09,0,0,.09,0s0-.06.05,0,0-.06,0-.12,0,0,0,0,0,0,0,0,.07-.18,0-.3a1.28,1.28,0,0,0-.1-.17.08.08,0,0,0,0,0l0,0a.15.15,0,0,0,0-.13s0,0,.05,0-.06,0,0-.08l.07,0a.75.75,0,0,1-.06-.13s0,0,.06,0,0-.13-.07-.15v0s0,0,.05,0,0,.06,0,.06v0c-.1,0,0,.13,0,.2l-.08,0,.06.07s-.06,0-.07,0,0,0,0,.08h0l0,.05s-.05,0,0,0,0,.11,0,.14a.56.56,0,0,1-.1-.15s.07,0,.07,0a.15.15,0,0,0,0-.13s0,0,0,0-.06,0,0-.07l.06,0a.84.84,0,0,0-.06-.14s0,0,.06.05,0-.13-.07-.15l0,0s0,0,.05,0,0,.06,0,.06v0c-.1,0,0,.13,0,.19l-.07,0,.06.06s-.06,0-.07,0,0,0,0,.09a0,0,0,0,1,0,0l0,.05s-.05,0,0,0,.06.13,0,.16h0c0,.12,0,0,.11.1l-.13.06h.06s0,0,0,0,0,0,.06,0,0,.15-.07.16,0,0,.06,0,0,.07,0,.12,0-.06-.07,0,0,.1,0,.14,0,0,0,0l0,0h0s0,0,.06,0,0,.1,0,.15,0,.13-.06.2h0c.07,0,.05.08.07.13s-.06,0-.07,0v.05a.09.09,0,0,1,0,.06l-.05,0c0,.07.05.13,0,.21s.07,0,.1,0v0h0a0,0,0,0,1,0,0h0v0s-.06,0-.07,0,0,0,0,0l0,0s0,0,0,0,0,0-.05,0,0,0,0,0a.16.16,0,0,1-.05.08s0,0,.05,0,0,0-.06.06,0,.05.05.05,0,0,0,0,0,.15.06.12h0c.05.11,0,.23,0,.33h0a.74.74,0,0,0,0,.19s0,0,0,0,0,.05,0,.12,0,0,0-.05,0,.08,0,.15-.06.05,0,.08l0-.05v.08h-.06c-.05.1,0,.18,0,.26v0h0v0a.09.09,0,0,1,0,.07s0-.07.08,0,0,0,0,0h0s-.07.09-.07.1.08.08.06.16H30s0,0,0,0,0,0,0,0h0s0,0,0,0,0-.05,0,0h0s0,0,0,0,0,0,0,0a0,0,0,0,1,0,0v0l0,0a0,0,0,0,1,0,0s0-.05,0,0h0s0,.11-.05.09,0,0,.05,0h0c0,.07,0,.12,0,.19s0,0,0,0,0,.05.05.13h0s-.05,0,0,0a0,0,0,0,1,0,0l0,0a0,0,0,0,1,0,0s0,0,0,0,0,.1,0,.14h0a.08.08,0,0,0,0,0l0,0a.13.13,0,0,1,0,.06h0s0,0,0,0,.06,0,.1,0,0,.06,0,.08,0,0-.06-.06v0s0,0,0,0v0a0,0,0,0,1,0,0c-.05.08.05,0,.06.12h0s0,0,0,0h0a.05.05,0,0,1,.05,0c0,.06,0,.07,0,.1v0s0,0,0,.06,0,0,0,0a0,0,0,0,1,0,0h0s0,0,0,0-.06.1,0,.17H29.9c0,.07,0,.07,0,.15s0,0,.07,0v0h0l0-.1,0,.06h0s0-.07,0-.09,0,0,0,0h0c-.06.05,0,.1,0,.15h-.12a.19.19,0,0,0,0,.13.21.21,0,0,1,0,.11h0v0l0,0s0,0,0,0,0,.06,0,.09,0,0-.07,0,0,.08.07.1l-.05.05c0,.09.09.1.08.19h0l0,0v0s0,0,0,0,0,.06,0,.06,0,.09,0,.11h0s0,0,0,0h0s0,0,.05,0h0c-.09.09,0,.25-.08.32a1.65,1.65,0,0,1,0,.21s0,0,0,0,.09.06.06.14,0,0,0,0h0s0,0,0,0,0,.11-.05.17h0s0,.11,0,.19h0a.4.4,0,0,1,.09.21h0s0,0,0,0h0s0,0-.07,0,.07,0,.08.06l0,0v0s0,0,0,0h0v-.06c-.06,0,0,.08,0,.11h0c0,.1.07.1.07.2h0a.07.07,0,0,0,0,.07l0,0h-.07l.05.14a0,0,0,0,1,0,0,.09.09,0,0,1,0,0c-.05,0-.07-.12-.1-.17s0,.12,0,.14,0,0,0,0a.22.22,0,0,1,.08.19c-.13,0,0,.19-.15.24.05.13,0,.26,0,.41.1,0,0,.05.11,0v0h0l-.06.11s0,0-.05,0,0,0-.07.08.05,0,0,.07l.05-.06c.05.11-.09.09,0,.21l0,0c0,.06,0,.21.07.27s0,0-.05,0c0,.14.09.3,0,.41h0s0,0,0,.07,0,0,0,0,0,.07,0,.1l0,0c0,.13.06.2.08.31s-.11.1-.12.15h0a1.77,1.77,0,0,0,.08.4c-.08.09,0,.3-.09.44,0,0,.06,0,.06,0s.05.09,0,.09h0c-.07,0-.06.09-.06.14h.09c-.13.14,0,.37-.08.44s0,.08,0,.11H29.7a1,1,0,0,0,0,.25l0,0c0,.06.13.08.14.14l-.08,0c0,.11-.07.23,0,.34s0,0,0,0-.05.21.05.19c-.07,0,0,.12,0,.18H29.7a.2.2,0,0,1,.09.13,0,0,0,0,1,0,0s0,0,0,.1l0,0c0,.06,0,0,.05.09s0,.11-.06.11.06.05,0,.08l0,0c0,.1.06.15,0,.22h0a.94.94,0,0,1,0-.14s0,.07-.11,0,.1.14.08.2h0s0,0,0,0a.11.11,0,0,0,0,.05s0,.08,0,.11,0,0,.08,0v0h0v-.08s.05,0,0,.09l.08,0c-.07.05-.11.13-.15.14s0,.22.1.29,0,0,0,0,0,0,0,0,0,.16.07.18-.06,0-.05,0h0c-.11.18.15.31,0,.51l0,0c-.07.24,0,.49-.06.72,0,.06,0,.07,0,.11h0l.06.08c0,.09-.13.16-.06.29l0,0s0,.14,0,.13,0,0,0,0h0l0,.11c0,.08-.11,0-.12.1s.08.13.1.12,0-.05,0-.05l0,0c.07,0,.15,0,.2,0s.06.07.07.05a0,0,0,0,1,0,0v0C30.18,43.72,30.27,43.75,30.32,43.65ZM30.25,27v0Zm-.57,13.88h0s0,0,0,0Zm.38.09h0ZM30,40.55v.06h0S30,40.57,30,40.55Zm.25.14v0Zm0-.08a0,0,0,0,1,0,0s0,0,0-.05Zm.05-9.15h0Zm0,0h0Zm-.16-3.22h0Zm0,0h0Zm.07-.83s0,0,0,0Zm0-.25s0,0,.06,0l0,0S30.23,27.19,30.22,27.17Zm0,.15h0a0,0,0,0,0,0,0Zm-.1.3s0,0,0,0v0Zm0,.29,0,0v0S30.11,27.93,30.13,27.91Zm0,.1v0s0,0,0,0Zm0,.12,0,0S30.12,28.14,30.12,28.13Zm.06.36s.05,0,.06.05h0A.06.06,0,0,1,30.18,28.49ZM30,34.44s0,0,0,0A.06.06,0,0,0,30,34.44Zm0,7.05a.13.13,0,0,1,0-.06.16.16,0,0,0,0,.07Zm-.05.1h0a.22.22,0,0,0,0,.08A.11.11,0,0,1,30,41.59Zm0,.14Zm.08.06,0,.05,0,0Zm0,.38v0h0S30,42.17,30,42.17Zm0,.52h0a0,0,0,0,1,0,0Zm0,.84h0Zm0,0h0Z"/><polygon class="cls-3" points="30.03 28.93 30.04 28.93 30.03 28.93 30.03 28.93"/><polygon class="cls-3" points="30.34 38.73 30.32 38.73 30.33 38.75 30.34 38.73"/><path class="cls-3" d="M30.29,31.48h0S30.3,31.5,30.29,31.48Z"/><polygon class="cls-3" points="30.35 32.75 30.35 32.75 30.35 32.76 30.35 32.75"/><path class="cls-3" d="M30.2,30.43a0,0,0,0,0,0-.05S30.19,30.41,30.2,30.43Z"/><polygon class="cls-3" points="30.25 26.59 30.25 26.6 30.25 26.59 30.25 26.59"/><path class="cls-3" d="M30.23,26.55v0A0,0,0,0,0,30.23,26.55Z"/><path class="cls-3" d="M30,27.42v-.08s0,0-.05,0S30,27.32,30,27.42Z"/><path class="cls-3" d="M30,27.68c0-.05,0,0,0,0S30,27.71,30,27.68Z"/><path class="cls-3" d="M30,29.49s0,0,0,0Z"/><polygon class="cls-3" points="29.9 30.04 29.92 30.09 29.91 30.05 29.9 30.04"/><path class="cls-3" d="M30,33.1s0,0,0,0-.05,0,0,0H30Z"/><path class="cls-3" d="M30.33,26.33l.06,0v0S30.33,26.31,30.33,26.33Z"/><path class="cls-3" d="M30.3,26.46a0,0,0,0,1,0,0s0,0,0-.06a.08.08,0,0,0,0,.12h0a.12.12,0,0,0,.12.05C30.34,26.5,30.36,26.49,30.3,26.46Z"/><path class="cls-3" d="M30,30.47h0Z"/><path class="cls-3" d="M30.39,26.82s0,0,0,0v0Z"/><path class="cls-3" d="M29.78,43.71h0Z"/><path class="cls-3" d="M29.81,35.6c.05-.05.05.08.1,0S29.84,35.53,29.81,35.6Z"/><path class="cls-3" d="M30,32.74s0,0,0,0h0S29.94,32.75,30,32.74Z"/><path class="cls-3" d="M29.94,33.18h0Z"/><path class="cls-3" d="M30.39,26.84v0h0Z"/><path class="cls-3" d="M29.76,40.05h0Z"/><path class="cls-3" d="M29.73,40.86h0Z"/><path class="cls-3" d="M30.35,27.65h0Z"/><path class="cls-3" d="M30.31,31.48h0S30.31,31.5,30.31,31.48Z"/><path class="cls-3" d="M30.23,30.34a.08.08,0,0,0,0,0S30.25,30.34,30.23,30.34Z"/><polygon class="cls-3" points="30.33 32.76 30.33 32.76 30.33 32.77 30.33 32.76"/><path class="cls-3" d="M30.24,30.43a.11.11,0,0,0,0-.05A.07.07,0,0,0,30.24,30.43Z"/><polygon class="cls-3" points="30.41 26.6 30.4 26.59 30.4 26.61 30.41 26.6"/><path class="cls-3" d="M30.38,26.55v0S30.4,26.56,30.38,26.55Z"/><path class="cls-3" d="M30.38,27s0-.05,0-.09h0S30.35,27,30.38,27Z"/><polygon class="cls-3" points="30.31 29.82 30.27 29.8 30.28 29.85 30.31 29.82"/><path class="cls-3" d="M29.9,34.5s0-.06,0-.08S29.87,34.47,29.9,34.5Z"/><polygon class="cls-3" points="29.7 38.35 29.72 38.4 29.72 38.38 29.7 38.35"/><path class="cls-3" d="M30,26.2s0,0,0,0l0,0Z"/><path class="cls-3" d="M29.81,26.3s0,.1.09.1,0,0,0-.1a0,0,0,0,1,0,0s0,0,0-.06a.08.08,0,0,0-.07.1S29.82,26.31,29.81,26.3Z"/><path class="cls-3" d="M28.58,28.45h0Z"/><path class="cls-3" d="M27.84,29.79s0,0,0,0Z"/><path class="cls-3" d="M27.67,30h0S27.66,30,27.67,30Z"/><path class="cls-3" d="M28.58,28.45l0,0S28.57,28.46,28.58,28.45Z"/><path class="cls-3" d="M29.77,26.67s0,0,0,0v0Z"/><path class="cls-3" d="M28.86,27.83h0v0Z"/><path class="cls-3" d="M29.09,27.37s0,0,.05.05,0,0,0,0Z"/><path class="cls-3" d="M29.55,26.68h0Z"/><path class="cls-3" d="M28.67,28.15h0Z"/><path class="cls-3" d="M22.26,41.13h0Z"/><path class="cls-3" d="M21.77,41.55h0Z"/><path class="cls-3" d="M27.39,30.38Z"/><path class="cls-3" d="M25.38,34.28c.06,0,0,.1.09.06S25.43,34.24,25.38,34.28Z"/><path class="cls-3" d="M29.76,26.68v0A0,0,0,0,0,29.76,26.68Z"/><polygon class="cls-3" points="25.47 34.34 25.47 34.34 25.47 34.33 25.47 34.34"/><path class="cls-3" d="M26.9,31.37h0Z"/><path class="cls-3" d="M27.35,30.68h0Z"/><path class="cls-3" d="M26.76,31.78s0,0,0,0h0A0,0,0,0,1,26.76,31.78Z"/><path class="cls-3" d="M26.56,32.17h0Z"/><path class="cls-3" d="M22.86,39.93h0S22.83,40,22.86,39.93Z"/><path class="cls-3" d="M29.75,26.66v0Z"/><path class="cls-3" d="M27.09,32l0,.06A.09.09,0,0,0,27.09,32Z"/><path class="cls-3" d="M24.34,37.11v0Z"/><path class="cls-3" d="M27,32.22l-.05,0h0Z"/><path class="cls-3" d="M22.81,39.93h0Z"/><path class="cls-3" d="M22.7,40.39c0-.06,0-.06-.07-.09s.06,0,.1,0,0-.11,0-.14h0c0-.07.07-.14.05-.22h0l-.08,0s0-.06,0-.06,0,0,0,0v0c.06,0,0,0,0,.07s0-.15,0-.19,0,.11,0,.08l-.05.05c.11,0,0,0,.08,0s0-.11.09-.19-.05,0-.07-.05.18,0,.16-.15-.08-.08,0-.13l0,.05c.05-.08-.06-.09,0-.15s0,.07,0,.06,0,0,0-.1l0,0c0-.09.05-.21.1-.31s0,0,0,0a1,1,0,0,1,.24-.36l0-.07s0,0,0,0,0,0,0,0,0,0,.05,0a.44.44,0,0,1,.13-.33v0c.06-.06-.05-.12,0-.16h0c.09-.13.14-.31.26-.39-.05,0,.11-.13,0-.18.09-.06.09,0,.18-.13s0-.08,0-.12l.05,0,0-.07h.07v0s0,0-.05,0,.1-.12.13-.11l0-.16a.15.15,0,0,1,0,.07c0-.1.06,0,.05-.08l0,0a.23.23,0,0,0,.1-.16l0,0a2.37,2.37,0,0,0,.15-.32s-.08,0-.07,0l.05,0s0,0-.05,0,.07,0,.08,0v-.06l0,0s.1-.06.06-.12h0c.05-.11.06-.17.11-.26s0-.05,0-.1.12-.11.15-.19,0,0,0-.08.08-.06.09,0a1.11,1.11,0,0,0,.09-.26H25.2a0,0,0,0,1,.06,0h0c0-.17.28-.25.26-.41h0v-.13s0,0,.06,0,.11-.19.12-.31.14-.28.26-.34h0s0,0,0,0,0,0,0,0a3.64,3.64,0,0,1,.43-.67c.06-.08-.11-.12,0-.2l0,.06c0-.2.19-.35.23-.55,0,0,0,0,0,0s.07-.13,0-.14,0,0,.06,0,0-.12,0-.12,0,0,0,0,.06-.11,0-.11,0-.13.09-.17.08-.1,0-.14S27.05,32,27,32s0,0,.06,0,0-.1,0-.11c.13,0,0-.2.15-.2a4.17,4.17,0,0,1,.13-.42c.06,0-.07.14,0,.17,0-.13,0-.23.08-.33s0,0,0,0,.12-.22.14-.34a0,0,0,0,1,0,0s0,0,0,0v0c-.06,0-.05-.13-.07-.15s.07-.09.16,0a.05.05,0,0,0,0-.05s0,0,0,0,0-.08,0-.14,0,0,0,0a.16.16,0,0,1,0-.15s0,0,0,0,0-.21.09-.3c.05.07,0,0,.1,0l0-.06h0c0-.05,0-.11.05-.14V30l0-.1-.05,0c0-.07-.07,0,0-.09s0,0,.07-.06h0a.1.1,0,0,1,0-.1s.06,0,.08,0,0-.12,0-.18l0,0,0,0s0,0,.05,0-.08,0,0-.09,0,0,0,0,.05-.17.11-.24,0,.07,0,.07.05-.26.12-.35h0c-.08-.06.08-.06.07-.13s0,0,0,0,.05-.15.09-.28v0a1.3,1.3,0,0,0,.1-.15s0-.05,0-.05c.19-.08.08-.3.24-.38,0,0,0,0,0,0l0-.12s0,0-.06,0a.07.07,0,0,1,0-.09c0,.06.05,0,.08,0l0,0c.09,0-.06-.05,0-.1h0s0-.07,0-.1,0,0,0,.06,0-.12,0-.14,0,.05,0,.07.06,0,.09,0h0l.06-.06h0c-.07-.11,0-.12,0-.23,0,.11,0,0,.08.06s.05,0,.06,0,.06,0,0-.12,0,0,.05,0,0,0-.05,0,.15-.13.13-.27,0-.14,0-.23,0,.05,0,.05a.14.14,0,0,0,.06-.12s0,0,.05,0-.05-.05,0-.08l0,.06s0-.1,0-.14,0,0,0,.07,0-.13,0-.17l0,0s0,0,0,0,0,.05-.06,0v0c-.11,0-.05.12-.09.17l-.05-.05,0,.08a0,0,0,0,1-.05,0c-.06,0,0,.05-.05.07s0,0,0,0v.05s0,0,0,0,0,.15-.08.15h0c0,.11,0,0,.06.14h-.14l0,0s0,0,0,0,0,0,0,0,0,.15-.13.12.05,0,.05,0,0,.07-.08.09,0-.06,0,0-.06.08-.07.13,0,.09,0,.17-.1.1-.15.15h0c.05,0,0,.09,0,.14a.1.1,0,0,1-.05-.06l0,0a.06.06,0,0,1,0,.07l0,0c0,.06,0,.14-.07.2s.14,0,.12.09-.06,0-.06-.05,0,0,0,0l0-.05s0,0,0,.06,0,0-.06,0,0,0,0,0a.12.12,0,0,1-.09,0s0,0,0,.05-.05,0-.08,0,0,.05,0,.08h0s-.07.14,0,.14h0c0,.11-.13.18-.16.28h0c0,.06-.05.13,0,.18a0,0,0,0,1-.07,0c0,.05,0,.06-.05.11s0,0,0-.05-.07.05-.06.13-.07,0-.07,0l.05,0-.05.09,0,0c-.12.08,0,.26-.16.29,0,.05.06-.05.09,0s-.14.07-.15.08,0,.11,0,.17a.07.07,0,0,1,.07.09s-.11,0-.11,0h0s0-.05,0,0v0s-.07.09-.09.05,0,0,.05,0-.06.11-.11.17,0,0,0,0,0,.07,0,.14-.06-.05-.08,0-.05,0-.05,0-.09.11-.12.14v0a.14.14,0,0,1,0,.06h0s0,0,0,0,.07,0,.08.08,0,.09-.07.07-.05,0,0-.09,0,0,0,0,0,0,0,0,0,.07,0,.15a0,0,0,0,0-.06,0s.05,0,.06.05,0,.06,0,.09l0,0s0,.05,0,.09,0,0,0,0-.1.06-.09.14-.06,0-.08,0-.07.05-.08.13,0,0,0,.06l0-.12,0,.09s0-.08,0-.09,0,0,0,0,0,.1-.08.13l-.09,0c-.08.05,0,.16-.1.25l0,0s0,.06,0,.1-.05,0-.07,0-.05.07,0,.12l-.06,0c-.06.07,0,.14,0,.21s-.06,0-.05-.08,0,.05,0,.06,0,.09,0,.1,0,0,0,.07h0s0,.06,0,.05c-.14,0-.11.23-.23.26l-.07.19s0,0,0,0,.06.09,0,.16,0-.06,0,0,0,.11-.12.13v0c-.06,0,0,.13-.06.19h0a.54.54,0,0,1,0,.25s0,0,0,0,.07,0,0,.09-.08,0-.12,0l0-.05c-.07,0,0,.07-.06.1l0,0c0,.09,0,.12,0,.21h0c0,.08-.06,0,0,.1l-.07,0a.94.94,0,0,1,0,.22.46.46,0,0,1,0-.2.2.2,0,0,0,0,.15s0,0,0,0a.21.21,0,0,1,0,.19c-.11-.07-.12.16-.23.16s-.14.22-.21.36c.12,0,0,0,.08.08a.12.12,0,0,1,0,.05l-.11.06s0,0,0,0,0,0-.1,0,0,0,0,.08l.07,0c0,.13-.12.05-.12.17v0c0,.06-.1.19-.05.28s-.05,0,0,0-.06.31-.16.38l0,0s0,.06,0,.07,0,0,0,0a.1.1,0,0,1,0,.1v0c-.09.1,0,.21-.07.31s-.13,0-.17.09h0a1.38,1.38,0,0,0-.1.4c-.12,0-.17.25-.28.35s.05,0,.05.06,0,.1-.06.07h0c-.07,0-.09.06-.11.1l.07.05c-.18.06-.13.35-.27.36s0,.08,0,.12l0,0a1.14,1.14,0,0,0-.12.22l0,0s.08.14.06.19l-.08,0c-.05.1-.16.17-.15.3s0,0,0,0-.14.16,0,.19c-.06,0-.06.1-.07.16l0,0c0,.08,0,.09,0,.16s0,0,0,0,0,.06,0,.11l0,0s0,.06,0,.1a.1.1,0,0,1-.1.08s0,.07,0,.09,0,0,0,0,0,.16-.09.2h0c0-.07.06-.12.06-.11s-.07,0-.1,0,0,.17,0,.21h0a.06.06,0,0,0,0,0s0,0,0,0-.06,0-.07.08,0,0,.07,0,0,0,0,0h0l0-.07S23,39,23,39l.05.08c-.08,0-.15.06-.19.05s-.09.21,0,.31,0,0-.06,0,0,0,0,0-.07.14,0,.18,0-.06-.07,0v0c-.18.12,0,.34-.21.46h0c-.16.18-.18.46-.36.62s0,.07,0,.12h-.05l0,.09c0,.11-.19.09-.18.24h0s0,.13-.08.11,0,0,0,0h0v.12c-.06.07-.09-.06-.15.05s0,.15,0,.14,0,0,.06,0v0c.06.05.12.11.22.05V41.5h0l0,0c.05,0,0,0,0-.08h.05l0-.1s0,.06.07,0-.07,0-.07-.06.07,0,.06,0,0,0,0,0,0-.09,0-.13,0-.11.11-.07a.24.24,0,0,1,0-.12c.05.1.06-.1.14,0s0-.16,0-.25,0,0,0,0,.06,0,.08-.05,0-.11-.05-.16.05.07.11.08,0-.11,0-.11,0,0,.09,0,0,0,0-.09.08,0,.08,0S22.7,40.39,22.7,40.39Zm.6-1.46h0v0Zm.06-.11,0,0s0,0,0,0S23.34,38.83,23.36,38.82Zm-.42.09s0,0,0,0,0,0,0,0h0Z"/><path class="cls-3" d="M23,39h0Z"/><polygon class="cls-3" points="28.6 28.43 28.6 28.44 28.61 28.43 28.6 28.43"/><polygon class="cls-3" points="24.29 37.25 24.28 37.24 24.28 37.26 24.29 37.25"/><path class="cls-3" d="M29.08,27.87h0Z"/><path class="cls-3" d="M29.24,27.6l0,0Z"/><path class="cls-3" d="M29.37,27.4s0,0,0,0h0Z"/><path class="cls-3" d="M27.64,30.81h0S27.64,30.83,27.64,30.81Z"/><path class="cls-3" d="M28.07,29.75v0A0,0,0,0,0,28.07,29.75Z"/><polygon class="cls-3" points="27.1 31.97 27.1 31.97 27.09 31.97 27.1 31.97"/><path class="cls-3" d="M28.05,29.84s0,0,0-.05S28.05,29.82,28.05,29.84Z"/><polygon class="cls-3" points="29.88 26.48 29.89 26.47 29.88 26.47 29.88 26.48"/><path class="cls-3" d="M29.88,26.47v0Z"/><path class="cls-3" d="M29.88,26.42v0S29.89,26.44,29.88,26.42Z"/><path class="cls-3" d="M29.71,26.75h0Z"/><path class="cls-3" d="M29.67,26.84s.06,0,.06-.07h0S29.65,26.81,29.67,26.84Z"/><path class="cls-3" d="M29.29,27.1l.05-.07s-.05,0,0,0S29.35,27,29.29,27.1Z"/><path class="cls-3" d="M29.15,27.31s0,0,0,0S29.12,27.33,29.15,27.31Z"/><path class="cls-3" d="M28.3,28.92l0,0S28.28,28.9,28.3,28.92Z"/><polygon class="cls-3" points="28.34 29.33 28.38 29.32 28.35 29.29 28.34 29.33"/><polygon class="cls-3" points="27.97 29.37 27.97 29.35 27.96 29.41 27.97 29.37"/><path class="cls-3" d="M26.56,32.08l.05,0S26.56,32,26.56,32.08Z"/><path class="cls-3" d="M26,33.28s-.06,0,0,0Z"/><polygon class="cls-3" points="24.07 36.74 24.07 36.71 24.06 36.76 24.07 36.74"/><path class="cls-3" d="M30.07,26s0,0-.05,0l0,.06Z"/><path class="cls-3" d="M29.84,26.06a.14.14,0,0,0,.09.14c0-.07,0-.06,0-.14a0,0,0,0,1,.07,0s0,0,0-.07a.1.1,0,0,0-.1.11S29.85,26.07,29.84,26.06Z"/><path class="cls-3" d="M27.86,28.44h0Z"/><path class="cls-3" d="M26.65,29.93s0,0,0,0S26.64,29.93,26.65,29.93Z"/><path class="cls-3" d="M26.39,30.14h0A0,0,0,0,0,26.39,30.14Z"/><path class="cls-3" d="M27.86,28.44l-.05,0S27.84,28.46,27.86,28.44Z"/><path class="cls-3" d="M29.71,26.5a0,0,0,0,0,0,0v0Z"/><path class="cls-3" d="M28.33,27.74v0s0,0,0,0Z"/><path class="cls-3" d="M28.72,27.22s0,.05.05.07a.06.06,0,0,1,0-.05Z"/><path class="cls-3" d="M29.43,26.47v0Z"/><path class="cls-3" d="M28,28.1h0Z"/><path class="cls-3" d="M17.28,42.73h0Z"/><path class="cls-3" d="M16.58,43.14h0l0,0Z"/><path class="cls-3" d="M26,30.57h0S26,30.56,26,30.57Z"/><path class="cls-3" d="M22.63,35c.08,0,0,.12.09.09S22.7,34.91,22.63,35Z"/><path class="cls-3" d="M29.7,26.51s0,0,0,0Z"/><path class="cls-3" d="M22.72,35h0Z"/><path class="cls-3" d="M25.14,31.69h0Z"/><path class="cls-3" d="M25.84,30.92l0,0Z"/><path class="cls-3" d="M24.88,32.16s0,0,0,0h0S24.87,32.17,24.88,32.16Z"/><path class="cls-3" d="M24.54,32.6h0v0Z"/><path class="cls-3" d="M18.29,41.38l-.06,0S18.24,41.46,18.29,41.38Z"/><path class="cls-3" d="M29.69,26.48a0,0,0,0,1,0,0v0Z"/><path class="cls-3" d="M25.25,32.47l-.06.07Z"/><path class="cls-3" d="M20.73,38.22v0Z"/><path class="cls-3" d="M25,32.75H25s0,0,0,0Z"/><path class="cls-3" d="M18,41.91c.05-.06,0-.08-.06-.12s.07,0,.13,0,0-.15,0-.18,0,0,0,0,.12-.16.1-.27h0a.36.36,0,0,1-.09,0s0-.09.05-.07,0,0,0,0v0c.08,0,0,.06,0,.1s0-.19.08-.22-.06.12,0,.1l-.08.06c.13,0,0,0,.1.06s.05-.13.14-.21-.05,0-.07-.08.23,0,.23-.15-.09-.12,0-.16l0,.07c.07-.09-.06-.12.06-.19s0,.09,0,.09,0-.08,0-.13l.06,0c.07-.11.11-.25.19-.36s0,.05.05,0a1.28,1.28,0,0,1,.37-.4v-.08a0,0,0,0,1,0,0c.06,0,0,0,0-.07a0,0,0,0,1,.06,0,.63.63,0,0,1,.23-.39v0c.08-.05,0-.16.07-.19v0c.14-.15.24-.36.41-.43-.06-.08.15-.13.06-.22.12-.05.12,0,.25-.12s0-.1,0-.15l.06,0v-.1l.08,0,0,0h-.06c0-.08.15-.13.18-.11l.07-.18s0,0,0,.08c0-.12.06,0,.07-.08s0,0,0,0,.13-.1.16-.17l0,0c.09-.1.16-.25.26-.37,0,0-.11,0-.08-.07l.06,0s-.05,0-.05-.06.08,0,.08.06l0-.07s0,0,0,.05.13-.06.1-.13h0c.09-.12.12-.19.19-.29s0-.07,0-.13a1.21,1.21,0,0,0,.24-.21c0-.08,0-.05,0-.1s.11-.06.11,0a2.2,2.2,0,0,0,.16-.31s0,0,0,0a.05.05,0,0,1,.08,0h0c.05-.2.39-.25.4-.45h0l0-.16c.05,0,0,.06.06,0,0-.19.18-.21.22-.36.19,0,.23-.31.4-.36l0,0s.05,0,.07,0-.05,0-.05,0a4.24,4.24,0,0,1,.68-.73c.08-.09-.11-.18.05-.24l0,.07c.08-.24.31-.39.4-.62,0,0,0,0,0,.05s.11-.15.08-.17,0,0,.07,0,0-.14.08-.13,0,0,0,0,.1-.12,0-.13c.08-.05.09-.15.16-.19s.12-.1.05-.17c.08.06.16-.08.16-.15s.05,0,.07,0,.06-.11,0-.13c.16,0,.07-.25.23-.21.08-.18.16-.34.25-.5.07.07-.11.16,0,.22.07-.16.06-.28.18-.4s0,0,0,.07c.07-.16.2-.25.25-.39s0,0,0,0,.06-.05,0-.07v0c-.08,0,0-.18-.06-.2s.12-.09.19.06a0,0,0,0,0,0-.06s0,0,.05,0,0-.1.05-.17,0,0,0,0,0-.12.06-.17,0,0,0,0,.05-.25.17-.34c.05.09.06,0,.13,0l0-.08h0c0-.05,0-.14.09-.17v.06l.06-.11-.07,0c0-.08-.08-.06,0-.12s.05,0,.11,0h0a.12.12,0,0,1,0-.12s.06.07.08.07.08-.14.05-.22,0,0,.05,0l0-.06s0,0,.06,0-.1,0,0-.1,0,0,0,0,.11-.2.2-.26,0,.08,0,.09a1.81,1.81,0,0,1,.23-.41h0c-.07-.08.12-.05.12-.14s0,.06,0,0a1.32,1.32,0,0,0,.17-.32v0c.06,0,.11-.12.16-.16s0-.06,0-.07c.25-.05.16-.36.38-.41,0,0,0,.05,0,0l.07-.13s0,0-.08,0a.09.09,0,0,1,0-.11c0,.08.06.05.1.05s0,0,0,0-.07-.07,0-.12l0,0s0-.09,0-.12,0,.05,0,.08,0-.16.06-.17a.32.32,0,0,1,0,.09c.09,0,.08,0,.12,0h0l.08-.07h0c-.07-.15.08-.14.06-.28,0,.14,0,.05.08.09s.07,0,.08,0,.08,0,.06-.14,0,0,.07,0,0,0-.05,0,.21-.13.22-.3,0-.18,0-.29,0,.07,0,.07a.19.19,0,0,0,.1-.13s0,0,.06,0-.05-.07,0-.1a.24.24,0,0,1,0,.09,1.16,1.16,0,0,0,0-.18s0,.06,0,.09.08-.15,0-.2l0,0s0,0,0,0-.07.05-.08,0v0c-.12,0-.08.14-.14.2l-.05-.08v.11s-.08,0-.06-.06,0,.06-.08.07a0,0,0,0,1,0,0v.06s-.06,0,0-.05-.05.17-.12.16h0c-.06.13,0,.05,0,.18l-.17,0,0,.05s0,0-.05,0,0,0,0,.06-.09.17-.19.12.07,0,.06,0,0,.08-.12.1,0-.08-.05-.06-.1.08-.12.14,0,.11-.08.2-.14.11-.21.16h0c.05.06,0,.12,0,.18a.11.11,0,0,1,0-.09l0,0a.1.1,0,0,1,0,.09l0,0c0,.07,0,.17-.13.23s.17,0,.13.13-.07,0-.06-.07,0,0,0,.05l0-.06s0,0,0,.07,0,0-.07,0,0,0,0,0a.18.18,0,0,1-.12.05s0,0,0,.06,0,0-.1,0,0,.06,0,.1,0,0-.06,0-.11.15,0,.16h0c0,.14-.2.2-.26.32h0c0,.08-.1.15-.1.22s-.06,0-.08,0,0,.08-.09.12,0,0,0-.06-.1,0-.11.14c0-.05-.09,0-.1.05l.07,0a.34.34,0,0,1-.08.09l0-.06c-.17.08-.06.32-.25.33,0,.07.08-.05.1,0s-.18.05-.2.07,0,.14-.06.21.09,0,.06.11-.14,0-.13,0,0,0,0,0,0-.06,0-.05v0s-.1.1-.12.05,0,.05.06,0-.1.12-.18.18.06,0,.05,0,0,.08-.05.16-.07-.07-.1,0-.06,0-.06-.07-.13.12-.17.15v-.05a.16.16,0,0,1,0,.07h.06s0,0-.05,0,.08,0,.08.11-.05.1-.11.07-.06,0,0-.11,0,0,0,.05,0,0,0,0,0,.09,0,.18-.08,0-.08,0,.06,0,.06.07,0,.08-.06.1l0,0s0,.06,0,.11,0-.05,0-.05-.13.06-.15.16-.05-.05-.09,0-.1,0-.12.14.05,0,0,.09l.07-.15v.13s0-.1.06-.12,0,.05,0,.06,0,.13-.13.15l-.1-.07c-.11.05-.06.19-.18.29l0,0c0,.05,0,.08-.06.13s-.06,0-.1,0-.06.08,0,.14l-.08,0c-.09.08,0,.18-.06.26s-.08,0-.06-.11-.05,0,0,.07,0,.11-.07.12,0,.05,0,.08h0s0,.07,0,.07c-.18,0-.19.26-.34.27l-.13.22s0,0,0,0,.06.12,0,.19,0-.07,0-.06-.07.12-.18.13v0c-.07,0,0,.15-.11.22h0a.54.54,0,0,1-.08.3c0-.06,0,0-.06-.07s.08,0,0,.12-.09,0-.15,0l0-.06c-.09,0-.06.08-.1.11l0,0c-.07.1,0,.16-.09.26h0c0,.11-.07,0-.07.11l-.08,0a1.13,1.13,0,0,1-.07.26.69.69,0,0,1,0-.25s-.09.13-.07.18,0-.06,0-.06a.28.28,0,0,1-.06.24c-.12-.12-.18.16-.32.14-.06.16-.22.24-.33.4.14,0,0,0,.08.12a.11.11,0,0,1,0,0l-.15.05s0-.05,0-.06-.07,0-.14,0,0,.07,0,.1l.1,0c0,.15-.16,0-.19.18v-.06c0,.07-.16.21-.12.33s-.06,0-.05,0-.14.36-.27.43l0,0s0,.08,0,.09,0,0,0,0,0,.1-.05.12v-.05c-.13.11-.08.26-.15.38-.08-.06-.18,0-.23.07h0a1.56,1.56,0,0,0-.22.47c-.15,0-.26.27-.41.37,0,0,.05,0,0,.08s0,.13-.08.07h0c-.09,0-.12.06-.17.11l.09.08c-.24,0-.24.4-.41.38,0,0,0,.09,0,.14l0,0a1.82,1.82,0,0,0-.2.25l0-.05c-.05.06.08.19,0,.25l-.09,0c-.08.12-.24.18-.26.34a0,0,0,0,1,0-.05c0,.05-.21.17-.1.23-.06-.05-.09.11-.11.19l0,0c0,.09,0,.11,0,.19s0,0,0,0,0,.08-.07.13v0c-.05.06,0,.07,0,.13a.12.12,0,0,1-.15.07s0,.09,0,.11,0,0,0,0S19,40,18.86,40h0l.11-.12s-.1,0-.12-.08c0,.08,0,.22-.07.26h0a.08.08,0,0,0,0,0l-.05,0s-.08.06-.1.09,0,.07.08.06,0,0,0,0,0,0,0,0h0l.05-.08s0,.08,0,.1l0,.1c-.1,0-.2,0-.25,0s-.15.24-.11.37-.05,0-.07,0,0,0,0-.06-.11.17-.06.23,0-.08-.09,0v0c-.24.11-.07.42-.36.53h0c-.24.19-.32.52-.58.68-.07,0,0,.09,0,.15l-.06,0v.11c0,.13-.26.07-.27.26h.05c-.05,0-.09.15-.13.12s0,0,0,0l0,0,0,.14c-.08.07-.09-.09-.19,0s0,.19,0,.18a.07.07,0,0,1,.08,0l0,.05c.07.07.13.17.26.11v-.11h.06l-.05.07c.06,0,.05-.06,0-.1H17L17,43s0,.08.09,0S17,43,17,42.93s.09,0,.09,0a.05.05,0,0,1,0,0s.06-.1,0-.15.08-.13.15-.07a.19.19,0,0,1,0-.14c0,.13.09-.12.18,0,0-.1.09-.18.1-.3s0,0,0,0a.21.21,0,0,1,.11,0c-.06-.06,0-.14,0-.21s.05.09.12.12,0-.13,0-.15.05,0,.12,0c-.08-.07,0,0,0-.12s.09,0,.12,0S18,41.91,18,41.91Zm1.06-1.67h0l0,0Zm.1-.13,0,.06s0,0,0,0S19.12,40.12,19.15,40.11Zm-.54,0s0,0,0,0,0,0,0,0h0Z"/><path class="cls-3" d="M18.64,40.22h0v0Z"/><path class="cls-3" d="M27.88,28.43h0Z"/><polygon class="cls-3" points="20.64 38.38 20.63 38.37 20.63 38.39 20.64 38.38"/><path class="cls-3" d="M28.6,27.84h0S28.61,27.83,28.6,27.84Z"/><path class="cls-3" d="M28.85,27.53l0,0Z"/><path class="cls-3" d="M29.06,27.31l0,0h0Z"/><path class="cls-3" d="M26.17,31.16h0S26.17,31.18,26.17,31.16Z"/><path class="cls-3" d="M26.94,29.94a.07.07,0,0,1,0,0S27,30,26.94,29.94Z"/><polygon class="cls-3" points="25.25 32.46 25.25 32.46 25.25 32.47 25.25 32.46"/><path class="cls-3" d="M26.89,30a.05.05,0,0,0,0-.05Z"/><polygon class="cls-3" points="29.88 26.29 29.89 26.28 29.89 26.28 29.88 26.29"/><path class="cls-3" d="M29.89,26.28v0A0,0,0,0,0,29.89,26.28Z"/><path class="cls-3" d="M29.9,26.22v0S29.91,26.24,29.9,26.22Z"/><path class="cls-3" d="M29.62,26.59v0S29.62,26.6,29.62,26.59Z"/><path class="cls-3" d="M29.55,26.69s.08,0,.09-.07h0S29.53,26.65,29.55,26.69Z"/><path class="cls-3" d="M29,26.93l.08-.07s-.07,0-.05,0S29.11,26.83,29,26.93Z"/><path class="cls-3" d="M28.8,27.16c0-.05,0,0,0,0S28.76,27.18,28.8,27.16Z"/><path class="cls-3" d="M27.4,29l0,0S27.38,28.94,27.4,29Z"/><polygon class="cls-3" points="27.36 29.48 27.41 29.47 27.39 29.42 27.36 29.48"/><polygon class="cls-3" points="26.89 29.45 26.9 29.43 26.87 29.49 26.89 29.45"/><path class="cls-3" d="M24.56,32.49l.06,0S24.57,32.44,24.56,32.49Z"/><path class="cls-3" d="M23.6,33.84s-.08,0-.07.06S23.6,33.86,23.6,33.84Z"/><polygon class="cls-3" points="20.48 37.7 20.48 37.66 20.46 37.72 20.48 37.7"/><polyline class="cls-2" points="35.44 76.33 55.99 76.33 55.99 59.41 62.77 59.41"/><polyline class="cls-2" points="30.01 5.87 30.01 0.5 0.5 0.5 0.5 10.38"/></g></g></svg>