<svg xmlns="http://www.w3.org/2000/svg" viewBox="0 0 59.9 59.49"><defs><style>.cls-1{fill:none;stroke:#000;stroke-linejoin:round;stroke-width:1.3px;}</style></defs><g id="Layer_2" data-name="Layer 2"><g id="Layer_1-2" data-name="Layer 1"><path class="cls-1" d="M55.79,28.18a1.77,1.77,0,0,1,1.4-.09,1.63,1.63,0,0,1,.7.47,3.82,3.82,0,0,0,.68.65c.2.18.41.36.6.55a2.18,2.18,0,0,0,0-.25l.07-.07c0-.13,0-.27-.08-.4,0-.6-.12-1.12-.1-1.65a2.83,2.83,0,0,0-1-2.33,4,4,0,0,0-.83-.67L57,24.2l-1.61-1.12-.67-.52c-.64-.52-.76-1.22-.38-1.63a2.32,2.32,0,0,1,2-.27h0a11.91,11.91,0,0,0,1.54.82h0l.09.05c-.28-1.07-.69-1.92-1-2.8a2.12,2.12,0,0,0-1.31-1.35,6,6,0,0,0-.81-.34c-1.11-.36-2.21-.74-3.29-1.18l-.24-.12a1.12,1.12,0,0,1-.53-1c0-.64.57-.91,1.17-1a2.84,2.84,0,0,1,.79-.07,6.07,6.07,0,0,1,1.61.25h.3c-.69-.85-1.29-1.51-1.79-2.24a2.27,2.27,0,0,0-1.18-.9,2.51,2.51,0,0,0-.84-.17l-1.25-.07-.92,0-.37,0-.77,0a2.47,2.47,0,0,1-1.26-.3A1.34,1.34,0,0,1,45.8,9c.07-.58,1.07-.81,1.81-1,.14,0,.49-.12,1-.28l.47-.17-1.54-1a3.58,3.58,0,0,0-1.58-1,2.76,2.76,0,0,0-1.43,0c-1.09.23-2.17.53-3.26.76A2.53,2.53,0,0,1,40,6.3a1.25,1.25,0,0,1-.52-.39,1.34,1.34,0,0,1-.12-.3,2,2,0,0,1,1-1.61,1.91,1.91,0,0,0,.34-.08,5.83,5.83,0,0,0,1-.44c.12-.06.29-.14.52-.23L42.05,3c-.81-.24-1.63-.5-2.45-.73a2.29,2.29,0,0,0-1.7-.18c-1.39.65-2.73,1.39-4.06,2.13a1.84,1.84,0,0,1-1,.27A.9.9,0,0,1,32.19,4a1.88,1.88,0,0,1,.58-2c.51-.33,1-.72,1.47-1.08L34.13.68H32.24a6.36,6.36,0,0,0-1.45,0H30.6a1.73,1.73,0,0,0-1,.35c-.06.06-.12.13-.19.19a2.53,2.53,0,0,0-.53.51c-.83.79-1.63,1.61-2.44,2.42a2.05,2.05,0,0,1-.88.55.82.82,0,0,1-.71-.23A2,2,0,0,1,25,2.26a11.48,11.48,0,0,0,1-1.39l-.17,0L25.61.73a13.36,13.36,0,0,1-1.48.47,8.33,8.33,0,0,0-1.37.36l-.26.1a2.93,2.93,0,0,0-1.66,1.73,27.19,27.19,0,0,1-1.37,2.69,2,2,0,0,1-1,1,.87.87,0,0,1-.59-.12,2.19,2.19,0,0,1-.56-2.06c.24-.53.4-1.09.6-1.64l-.15.06,0-.06a19.19,19.19,0,0,0-1.88,1l-.4.22-.2.11A2.43,2.43,0,0,0,14,6.48c-.21,1.25-.51,2.5-.8,3.74a1.61,1.61,0,0,1-.65,1,1.07,1.07,0,0,1-.66,0c-.63-.26-.81-1.13-.94-1.81a5.31,5.31,0,0,1-.08-1.59v0h0s0-.06,0-.1l-.53.57c-.33.32-.6.64-.91.91a3.43,3.43,0,0,0-1.3,3.36A30.54,30.54,0,0,1,8.36,16,1.18,1.18,0,0,1,8,17a.84.84,0,0,1-.42.14c-.17,0-1-.29-1.61-1.47-.38-.75-.49-1.54-.59-1.52s0,0,0,.07l-.06-.1c-.47,1-1,1.81-1.3,2.71a2.57,2.57,0,0,0-.16,1.56c.41,1.34,1,2.63,1.48,3.94a1.43,1.43,0,0,1-.17,1.56,1.56,1.56,0,0,1-.26.11,2,2,0,0,1-1.89-1,15.82,15.82,0,0,0-.82-1.51c0,.05,0,.1-.05.15l0,0-.21.1c-.16.9-.3,1.81-.51,2.7a2.52,2.52,0,0,0,.6,2.24c.77,1,1.53,2,2.27,3,.58.77.54,1.37,0,1.76a2,2,0,0,1-2-.27L1,29.94l-.16-.15v.1l-.2-.07.19.65A14.81,14.81,0,0,0,1,32.63c.07.45.07,1.07.35,1.31,1.35,1.16,2.79,2.21,4.17,3.28l.08-.08a1.09,1.09,0,0,1,.15,1.32h0l0,.06a2,2,0,0,1-2.13.13A14.08,14.08,0,0,0,2.13,38L2,38.14l0,.06H1.81a11.67,11.67,0,0,1,1.06,1.93,4,4,0,0,0,.85,1.48,2.84,2.84,0,0,0,1.11.62l.29.1a.56.56,0,0,0,.21.2c.9.35,1.8.67,2.72.95s1.41,1,1.11,1.61A2.36,2.36,0,0,1,8,45.83a2.18,2.18,0,0,1-.56.06l-1.7-.28-.23,0,0,.08h0l0,0,0,.1a15.58,15.58,0,0,1,1.41,1.65,2.79,2.79,0,0,0,2.47,1.46c1.2,0,2.39.14,3.59.21h.15a2.52,2.52,0,0,1,1.17.71,0,0,0,0,1,0,0l0,.06a1.38,1.38,0,0,1-.33,1,2.45,2.45,0,0,1-1,.65,5.4,5.4,0,0,1-2,.32L11,52l-.1,0c.77.51,1.53.94,2.19,1.48a2.38,2.38,0,0,0,2.18.5c1.24-.28,2.48-.61,3.74-.81a2.45,2.45,0,0,1,1.49.33c.19.11.2.84,0,1.12l-.11.18a2.28,2.28,0,0,1-.89.81,6.36,6.36,0,0,0-1.59.77l0,0,.13,0v0l.45.13c.87.29,1.65.56,2.44.76l.15,0a1.54,1.54,0,0,0,1.37-.15l.95-.52c.94-.5,1.87-1,2.82-1.52.72-.39,1.34-.29,1.65.22,0,0,0,0,0,0a1.14,1.14,0,0,1,.11.49,2.78,2.78,0,0,1-.57,1.41l-.14.11a18.41,18.41,0,0,0-1.63,1.2,4.35,4.35,0,0,0,.64.18l2.56,0h.37a1.61,1.61,0,0,0,1.28-.54c1-1,2-2.07,3.07-3.08l.1-.09a1.45,1.45,0,0,1,1.18-.34.94.94,0,0,1,.36.25,1.27,1.27,0,0,1,.22.38,2.41,2.41,0,0,1-.2,1.67l0,0a13.07,13.07,0,0,0-1,1.31l-.06.08h0l-.16.22a3,3,0,0,0,.67,0L36.87,58a3.52,3.52,0,0,0,.49-.16A1.93,1.93,0,0,0,38.5,57a5.67,5.67,0,0,0,.45-.73A33.55,33.55,0,0,1,40.76,53a1,1,0,0,1,1.52-.42h0a2.32,2.32,0,0,1,.41,1.95.42.42,0,0,0,0,.1l-.36,1.61v0c.06.07,1.67-1,2-1.23l.32-.17.09,0a2,2,0,0,0,1.08-1.33,5.27,5.27,0,0,0,.23-.85c0-.27.09-.54.14-.81.2-.88.4-1.75.61-2.62s.79-1.25,1.37-1a1,1,0,0,1,.23.12A2.22,2.22,0,0,1,49.16,50l0,1.19c0,.22,0,.44,0,.68,1-1,1.77-1.84,2.52-2.7a1.28,1.28,0,0,0,.25-.81c-.07-1.45-.16-2.9-.3-4.35-.09-.84.2-1.56.78-1.66a1.6,1.6,0,0,1,1.16.5l1,2.68,0-.07v0c.45-.88.76-1.58,1.16-2.22a3.17,3.17,0,0,0,.49-1.22.93.93,0,0,0,0-.29,2.37,2.37,0,0,0-.17-.92c-.48-1.2-.92-2.42-1.39-3.63-.32-.85-.15-1.51.45-1.74a1.9,1.9,0,0,1,2,1.06A8.57,8.57,0,0,0,58,37.89l.22-.11A9.07,9.07,0,0,1,58.46,36a3.46,3.46,0,0,0,.13-2,1.92,1.92,0,0,0-.09-.32l0,0h0a3.87,3.87,0,0,0-.75-1.2c-.07-.08-.12-.17-.19-.25-.58-.73-1.17-1.45-1.73-2.2S55.28,28.51,55.79,28.18Zm-27.66,7.9a6.61,6.61,0,0,1,2-12.93,6.75,6.75,0,0,1,6.44,6.62A6.83,6.83,0,0,1,32.8,35.7,6.48,6.48,0,0,1,28.13,36.08Z"/></g></g></svg>