<svg id="Vector_Smart_Object" data-name="Vector Smart Object" xmlns="http://www.w3.org/2000/svg" width="39" height="39" viewBox="0 0 39 39">
  <g id="Vector_Smart_Object-2" data-name="Vector Smart Object" transform="translate(0 0)">
    <path id="Union_3" data-name="Union 3" d="M10.469,28.523C5.8,23.855,2.784,19.845,1.235,16.262-.85,11.441-.293,7.321,2.887,4.01a1.288,1.288,0,0,1,.686-.733.426.426,0,0,0,.111-.068L6.151.74a2.685,2.685,0,0,1,3.7,0L15.406,6.3a2.624,2.624,0,0,1,0,3.7l-2.468,2.47a2.623,2.623,0,0,0,0,3.7l9.871,9.879a2.69,2.69,0,0,0,3.7,0l2.468-2.471a2.686,2.686,0,0,1,3.7,0l5.553,5.558a2.626,2.626,0,0,1,0,3.705l-2.467,2.468a.443.443,0,0,0-.068.112,1.283,1.283,0,0,1-.733.685A9.676,9.676,0,0,1,28.091,39C23.212,39,17.612,35.671,10.469,28.523ZM2.837,15.569C4.3,18.945,7.2,22.779,11.7,27.288c6.7,6.706,12.061,9.964,16.388,9.964A7.953,7.953,0,0,0,33.917,34.7l-6.851-6.853a4.378,4.378,0,0,1-5.49-.556L11.7,17.41a4.378,4.378,0,0,1-.555-5.494L4.3,5.061C1.48,7.884,1,11.322,2.837,15.569Zm27.377,9.25-1.851,1.853,6.789,6.791L37,31.61a.873.873,0,0,0,0-1.234l-5.553-5.557a.9.9,0,0,0-1.234,0ZM7.386,1.974,5.535,3.827l6.787,6.792,1.851-1.853a.878.878,0,0,0,0-1.235L8.619,1.974a.9.9,0,0,0-1.233,0ZM35.817,16.3V13.232H30.294v-1l5.3-7.184h1.738v6.995H39v1.194H37.337V16.3ZM34.83,8.177,31.921,12v.034h3.9V8.28q0-.882.056-1.765h-.056C35.452,7.174,35.16,7.658,34.83,8.177ZM21.461,16.3v-.934l1.262-1.16c3.036-2.735,4.409-4.19,4.427-5.887a2.064,2.064,0,0,0-2.36-2.2,4.17,4.17,0,0,0-2.525.954L21.754,6a5.392,5.392,0,0,1,3.366-1.145c2.562,0,3.64,1.663,3.64,3.273,0,2.078-1.592,3.757-4.1,6.042l-.95.831v.034h5.34V16.3Z"/>
  </g>
  <path id="Color_Overlay" data-name="Color Overlay" d="M10.469,28.524C5.8,23.855,2.784,19.845,1.235,16.263-.849,11.442-.293,7.321,2.887,4.01a1.284,1.284,0,0,1,.686-.732.436.436,0,0,0,.111-.068L6.152.74a2.685,2.685,0,0,1,3.7,0L15.406,6.3a2.625,2.625,0,0,1,0,3.7L12.939,12.47a2.622,2.622,0,0,0,0,3.7l9.87,9.879a2.691,2.691,0,0,0,3.7,0l2.469-2.471a2.686,2.686,0,0,1,3.7,0l5.553,5.558a2.626,2.626,0,0,1,0,3.705l-2.467,2.468a.416.416,0,0,0-.068.112,1.284,1.284,0,0,1-.734.686A9.674,9.674,0,0,1,28.091,39C23.211,39,17.612,35.671,10.469,28.524ZM2.837,15.569C4.3,18.945,7.2,22.779,11.7,27.288c6.7,6.706,12.061,9.964,16.387,9.964A7.951,7.951,0,0,0,33.917,34.7l-6.851-6.854a4.377,4.377,0,0,1-5.49-.556L11.7,17.41a4.378,4.378,0,0,1-.555-5.494L4.3,5.062C1.48,7.884,1,11.322,2.837,15.569Zm27.377,9.25-1.852,1.852,6.789,6.791L37,31.61a.873.873,0,0,0,0-1.234l-5.553-5.557a.9.9,0,0,0-1.233,0ZM7.386,1.975,5.534,3.827l6.787,6.792,1.851-1.852a.877.877,0,0,0,0-1.236L8.619,1.975a.9.9,0,0,0-1.233,0ZM35.817,16.3V13.232H30.294v-1l5.3-7.185h1.739v6.995H39v1.193H37.337V16.3Zm-.987-8.12L31.921,12v.034h3.9V8.28q0-.883.056-1.765h-.056C35.452,7.175,35.16,7.658,34.829,8.177ZM21.461,16.3v-.934l1.262-1.16c3.037-2.735,4.409-4.19,4.427-5.888a2.064,2.064,0,0,0-2.36-2.2,4.169,4.169,0,0,0-2.525.954L21.754,6a5.389,5.389,0,0,1,3.365-1.145c2.562,0,3.641,1.663,3.641,3.272,0,2.078-1.592,3.757-4.1,6.042l-.95.832v.034h5.341V16.3Z"/>
</svg>
