<svg id="Vector_Smart_Object" data-name="Vector Smart Object" xmlns="http://www.w3.org/2000/svg" width="35.001" height="43" viewBox="0 0 35.001 43">
  <g id="Vector_Smart_Object-2" data-name="Vector Smart Object" transform="translate(0 0)">
    <path id="Union_1" data-name="Union 1" d="M0,43,3.8,28.418h3.8v1.535H5.326L2.283,41.465H32.718L29.674,29.953H26.631V28.418H31.2L35,43Zm16.795-5.076c-.5-.605-12.316-14.94-12.316-24.3C4.478,6.111,10.273,0,17.395,0c7.09,0,12.884,6.11,12.916,13.619.04,9.364-11.853,23.7-12.36,24.308l-.58.694ZM6,13.623C6,21.284,14.985,33.174,17.376,36.2c2.4-3.024,11.448-14.914,11.415-22.575-.028-6.657-5.141-12.074-11.4-12.074C11.111,1.551,6,6.967,6,13.623Zm5.86-.435a5.537,5.537,0,1,1,5.536,5.652A5.6,5.6,0,0,1,11.858,13.188Zm1.52,0a4.017,4.017,0,1,0,4.016-4.1A4.065,4.065,0,0,0,13.379,13.188Z"/>
  </g>
  <path id="Color_Overlay" data-name="Color Overlay" d="M0,43,3.8,28.417H7.609v1.536H5.326L2.283,41.466H32.718L29.675,29.954H26.631V28.417H31.2L35,43Zm16.795-5.077c-.5-.6-12.316-14.939-12.316-24.3C4.478,6.111,10.273,0,17.4,0c7.09,0,12.883,6.11,12.916,13.62.04,9.365-11.853,23.7-12.36,24.307l-.58.694ZM6,13.623C6,21.284,14.985,33.174,17.376,36.2c2.4-3.024,11.448-14.914,11.416-22.575C28.764,6.969,23.65,1.552,17.4,1.552,11.111,1.552,6,6.968,6,13.623Zm5.86-.436A5.538,5.538,0,1,1,17.4,18.841,5.6,5.6,0,0,1,11.858,13.188Zm1.52,0a4.017,4.017,0,1,0,4.017-4.1A4.065,4.065,0,0,0,13.378,13.188Z"/>
</svg>
