<svg xmlns="http://www.w3.org/2000/svg" width="85" height="85" viewBox="0 0 85 85">
  <g id="Group_36" data-name="Group 36" transform="translate(-288.234 -157.846)">
    <path id="Path_65" data-name="Path 65" d="M330.15,220.027c1.518-2.885,4.206-6.98,1.836-10.592,1.362.952,3.224,2.125,3.64,4.551.395,2.3-.745,4.358-1.613,6.006-1.517,2.884-4.207,6.981-1.836,10.591-1.379-.963-3.221-2.109-3.641-4.55C328.145,223.749,329.288,221.662,330.15,220.027Z"/>
    <path id="Path_66" data-name="Path 66" d="M326.093,217.93c1.518-2.885,4.207-6.98,1.837-10.592,1.362.952,3.224,2.125,3.64,4.551.394,2.3-.745,4.358-1.613,6.006-1.518,2.884-4.207,6.98-1.837,10.591-1.379-.963-3.221-2.109-3.64-4.55C324.088,221.652,325.232,219.565,326.093,217.93Z"/>
    <path id="Path_67" data-name="Path 67" d="M333.577,235.221c1.1-2.084,3.039-5.042,1.327-7.651a5.134,5.134,0,0,1,2.629,3.287,6.888,6.888,0,0,1-1.165,4.339c-1.1,2.083-3.039,5.042-1.326,7.65-1-.7-2.328-1.524-2.63-3.287A6.945,6.945,0,0,1,333.577,235.221Z"/>
    <path id="Path_68" data-name="Path 68" d="M330.647,233.706c1.1-2.083,3.039-5.042,1.327-7.65a5.126,5.126,0,0,1,2.629,3.286,6.888,6.888,0,0,1-1.165,4.339c-1.1,2.083-3.039,5.042-1.327,7.65-.995-.695-2.327-1.523-2.629-3.287A6.947,6.947,0,0,1,330.647,233.706Z"/>
    <path id="Path_69" data-name="Path 69" d="M331.319,180.665c-1.519,2.885-4.208,6.98-1.837,10.592-1.362-.952-3.224-2.125-3.64-4.551-.394-2.3.745-4.358,1.613-6.006,1.517-2.884,4.207-6.98,1.837-10.591,1.378.963,3.22,2.109,3.64,4.55C333.323,176.943,332.18,179.03,331.319,180.665Z"/>
    <path id="Path_70" data-name="Path 70" d="M335.375,182.763c-1.518,2.884-4.208,6.979-1.837,10.591-1.361-.951-3.224-2.125-3.64-4.55-.394-2.3.745-4.359,1.613-6.006,1.518-2.885,4.207-6.981,1.837-10.592,1.379.963,3.221,2.11,3.64,4.551C337.38,179.04,336.236,181.127,335.375,182.763Z"/>
    <path id="Path_71" data-name="Path 71" d="M327.891,165.471c-1.1,2.084-3.039,5.043-1.327,7.651a5.131,5.131,0,0,1-2.629-3.287A6.89,6.89,0,0,1,325.1,165.5c1.1-2.083,3.039-5.042,1.326-7.65,1,.7,2.328,1.524,2.63,3.287A6.939,6.939,0,0,1,327.891,165.471Z"/>
    <path id="Path_72" data-name="Path 72" d="M330.821,166.986c-1.1,2.084-3.039,5.042-1.327,7.651a5.134,5.134,0,0,1-2.629-3.287,6.888,6.888,0,0,1,1.165-4.339c1.1-2.083,3.038-5.042,1.326-7.65,1,.7,2.328,1.524,2.63,3.287A6.945,6.945,0,0,1,330.821,166.986Z"/>
    <path id="Path_73" data-name="Path 73" d="M350.415,200.931c-2.885-1.519-6.98-4.208-10.592-1.837.952-1.362,2.125-3.224,4.551-3.64,2.3-.394,4.358.745,6.006,1.612,2.884,1.518,6.98,4.208,10.591,1.838-.963,1.378-2.109,3.22-4.55,3.64C354.137,202.935,352.05,201.792,350.415,200.931Z"/>
    <path id="Path_74" data-name="Path 74" d="M348.318,204.987c-2.885-1.518-6.98-4.208-10.592-1.837.952-1.361,2.125-3.224,4.551-3.64,2.3-.394,4.358.745,6.006,1.613,2.884,1.518,6.98,4.207,10.591,1.837-.963,1.379-2.109,3.221-4.55,3.64C352.04,206.992,349.953,205.848,348.318,204.987Z"/>
    <path id="Path_75" data-name="Path 75" d="M365.609,197.5c-2.084-1.1-5.043-3.039-7.651-1.327a5.131,5.131,0,0,1,3.287-2.629,6.894,6.894,0,0,1,4.339,1.165c2.083,1.1,5.042,3.04,7.65,1.326-.7,1-1.524,2.328-3.287,2.63A6.939,6.939,0,0,1,365.609,197.5Z"/>
    <path id="Path_76" data-name="Path 76" d="M364.094,200.433c-2.084-1.1-5.042-3.039-7.651-1.327a5.134,5.134,0,0,1,3.287-2.629,6.888,6.888,0,0,1,4.339,1.165c2.083,1.1,5.042,3.039,7.65,1.326-.7,1-1.523,2.328-3.287,2.63A6.941,6.941,0,0,1,364.094,200.433Z"/>
    <path id="Path_77" data-name="Path 77" d="M311.053,199.762c2.885,1.518,6.98,4.207,10.592,1.836-.952,1.362-2.125,3.224-4.551,3.64-2.3.395-4.358-.745-6.006-1.613-2.884-1.517-6.98-4.207-10.591-1.836.963-1.379,2.109-3.221,4.55-3.641C307.331,197.757,309.418,198.9,311.053,199.762Z"/>
    <path id="Path_78" data-name="Path 78" d="M313.151,195.705c2.884,1.519,6.979,4.208,10.591,1.837-.952,1.362-2.125,3.224-4.55,3.64-2.3.394-4.359-.745-6.007-1.613-2.884-1.518-6.98-4.207-10.591-1.837.963-1.379,2.11-3.22,4.551-3.64C309.428,193.7,311.515,194.844,313.151,195.705Z"/>
    <path id="Path_79" data-name="Path 79" d="M295.859,203.189c2.084,1.1,5.043,3.039,7.651,1.327a5.131,5.131,0,0,1-3.287,2.629,6.89,6.89,0,0,1-4.339-1.165c-2.083-1.1-5.042-3.039-7.65-1.326.7-1,1.524-2.328,3.287-2.63A6.945,6.945,0,0,1,295.859,203.189Z"/>
    <path id="Path_80" data-name="Path 80" d="M297.374,200.259c2.084,1.1,5.042,3.04,7.651,1.327a5.131,5.131,0,0,1-3.287,2.629,6.888,6.888,0,0,1-4.339-1.165c-2.083-1.1-5.042-3.039-7.65-1.327.7-1,1.524-2.327,3.287-2.629A6.945,6.945,0,0,1,297.374,200.259Z"/>
    <path id="Path_81" data-name="Path 81" d="M345.064,186.843c-3.113.966-7.911,1.961-8.788,6.19-.291-1.635-.777-3.782.644-5.791,1.346-1.9,3.608-2.555,5.387-3.106,3.113-.967,7.911-1.961,8.788-6.191.294,1.656.786,3.769-.644,5.792C349.113,185.628,346.829,186.3,345.064,186.843Z"/>
    <path id="Path_82" data-name="Path 82" d="M346.449,191.194c-3.113.966-7.911,1.961-8.788,6.191-.29-1.635-.777-3.783.644-5.792,1.346-1.9,3.608-2.554,5.387-3.106,3.113-.967,7.911-1.961,8.788-6.19.294,1.655.786,3.768-.644,5.791C350.5,189.979,348.214,190.647,346.449,191.194Z"/>
    <path id="Path_83" data-name="Path 83" d="M353.384,173.676c-2.249.7-5.714,1.416-6.348,4.47a5.129,5.129,0,0,1,.465-4.182,6.887,6.887,0,0,1,3.891-2.244c2.249-.7,5.715-1.416,6.348-4.472.212,1.2.568,2.723-.465,4.184A6.939,6.939,0,0,1,353.384,173.676Z"/>
    <path id="Path_84" data-name="Path 84" d="M354.384,176.819c-2.248.7-5.713,1.416-6.347,4.47a5.128,5.128,0,0,1,.465-4.183,6.888,6.888,0,0,1,3.891-2.243c2.249-.7,5.715-1.416,6.348-4.472.213,1.2.568,2.723-.465,4.184A6.942,6.942,0,0,1,354.384,176.819Z"/>
    <path id="Path_85" data-name="Path 85" d="M316.4,213.849c3.113-.966,7.911-1.961,8.788-6.19.291,1.634.777,3.782-.644,5.791-1.345,1.9-3.609,2.555-5.387,3.107-3.113.966-7.911,1.96-8.788,6.19-.294-1.656-.786-3.769.644-5.792C312.355,215.064,314.639,214.4,316.4,213.849Z"/>
    <path id="Path_86" data-name="Path 86" d="M315.019,209.5c3.113-.966,7.911-1.961,8.788-6.19.29,1.634.777,3.782-.644,5.791-1.346,1.9-3.608,2.555-5.387,3.106-3.113.966-7.911,1.961-8.788,6.191-.294-1.656-.786-3.769.644-5.792C310.969,210.713,313.254,210.045,315.019,209.5Z"/>
    <path id="Path_87" data-name="Path 87" d="M308.084,227.017c2.249-.7,5.714-1.417,6.348-4.471a5.132,5.132,0,0,1-.465,4.183,6.888,6.888,0,0,1-3.891,2.243c-2.249.7-5.715,1.416-6.348,4.472-.212-1.2-.568-2.723.465-4.184A6.932,6.932,0,0,1,308.084,227.017Z"/>
    <path id="Path_88" data-name="Path 88" d="M307.084,223.874c2.248-.7,5.713-1.417,6.347-4.471a5.128,5.128,0,0,1-.465,4.183,6.888,6.888,0,0,1-3.891,2.243c-2.249.7-5.715,1.417-6.348,4.472-.212-1.2-.568-2.723.465-4.183A6.93,6.93,0,0,1,307.084,223.874Z"/>
    <path id="Path_89" data-name="Path 89" d="M316.144,187.125c3.132.9,7.947,1.806,8.907,6.017.258-1.64.7-3.795-.757-5.777-1.383-1.878-3.657-2.484-5.446-3-3.131-.9-7.948-1.806-8.907-6.017-.262,1.661-.713,3.784.756,5.778C312.071,185.989,314.369,186.611,316.144,187.125Z"/>
    <path id="Path_90" data-name="Path 90" d="M314.844,191.5c3.131.9,7.947,1.806,8.907,6.018.258-1.64.7-3.8-.757-5.778-1.383-1.877-3.657-2.484-5.446-3-3.132-.9-7.948-1.806-8.907-6.018-.262,1.661-.713,3.784.756,5.778C310.771,190.366,313.069,190.989,314.844,191.5Z"/>
    <path id="Path_91" data-name="Path 91" d="M307.569,174.122c2.262.653,5.741,1.3,6.434,4.346a5.128,5.128,0,0,0-.546-4.173,6.89,6.89,0,0,0-3.935-2.167c-2.261-.654-5.74-1.305-6.433-4.348-.189,1.2-.515,2.734.546,4.174A6.936,6.936,0,0,0,307.569,174.122Z"/>
    <path id="Path_92" data-name="Path 92" d="M306.63,177.283c2.262.654,5.741,1.3,6.434,4.347a5.124,5.124,0,0,0-.547-4.173,6.886,6.886,0,0,0-3.934-2.168c-2.261-.653-5.74-1.3-6.433-4.347-.189,1.2-.515,2.734.546,4.174A6.937,6.937,0,0,0,306.63,177.283Z"/>
    <path id="Path_93" data-name="Path 93" d="M345.324,213.568c-3.131-.9-7.947-1.807-8.907-6.018-.258,1.64-.7,3.8.757,5.778,1.383,1.877,3.657,2.483,5.446,3,3.131.9,7.948,1.806,8.907,6.017.262-1.661.713-3.784-.756-5.778C349.4,214.7,347.1,214.081,345.324,213.568Z"/>
    <path id="Path_94" data-name="Path 94" d="M346.624,209.19c-3.131-.9-7.947-1.806-8.907-6.017-.258,1.639-.7,3.795.757,5.778,1.383,1.876,3.657,2.483,5.446,3,3.132.9,7.948,1.807,8.907,6.018.262-1.661.713-3.784-.756-5.778C350.7,210.326,348.4,209.7,346.624,209.19Z"/>
    <path id="Path_95" data-name="Path 95" d="M353.9,226.571c-2.262-.654-5.741-1.3-6.434-4.347a5.127,5.127,0,0,0,.546,4.173,6.892,6.892,0,0,0,3.935,2.168c2.261.653,5.74,1.3,6.433,4.347.189-1.2.515-2.733-.546-4.174A6.946,6.946,0,0,0,353.9,226.571Z"/>
    <path id="Path_96" data-name="Path 96" d="M354.838,223.409c-2.261-.654-5.741-1.3-6.434-4.347a5.132,5.132,0,0,0,.547,4.173,6.889,6.889,0,0,0,3.934,2.168c2.261.653,5.741,1.3,6.434,4.347.188-1.2.515-2.733-.547-4.174A6.937,6.937,0,0,0,354.838,223.409Z"/>
  </g>
</svg>
