<svg xmlns="http://www.w3.org/2000/svg" width="72.592" height="85.972" viewBox="0 0 72.592 85.972">
  <g id="Group_26" data-name="Group 26" transform="translate(-2302.512 -156.891)">
    <g id="Group_25" data-name="Group 25">
      <g id="Group_23" data-name="Group 23">
        <path id="Path_46" data-name="Path 46" d="M2310.369,242.8l-.131.028h-.047A.606.606,0,0,0,2310.369,242.8Z" fill="#2b2b2b"/>
        <path id="Path_47" data-name="Path 47" d="M2309.209,241.88c-1.44-.271-3.172-.356-4.163-1-1.44-.945-1.534-2.179-1.534-4V173.3a4.714,4.714,0,0,1,3.6-4.489L2367.34,158.1a5.237,5.237,0,0,1,3.955.29c1.15.663,1.654,2.575,2.28,3.164" fill="none" stroke="#000" stroke-miterlimit="10" stroke-width="2"/>
      </g>
      <g id="Group_24" data-name="Group 24">
        <path id="Path_48" data-name="Path 48" d="M2322.148,207.568l6.074-1.122-2.957-8.678Z"/>
        <path id="Path_49" data-name="Path 49" d="M2315.281,230.583a.587.587,0,0,0-.19.41.439.439,0,0,0,.145.356.405.405,0,0,0,.377.1.919.919,0,0,0,.488-.282.875.875,0,0,0,.233-.393,2.678,2.678,0,0,0,.042-.526l0-.208c-.121.062-.315.154-.58.267A2.275,2.275,0,0,0,2315.281,230.583Z"/>
        <path id="Path_50" data-name="Path 50" d="M2374.477,160.706a2.006,2.006,0,0,0-.234-.271,1.715,1.715,0,0,0-.187-.187,2.8,2.8,0,0,0-1.655-.673h-.018a3.156,3.156,0,0,0-.879.065l-60.985,11.6a4.733,4.733,0,0,0-3.6,4.5v63.986a3.246,3.246,0,0,0,.551,1.889,2.723,2.723,0,0,0,1.674,1.15c.122.028.243.047.365.066h.028a2.565,2.565,0,0,0,.262.018,1.651,1.651,0,0,0,.374-.018h.018a.606.606,0,0,0,.178-.028.857.857,0,0,0,.15-.019l40.7-8.135,20.282-4.049a4.735,4.735,0,0,0,3.6-4.5V162.7A3.229,3.229,0,0,0,2374.477,160.706Zm-35.543,28.743,4.495-.829-.294,24.9-4.5.83Zm-18.222-8.833a.478.478,0,0,0-.469-.144,1.638,1.638,0,0,0-.437.16l.118-.891.046-.007a.911.911,0,0,0,.542-.284.845.845,0,0,0,.206-.565.544.544,0,0,0-.145-.419.441.441,0,0,0-.391-.088.661.661,0,0,0-.416.261,1.119,1.119,0,0,0-.214.589l-.877,0a2.879,2.879,0,0,1,.288-.851,1.67,1.67,0,0,1,.52-.566,1.877,1.877,0,0,1,.738-.312,1.176,1.176,0,0,1,1.116.3,1.146,1.146,0,0,1,.332.856,1.67,1.67,0,0,1-.721,1.3.88.88,0,0,1,.674.33,1.2,1.2,0,0,1,.24.809,2.1,2.1,0,0,1-.487,1.325,1.963,1.963,0,0,1-1.192.739,1.312,1.312,0,0,1-1.11-.226,1.476,1.476,0,0,1-.5-1.04l.923-.3a.863.863,0,0,0,.229.564.525.525,0,0,0,.462.122.761.761,0,0,0,.5-.347,1.169,1.169,0,0,0,.208-.708A.848.848,0,0,0,2320.712,180.616Zm-5.667-.763a3.53,3.53,0,0,0,.814-.668,2.438,2.438,0,0,0,.61-1l.772-.143-.065,5.561-.951.176.047-4a4.347,4.347,0,0,1-1.238,1.026Zm1.511,52.073c-.021-.068-.055-.165-.089-.294l-.027-.123a2.111,2.111,0,0,1-.527.488,1.52,1.52,0,0,1-.594.246.991.991,0,0,1-.868-.175.968.968,0,0,1-.312-.788,1.378,1.378,0,0,1,.157-.634,1.29,1.29,0,0,1,.413-.483,3.448,3.448,0,0,1,.753-.386,6.133,6.133,0,0,0,.925-.434v-.1c0-.2-.039-.344-.131-.406a.644.644,0,0,0-.505-.043.761.761,0,0,0-.4.185.941.941,0,0,0-.233.434l-.863-.017a2.17,2.17,0,0,1,2.513-1.428.761.761,0,0,1,.431.343,2.209,2.209,0,0,1,.117.927l-.029,1.241a4.051,4.051,0,0,0,.041.766,2.293,2.293,0,0,0,.158.513Zm2.616-.482-.951.175.065-5.537.951-.175Zm4.216-.779-.886.164.007-.6a2,2,0,0,1-.521.6,1.608,1.608,0,0,1-.674.308,1.091,1.091,0,0,1-.648-.056.794.794,0,0,1-.408-.427,2.2,2.2,0,0,1-.119-.863l.03-2.533.951-.175-.022,1.845a6.25,6.25,0,0,0,.038,1.022.434.434,0,0,0,.189.268.488.488,0,0,0,.349.047.826.826,0,0,0,.438-.232.979.979,0,0,0,.268-.417,4.792,4.792,0,0,0,.085-1.091l.02-1.694.95-.176Zm6.181-1.141-.95.175.027-2.293a1.745,1.745,0,0,0-.084-.749.363.363,0,0,0-.405-.157.765.765,0,0,0-.373.205.962.962,0,0,0-.262.447,3.478,3.478,0,0,0-.088.845l-.023,1.925-.943.174.026-2.2a3.074,3.074,0,0,0-.048-.748.37.37,0,0,0-.148-.22.418.418,0,0,0-.292-.034.794.794,0,0,0-.394.209.9.9,0,0,0-.255.421,3.388,3.388,0,0,0-.088.846l-.023,1.949-.951.176.048-4.011.879-.162-.007.551a1.725,1.725,0,0,1,1.122-.845.973.973,0,0,1,.6.049.877.877,0,0,1,.409.4,2.256,2.256,0,0,1,.513-.573,1.32,1.32,0,0,1,.588-.268,1.051,1.051,0,0,1,.662.053.816.816,0,0,1,.409.451,2.424,2.424,0,0,1,.083.813Zm1.894-.35-.95.176.047-4.011.95-.175Zm.054-4.554-.951.176.012-.983.95-.175Zm4.184,3.772-.951.175.025-2.045a3.064,3.064,0,0,0-.055-.827.466.466,0,0,0-.189-.268.5.5,0,0,0-.328-.043.9.9,0,0,0-.445.234.963.963,0,0,0-.276.449,3.974,3.974,0,0,0-.082.932l-.022,1.822-.95.175.047-4.011.886-.163-.006.591a1.761,1.761,0,0,1,1.186-.9,1.145,1.145,0,0,1,.571.023.723.723,0,0,1,.389.247.931.931,0,0,1,.18.413,3.2,3.2,0,0,1,.049.7Zm-4.207-12.72-1.877-5.3-8.9,1.643-1.911,6-4.766.88,8.969-26.5,4.752-.877,8.625,23.256Zm6.115,12.368-.95.175.047-4.011.95-.175Zm.054-4.554-.951.175.012-.983.95-.175Zm4.162,3.775-.886.164.007-.6a2.006,2.006,0,0,1-.52.6,1.641,1.641,0,0,1-.674.308,1.083,1.083,0,0,1-.648-.056.763.763,0,0,1-.409-.427,2.205,2.205,0,0,1-.118-.863l.03-2.533.95-.175-.022,1.846a5.58,5.58,0,0,0,.038,1.021.439.439,0,0,0,.19.268.481.481,0,0,0,.348.047.819.819,0,0,0,.438-.232,1,1,0,0,0,.269-.416,4.777,4.777,0,0,0,.084-1.092l.02-1.694.951-.176Zm6.182-1.141-.951.175.028-2.292a1.764,1.764,0,0,0-.084-.75.369.369,0,0,0-.405-.157.736.736,0,0,0-.373.205.959.959,0,0,0-.262.447,3.524,3.524,0,0,0-.089.845l-.022,1.925-.951.176.026-2.2a3.188,3.188,0,0,0-.041-.75.34.34,0,0,0-.154-.219.387.387,0,0,0-.285-.035.8.8,0,0,0-.4.209.907.907,0,0,0-.254.421,3.13,3.13,0,0,0-.089.846l-.023,1.949-.95.176.047-4.011.872-.161-.006.551a1.734,1.734,0,0,1,1.129-.846.97.97,0,0,1,.6.049.915.915,0,0,1,.409.4,2.163,2.163,0,0,1,.513-.573,1.3,1.3,0,0,1,.588-.268,1.054,1.054,0,0,1,.663.053.778.778,0,0,1,.4.452,2.352,2.352,0,0,1,.09.812Z"/>
      </g>
    </g>
  </g>
</svg>
