<svg id="Layer_1" data-name="Layer 1" xmlns="http://www.w3.org/2000/svg" viewBox="0 0 309.59 130.48"><defs><style>.cls-1{fill:#5e6f65;}.cls-2{fill:#22ae67;}</style></defs><path class="cls-1" d="M429.14,219.32c3.36,1.17,6.17,3,6.81,6.77,1.15,6.8-4.25,13.48-11.95,11.82-5.67-1.22-7.92-8.08-4.73-13.64,1.52-2.66,4-4,6.73-5Z" transform="translate(-215.18 -219.32)"/><path class="cls-1" d="M380.74,287.89c.76-4.11,1.46-8,2.2-11.89,1.09-5.83,2.23-11.65,3.31-17.48a13.09,13.09,0,0,0,.13-2.73c-.11-3.27-2.65-4.81-5.4-3a13.92,13.92,0,0,0-3.93,4.22c-2.66,4.25-3.22,9.18-4.15,14-1,5-2,10.1-2.88,15.17-.24,1.32-.77,1.8-2.19,1.77-4.9-.09-9.8,0-15,0,.62-3.37,1.2-6.55,1.8-9.72,1.23-6.53,2.49-13.06,3.69-19.6a12.47,12.47,0,0,0,.11-2.93c-.14-3.09-2.45-4.55-5.13-2.94a13.22,13.22,0,0,0-4,4.08c-2.78,4.26-3.31,9.28-4.27,14.13-1.11,5.61-2.17,11.23-3.26,16.86H325c2.9-15.43,5.78-30.7,8.66-46h16.58c-.45,2.34-.86,4.56-1.29,6.8,2.28-1.67,4.31-3.62,6.71-4.81a33.4,33.4,0,0,1,9-3.1c5.89-1,9.78,2,10.83,7.83,2.22-1.54,4.35-3.28,6.71-4.61,4.7-2.67,9.71-4.23,15.21-3,4.23,1,6.89,3.92,6.52,8.27-.49,5.83-1.47,11.62-2.43,17.4-1,6.3-2.34,12.56-3.41,18.86-.31,1.83-.93,2.58-3,2.5C390.39,287.76,385.68,287.89,380.74,287.89Z" transform="translate(-215.18 -219.32)"/><path class="cls-1" d="M215.18,287.79c.51-3.38.84-6.44,3-9.23,11-14.1,21.92-28.35,32.84-42.54.39-.5.75-1,1.32-1.78h-21.1l2-10.84h42.13c-.5,3.32-1,6.44-3.25,9.33-10.71,13.86-21.21,27.9-31.77,41.87-.43.56-.83,1.15-1.46,2h27.93l-2.07,11.16Z" transform="translate(-215.18 -219.32)"/><path class="cls-2" d="M463.33,286.55c1.21-5.86,2.4-11.73,3.63-17.59,3.25-15.5,6.55-31,9.72-46.5.44-2.12,1.2-2.8,3.41-2.76,14.19.23,28.39.31,42.58.45a13.1,13.1,0,0,1,1.53.21l-60.47,66.38Z" transform="translate(-215.18 -219.32)"/><path class="cls-1" d="M463.94,220c-4.29,22.83-8.52,45.29-12.74,67.74H434.43c.92-5,1.79-9.88,2.71-14.73q4.85-25.74,9.75-51.47c.11-.56.69-1.47,1.06-1.48C453.17,220,458.39,220,463.94,220Z" transform="translate(-215.18 -219.32)"/><path class="cls-1" d="M407.52,287.79c2.92-15.5,5.79-30.72,8.66-46H433l-8.67,46Z" transform="translate(-215.18 -219.32)"/><path class="cls-2" d="M411.33,307.23H408.8c-.14-.68-.31-1.42-.44-2.17-1.16-6.46-5.74-10.38-12.29-10.89-14.93-1.15-22.34,9.67-24.3,19.86-.95,4.93-1,9.82,1.06,14.59,2.34,5.27,6.54,7.82,12.05,8.44,11.08,1.25,17.55-5,20.7-12.37.76-1.78,1.35-3.63,2.11-5.69H390.38c-.26-2.08.5-2.74,2.49-2.69,5.24.12,10.48,0,15.72,0h2.11c-1.3,6.11-2.54,12-3.78,17.81a21.34,21.34,0,0,0-.57,2.68c-.14,1.92-1.07,2.49-3,1.81.47-2.32.95-4.65,1.4-6.84-1.37,1.24-2.76,2.62-4.28,3.84-6,4.78-16.4,5.74-23,2-5.85-3.32-8.48-8.68-8.81-15.21-.46-9.24,1.69-17.72,8.47-24.38s15.1-8,24-5.44c5.94,1.73,8.78,6.44,9.95,12.26C411.15,305.56,411.2,306.28,411.33,307.23Z" transform="translate(-215.18 -219.32)"/><path class="cls-2" d="M492.59,305.4c-.89,4.18-1.77,8.37-2.67,12.55-1.37,6.31-2.86,12.59-4.09,18.92-.38,1.95-1.16,2.39-3.08,1.82l.76-4.53c-.92.87-1.54,1.5-2.2,2.07a13.66,13.66,0,0,1-13.78,2.59c-4.57-1.47-6.66-5.76-5.61-11.13,1.35-7,2.89-13.9,4.27-20.86.35-1.82,1.36-1.94,3.06-1.47-.58,2.88-1.15,5.79-1.76,8.68-1,4.59-2,9.16-2.91,13.77-1.34,6.86,3.87,10.87,11.08,8.59,4.64-1.47,7.45-4.93,8.86-9.28,1.65-5.06,2.7-10.31,4-15.49a34.73,34.73,0,0,0,.87-4.41C489.6,305.2,490.62,304.71,492.59,305.4Z" transform="translate(-215.18 -219.32)"/><path class="cls-2" d="M410.33,338.65c2.38-11.2,4.74-22.27,7.11-33.4h2.69c-.26,1.5-.51,2.93-.83,4.71,3.72-4.18,7.88-6.35,13.48-4.89l-.36,2.32c-7.55,0-11.88,2.77-14.24,10-1.9,5.8-2.95,11.87-4.38,17.82a8.41,8.41,0,0,0-.34,1.53C413.41,338.82,412.36,339.32,410.33,338.65Z" transform="translate(-215.18 -219.32)"/><path class="cls-1" d="M306.82,241.8c-.26,1.53-.51,3-.77,4.54a25.82,25.82,0,0,0-2.69-3c-4.42-3.59-9.44-3.51-14.49-1.82-6.7,2.26-11.19,7.1-14.22,13.29-4.2,8.61-5.48,17.54-1.9,26.69,1.68,4.31,4.81,7.28,9.67,7.42a22.14,22.14,0,0,0,7.49-1.11,95.11,95.11,0,0,0,9.17-4.17c-.19,1.31-.39,2.63-.61,4.1h16.62c2.89-15.35,5.77-30.62,8.65-45.95Zm-7.55,32.49a14.81,14.81,0,0,1-3.07,3.76c-2.54,2.31-5.69,1-6.79-1.95-1.71-4.57-1.19-9.21,0-13.82a23.19,23.19,0,0,1,4-8.3,13.48,13.48,0,0,1,3.11-2.92c3.22-2.17,7.17-.28,7.15,3.6C303.64,261.49,302.65,268.2,299.27,274.29Z" transform="translate(-215.18 -219.32)"/><path class="cls-2" d="M524.41,314.48c-.89-4.46-2.95-8.07-7.49-9.44a14,14,0,0,0-14.21,3.19c-.63.57-1.19,1.22-2.07,2.13.36-2,.64-3.48.91-4.95-2-.73-2.72,0-3.09,1.76-2.6,12.5-5.27,25-7.91,37.47-.35,1.69-.65,3.39-1,5.17h2.67l1.74-8.18c.58-2.71,1.15-5.42,1.64-7.72,1.87,1.51,3.57,3.55,5.75,4.51a14.15,14.15,0,0,0,14-1.34C522,332.7,526,322.57,524.41,314.48Zm-2.48,3.91c-.06,6.24-2.14,11.62-7,15.7a12.3,12.3,0,0,1-11.06,2.49,7.9,7.9,0,0,1-6.24-7.22c-.55-7.54,1.55-14.23,7.29-19.44a11.34,11.34,0,0,1,10.43-2.63c3.61.77,6.21,4.2,6.6,8.55C522,316.69,521.93,317.54,521.93,318.39Z" transform="translate(-215.18 -219.32)"/><path class="cls-2" d="M459.26,316.48c-.39-5.39-2.95-9.66-8.39-11.39a14.73,14.73,0,0,0-13.3,1.82c-6.52,4.49-8.52,11.22-8.92,17.5-.07,5,.63,8.57,3.38,11.46,4.84,5.09,14.48,5,20.13-.25S459.79,323.84,459.26,316.48Zm-7.17,15.36a12.89,12.89,0,0,1-13.47,4.76,8.48,8.48,0,0,1-7-7.3,21.15,21.15,0,0,1,4.71-17.77c3.26-3.86,7.61-5.15,12.55-4.28s7.85,5.18,7.83,12.64A20.49,20.49,0,0,1,452.09,331.84Z" transform="translate(-215.18 -219.32)"/></svg>