<svg xmlns="http://www.w3.org/2000/svg" width="66.236" height="85" viewBox="0 0 66.236 85">
  <g id="Group_15" data-name="Group 15" transform="translate(-1825.612 -157.846)">
    <path id="Path_23" data-name="Path 23" d="M1864.6,177.14a10.543,10.543,0,1,0-11.747,0,33.118,33.118,0,1,0,11.744,0Zm21.134,30.009-4.623.436a22.526,22.526,0,0,0-.772-4.069l4.463-1.286a27.045,27.045,0,0,1,.932,4.919Zm-2.757-9.577-4.148,2.087a22.582,22.582,0,0,0-2.2-3.518l3.7-2.812a27.219,27.219,0,0,1,2.649,4.242Zm-10.024-10.937a27.279,27.279,0,0,1,3.994,3.009l-3.122,3.438a22.62,22.62,0,0,0-3.313-2.5Zm-18.737,18.946,16.51-7.489-7.49,16.51-16.509,7.488Zm-.523-22.515a27.25,27.25,0,0,1,4.98-.467l.009,4.644a22.57,22.57,0,0,0-4.128.388Zm13.106,5.675a22.31,22.31,0,0,0-3.988-1.127l.842-4.567a26.984,26.984,0,0,1,4.818,1.361Zm-8.072-26.251a5.9,5.9,0,0,1,2.323,11.319v-5.42h-4.644v5.42a5.9,5.9,0,0,1,2.321-11.319Zm-18.3,27.224,3.134,3.428a22.82,22.82,0,0,0-2.792,3.069l-3.707-2.8A27.258,27.258,0,0,1,1840.433,189.714Zm-6,7.952,4.158,2.072a22.25,22.25,0,0,0-1.5,3.864l-4.469-1.268a27.23,27.23,0,0,1,1.807-4.668Zm-2.831,12.063c0-.821.038-1.653.112-2.472l4.626.417c-.063.682-.093,1.373-.093,2.055s.033,1.4.1,2.1l-4.624.429c-.078-.838-.117-1.688-.117-2.526Zm2.855,12.11a27.109,27.109,0,0,1-1.817-4.664l4.466-1.276a22.412,22.412,0,0,0,1.5,3.86Zm6.013,7.937a27.362,27.362,0,0,1-3.371-3.692l3.7-2.8a22.69,22.69,0,0,0,2.8,3.065Zm8.416-45.329,1.69,4.325a22.629,22.629,0,0,0-3.7,1.859l-2.457-3.941a27.284,27.284,0,0,1,4.471-2.243Zm.051,50.584a27.072,27.072,0,0,1-4.477-2.236l2.449-3.946a22.439,22.439,0,0,0,3.709,1.852Zm9.9,1.828h-.059a27.375,27.375,0,0,1-5.022-.457l.852-4.566a22.562,22.562,0,0,0,4.128.379h.1v4.644Zm4.988-.478-.871-4.563a22.33,22.33,0,0,0,3.981-1.15l1.7,4.322a26.921,26.921,0,0,1-4.809,1.391Zm9.275-3.644-2.467-3.935a22.859,22.859,0,0,0,3.3-2.516l3.142,3.419a27.349,27.349,0,0,1-3.977,3.031Zm7.332-6.735-3.712-2.791a22.467,22.467,0,0,0,2.178-3.531l4.16,2.064a27.272,27.272,0,0,1-2.626,4.258Zm-.046-10.191a22.287,22.287,0,0,0,.747-4.074l4.626.41a26.97,26.97,0,0,1-.9,4.925Z"/>
  </g>
</svg>
