<svg xmlns="http://www.w3.org/2000/svg" width="85.357" height="85" viewBox="0 0 85.357 85">
  <g id="Group_30" data-name="Group 30" transform="translate(-1206.409 -157.846)">
    <g id="Group_29" data-name="Group 29">
      <path id="Path_53" data-name="Path 53" d="M1234.97,167.5a33.37,33.37,0,0,0-3.938,42.568,7.04,7.04,0,0,0-3.539,1.884L1208.5,230.8a7.041,7.041,0,0,0,9.917,10l18.989-18.851a7.063,7.063,0,0,0,1.925-3.526,33.319,33.319,0,1,0-4.363-50.925Zm5.819,41.192a24.885,24.885,0,1,1,35.187.139A24.935,24.935,0,0,1,1240.789,208.692Z"/>
    </g>
  </g>
</svg>
