<svg xmlns="http://www.w3.org/2000/svg" width="84.795" height="85" viewBox="0 0 84.795 85">
  <g id="Group_14" data-name="Group 14" transform="translate(-3321.494 -157.846)">
    <g id="N3434d">
      <g id="Group_13" data-name="Group 13">
        <path id="Path_17" data-name="Path 17" d="M3321.494,238.04a11.7,11.7,0,0,1,.887-2.033,4.078,4.078,0,0,1,3.34-1.737c.092-.005.184,0,.276,0h75.791a4.291,4.291,0,0,1,4.346,3.205c.054.188.1.377.155.566v1.106a10.477,10.477,0,0,1-.794,1.875,4.2,4.2,0,0,1-3.755,1.825q-23.061-.016-46.121-.006-14.814,0-29.627.005a4.158,4.158,0,0,1-3.676-1.789,10.487,10.487,0,0,1-.822-1.91Z"/>
        <path id="Path_18" data-name="Path 18" d="M3399.5,199.378v27.184a1.73,1.73,0,0,1-1.246,1.91,1.9,1.9,0,0,1-.542.072q-4.975.006-9.952,0a1.707,1.707,0,0,1-1.835-1.84q-.006-6.128,0-12.256,0-14.513,0-29.026,0-6.705,0-13.408a1.718,1.718,0,0,1,1.813-1.819q4.924-.006,9.848-.008a1.751,1.751,0,0,1,1.91,1.96Q3399.5,185.764,3399.5,199.378Z"/>
        <path id="Path_19" data-name="Path 19" d="M3366.721,207.026c0-6.481.019-12.961-.015-19.442a1.888,1.888,0,0,1,2.073-2.1c3.178.047,6.358.016,9.536.016a1.767,1.767,0,0,1,1.981,1.988q0,11.3,0,22.6,0,8.216,0,16.429a1.783,1.783,0,0,1-1.985,2.028q-4.838.009-9.674.005a1.73,1.73,0,0,1-1.916-1.945Q3366.719,216.815,3366.721,207.026Z"/>
        <path id="Path_20" data-name="Path 20" d="M3369.691,163.525l-3.065-2.7q-1.086-.96-2.17-1.923c-.218-.194-.453-.387-.312-.738.133-.328.413-.314.7-.314l21.377.016a.347.347,0,0,1,.137,0c.235.113.561.178.669.367a.811.811,0,0,1-.146.691c-1.543,2.045-3.108,4.072-4.668,6.1q-4.146,5.4-8.295,10.8c-.209.272-.38.661-.821.53-.413-.123-.365-.517-.389-.849q-.168-2.385-.333-4.773c-.047-.667-.1-1.334-.154-2.057-.946.461-1.823.886-2.7,1.317q-6.431,3.163-12.855,6.337a1.4,1.4,0,0,0-.559.507q-4.274,7.17-8.524,14.352a2.8,2.8,0,0,1-3.437,1.2c-2.924-1.181-5.837-2.389-8.753-3.59-3.411-1.406-6.816-2.825-10.231-4.218a3.175,3.175,0,0,1-2.041-1.838,2.718,2.718,0,0,1,.617-2.974,2.575,2.575,0,0,1,2.9-.73c1.644.627,3.266,1.315,4.894,1.984,4.118,1.695,8.235,3.394,12.4,5.11.439-.732.879-1.463,1.314-2.2q3.23-5.436,6.452-10.876a3.589,3.589,0,0,1,1.557-1.443q7.984-3.913,15.958-7.845C3369.355,163.7,3369.5,163.623,3369.691,163.525Z"/>
        <path id="Path_21" data-name="Path 21" d="M3328.287,213.948q0-6.311,0-12.622a1.719,1.719,0,0,1,1.284-1.88,2.113,2.113,0,0,1,.546-.05q4.952,0,9.9,0a1.694,1.694,0,0,1,1.84,1.832q.006,5.8,0,11.609c0,4.56-.027,9.121.017,13.681a1.9,1.9,0,0,1-2.033,2.049c-3.223-.051-6.448-.014-9.673-.014a1.737,1.737,0,0,1-1.886-1.889Q3328.283,220.3,3328.287,213.948Z"/>
        <path id="Path_22" data-name="Path 22" d="M3347.508,217.812q0-4.377,0-8.753c0-1.415.628-2.026,2.05-2.024q4.455,0,8.91,0c.291,0,.581,0,.872.007a1.691,1.691,0,0,1,1.717,1.673c.008.138,0,.276,0,.414,0,5.79-.021,11.58.016,17.369a1.893,1.893,0,0,1-2.059,2.065c-3.208-.054-6.418-.014-9.628-.015a1.733,1.733,0,0,1-1.882-1.894Q3347.5,222.233,3347.508,217.812Z"/>
      </g>
    </g>
  </g>
</svg>
