<svg id="layer" xmlns="http://www.w3.org/2000/svg" viewBox="0 0 193.17 315.64"><defs><style>.cls-1{fill:#003e33;}.cls-2{fill:#daa41a;}.cls-3{fill:#fff;}</style></defs><path class="cls-1" d="M47.58,299.13c-4.63,4.47-4.87,8.46-4.87,12.93V326.5H32.66V312.06c0-4.47-.24-8.46-4.87-12.93V326.5H17.66v-36h13.4a25.37,25.37,0,0,1,6.62,9.5,25.13,25.13,0,0,1,6.63-9.5h13.4v36H47.58Z" transform="translate(-17.66 -10.86)"/><path class="cls-1" d="M72.55,313.81c.16-7,1-12.36,2.48-16,1.51,3.6,2.39,8.94,2.55,16Zm-10,12.69h10v-5.9h5v5.9H87.79v-7c0-12.29-2-21.78-8.06-29H70.56c-6,7.19-8.06,16.6-8.06,29v7Z" transform="translate(-17.66 -10.86)"/><rect class="cls-1" x="73.49" y="278.62" width="6.22" height="14.44"/><path class="cls-1" d="M111.09,313.81c.16-7,1-12.36,2.56-16,1.51,3.6,2.39,8.94,2.47,16ZM101,326.5h10v-5.9h5v5.9h10.13v-7c0-12.29-2-21.78-8.06-29H109.1c-6,7.19-8.06,16.6-8.06,29Z" transform="translate(-17.66 -10.86)"/><path class="cls-1" d="M140.93,297.38h1.68c3.11,0,3.27,1,3.27,3.35v15.48c0,2.39-.16,3.35-3.27,3.35h-1.68Zm-10.13-6.87v36h13.48c8.22,0,11.81-2.87,11.81-9.73v-16.6c0-6.78-3.59-9.74-11.81-9.74H130.8Z" transform="translate(-17.66 -10.86)"/><polygon class="cls-1" points="142.83 279.65 163.41 279.65 163.41 286.51 152.96 286.51 152.96 292.5 163.01 292.5 163.01 299.28 152.96 299.28 152.96 308.7 163.89 308.7 163.89 315.64 142.83 315.64 142.83 279.65"/><path class="cls-1" d="M195.11,290.51a46.55,46.55,0,0,1,5.67,9.5v-9.5h10.05v36H200.78v-7a31,31,0,0,0-4.87-16.84V326.5H185.78v-36Z" transform="translate(-17.66 -10.86)"/><polygon class="cls-1" points="96.69 179.5 39.48 120.89 96.69 62.15 153.88 120.89 96.69 179.5"/><polygon class="cls-2" points="79.58 54.96 35.95 62.15 79.58 69.47 53.76 106.14 89.61 79.73 96.69 179.5 103.76 79.73 139.5 106.14 113.67 69.47 157.31 62.15 113.67 54.96 139.5 18.16 103.76 44.7 96.69 0 89.61 44.7 53.76 18.16 79.58 54.96"/><polygon class="cls-3" points="53.76 106.14 89.61 79.73 96.69 179.5 103.76 79.73 139.5 106.14 96.69 62.15 53.76 106.14"/><path class="cls-1" d="M191.41,236.78c-8.16,0-11.65,3.21-11.65,10.79v14.54H152.68l5.7-11.6c3.4-7.22,1-13.82-7.29-13.82H132.88c-8.24,0-10.62,6.6-7.29,13.82l5.78,11.6H103.73V225.45h-10v44.42H210.34V236.78Zm-58,7.67H150.7l-8.64,17.75H142Zm67,17.75H189.82V248.28c0-2.67.16-3.83,3.25-3.83h7.29V262.2Z" transform="translate(-17.66 -10.86)"/><path class="cls-1" d="M75.69,236.78H63.57v7.58H74c3.17,0,3.24,3.83,3.24,3.83v13.92H59.77v7.67H87.33V247.57c0-7.58-3.48-10.79-11.64-10.79" transform="translate(-17.66 -10.86)"/><path class="cls-1" d="M45.28,254.53c0,5.08-1.91,7.67-6.26,7.67H34.58c-4.35,0-6.25-2.59-6.25-7.67V236.78h-10v17.75c0,8.92,3.72,15.43,16.87,15.43h3.16c13.23,0,16.88-6.43,16.88-15.43V236.78h-10Z" transform="translate(-17.66 -10.86)"/><rect class="cls-1" x="14.15" y="214.68" width="9.98" height="8.38"/></svg>