<svg xmlns="http://www.w3.org/2000/svg" width="69.771" height="85" viewBox="0 0 69.771 85">
  <g id="Group_4" data-name="Group 4" transform="translate(-2733.472 -157.846)">
    <g id="sBwSu7.tif">
      <g id="Group_3" data-name="Group 3">
        <path id="Path_6" data-name="Path 6" d="M2803.243,242.846H2733.49v-.865q0-14.769-.018-29.537c0-.726.205-.961.918-.975,1.053-.021,2.1-.149,3.224-.236V191.451h8.963v19.771h4.832v-19.79h8.933v20.733c.412-.182.7-.3.987-.439a112.821,112.821,0,0,0,13.7-8.461c2.191-1.489,4.427-2.911,6.646-4.357.333-.217.685-.4,1.148-.675v13.38l20.417-13.42ZM2765,222.747v11.065h11.264V222.747Zm-11.62,11.119V222.737h-11.015v11.129Z"/>
        <path id="Path_7" data-name="Path 7" d="M2798.026,173.524c-.243,5.683-2.612,9.56-6.846,12.306a15.1,15.1,0,0,1-10.264,2.633,14.584,14.584,0,0,1-6.906-2.875,18.377,18.377,0,0,0-2.155-1.394,3.9,3.9,0,0,0-4.165.189,10.714,10.714,0,0,0-1.159.845,9.755,9.755,0,0,1-12.717.537c-.226-.161-.446-.33-.668-.5a4.129,4.129,0,0,0-4.75-.391c-.58.3-1.166.6-1.772.849a7.094,7.094,0,0,1-8.677-2.268,7.582,7.582,0,0,1-.348-9.034c1.9-2.75,4.6-3.61,7.807-3.184.225.03.45.064.671.112a4.233,4.233,0,0,0,4.542-1.83,19.577,19.577,0,0,1,2.947-3.224,9.343,9.343,0,0,1,10.425-1.219c.528.24,1.06.473,1.6.672a3.8,3.8,0,0,0,4.189-.9,14.029,14.029,0,0,0,1.173-1.284c3.887-4.713,8.873-6.583,14.829-5.36s9.69,5.04,11.392,10.814A39.221,39.221,0,0,1,2798.026,173.524Z"/>
      </g>
    </g>
  </g>
</svg>
