<svg xmlns="http://www.w3.org/2000/svg" width="64.346" height="85" viewBox="0 0 64.346 85">
  <path id="Path_51" data-name="Path 51" d="M1035.006,158.531a2.3,2.3,0,0,0-1.632-.685h-27.148a4.583,4.583,0,0,0-3.645,1.793,17.38,17.38,0,0,0-2.679,5.135L996.1,175.056h-7.754V169.4h-11.47v5.8a6.9,6.9,0,0,0-5.538,6.736v54.045a6.893,6.893,0,0,0,6.878,6.868H1028.8a6.876,6.876,0,0,0,6.877-6.868V160.152A2.29,2.29,0,0,0,1035.006,158.531Zm-31.5,66.069a17.361,17.361,0,1,1,17.361-17.361A17.362,17.362,0,0,1,1003.507,224.6Zm26.965-48.589h-27.888l1.105-2.935,2.172-5.772a11.862,11.862,0,0,1,1.94-3.611,5.465,5.465,0,0,1,4.359-2.078h13.856a4.442,4.442,0,0,1,3.142,1.307l.007.007a4.44,4.44,0,0,1,1.307,3.142Z" transform="translate(-971.334 -157.846)"/>
</svg>
