<svg xmlns="http://www.w3.org/2000/svg" width="45.125" height="85.664" viewBox="0 0 45.125 85.664">
  <g id="Group_8" data-name="Group 8" transform="translate(-2993.037 -157.182)">
    <g id="Group_7" data-name="Group 7">
      <path id="Path_9" data-name="Path 9" d="M3029.42,208.614a13.109,13.109,0,0,1-4.941-10.322V181.863h.665a4.021,4.021,0,0,0,0-8.042h-19.089a4.021,4.021,0,0,0,0,8.042h.665v16.429a13.109,13.109,0,0,1-4.941,10.322,22.574,22.574,0,0,0-7.446,25.378A13.425,13.425,0,0,0,3007,242.846H3024.2a13.416,13.416,0,0,0,12.663-8.854,22.572,22.572,0,0,0-7.446-25.378Zm-14.114-18.779a2.021,2.021,0,1,1-2.021,2.022A2.024,2.024,0,0,1,3015.306,189.835Zm15.135,41.808a6.393,6.393,0,0,1-6.038,4.172H3007.2a6.392,6.392,0,0,1-6.037-4.172,15.617,15.617,0,0,1-.89-5.2,15.367,15.367,0,0,1,2.583-8.578v-.008c.2-.225,4.379-5.045,12.948-1.685,5.856,2.3,10.028,1.434,12.162.6a15.417,15.417,0,0,1,3.369,9.666A15.636,15.636,0,0,1,3030.441,231.643Z"/>
      <circle id="Ellipse_1" data-name="Ellipse 1" cx="3.881" cy="3.881" r="3.881" transform="matrix(0.189, -0.982, 0.982, 0.189, 3005.711, 164.804)"/>
      <path id="Path_10" data-name="Path 10" d="M3022.639,168.421a2.3,2.3,0,1,1-2.3-2.306A2.3,2.3,0,0,1,3022.639,168.421Z"/>
    </g>
  </g>
</svg>
