<svg xmlns="http://www.w3.org/2000/svg" width="72.592" height="85.972" viewBox="0 0 72.592 85.972">
  <g id="Group_20" data-name="Group 20" transform="translate(-2057.751 -156.891)">
    <g id="Group_19" data-name="Group 19">
      <path id="Path_33" data-name="Path 33" d="M2065.609,242.8l-.131.028h-.047A.611.611,0,0,0,2065.609,242.8Z" fill="#2b2b2b"/>
      <path id="Path_34" data-name="Path 34" d="M2064.448,241.88c-1.44-.271-3.172-.356-4.164-1-1.439-.945-1.533-2.179-1.533-4V173.3a4.714,4.714,0,0,1,3.6-4.489l60.228-10.715a5.237,5.237,0,0,1,3.955.29c1.15.663,1.654,2.575,2.28,3.164" fill="none" stroke="#000" stroke-miterlimit="10" stroke-width="2"/>
      <g id="Group_18" data-name="Group 18">
        <path id="Path_35" data-name="Path 35" d="M2098.682,225.126a1.975,1.975,0,0,0-.506.27.512.512,0,0,0-.178.388.424.424,0,0,0,.538.412.926.926,0,0,0,.483-.274.776.776,0,0,0,.216-.37,2.232,2.232,0,0,0,.028-.5l0-.2C2099.136,224.923,2098.944,225.017,2098.682,225.126Z"/>
        <path id="Path_36" data-name="Path 36" d="M2090.573,225.282a.882.882,0,0,0-.566.4,1.459,1.459,0,0,0-.205.876,1.369,1.369,0,0,0,.253.9.611.611,0,0,0,.587.19.82.82,0,0,0,.543-.385,1.676,1.676,0,0,0,.195-.957,1.2,1.2,0,0,0-.244-.831A.569.569,0,0,0,2090.573,225.282Z"/>
        <path id="Path_37" data-name="Path 37" d="M2085.376,193.952a24.521,24.521,0,0,0-3.768.544l-2.528.491.178,7.77,2.867-.558a13.944,13.944,0,0,0,4.118-1.235,4.432,4.432,0,0,0,1.608-1.658,4.369,4.369,0,0,0,.539-2.247,3.132,3.132,0,0,0-.883-2.3A2.942,2.942,0,0,0,2085.376,193.952Z"/>
        <path id="Path_38" data-name="Path 38" d="M2074.163,228.472a.865.865,0,0,0-.565.4,1.461,1.461,0,0,0-.213.879,1.364,1.364,0,0,0,.261.893.609.609,0,0,0,.587.189.814.814,0,0,0,.542-.384,1.677,1.677,0,0,0,.2-.957,1.242,1.242,0,0,0-.245-.831A.567.567,0,0,0,2074.163,228.472Z"/>
        <path id="Path_39" data-name="Path 39" d="M2082.473,226.89a.981.981,0,0,0-.619.415,1.5,1.5,0,0,0-.228.906,1.142,1.142,0,0,0,.267.81.689.689,0,0,0,.633.181.991.991,0,0,0,.611-.423,1.521,1.521,0,0,0,.228-.914,1.134,1.134,0,0,0-.267-.8A.679.679,0,0,0,2082.473,226.89Z"/>
        <path id="Path_40" data-name="Path 40" d="M2129.717,160.706a2.1,2.1,0,0,0-.234-.271,1.715,1.715,0,0,0-.187-.187,2.767,2.767,0,0,0-1.674-.673,3.162,3.162,0,0,0-.879.065l-60.984,11.6a4.733,4.733,0,0,0-3.6,4.5v63.986a3.246,3.246,0,0,0,.551,1.889,2.723,2.723,0,0,0,1.674,1.15c.122.028.243.047.365.066h.028a2.546,2.546,0,0,0,.262.018,1.654,1.654,0,0,0,.374-.018h.018a.611.611,0,0,0,.178-.028.857.857,0,0,0,.15-.019l60.984-12.184a4.734,4.734,0,0,0,3.6-4.5V162.7A3.228,3.228,0,0,0,2129.717,160.706Zm-52.52,22.215a.552.552,0,0,0-.531-.143,1.175,1.175,0,0,0-.718.525l-.767.026.417-2.8,2.5-.485.022.931-1.778.346-.127.919a1.566,1.566,0,0,1,.638-.3,1.214,1.214,0,0,1,1.078.275,1.551,1.551,0,0,1,.461,1.166,2.28,2.28,0,0,1-.321,1.219,1.918,1.918,0,0,1-1.322.947,1.4,1.4,0,0,1-1.114-.178,1.312,1.312,0,0,1-.542-.937l.941-.281a.706.706,0,0,0,.244.486.562.562,0,0,0,.468.106.747.747,0,0,0,.489-.349,1.347,1.347,0,0,0,.191-.8A.9.9,0,0,0,2077.2,182.921Zm-5.724.555-.021-.907a3.409,3.409,0,0,0,.785-.637,2.269,2.269,0,0,0,.576-.949l.765-.149.12,5.221-.943.183-.086-3.758A4.068,4.068,0,0,1,2071.473,183.476Zm4.057,47.373a1.646,1.646,0,0,1-1.047.729,1.1,1.1,0,0,1-.536-.019,1.377,1.377,0,0,1-.513-.327l.044,1.9-.943.183-.119-5.2.873-.17.013.548a1.744,1.744,0,0,1,.453-.548,1.4,1.4,0,0,1,.645-.306,1.134,1.134,0,0,1,1.063.311,1.831,1.831,0,0,1,.466,1.345A2.549,2.549,0,0,1,2075.53,230.849Zm3.488-.243-.046-1.985a2.845,2.845,0,0,0-.071-.742.362.362,0,0,0-.191-.217.519.519,0,0,0-.343-.032.878.878,0,0,0-.414.2.86.86,0,0,0-.262.42,2.306,2.306,0,0,0-.069.736l.043,1.879-.943.183-.119-5.2.943-.183.044,1.911a1.684,1.684,0,0,1,1.077-.775,1.2,1.2,0,0,1,.59.016.808.808,0,0,1,.4.251,1.017,1.017,0,0,1,.188.406,4.069,4.069,0,0,1,.063.735l.051,2.205Zm4.827-1.415a2.1,2.1,0,0,1-1.3.82,1.867,1.867,0,0,1-.94-.056,1.217,1.217,0,0,1-.688-.555,2.138,2.138,0,0,1-.257-1.05,2.364,2.364,0,0,1,.21-1.009,2.087,2.087,0,0,1,.64-.838,2.159,2.159,0,0,1,.937-.429,1.526,1.526,0,0,1,1.343.3,1.7,1.7,0,0,1,.55,1.3A2.338,2.338,0,0,1,2083.845,229.191Zm3.854-.56a2.079,2.079,0,0,1-1.205.612,1.766,1.766,0,0,1-1.159-.087,1.139,1.139,0,0,1-.576-.741l.94-.339a.609.609,0,0,0,.257.393.7.7,0,0,0,.522.055,1.013,1.013,0,0,0,.545-.254.375.375,0,0,0,.118-.285l-.066-.176a.664.664,0,0,0-.32-.069,4.28,4.28,0,0,1-1.457-.21.792.792,0,0,1-.444-.758,1.287,1.287,0,0,1,.344-.9,1.984,1.984,0,0,1,1.129-.556,1.748,1.748,0,0,1,1.1.041,1.044,1.044,0,0,1,.5.649l-.885.345a.46.46,0,0,0-.224-.293.728.728,0,0,0-.458-.026,1.128,1.128,0,0,0-.531.21.306.306,0,0,0-.1.225l.1.162a2.866,2.866,0,0,0,.888.106,2.116,2.116,0,0,1,1.061.245.776.776,0,0,1,.318.677A1.382,1.382,0,0,1,2087.7,228.631Zm4.24-.972a1.638,1.638,0,0,1-1.047.729,1.106,1.106,0,0,1-.536-.019,1.469,1.469,0,0,1-.512-.327l.043,1.895-.943.184-.119-5.2.882-.172.012.548a1.626,1.626,0,0,1,.446-.547,1.442,1.442,0,0,1,.645-.3,1.146,1.146,0,0,1,1.071.308,1.875,1.875,0,0,1,.465,1.346A2.544,2.544,0,0,1,2091.939,227.659Zm-1.066-24.19a9.21,9.21,0,0,1-2.683,1.827,30.938,30.938,0,0,1-5.417,1.447l-3.408.662.236,10.327-5.225,1.016-.627-27.378,8.387-1.63a28.866,28.866,0,0,1,6.231-.793,5.435,5.435,0,0,1,3.787,1.956,7.667,7.667,0,0,1,1.622,5.035,10.281,10.281,0,0,1-.769,4.409A9.382,9.382,0,0,1,2090.873,203.469Zm4.562,23.946-.046-1.986a3.289,3.289,0,0,0-.071-.741.409.409,0,0,0-.2-.216.516.516,0,0,0-.342-.031.884.884,0,0,0-.415.2.86.86,0,0,0-.262.421,2.509,2.509,0,0,0-.068.735l.042,1.879-.942.183-.119-5.2.943-.183L2094,224.4a1.682,1.682,0,0,1,1.077-.776,1.193,1.193,0,0,1,.591.017.793.793,0,0,1,.4.25,1.022,1.022,0,0,1,.188.407,3.287,3.287,0,0,1,.071.732l.051,2.206Zm4.058-.789a2.463,2.463,0,0,1-.092-.278l-.041-.107a2.235,2.235,0,0,1-.51.477,1.639,1.639,0,0,1-.584.237,1.043,1.043,0,0,1-.873-.151.9.9,0,0,1-.335-.731,1.209,1.209,0,0,1,.134-.6,1.274,1.274,0,0,1,.393-.462,3.658,3.658,0,0,1,.744-.375,6.2,6.2,0,0,0,.914-.424l0-.1a.453.453,0,0,0-.148-.389.7.7,0,0,0-.506-.025.789.789,0,0,0-.391.183,1,1,0,0,0-.224.412l-.854,0a1.806,1.806,0,0,1,.476-.9,2.08,2.08,0,0,1,1.038-.464,2.194,2.194,0,0,1,.946-.028.748.748,0,0,1,.442.324,1.942,1.942,0,0,1,.144.867l.019,1.161a4.108,4.108,0,0,0,.064.727,1.8,1.8,0,0,0,.181.465Zm2.63-.421a1.158,1.158,0,0,1-.466,0,.621.621,0,0,1-.307-.178.813.813,0,0,1-.14-.359,5.9,5.9,0,0,1-.047-.7l-.038-1.642-.432.084-.019-.793.433-.084-.017-.751.938-.765.03,1.331.642-.124.018.792-.642.125.035,1.519a3.668,3.668,0,0,0,.027.528l.089.115.163.017a1.365,1.365,0,0,0,.376-.171l.095.761A2.047,2.047,0,0,1,2102.123,226.205Zm2.219-1.424a.591.591,0,0,0,.546.14.647.647,0,0,0,.368-.2.992.992,0,0,0,.223-.454l.939-.018a2.027,2.027,0,0,1-.553.944,1.951,1.951,0,0,1-.967.476,1.326,1.326,0,0,1-1.391-.378,1.931,1.931,0,0,1-.385-1.222,2.476,2.476,0,0,1,.43-1.561,1.835,1.835,0,0,1,1.155-.758,1.351,1.351,0,0,1,1.273.311,2.294,2.294,0,0,1,.479,1.613l-2.365.46A.9.9,0,0,0,2104.342,224.781Z"/>
        <path id="Path_41" data-name="Path 41" d="M2104.786,222.495a.768.768,0,0,0-.5.344,1.059,1.059,0,0,0-.186.685l1.414-.275a.83.83,0,0,0-.231-.62A.547.547,0,0,0,2104.786,222.495Z"/>
      </g>
    </g>
  </g>
</svg>
