<svg xmlns="http://www.w3.org/2000/svg" width="87.281" height="85" viewBox="0 0 87.281 85">
  <g id="Group_37" data-name="Group 37" transform="translate(-426.012 -157.846)">
    <path id="Path_97" data-name="Path 97" d="M507.187,214.5a11.575,11.575,0,0,0-11.881.552,5.087,5.087,0,0,1-5.074.248l-7.218-3.609-1.824-.912a3.107,3.107,0,0,1-1.733-2.761,11.1,11.1,0,0,0-5.88-9.761,3.092,3.092,0,0,1-1.614-2.767l.029-3.5.065-8.07a5.083,5.083,0,0,1,2.527-4.407,11.585,11.585,0,1,0-12.461-.7,7.931,7.931,0,0,1,3.365,6.479l-.052,6.64-.026,3.29a3.127,3.127,0,0,1-1.78,2.8,11.093,11.093,0,0,0-6.327,9.747,3.2,3.2,0,0,1-1.38,2.6l-1.5,1.014-6.7,4.532a5.189,5.189,0,0,1-5.147.358,11.586,11.586,0,1,0,6.593,10.679,7.893,7.893,0,0,1,3.428-6.419l5.5-3.722-.011-.014.011.014a3.119,3.119,0,0,1,3.619.072,11.083,11.083,0,0,0,13.314,0,3.087,3.087,0,0,1,3.227-.25l1.822.911,5.821,2.911a7.872,7.872,0,0,1,4.339,5.862A11.582,11.582,0,1,0,507.187,214.5Z"/>
    <path id="Path_98" data-name="Path 98" d="M477.268,195.508a4.281,4.281,0,1,0,4.28-4.281A4.28,4.28,0,0,0,477.268,195.508Z"/>
    <path id="Path_99" data-name="Path 99" d="M489.913,198.076a1.712,1.712,0,1,0,1.712-1.713A1.713,1.713,0,0,0,489.913,198.076Z"/>
    <path id="Path_100" data-name="Path 100" d="M474.5,221.315a4.5,4.5,0,1,0,4.5,4.5A4.5,4.5,0,0,0,474.5,221.315Z"/>
    <path id="Path_101" data-name="Path 101" d="M463.727,230.467a1.71,1.71,0,1,0,1.709,1.71A1.709,1.709,0,0,0,463.727,230.467Z"/>
    <path id="Path_102" data-name="Path 102" d="M448.393,198.789A4.708,4.708,0,1,0,453.1,203.5,4.709,4.709,0,0,0,448.393,198.789Z"/>
    <path id="Path_103" data-name="Path 103" d="M454.426,195.508a1.285,1.285,0,1,0-1.284-1.284A1.284,1.284,0,0,0,454.426,195.508Z"/>
    <path id="Path_104" data-name="Path 104" d="M451.967,182.8a1.135,1.135,0,1,0-1.135-1.135A1.135,1.135,0,0,0,451.967,182.8Z"/>
    <circle id="Ellipse_3" data-name="Ellipse 3" cx="7.147" cy="7.147" r="7.147" transform="translate(435.086 181.799) rotate(-13.283)"/>
    <path id="Path_105" data-name="Path 105" d="M483.771,187.113a.909.909,0,1,0-.909-.909A.91.91,0,0,0,483.771,187.113Z"/>
    <path id="Path_106" data-name="Path 106" d="M502.1,206.347a5,5,0,1,0-5-5A5,5,0,0,0,502.1,206.347Z"/>
    <path id="Path_107" data-name="Path 107" d="M481.548,235.562a1.378,1.378,0,1,0,1.377,1.377A1.377,1.377,0,0,0,481.548,235.562Z"/>
    <path id="Path_108" data-name="Path 108" d="M460.751,221.946a.909.909,0,1,0-.909.909A.909.909,0,0,0,460.751,221.946Z"/>
    <path id="Path_109" data-name="Path 109" d="M491.625,183.63a3.664,3.664,0,1,0-3.664-3.664A3.664,3.664,0,0,0,491.625,183.63Z"/>
    <path id="Path_110" data-name="Path 110" d="M457.722,233.789a4.528,4.528,0,1,0,4.529,4.529A4.53,4.53,0,0,0,457.722,233.789Z"/>
  </g>
</svg>
