<svg id="Layer_1" data-name="Layer 1" xmlns="http://www.w3.org/2000/svg" viewBox="0 0 617.14 80.5"><defs><style>.cls-1{fill:#363994;}.cls-2{fill:#333c90;}.cls-3{fill:#0e85c0;}</style></defs><path class="cls-1" d="M362.5,85.14l.79-9.28c4.42,0,8.52,0,12.94,0,2.14,0,3.15-.45,3.6-2.82,1.41-7.49,3.17-14.91,4.83-22.52h12.13c-1.77,8.36-3.51,16.55-5.24,24.68.49.29.72.54.95.54,7-.11,13.93-.15,20.89-.39,3.51-.12,5.64-2.2,6.42-5.58,1.29-5.61,2.62-11.21,3.74-16.85.36-1.84,1-2.64,2.93-2.55,3.06.15,6.13,0,9.75,0-2,8.61-3.86,16.84-5.83,25.42h13.75c3.62,0,7.25-.11,10.86.05,2,.09,2.88-.61,3.29-2.58,1.42-6.86,3-13.68,4.47-20.55.35-1.67,1-2.45,2.83-2.37,3,.13,6.12,0,9.32,0,.11,1-.57,2.12-.45,3.21,3.51-.81,6.93-1.83,10.52-2.38a88,88,0,0,1,12.14-.87c10.41-.14,20.8,0,31.21,0,.44,0,.88.07,1.67.14-1.75,8.32-3.48,16.51-5.26,25a22,22,0,0,0,2.43.31c7.34,0,14.68-.06,22,.07,2.09,0,2.87-.84,3.25-2.67,1.43-7,2.88-13.9,4.44-20.82.17-.74,1.07-1.83,1.68-1.86,3.42-.18,6.85-.09,10.67-.09-1.8,8.47-3.54,16.65-5.24,24.67.48.35.63.55.77.55,7-.08,14.11,0,21.15-.35,3.86-.19,5.6-2,6.46-5.78,2.66-11.65,5.33-23.3,7.85-35,.47-2.18,1.31-3.09,3.58-2.89s4.52.13,6.79.1c1.69,0,2.24.62,1.85,2.33-2.76,12.18-5.37,24.39-8.21,36.56-2,8.59-8.94,14.09-18.11,14.2-14.4.18-28.81.11-43.21.12-23.92,0-47.84.06-71.76-.07-2.79,0-3.76,1-4.28,3.46-.87,4.12-1,5.75-5.17,5.76-2.44,0-4.87,0-7.67,0,.49-2.41.91-6.19,1.43-8.77H425.34c.12-1.62.21-2.81.32-4.22a8.21,8.21,0,0,0-1.46.51A25.44,25.44,0,0,1,410.7,85Q391,85,371.3,85c-2.62,0-6.18.08-8.8.11M515.81,60.76c-1.25-.08-2-.18-2.84-.18-8.24,0-16.48,0-24.72,0a25.54,25.54,0,0,0-5.38.58c-6.32,1.4-12.57,8.63-12.49,14.29.15.1.3.27.45.27q20.1.07,40.2.07c.58,0,1.56-.53,1.67-1C513.8,70.25,514.76,65.62,515.81,60.76Z" transform="translate(-19.26 -31.68)"/><path class="cls-1" d="M227.09,93.31c3.07-14.18,6.14-28.35,9.24-42.68h12.14c-.63,3-1.2,5.92-1.82,8.79-3.57,16.51-7.18,33-10.68,49.54-.47,2.25-1.17,3.42-3.8,3.19a71,71,0,0,0-9.23,0,2.86,2.86,0,0,1-3.34-2.23c-4-11.19-8.12-22.32-12.22-33.46-1.17-3.17-2.41-6.31-3.61-9.47l-.72,0c-.32,1.14-.69,2.26-1,3.4-2.87,13.08-5.78,26.14-8.51,39.24-.43,2.07-1.26,2.63-3.23,2.54-3-.15-5.94,0-9.4,0,.91-4.4,1.71-8.49,2.6-12.57,3.37-15.62,6.81-31.23,10.12-46.87.36-1.7,1-2.25,2.65-2.22,4.07.08,8.15.09,12.22,0a2.53,2.53,0,0,1,2.88,2.05c4.48,12.72,9.06,25.41,13.64,38.1a29.13,29.13,0,0,0,1.31,2.77Z" transform="translate(-19.26 -31.68)"/><path class="cls-1" d="M184.19,50.8a79.77,79.77,0,0,1-1.8,8.44c-.23.75-1.86,1.5-2.86,1.51-9.69.12-19.38,0-29.06.13a20.71,20.71,0,0,0-5.86.84c-3.84,1.17-5.89,4.09-6.52,7.89-.68,4.15,1.31,6.71,5.54,6.88,5.78.22,11.58.08,17.37.18,2.62,0,5.25.16,7.86.43,6.79.71,10.19,4.3,9.93,11-.27,7.18-2,13.93-8,18.77-4.64,3.78-10.29,4.85-16,5-9.68.24-19.37,0-29.06.09-1.79,0-2.55-.5-2.78-2.36-.31-2.47-1-4.88-1.68-7.76h3.4c9.42,0,18.84,0,28.25,0a31.42,31.42,0,0,0,5.39-.5A8.73,8.73,0,0,0,165.47,91c-.46-2.63-2.94-4.3-6.94-4.36-6-.1-12,.09-17.93-.11a34.41,34.41,0,0,1-8.24-1.33,9.38,9.38,0,0,1-7.2-9.36c-.15-8.92,2-17.12,10.4-21.67a31.14,31.14,0,0,1,13.2-3.37c11.39-.46,22.81-.15,34.22-.14A9.39,9.39,0,0,1,184.19,50.8Z" transform="translate(-19.26 -31.68)"/><path class="cls-1" d="M48.1,112.1c3.21-5.08,6-9.55,8.85-14C66.58,83,76.25,67.9,85.81,52.75a4.16,4.16,0,0,1,4.35-2.32,43,43,0,0,0,7.86,0c2.81-.32,3.64.9,4.16,3.42,3.73,18.12,7.6,36.2,11.42,54.3.25,1.19.42,2.39.67,3.8H101.4c-.74-4-1.54-8.1-2.25-12.21s-.66-4-4.68-4c-6.42,0-12.85.14-19.27,0a4.39,4.39,0,0,0-4.47,2.62c-2.26,4.1-4.68,8.1-7.16,12.08A3.36,3.36,0,0,1,61.39,112C57.24,112.18,53.08,112.1,48.1,112.1ZM92.88,63.55l-1-.15L78.29,86.16H96.72C95.41,78.46,94.14,71,92.88,63.55Z" transform="translate(-19.26 -31.68)"/><path class="cls-1" d="M265.91,75.81h28.38c-.62,9.42-.62,9.42-9.57,9.42H263c-.09,2.93-.55,5.7-.18,8.36.73,5.32,4.82,8.12,11.63,8.24,6.25.12,12.5,0,18.74,0h3.33l-2.22,9.88c-9.49,0-18.8.25-28.08-.11A18.37,18.37,0,0,1,254.85,107a15.48,15.48,0,0,1-5.57-10.48c-1.09-12.95,1.94-24.87,10.18-35.12C265,54.5,272.62,51.19,281.21,50.7s17.17-.1,26.24-.1c-.65,3.06-1.17,6-2,8.9-.15.54-1.5,1-2.31,1-6.43.08-12.85,0-19.28,0C274.78,60.62,268,66.23,265.91,75.81Z" transform="translate(-19.26 -31.68)"/><path class="cls-1" d="M74.36,50.56c-.52,2.76-1.18,5.3-1.41,7.87-.17,1.86-1,2.18-2.59,2.16-5.87-.07-11.74,0-17.89,0-1.37,6.19-2.72,12.21-4,18.23Q45,94.3,41.69,109.84c-.33,1.55-1,2.26-2.72,2.18-3.15-.16-6.31,0-9.88,0L40.29,60.7h-21c.5-2.68,1.1-5,1.3-7.25s1.25-3,3.61-3c16.29.09,32.58,0,48.87,0C73.4,50.46,73.75,50.51,74.36,50.56Z" transform="translate(-19.26 -31.68)"/><path class="cls-2" d="M612.75,85.29C614.34,78,615.86,71,617.38,64c2.11-9.73,4.24-19.45,6.32-29.19.44-2,1.06-3.36,3.66-3.08a89.7,89.7,0,0,0,9,.07c-1.32,6.18-2.53,12-3.81,17.86-2.45,11.13-5,22.24-7.34,33.38-.38,1.79-.94,2.4-2.8,2.3C619.32,85.16,616.17,85.29,612.75,85.29Z" transform="translate(-19.26 -31.68)"/><path class="cls-2" d="M573.63,32.69c-.75,3.24-1.35,6.12-2.12,9a2,2,0,0,1-1.5,1.07c-3.42.1-6.84.05-10.67.05.74-3.27,1.34-6.22,2.12-9.13.12-.43,1.08-.89,1.66-.91C566.45,32.65,569.79,32.69,573.63,32.69Z" transform="translate(-19.26 -31.68)"/><path class="cls-2" d="M558.28,32.69c-.74,3.24-1.35,6.12-2.12,9a2,2,0,0,1-1.5,1.07c-3.42.1-6.84.05-10.67.05.74-3.27,1.34-6.22,2.12-9.13.12-.43,1.08-.89,1.66-.91C551.11,32.65,554.44,32.69,558.28,32.69Z" transform="translate(-19.26 -31.68)"/><path class="cls-2" d="M439.23,32.69c-.74,3.24-1.35,6.12-2.12,9a2,2,0,0,1-1.5,1.07c-3.42.1-6.84.05-10.67.05.74-3.27,1.34-6.22,2.12-9.13.12-.43,1.08-.89,1.66-.91C432.06,32.65,435.39,32.69,439.23,32.69Z" transform="translate(-19.26 -31.68)"/><path class="cls-1" d="M388.43,92.7c-.75,3.24-1.35,6.12-2.12,9a2,2,0,0,1-1.51,1.07c-3.41.1-6.83,0-10.66,0,.74-3.27,1.34-6.22,2.12-9.13.12-.43,1.08-.89,1.66-.91C381.25,92.66,384.59,92.7,388.43,92.7Z" transform="translate(-19.26 -31.68)"/><path class="cls-1" d="M373.25,92.7c-.74,3.24-1.34,6.12-2.11,9a2,2,0,0,1-1.51,1.07c-3.41.1-6.83,0-10.66,0,.73-3.27,1.33-6.22,2.12-9.13.11-.43,1.08-.89,1.66-.91C366.08,92.66,369.42,92.7,373.25,92.7Z" transform="translate(-19.26 -31.68)"/><path class="cls-3" d="M357.23,85.23H321.44c-.09,2.93-.55,5.7-.19,8.36.74,5.32,4.82,8.12,11.64,8.24,6.24.12,12.49,0,18.74,0H355c-.8,3.56-1.53,6.76-2.23,9.88-9.48,0-18.79.25-28.08-.11A18.34,18.34,0,0,1,313.33,107a15.45,15.45,0,0,1-5.58-10.48A51.38,51.38,0,0,1,310,75.81h48.08Z" transform="translate(-19.26 -31.68)"/><path class="cls-3" d="M371.37,50.6c-9.07,0-23.13-.38-31.69.1s-16.23,3.8-21.74,10.67a46.39,46.39,0,0,0-5.38,8.32h14.07a17.29,17.29,0,0,1,15.71-9.11c5.25,0,21,0,26.24,0Z" transform="translate(-19.26 -31.68)"/></svg>