<svg xmlns="http://www.w3.org/2000/svg" width="85.049" height="85" viewBox="0 0 85.049 85">
  <g id="Group_10" data-name="Group 10" transform="translate(-3092.014 -157.846)">
    <g id="B5yfwL">
      <g id="Group_9" data-name="Group 9">
        <path id="Path_11" data-name="Path 11" d="M3158.6,165.215c.539-.749,1.056-1.466,1.57-2.185a1.447,1.447,0,0,1,1.446-.795,1.5,1.5,0,0,1,1.142,1.109q2.223,5.79,4.456,11.576c.551,1.436-.038,2.224-1.587,2.144q-6.3-.325-12.609-.655a1.251,1.251,0,0,1-1.049-2c.528-.823,1.147-1.586,1.726-2.376-15.485-10.835-39.327-6.641-49.36,12.351a1.6,1.6,0,0,0,.378.1q4.828-.007,9.658-.027c1.329-.007,1.64.463,1.09,1.681a5.188,5.188,0,0,0,1.788,6.8,8.5,8.5,0,0,0,4.882,1.234c2.48.015,4.532-1.133,6.588-2.313,2-1.149,4.029-2.26,6.044-3.389.48-.27.786-.017,1.073.334q1.909,2.332,3.823,4.66,5.658,6.917,11.313,13.835c1.213,1.483,2.449,2.947,3.644,4.445a3.432,3.432,0,0,1,.117,4.171,3.329,3.329,0,0,1-4.126,1.064,10.882,10.882,0,0,1-1.417-.906,3.4,3.4,0,0,1-1.967,3.72c-1.567.72-2.942.219-4.24-1.022.128,1.818-.43,3.137-2,3.856s-2.9.171-4.2-1a3.536,3.536,0,0,1-2.129,3.874,3.1,3.1,0,0,1-3.139-.335c.281-.678.616-1.345.837-2.048a6.024,6.024,0,0,0-4.165-7.533,1.82,1.82,0,0,1-.888-.573,6.286,6.286,0,0,0-2.747-2.1,1.174,1.174,0,0,1-.572-.617,6.025,6.025,0,0,0-3.6-3.508,1.128,1.128,0,0,1-.576-.605,5.987,5.987,0,0,0-9.771-2.087c-.862.85-1.577,1.846-2.4,2.738a1.354,1.354,0,0,1-.86.435c-3.486.024-6.973.031-10.459-.005a3.879,3.879,0,0,1-3.926-3.548,40.679,40.679,0,0,1,.028-11.185,41.3,41.3,0,0,1,3.56-12.12,42.651,42.651,0,0,1,46.728-23.8A43.945,43.945,0,0,1,3158.6,165.215Z"/>
        <path id="Path_12" data-name="Path 12" d="M3108.586,233.982c-.613.759-1.206,1.478-1.782,2.21a1.393,1.393,0,0,1-1.452.62c-.614-.123-.858-.572-1.032-1.113-1.292-4.023-2.6-8.042-3.89-12.067a1.291,1.291,0,0,1,1.43-1.843c1.911.159,3.816.376,5.723.572q3.07.314,6.139.635c.349.037.7.074,1.044.132a1.282,1.282,0,0,1,.854,2.217c-.577.73-1.17,1.448-1.827,2.26,9.883,6.945,20.548,8.92,31.952,4.942,11.178-3.9,18.257-11.889,21.788-23.256-1.972,0-3.792.045-5.609-.015a4.229,4.229,0,0,0-3.4,1.155c-.434.444-.785.219-1.108-.174q-4.514-5.5-9.033-11-5.658-6.876-11.326-13.743a1.774,1.774,0,0,0-2.552-.394c-2.838,1.575-5.682,3.141-8.494,4.764a7.446,7.446,0,0,1-6.639.795,2.163,2.163,0,0,1-1.508-1.775,2.09,2.09,0,0,1,.954-2.05q5.359-4.069,10.715-8.144a11.327,11.327,0,0,1,6.683-2.39,15.188,15.188,0,0,1,5.894,1.376c5.381,2.089,10.755,4.2,16.175,6.187a12.95,12.95,0,0,0,3.989.621c2.827.09,5.659.027,8.489.028a4.075,4.075,0,0,1,4.389,3.237,42.489,42.489,0,0,1-43.922,54.934,42.5,42.5,0,0,1-21.513-7.858C3109.356,234.591,3109.012,234.308,3108.586,233.982Z"/>
        <path id="Path_13" data-name="Path 13" d="M3123.116,222.538c-2.607.89-4.635-.643-4.661-3.207a3.129,3.129,0,0,1-3.3-.307,3.011,3.011,0,0,1-1.232-3.155c-.458.13-.8.244-1.146.322a3.415,3.415,0,0,1-3.275-1.451,2.7,2.7,0,0,1,.037-3.219c.813-1.11,1.67-2.194,2.587-3.22a2.844,2.844,0,0,1,4.718,3.07c-.04.106-.066.217-.156.516,1.332-.488,2.573-.634,3.619.323a3.053,3.053,0,0,1,.707,3.531c2.479-.479,4.091.262,4.4,2.927.3-.066.58-.154.869-.189a2.846,2.846,0,0,1,3.249,3.237,4.114,4.114,0,0,1-1.813,3.023,3,3,0,0,1-4.356-1.492C3123.268,223.014,3123.2,222.773,3123.116,222.538Z"/>
      </g>
    </g>
  </g>
</svg>
