<svg xmlns="http://www.w3.org/2000/svg" viewBox="0 0 47.45 53.73"><defs><style>.cls-1{fill:#fff;}</style></defs><g id="Layer_2" data-name="Layer 2"><g id="Layer_1-2" data-name="Layer 1"><path d="M27.55,19.75H19.9v-8H11a2.15,2.15,0,0,1-2-1.31H3.83L0,2.48V0H47.45V2.48l-3.83,8H38.45a2.15,2.15,0,0,1-2,1.31H27.55Zm-6-1.69h4.29v-8h10.6a.48.48,0,0,0,.47-.47V8.75h5.62l3.21-6.66V1.68H1.68v.41L4.89,8.75h5.62v.84a.48.48,0,0,0,.47.47h10.6Z"/><path d="M36.82,53.73H1.68l2.87-33c.33-2.08,2.07-5.91,6.35-5.91h8.63l-2.94,1.59A15.08,15.08,0,1,0,33,41.56l1,1.33A16.76,16.76,0,0,1,13.37,16.48H10.9c-3.91,0-4.65,4.25-4.68,4.43L3.52,52h33.3Z"/><path d="M45.77,53.73h-9V52h7.12L41.22,20.85c0-.12-.76-4.37-4.66-4.37H34.08A16.76,16.76,0,0,1,34,42.89l-1-1.33a15.08,15.08,0,0,0-2.12-25.18l-2.94-1.59h8.64c4.27,0,6,3.83,6.33,5.85Z"/><path d="M23.73,14.51a.23.23,0,0,0-.24.23v1.57a.24.24,0,0,0,.47,0V14.74A.23.23,0,0,0,23.73,14.51Z"/><path d="M16.47,16.62a.24.24,0,0,0-.32-.08.23.23,0,0,0-.08.32l.78,1.35a.23.23,0,0,0,.31.09.23.23,0,0,0,.09-.32Z"/><path d="M10.92,22a.23.23,0,1,0-.23.4l1.36.78a.22.22,0,0,0,.31-.08.23.23,0,0,0-.08-.32Z"/><path d="M10.37,29.43H8.81a.23.23,0,1,0,0,.46h1.56a.23.23,0,1,0,0-.46Z"/><path d="M12.05,36.14l-1.36.78a.23.23,0,0,0-.09.31.23.23,0,0,0,.32.09l1.36-.78a.23.23,0,0,0,.08-.32A.22.22,0,0,0,12.05,36.14Z"/><path d="M16.85,41.11l-.78,1.35a.23.23,0,0,0,.08.32.24.24,0,0,0,.32-.08l.78-1.36a.23.23,0,0,0-.09-.32A.23.23,0,0,0,16.85,41.11Z"/><path d="M23.73,42.78a.23.23,0,0,0-.24.23v1.57a.24.24,0,0,0,.47,0V43A.23.23,0,0,0,23.73,42.78Z"/><path d="M30.6,41.11a.23.23,0,0,0-.31-.09.24.24,0,0,0-.09.32L31,42.7a.24.24,0,0,0,.41-.24Z"/><path d="M35.4,36.14a.22.22,0,0,0-.31.08.23.23,0,0,0,.08.32l1.36.78a.23.23,0,0,0,.32-.09.23.23,0,0,0-.09-.31Z"/><path d="M38.64,29.43H37.08a.23.23,0,1,0,0,.46h1.56a.23.23,0,1,0,0-.46Z"/><path d="M35.4,23.18l1.36-.78a.23.23,0,1,0-.23-.4l-1.36.78a.23.23,0,0,0-.08.32A.22.22,0,0,0,35.4,23.18Z"/><path d="M31,16.62,30.2,18a.24.24,0,0,0,.09.32.23.23,0,0,0,.31-.09l.79-1.35a.24.24,0,0,0-.41-.24Z"/><path class="cls-1" d="M24.52,29.66a.79.79,0,0,1-.65.78l.53.18v.32a1.45,1.45,0,0,0-.16-2.63l.05.78A.84.84,0,0,1,24.52,29.66Z"/><path class="cls-1" d="M23.58,30.44a.79.79,0,0,1-.65-.78.84.84,0,0,1,.23-.57l.05-.78a1.45,1.45,0,0,0-.16,2.63v-.32Z"/><path class="cls-1" d="M23.21,28.31l-.05.78a.81.81,0,0,1,1.13,0l-.05-.78a1.44,1.44,0,0,0-.51-.09A1.46,1.46,0,0,0,23.21,28.31Z"/><path class="cls-1" d="M23.87,30.44l-.14,0-.15,0-.53.18v.32a1.5,1.5,0,0,0,1.35,0v-.32Z"/><path d="M24.24,28.31,24,23l-.22-4.11-.2,3.49-.32,5.91a1.46,1.46,0,0,1,.52-.09A1.44,1.44,0,0,1,24.24,28.31Z"/><path d="M24.4,31.72v-.78a1.5,1.5,0,0,1-1.35,0v.78H22.5v.71l.66.49h1.13l.67-.49v-.71Z"/><path d="M23.58,30.44h0l.15,0,.14,0h0a.79.79,0,0,0,.65-.78.8.8,0,1,0-1.59,0A.79.79,0,0,0,23.58,30.44Z"/></g></g></svg>