<svg xmlns="http://www.w3.org/2000/svg" viewBox="0 0 75.6 45.99"><defs><style>.cls-1{fill:none;stroke:#000;stroke-linecap:round;stroke-linejoin:round;stroke-width:2px;}</style></defs><g id="Layer_2" data-name="Layer 2"><g id="Layer_1-2" data-name="Layer 1"><path class="cls-1" d="M1,26S5,43.5,7.15,44.45s18.81.32,19.77.43,3.19-3.72,4.25-5.64c2.49-4.48,3.5-6.3,6-7.47,3.24-1.52,21.11-4.87,26.75-3.24,6.33,1.89,10.24,1.14,10.65-2.35.28-2.28-.94-3.38-3.22-3.78-5.82-1-22.62.43-35.51,2.78C24.47,25.87,14,25.66,1,26Z"/><path class="cls-1" d="M36.72,25s-.33-6.27-2.74-7.16c-1.72-.64-4.33-1.09-5.35-2.81a14.49,14.49,0,0,1-1.14-3c-1-3-3.51-5.4-5.47-7.79C20.48,2.39,18.11.07,15.47,1.39,13.08,2.59,12,5.94,10.63,8.07c-2.4,3.8-4.55,2.63-4.42,8.08,0,1.27-.24,3.35-1.65,4-3,1.45-2.68,2.92-2.27,5.81"/><circle cx="17.16" cy="7.6" r="0.85"/><circle cx="11.05" cy="14.88" r="0.85"/><circle cx="10.6" cy="21.23" r="0.85"/><circle cx="19.52" cy="21.44" r="0.85"/><circle cx="23.27" cy="14.03" r="0.85"/><circle cx="27.36" cy="20.59" r="0.85"/><circle cx="17.16" cy="14.29" r="0.85"/></g></g></svg>