<svg xmlns="http://www.w3.org/2000/svg" viewBox="0 0 128.01 71.99"><defs><style>.cls-1{fill:none;stroke:#000;stroke-miterlimit:10;stroke-width:2px;}</style></defs><g id="Layer_2" data-name="Layer 2"><g id="Layer_1-2" data-name="Layer 1"><rect x="82.09" y="19.83" width="2.88" height="4.33"/><path d="M81.17,17.09V20.2a.44.44,0,0,0,.44.44h3.84a.44.44,0,0,0,.43-.44V17.09Z"/><path d="M83.6,0a9.1,9.1,0,1,0,9.09,9.09A9.09,9.09,0,0,0,83.6,0Zm0,17.09a8,8,0,1,1,8-8A8,8,0,0,1,83.6,17.09Z"/><circle cx="83.6" cy="9.09" r="0.7"/><rect x="83.53" y="1.83" width="0.15" height="0.9"/><rect x="82.02" y="1.99" width="0.15" height="0.9" transform="translate(1.49 18.19) rotate(-12.76)"/><rect x="79.58" y="3.08" width="0.15" height="0.9" transform="matrix(0.82, -0.58, 0.58, 0.82, 12.64, 46.73)"/><rect x="77.75" y="5.02" width="0.15" height="0.9" transform="translate(31.86 68.51) rotate(-57.92)"/><rect x="76.83" y="7.36" width="0.15" height="0.9" transform="translate(54.79 81.88) rotate(-79.18)"/><rect x="78.71" y="3.82" width="0.15" height="0.9" transform="translate(20.05 56.96) rotate(-45)"/><path d="M77.76,9.09H76.37a7.33,7.33,0,0,0,.17,1.57l.84-.2,0,.15-.85.19a7.31,7.31,0,0,0,.35,1.06l.79-.34.06.14L77,12a7,7,0,0,0,.62,1.14l.71-.49.09.12-.71.49a6.39,6.39,0,0,0,.75.9l.61-.61.1.11-.61.61a7.09,7.09,0,0,0,1.75,1.26l.63-1.23A5.84,5.84,0,0,1,77.76,9.09Z"/><rect x="77.16" y="6.22" width="0.15" height="0.9" transform="translate(43.56 76.5) rotate(-69.2)"/><rect x="80.61" y="2.48" width="0.15" height="0.9" transform="translate(6.5 34.8) rotate(-25.33)"/><rect x="84.66" y="2.37" width="0.9" height="0.15" transform="translate(63.93 84.91) rotate(-77.25)"/><rect x="87.09" y="3.46" width="0.9" height="0.15" transform="translate(34.02 72.9) rotate(-54.66)"/><rect x="88.93" y="5.4" width="0.9" height="0.15" transform="translate(10.75 48.32) rotate(-32.09)"/><rect x="89.85" y="7.74" width="0.9" height="0.15" transform="translate(0.14 17.09) rotate(-10.82)"/><rect x="90.17" y="10.19" width="0.15" height="0.9" transform="matrix(0.23, -0.97, 0.97, 0.23, 59.44, 96.12)"/><rect x="89.14" y="12.51" width="0.15" height="0.9" transform="translate(27.96 79.1) rotate(-55.46)"/><rect x="87.97" y="4.2" width="0.9" height="0.15" transform="translate(22.88 63.78) rotate(-45)"/><rect x="89.97" y="9.02" width="0.9" height="0.15"/><rect x="88.35" y="13.46" width="0.15" height="0.9" transform="translate(16.06 66.6) rotate(-45)"/><rect x="89.8" y="11.31" width="0.15" height="0.9" transform="translate(43.84 89.84) rotate(-66.93)"/><rect x="89.52" y="6.6" width="0.9" height="0.15" transform="translate(3.49 32.39) rotate(-20.8)"/><rect x="86.07" y="2.86" width="0.9" height="0.15" transform="translate(46.86 79.88) rotate(-64.67)"/><polygon points="83.94 10.81 83.26 10.81 83.6 3.6 83.94 10.81"/><circle class="cls-1" cx="38.23" cy="63.41" r="7.58"/><circle class="cls-1" cx="90.9" cy="63.41" r="7.58"/><path class="cls-1" d="M96.31,24.67H32.57A19.41,19.41,0,0,0,13.16,44.08h0A19.42,19.42,0,0,0,27.8,62.9a10.39,10.39,0,0,1,20.77.59H80.31a10.39,10.39,0,0,1,20.77-.59,19.43,19.43,0,0,0,14.64-18.82h0A19.41,19.41,0,0,0,96.31,24.67Z"/><polyline class="cls-1" points="128.01 40.53 115.72 40.53 115.72 45.06 128.01 45.06"/><polyline class="cls-1" points="0 40.53 12.3 40.53 12.3 45.06 0 45.06"/></g></g></svg>