<svg xmlns="http://www.w3.org/2000/svg" viewBox="0 0 70.14 54.26"><defs><style>.cls-1,.cls-3{fill:none;stroke:#231f20;stroke-miterlimit:10;}.cls-1{stroke-width:2px;}.cls-2{fill:#231f20;}.cls-3{stroke-width:1.4px;}</style></defs><g id="Layer_2" data-name="Layer 2"><g id="Layer_1-2" data-name="Layer 1"><path class="cls-1" d="M3.11,47.53a12.76,12.76,0,0,0,17.68,3.62l14.28-9.43,14.28,9.43a12.76,12.76,0,0,0,14.07-21.3L48.17,19.78a2.63,2.63,0,0,0-1.47-.44,2.66,2.66,0,0,0-2.22,1.19L35.07,34.78,25.66,20.53A2.64,2.64,0,0,0,24,19.39a2.32,2.32,0,0,0-.53-.05,2.61,2.61,0,0,0-1.46.44L6.73,29.85A12.77,12.77,0,0,0,3.11,47.53Z"/><circle class="cls-2" cx="35.56" cy="23.7" r="2.42" transform="translate(-4.51 8.84) rotate(-13.33)"/><circle class="cls-2" cx="42.22" cy="14.74" r="2.42" transform="translate(-2.26 10.13) rotate(-13.33)"/><circle class="cls-2" cx="29.99" cy="16.33" r="2.42" transform="translate(-3.97 19.87) rotate(-34.52)"/><circle class="cls-2" cx="35.56" cy="9.9" r="2.42" transform="translate(-1.32 8.47) rotate(-13.33)"/><circle class="cls-2" cx="24.14" cy="3.43" r="2.42" transform="translate(-0.09 6.12) rotate(-14.42)"/><circle class="cls-2" cx="37.99" cy="2.42" r="2.42"/><path class="cls-3" d="M57.1,37.07l-6.57-4.3a2.08,2.08,0,0,1,2.28-3.48l6.57,4.3a2.08,2.08,0,1,1-2.28,3.48Z"/></g></g></svg>