<svg xmlns="http://www.w3.org/2000/svg" viewBox="0 0 58.63 69.79"><defs><style>.cls-1{fill:none;}.cls-1,.cls-2,.cls-3{stroke:#000;}.cls-1,.cls-2{stroke-linecap:round;stroke-linejoin:round;stroke-width:2px;}.cls-2{fill:#fff;}.cls-3{stroke-miterlimit:10;stroke-width:0.75px;}</style></defs><g id="Layer_2" data-name="Layer 2"><g id="Layer_1-2" data-name="Layer 1"><path class="cls-1" d="M29.31,62.26h0a31.93,31.93,0,0,0-10.59,1.67L5.36,68.79H53.27L39.91,63.93A32,32,0,0,0,29.31,62.26Z"/><circle cx="22.78" cy="51.37" r="1.09"/><circle cx="35.85" cy="51.37" r="1.09"/><circle cx="22.78" cy="57.9" r="1.09"/><circle cx="35.85" cy="57.9" r="1.09"/><circle cx="16.25" cy="54.63" r="1.09"/><circle cx="42.38" cy="54.63" r="1.09"/><circle cx="29.31" cy="54.63" r="1.09"/><path class="cls-1" d="M29.31,1h0a15.35,15.35,0,0,0-9.67,3.43L6.45,15.16H52.18L39,4.43A15.36,15.36,0,0,0,29.31,1Z"/><circle cx="34.76" cy="9.71" r="1.09"/><circle cx="23.87" cy="9.71" r="1.09"/><circle cx="29.31" cy="7.53" r="1.09"/><path class="cls-2" d="M55.45,19.51H3.18A2.18,2.18,0,0,1,1,17.34H1a2.18,2.18,0,0,1,2.18-2.18H55.45a2.18,2.18,0,0,1,2.18,2.18h0A2.18,2.18,0,0,1,55.45,19.51Z"/><path class="cls-1" d="M3.36,20.08c0,13.18,11.62,23.86,26,23.86s26-10.68,26-23.86Z"/><circle class="cls-3" cx="9.84" cy="24.01" r="0.54"/><circle class="cls-3" cx="6.39" cy="24.01" r="0.54"/><circle class="cls-3" cx="13.92" cy="24.01" r="0.54"/><circle class="cls-3" cx="18.7" cy="24.01" r="0.54"/><circle class="cls-3" cx="22.78" cy="24.01" r="0.54"/><circle class="cls-3" cx="27.05" cy="24.01" r="0.54"/><circle class="cls-3" cx="31.14" cy="24.01" r="0.54"/><circle class="cls-3" cx="35.91" cy="24.01" r="0.54"/><circle class="cls-3" cx="40" cy="24.01" r="0.54"/><circle class="cls-3" cx="44.04" cy="24.01" r="0.54"/><circle class="cls-3" cx="48.82" cy="24.01" r="0.54"/><circle class="cls-3" cx="52.9" cy="24.01" r="0.54"/><circle class="cls-3" cx="9.84" cy="24.01" r="0.54"/><circle class="cls-3" cx="6.39" cy="24.01" r="0.54"/><circle class="cls-3" cx="13.92" cy="24.01" r="0.54"/><circle class="cls-3" cx="18.7" cy="24.01" r="0.54"/><circle class="cls-3" cx="22.78" cy="24.01" r="0.54"/><circle class="cls-3" cx="27.05" cy="24.01" r="0.54"/><circle class="cls-3" cx="31.14" cy="24.01" r="0.54"/><circle class="cls-3" cx="35.91" cy="24.01" r="0.54"/><circle class="cls-3" cx="40" cy="24.01" r="0.54"/><circle class="cls-3" cx="44.04" cy="24.01" r="0.54"/><circle class="cls-3" cx="48.82" cy="24.01" r="0.54"/><circle class="cls-3" cx="52.9" cy="24.01" r="0.54"/><circle class="cls-3" cx="9.84" cy="28.9" r="0.54"/><circle class="cls-3" cx="6.39" cy="28.9" r="0.54"/><circle class="cls-3" cx="13.92" cy="28.9" r="0.54"/><circle class="cls-3" cx="18.7" cy="28.9" r="0.54"/><circle class="cls-3" cx="22.78" cy="28.9" r="0.54"/><circle class="cls-3" cx="27.05" cy="28.9" r="0.54"/><circle class="cls-3" cx="31.14" cy="28.9" r="0.54"/><circle class="cls-3" cx="35.91" cy="28.9" r="0.54"/><circle class="cls-3" cx="40" cy="28.9" r="0.54"/><circle class="cls-3" cx="44.04" cy="28.9" r="0.54"/><circle class="cls-3" cx="48.82" cy="28.9" r="0.54"/><circle class="cls-3" cx="52.9" cy="28.9" r="0.54"/><circle class="cls-3" cx="9.84" cy="34.13" r="0.54"/><circle class="cls-3" cx="13.92" cy="34.13" r="0.54"/><circle class="cls-3" cx="18.7" cy="34.13" r="0.54"/><circle class="cls-3" cx="22.78" cy="34.13" r="0.54"/><circle class="cls-3" cx="27.05" cy="34.13" r="0.54"/><circle class="cls-3" cx="31.14" cy="34.13" r="0.54"/><circle class="cls-3" cx="35.91" cy="34.13" r="0.54"/><circle class="cls-3" cx="40" cy="34.13" r="0.54"/><circle class="cls-3" cx="44.41" cy="34.13" r="0.54"/><circle class="cls-3" cx="48.82" cy="34.13" r="0.54"/><circle class="cls-3" cx="18.7" cy="39.36" r="0.54"/><circle class="cls-3" cx="22.96" cy="39.36" r="0.54"/><circle class="cls-3" cx="27.23" cy="39.36" r="0.54"/><circle class="cls-3" cx="31.68" cy="39.36" r="0.54"/><circle class="cls-3" cx="36.64" cy="39.36" r="0.54"/><circle class="cls-3" cx="40.85" cy="39.36" r="0.54"/></g></g></svg>