<svg xmlns="http://www.w3.org/2000/svg" viewBox="0 0 64.58 63.95"><defs><style>.cls-1,.cls-2{fill:none;stroke:#313131;stroke-miterlimit:10;}.cls-1{stroke-width:2px;}.cls-3{fill:#313131;}</style></defs><g id="Layer_2" data-name="Layer 2"><g id="Layer_1-2" data-name="Layer 1"><path class="cls-1" d="M32.29,24.55c-11.84,0-24.23-2.24-29.82-6.46L3.54,26.7c.07,4.39,13,8,28.75,8S60.88,31.11,61,26.74l0-.19,1.06-8.46C56.52,22.31,44.13,24.55,32.29,24.55Z"/><path class="cls-1" d="M54,55.93,36.08,46.78a8,8,0,0,0-7.3,0L10.9,55.93c0,.08,3,7,21.84,7S53.93,56,54,55.93Z"/><path class="cls-2" d="M26.72,57.51a1.75,1.75,0,1,1,1.75-1.75A1.75,1.75,0,0,1,26.72,57.51Z"/><path class="cls-2" d="M30.14,53.36a1.75,1.75,0,1,1,1.74-1.75A1.75,1.75,0,0,1,30.14,53.36Z"/><path class="cls-2" d="M35,57.17a1.75,1.75,0,1,1,1.75-1.74A1.74,1.74,0,0,1,35,57.17Z"/><path class="cls-2" d="M35.81,52.49a1.34,1.34,0,1,1,1.34-1.34A1.35,1.35,0,0,1,35.81,52.49Z"/><path class="cls-3" d="M23.68,45.7a1,1,0,1,0-1-1A1,1,0,0,0,23.68,45.7Z"/><circle class="cls-3" cx="28.7" cy="42.16" r="1.04"/><path class="cls-3" d="M39.52,45a.94.94,0,1,0-.94-.94A.95.95,0,0,0,39.52,45Z"/><path class="cls-3" d="M33.49,40.56a1.14,1.14,0,1,0,1.14-1.13A1.14,1.14,0,0,0,33.49,40.56Z"/><path class="cls-3" d="M27.42,9.94c-.71,0-1.29.41-1.29.91s.58.92,1.29.92,1.29-.41,1.29-.92S28.14,9.94,27.42,9.94Z"/><path class="cls-3" d="M36.58,12c1.05,0,1.86-.58,1.86-1.32s-.81-1.33-1.86-1.33-1.86.58-1.86,1.33S35.54,12,36.58,12Z"/><path class="cls-3" d="M33.33,14.54c0-.64-.74-1.16-1.64-1.16s-1.63.52-1.63,1.16a1.12,1.12,0,0,0,.71,1l1.52,0h.28A1.12,1.12,0,0,0,33.33,14.54Z"/><path class="cls-3" d="M41.59,13.1c-.91,0-1.63.51-1.63,1.17a1.06,1.06,0,0,0,.49.83c.93-.11,1.8-.23,2.63-.36a.8.8,0,0,0,.15-.47C43.23,13.61,42.51,13.1,41.59,13.1Z"/><path class="cls-3" d="M23.9,14.27c0-.66-.72-1.17-1.64-1.17s-1.63.51-1.63,1.17a.81.81,0,0,0,.08.34c.87.15,1.8.29,2.78.41A1,1,0,0,0,23.9,14.27Z"/><path class="cls-1" d="M49.88,2.75h0l-.38-.08-1.61-.32c-.41-.07-2.05-.35-2.44-.4l-.88-.13A91.73,91.73,0,0,0,32.29,1h-.38C1.87,1,1,9.93,1,10.94c0,5.49,14,10,31.29,10s31.29-4.46,31.29-10C63.58,7.67,58.46,4.61,49.88,2.75Z"/><path class="cls-1" d="M32.29,16.92c-12.35,0-22.4-2.82-22.4-6.28s9.29-6.11,21.16-6.28h1.36c12.29,0,22.28,2.84,22.28,6.29S44.64,16.92,32.29,16.92Z"/></g></g></svg>