<svg xmlns="http://www.w3.org/2000/svg" viewBox="0 0 130.82 47.33"><defs><style>.cls-1,.cls-2{fill:none;stroke:#000;stroke-miterlimit:10;}.cls-2{stroke-width:2px;}</style></defs><g id="Layer_2" data-name="Layer 2"><g id="Layer_1-2" data-name="Layer 1"><path class="cls-1" d="M7.64,41.16V38.61H6.05v-.84h.52a1.82,1.82,0,1,1,2.76,0h.52v.84H8.26v2.55h5.35V35.59H44.74l1.51-9.11,1-5.71H45.31v-.62l7.86-.56h0l1.52-.1h.15l2.13,7h3.16V21.85h2.76V16.41l-3.75-1.7h-.53V13.54h4.28V7.29h.39V4.48h-1.5V4.11h1.5v-1h-1.5V2.71h1.5V2.13h-.46V1h-.49V.5H64.6V1h-.49V2.13h-.47v.58h1.5v.36h-1.5v1h1.5v.37h-1.5V7.29H64v2.79h1.44l.88,3.46h1.47V11h-.46v-.41h-1v-.25h3.37v.25h-1V11h-.46v2.51h1.42V12h-.75v-.26h1.86V12H70v1.59h.56v1.17H70l-2.93,1.7h0l1.39,5.44h.62v-1.7H84V21l-.48,1L83,23h0l-.83,1.68,5.27,6.48h3.31V30.09h-.73l-1.42-3.33h4.68l.81,1.13h6.7v.72H94.64l1.07,1.48h-.62v1.05h1l5.58,4.45h7.54l2.48-3h17l-4.48,5.33h0l-7.08,8.41H2.64L1.29,41.16Z"/><path class="cls-2" d="M101.62,35.59h7.54l2.48-3h17l-4.48,5.33h0l-7.08,8.41H2.64L1.29,41.16H7.64V38.61H6.05v-.84h.52a1.82,1.82,0,1,1,2.76,0h.52v.84H8.26v2.55h5.35V35.59H44.74l1.51-9.11,1-5.71H45.31v-.62l7.86-.56h0l1.52-.1h.15l2.13,7h3.16V21.85h2.76"/></g></g></svg>