<svg xmlns="http://www.w3.org/2000/svg" viewBox="0 0 96.98 47.94"><defs><style>.cls-1,.cls-2{fill:none;stroke-miterlimit:10;stroke-width:2px;}.cls-1{stroke:#231f20;}.cls-2{stroke:#000;}</style></defs><g id="Layer_2" data-name="Layer 2"><g id="Layer_1-2" data-name="Layer 1"><path class="cls-1" d="M42.93,1.85a7.46,7.46,0,0,1,5.33-.6,14.43,14.43,0,0,1,7.8,5.39c4.37,5.77,28.24,27.75,38.09,30.64,7.83,2.29-11.28,7.86-23.29,5.45s-19,4.81-30.45,4.17S22.9,39.34,17,39.84C1.88,41.13-.66,38.63,1.84,37.2,13.9,30.3,15.3,28.56,24.77,19.47,32.22,12.32,37.91,4.36,42.93,1.85Z"/><path class="cls-2" d="M48.26,1.25a7.46,7.46,0,0,0-5.33.6c-5,2.51-10.71,10.47-18.16,17.62C15.3,28.56,13.9,30.3,1.84,37.2c-2.5,1.43,0,3.93,15.15,2.64,5.91-.5,12,6.42,23.42,7.06s18.44-6.58,30.45-4.17c.25.05.51.1.77.13"/><circle cx="19.42" cy="31.81" r="0.89"/><circle cx="29.79" cy="34.23" r="0.89"/><circle cx="18.21" cy="37" r="0.89"/><circle cx="28.58" cy="39.42" r="0.89"/><circle cx="13.62" cy="33.2" r="0.89"/><circle cx="34.37" cy="38.04" r="0.89"/><circle cx="24" cy="35.62" r="0.89"/><circle cx="26.1" cy="25.76" r="0.89"/><circle cx="36.47" cy="28.18" r="0.89"/><circle cx="24.89" cy="30.95" r="0.89"/><circle cx="35.26" cy="33.37" r="0.89"/><circle cx="20.3" cy="27.14" r="0.89"/><circle cx="41.06" cy="31.98" r="0.89"/><circle cx="30.68" cy="29.56" r="0.89"/><circle cx="47.99" cy="41.76" r="0.89"/><circle cx="42.2" cy="43.14" r="0.89"/><circle cx="44.3" cy="33.28" r="0.89"/><circle cx="52.57" cy="29.02" r="0.89"/><circle cx="43.09" cy="38.47" r="0.89"/><circle cx="53.46" cy="40.89" r="0.89"/><circle cx="48.49" cy="30.45" r="0.89"/><circle cx="48.88" cy="37.09" r="0.89"/><circle cx="35.59" cy="18.2" r="0.89"/><circle cx="45.96" cy="20.62" r="0.89"/><circle cx="34.37" cy="23.39" r="0.89"/><circle cx="44.75" cy="25.81" r="0.89"/><circle cx="29.79" cy="19.58" r="0.89"/><circle cx="50.54" cy="24.43" r="0.89"/><circle cx="40.17" cy="22.01" r="0.89"/><circle cx="38.83" cy="7.83" r="0.89"/><circle cx="49.2" cy="10.25" r="0.89"/><circle cx="37.62" cy="13.01" r="0.89"/><circle cx="47.99" cy="15.43" r="0.89"/><circle cx="43.41" cy="11.63" r="0.89"/><circle cx="70.18" cy="23.8" r="0.89"/><circle cx="78.84" cy="30" r="0.89"/><circle cx="67.08" cy="28.13" r="0.89"/><circle cx="75.74" cy="34.33" r="0.89"/><circle cx="64.3" cy="22.87" r="0.89"/><circle cx="81.62" cy="35.27" r="0.89"/><circle cx="72.96" cy="29.07" r="0.89"/><circle cx="61.52" cy="29.02" r="0.89"/><circle cx="69.29" cy="36.21" r="0.89"/><circle cx="57.53" cy="34.33" r="0.89"/><circle cx="66.19" cy="40.54" r="0.89"/><circle cx="72.07" cy="41.47" r="0.89"/><circle cx="63.41" cy="35.27" r="0.89"/><circle cx="60.31" cy="17.05" r="0.89"/><circle cx="54.75" cy="17.94" r="0.89"/><circle cx="56.64" cy="24.19" r="0.89"/></g></g></svg>