<svg xmlns="http://www.w3.org/2000/svg" viewBox="0 0 33.59 58.78"><g id="Layer_2" data-name="Layer 2"><g id="Layer_1-2" data-name="Layer 1"><path d="M19.94,9.71H13.69a3.08,3.08,0,0,1-3.25-2.86V6.33a3.08,3.08,0,0,1,3.25-2.86h6.25A3.08,3.08,0,0,1,23.2,6.33v.52A3.08,3.08,0,0,1,19.94,9.71ZM13.69,5.06A1.52,1.52,0,0,0,12,6.33v.52a1.53,1.53,0,0,0,1.66,1.27h6.25A1.53,1.53,0,0,0,21.6,6.85V6.33a1.52,1.52,0,0,0-1.66-1.27Z"/><path d="M16.79,58.78a4.39,4.39,0,0,1-4.38-4.38V25.84c-3.2-1.57-6.15-4.8-8.54-9.39A32.58,32.58,0,0,1,0,2.48,2.48,2.48,0,0,1,2.48,0H6.1A2.48,2.48,0,0,1,8.58,2.48a26.22,26.22,0,0,0,2.87,10.26c1.71,3.39,3.8,5.58,5.34,5.58s3.64-2.19,5.35-5.58A26.22,26.22,0,0,0,25,2.48,2.48,2.48,0,0,1,27.48,0h3.63a2.48,2.48,0,0,1,2.48,2.48,32.58,32.58,0,0,1-3.87,14c-2.39,4.59-5.34,7.82-8.54,9.39V54.4A4.39,4.39,0,0,1,16.79,58.78ZM2.48,1.6a.87.87,0,0,0-.88.88A31,31,0,0,0,5.28,15.72c2.31,4.42,5.24,7.57,8.24,8.88l.48.21V54.4a2.79,2.79,0,0,0,5.58,0V24.81l.48-.21c3-1.31,5.94-4.46,8.25-8.88A31.09,31.09,0,0,0,32,2.48a.87.87,0,0,0-.88-.88H27.48a.88.88,0,0,0-.88.88,28.17,28.17,0,0,1-3,11c-2.07,4.1-4.54,6.46-6.78,6.46s-4.7-2.36-6.77-6.46a28,28,0,0,1-3-11A.88.88,0,0,0,6.1,1.6Z"/><path d="M28.57,7H5.47a.4.4,0,1,1,0-.8h23.1a.4.4,0,0,1,0,.8Z"/></g></g></svg>