<svg xmlns="http://www.w3.org/2000/svg" viewBox="0 0 57.99 59.44"><defs><style>.cls-1{fill:none;stroke:#000;stroke-miterlimit:10;stroke-width:2px;}</style></defs><g id="Layer_2" data-name="Layer 2"><g id="Layer_1-2" data-name="Layer 1"><path d="M40.4,19.57a17.39,17.39,0,0,0-11.16-4A16.37,16.37,0,0,0,17.1,21.19a16,16,0,0,0,15.67,26,15.74,15.74,0,0,0,9.8-6.8,16.43,16.43,0,0,0,2.49-11.72,17.92,17.92,0,0,0-4.66-9.1A17.56,17.56,0,0,1,46,29.77a17.66,17.66,0,0,1-3.54,13.17,21.25,21.25,0,0,1-5,4.24,17.15,17.15,0,0,1-6.68,2.19A17.48,17.48,0,0,1,15.37,20.89a17.37,17.37,0,0,1,11.9-6.15,17,17,0,0,1,12,3.8C39.66,18.87,40,19.23,40.4,19.57Z"/><path class="cls-1" d="M51.55,35.81c-4.55-2-9.82-2.28-14.72-2.11a13.19,13.19,0,0,0,.2-1.87,8.1,8.1,0,0,0-4-6.94,15,15,0,0,1-1.71-.81c.68-1.49,1.66-2.85,2.38-4.31,1.63-3.29,3.07-6.92,3.17-10.64C37,6,35.68,2.93,32.64,1.68c-3.89-1.61-9.09-.34-11,3.64-1.63,3.43,0,7.59,1.19,10.89,1,2.71,2.63,5.2,3.82,7.85-1,.82-2.35,1.1-3.34,2.09-2,2.05-2.47,4.69-2.15,7.45-1.18.44-2.65.15-3.89.23-1,.06-2,.13-3,.24a34.15,34.15,0,0,0-6.33,1.2C4.25,36.42.75,38.81,1,43.11c0,.27.05.54.09.8A9.13,9.13,0,0,0,7,51.15c3.93,1.23,7.46-1.61,10-4.36.68-.75,7.08-8.61,6.49-9.17a8.09,8.09,0,0,0,7.66,2,7.93,7.93,0,0,0,3.4-2c-.74.73,5.7,8.25,6.26,8.91a15.12,15.12,0,0,0,4.82,4c5.19,2.52,10.47-1.35,11.29-6.67C57.5,40.09,54.81,37.25,51.55,35.81ZM29,37a5.2,5.2,0,1,1,5.19-5.19A5.24,5.24,0,0,1,29,37Z"/><path d="M11.53,11.7a43.24,43.24,0,0,0-3.41,4.67,50.15,50.15,0,0,0-3.33,7,39.56,39.56,0,0,0-2,13.31,23.17,23.17,0,0,1,.12-14,27.64,27.64,0,0,1,4-6.89A20.68,20.68,0,0,1,11.53,11.7Z"/><path d="M11.67,52.06c5,3.15,10.53,5.31,16.56,5.4a32.37,32.37,0,0,0,10-1.37,35.05,35.05,0,0,0,7.39-3.4,25.65,25.65,0,0,1-6.66,4.58A24.56,24.56,0,0,1,28.8,59.44a23.26,23.26,0,0,1-10.08-2.28A26.52,26.52,0,0,1,11.67,52.06Z"/><path d="M55.15,37a41.25,41.25,0,0,0-.33-7.85,30.93,30.93,0,0,0-3.19-9.43A33.06,33.06,0,0,0,40.85,8,24.11,24.11,0,0,1,53.54,19.12a23.46,23.46,0,0,1,2.66,9.79A27.1,27.1,0,0,1,55.15,37Z"/><path d="M23.51,52.19a43,43,0,0,0,9.2-.62,43.45,43.45,0,0,0,8.8-2.76A15.5,15.5,0,0,1,23.51,52.19Z"/><path d="M50.07,33a30.71,30.71,0,0,0-3.7-11.25A30.77,30.77,0,0,0,39,13.22,17.13,17.13,0,0,1,50.07,33Z"/><path d="M20.61,12.47A28.7,28.7,0,0,0,12.07,21,29.17,29.17,0,0,0,8,33.52,17.77,17.77,0,0,1,20.61,12.47Z"/></g></g></svg>