<svg xmlns="http://www.w3.org/2000/svg" viewBox="0 0 70.81 62.14"><defs><style>.cls-1{fill:none;stroke:#000;stroke-miterlimit:10;stroke-width:2px;}</style></defs><g id="Layer_2" data-name="Layer 2"><g id="Layer_1-2" data-name="Layer 1"><path class="cls-1" d="M38.7,61.11C36.23,48.8,38.29,15.51,40.78,1a5.4,5.4,0,0,0-1.86,1A251.84,251.84,0,0,0,1.54,58.51C16.78,58.7,38.73,61.24,38.7,61.11Z"/><path class="cls-1" d="M43.49,7c-.19-.4-.28-.37-.21.07l0,.28c.07.44.17,1.17.2,1.62l2.35,51c0,.45,0,.87,0,.93a.12.12,0,0,0,.1.14c.06,0,.44.08.84.13h.62l.81-.07,20.48-2.53,1-.15a.12.12,0,0,0,.08-.2c-.07-.09-.28-.49-.49-.89L44.3,8.73l-.69-1.48Z"/></g></g></svg>