<svg xmlns="http://www.w3.org/2000/svg" viewBox="0 0 57.59 53.83"><defs><style>.cls-1{fill:#1d1d1b;}</style></defs><g id="Layer_2" data-name="Layer 2"><g id="Layer_1-2" data-name="Layer 1"><path class="cls-1" d="M28.1,23.93H2.17A2.17,2.17,0,0,1,0,21.76V15.88A15.89,15.89,0,0,1,15.88,0H57.59V18.05H30.27v3.71A2.17,2.17,0,0,1,28.1,23.93ZM15.88,1.5A14.4,14.4,0,0,0,1.5,15.88v5.88a.67.67,0,0,0,.67.66H28.1a.67.67,0,0,0,.67-.66V16.55H56.09V1.5Z"/><path class="cls-1" d="M2.43,46.5A2.14,2.14,0,0,1,.29,44.36V29.23a2.14,2.14,0,0,1,4.28,0V44.36A2.14,2.14,0,0,1,2.43,46.5Zm0-17.9a.64.64,0,0,0-.64.63V44.36a.64.64,0,0,0,1.28,0V29.23A.64.64,0,0,0,2.43,28.6Z"/><path class="cls-1" d="M7.5,53.83a2.14,2.14,0,0,1-2.14-2.14V29.23a2.14,2.14,0,0,1,4.28,0V51.69A2.14,2.14,0,0,1,7.5,53.83Zm0-25.23a.63.63,0,0,0-.64.63V51.69a.64.64,0,0,0,1.27,0V29.23A.63.63,0,0,0,7.5,28.6Z"/><path class="cls-1" d="M13.51,41.19a2.14,2.14,0,0,1-2.14-2.14V29.23a2.14,2.14,0,1,1,4.28,0v9.82A2.14,2.14,0,0,1,13.51,41.19Zm0-12.59a.63.63,0,0,0-.63.63v9.82a.64.64,0,1,0,1.27,0V29.23A.63.63,0,0,0,13.51,28.6Z"/><path class="cls-1" d="M21.12,52.83A2.14,2.14,0,0,1,19,50.69V29.23a2.14,2.14,0,0,1,4.28,0V50.69A2.14,2.14,0,0,1,21.12,52.83Zm0-24.23a.64.64,0,0,0-.64.63V50.69a.64.64,0,0,0,.64.64.63.63,0,0,0,.63-.64V29.23A.63.63,0,0,0,21.12,28.6Z"/><path class="cls-1" d="M27.84,42.6a2.14,2.14,0,0,1-2.14-2.14V30.13a2.14,2.14,0,0,1,4.28,0V40.46A2.14,2.14,0,0,1,27.84,42.6Zm0-13.1a.64.64,0,0,0-.64.63V40.46a.64.64,0,0,0,1.28,0V30.13A.64.64,0,0,0,27.84,29.5Z"/></g></g></svg>