<svg xmlns="http://www.w3.org/2000/svg" viewBox="0 0 53.87 53.64"><g id="Layer_2" data-name="Layer 2"><g id="Layer_1-2" data-name="Layer 1"><path d="M40.32,53.64a16,16,0,0,1-5-.84A15.29,15.29,0,0,1,26.88,46c-2.44,4.41-7.53,7.39-13.21,7.6A12.32,12.32,0,0,1,9.18,53C3.05,50.89.12,44,0,38.44-.13,32.2,2.22,26.26,4.44,21.19A69.55,69.55,0,0,1,8.59,13c1-1.71,2.37-3.49,4.52-3.73a5.47,5.47,0,0,1,1.34,0A1.43,1.43,0,0,1,14.53,9,7.5,7.5,0,0,1,15,8a7.23,7.23,0,0,1,.37-1.06,20.82,20.82,0,0,1,1.41-2.84c.36-.61.76-1.23,1.2-1.83a8.67,8.67,0,0,1,.82-1A4.17,4.17,0,0,1,20.07.3,2.68,2.68,0,0,1,21,0a2.19,2.19,0,0,1,1.2.18,1.7,1.7,0,0,1,.33.2l.24.21a1.63,1.63,0,0,1,.44.85,1.79,1.79,0,0,1,0,.79A2.34,2.34,0,0,1,23,2.8,5.87,5.87,0,0,1,21.9,4.12l-.5.48-.68-.51.58.61-.41.41a16.35,16.35,0,0,0-1.66,2.07,7.57,7.57,0,0,0-.55,1,9.34,9.34,0,0,0-.39,1.11l-.08.28a6.71,6.71,0,0,1,1.08.16,5.67,5.67,0,0,1,2.63,1.47l.09.1c.11.12.23.24.33.37s.2.26.31.42a8.38,8.38,0,0,1,1,2.32l.74,2.35c.85,2.71,1.72,5.62,2.45,8.82.65-2.84,1.41-5.42,2.1-7.68l1.13-3.6c0-.13.08-.26.13-.4s.14-.4.22-.57a6.23,6.23,0,0,1,1.22-1.95L32,11.1a2.88,2.88,0,0,1,.36-.31l.09-.07a4.94,4.94,0,0,1,.9-.54A5.55,5.55,0,0,1,35,9.67l.57-.07-.08-.27a9.46,9.46,0,0,0-.38-1.11,6.73,6.73,0,0,0-.56-1,15.51,15.51,0,0,0-1.66-2.07l-.22-.24-.2-.19L32.94,4l-.57.61-.5-.47A6.53,6.53,0,0,1,30.81,2.8a2.34,2.34,0,0,1-.22-.55A1.69,1.69,0,0,1,31,.63L31.23.4a1.25,1.25,0,0,1,.32-.2A2.23,2.23,0,0,1,32.76,0,2.81,2.81,0,0,1,33.7.3a4.25,4.25,0,0,1,1.28,1,10.67,10.67,0,0,1,.83,1q.64.9,1.2,1.83a22,22,0,0,1,1.41,2.84A10.93,10.93,0,0,1,38.79,8a10,10,0,0,1,.44,1l.09.24a5.16,5.16,0,0,1,1.57,0c2.44.39,3.72,2.69,4.74,4.54.13.25.27.49.39.71a65.57,65.57,0,0,1,3.35,6.76,66.45,66.45,0,0,1,4,11.61,21.9,21.9,0,0,1,.53,5.19,17.83,17.83,0,0,1-3.89,11,13.69,13.69,0,0,1-2.09,2.08A12.07,12.07,0,0,1,40.32,53.64Zm-13.44-12,.91,2.43.11.27a13.43,13.43,0,0,0,7.91,6.86c3.19,1.07,7.77,1.28,11-1.33a12.58,12.58,0,0,0,1.83-1.82,16.15,16.15,0,0,0,3.51-10h0a20.55,20.55,0,0,0-.48-4.79A67,67,0,0,0,47.84,22a64.26,64.26,0,0,0-3.27-6.59l-.41-.74c-.89-1.61-1.9-3.44-3.53-3.69a3.74,3.74,0,0,0-1.33,0L39,11l-.77.21L38,10.47c-.1-.33-.2-.61-.29-.86a7.29,7.29,0,0,0-.36-.83l.7-.41-.33-.85h0a.82.82,0,0,0-.51.89,9,9,0,0,0-.31-.86,19.21,19.21,0,0,0-1.3-2.61,19.62,19.62,0,0,0-1.11-1.69,7.36,7.36,0,0,0-.68-.84,2.47,2.47,0,0,0-.79-.6,1.48,1.48,0,0,0-.41-.13.57.57,0,0,0-.31,0l0,0a.48.48,0,0,0,.06.25,4.57,4.57,0,0,0,.78,1l.46.43h0l.08.08.24.23.18.19L34.1,4A18.34,18.34,0,0,1,36,6.28a9.52,9.52,0,0,1,.68,1.29,10.24,10.24,0,0,1,.45,1.3l.18.62c.07.25.13.49.2.72l.35,1.19-1.23-.12-.32,0a5.71,5.71,0,0,0-1,.06,4.19,4.19,0,0,0-1.8.74l-.07,0-.17.15-.32.31A5,5,0,0,0,32,14a4.29,4.29,0,0,0-.15.42c-.06.17-.1.28-.13.39l-1.13,3.6a94,94,0,0,0-2.84,11.34l0,.23-.82,4.79L26,29.7c0-.22-.07-.43-.11-.65a98.49,98.49,0,0,0-3.06-11.74l-.74-2.37a6.79,6.79,0,0,0-.8-1.83,4,4,0,0,0-.26-.35c-.09-.12-.16-.19-.23-.27l-.08-.07a3.71,3.71,0,0,0-.57-.47,4,4,0,0,0-1.26-.55,5.15,5.15,0,0,0-1.71-.11L16,11.41l.35-1.19c.07-.24.14-.48.2-.72l.18-.64a12.67,12.67,0,0,1,.45-1.29,8.08,8.08,0,0,1,.69-1.28A16.23,16.23,0,0,1,19.66,4l.08-.09.18-.2.23-.21.1-.1.46-.44A4.23,4.23,0,0,0,21.48,2a.71.71,0,0,0,.08-.18l0-.08a.6.6,0,0,0-.33-.05,1.39,1.39,0,0,0-.41.13,2.61,2.61,0,0,0-.8.6,7.36,7.36,0,0,0-.68.84c-.4.55-.77,1.12-1.11,1.69a18.76,18.76,0,0,0-1.3,2.62,6.91,6.91,0,0,0-.3.85l-.79-.17-.33.85h0a.82.82,0,0,0,1-.31,8.22,8.22,0,0,0-.35.84c-.09.24-.19.52-.3.85l-.24.76L14.63,11a3.86,3.86,0,0,0-1.34-.09c-1.41.16-2.44,1.57-3.26,2.93a70.83,70.83,0,0,0-4.06,8C3.83,26.77,1.55,32.5,1.68,38.4c.11,5,2.67,11.16,8,13a11,11,0,0,0,3.89.56c4.75-.18,10.46-2.78,12.49-8.21Z"/><path d="M40,42.83A6.5,6.5,0,0,1,37,42.15a6,6,0,0,1-2.61-2.73C32.67,36,33,31.1,34.07,27.77a6.52,6.52,0,0,1,4-4.33c2.55-.83,5.15,2.31,6.13,3.49a13.37,13.37,0,0,1,3.07,6.77h0a9.46,9.46,0,0,1-.71,5,7,7,0,0,1-4.08,3.64A7.36,7.36,0,0,1,40,42.83ZM38.91,25a1.15,1.15,0,0,0-.37.06,5,5,0,0,0-2.88,3.25c-1,3-1.28,7.38.25,10.38a4.53,4.53,0,0,0,1.87,2,5.25,5.25,0,0,0,4.09.16A5.32,5.32,0,0,0,45,38.07a7.78,7.78,0,0,0,.58-4.16A11.71,11.71,0,0,0,42.86,28C41.2,26,39.87,25,38.91,25Z"/><path d="M14.58,42.82a7.73,7.73,0,0,1-5.11-1.9A7.94,7.94,0,0,1,7.31,33.7,16.19,16.19,0,0,1,8.83,29c1.11-2.33,3.49-5.07,6.1-5.61s4.67,2.07,5.47,4.5a18.92,18.92,0,0,1,.72,7.1c-.07,1.27-.53,5.54-3.59,7.13A6.46,6.46,0,0,1,14.58,42.82ZM15.65,25a1.64,1.64,0,0,0-.38,0c-1.94.4-4,2.71-4.93,4.69A14.53,14.53,0,0,0,9,33.94H9a6.35,6.35,0,0,0,1.63,5.75,5.83,5.83,0,0,0,6.16,1c1.8-.93,2.57-3.57,2.69-5.73a17.58,17.58,0,0,0-.64-6.49C18.37,27.11,17.24,25,15.65,25Z"/></g></g></svg>