<svg xmlns="http://www.w3.org/2000/svg" viewBox="0 0 95.78 40.33"><defs><style>.cls-1{fill:none;stroke:#000;stroke-miterlimit:10;stroke-width:2px;}</style></defs><g id="Layer_2" data-name="Layer 2"><g id="Layer_1-2" data-name="Layer 1"><path class="cls-1" d="M85.19,1.21a1.12,1.12,0,0,1,1.56.27L91.2,7.85a1.17,1.17,0,0,1,.25.58L94.77,37a1.12,1.12,0,0,1-1,1.24"/><path class="cls-1" d="M10.58,1.21A1.11,1.11,0,0,0,9,1.48L4.57,7.85a1.08,1.08,0,0,0-.24.58L1,37A1.12,1.12,0,0,0,2,38.2"/><path class="cls-1" d="M8,19.6H87.1a1.11,1.11,0,0,1,1.06.76L94,37.76a1.13,1.13,0,0,1,.09.45A1.12,1.12,0,0,1,93,39.33H2.12a1.12,1.12,0,0,1-.36,0,1.12,1.12,0,0,1-.7-1.42L6.9,20.46A1.13,1.13,0,0,1,8,19.6Z"/><path class="cls-1" d="M47.54,20.72H8A1.13,1.13,0,0,1,6.86,19.6a1.23,1.23,0,0,1,0-.19L8.83,2A1.12,1.12,0,0,1,9.94,1h75.2a1.12,1.12,0,0,1,1.12,1.06l1.95,17.42a1.12,1.12,0,0,1-1,1.24H47.54Z"/></g></g></svg>