<svg xmlns="http://www.w3.org/2000/svg" viewBox="0 0 76.92 40.03"><defs><style>.cls-1{fill:none;stroke:#000;stroke-miterlimit:10;}</style></defs><g id="Layer_2" data-name="Layer 2"><g id="Layer_1-2" data-name="Layer 1"><path class="cls-1" d="M46.05,39.43v.1H44.9A6.23,6.23,0,0,0,46.05,39.43Z"/><path class="cls-1" d="M46.05,28.7a4.43,4.43,0,0,0-1.15-.15,4.34,4.34,0,1,0,0,8.67,4.43,4.43,0,0,0,1.15-.16,4.34,4.34,0,0,0,0-8.36Zm0,6.83a2.75,2.75,0,0,1-1.15.24,2.89,2.89,0,0,1,0-5.78,2.76,2.76,0,0,1,1.15.25,2.89,2.89,0,0,1,0,5.29Z"/><path class="cls-1" d="M46.34,32.88a1.47,1.47,0,0,1-1.44,1.45,1.45,1.45,0,1,1,0-2.89,1.45,1.45,0,0,1,1.44,1.44Z"/><path class="cls-1" d="M46.05,32a1.43,1.43,0,0,0-1.15-.58,1.45,1.45,0,1,0,0,2.89,1.47,1.47,0,0,0,1.44-1.45A1.44,1.44,0,0,0,46.05,32Zm0,0a1.43,1.43,0,0,0-1.15-.58,1.45,1.45,0,1,0,0,2.89,1.47,1.47,0,0,0,1.44-1.45A1.44,1.44,0,0,0,46.05,32Zm0,0a1.43,1.43,0,0,0-1.15-.58,1.45,1.45,0,1,0,0,2.89,1.47,1.47,0,0,0,1.44-1.45A1.44,1.44,0,0,0,46.05,32Zm0,0a1.43,1.43,0,0,0-1.15-.58,1.45,1.45,0,1,0,0,2.89,1.47,1.47,0,0,0,1.44-1.45A1.44,1.44,0,0,0,46.05,32Zm0,0a1.43,1.43,0,0,0-1.15-.58,1.45,1.45,0,1,0,0,2.89,1.47,1.47,0,0,0,1.44-1.45A1.44,1.44,0,0,0,46.05,32Zm0,0a1.43,1.43,0,0,0-1.15-.58,1.45,1.45,0,1,0,0,2.89,1.47,1.47,0,0,0,1.44-1.45A1.44,1.44,0,0,0,46.05,32Zm0-3.32a4.43,4.43,0,0,0-1.15-.15,4.34,4.34,0,1,0,0,8.67,4.43,4.43,0,0,0,1.15-.16,4.34,4.34,0,0,0,0-8.36Zm0,6.83a2.75,2.75,0,0,1-1.15.24,2.89,2.89,0,0,1,0-5.78,2.76,2.76,0,0,1,1.15.25,2.89,2.89,0,0,1,0,5.29ZM44.9,31.44a1.45,1.45,0,1,0,0,2.89,1.47,1.47,0,0,0,1.44-1.45,1.45,1.45,0,0,0-1.44-1.44Zm1.15.58a1.43,1.43,0,0,0-1.15-.58,1.45,1.45,0,1,0,0,2.89,1.47,1.47,0,0,0,1.44-1.45A1.44,1.44,0,0,0,46.05,32Zm0,0a1.43,1.43,0,0,0-1.15-.58,1.45,1.45,0,1,0,0,2.89,1.47,1.47,0,0,0,1.44-1.45A1.44,1.44,0,0,0,46.05,32Zm0,0a1.43,1.43,0,0,0-1.15-.58,1.45,1.45,0,1,0,0,2.89,1.47,1.47,0,0,0,1.44-1.45A1.44,1.44,0,0,0,46.05,32Zm0,0a1.43,1.43,0,0,0-1.15-.58,1.45,1.45,0,1,0,0,2.89,1.47,1.47,0,0,0,1.44-1.45A1.44,1.44,0,0,0,46.05,32ZM44.9,39.53h1.15v-.1A6.23,6.23,0,0,1,44.9,39.53Z"/><path class="cls-1" d="M58.49,39.43v.1H57.33A6.41,6.41,0,0,0,58.49,39.43Z"/><path class="cls-1" d="M58.49,28.7a4.45,4.45,0,0,0-1.16-.15,4.34,4.34,0,0,0,0,8.67,4.45,4.45,0,0,0,1.16-.16,4.34,4.34,0,0,0,0-8.36Zm0,6.83a2.83,2.83,0,0,1-1.16.24,2.89,2.89,0,1,1,0-5.78,2.84,2.84,0,0,1,1.16.25,2.89,2.89,0,0,1,0,5.29Z"/><path class="cls-1" d="M58.77,32.88a1.41,1.41,0,0,1-.28.86,1.44,1.44,0,1,1-1.16-2.3,1.45,1.45,0,0,1,1.16.58A1.43,1.43,0,0,1,58.77,32.88Z"/><path class="cls-1" d="M58.49,3a4.45,4.45,0,0,0-1.16-.16,4.34,4.34,0,0,0,0,8.68,4.45,4.45,0,0,0,1.16-.16,4.34,4.34,0,0,0,0-8.36Zm0,6.83a3,3,0,0,1-1.16.24,2.89,2.89,0,0,1,0-5.78,3,3,0,0,1,1.16.24,2.89,2.89,0,0,1,0,5.3Z"/><path class="cls-1" d="M58.77,7.15a1.43,1.43,0,1,1-.28-.86A1.43,1.43,0,0,1,58.77,7.15Z"/><path class="cls-1" d="M46.05,32a1.43,1.43,0,0,0-1.15-.58,1.45,1.45,0,1,0,0,2.89,1.47,1.47,0,0,0,1.44-1.45A1.44,1.44,0,0,0,46.05,32Zm0,0a1.43,1.43,0,0,0-1.15-.58,1.45,1.45,0,1,0,0,2.89,1.47,1.47,0,0,0,1.44-1.45A1.44,1.44,0,0,0,46.05,32Zm0,0a1.43,1.43,0,0,0-1.15-.58,1.45,1.45,0,1,0,0,2.89,1.47,1.47,0,0,0,1.44-1.45A1.44,1.44,0,0,0,46.05,32Zm0,0a1.43,1.43,0,0,0-1.15-.58,1.45,1.45,0,1,0,0,2.89,1.47,1.47,0,0,0,1.44-1.45A1.44,1.44,0,0,0,46.05,32Zm0,0a1.43,1.43,0,0,0-1.15-.58,1.45,1.45,0,1,0,0,2.89,1.47,1.47,0,0,0,1.44-1.45A1.44,1.44,0,0,0,46.05,32Zm0,0a1.43,1.43,0,0,0-1.15-.58,1.45,1.45,0,1,0,0,2.89,1.47,1.47,0,0,0,1.44-1.45A1.44,1.44,0,0,0,46.05,32Zm0-3.32a4.43,4.43,0,0,0-1.15-.15,4.34,4.34,0,1,0,0,8.67,4.43,4.43,0,0,0,1.15-.16,4.34,4.34,0,0,0,0-8.36Zm0,6.83a2.75,2.75,0,0,1-1.15.24,2.89,2.89,0,0,1,0-5.78,2.76,2.76,0,0,1,1.15.25,2.89,2.89,0,0,1,0,5.29ZM44.9,31.44a1.45,1.45,0,1,0,0,2.89,1.47,1.47,0,0,0,1.44-1.45,1.45,1.45,0,0,0-1.44-1.44Zm1.15.58a1.43,1.43,0,0,0-1.15-.58,1.45,1.45,0,1,0,0,2.89,1.47,1.47,0,0,0,1.44-1.45A1.44,1.44,0,0,0,46.05,32Zm0,0a1.43,1.43,0,0,0-1.15-.58,1.45,1.45,0,1,0,0,2.89,1.47,1.47,0,0,0,1.44-1.45A1.44,1.44,0,0,0,46.05,32Zm0,0a1.43,1.43,0,0,0-1.15-.58,1.45,1.45,0,1,0,0,2.89,1.47,1.47,0,0,0,1.44-1.45A1.44,1.44,0,0,0,46.05,32Zm0,0a1.43,1.43,0,0,0-1.15-.58,1.45,1.45,0,1,0,0,2.89,1.47,1.47,0,0,0,1.44-1.45A1.44,1.44,0,0,0,46.05,32Zm11.28,7.51h1.16v-.1A6.41,6.41,0,0,1,57.33,39.53Zm-12.43,0h1.15v-.1A6.23,6.23,0,0,1,44.9,39.53ZM58.49,32a1.44,1.44,0,1,0-1.16,2.31,1.43,1.43,0,0,0,1.16-.59,1.41,1.41,0,0,0,.28-.86A1.43,1.43,0,0,0,58.49,32Zm0,0a1.44,1.44,0,1,0-1.16,2.31,1.43,1.43,0,0,0,1.16-.59,1.41,1.41,0,0,0,.28-.86A1.43,1.43,0,0,0,58.49,32Zm0,0a1.44,1.44,0,1,0-1.16,2.31,1.43,1.43,0,0,0,1.16-.59,1.41,1.41,0,0,0,.28-.86A1.43,1.43,0,0,0,58.49,32Zm0,0a1.44,1.44,0,1,0-1.16,2.31,1.43,1.43,0,0,0,1.16-.59,1.41,1.41,0,0,0,.28-.86A1.43,1.43,0,0,0,58.49,32Zm0-3.32a4.45,4.45,0,0,0-1.16-.15,4.34,4.34,0,0,0,0,8.67,4.45,4.45,0,0,0,1.16-.16,4.34,4.34,0,0,0,0-8.36Zm0,6.83a2.83,2.83,0,0,1-1.16.24,2.89,2.89,0,1,1,0-5.78,2.84,2.84,0,0,1,1.16.25,2.89,2.89,0,0,1,0,5.29Zm-1.16-4.09a1.45,1.45,0,1,0,1.16,2.3,1.41,1.41,0,0,0,.28-.86,1.43,1.43,0,0,0-.28-.86A1.45,1.45,0,0,0,57.33,31.44Zm1.16.58a1.44,1.44,0,1,0-1.16,2.31,1.43,1.43,0,0,0,1.16-.59,1.41,1.41,0,0,0,.28-.86A1.43,1.43,0,0,0,58.49,32Zm0,0a1.44,1.44,0,1,0-1.16,2.31,1.43,1.43,0,0,0,1.16-.59,1.41,1.41,0,0,0,.28-.86A1.43,1.43,0,0,0,58.49,32Z"/><path class="cls-1" d="M70.92,26.34a6.23,6.23,0,0,0-1.15-.11H63.4a6.34,6.34,0,0,0,1.16-.1,6.65,6.65,0,0,0,0-13.09,6.34,6.34,0,0,0-1.16-.11H60.61a3.31,3.31,0,0,0,.47-.29A6.65,6.65,0,0,0,58.49.6,6.41,6.41,0,0,0,57.33.5H19.58a6.65,6.65,0,0,0-4.76,11.28H53.87A5.78,5.78,0,0,1,57.33,1.37a5.57,5.57,0,0,1,1.16.12,5.78,5.78,0,0,1,2.3,10.29,5.58,5.58,0,0,1-1.66.86,4.64,4.64,0,0,1-.64.17,5.57,5.57,0,0,1-1.16.12H13.22A6.65,6.65,0,0,0,9.48,25.08a6.57,6.57,0,0,0,3.74,1.15H7.15a6.65,6.65,0,0,0,0,13.3H44.9a6.23,6.23,0,0,0,1.15-.1v.1H57.33a6.41,6.41,0,0,0,1.16-.1v.1H69.77a6.23,6.23,0,0,0,1.15-.1,6.64,6.64,0,0,0,0-13.09Z"/><path class="cls-1" d="M63.4,13.8a5.5,5.5,0,0,1,1.16.12,5.78,5.78,0,0,1,.64,11.16c-.21.07-.42.12-.64.17a5.5,5.5,0,0,1-1.16.12,6,6,0,0,1-1.8-.29A5.78,5.78,0,0,1,63.4,13.8Z"/><path class="cls-1" d="M46.05,38.55a5.47,5.47,0,0,1-1.15.12,5.78,5.78,0,0,1-1.81-11.28,5.67,5.67,0,0,1,1.81-.29,5.47,5.47,0,0,1,1.15.12,4.29,4.29,0,0,1,.64.17,5.78,5.78,0,0,1-.64,11.16Z"/><path class="cls-1" d="M49.16,25.08A5.79,5.79,0,0,1,51,13.8a5.64,5.64,0,0,1,1.16.12,5.78,5.78,0,0,1,.64,11.16c-.21.07-.42.12-.64.17a5.64,5.64,0,0,1-1.16.12A6,6,0,0,1,49.16,25.08Z"/><path class="cls-1" d="M58.49,38.55a5.57,5.57,0,0,1-1.16.12,5.78,5.78,0,0,1-1.8-11.28,5.71,5.71,0,0,1,3-.17,4.64,4.64,0,0,1,.64.17,5.78,5.78,0,0,1-.64,11.16Z"/><path class="cls-1" d="M70.92,38.55a5.47,5.47,0,0,1-1.15.12,5.79,5.79,0,0,1,0-11.57,5.47,5.47,0,0,1,1.15.12,5.78,5.78,0,0,1,0,11.33Z"/><path class="cls-1" d="M64.56,26.13v.1H63.4A6.34,6.34,0,0,0,64.56,26.13Z"/><path class="cls-1" d="M70.92,28.7a4.34,4.34,0,1,0,3.18,4.18A4.37,4.37,0,0,0,70.92,28.7Zm0,6.83a2.75,2.75,0,0,1-1.15.24,2.89,2.89,0,1,1,0-5.78,2.76,2.76,0,0,1,1.15.25,2.88,2.88,0,0,1,0,5.29Z"/><path class="cls-1" d="M71.21,32.88a1.47,1.47,0,0,1-1.44,1.45,1.45,1.45,0,1,1,0-2.89,1.45,1.45,0,0,1,1.44,1.44Z"/><path class="cls-1" d="M52.13,15.4A4.45,4.45,0,0,0,51,15.25a4.34,4.34,0,1,0,0,8.67,4.45,4.45,0,0,0,1.16-.16,4.34,4.34,0,0,0,0-8.36Zm0,6.83a2.83,2.83,0,0,1-1.16.24,2.89,2.89,0,0,1,0-5.78,2.84,2.84,0,0,1,1.16.25,2.89,2.89,0,0,1,0,5.29Z"/><path class="cls-1" d="M52.41,19.58a1.47,1.47,0,0,1-.28.86A1.44,1.44,0,1,1,51,18.14a1.47,1.47,0,0,1,1.16.58A1.5,1.5,0,0,1,52.41,19.58Z"/><path class="cls-1" d="M52.13,18.72A1.47,1.47,0,0,0,51,18.14a1.45,1.45,0,1,0,1.16,2.3,1.47,1.47,0,0,0,.28-.86A1.5,1.5,0,0,0,52.13,18.72Zm0,0A1.47,1.47,0,0,0,51,18.14a1.45,1.45,0,1,0,1.16,2.3,1.47,1.47,0,0,0,.28-.86A1.5,1.5,0,0,0,52.13,18.72Zm0,0A1.47,1.47,0,0,0,51,18.14a1.45,1.45,0,1,0,1.16,2.3,1.47,1.47,0,0,0,.28-.86A1.5,1.5,0,0,0,52.13,18.72Zm0,0A1.47,1.47,0,0,0,51,18.14a1.45,1.45,0,1,0,1.16,2.3,1.47,1.47,0,0,0,.28-.86A1.5,1.5,0,0,0,52.13,18.72Zm0,0A1.47,1.47,0,0,0,51,18.14a1.45,1.45,0,1,0,1.16,2.3,1.47,1.47,0,0,0,.28-.86A1.5,1.5,0,0,0,52.13,18.72Zm0,0A1.47,1.47,0,0,0,51,18.14a1.45,1.45,0,1,0,1.16,2.3,1.47,1.47,0,0,0,.28-.86A1.5,1.5,0,0,0,52.13,18.72Zm0-3.32A4.45,4.45,0,0,0,51,15.25a4.34,4.34,0,1,0,0,8.67,4.45,4.45,0,0,0,1.16-.16,4.34,4.34,0,0,0,0-8.36Zm0,6.83a2.83,2.83,0,0,1-1.16.24,2.89,2.89,0,0,1,0-5.78,2.84,2.84,0,0,1,1.16.25,2.89,2.89,0,0,1,0,5.29ZM51,18.14a1.45,1.45,0,1,0,1.16,2.3,1.47,1.47,0,0,0,.28-.86,1.5,1.5,0,0,0-.28-.86A1.47,1.47,0,0,0,51,18.14Zm1.16.58A1.47,1.47,0,0,0,51,18.14a1.45,1.45,0,1,0,1.16,2.3,1.47,1.47,0,0,0,.28-.86A1.5,1.5,0,0,0,52.13,18.72Zm0,0A1.47,1.47,0,0,0,51,18.14a1.45,1.45,0,1,0,1.16,2.3,1.47,1.47,0,0,0,.28-.86A1.5,1.5,0,0,0,52.13,18.72Zm0,0A1.47,1.47,0,0,0,51,18.14a1.45,1.45,0,1,0,1.16,2.3,1.47,1.47,0,0,0,.28-.86A1.5,1.5,0,0,0,52.13,18.72Zm0,0A1.47,1.47,0,0,0,51,18.14a1.45,1.45,0,1,0,1.16,2.3,1.47,1.47,0,0,0,.28-.86A1.5,1.5,0,0,0,52.13,18.72Zm0,0A1.47,1.47,0,0,0,51,18.14a1.45,1.45,0,1,0,1.16,2.3,1.47,1.47,0,0,0,.28-.86A1.5,1.5,0,0,0,52.13,18.72Zm0,0A1.47,1.47,0,0,0,51,18.14a1.45,1.45,0,1,0,1.16,2.3,1.47,1.47,0,0,0,.28-.86A1.5,1.5,0,0,0,52.13,18.72Z"/><path class="cls-1" d="M64.56,26.13v.1H63.4A6.34,6.34,0,0,0,64.56,26.13Z"/><path class="cls-1" d="M64.56,15.4a4.45,4.45,0,0,0-1.16-.15,4.34,4.34,0,0,0,0,8.67,4.45,4.45,0,0,0,1.16-.16,4.34,4.34,0,0,0,0-8.36Zm0,6.83a2.8,2.8,0,0,1-1.16.24,2.89,2.89,0,0,1,0-5.78,2.81,2.81,0,0,1,1.16.25,2.89,2.89,0,0,1,0,5.29Z"/><path class="cls-1" d="M64.85,19.58A1.47,1.47,0,0,1,63.4,21a1.44,1.44,0,1,1,1.45-1.45Z"/><line class="cls-1" x1="64.56" y1="26.23" x2="11.03" y2="26.23"/></g></g></svg>