<svg xmlns="http://www.w3.org/2000/svg" viewBox="0 0 87.55 49.61"><defs><style>.cls-1{fill:#202020;}</style></defs><g id="Layer_2" data-name="Layer 2"><g id="Layer_1-2" data-name="Layer 1"><path d="M74.18,49.61H13.37A13.38,13.38,0,0,1,0,36.25V13.37A13.39,13.39,0,0,1,13.37,0H74.18A13.39,13.39,0,0,1,87.55,13.37V36.25A13.38,13.38,0,0,1,74.18,49.61ZM13.37,1.81A11.57,11.57,0,0,0,1.81,13.37V36.25A11.56,11.56,0,0,0,13.37,47.8H74.18A11.56,11.56,0,0,0,85.74,36.25V13.37A11.57,11.57,0,0,0,74.18,1.81Z"/><path d="M62.89,29.9h-.13a2.28,2.28,0,0,1-2.32-2.23v-7.9a2.29,2.29,0,0,1,2.32-2.24h.13a2.29,2.29,0,0,1,2.32,2.24v7.9A2.28,2.28,0,0,1,62.89,29.9ZM62.76,19a.83.83,0,0,0-.87.78v7.9a.82.82,0,0,0,.87.77h.13a.82.82,0,0,0,.87-.77v-7.9a.83.83,0,0,0-.87-.78Z"/><path d="M57,32H28.36a4.11,4.11,0,0,1-4.21-4V19.45a4.11,4.11,0,0,1,4.21-4H57l4.89,3.93v8.27Zm-28.67-15a2.64,2.64,0,0,0-2.75,2.52V28a2.64,2.64,0,0,0,2.75,2.53H56.48l4-3.51V20.1l-4-3.17Z"/><polygon class="cls-1" points="41.33 5.76 43.1 12.37 44.88 5.76 41.33 5.76"/><polygon class="cls-1" points="44.88 43.85 43.11 37.24 41.33 43.85 44.88 43.85"/><polygon class="cls-1" points="12.27 25.5 18.88 23.72 12.27 21.95 12.27 25.5"/><polygon class="cls-1" points="77.09 25.5 70.48 23.72 77.09 21.95 77.09 25.5"/><path d="M56.39,31.63l-.7-.72a1.66,1.66,0,0,0,.36-1.74,4.24,4.24,0,0,0-.37-.82,3.72,3.72,0,0,1-.56-1.66,3.51,3.51,0,0,1,.58-2A2.09,2.09,0,0,0,56,23.24a2.54,2.54,0,0,0-.45-1.06,2.78,2.78,0,0,1,0-3.38,2,2,0,0,0,0-2.51l.78-.63a3,3,0,0,1,0,3.78,1.77,1.77,0,0,0,0,2.15A3.5,3.5,0,0,1,57,23.06a3.17,3.17,0,0,1-.44,2.09,2.55,2.55,0,0,0-.46,1.51,2.79,2.79,0,0,0,.44,1.22,5.61,5.61,0,0,1,.45,1A2.68,2.68,0,0,1,56.39,31.63Z"/></g></g></svg>