<svg xmlns="http://www.w3.org/2000/svg" viewBox="0 0 104.55 52.52"><defs><style>.cls-1,.cls-2,.cls-3,.cls-4{fill:none;stroke-miterlimit:10;}.cls-1,.cls-2,.cls-3{stroke:#000;}.cls-1{stroke-width:2px;}.cls-2{stroke-width:1.2px;}.cls-4{stroke:#313131;}</style></defs><g id="Layer_2" data-name="Layer 2"><g id="Layer_1-2" data-name="Layer 1"><path class="cls-1" d="M102.26,51.52c-1-1.05-5.87-6.28-7.91-7.64-2.27-1.52-2.78-5.05-2.78-5.05s-2.77-4.54-5-5-6.81-4-6.81-4l-1.52-1.51c-1.51-1.52-7.32-9.6-9.09-10.36s-5.55-7.57-5.55-7.57-2.27-8.58-3.79-8.84-2,7.33-4.54,7.58S53,15.85,50.93,16.61s-4.55,5.05-5.31,8.08-7.32,9.09-8.07,8.84-5.31,2.77-5.81,6.06c-.46,3-8.53,10.65-9.9,11.93Z"/><path class="cls-2" d="M59.76,1.46c-1.92-.68.52,5.18.52,5.18L58.77,9.29l1.51,4.17L66,18l-5.11-1.7L65.59,22l5.11,4L65.21,25l-1.14,5.3,2.65-3,6.82,2.65-3.6,3.6,1.7,4,5.87,2.08L72,42.05l6.63-.38,3.41,4.17s6.25,1.51,6.82,1.89-5.68.76-5.68.76l18.12,3h.9"/><path class="cls-1" d="M8.51,1.37A44.32,44.32,0,0,1,19.57,6.65l1.78-2.18a28.64,28.64,0,0,0-6.78-2.95A10.81,10.81,0,0,0,8.51,1.37Z"/><path class="cls-3" d="M31.86,9.27A2.29,2.29,0,0,0,32,8.2a2.2,2.2,0,0,0-.82-1.49l-3.12-2.5a2.24,2.24,0,0,0-1.64-.48,2.26,2.26,0,0,0-1,.38Z"/><path class="cls-1" d="M20.8,12.68,1.49,34.78a2,2,0,0,0,.23,2.8l2.12,1.73A1.95,1.95,0,0,0,6.63,39L24.26,15.51Z"/><path class="cls-1" d="M32.14,13.35l-1.79,2.19a44.61,44.61,0,0,1,7.41,9.77C38.26,20.7,34.17,15.58,32.14,13.35Z"/><path class="cls-4" d="M27.76,28.12a1.29,1.29,0,1,0,1.29,1.29A1.28,1.28,0,0,0,27.76,28.12Z"/><path class="cls-4" d="M27.1,38.25a2,2,0,1,0-2-2A2,2,0,0,0,27.1,38.25Z"/><path class="cls-4" d="M20.38,34.34a1.46,1.46,0,1,0,1.46,1.46A1.46,1.46,0,0,0,20.38,34.34Z"/><polygon class="cls-1" points="24.27 5.75 21.35 9.33 27.43 14.29 27.43 14.29 30.35 10.71 24.27 5.75"/></g></g></svg>