<svg xmlns="http://www.w3.org/2000/svg" viewBox="0 0 41.2 52.83"><g id="Layer_2" data-name="Layer 2"><g id="Layer_1-2" data-name="Layer 1"><path d="M32.39,52.83H6.31a2.26,2.26,0,0,1-1.82-.91,2.24,2.24,0,0,1-.35-2L7.51,38.48a2.27,2.27,0,0,1,2.17-1.63H29a2.27,2.27,0,0,1,2.17,1.63l3.37,11.44a2.26,2.26,0,0,1-2.17,2.91ZM9.68,38.44a.68.68,0,0,0-.65.49H9L5.66,50.37a.68.68,0,0,0,.11.6.65.65,0,0,0,.54.27H32.39a.69.69,0,0,0,.55-.27.7.7,0,0,0,.1-.6L29.67,38.93a.68.68,0,0,0-.65-.49Zm9.63,10.44a4.26,4.26,0,0,1-4.23-4.63h0a4.25,4.25,0,0,1,7.23-2.62,4.24,4.24,0,0,1-2.62,7.23Zm-2.65-4.49h0a2.66,2.66,0,0,0,2.89,2.89A2.69,2.69,0,0,0,22,44.88a2.64,2.64,0,0,0-.77-2.12,2.66,2.66,0,0,0-4.53,1.63Z"/><path d="M28.76,35.36H25.63l1.24-19.23a2.29,2.29,0,0,0-2.13-2.44,2.31,2.31,0,0,0-2.44,2.14L21,35.36H16.82L16,15.87a2.29,2.29,0,0,0-2.39-2.19,2.23,2.23,0,0,0-1.58.74,2.27,2.27,0,0,0-.61,1.64l.81,19.3H9.32a1.77,1.77,0,0,1-1.77-1.65L5.82,9.06h0c0-.12,0-.28,0-.48l0-.21-5.39-6A1.39,1.39,0,0,1,.13.85,1.4,1.4,0,0,1,1.43,0H31a1.78,1.78,0,0,1,1.3.57,1.75,1.75,0,0,1,.47,1.33l-.17,2.43h4.66a3.95,3.95,0,0,1,3.9,4.59l-2.93,18a4,4,0,0,1-3.9,3.32H30.77l-.24,3.48A1.79,1.79,0,0,1,28.76,35.36Zm-1.44-1.58h1.44a.19.19,0,0,0,.18-.18l.35-5h5a2.36,2.36,0,0,0,2.33-2l2.94-18a2.36,2.36,0,0,0-2.34-2.75H30.88l.29-4.13a.21.21,0,0,0-.05-.14A.18.18,0,0,0,31,1.59H1.79L7.07,7.45c.23.19.24.39.29,1v.12h0l1.75,25a.19.19,0,0,0,.19.18h1.26L9.84,16.13a3.82,3.82,0,0,1,1-2.79,3.87,3.87,0,0,1,5.47-.23,3.81,3.81,0,0,1,1.25,2.69l.76,18h1.21l1.17-18a3.88,3.88,0,0,1,7.74.5Zm5.47-5.43H29.31L30.86,6.21h4.86a2.06,2.06,0,0,1,2.05,2.41h0l-2.93,18A2.07,2.07,0,0,1,32.79,28.35ZM31,26.76h1.78a.48.48,0,0,0,.48-.41l2.94-18A.51.51,0,0,0,36.1,8a.5.5,0,0,0-.38-.17H32.34Z"/></g></g></svg>