<svg xmlns="http://www.w3.org/2000/svg" viewBox="0 0 89.4 51.05"><defs><style>.cls-1{fill:#202020;}</style></defs><g id="Layer_2" data-name="Layer 2"><g id="Layer_1-2" data-name="Layer 1"><path d="M68.43,45.2a5.86,5.86,0,1,1,5.85,5.85A5.86,5.86,0,0,1,68.43,45.2Zm1.71,0a4.15,4.15,0,1,0,4.14-4.15A4.15,4.15,0,0,0,70.14,45.2Z"/><path d="M11.53,45.2a5.86,5.86,0,1,1,5.86,5.85A5.86,5.86,0,0,1,11.53,45.2Zm1.71,0a4.15,4.15,0,1,0,4.15-4.15A4.15,4.15,0,0,0,13.24,45.2Z"/><path d="M52.46,46.2H23.85v-1a6.62,6.62,0,1,0-13.23,0v1H3.23A3.21,3.21,0,0,1,0,43L0,0H45.76A3.2,3.2,0,0,1,49,3.2V33.5h1.3v-18a3.21,3.21,0,0,1,3.2-3.21H67.91a3.21,3.21,0,0,1,3,2.14l3.56,10.1a1.23,1.23,0,0,0,.86.77l10.52,2.48a3.21,3.21,0,0,1,2.46,2.84l1.06,12a3.19,3.19,0,0,1-3.17,3.48l-5.31,0v-1a6.62,6.62,0,0,0-13.23.08v1Zm1.92-2H65.72a8.62,8.62,0,0,1,17.11-.1l3.38,0a1.2,1.2,0,0,0,1.19-1.31l-1.07-12a1.19,1.19,0,0,0-.92-1.06L74.89,27.28a3.17,3.17,0,0,1-2.28-2.05L69,15.14a1.21,1.21,0,0,0-1.13-.81H53.46a1.21,1.21,0,0,0-1.2,1.21V35.68l-1.15-.17H47V3.2A1.2,1.2,0,0,0,45.76,2H2L2,43a1.21,1.21,0,0,0,1.2,1.21H8.68a8.61,8.61,0,0,1,17.11,0H54.38Z"/><polygon class="cls-1" points="14.09 25.81 21.67 25.81 22.91 25.81 22.91 29.19 37.64 20.68 22.91 12.17 22.91 15.55 21.67 15.55 14.09 15.55 14.09 25.81"/></g></g></svg>