<svg xmlns="http://www.w3.org/2000/svg" viewBox="0 0 47.94 49.75"><defs><style>.cls-1,.cls-2{fill:none;stroke:#000;stroke-miterlimit:10;}.cls-1{stroke-width:2px;}.cls-3{fill:#fff;}</style></defs><g id="Layer_2" data-name="Layer 2"><g id="Layer_1-2" data-name="Layer 1"><path class="cls-1" d="M45.7,19.72h-.26L46.68,1.06h-2L43.7,16.42,42.77,1.06H40.59l-.73,15.76L39.12,1.06h-.86L37.13,11.91,36,1.06H34.92l-.51,15.76-.5-15.76H30.18l-.56,13.65L29.06,1.06H23.87l-.53,15.76L22.25,1.06H16.88l-.93,13L15,1.06H9.42V16.82L8.56,1.06H5.22v14L3.9,1.06H1.07L2.31,19.72h.27A1.25,1.25,0,0,0,1.33,21v3.32a1.24,1.24,0,0,0,1.25,1.24H20.16L19,45.64c0,1.71,2.64,3.11,4.35,3.11H25c1.71,0,4.35-1.4,4.35-3.11L28.11,25.52H45.7a1.24,1.24,0,0,0,1.24-1.24V21A1.25,1.25,0,0,0,45.7,19.72Z"/><path class="cls-2" d="M24.14,45.68a1.49,1.49,0,1,1,1.48-1.49A1.48,1.48,0,0,1,24.14,45.68Z"/><path class="cls-3" d="M40.32,0a2.12,2.12,0,0,1,0,1.9C39.81,3,39.91,5.1,40.87,5s1.72-.48,1.41-2.73,0-2.32.76-1.92S45.66,0,45.66,0Z"/><path class="cls-3" d="M32.87,0a2.08,2.08,0,0,1,0,1.9c-.5,1.06-.4,3.2.56,3.08s1.71-.48,1.41-2.73,0-2.32.76-1.92S38.22,0,38.22,0Z"/><path class="cls-3" d="M27.12,0s.56.84.3,1.44.81,1.61,1.17.7.95-1.56,1.15-.29a4.05,4.05,0,0,1,0,1.91c0,.41,1.11,2.22,1.67.2s0-2.17,0-2.92,1.16-1,1.16-1Z"/><path class="cls-3" d="M42.13,0a2.12,2.12,0,0,1,0,1.9C41.62,3,41.72,5.1,42.68,5s1.72-.48,1.41-2.73.06-2.32.76-1.92S47.47,0,47.47,0Z"/><path class="cls-3" d="M36.38,0s.55.84.3,1.44.81,1.61,1.16.7S38.8.58,39,1.85a4.37,4.37,0,0,1,0,1.91c0,.41,1.11,2.22,1.66.2s0-2.17,0-2.92,1.17-1,1.17-1Z"/><path class="cls-3" d="M34.56,0s.56.84.31,1.44.8,1.61,1.16.7,1-1.56,1.16-.29a4.37,4.37,0,0,1,0,1.91c0,.41,1.11,2.22,1.66.2s0-2.17,0-2.92S40,0,40,0Z"/><path class="cls-3" d="M14.66,0a2.12,2.12,0,0,1,0,1.9C14.15,3,14.25,5.1,15.21,5s1.72-.48,1.42-2.73.05-2.32.75-1.92S20,0,20,0Z"/><path class="cls-3" d="M7.22,0a2.12,2.12,0,0,1,0,1.9C6.71,3,6.81,5.1,7.77,5S9.49,4.5,9.18,2.25,9.23-.07,9.94.33,12.56,0,12.56,0Z"/><path class="cls-3" d="M1.46,0s.56.84.31,1.44.8,1.61,1.16.7,1-1.56,1.16-.29a4.37,4.37,0,0,1,0,1.91C4,4.17,5.2,6,5.75,4s0-2.17,0-2.92S6.92,0,6.92,0Z"/><path class="cls-3" d="M16.47,0a2.12,2.12,0,0,1,0,1.9C16,3,16.07,5.1,17,5s1.72-.48,1.42-2.73,0-2.32.75-1.92S21.82,0,21.82,0Z"/><path class="cls-3" d="M10.72,0s.55.84.3,1.44.81,1.61,1.16.7,1-1.56,1.16-.29a4.37,4.37,0,0,1,0,1.91C13.29,4.17,14.45,6,15,4S15,1.79,15,1s1.16-1,1.16-1Z"/><path class="cls-3" d="M8.91,0s.55.84.3,1.44.81,1.61,1.16.7,1-1.56,1.16-.29a4.37,4.37,0,0,1,0,1.91c0,.41,1.11,2.22,1.67.2s0-2.17,0-2.92,1.16-1,1.16-1Z"/></g></g></svg>