<svg xmlns="http://www.w3.org/2000/svg" viewBox="0 0 33.27 59.17"><g id="Layer_2" data-name="Layer 2"><g id="Layer_1-2" data-name="Layer 1"><path d="M1.47,0H31.79a1.47,1.47,0,0,1,1,.43h0l.08.09a1.47,1.47,0,0,1,.36,1V56a1.48,1.48,0,0,1-.44,1h0a1.46,1.46,0,0,1-1,.42H1.47a1.43,1.43,0,0,1-1-.43h0L.35,57A1.46,1.46,0,0,1,0,56V1.47a1.47,1.47,0,0,1,.43-1h0L.52.35a1.46,1.46,0,0,1,1-.35ZM31.39,1.88H1.88V55.59H31.39V1.88ZM1.47,1.48h0ZM31.79,56h0l.38.38Zm0,0Zm0,0-.27-.27h0l.27.27ZM1.47,56h0l-.37.38Zm0,0h0Zm0,0,.26-.27h0L1.47,56ZM1.1,1.1l.37.37h0L1.1,1.1Zm.37.38.27.26h0l-.27-.27Z"/><path d="M.94,21.2a.94.94,0,1,0,0,1.88H32.33a.94.94,0,0,0,0-1.88Z"/><path d="M6.59,6.74a.94.94,0,0,0-1.88,0v9.6a.94.94,0,0,0,1.88,0Z"/><path d="M6.59,28.39a.94.94,0,0,0-1.88,0V40.52a.94.94,0,0,0,1.88,0Z"/><rect x="25.94" y="56.53" width="2.64" height="2.64" rx="0.9"/><rect x="4.69" y="56.53" width="2.64" height="2.64" rx="0.9"/></g></g></svg>