<svg xmlns="http://www.w3.org/2000/svg" viewBox="0 0 55.91 54.87"><g id="Layer_2" data-name="Layer 2"><g id="Layer_1-2" data-name="Layer 1"><path d="M28.28.06l27,8.87L55,9.76l.28-.83a.88.88,0,0,1-.06,1.68l-27,8.87h0a.94.94,0,0,1-.6,0L.6,10.59l.27-.83-.27.83A.87.87,0,0,1,0,9.49a.93.93,0,0,1,.61-.58l27-8.86h0a1,1,0,0,1,.6,0Zm24,9.7L28,1.79l-24.28,8,24.28,8Z"/><path d="M46.39,13.52l-8.57,2.81h0a.88.88,0,0,1-.62,0L11.75,6.91l.3-.82-.3.82a.87.87,0,0,1,.08-1.66L20.4,2.44h0a.91.91,0,0,1,.61,0l25.46,9.39-.3.82.3-.82a.88.88,0,0,1-.08,1.67Zm-8.83,1.06,6-2L20.65,4.19,14.7,6.14Z"/><path d="M1.16,43.87a.88.88,0,0,0-.57,1.66l27.08,9.29h0a.88.88,0,0,0,.6,0l27.05-9.28a.88.88,0,0,0-.57-1.66L28,53.07Z"/><path d="M55.91,9.76a.88.88,0,0,0-1.75,0V44.7a.88.88,0,0,0,1.75,0Z"/><path d="M1.75,9.76A.88.88,0,0,0,0,9.76V44.7a.88.88,0,0,0,1.75,0Z"/><path d="M28.83,18.65a.88.88,0,1,0-1.75,0V54a.88.88,0,1,0,1.75,0Z"/><path d="M37.33,14.65l8.57-2.81h0a.87.87,0,0,1,1.1.56,1,1,0,0,1,0,.29V21.1a.88.88,0,0,1-.65.85l-8.56,3h0a.87.87,0,0,1-1.11-.54,1.06,1.06,0,0,1,0-.31V15.5a.88.88,0,0,1,.66-.85Zm8-.77-6.87,2.25v6.76l6.87-2.4Z"/></g></g></svg>