<svg xmlns="http://www.w3.org/2000/svg" viewBox="0 0 21.32 53.48"><g id="Layer_2" data-name="Layer 2"><g id="Layer_1-2" data-name="Layer 1"><path d="M15.87,5.87H5.5A2.8,2.8,0,0,1,2.77,3V2.85A2.8,2.8,0,0,1,5.5,0H15.87A2.8,2.8,0,0,1,18.6,2.85V3A2.8,2.8,0,0,1,15.87,5.87ZM5.5,1.51A1.29,1.29,0,0,0,4.28,2.85V3A1.3,1.3,0,0,0,5.5,4.36H15.87A1.3,1.3,0,0,0,17.09,3V2.85a1.29,1.29,0,0,0-1.22-1.34Z"/><path d="M16.29,53.48H5.09a5.19,5.19,0,0,1-5-5.32V10.62L5.11,4.34H15.78l5.54,6.27V48.16A5.19,5.19,0,0,1,16.29,53.48ZM1.57,11.16v37A3.68,3.68,0,0,0,5.09,52h11.2a3.68,3.68,0,0,0,3.52-3.81v-37L15.1,5.85H5.84Z"/><path d="M6.44,13.34a3.86,3.86,0,0,1-2.32-.78,2.46,2.46,0,0,0-3.17,0L0,11.38a4,4,0,0,1,5.09,0,2.21,2.21,0,0,0,2.7,0,4.83,4.83,0,0,1,2-.85,4.25,4.25,0,0,1,2.79.58,3.36,3.36,0,0,0,1.94.61,3.65,3.65,0,0,0,1.56-.58,8,8,0,0,1,1.32-.6,3.61,3.61,0,0,1,3.72.85L20,12.42A2.08,2.08,0,0,0,17.83,12a6.13,6.13,0,0,0-1.06.48,4.87,4.87,0,0,1-2.22.75,4.63,4.63,0,0,1-2.7-.78A2.71,2.71,0,0,0,10,12a3.23,3.23,0,0,0-1.35.58A3.75,3.75,0,0,1,6.44,13.34Z"/></g></g></svg>