<svg xmlns="http://www.w3.org/2000/svg" viewBox="0 0 65.43 54.75"><defs><style>.cls-1{fill:#231f20;}</style></defs><g id="Layer_2" data-name="Layer 2"><g id="Layer_1-2" data-name="Layer 1"><path class="cls-1" d="M22.63,35.38h-.2l-.23,0-.17,0-.09,0L10.37,30.39l.7-1.68,11.57,4.85L33,25.88l1.09,1.46L23.72,35a1.14,1.14,0,0,1-.23.15l-.08,0-.17.07-.27.07-.09,0h-.25Z"/><path class="cls-1" d="M42.93,35.38h-.07a.38.38,0,0,1-.17,0H42.6l-.17,0-.09,0-.17-.07-.11-.06a.83.83,0,0,1-.2-.13L31.53,27.34l1.09-1.46,10.32,7.68,11.57-4.85.7,1.68L43.55,35.28l-.11,0-.21,0-.26,0Z"/><rect class="cls-1" x="31.92" y="26.61" width="1.82" height="27.2"/><path d="M32.71,54.75l-.22,0-.23,0-.09,0h0l-.15,0L11.18,45.38a1.69,1.69,0,0,1-1-1.54V30.39L1.05,26.64A1.68,1.68,0,0,1,.7,23.72l8.29-6L.7,11.7A1.68,1.68,0,0,1,0,10.14a1.71,1.71,0,0,1,1-1.37l21-8.64a1.7,1.7,0,0,1,1.63.19l9,6.53,9-6.53A1.67,1.67,0,0,1,43.33.13l21,8.65a1.69,1.69,0,0,1,.35,2.92l-8.29,6,8.29,6a1.69,1.69,0,0,1-.35,2.92l-9.13,3.75V43.84a1.68,1.68,0,0,1-1,1.54L33.39,54.6l-.19.07-.21,0H32.9ZM12,43.75l20.72,9.16,20.72-9.16V29.17l10-4.12L53.34,17.71l10.13-7.34L42.71,1.84l-10,7.26-10-7.26L2,10.37l10.12,7.34L2,25.05l10,4.12Z"/><path d="M32.71,26.63l-21.2-8.92,21.2-8.92,21.2,8.92ZM16.2,17.71l16.51,6.94,16.51-6.94-16.51-7Z"/></g></g></svg>