<svg xmlns="http://www.w3.org/2000/svg" viewBox="0 0 73.1 65.23"><defs><style>.cls-1,.cls-2{fill:none;stroke:#313131;stroke-miterlimit:10;}.cls-1{stroke-width:2px;}</style></defs><g id="Layer_2" data-name="Layer 2"><g id="Layer_1-2" data-name="Layer 1"><path class="cls-1" d="M48.34,39.62l-6.45-5.39c2.79-2.26,4.42-7.82,4.42-7.82,2,2.11,6.12,6.15,2.71,12.34A3.68,3.68,0,0,1,48.34,39.62Z"/><path class="cls-1" d="M27.46,45.63l.9-8.36c3.43,1.06,9-.67,9-.67-.61,2.87-1.71,8.5-8.76,9.11A4,4,0,0,1,27.46,45.63Z"/><path class="cls-1" d="M11.22,30.52l7.72-3.33c.76,3.51,5,7.47,5,7.47-2.8.88-8.24,2.69-12.24-3.14A4.09,4.09,0,0,1,11.22,30.52Z"/><path class="cls-1" d="M53.84,17.55l-7.76,3.24c-.72-3.52-4.91-7.53-4.91-7.53,2.82-.85,8.28-2.6,12.2,3.29A4.09,4.09,0,0,1,53.84,17.55Z"/><path class="cls-1" d="M28.25,10.48l8.41-.3C35.84,6.68,38,1.29,38,1.29c-2.91.41-8.6,1.1-9.71,8.09A3.84,3.84,0,0,0,28.25,10.48Z"/><path class="cls-1" d="M16.51,8.35l6.58,5.23c-2.73,2.33-4.23,7.93-4.23,7.93-2.1-2.06-6.27-6-3-12.28A3.78,3.78,0,0,1,16.51,8.35Z"/><path class="cls-1" d="M32.39,37.23A13.52,13.52,0,1,0,18.87,23.71,13.54,13.54,0,0,0,32.39,37.23Z"/><path class="cls-1" d="M30.19,23.71a2.2,2.2,0,1,0,2.2-2.2A2.19,2.19,0,0,0,30.19,23.71Z"/><path class="cls-2" d="M41.84,8.89a1.33,1.33,0,1,0-1.33-1.33A1.34,1.34,0,0,0,41.84,8.89Z"/><path class="cls-2" d="M46,6.34a1.59,1.59,0,1,0,1.59-1.59A1.6,1.6,0,0,0,46,6.34Z"/><path class="cls-2" d="M42.35.5a1.18,1.18,0,1,0,1.18,1.18A1.18,1.18,0,0,0,42.35.5Z"/><path class="cls-2" d="M55.74,22.25a2.09,2.09,0,1,0,2.09-2.09A2.1,2.1,0,0,0,55.74,22.25Z"/><path class="cls-2" d="M58.77,34.18A1.75,1.75,0,1,0,57,32.43,1.76,1.76,0,0,0,58.77,34.18Z"/><path class="cls-2" d="M55,39.8a2.86,2.86,0,1,0,2.86-2.86A2.87,2.87,0,0,0,55,39.8Z"/><path class="cls-2" d="M62.43,34.81A1.79,1.79,0,1,0,64.22,33,1.79,1.79,0,0,0,62.43,34.81Z"/><path class="cls-2" d="M61.84,28.44a1.32,1.32,0,1,0-1.32-1.32A1.33,1.33,0,0,0,61.84,28.44Z"/><path class="cls-1" d="M38.82,62.17a2.07,2.07,0,1,0-2.06,2.06A2.06,2.06,0,0,0,38.82,62.17Z"/><path class="cls-1" d="M45.29,52.87a1.58,1.58,0,1,0-1.58,1.58A1.58,1.58,0,0,0,45.29,52.87Z"/><path class="cls-1" d="M68.36,64a3.52,3.52,0,0,0,2.54-.86,3.48,3.48,0,0,0,1.19-2.41,3.41,3.41,0,0,0-1-2.68l-.45-.45.39-.52a2.53,2.53,0,0,0,.52-1.4,2.62,2.62,0,0,0-2.45-2.8,2.56,2.56,0,0,0-1.41.31l-.45.24-.38-.33a2.61,2.61,0,0,0-1.06-.57l-.55-.15v-.57a2.31,2.31,0,0,0-2.16-2.32,2.41,2.41,0,0,0-.8.1l-.65.2-.25-.63a1.92,1.92,0,0,0-3.61.1l-.2.58-.6-.09a2.68,2.68,0,0,0-2.78,1.56l-.17.37-.41.05a2.58,2.58,0,0,0-1.34.59l-.21.18H51.8a2.1,2.1,0,0,0-2,1.71l-.1.54-.55.06a1.8,1.8,0,0,0-1.61,1.66,1.88,1.88,0,0,0,0,.41l.14.78-.79.07a3.2,3.2,0,1,0,3,4.95l.36-.55.58.29a4.13,4.13,0,0,0,3.89-.16l.48-.29.41.39a4.55,4.55,0,0,0,6.93-.74l.2-.29.34,0a4.33,4.33,0,0,0,1.24-.3l.77-.32.22.8A3.5,3.5,0,0,0,68.36,64Z"/><path class="cls-1" d="M15,44.37l-4,1.28L9.88,43.09,7.2,45.34l-4.95-8L1,40.49c0,.09,1.09,8.72,1.11,9.34,0,.11,0,.42,0,.89.27,7.46.09,8.1,0,8.31l-.05.13a18.07,18.07,0,0,0-.62,4.21H22.94c-2.65-3.7-3.34-4.74-3.69-6.75l-1.37-.95-.06,1.57a.72.72,0,0,1-.5.66.66.66,0,0,1-.23,0,.74.74,0,0,1-.58-.27L14.84,55.6l-.32.78a.7.7,0,0,1-.52.44.73.73,0,0,1-.66-.18l-1.08-1a.73.73,0,0,1-1.41-.37l-.43-5.89A.73.73,0,0,1,11.64,49L13,50.17l.39-1A.73.73,0,0,1,14.59,49l1.22,1.51,0-.44a.75.75,0,0,1,.26-.54.72.72,0,0,1,.58-.15l4.44,5-2.23-4.31,3.22,1.58-2.22-2,1.36-1L19.56,47.3,21,43.09l-3.52,3.2Z"/></g></g></svg>