<svg xmlns="http://www.w3.org/2000/svg" viewBox="0 0 94.18 57.65"><defs><style>.cls-1{fill:none;stroke:#000;stroke-miterlimit:10;}</style></defs><g id="Layer_2" data-name="Layer 2"><g id="Layer_1-2" data-name="Layer 1"><path d="M47.53,57.65H13.34a13.35,13.35,0,0,1,0-26.69H25L25,32.24c0,.22,0,.44,0,.66,0,4.5,6.45,8.79,9.53,12.08a1.28,1.28,0,0,0,1.92-.12,1.17,1.17,0,0,0,.18-1.06,17,17,0,0,1,1-12.16l.34-.68h9.59v2.42H39.47a14.43,14.43,0,0,0-1.15,5.45,14.66,14.66,0,0,0,.57,4.29,3.59,3.59,0,0,1-.57,3.2,3.71,3.71,0,0,1-3,1.48,3.65,3.65,0,0,1-2.67-1.16c-3.4-3.62-10.1-8.31-10.18-13.26H13.34a10.92,10.92,0,0,0,0,21.84H47.53Z"/><path d="M80.84,57.65H46.65V55.22H80.84a10.92,10.92,0,0,0,0-21.84H70.41c-.08,4.94-5.52,9.63-8.93,13.26a3.61,3.61,0,0,1-2.66,1.16,3.71,3.71,0,0,1-3-1.48,3.58,3.58,0,0,1-.57-3.2,14.66,14.66,0,0,0,.57-4.29,14.44,14.44,0,0,0-1.16-5.45H46.65V31h9.59l.33.68a16.94,16.94,0,0,1,1.72,7.15,17.51,17.51,0,0,1-.67,5,1.2,1.2,0,0,0,.18,1.07,1.28,1.28,0,0,0,1.92.1C62.8,41.69,68,37.4,68,32.91c0-.23,0-.45,0-.67L67.9,31H80.84a13.35,13.35,0,0,1,0,26.69Z"/><path class="cls-1" d="M82,53.4a8.76,8.76,0,0,1-1.86.2,9.29,9.29,0,0,1-4.38-17.49,10,10,0,0,1,1.15-.53A9.25,9.25,0,0,1,82,35.19a9,9,0,0,1,1.86.59,9.47,9.47,0,0,1,1.26.67A9.29,9.29,0,0,1,82,53.4Z"/><path class="cls-1" d="M84.83,39.16a6.84,6.84,0,0,0-1.15-.85,6.61,6.61,0,0,0-1.7-.73,7.08,7.08,0,0,0-1.86-.25,6.7,6.7,0,0,0-2.5.47,6,6,0,0,0-1.16.58,7,7,0,0,0,3.66,12.89A7.08,7.08,0,0,0,82,51a7,7,0,0,0,2.85-11.86ZM82,48.56a4.59,4.59,0,0,1-1.86.39l-.39,0A4.64,4.64,0,0,1,76.84,41a4.5,4.5,0,0,1,1.2-.87,4.72,4.72,0,0,1,2.08-.5,4.61,4.61,0,0,1,3,1.14,4.42,4.42,0,0,1,1,1.15A4.64,4.64,0,0,1,82,48.56Z"/><path class="cls-1" d="M82.45,44.3A2.33,2.33,0,0,1,82,45.68a2.3,2.3,0,0,1-1.86.94,2.32,2.32,0,1,1,2.32-2.32Z"/><polygon class="cls-1" points="52.91 14.17 52.91 11.21 46.88 11.21 55.91 0.76 60.21 5.73 52.91 14.17"/><polygon class="cls-1" points="51.79 18.81 50.37 17.8 50.2 17.68 50.12 17.62 50.12 14.17 43.14 14.17 43.14 17.61 43.06 17.68 42.89 17.8 41.47 18.81 40.52 19.49 40.52 25.17 52.74 25.17 52.74 19.49 51.79 18.81"/><path class="cls-1" d="M46.63,21.91a2.41,2.41,0,0,1-2.22-2.57,2.77,2.77,0,0,1,.56-1.7,2.21,2.21,0,0,1,1-.75l.31-.08a1.42,1.42,0,0,1,.36,0,1.47,1.47,0,0,1,.36,0,1.57,1.57,0,0,1,.31.08l.29.13h0a2.32,2.32,0,0,1,.71.62h0v0a2.74,2.74,0,0,1,.55,1.69A2.41,2.41,0,0,1,46.63,21.91Z"/><path d="M38.22,19.68l0,5.6a10.37,10.37,0,0,0-4.63,2.84c-.26.27-.5.55-.74.85a12.86,12.86,0,0,0-2.12,4.12,14.25,14.25,0,0,0-.59,3.56.61.61,0,0,1-1.18.26,14,14,0,0,1-.41-9c.05-.16.1-.33.16-.49.11-.34.24-.67.37-1C31,21.75,33.87,20.17,38.22,19.68Z"/><path d="M55.08,19.68l0,5.6a10.37,10.37,0,0,1,4.63,2.84c.26.27.5.55.74.85a12.86,12.86,0,0,1,2.12,4.12,14.25,14.25,0,0,1,.59,3.56.61.61,0,0,0,1.18.26,14,14,0,0,0,.41-9c0-.16-.1-.33-.16-.49-.11-.34-.24-.67-.37-1C62.26,21.75,59.43,20.17,55.08,19.68Z"/></g></g></svg>