<?xml version="1.0" encoding="utf-8"?>
<!-- Generator: Adobe Illustrator 15.1.0, SVG Export Plug-In . SVG Version: 6.00 Build 0)  -->
<!DOCTYPE svg PUBLIC "-//W3C//DTD SVG 1.1//EN" "http://www.w3.org/Graphics/SVG/1.1/DTD/svg11.dtd">
<svg version="1.1" id="Layer_1" xmlns="http://www.w3.org/2000/svg" xmlns:xlink="http://www.w3.org/1999/xlink" x="0px" y="0px"
	 width="70.363px" height="83.102px" viewBox="0 0 70.363 83.102" enable-background="new 0 0 70.363 83.102" xml:space="preserve">
<path fill="#848688" d="M67.775,36.953L8.17,0.778C6.511-0.229,4.433-0.259,2.741,0.69C1.051,1.64,0,3.439,0,5.376v72.347
	c0,1.94,1.051,3.736,2.741,4.689c0.815,0.46,1.729,0.689,2.638,0.689c0.969,0,1.938-0.256,2.791-0.777l59.605-36.175
	c1.618-0.984,2.588-2.699,2.588-4.598C70.363,39.652,69.393,37.937,67.775,36.953 M54.618,41.552L10.758,68.17V14.932L54.618,41.552
	z"/>
</svg>
