<svg xmlns="http://www.w3.org/2000/svg" xmlns:xlink="http://www.w3.org/1999/xlink" width="219.142" height="145.822" viewBox="0 0 219.142 145.822"><defs><clipPath id="a"><rect width="5.395" height="5.075" transform="translate(4224.25 1973.323)" fill="none"/></clipPath></defs><g transform="translate(-4027.795 -1973.323)"><path d="M4158.043,1980.118h2.917V1977.2h-2.917Z" fill="#ededee"/><path d="M4162.447,1980.118h2.916V1977.2h-2.916Z" fill="#ededee"/><path d="M4209.256,2009.4h2.916v-2.916h-2.916Z" fill="#ededee"/><path d="M4203.394,2009.4h2.916v-2.916h-2.916Z" fill="#ededee"/><path d="M4238.1,2003.741a3.493,3.493,0,0,0,1.458-1.224,5.209,5.209,0,0,0,.788-1.954,12.848,12.848,0,0,0,.233-2.6v-17.12H4238.1v17.12a11.839,11.839,0,0,1-.116,1.75,3.42,3.42,0,0,1-.38,1.166,1.648,1.648,0,0,1-.7.642,3.174,3.174,0,0,1-1.167.2,3.923,3.923,0,0,1-.583-.029,4.514,4.514,0,0,1-.671-.146l-.642,2.362a7.625,7.625,0,0,0,2.013.263,4.909,4.909,0,0,0,2.245-.438" fill="#ededee"/><path d="M4224.25,1973.323h5.4v5.075h-5.4Z" fill="none"/><g clip-path="url(#a)"><path d="M4229.646,1976.5h-3.383v-.554a1.107,1.107,0,0,1,.2-.729.9.9,0,0,1,.758-.2h1.692v-1.692h-1.75a3.027,3.027,0,0,0-2.188.729,3.26,3.26,0,0,0-.758,2.363v2.012h5.4V1976.5Z" fill="#ededee"/></g><path d="M4222.759,2004.179a9.173,9.173,0,0,1-2.188-.263,19.227,19.227,0,0,1-2.508-.787l.759-2.362a10.9,10.9,0,0,0,2.07.729,8.092,8.092,0,0,0,2.042.2,5.336,5.336,0,0,0,3.12-.817,3.27,3.27,0,0,0,1.109-2.741v-2.421l-.817,1.721h-.671a16.081,16.081,0,0,1-3.908-.467,9.85,9.85,0,0,1-3.237-1.458,7.13,7.13,0,0,1-2.216-2.537,8.446,8.446,0,0,1-.088-7.058,7.71,7.71,0,0,1,2.1-2.654,9.84,9.84,0,0,1,3.208-1.75,12.585,12.585,0,0,1,4.17-.641h3.938v17.061a6.3,6.3,0,0,1-1.634,4.579A7.128,7.128,0,0,1,4222.759,2004.179Zm1.837-20.853a6.948,6.948,0,0,0-2.42.438,6.381,6.381,0,0,0-3.646,3.091,5.39,5.39,0,0,0-.583,2.421,5.213,5.213,0,0,0,1.983,4.258,6.738,6.738,0,0,0,2.129,1.108,8.721,8.721,0,0,0,2.6.379h2.508v-10.995l1.4-.7Z" fill="#ededee"/><path d="M4211.472,2003.916h-44.913a5.044,5.044,0,0,1-2.245-.437,3.5,3.5,0,0,1-1.459-1.225,1.316,1.316,0,0,1-.116-.2l-.03-.058v1.837h-5.132a11.276,11.276,0,0,1-8.254-3.412,11.541,11.541,0,0,1-3.15-8.02v-.059a11.508,11.508,0,0,1,3.179-8.049,11.207,11.207,0,0,1,8.283-3.442h6.649v16.887a11.827,11.827,0,0,0,.117,1.749,3.426,3.426,0,0,0,.379,1.167,1.648,1.648,0,0,0,.7.642,3.167,3.167,0,0,0,1.167.2h42.375v-20.649h2.479l-.029,23.069Zm-53.9-20.735a8.756,8.756,0,0,0-8.779,8.72v.437a8.923,8.923,0,0,0,8.633,9.187h4.987a5.423,5.423,0,0,1-.379-1.225,12.815,12.815,0,0,1-.234-2.6V1983.91l1.517-.759Z" fill="#ededee"/><path d="M4133.866,1997.763l1.079,2.829-15.661-19.774h-2.45V2003.8h2.537v-17.324l-1.458-3.354,16.39,20.649h2.071v-22.953h-2.537v16.945Z" fill="#ededee"/><path d="M4168.951,2040.489l14.2-13.474v-9.245h-37.943V2028.3h19.452l7.233-4.608-18.023,17.994,1.925,7.816h5.132c6.912,0,10.995,2.538,10.995,7.087v.146c0,4.141-3.295,6.766-7.932,6.766-5.687,0-9.712-2.391-13.562-6.678l-8.516,8.049c4.812,5.658,11.812,9.653,21.9,9.653,12.511,0,20.24-7.728,20.24-18.257v-.145c0-10.383-7.466-14.349-15.107-15.632" fill="#ededee"/><path d="M4100.735,2004.179a11.538,11.538,0,0,1-8.516-3.529,11.987,11.987,0,0,1-3.237-8.283v-.058a11.905,11.905,0,0,1,3.266-8.312,11.678,11.678,0,0,1,8.546-3.558,11.539,11.539,0,0,1,8.516,3.529,11.939,11.939,0,0,1,3.237,8.283v.058a11.9,11.9,0,0,1-3.267,8.312A11.579,11.579,0,0,1,4100.735,2004.179Zm0-21.348a9.047,9.047,0,0,0-9.07,9.011v.467a9.214,9.214,0,0,0,8.924,9.478h.205a9.067,9.067,0,0,0,9.07-9.011v-.467a9.214,9.214,0,0,0-8.925-9.478Z" fill="#ededee"/><path d="M4217.013,2074.523a30.2,30.2,0,0,1-21.377-8.4,28.158,28.158,0,0,1-8.4-20.3v-.175a28.285,28.285,0,0,1,8.457-20.357,31.4,31.4,0,0,1,42.843-.088,28.15,28.15,0,0,1,8.4,20.27v.145a28.28,28.28,0,0,1-8.458,20.357A30.119,30.119,0,0,1,4217.013,2074.523Zm0-46.371c-9.6,0-16.857,7.466-16.857,17.382v.146a17.084,17.084,0,0,0,16.653,17.528h.35c9.595,0,16.857-7.467,16.857-17.382v-.175a17.082,17.082,0,0,0-16.653-17.528,1.424,1.424,0,0,1-.35.029Z" fill="#ededee"/><path d="M4081.866,2003.8h2.625v-22.982h-2.625Z" fill="#ededee"/><path d="M4039.928,2067.174l2.391-1.837,12.278-9.421c9.945-7.641,14.757-12.278,14.757-21.581v-.146c0-10.441-7.7-17.207-19.335-17.207-10.033,0-15.4,4.054-20.94,11.549l8.661,6.941c4.171-5.1,7.146-7.495,11.491-7.495,4.4,0,7.554,2.537,7.554,7.262,0,4.608-2.742,7.641-9.712,13.386l-18.694,15.224v9.712h41.53v-10.587h-21.436Z" fill="#ededee"/><path d="M4040.073,2003.946l9.946-23.128h-2.8l-7.875,18.84.263,2.538-.642-1.575-6.824-16.39-1.429-3.413h-2.917l9.945,23.128Z" fill="#ededee"/><path d="M4053.577,2003.8h2.624v-22.982h-2.624Z" fill="#ededee"/><path d="M4070.025,1991.055c-5.1-1.079-6.27-2.3-6.27-4.462v-.058c0-2.071,1.925-3.7,4.929-3.7a10.231,10.231,0,0,1,6.678,2.479l1.517-1.984a12.157,12.157,0,0,0-8.137-2.828c-4.4,0-7.612,2.653-7.612,6.27v.058c0,3.762,2.45,5.483,7.758,6.62,4.87,1.021,6.008,2.246,6.008,4.375v.058c0,2.275-2.042,3.908-5.162,3.908a11.058,11.058,0,0,1-7.933-3.237l-1.6,1.9a13.7,13.7,0,0,0,9.449,3.675c4.608,0,7.9-2.567,7.9-6.5v-.058c0-3.5-2.363-5.4-7.525-6.5" fill="#ededee"/><path d="M4039.228,2102.842h1.458v-1.429h-1.458Z" fill="#ededee"/><path d="M4136.695,2099.75h-15.982a8.123,8.123,0,0,1-2.217-.291,5.875,5.875,0,0,1-1.837-.846,4.416,4.416,0,0,1-1.283-1.458,4.535,4.535,0,0,1-.467-2.129,4.724,4.724,0,0,1,.408-1.9,4.244,4.244,0,0,1,1.167-1.516,5.615,5.615,0,0,1,1.837-.992,7.44,7.44,0,0,1,2.392-.35h2.216v8.108h5.6v-8.108h1.4v8.108h5.337v-8.108h1.4l.029,9.478Zm-16.565-8.107a4.536,4.536,0,0,0-1.4.233,3.847,3.847,0,0,0-1.225.671,3.933,3.933,0,0,0-.875,1.079,2.872,2.872,0,0,0-.321,1.371,3.264,3.264,0,0,0,.292,1.4,3.183,3.183,0,0,0,.816,1.049,3.862,3.862,0,0,0,1.225.671,5.269,5.269,0,0,0,1.488.234h1.4v-6.708Z" fill="#ededee"/><path d="M4106.539,2099.75h1.4v-12.569h-1.4Z" fill="#ededee"/><path d="M4121.5,2088.639h1.458v-1.429H4121.5Z" fill="#ededee"/><path d="M4135.266,2102.842h1.458v-1.429h-1.458Z" fill="#ededee"/><path d="M4041.707,2102.842h1.458v-1.429h-1.458Z" fill="#ededee"/><path d="M4059.264,2103.6a5.868,5.868,0,0,1-1.254-.146,11.561,11.561,0,0,1-1.43-.437l.438-1.342a5.79,5.79,0,0,0,1.2.409,5.306,5.306,0,0,0,1.166.116,2.918,2.918,0,0,0,1.779-.466,1.818,1.818,0,0,0,.642-1.575v-.409h-.846a9.657,9.657,0,0,1-2.246-.262,5.668,5.668,0,0,1-1.866-.846,4.424,4.424,0,0,1-1.283-1.458,4.536,4.536,0,0,1-.467-2.129,4.422,4.422,0,0,1,.438-1.925,4.307,4.307,0,0,1,1.2-1.516,6.286,6.286,0,0,1,1.838-1.021,7.318,7.318,0,0,1,2.391-.379h2.275v8.107h4.87l-2.479-5.862c.38-.32.759-.641,1.167-.933a7.281,7.281,0,0,1,1.312-.758,7.731,7.731,0,0,1,1.371-.5,5.467,5.467,0,0,1,2.742,0,7.724,7.724,0,0,1,1.37.5,14.977,14.977,0,0,1,1.313.758,12.11,12.11,0,0,1,1.2.933l-2.479,5.862h7.408v-7.232h1.4v7.232h2.742a2.464,2.464,0,0,0,.9-.145,2.4,2.4,0,0,0,.758-.409,2.121,2.121,0,0,0,.525-.729,2.871,2.871,0,0,0,.2-1.108v-4.841h1.4v4.958a2.228,2.228,0,0,0,.233.962,3.058,3.058,0,0,0,.583.787,2.68,2.68,0,0,0,.875.525,3.576,3.576,0,0,0,1.138.2,2.525,2.525,0,0,0,1.983-.73,2.621,2.621,0,0,0,.642-1.924v-4.725h1.4v4.52a6.687,6.687,0,0,1-.116,1.313,2.569,2.569,0,0,0,1.108,1.05,4.484,4.484,0,0,0,1.954.35h2.3v-11.17h1.4v12.57h-4.083v-.03a6.133,6.133,0,0,1-1.021-.116,4.106,4.106,0,0,1-.991-.379,3.784,3.784,0,0,1-.671-.525,2.766,2.766,0,0,1-.438-.584,3.046,3.046,0,0,1-1.37,1.342,4.614,4.614,0,0,1-2.159.437,4.326,4.326,0,0,1-2.1-.466,3.555,3.555,0,0,1-1.4-1.313,3.508,3.508,0,0,1-1.283,1.167,3.967,3.967,0,0,1-1.838.437h-21.9v.263a3.65,3.65,0,0,1-.933,2.625A3.876,3.876,0,0,1,4059.264,2103.6Zm11.549-11.928a5.2,5.2,0,0,0-1.779.321,5.983,5.983,0,0,0-1.663.991l2.217,5.367h2.508l2.216-5.367a5.747,5.747,0,0,0-1.574-.933A4.939,4.939,0,0,0,4070.813,2091.672Zm-10.441,0a4.718,4.718,0,0,0-1.429.233,3.691,3.691,0,0,0-1.225.7,3.948,3.948,0,0,0-.875,1.079,3.283,3.283,0,0,0-.029,2.771,2.826,2.826,0,0,0,.816,1.021,4.143,4.143,0,0,0,1.225.641,4.344,4.344,0,0,0,1.488.2h1.429v-6.649Z" fill="#ededee"/><path d="M4034.416,2088.639h1.458v-1.429h-1.458Z" fill="#ededee"/><path d="M4177.058,2088.639h1.459v-1.429h-1.459Z" fill="#ededee"/><path d="M4164.576,2099.75h1.4v-12.569h-1.4Z" fill="#ededee"/><path d="M4119.021,2088.639h1.459v-1.429h-1.459Z" fill="#ededee"/><path d="M4052.877,2094.238a4.615,4.615,0,0,0-.234-1.545,3.151,3.151,0,0,0-.67-1.225,4.4,4.4,0,0,0-1.255-.933,4.217,4.217,0,0,0-1.691-.292h-1.05v1.4h1.225a2.568,2.568,0,0,1,.962.2,2.134,2.134,0,0,1,.759.583,1.675,1.675,0,0,1,.408.817,4.322,4.322,0,0,1,.117,1.05v4.054h-6.592v1.4h8.021Z" fill="#ededee"/><path d="M4239.178,2099.75h1.4v-12.569h-1.4Z" fill="#ededee"/><path d="M4179.537,2088.639H4181v-1.429h-1.459Z" fill="#ededee"/><path d="M4224.1,2101.354a4.934,4.934,0,0,1-2.041-.437,5.388,5.388,0,0,1-1.633-1.167h-6.212a4.873,4.873,0,0,1-1.692,1.167,4.738,4.738,0,0,1-2.1.408,4.933,4.933,0,0,1-2.041-.437,5.385,5.385,0,0,1-1.633-1.167h-28a8.123,8.123,0,0,1-2.217-.291,5.878,5.878,0,0,1-1.837-.846,4.418,4.418,0,0,1-1.283-1.458,4.534,4.534,0,0,1-.467-2.129,4.821,4.821,0,0,1,.408-1.9,4.255,4.255,0,0,1,1.167-1.517,5.635,5.635,0,0,1,1.837-.991,7.453,7.453,0,0,1,2.392-.35h2.216v8.108H4194v-2.129a4.049,4.049,0,0,0-.117-1.021,1.8,1.8,0,0,0-.408-.817,2.151,2.151,0,0,0-.788-.554,3.166,3.166,0,0,0-1.166-.2h-7.145a1.858,1.858,0,0,1-.409-.642,4.04,4.04,0,0,1-.233-.787l2.712-5.016H4188l-2.654,5.045h6.241a4.514,4.514,0,0,1,1.75.292,3.44,3.44,0,0,1,1.225.9,2.984,2.984,0,0,1,.671,1.225,5.474,5.474,0,0,1,.2,1.545v2.159h4.491v-11.17h1.4v11.17h4.491a9.975,9.975,0,0,1-.32-.992,4.33,4.33,0,0,1-.117-1.079,5.051,5.051,0,0,1,5.045-5.1,5.412,5.412,0,0,1,2.042.379,5.172,5.172,0,0,1,1.633,1.079,4.86,4.86,0,0,1,1.079,1.6,5.381,5.381,0,0,1,.408,2.013,5.065,5.065,0,0,1-.437,2.07h4.375a9.528,9.528,0,0,1-.321-.991,4.333,4.333,0,0,1-.117-1.079,5.051,5.051,0,0,1,5.046-5.1,5.41,5.41,0,0,1,2.041.379,5.161,5.161,0,0,1,1.633,1.079,4.86,4.86,0,0,1,1.079,1.6,5.384,5.384,0,0,1,.409,2.013,5.07,5.07,0,0,1-.438,2.07h4.812v-11.17h1.4v12.57h-7.174a4.9,4.9,0,0,1-1.692,1.167A4.367,4.367,0,0,1,4224.1,2101.354Zm0-8.778a3.626,3.626,0,0,0-1.458.292,3.464,3.464,0,0,0-1.137.787,3.821,3.821,0,0,0-.759,1.167,4.011,4.011,0,0,0-.262,1.429,3.734,3.734,0,0,0,1.021,2.595,3.8,3.8,0,0,0,1.137.788,3.487,3.487,0,0,0,1.429.291,4.156,4.156,0,0,0,1.458-.262,3.572,3.572,0,0,0,1.984-1.925,3.627,3.627,0,0,0,.291-1.458,3.761,3.761,0,0,0-.291-1.487,3.182,3.182,0,0,0-.788-1.167,3.829,3.829,0,0,0-1.166-.758A3.441,3.441,0,0,0,4224.1,2092.576Zm-13.678,0a3.565,3.565,0,0,0-2.595,1.079,3.823,3.823,0,0,0-.759,1.167,4.032,4.032,0,0,0,0,2.858,3.5,3.5,0,0,0,.759,1.166,3.782,3.782,0,0,0,1.137.788,3.489,3.489,0,0,0,1.429.291,4.45,4.45,0,0,0,1.488-.262,3.652,3.652,0,0,0,2.274-3.383,3.753,3.753,0,0,0-.291-1.487,3.181,3.181,0,0,0-.788-1.167,3.829,3.829,0,0,0-1.166-.758A3.671,3.671,0,0,0,4210.422,2092.576Zm-32.255-.933a4.536,4.536,0,0,0-1.4.233,3.847,3.847,0,0,0-1.225.671,3.933,3.933,0,0,0-.875,1.079,2.872,2.872,0,0,0-.321,1.371,3.264,3.264,0,0,0,.292,1.4,3.176,3.176,0,0,0,.816,1.049,3.862,3.862,0,0,0,1.225.671,5.266,5.266,0,0,0,1.488.234h1.4v-6.708Z" fill="#ededee"/><path d="M4042.873,2099.75h-9.245a8.116,8.116,0,0,1-2.216-.291,5.872,5.872,0,0,1-1.838-.846,4.424,4.424,0,0,1-1.283-1.458,4.536,4.536,0,0,1-.467-2.129,4.7,4.7,0,0,1,.409-1.9,4.244,4.244,0,0,1,1.166-1.516,5.606,5.606,0,0,1,1.838-.992,7.431,7.431,0,0,1,2.391-.35h2.217v8.108h5.628v-8.108h1.4v9.478Zm-9.8-8.107a4.54,4.54,0,0,0-1.4.233,3.858,3.858,0,0,0-1.225.671,3.959,3.959,0,0,0-.875,1.079,2.872,2.872,0,0,0-.32,1.371,3.267,3.267,0,0,0,.291,1.4,3.186,3.186,0,0,0,.817,1.049,3.847,3.847,0,0,0,1.225.671,5.259,5.259,0,0,0,1.487.234h1.4v-6.708Z" fill="#ededee"/><path d="M4130.1,2102.842h1.458v-1.429H4130.1Z" fill="#ededee"/><path d="M4127.625,2102.842h1.458v-1.429h-1.458Z" fill="#ededee"/><path d="M4139.611,2103.6a5.038,5.038,0,0,1-1.137-.146l.379-1.341c.117.029.263.058.379.087.117,0,.233.029.321.029a1.823,1.823,0,0,0,.671-.116.86.86,0,0,0,.408-.379,1.785,1.785,0,0,0,.2-.671,5.757,5.757,0,0,0,.059-1.021v-9.8h1.4v8.108h5.25l-2.479-5.862c.379-.321.758-.642,1.167-.934a7.323,7.323,0,0,1,1.312-.758,7.712,7.712,0,0,1,1.371-.5,5.378,5.378,0,0,1,1.37-.175,5.548,5.548,0,0,1,1.371.175,7.726,7.726,0,0,1,1.371.5,11.7,11.7,0,0,1,1.312.758,11.985,11.985,0,0,1,1.2.934l-2.479,5.862h6.008v-11.17h1.4v12.569h-18.14v.292a6.478,6.478,0,0,1-.146,1.487,3.422,3.422,0,0,1-.438,1.109,1.8,1.8,0,0,1-.845.7A2.491,2.491,0,0,1,4139.611,2103.6Zm10.7-11.928a5.2,5.2,0,0,0-1.779.321,5.984,5.984,0,0,0-1.663.991l2.217,5.367h2.508l2.216-5.367a5.732,5.732,0,0,0-1.575-.933,5.031,5.031,0,0,0-1.924-.379Z" fill="#ededee"/><path d="M4031.937,2088.639h1.458v-1.429h-1.458Z" fill="#ededee"/><path d="M4037.944,2108.966h-2.187l-4.783,5.017v-5.017H4029.2v10h1.779v-2.888l1.575-1.6,3.441,4.492h2.159l-4.375-5.716Z" fill="#ededee"/><path d="M4039.753,2118.97h1.779v-10h-1.779Z" fill="#ededee"/><path d="M4051.273,2115.878l-5.4-6.912h-1.633v10h1.75v-7.116l5.57,7.116h1.488v-10h-1.75v6.912Z" fill="#ededee"/><path d="M4060.343,2114.887h2.566v1.866a4.247,4.247,0,0,1-2.421.759,3.374,3.374,0,0,1-3.441-3.267v-.321a3.389,3.389,0,0,1,3.237-3.529h.03a3.91,3.91,0,0,1,2.828,1.08l1.138-1.313a5.565,5.565,0,0,0-3.879-1.371,5.117,5.117,0,0,0-5.191,5.046v.146a5,5,0,0,0,4.783,5.162h.437a6.362,6.362,0,0,0,4.2-1.575v-4.2h-4.287Z" fill="#ededee"/><path d="M4070.842,2118.97h-3.762v-10h3.762a4.981,4.981,0,0,1,5.337,4.638v.349a5.016,5.016,0,0,1-5.016,5.017Zm-1.983-8.4v6.8h1.983a3.3,3.3,0,0,0,3.5-3.063v-.32a3.314,3.314,0,0,0-3.179-3.413h-2.3Z" fill="#ededee"/><path d="M4083.091,2119.116a5.083,5.083,0,0,1-5.25-4.9v-.263a5.136,5.136,0,0,1,1.488-3.645,5.306,5.306,0,0,1,3.791-1.517,5.088,5.088,0,0,1,5.25,4.929v.263a5.137,5.137,0,0,1-1.488,3.645A5.3,5.3,0,0,1,4083.091,2119.116Zm0-8.721a3.386,3.386,0,0,0-3.383,3.383v.175a3.475,3.475,0,0,0,3.354,3.559h.058a3.429,3.429,0,0,0,3.412-3.384v-.175a3.4,3.4,0,0,0-3.266-3.558Z" fill="#ededee"/><path d="M4095.544,2113.691l-3.062-4.725h-1.9v10h1.75v-7.146l3.15,4.7h.058l3.179-4.725v7.175h1.779v-10h-1.9Z" fill="#ededee"/><path d="M4112.2,2119.116a5.083,5.083,0,0,1-5.25-4.9v-.263a5.137,5.137,0,0,1,1.488-3.645,5.306,5.306,0,0,1,3.791-1.517,5.088,5.088,0,0,1,5.25,4.929v.263a5.135,5.135,0,0,1-1.488,3.645A5.3,5.3,0,0,1,4112.2,2119.116Zm0-8.721a3.386,3.386,0,0,0-3.383,3.383v.175a3.475,3.475,0,0,0,3.354,3.559h.058a3.43,3.43,0,0,0,3.412-3.384v-.175a3.4,3.4,0,0,0-3.266-3.558Z" fill="#ededee"/><path d="M4119.692,2118.97h1.779v-4.083h5.075v-1.6h-5.075v-2.742h5.716v-1.6h-7.5Z" fill="#ededee"/><path d="M4137.337,2113.166c-1.925-.467-2.392-.787-2.392-1.575v-.029c0-.671.612-1.2,1.633-1.2a4.736,4.736,0,0,1,2.742,1.021l.962-1.312a5.539,5.539,0,0,0-3.645-1.254,3.058,3.058,0,0,0-3.413,2.683c0,.058-.029.146-.029.233v.029c0,1.838,1.2,2.479,3.354,2.975,1.867.437,2.275.817,2.275,1.516v.03c0,.758-.7,1.254-1.779,1.254a4.478,4.478,0,0,1-3.179-1.313l-1.079,1.254a6.243,6.243,0,0,0,4.2,1.6c2.129,0,3.587-1.108,3.587-2.974v-.03c0-1.662-1.108-2.42-3.237-2.916" fill="#ededee"/><path d="M4143.374,2118.97h-1.809l4.433-10.062h1.634l4.432,10.062H4150.2l-1.021-2.421h-4.754l-1.049,2.421Zm3.412-7.991-1.721,4h3.471Z" fill="#ededee"/><path d="M4159.968,2114.712c0,1.837-.962,2.77-2.537,2.77s-2.538-.991-2.538-2.858v-5.687h-1.779v5.775a3.921,3.921,0,0,0,3.471,4.374,4.934,4.934,0,0,0,5.191-3.645,2.75,2.75,0,0,0-.029-.846v-5.687h-1.779v5.8Z" fill="#ededee"/><path d="M4168.076,2118.97h-3.762v-10h3.762a5,5,0,0,1,5.337,4.638v.349a5.017,5.017,0,0,1-5.016,5.017Zm-1.983-8.4v6.8h1.983a3.293,3.293,0,0,0,3.5-3.063v-.32a3.313,3.313,0,0,0-3.178-3.413h-2.3Z" fill="#ededee"/><path d="M4175.658,2118.97h1.779v-10h-1.779Z" fill="#ededee"/><path d="M4185.4,2118.97h-1.808l4.433-10.062h1.633l4.433,10.062h-1.866l-1.021-2.421h-4.754l-1.05,2.421Zm3.413-7.991-1.721,4h3.47Z" fill="#ededee"/><path d="M4197.532,2118.97h-1.779v-10h4.491a4.136,4.136,0,0,1,2.916.992,3.09,3.09,0,0,1,.846,2.158v.029a3.011,3.011,0,0,1-2.391,3.033l2.712,3.792h-2.071l-2.479-3.5h-2.216v3.5Zm0-8.4v3.354h2.595c1.254,0,2.071-.641,2.071-1.662v-.029c0-1.05-.758-1.663-2.1-1.663Z" fill="#ededee"/><path d="M4207.418,2118.97h-1.808l4.433-10.091h1.633l4.433,10.062h-1.866l-1.021-2.421h-4.754l-1.05,2.45Zm3.413-7.991-1.721,4h3.47Z" fill="#ededee"/><path d="M4222.467,2118.97H4217.8v-10h4.52a3.728,3.728,0,0,1,2.625.875,2.2,2.2,0,0,1,.671,1.663v.029a2.356,2.356,0,0,1-1.429,2.216,2.468,2.468,0,0,1,2.012,2.421v.029C4226.171,2117.92,4224.8,2118.97,4222.467,2118.97Zm-2.945-4.317v2.742h2.945c1.225,0,1.954-.5,1.954-1.371V2116c0-.875-.729-1.342-2.07-1.342Zm0-4.141v2.654h2.42c1.2,0,1.9-.5,1.9-1.371h0c0-.787-.671-1.283-1.779-1.283Z" fill="#ededee"/><path d="M4228.358,2118.97h1.779v-10h-1.779Z" fill="#ededee"/><path d="M4233.637,2118.97h-1.808l4.433-10.062h1.633l4.433,10.062h-1.866l-1.021-2.421h-4.754l-1.05,2.421Zm3.412-7.991-1.72,4h3.47Z" fill="#ededee"/><path d="M4103.506,2013.162l2.858,2.712-2.741,2.829-2.859-2.713Z" fill="#273876"/><path d="M4110.01,2015.99l2.858,2.713,2.741-2.829-2.858-2.712Z" fill="#a8a9ab"/><path d="M4105.985,2019.549l2.216,2.1,2.129-2.187-2.216-2.1Z" fill="#cbd230"/><path d="M4114.122,2020.744l2.216,2.129,2.129-2.187-2.216-2.129Z" fill="#70b444"/><path d="M4102.368,2022.9l2.217,2.129,2.129-2.187-2.217-2.129Z" fill="#cbd230"/><path d="M4109.805,2023.165l2.217,2.129,2.129-2.187-2.217-2.129Z" fill="#24b1b8"/><path d="M4106.889,2025.7l1.546,1.488,1.487-1.546-1.546-1.487Z" fill="#70b444"/><path d="M4112.78,2026.869l1.546,1.487,1.487-1.546-1.545-1.487Z" fill="#59b05a"/><path d="M4125.612,2015.086l.875,4.813,4.842-.875-.875-4.813Z" fill="#2784c5"/><path d="M4119.313,2017.1l.7,3.849,3.879-.7-.7-3.849Z" fill="#1d3b6c"/><path d="M4126.808,2022.465l.7,3.85,3.879-.7-.7-3.85Z" fill="#24b1b8"/><path d="M4121.471,2023.019l.554,3,3.033-.554-.554-3Z" fill="#cbd230"/><path d="M4127.333,2028.735l.554,3,3.033-.554-.554-3Z" fill="#a8a9ab"/><path d="M4116.921,2024.244l.555,3,3.033-.554-.554-3Z" fill="#24b1b8"/><path d="M4122.4,2028.181l.554,3,3.034-.554-.555-3Z" fill="#70b444"/><path d="M4118.555,2028.531l.379,2.1,2.129-.379-.379-2.1Z" fill="#a8a9ab"/><path d="M4122.638,2032.906l.379,2.1,2.129-.379-.379-2.1Z" fill="#59b05a"/><path d="M4139.99,2030.806l-2.1,4.4,4.433,2.1,2.1-4.4Z" fill="#273876"/><path d="M4133.691,2028.764l-1.692,3.529,3.558,1.692,1.692-3.529Z" fill="#24b1b8"/><path d="M4136.607,2037.485l-1.691,3.528,3.558,1.692,1.691-3.529Z" fill="#70b444"/><path d="M4131.941,2034.831l-1.312,2.741,2.77,1.312,1.313-2.741Z" fill="#cbd230"/><path d="M4133.341,2042.851l-1.312,2.741,2.77,1.313,1.313-2.742Z" fill="#cbd230"/><path d="M4127.537,2033.2l-1.312,2.742,2.771,1.312,1.312-2.741Z" fill="#2784c5"/><path d="M4129.695,2039.555l-1.312,2.742,2.771,1.312,1.312-2.741Z" fill="#a8a9ab"/><path d="M4126.342,2037.63l-.934,1.925,1.954.934.934-1.925Z" fill="#70b444"/><path d="M4127.1,2043.522l-.933,1.924,1.954.934.933-1.925Z" fill="#24b1b8"/><path d="M4142.382,2051.921l-4.316,2.333,2.362,4.287,4.316-2.333Z" fill="#2784c5"/><path d="M4138.474,2046.613l-3.471,1.9,1.9,3.441,3.441-1.9Z" fill="#24b1b8"/><path d="M4135.7,2055.362l-3.47,1.9,1.9,3.441,3.442-1.9Z" fill="#24b1b8"/><path d="M4133.487,2050.492l-2.683,1.458,1.487,2.683,2.683-1.458Z" fill="#273876"/><path d="M4129.9,2057.812l-2.684,1.458,1.488,2.683,2.683-1.458Z" fill="#59b05a"/><path d="M4130.891,2046.613l-2.683,1.458,1.487,2.683,2.684-1.458Z" fill="#1d3b6c"/><path d="M4128.879,2053.029l-2.683,1.458,1.487,2.684,2.683-1.459Z" fill="#cbd230"/><path d="M4127.3,2049.5l-1.9,1.021,1.05,1.9,1.9-1.021Z" fill="#a8a9ab"/><path d="M4124.417,2054.721l-1.9,1.02,1.05,1.867,1.9-1.021Z" fill="#24b1b8"/><path d="M4131.883,2070.411l-4.871-.612-.612,4.841,4.87.612Z" fill="#70b444"/><path d="M4131.854,2063.849l-3.908-.5-.5,3.879,3.908.5Z" fill="#1d3b6c"/><path d="M4124.446,2069.332l-3.908-.5-.5,3.879,3.908.5Z" fill="#24b1b8"/><path d="M4125.5,2064.082l-3.033-.379-.379,3.033,3.033.38Z" fill="#70b444"/><path d="M4118.263,2067.961l-3.033-.379-.379,3.033,3.033.35Z" fill="#a8a9ab"/><path d="M4125.7,2059.445l-3.062-.379-.379,3.033,3.033.379Z" fill="#a8a9ab"/><path d="M4120.275,2063.47l-3.062-.379-.379,3.033,3.033.379Z" fill="#70b444"/><path d="M4121.092,2059.708l-2.129-.263-.262,2.129,2.128.263Z" fill="#a8a9ab"/><path d="M4115.667,2062.274l-2.129-.262-.262,2.129,2.129.262Z" fill="#a8a9ab"/><path d="M4112.459,2079.306l-3.616-3.324-3.354,3.587,3.616,3.324Z" fill="#cbd230"/><path d="M4111.818,2010.974l-3.617-3.324-3.354,3.587,3.617,3.324Z" fill="#70b444"/><path d="M4116.309,2073.969l-2.887-2.654-2.683,2.858,2.887,2.654Z" fill="#24b1b8"/><path d="M4107.064,2074.115l-2.887-2.654-2.683,2.858,2.887,2.654Z" fill="#70b444"/><path d="M4111.03,2070.5l-2.245-2.071-2.1,2.246,2.245,2.07Z" fill="#2784c5"/><path d="M4102.893,2069.42l-2.245-2.071-2.1,2.246,2.246,2.07Z" fill="#cbd230"/><path d="M4113.918,2066.824l-2.246-2.071-2.1,2.246,2.246,2.071Z" fill="#cbd230"/><path d="M4107.151,2066.941l-2.245-2.071-2.1,2.246,2.246,2.07Z" fill="#a8a9ab"/><path d="M4110.01,2064.374l-1.575-1.458-1.459,1.575,1.575,1.458Z" fill="#1d3b6c"/><path d="M4104.118,2063.295l-1.575-1.458-1.458,1.575,1.575,1.458Z" fill="#a8a9ab"/><path d="M4091.49,2075.252l-.962-4.783-4.812.963.962,4.783Z" fill="#2784c5"/><path d="M4097.761,2073.153l-.788-3.85-3.879.758.788,3.85Z" fill="#24b1b8"/><path d="M4090.178,2067.9l-.788-3.85-3.879.759.788,3.849Z" fill="#70b444"/><path d="M4095.515,2067.261l-.613-2.974-3,.583.613,2.975Z" fill="#cbd230"/><path d="M4100.006,2065.978l-.612-2.975-3,.584.612,3Z" fill="#273876"/><path d="M4094.465,2062.128l-.613-2.974-3,.612.612,2.975Z" fill="#2784c5"/><path d="M4098.315,2061.691l-.409-2.1-2.129.408.409,2.1Z" fill="#70b444"/><path d="M4094.144,2057.4l-.408-2.1-2.129.408.408,2.1Z" fill="#a8a9ab"/><path d="M4076.85,2059.766l2.041-4.433-4.462-2.012-2.041,4.433Z" fill="#24b1b8"/><path d="M4083.178,2061.72l1.634-3.558-3.588-1.633-1.633,3.558Z" fill="#cbd230"/><path d="M4080.116,2053.058l1.633-3.558-3.587-1.633-1.633,3.558Z" fill="#2784c5"/><path d="M4084.841,2055.625l1.283-2.771-2.8-1.254-1.283,2.771Z" fill="#24b1b8"/><path d="M4088.574,2062.566l1.283-2.771-2.8-1.254-1.283,2.771Z" fill="#a8a9ab"/><path d="M4083.295,2047.634l1.283-2.771-2.8-1.254-1.283,2.771Z" fill="#273876"/><path d="M4089.245,2057.2l1.283-2.771-2.8-1.254-1.283,2.771Z" fill="#59b05a"/><path d="M4087,2050.871l1.283-2.771-2.8-1.254-1.283,2.771Z" fill="#cbd230"/><path d="M4090.382,2052.738l.9-1.954-1.954-.905-.9,1.954Z" fill="#1d3b6c"/><path d="M4089.536,2046.846l.9-1.954-1.954-.9-.9,1.954Z" fill="#70b444"/><path d="M4074.108,2038.71l4.258-2.421-2.45-4.229-4.258,2.421Z" fill="#24b1b8"/><path d="M4078.1,2043.959l3.412-1.925-1.954-3.412-3.412,1.954Z" fill="#70b444"/><path d="M4080.729,2035.181l3.412-1.925-1.954-3.412-3.412,1.954Z" fill="#1d3b6c"/><path d="M4083.033,2039.993l2.653-1.517-1.516-2.654-2.654,1.517Z" fill="#2784c5"/><path d="M4086.5,2032.614l2.654-1.516-1.517-2.654-2.653,1.516Z" fill="#70b444"/><path d="M4085.686,2043.842l2.654-1.516-1.516-2.654-2.654,1.516Z" fill="#24b1b8"/><path d="M4087.611,2037.4l2.654-1.516-1.516-2.654-2.654,1.516Z" fill="#cbd230"/><path d="M4089.215,2040.868l1.867-1.05-1.079-1.867-1.867,1.05Z" fill="#a8a9ab"/><path d="M4092.015,2035.618l1.867-1.05-1.079-1.866-1.867,1.05Z" fill="#70b444"/><path d="M4084.287,2020.044l4.9.525.525-4.841-4.9-.525Z" fill="#70b444"/><path d="M4084.432,2026.635l3.908.409.409-3.879-3.908-.408Z" fill="#a8a9ab"/><path d="M4091.753,2021.007l3.908.408.408-3.879-3.908-.408Z" fill="#24b1b8"/><path d="M4090.761,2026.256l3.062.321.321-3.033-3.062-.321Z" fill="#cbd230"/><path d="M4097.935,2022.29l3.063.321.321-3.033-3.063-.321Z" fill="#2784c5"/><path d="M4090.674,2030.923l3.062.32.321-3.033-3.063-.32Z" fill="#24b1b8"/><path d="M4096.011,2026.81l3.062.321.321-3.033-3.063-.321Z" fill="#70b444"/><path d="M4095.282,2030.573l2.158.233.233-2.129-2.158-.233Z" fill="#1d3b6c"/><path d="M4100.648,2027.919l2.158.233.233-2.129-2.158-.233Z" fill="#a8a9ab"/><path d="M4123.833,2048.275a9.631,9.631,0,0,0-1.954-.845,11.5,11.5,0,0,0-5.366-.379,12.9,12.9,0,0,0-2.333.583l-.233.087a11.344,11.344,0,0,0-1.225.554c-.35.175-.7.38-1.05.584a21.741,21.741,0,0,0-2.333,1.6,49,49,0,0,1-.234-12.395.029.029,0,0,1,.03-.029h0c1.866,1.166,1.341,4.4.933,5.337a.029.029,0,0,0,.029.029,5.7,5.7,0,0,0,.7-6.475c0-.029,0-.029.029-.029a5.826,5.826,0,0,1,.846.846,4.985,4.985,0,0,1,1.05,2.742,9.106,9.106,0,0,1,0,1.254c0,.087-.029.175-.029.262,0,.029,0,.029.029.029h0a5.261,5.261,0,0,0,0-4.841,7.219,7.219,0,0,0-1.05-1.429,5.353,5.353,0,0,0-.408-.408v-.03c0-.029,0,0,.029,0h0a2.231,2.231,0,0,1,.408.117,3.649,3.649,0,0,1,1.05.554,4.231,4.231,0,0,1,1.458,1.954,4.709,4.709,0,0,1,.35,1.779.028.028,0,0,0,.029.029c.029,0,.029,0,.029-.029a4.157,4.157,0,0,0-1.837-5.045,4.281,4.281,0,0,0-1.05-.467,3.051,3.051,0,0,0-.5-.116c-.029,0-.029-.03,0-.03a3.015,3.015,0,0,1,.5-.029,6.3,6.3,0,0,1,1.05.088,3.725,3.725,0,0,1,1.458.583,3.106,3.106,0,0,1,.992,1.05c0,.029.029,0,.029,0a2.866,2.866,0,0,0-1.021-1.954,4.083,4.083,0,0,0-1.458-.758,4.308,4.308,0,0,0-1.05-.146,3.37,3.37,0,0,0-1.312.233c-.029,0-.029,0-.029-.029a2.308,2.308,0,0,1,1.341-.933,2.591,2.591,0,0,1,1.05-.117,2.134,2.134,0,0,1,.846.2h.029v-.029a3.277,3.277,0,0,0-.875-.7,3.177,3.177,0,0,0-1.05-.35,2.57,2.57,0,0,0-2.508,1.254h-.029c-.117-.2-.233-.466-.35-.7a8.85,8.85,0,0,1-.583-1.9.029.029,0,0,0-.03-.03.029.029,0,0,0-.029.03,8.85,8.85,0,0,1-.583,1.9,7.78,7.78,0,0,1-.35.7h-.029a2.725,2.725,0,0,0-3.733-.846,2.958,2.958,0,0,0-.7.642v.029h.029a2.8,2.8,0,0,1,3.237.846v.029h-.029a3.862,3.862,0,0,0-4.141,1.021,3.055,3.055,0,0,0-.7,1.6c0,.029.029.029.029,0a3.3,3.3,0,0,1,.642-.788,4.331,4.331,0,0,1,3.354-.9c.029,0,.029.03,0,.03a4.467,4.467,0,0,0-3.354,2.653,4.712,4.712,0,0,0-.029,2.975.028.028,0,0,0,.029.029c.029,0,.029,0,.029-.029v-.087a4.439,4.439,0,0,1,3.266-4.346.028.028,0,0,1,.029.029v.03a5.364,5.364,0,0,0-1.487,6.649h.029v-.029a5.451,5.451,0,0,1,1.867-5.133c.029,0,.029,0,.029.029a5.744,5.744,0,0,0,.7,6.475c0,.029.029,0,.029-.03-.379-.933-.9-4.17.933-5.337h.029a50.35,50.35,0,0,1-.233,12.4,18.8,18.8,0,0,0-4.608-2.712c-.2-.058-.379-.146-.554-.2a12.258,12.258,0,0,0-4.345-.613,10.9,10.9,0,0,0-4.492,1.138c-.175.087-.321.175-.437.233-.029.029-.029.029,0,.058a.1.1,0,0,0,.058.03c.146-.03.263-.088.408-.117a12.982,12.982,0,0,1,4.492-.438,13.156,13.156,0,0,1,4.345,1.167,23.187,23.187,0,0,1,5.191,3.354,57.506,57.506,0,0,1-5.191,4.4l-.175.087a1.188,1.188,0,0,0-1.691-.262,1.156,1.156,0,0,0-.467.7,1.227,1.227,0,0,0,.233,1.05,1.764,1.764,0,0,0,2.1.291c1.517-.641,3.412-2.625,5.746-4.754.2-.175.379-.35.583-.524.2.174.379.349.583.524,1.05.963,2.012,1.9,2.887,2.684.35.32.7.641,1.05.9a10.049,10.049,0,0,0,1.459,1.02,1.884,1.884,0,0,0,2.333-.058.406.406,0,0,1,.116-.087,1.326,1.326,0,0,0,.234-1.05,1.1,1.1,0,0,0-.35-.584,1.328,1.328,0,0,0-.554-.32,1.235,1.235,0,0,0-1.255.466,2.833,2.833,0,0,1-.5-.321,18.3,18.3,0,0,1-1.459-1.166c-.32-.292-.67-.613-1.049-.933-.73-.642-1.517-1.371-2.334-2.1.759-.613,1.546-1.225,2.334-1.75.35-.233.7-.438,1.049-.671.467-.292.963-.525,1.459-.787a15.963,15.963,0,0,1,2.333-.875,12.341,12.341,0,0,1,5.366-.321q.963.175,1.925.437c.029,0,.058,0,.058-.029-.116.059-.116.029-.146.029" fill="#ededee"/></g></svg>