<svg xmlns="http://www.w3.org/2000/svg" viewBox="0 0 886.61 437.37"><defs><style>.cls-1{fill:#5bb047;}.cls-2{fill:#5a5a5d;}.cls-3{fill:none;}</style></defs><g id="Layer_2" data-name="Layer 2"><g id="Layer_1-2" data-name="Layer 1"><polygon class="cls-1" points="808.23 0 651.47 0 573.09 135.86 613.22 205.46 666.1 205.46 625.97 135.86 678.01 45.98 781.68 45.98 833.73 135.86 781.68 225.73 757.23 225.73 730.68 271.72 808.23 271.72 886.61 135.86 808.23 0"/><polygon class="cls-1" points="745.52 66.26 692.43 66.26 732.56 135.86 680.73 225.73 576.85 225.73 525.01 135.86 576.85 45.98 601.51 45.98 627.85 0 550.51 0 471.92 135.86 550.51 271.72 707.27 271.72 785.65 135.86 745.52 66.26"/><path class="cls-2" d="M68.11,49.33a8.93,8.93,0,0,0,8.78-9.2c0-5.43-3.76-9.61-8.78-9.61s-9,4.18-9,9.61A9.1,9.1,0,0,0,68.11,49.33Z"/><path class="cls-2" d="M66.57,267.12c-5,0-9,4.18-9,9.61a9.1,9.1,0,0,0,9,9.2,8.93,8.93,0,0,0,8.78-9.2C75.35,271.3,71.58,267.12,66.57,267.12Z"/><path class="cls-2" d="M104.48,85.07c0-21.32-6.48-27.8-20.28-27.8H74.8c-12.12,0-21.11,8.78-21.11,21.11V88c0,11.92,7.11,21.74,25.29,21.74H89V121H56.2c-7.32,0-15.47-4.6-15.47-11.92V85.7L25.26,88.41v23c0,15.26,15.89,25.09,24.67,25.09h54.55Zm-28,9.19c-5,0-7.31-1.88-7.31-6.47V81.1c0-4.6,2.71-8.36,8.36-8.36h3.76c5.64,0,7.73,3.76,7.73,8.36V94.26Z"/><path class="cls-2" d="M388.74,109.73V29.89l-15.47,2.72V94.26H353.41V74.2c0-9.2-5-17.14-20.27-17.14H321.43c-11.93,0-20,8-28.63,20.71V59.57l-14.63,2.72v32H258.52V59.57l-15.47,2.72v32H226.6L209.19,53.72l-15.67,2.71,16.24,37.83h-30v15.47Zm-70-37.2h10c5.85,0,9.2,2.92,9.2,7.94V94.26H294C301.93,85,310.51,72.53,318.72,72.53Z"/><path class="cls-2" d="M250.79,52.46c5,0,9-4.39,9-9.61a9,9,0,0,0-9-9.2,9.14,9.14,0,0,0-9.2,9.2A9.51,9.51,0,0,0,250.79,52.46Z"/><path class="cls-2" d="M241.59,162.4a9.51,9.51,0,0,0,9.2,9.62c5,0,9-4.39,9-9.62a9,9,0,0,0-9-9.19A9.14,9.14,0,0,0,241.59,162.4Z"/><path class="cls-2" d="M90.06,49.33a9.1,9.1,0,0,0,9-9.2c0-5.43-4-9.61-9-9.61-4.6,0-9,4.18-9,9.61A9.38,9.38,0,0,0,90.06,49.33Z"/><path class="cls-2" d="M141.68,109.73h10v4.6c0,5.43-4.18,6.69-14.84,6.69H121.41v15.47h19.86c18.18,0,25.91-4.18,25.91-22.16V85.07c0-21.32-6.48-27.8-20.27-27.8H137.5c-12.12,0-21.11,8.78-21.11,21.11V88C116.39,99.91,123.5,109.73,141.68,109.73ZM131.86,81.1c0-4.6,2.72-8.36,8.36-8.36H144c5.65,0,7.74,3.76,7.74,8.36V94.26H139.18c-5,0-7.32-1.88-7.32-6.47Z"/><polygon class="cls-2" points="404.41 109.73 419.88 109.73 419.88 29.89 404.41 32.61 404.41 109.73"/><polygon class="cls-2" points="404.41 229.29 419.88 229.29 419.88 149.44 404.41 152.16 404.41 229.29"/><path class="cls-2" d="M88.51,267.12c-4.59,0-9,4.18-9,9.61a9.38,9.38,0,0,0,9,9.2,9.1,9.1,0,0,0,9-9.2C97.5,271.3,93.53,267.12,88.51,267.12Z"/><path class="cls-2" d="M164.8,229.29V213.82H142.65a6.54,6.54,0,0,1-6.27-6.06v-9c0-2.92,2.92-5.85,6.27-5.85h16.51V177.45H136.38c-8.57,0-15.47,7.11-15.47,14.84v11.29c0,4.84,1.1,7.83,3.23,10.24H83.08v15.47H97.71v8.36c0,5-2.3,6.9-7.31,6.9H65.73c-5.64,0-8.57-3.56-8.57-12.34V207.76L41.7,210.48v23.41c0,15,8.77,26.12,20.69,26.12h30.3c12.34,0,20.49-8.36,20.49-21.32v-9.4Z"/><path class="cls-2" d="M388.74,149.44l-15.47,2.72v61.66H353.41V193.75c0-9.19-5-17.13-20.27-17.13H321.43c-11.93,0-20,8-28.63,20.56V179.12l-14.63,2.72v32H258.52v-32l-15.47,2.72v29.26h-49.4V149.65l-15.47,2.72v76.92H388.74ZM294,213.82c7.92-9.3,16.5-21.74,24.71-21.74h10c5.85,0,9.2,2.93,9.2,7.95v13.79Z"/><polygon class="cls-2" points="225.6 324.77 225.6 363.49 233.82 363.49 233.82 323.41 225.6 324.77"/><path class="cls-2" d="M209,355.73h-9.78V338.79L191,340.17v15.56h-6.23V338.79l-8.28,1.38v15.56h-6.32V338.79l-8.28,1.38v15.56H150.34a10.47,10.47,0,0,0,1.71-5.83v-4.82c0-6-3.77-10.91-13.44-10.91h-5.33l-8.22-.25v12.62c0,4.06.5,7,1.51,9.19H115.15v-4.65c0-10.78-3.47-14.06-10.85-14.06h-5c-6.49,0-11.3,4.44-11.3,10.67v4.87c0,6,3.81,11,13.54,11h5.37v2.32c0,2.75-2.24,3.38-7.94,3.38H90.65v7.83h10.63c9.73,0,13.87-2.12,13.87-11.21v-2.38H217.26V323.41L209,324.77Zm-108.88,0c-2.69,0-3.92-1-3.92-3.28v-3.38c0-2.33,1.46-4.23,4.48-4.23h2c3,0,4.14,1.9,4.14,4.23v6.66h-6.71Zm33.12-13.8H140c2.66,0,3.89.94,3.89,3.25v3.36c0,2.31-1.45,4.19-4.45,4.19h-2c-3,0-4.11-1.88-4.11-4.19Z"/><polygon class="cls-2" points="72.41 335.57 64.12 336.92 72.7 355.81 56.83 355.81 56.83 363.54 84.76 363.54 81.61 355.81 72.41 335.57"/><path class="cls-2" d="M16.78,382.54a4.72,4.72,0,1,0,0,9.44,4.61,4.61,0,0,0,4.67-4.61A4.66,4.66,0,0,0,16.78,382.54Z"/><path class="cls-2" d="M28.45,382.54a4.72,4.72,0,1,0,0,9.44,4.72,4.72,0,1,0,0-9.44Z"/><path class="cls-2" d="M717.85,333.81a4.54,4.54,0,0,0,4.6-4.55,4.59,4.59,0,0,0-4.6-4.76,4.66,4.66,0,1,0,0,9.31Z"/><path class="cls-2" d="M736.92,351.52c0-10.56-3.39-13.77-10.63-13.77h-4.93c-6.36,0-11.07,4.35-11.07,10.45V353c0,5.9,3.72,10.76,13.26,10.76h5.26v5.59H711.6c-3.83,0-8.11-2.27-8.11-5.9V351.83l-8.11,1.34v11.39c0,7.56,8.33,12.43,12.93,12.43h28.61Zm-14.68,4.55c-2.64,0-3.84-.93-3.84-3.21v-3.31c0-2.28,1.42-4.14,4.38-4.14h2c3,0,4,1.86,4,4.14v6.52Z"/><path class="cls-2" d="M867.47,356.07v-9.94c0-4.55-2.63-8.49-10.63-8.49H850.7c-6.26,0-10.51,4-15,10.26v-9L828,340.23v15.84h-10.3V338.89l-8.11,1.34v15.84H801L791.84,336l-8.22,1.34,8.52,18.74H776.38v7.66h91M849.28,345.3h5.26c3.07,0,4.82,1.45,4.82,3.94v6.83h-23C840.47,351.46,845,345.3,849.28,345.3Z"/><path class="cls-2" d="M813.65,335.37a4.76,4.76,0,0,0,4.72-4.77,4.58,4.58,0,0,0-4.72-4.55,4.67,4.67,0,0,0-4.82,4.55A4.84,4.84,0,0,0,813.65,335.37Z"/><path class="cls-2" d="M729.36,333.81a4.66,4.66,0,1,0,0-9.31,4.66,4.66,0,1,0,0,9.31Z"/><path class="cls-2" d="M756.43,363.73h5.27V366c0,2.69-2.2,3.31-7.79,3.31H745.8V377h10.42c9.53,0,13.59-2.08,13.59-11V351.52c0-10.56-3.4-13.77-10.64-13.77h-4.93c-6.36,0-11.07,4.35-11.07,10.45V353C743.17,358.87,746.9,363.73,756.43,363.73Zm-5.15-14.18c0-2.28,1.43-4.14,4.39-4.14h2c3,0,4.06,1.86,4.06,4.14v6.52h-6.58c-2.63,0-3.84-.93-3.84-3.21Z"/><path class="cls-2" d="M297.48,370.84a4.73,4.73,0,1,0,0,9.45,4.61,4.61,0,0,0,4.67-4.62A4.66,4.66,0,0,0,297.48,370.84Z"/><path class="cls-2" d="M379.56,329.46a4.9,4.9,0,0,0,4.89,4.83,4.82,4.82,0,0,0,4.78-4.83,4.64,4.64,0,0,0-4.78-4.61A4.73,4.73,0,0,0,379.56,329.46Z"/><polygon class="cls-2" points="466.11 363.04 474.33 363.04 474.33 322.96 466.11 324.32 466.11 363.04"/><path class="cls-2" d="M309.15,370.84a4.73,4.73,0,1,0,0,9.45,4.73,4.73,0,1,0,0-9.45Z"/><path class="cls-2" d="M535.56,370.84a4.73,4.73,0,1,0,0,9.45,4.61,4.61,0,0,0,4.66-4.62A4.65,4.65,0,0,0,535.56,370.84Z"/><path class="cls-2" d="M547.22,370.84a4.73,4.73,0,1,0,0,9.45,4.73,4.73,0,1,0,0-9.45Z"/><path class="cls-2" d="M457.77,323l-8.22,1.36v31H439V345.2c0-4.61-2.67-8.6-10.78-8.6H422c-6.34,0-10.66,4-15.22,10.32v-9.06L399,339.22v16.06H388.56V339.22l-8.22,1.37v14.69H364.39V323.06l-8.22,1.37V363h101.6Zm-50.35,32.32c4.21-4.67,8.77-10.92,13.14-10.92h5.33c3.11,0,4.89,1.47,4.89,4v6.93Z"/><path class="cls-2" d="M335.84,355.28a3.42,3.42,0,0,1-3.35-3v-4.53a3.32,3.32,0,0,1,3.35-2.92h8.78V337H332.49c-4.55,0-8.2,3.59-8.2,7.45v5.68a7,7,0,0,0,1.7,5.14H309.13V336l-8.27,1.4v17.87H281.54a11.76,11.76,0,0,0,.39-3.1v-4.83c0-6.2-4.77-10.61-11.21-10.61h-5c-7.32,0-10.75,3.25-10.75,13.95v12.64l8.2-.24h5.35a6.26,6.26,0,0,0,.88,0h78.25v-7.77Zm-62.11-3.23c0,2.31-1.25,3.26-3.89,3.26h-6.69v-6.6c0-2.31,1.13-4.19,4.13-4.19h2c3,0,4.47,1.88,4.47,4.19Z"/><path class="cls-2" d="M261.86,332.85a4.72,4.72,0,0,0,0-9.44,4.72,4.72,0,1,0,0,9.44Z"/><path class="cls-2" d="M273.53,332.85a4.72,4.72,0,1,0,0-9.44,4.72,4.72,0,1,0,0,9.44Z"/><polygon class="cls-2" points="665.52 364.57 673.74 364.57 673.74 324.49 665.52 325.85 665.52 364.57"/><path class="cls-2" d="M622.14,337.43a4.61,4.61,0,0,0,4.67-4.62,4.66,4.66,0,0,0-4.67-4.83,4.73,4.73,0,1,0,0,9.45Z"/><path class="cls-2" d="M601.21,337.43a4.61,4.61,0,0,0,4.66-4.62,4.65,4.65,0,0,0-4.66-4.83,4.73,4.73,0,1,0,0,9.45Z"/><path class="cls-2" d="M633.8,337.43a4.73,4.73,0,1,0,0-9.45,4.73,4.73,0,1,0,0,9.45Z"/><path class="cls-2" d="M521.23,356.8v1.91a10.75,10.75,0,0,0,.73-1.91Z"/><path class="cls-2" d="M502.32,333.76a4.61,4.61,0,0,0,4.67-4.62,4.65,4.65,0,0,0-4.67-4.82,4.72,4.72,0,1,0,0,9.44Z"/><path class="cls-2" d="M514,333.76a4.72,4.72,0,1,0,0-9.44,4.72,4.72,0,1,0,0,9.44Z"/><path class="cls-2" d="M569.09,356.8v.36a1.46,1.46,0,0,1,0-.36s0-.06,0-.13A.21.21,0,0,0,569.09,356.8Z"/><path class="cls-2" d="M522,356.8a10.75,10.75,0,0,1-.73,1.91V356.8Z"/><path class="cls-2" d="M649,325.86V356.8H633.41V339.51l-8.29,1.39v15.9H606.83V339.51l-8.27,1.39v15.9H587v-1.28A12,12,0,0,0,585,349a11.43,11.43,0,0,0-8.45-3.41h-5a14.33,14.33,0,0,0-4.62.64c-3.68,1.22-5.65,4.32-6.08,10.58H545.54V339.51l-8.3,1.39v15.9H522a10.75,10.75,0,0,1-.73,1.91V356.8H522a11.27,11.27,0,0,0,.42-3.19v-4.84c0-6.19-4.77-10.6-11.21-10.6h-5c-7.36,0-10.79,3.25-10.79,13.95v12.64l2.31-.06,5.93-.19h2.09v.06h55.09v7.57l5.23-.15,3-.09h5.31c6.78,0,10.67-2.43,12.37-6,0,0,0,0,0-.06a9.6,9.6,0,0,0,.18-1.31h70.26V324.5ZM503.64,356.74v-6.6c0-2.31,1.09-4.19,4.1-4.19h2c3,0,4.44,1.88,4.44,4.19v3.34c0,2.31-1.22,3.26-3.89,3.26Zm76,4.16c0,2.31-1.21,3.25-3.89,3.25h-6.65v-6.62a1.5,1.5,0,0,1,0-.37v-.36a.21.21,0,0,1,0-.13,4.72,4.72,0,0,1,.12-.69,4.35,4.35,0,0,1,.58-1.16,1.24,1.24,0,0,1,.3-.39,2.38,2.38,0,0,1,.49-.4,1.18,1.18,0,0,1,.42-.24.66.66,0,0,1,.34-.15,2.68,2.68,0,0,1,.76-.22,5.41,5.41,0,0,1,1-.09h2a5.6,5.6,0,0,1,1,.09,2.94,2.94,0,0,1,1.06.34,2.31,2.31,0,0,1,.61.3,2.73,2.73,0,0,1,.58.46,3,3,0,0,1,.39.48,1.1,1.1,0,0,1,.24.4.23.23,0,0,1,.06.12,3,3,0,0,1,.25.55v.09a2.38,2.38,0,0,1,.15.64,5.83,5.83,0,0,1,.06.73Z"/><path class="cls-2" d="M587.8,356.16v.64H587v-1.28A12,12,0,0,0,585,349,10.26,10.26,0,0,1,587.8,356.16Z"/><path class="cls-2" d="M587.2,364.57a9.21,9.21,0,0,1-.46,1.31,9.6,9.6,0,0,0,.18-1.31Z"/><path class="cls-2" d="M.05,437.37v-7.63H16.92a1.37,1.37,0,0,0,1.52-1.57v-4c0-1.09-.47-1.66-1.47-1.66H6.45c-4.31,0-6.45-2-6.45-6.21v-8.15c0-4.55,2-6.78,6.21-6.78H24.56V409H8.35c-.95,0-1.43.53-1.43,1.57v4c0,1.09.48,1.61,1.52,1.61H19.15c4.13,0,6.22,2.09,6.22,6.26v8.1c0,4.6-2.24,6.88-6.64,6.88Z"/><path class="cls-2" d="M49.45,437.37v-15.5h-13v15.5H29.58V407.79c0-4.32,2.19-6.45,6.5-6.45H49.83c4.36,0,6.54,2.13,6.54,6.45v29.58Zm0-26.93a1.45,1.45,0,0,0-1.61-1.66H38.07a1.45,1.45,0,0,0-1.61,1.66v5h13Z"/><path class="cls-2" d="M67.33,437.37c-4.36,0-6.55-2.13-6.55-6.45V401.34H67.7v26.78c0,1.09.53,1.62,1.66,1.62h9.06a1.45,1.45,0,0,0,1.66-1.62V401.34H87v29.58c0,4.32-2.18,6.45-6.54,6.45Z"/><path class="cls-2" d="M91.46,437.37v-36h19c4.41,0,6.59,2.28,6.59,6.83v22.66c0,4.36-2.18,6.54-6.59,6.54Zm18.63-26.59a1.58,1.58,0,0,0-1.75-1.81h-10v20.77h10a1.52,1.52,0,0,0,1.75-1.71Z"/><path class="cls-2" d="M121.38,437.37v-36h6.92v36Z"/><path class="cls-2" d="M147.12,437.37v-36H154v36Z"/><path class="cls-2" d="M179.79,437.37l-14.32-21.76v21.76h-6.92v-36h6.64l13.51,21.52V401.34h6.92v36Z"/><path class="cls-2" d="M190.13,437.37v-36h19c4.41,0,6.59,2.28,6.59,6.83v22.66c0,4.36-2.18,6.54-6.59,6.54Zm18.63-26.59A1.58,1.58,0,0,0,207,409h-9.95v20.77H207c1.19,0,1.76-.57,1.76-1.71Z"/><path class="cls-2" d="M226.49,437.37c-4.36,0-6.54-2.13-6.54-6.45V401.34h6.92v26.78c0,1.09.52,1.62,1.66,1.62h9.06a1.45,1.45,0,0,0,1.65-1.62V401.34h6.88v29.58c0,4.32-2.18,6.45-6.54,6.45Z"/><path class="cls-2" d="M250.44,437.37v-7.63h16.87a1.37,1.37,0,0,0,1.52-1.57v-4c0-1.09-.48-1.66-1.47-1.66H256.83c-4.31,0-6.44-2-6.44-6.21v-8.15c0-4.55,2-6.78,6.21-6.78H275V409H258.73c-1,0-1.42.53-1.42,1.57v4c0,1.09.47,1.61,1.52,1.61h10.71c4.13,0,6.21,2.09,6.21,6.26v8.1c0,4.6-2.23,6.88-6.64,6.88Z"/><path class="cls-2" d="M287.46,437.37V409h-8.67v-7.63H303V409h-8.67v28.4Z"/><path class="cls-2" d="M325.15,437.37a6,6,0,0,1-.23-1.94V424.19a1.45,1.45,0,0,0-1.61-1.66H313.16v14.84h-6.92v-36H325.3c4.26,0,6.4,2.23,6.4,6.73v6c0,3-1.28,4.74-3.89,5.22,2.75.57,4,2.23,4,4.93v10.95a6.62,6.62,0,0,0,.24,2.18Zm-.23-26.93a1.47,1.47,0,0,0-1.61-1.66H313.16v7.3h10.15c1,0,1.61-.61,1.61-1.75Z"/><path class="cls-2" d="M336.16,437.37v-36h6.92v36Z"/><path class="cls-2" d="M367.35,437.37v-15.5h-13v15.5h-6.87V407.79c0-4.32,2.18-6.45,6.49-6.45h13.75c4.36,0,6.54,2.13,6.54,6.45v29.58Zm0-26.93a1.45,1.45,0,0,0-1.61-1.66H356a1.45,1.45,0,0,0-1.61,1.66v5h13Z"/><path class="cls-2" d="M378.78,437.37v-36h6.92v28.4h13.94v7.63Z"/><path class="cls-2" d="M417.19,437.37v-36h19c4.41,0,6.59,2.28,6.59,6.83v22.66c0,4.36-2.18,6.54-6.59,6.54Zm18.62-26.59c0-1.19-.56-1.81-1.75-1.81h-9.95v20.77h9.95a1.52,1.52,0,0,0,1.75-1.71Z"/><path class="cls-2" d="M447.1,437.37v-36h22.14v7.54H454.07V416H467.3v6.4H454.07v7.35h15.27v7.63Z"/><path class="cls-2" d="M480.62,437.37l-9.34-36h7.87l6.35,26.31,6.64-26.31h7.49l-9.62,36Z"/><path class="cls-2" d="M502.43,437.37v-36h22.14v7.54H509.4V416h13.23v6.4H509.4v7.35h15.27v7.63Z"/><path class="cls-2" d="M528.37,437.37v-36h6.92v28.4h13.94v7.63Z"/><path class="cls-2" d="M558.62,437.37c-4.22,0-6.36-2.09-6.36-6.3V407.93c0-4.41,2.14-6.59,6.36-6.59h12.84c4.27,0,6.36,2.18,6.36,6.59v23.14c0,4.21-2.09,6.3-6.36,6.3Zm12.32-26.83a1.39,1.39,0,0,0-1.56-1.57h-8.63a1.39,1.39,0,0,0-1.57,1.57v17.73c0,1,.53,1.47,1.57,1.47h8.63c1,0,1.56-.48,1.56-1.47Z"/><path class="cls-2" d="M582.13,437.37v-36h19.25c4.22,0,6.35,2.23,6.35,6.73v9.34c0,4.13-2.13,6.17-6.35,6.17H589.06v13.79Zm18.73-26.83A1.37,1.37,0,0,0,599.3,409H589.06v7.77H599.3a1.38,1.38,0,0,0,1.56-1.56Z"/><path class="cls-2" d="M639.12,437.37V416.18l-6.78,21.19h-7.06l-6.78-21.19v21.19h-7.16v-36H621l7.82,25.7,7.68-25.7h9.67v36Z"/><path class="cls-2" d="M650.69,437.37v-36h22.14v7.54H657.66V416h13.23v6.4H657.66v7.35h15.27v7.63Z"/><path class="cls-2" d="M697.87,437.37l-14.32-21.76v21.76h-6.92v-36h6.64l13.5,21.52V401.34h6.93v36Z"/><path class="cls-2" d="M715.6,437.37V409h-8.68v-7.63h24.23V409h-8.67v28.4Z"/><path class="cls-2" d="M748.69,437.37v-36h21.67v7.54h-14.7V416H767v6.73H755.66v14.65Z"/><path class="cls-2" d="M780.08,437.37c-4.36,0-6.54-2.13-6.54-6.45V401.34h6.92v26.78c0,1.09.52,1.62,1.66,1.62h9a1.45,1.45,0,0,0,1.66-1.62V401.34h6.88v29.58c0,4.32-2.18,6.45-6.55,6.45Z"/><path class="cls-2" d="M825.45,437.37l-14.31-21.76v21.76h-6.93v-36h6.64l13.51,21.52V401.34h6.92v36Z"/><path class="cls-2" d="M835.79,437.37v-36h19c4.41,0,6.59,2.28,6.59,6.83v22.66c0,4.36-2.18,6.54-6.59,6.54Zm18.63-26.59a1.58,1.58,0,0,0-1.75-1.81h-10v20.77h10a1.52,1.52,0,0,0,1.75-1.71Z"/><polygon class="cls-2" points="225.6 324.77 225.6 363.49 233.82 363.49 233.82 323.41 225.6 324.77"/><path class="cls-2" d="M209,355.73h-9.78V338.79L191,340.17v15.56h-6.23V338.79l-8.28,1.38v15.56h-6.32V338.79l-8.28,1.38v15.56H150.34a10.47,10.47,0,0,0,1.71-5.83v-4.82c0-6-3.77-10.91-13.44-10.91h-5.33l-8.22-.25v12.62c0,4.06.5,7,1.51,9.19H115.15v-4.65c0-10.78-3.47-14.06-10.85-14.06h-5c-6.49,0-11.3,4.44-11.3,10.67v4.87c0,6,3.81,11,13.54,11h5.37v2.32c0,2.75-2.24,3.38-7.94,3.38H90.65v7.83h10.63c9.73,0,13.87-2.12,13.87-11.21v-2.38H217.26V323.41L209,324.77Zm-108.88,0c-2.69,0-3.92-1-3.92-3.28v-3.38c0-2.33,1.46-4.23,4.48-4.23h2c3,0,4.14,1.9,4.14,4.23v6.66h-6.71Zm33.12-13.8H140c2.66,0,3.89.94,3.89,3.25v3.36c0,2.31-1.45,4.19-4.45,4.19h-2c-3,0-4.11-1.88-4.11-4.19Z"/><polygon class="cls-2" points="72.41 335.57 64.12 336.92 72.7 355.81 56.83 355.81 56.83 363.54 84.76 363.54 81.61 355.81 72.41 335.57"/><line class="cls-3" x1="10.99" y1="352.74" x2="2.77" y2="354.1"/><path class="cls-2" d="M50.46,344a1.82,1.82,0,0,0-.7-.33,28.94,28.94,0,0,0-3.79-.51c-1.54-.13-3.72-.19-5.12-.19q-7.58,0-11.44,3.09t-3.87,9.59v6q0,.9,0,1.8c0,.59,0,1.22-.05,1.89s-.05,1.42-.08,2.25c-.72.11-1.4.19-2,.24S21.94,368,21,368a12.64,12.64,0,0,1-5.35-.94,7.19,7.19,0,0,1-3.09-2.65,10.37,10.37,0,0,1-1.43-4.11,36.31,36.31,0,0,1-.35-5.33c0-.5,0-1.11.08-1.81l0-.32-7.78,1.29c0,.33-.09.67-.12,1-.07.69-.13,1.32-.16,1.9s-.06,1.08-.06,1.51q0,9,4.44,13.28T20.84,376Q24,376,27,375.8a54,54,0,0,0,5.43-.65c.79-.15,1.19-.54,1.19-1.19.08-1.44.13-2.95.16-4.52s.06-3.11.06-4.62v-8.38c0-2.17.44-3.68,1.33-4.55a5.82,5.82,0,0,1,4.19-1.29c.39,0,.74,0,1,0s.72.06,1.3.14v12.78h9V344.81A1,1,0,0,0,50.46,344Z"/></g></g></svg>