<?xml version="1.0" encoding="utf-8"?>
<!-- Generator: Adobe Illustrator 26.0.1, SVG Export Plug-In . SVG Version: 6.00 Build 0)  -->
<svg version="1.1" id="Layer_1" xmlns="http://www.w3.org/2000/svg" xmlns:xlink="http://www.w3.org/1999/xlink" x="0px" y="0px"
	 viewBox="0 0 1079.3 1918.9" style="enable-background:new 0 0 1079.3 1918.9;" xml:space="preserve">
<style type="text/css">
	.st0{clip-path:url(#SVGID_00000015329605328393513440000003183119821457259185_);}
	.st1{fill:#A4D3A7;}
	.st2{clip-path:url(#SVGID_00000011718555084690200330000002297470978721657223_);}
	.st3{clip-path:url(#SVGID_00000070838667542336746730000006162124173113103543_);}
	.st4{fill:#535A5B;}
</style>
<g id="Layer_2_00000120551614482844714220000018051197666629721274_">
	<g id="Layer_1-2">
		<g>
			<defs>
				<rect id="SVGID_1_" width="1079.3" height="1918.9"/>
			</defs>
			<clipPath id="SVGID_00000003074948007156836350000001540163407566475426_">
				<use xlink:href="#SVGID_1_"  style="overflow:visible;"/>
			</clipPath>
			<g style="clip-path:url(#SVGID_00000003074948007156836350000001540163407566475426_);">
				<polygon class="st1" points="2848.9,1918.9 2855.8,1918.9 3142.6,1422 3139.2,1416.1 				"/>
				<polygon class="st1" points="2793,1918.9 2799.9,1918.9 3114.7,1373.5 3111.3,1367.5 				"/>
				<polygon class="st1" points="2737.1,1918.9 2743.9,1918.9 3086.8,1324.9 3083.4,1319 				"/>
				<polygon class="st1" points="3016.7,1918.9 3023.6,1918.9 3226.4,1567.6 3223,1561.7 				"/>
				<polygon class="st1" points="2904.9,1918.9 2911.7,1918.9 3170.6,1470.5 3167.1,1464.6 				"/>
				<polygon class="st1" points="2960.8,1918.9 2967.6,1918.9 3198.5,1519.1 3195.1,1513.1 				"/>
				<polygon class="st1" points="2625.3,1918.9 2632.1,1918.9 3030.9,1227.8 3027.5,1221.9 				"/>
				<polygon class="st1" points="2457.6,1918.9 2464.4,1918.9 2947.1,1082.2 2943.7,1076.3 				"/>
				<polygon class="st1" points="2401.6,1918.9 2408.5,1918.9 2919.2,1033.7 2915.8,1027.8 				"/>
				<polygon class="st1" points="2681.2,1918.9 2688,1918.9 3058.8,1276.4 3055.4,1270.5 				"/>
				<polygon class="st1" points="2513.5,1918.9 2520.3,1918.9 2975,1130.8 2971.6,1124.8 				"/>
				<polygon class="st1" points="2569.4,1918.9 2576.2,1918.9 3003,1179.3 2999.6,1173.4 				"/>
				<polygon class="st1" points="3164.6,0 2915,433 3229.6,979.7 3229.6,932.3 2942.3,433 3191.9,0 				"/>
				<polygon class="st1" points="3026.8,433 3229.6,785.4 3229.6,738 3054.1,433 3229.6,128.7 3229.6,81.3 				"/>
				<polygon class="st1" points="3220.5,0 2970.9,433 3229.6,882.5 3229.6,835.2 2998.2,433 3229.6,31.7 3229.6,0 				"/>
				<polygon class="st1" points="3082.7,433 3229.6,688.2 3229.6,640.8 3110,433 3229.6,225.6 3229.6,178.2 				"/>
				<polygon class="st1" points="3194.5,433 3229.6,493.9 3229.6,446.6 3221.8,433 3229.6,419.6 3229.6,372.2 				"/>
				<polygon class="st1" points="3138.6,433 3229.6,591.1 3229.6,543.7 3165.9,433 3229.6,322.6 3229.6,275.2 				"/>
				<polygon class="st1" points="2996.9,0 2747.3,433 3229.6,1271.2 3229.6,1223.8 2774.6,433 3024.2,0 				"/>
				<polygon class="st1" points="2829.2,0 2579.6,433 3229.6,1562.7 3229.6,1515.3 2606.9,433 2856.5,0 				"/>
				<polygon class="st1" points="3108.7,0 2859.1,433 3229.6,1076.9 3229.6,1029.5 2886.4,433 3136,0 				"/>
				<polygon class="st1" points="2885.1,0 2635.5,433 3229.6,1465.5 3229.6,1418.1 2662.8,433 2912.4,0 				"/>
				<polygon class="st1" points="3052.8,0 2803.2,433 3229.6,1174 3229.6,1126.6 2830.5,433 3080.1,0 				"/>
				<polygon class="st1" points="2941,0 2691.4,433 3229.6,1368.4 3229.6,1321 2718.7,433 2968.3,0 				"/>
				<polygon class="st1" points="2450.9,0 2375.6,130.6 2379,136.5 2457.7,0 				"/>
				<g>
					<defs>
						<rect id="SVGID_00000085963925362158888430000014838034730448433799_" x="0" y="0" width="3229.5" height="1918.9"/>
					</defs>
					<clipPath id="SVGID_00000136411332886557862990000001618244918397132209_">
						<use xlink:href="#SVGID_00000085963925362158888430000014838034730448433799_"  style="overflow:visible;"/>
					</clipPath>
					<g style="clip-path:url(#SVGID_00000136411332886557862990000001618244918397132209_);">
						<polygon class="st1" points="2555.4,-472.1 2291.8,-15 2295.2,-9 2562.2,-472.1 						"/>
					</g>
				</g>
				<polygon class="st1" points="2562.7,0 2431.4,227.7 2434.9,233.6 2569.5,0 				"/>
				<polygon class="st1" points="2730.4,0 2515.2,373.3 2518.6,379.2 2737.2,0 				"/>
				<polygon class="st1" points="2786.3,0 2543.2,421.8 2546.6,427.8 2793.1,0 				"/>
				<polygon class="st1" points="2506.8,0 2403.5,179.2 2406.9,185.1 2513.6,0 				"/>
				<polygon class="st1" points="2674.5,0 2487.3,324.8 2490.7,330.7 2681.3,0 				"/>
				<polygon class="st1" points="2618.6,0 2459.4,276.2 2462.8,282.2 2625.4,0 				"/>
				<g>
					<defs>
						<rect id="SVGID_00000100363280095781062850000000621478679766367881_" x="0" y="0" width="3229.5" height="1918.9"/>
					</defs>
					<clipPath id="SVGID_00000126325447101118155250000002421339064527718333_">
						<use xlink:href="#SVGID_00000100363280095781062850000000621478679766367881_"  style="overflow:visible;"/>
					</clipPath>
					<g style="clip-path:url(#SVGID_00000126325447101118155250000002421339064527718333_);">
						<polygon class="st1" points="3566,104.7 3231.9,-472.1 3225.1,-472.1 3559.2,104.7 3295.6,562 3298.9,568 3565.2,106.2 						
							"/>
						<polygon class="st1" points="3510.1,104.7 3176,-472.1 3169.2,-472.1 3503.3,104.7 3267.7,513.4 3271.1,519.3 3509.3,106.2 
													"/>
						<polygon class="st1" points="3120.1,-472.1 3113.3,-472.1 3447.4,104.7 3239.9,464.7 3243.3,470.6 3454.2,104.7 						"/>
					</g>
				</g>
				<polygon class="st1" points="2294.3,1803.5 2303.1,1819 2767.8,1015.5 2301.9,207.9 2293,223.3 2750,1015.4 				"/>
				<polygon class="st1" points="2266.4,1755.1 2275.3,1770.5 2711.9,1015.5 2273.9,256.4 2265,271.8 2694.1,1015.4 				"/>
				<polygon class="st1" points="2238.5,1706.6 2247.4,1722 2656,1015.5 2245.9,304.8 2237,320.2 2638.2,1015.4 				"/>
				<polygon class="st1" points="2210.7,1658.2 2219.5,1673.6 2600.1,1015.5 2217.9,353.3 2209,368.7 2582.3,1015.5 				"/>
				<polygon class="st1" points="2348.9,126.4 2861.8,1015.4 2350,1900.5 2358.9,1915.9 2879.6,1015.5 2357.8,111 				"/>
				<polygon class="st1" points="2322.1,1852 2331,1867.4 2823.7,1015.5 2329.8,159.5 2320.9,174.9 2805.9,1015.4 				"/>
				<polygon class="st1" points="2154.9,1561.2 2163.8,1576.6 2488.3,1015.5 2161.9,450.2 2153.1,465.5 2470.5,1015.4 				"/>
				<polygon class="st1" points="2099.2,1464.3 2108,1479.7 2376.5,1015.5 2106,547 2097.1,562.4 2358.7,1015.4 				"/>
				<polygon class="st1" points="2071.3,1415.8 2080.1,1431.2 2320.6,1015.5 2078,595.5 2069.1,610.9 2302.8,1015.4 				"/>
				<polygon class="st1" points="2043.4,1367.4 2052.3,1382.8 2264.7,1015.5 2050.1,644 2041.2,659.3 2246.9,1015.5 				"/>
				<polygon class="st1" points="2127,1512.8 2135.9,1528.2 2432.4,1015.5 2134,498.6 2125.1,514 2414.6,1015.5 				"/>
				<polygon class="st1" points="2182.8,1609.7 2191.6,1625.1 2544.2,1015.5 2189.9,401.7 2181,417.1 2526.4,1015.4 				"/>
				<polygon class="st1" points="1133.9,1918.9 1140.7,1918.9 1427.6,1422 1424.2,1416.1 				"/>
				<polygon class="st1" points="1078,1918.9 1084.8,1918.9 1399.6,1373.5 1396.2,1367.5 				"/>
				<polygon class="st4" points="1022.1,1918.9 1028.9,1918.9 1371.7,1324.9 1368.3,1319 				"/>
				<polygon class="st1" points="1301.7,1918.9 1308.5,1918.9 1511.4,1567.6 1508,1561.7 				"/>
				<polygon class="st1" points="1189.8,1918.9 1196.7,1918.9 1455.5,1470.5 1452.1,1464.6 				"/>
				<polygon class="st1" points="1245.8,1918.9 1252.6,1918.9 1483.4,1519.1 1480,1513.1 				"/>
				<polygon class="st4" points="910.2,1918.9 917.1,1918.9 1315.9,1227.8 1312.4,1221.9 				"/>
				<polygon class="st4" points="742.5,1918.9 749.3,1918.9 1232.1,1082.2 1228.7,1076.3 				"/>
				<polygon class="st4" points="686.6,1918.9 693.4,1918.9 1204.2,1033.7 1200.8,1027.8 				"/>
				<polygon class="st4" points="966.2,1918.9 973,1918.9 1343.8,1276.4 1340.4,1270.5 				"/>
				<polygon class="st4" points="798.4,1918.9 805.3,1918.9 1260,1130.8 1256.6,1124.8 				"/>
				<polygon class="st4" points="854.3,1918.9 861.2,1918.9 1287.9,1179.3 1284.5,1173.4 				"/>
				<polygon class="st1" points="1449.6,0 1200,433 2054.9,1918.9 2082.1,1918.9 1227.2,433 1476.9,0 				"/>
				<polygon class="st1" points="1561.4,0 1311.8,433 2166.7,1918.9 2193.9,1918.9 1339.1,433 1588.7,0 				"/>
				<polygon class="st1" points="1505.5,0 1255.9,433 2110.8,1918.9 2138,1918.9 1283.2,433 1532.8,0 				"/>
				<polygon class="st1" points="1617.3,0 1367.7,433 2222.6,1918.9 2249.8,1918.9 1394.9,433 1644.6,0 				"/>
				<polygon class="st1" points="1479.5,433 2334.4,1918.9 2361.6,1918.9 1528.2,470.6 1525.2,465.2 1506.7,433 1714.2,73.3 
					1700.5,49.7 				"/>
				<polygon class="st1" points="1423.6,433 2278.5,1918.9 2305.7,1918.9 1450.8,433 1686.1,24.9 1672.4,1.3 				"/>
				<polygon class="st4" points="1281.8,0 1032.2,433 1887.2,1918.9 1914.4,1918.9 1059.6,433 1309.2,0 				"/>
				<polygon class="st4" points="1114.2,0 864.6,433 1719.5,1918.9 1746.7,1918.9 891.8,433 1141.5,0 				"/>
				<polygon class="st1" points="1393.7,0 1144.1,433 1999,1918.9 2026.2,1918.9 1171.4,433 1421,0 				"/>
				<polygon class="st4" points="1170,0 920.5,433 1775.4,1918.9 1802.6,1918.9 947.7,433 1197.4,0 				"/>
				<polygon class="st1" points="1337.8,0 1088.2,433 1943.1,1918.9 1970.3,1918.9 1115.5,433 1365.1,0 				"/>
				<polygon class="st4" points="1225.9,0 976.4,433 1831.3,1918.9 1858.5,1918.9 1003.7,433 1253.3,0 				"/>
				<polygon class="st4" points="729.6,0 652.9,133 656.3,139.1 736.5,0 				"/>
				<polygon class="st4" points="843.4,0 709.8,231.9 713.2,237.9 850.4,0 				"/>
				<polygon class="st4" points="1014.2,0 795.1,380.2 798.5,386.2 1021.2,0 				"/>
				<polygon class="st4" points="1071.1,0 823.5,429.6 827,435.6 1078.1,0 				"/>
				<polygon class="st4" points="786.5,0 681.3,182.5 684.8,188.5 793.4,0 				"/>
				<polygon class="st4" points="957.3,0 766.6,330.7 770.1,336.8 964.2,0 				"/>
				<polygon class="st4" points="900.4,0 738.2,281.3 741.7,287.3 907.3,0 				"/>
				<polygon class="st1" points="1783.5,0 1844.2,104.7 1580.5,562 1583.9,568 1850.1,106.2 1851,104.7 1790.3,0 				"/>
				<polygon class="st1" points="1951.2,0 2011.8,104.7 1664,708.1 1667.4,714.1 2017.8,106.2 2018.7,104.7 1958,0 				"/>
				<polygon class="st1" points="1839.4,0 1900.1,104.7 1608.4,610.7 1611.8,616.7 1906,106.2 1906.9,104.7 1846.2,0 				"/>
				<polygon class="st1" points="1727.6,0 1788.3,104.7 1552.7,513.4 1556.1,519.3 1794.2,106.2 1795.1,104.7 1734.4,0 				"/>
				<polygon class="st1" points="1671.7,0 1732.3,104.7 1524.8,464.7 1528.2,470.6 1739.2,104.7 1678.5,0 				"/>
				<polygon class="st1" points="1895.3,0 1956,104.7 1636.2,659.4 1639.6,665.4 1961.9,106.2 1962.8,104.7 1902.1,0 				"/>
				<polygon class="st1" points="2007.1,0 2067.8,104.7 1691.9,756.8 1695.3,762.7 2073.7,106.2 2074.6,104.7 2013.9,0 				"/>
				<polygon class="st1" points="2230.7,0 2291.4,104.7 1803.2,951.5 1806.6,957.5 2297.3,106.2 2298.2,104.7 2237.5,0 				"/>
				<polygon class="st1" points="2286.6,0 2347.2,104.7 1831.1,1000.2 1834.4,1006.2 2353.2,106.2 2354.1,104.7 2293.4,0 				"/>
				<polygon class="st1" points="2174.8,0 2235.4,104.7 1775.4,902.9 1778.8,908.8 2241.4,106.2 2242.3,104.7 2181.6,0 				"/>
				<polygon class="st1" points="2118.9,0 2179.6,104.7 1747.5,854.2 1750.9,860.1 2185.5,106.2 2186.4,104.7 2125.7,0 				"/>
				<polygon class="st1" points="2063,0 2123.6,104.7 1719.7,805.5 1723.1,811.4 2129.6,106.2 2130.5,104.7 2069.8,0 				"/>
				<polygon class="st4" points="579.2,1803.5 588.1,1819 1052.8,1015.5 586.8,207.9 577.9,223.3 1035,1015.4 				"/>
				<polygon class="st4" points="551.4,1755.1 560.2,1770.5 996.8,1015.5 558.8,256.4 550,271.8 979.1,1015.4 				"/>
				<polygon class="st4" points="523.5,1706.6 532.4,1722 940.9,1015.5 530.9,304.8 522,320.2 923.2,1015.4 				"/>
				<polygon class="st4" points="495.6,1658.2 504.5,1673.6 885,1015.5 502.9,353.3 494,368.7 867.3,1015.5 				"/>
				<polygon class="st4" points="633.9,126.4 1146.8,1015.4 635,1900.5 643.8,1915.9 1164.5,1015.5 642.8,111 				"/>
				<polygon class="st4" points="607.1,1852 616,1867.4 1108.6,1015.5 614.8,159.5 605.9,174.9 1090.9,1015.4 				"/>
				<polygon class="st4" points="439.9,1561.2 448.7,1576.6 773.2,1015.5 446.9,450.2 438,465.5 755.5,1015.4 				"/>
				<polygon class="st4" points="384.1,1464.3 393,1479.7 661.4,1015.5 391,547 382.1,562.4 643.7,1015.4 				"/>
				<polygon class="st4" points="356.2,1415.8 365.1,1431.2 605.5,1015.5 363,595.5 354.1,610.9 587.8,1015.4 				"/>
				<polygon class="st4" points="328.4,1367.4 337.2,1382.8 549.6,1015.5 335,644 326.1,659.3 531.9,1015.5 				"/>
				<polygon class="st4" points="412,1512.8 420.9,1528.2 717.3,1015.5 418.9,498.6 410,514 699.6,1015.5 				"/>
				<polygon class="st4" points="467.7,1609.7 476.6,1625.1 829.1,1015.5 474.9,401.7 466,417.1 811.4,1015.4 				"/>
				<polygon class="st4" points="0,1323.4 342.6,1918.9 369.9,1918.9 0,1276 				"/>
				<polygon class="st4" points="0,1129.1 454.4,1918.9 481.7,1918.9 0,1081.7 				"/>
				<polygon class="st4" points="0,1226.2 398.5,1918.9 425.8,1918.9 0,1178.8 				"/>
				<polygon class="st4" points="0,1031.9 510.3,1918.9 537.6,1918.9 0,984.5 				"/>
				<path class="st4" d="M0,837.6l622.1,1081.3h27.3L0,790.4V837.6z M0,76.6l1.9-3.3L0,70V76.6z"/>
				<polygon class="st4" points="0,934.7 566.2,1918.9 593.5,1918.9 0,887.3 				"/>
				<polygon class="st4" points="0,1614.8 174.9,1918.9 202.2,1918.9 0,1567.5 				"/>
				<polygon class="st4" points="0,1906.3 7.2,1918.9 34.5,1918.9 0,1859 				"/>
				<polygon class="st4" points="0,1420.5 286.7,1918.9 314,1918.9 0,1373.2 				"/>
				<polygon class="st4" points="0,1809.2 63.1,1918.9 90.4,1918.9 0,1761.8 				"/>
				<polygon class="st4" points="0,1517.7 230.9,1918.9 258.1,1918.9 0,1470.3 				"/>
				<polygon class="st4" points="0,1712 119,1918.9 146.3,1918.9 0,1664.7 				"/>
				<polygon class="st4" points="71.2,0 131.9,104.7 0,333.5 0,345.4 137.9,106.2 138.7,104.7 78.1,0 				"/>
				<polygon class="st4" points="239,0 299.6,104.7 0,624.5 0,636.3 305.6,106.2 306.4,104.7 245.8,0 				"/>
				<polygon class="st4" points="127.2,0 187.8,104.7 0,430.5 0,442.4 193.8,106.2 194.6,104.7 134,0 				"/>
				<polygon class="st4" points="15.4,0 76,104.7 0,236.6 0,248.4 82,106.2 82.9,104.7 22.2,0 				"/>
				<polygon class="st4" points="0,70 20.1,104.7 0,139.6 0,151.5 27,104.7 0,58.2 				"/>
				<polygon class="st4" points="183.1,0 243.7,104.7 0,527.5 0,539.4 249.7,106.2 250.5,104.7 189.9,0 				"/>
				<polygon class="st4" points="294.9,0 355.5,104.7 0,721.4 0,733.3 361.5,106.2 362.4,104.7 301.7,0 				"/>
				<polygon class="st4" points="518.5,0 579.1,104.7 91,951.5 94.4,957.5 585.1,106.2 585.9,104.7 525.3,0 				"/>
				<polygon class="st4" points="576,0 638,108.3 121.8,1003.8 125.2,1009.7 644,109.8 644.8,108.3 582.8,0 				"/>
				<polygon class="st4" points="462.5,0 523.2,104.7 63.1,902.9 66.6,908.8 529.2,106.2 530,104.7 469.4,0 				"/>
				<polygon class="st4" points="406.7,0 467.3,104.7 35.3,854.2 38.7,860.1 473.3,106.2 474.1,104.7 413.5,0 				"/>
				<polygon class="st4" points="350.8,0 411.4,104.7 7.5,805.5 10.9,811.4 417.4,106.2 418.2,104.7 357.6,0 				"/>
			</g>
		</g>
	</g>
</g>
</svg>
